<?xml version="1.0" encoding="utf-8" standalone="no"?>
<!DOCTYPE svg PUBLIC "-//W3C//DTD SVG 1.1//EN"
  "http://www.w3.org/Graphics/SVG/1.1/DTD/svg11.dtd">
<svg xmlns:xlink="http://www.w3.org/1999/xlink" width="1080pt" height="720pt" viewBox="0 0 1080 720" xmlns="http://www.w3.org/2000/svg" version="1.1">
 <metadata>
  <rdf:RDF xmlns:dc="http://purl.org/dc/elements/1.1/" xmlns:cc="http://creativecommons.org/ns#" xmlns:rdf="http://www.w3.org/1999/02/22-rdf-syntax-ns#">
   <cc:Work>
    <dc:type rdf:resource="http://purl.org/dc/dcmitype/StillImage"/>
    <dc:date>2025-05-14T10:10:02.035654</dc:date>
    <dc:format>image/svg+xml</dc:format>
    <dc:creator>
     <cc:Agent>
      <dc:title>Matplotlib v3.9.2, https://matplotlib.org/</dc:title>
     </cc:Agent>
    </dc:creator>
   </cc:Work>
  </rdf:RDF>
 </metadata>
 <defs>
  <style type="text/css">*{stroke-linejoin: round; stroke-linecap: butt}</style>
 </defs>
 <g id="figure_1">
  <g id="patch_1">
   <path d="M 0 720 
L 1080 720 
L 1080 0 
L 0 0 
z
" style="fill: #ffffff"/>
  </g>
  <g id="axes_1">
   <g id="patch_2">
    <path d="M 78.23 322.5 
L 353.52 322.5 
L 353.52 40.56 
L 78.23 40.56 
z
" style="fill: #ffffff"/>
   </g>
   <g id="PolyCollection_1">
    <path d="M 90.743182 222.066036 
L 90.743182 283.994396 
L 101.624209 276.801643 
L 112.505237 265.797505 
L 123.386265 238.519073 
L 134.267292 222.863776 
L 145.14832 206.868268 
L 156.029348 196.315091 
L 166.910375 179.391908 
L 177.791403 177.025842 
L 188.672431 163.444668 
L 199.553458 169.588132 
L 210.434486 160.007921 
L 221.315514 159.035474 
L 232.196542 150.643753 
L 243.077569 154.103644 
L 253.958597 147.604563 
L 264.839625 151.122378 
L 275.720652 150.405014 
L 286.60168 144.815232 
L 297.482708 140.735302 
L 308.363735 133.578099 
L 319.244763 133.143006 
L 330.125791 135.969813 
L 341.006818 139.058878 
L 341.006818 85.641678 
L 341.006818 85.641678 
L 330.125791 86.55528 
L 319.244763 87.206623 
L 308.363735 87.641716 
L 297.482708 93.537291 
L 286.60168 95.548657 
L 275.720652 92.56943 
L 264.839625 103.164474 
L 253.958597 102.331363 
L 243.077569 96.702467 
L 232.196542 102.772913 
L 221.315514 106.563785 
L 210.434486 105.591338 
L 199.553458 111.674461 
L 188.672431 116.077554 
L 177.791403 121.640454 
L 166.910375 127.106055 
L 156.029348 133.677872 
L 145.14832 150.100435 
L 134.267292 163.691224 
L 123.386265 175.881853 
L 112.505237 201.684717 
L 101.624209 211.129931 
L 90.743182 222.066036 
z
" clip-path="url(#p4c8dc59ed7)" style="fill: #095086; fill-opacity: 0.1"/>
   </g>
   <g id="PolyCollection_2">
    <path d="M 90.743182 205.415328 
L 90.743182 273.08924 
L 101.624209 260.757467 
L 112.505237 244.394061 
L 123.386265 224.707065 
L 134.267292 206.868268 
L 145.14832 196.765092 
L 156.029348 181.291365 
L 166.910375 177.489819 
L 177.791403 163.381728 
L 188.672431 160.563095 
L 199.553458 154.311059 
L 210.434486 161.535846 
L 221.315514 149.8171 
L 232.196542 149.668037 
L 243.077569 144.216043 
L 253.958597 141.166712 
L 264.839625 133.906029 
L 275.720652 134.050973 
L 286.60168 133.881953 
L 297.482708 136.350817 
L 308.363735 136.97675 
L 319.244763 136.384376 
L 330.125791 137.208339 
L 341.006818 131.692698 
L 341.006818 85.756315 
L 341.006818 85.756315 
L 330.125791 87.492217 
L 319.244763 89.186365 
L 308.363735 85.983435 
L 297.482708 84.868997 
L 286.60168 92.558973 
L 275.720652 89.779397 
L 264.839625 86.443601 
L 253.958597 93.976066 
L 243.077569 97.018031 
L 232.196542 102.008259 
L 221.315514 101.859196 
L 210.434486 104.933598 
L 199.553458 110.418015 
L 188.672431 111.127461 
L 177.791403 110.049198 
L 166.910375 123.787033 
L 156.029348 128.687339 
L 145.14832 135.838427 
L 134.267292 150.100435 
L 123.386265 167.939232 
L 112.505237 184.800013 
L 101.624209 193.454431 
L 90.743182 205.415328 
z
" clip-path="url(#p4c8dc59ed7)" style="fill: #b00000; fill-opacity: 0.1"/>
   </g>
   <g id="matplotlib.axis_1">
    <g id="xtick_1">
     <g id="line2d_1">
      <defs>
       <path id="m03acccedec" d="M 0 0 
L 0 3.5 
" style="stroke: #000000; stroke-width: 0.8"/>
      </defs>
      <g>
       <use xlink:href="#m03acccedec" x="79.862154" y="322.5" style="stroke: #000000; stroke-width: 0.8"/>
      </g>
     </g>
     <g id="text_1">
      <!-- 0 -->
      <g transform="translate(74.85731 342.412188) scale(0.18 -0.18)">
       <defs>
        <path id="Helvetica-30" d="M 1731 4475 
Q 2600 4475 2988 3759 
Q 3288 3206 3288 2244 
Q 3288 1331 3016 734 
Q 2622 -122 1728 -122 
Q 922 -122 528 578 
Q 200 1163 200 2147 
Q 200 2909 397 3456 
Q 766 4475 1731 4475 
z
M 1725 391 
Q 2163 391 2422 778 
Q 2681 1166 2681 2222 
Q 2681 2984 2493 3476 
Q 2306 3969 1766 3969 
Q 1269 3969 1039 3501 
Q 809 3034 809 2125 
Q 809 1441 956 1025 
Q 1181 391 1725 391 
z
" transform="scale(0.015625)"/>
       </defs>
       <use xlink:href="#Helvetica-30"/>
      </g>
     </g>
    </g>
    <g id="xtick_2">
     <g id="line2d_2">
      <g>
       <use xlink:href="#m03acccedec" x="123.386265" y="322.5" style="stroke: #000000; stroke-width: 0.8"/>
      </g>
     </g>
     <g id="text_2">
      <!-- 4 -->
      <g transform="translate(118.381421 342.412188) scale(0.18 -0.18)">
       <defs>
        <path id="Helvetica-34" d="M 2116 1584 
L 2116 3613 
L 681 1584 
L 2116 1584 
z
M 2125 0 
L 2125 1094 
L 163 1094 
L 163 1644 
L 2213 4488 
L 2688 4488 
L 2688 1584 
L 3347 1584 
L 3347 1094 
L 2688 1094 
L 2688 0 
L 2125 0 
z
" transform="scale(0.015625)"/>
       </defs>
       <use xlink:href="#Helvetica-34"/>
      </g>
     </g>
    </g>
    <g id="xtick_3">
     <g id="line2d_3">
      <g>
       <use xlink:href="#m03acccedec" x="166.910375" y="322.5" style="stroke: #000000; stroke-width: 0.8"/>
      </g>
     </g>
     <g id="text_3">
      <!-- 8 -->
      <g transform="translate(161.905532 342.412188) scale(0.18 -0.18)">
       <defs>
        <path id="Helvetica-38" d="M 1741 2600 
Q 2113 2600 2322 2808 
Q 2531 3016 2531 3303 
Q 2531 3553 2331 3762 
Q 2131 3972 1722 3972 
Q 1316 3972 1134 3762 
Q 953 3553 953 3272 
Q 953 2956 1187 2778 
Q 1422 2600 1741 2600 
z
M 1775 384 
Q 2166 384 2423 595 
Q 2681 806 2681 1225 
Q 2681 1659 2415 1884 
Q 2150 2109 1734 2109 
Q 1331 2109 1076 1879 
Q 822 1650 822 1244 
Q 822 894 1055 639 
Q 1288 384 1775 384 
z
M 975 2384 
Q 741 2484 609 2619 
Q 363 2869 363 3269 
Q 363 3769 725 4128 
Q 1088 4488 1753 4488 
Q 2397 4488 2762 4148 
Q 3128 3809 3128 3356 
Q 3128 2938 2916 2678 
Q 2797 2531 2547 2391 
Q 2825 2263 2984 2097 
Q 3281 1784 3281 1284 
Q 3281 694 2884 283 
Q 2488 -128 1763 -128 
Q 1109 -128 657 226 
Q 206 581 206 1256 
Q 206 1653 400 1942 
Q 594 2231 975 2384 
z
" transform="scale(0.015625)"/>
       </defs>
       <use xlink:href="#Helvetica-38"/>
      </g>
     </g>
    </g>
    <g id="xtick_4">
     <g id="line2d_4">
      <g>
       <use xlink:href="#m03acccedec" x="210.434486" y="322.5" style="stroke: #000000; stroke-width: 0.8"/>
      </g>
     </g>
     <g id="text_4">
      <!-- 12 -->
      <g transform="translate(200.424799 342.412188) scale(0.18 -0.18)">
       <defs>
        <path id="Helvetica-31" d="M 613 3169 
L 613 3600 
Q 1222 3659 1462 3798 
Q 1703 3938 1822 4456 
L 2266 4456 
L 2266 0 
L 1666 0 
L 1666 3169 
L 613 3169 
z
" transform="scale(0.015625)"/>
        <path id="Helvetica-32" d="M 200 0 
Q 231 578 439 1006 
Q 647 1434 1250 1784 
L 1850 2131 
Q 2253 2366 2416 2531 
Q 2672 2791 2672 3125 
Q 2672 3516 2437 3745 
Q 2203 3975 1813 3975 
Q 1234 3975 1013 3538 
Q 894 3303 881 2888 
L 309 2888 
Q 319 3472 525 3841 
Q 891 4491 1816 4491 
Q 2584 4491 2939 4075 
Q 3294 3659 3294 3150 
Q 3294 2613 2916 2231 
Q 2697 2009 2131 1694 
L 1703 1456 
Q 1397 1288 1222 1134 
Q 909 863 828 531 
L 3272 531 
L 3272 0 
L 200 0 
z
" transform="scale(0.015625)"/>
       </defs>
       <use xlink:href="#Helvetica-31"/>
       <use xlink:href="#Helvetica-32" x="55.615234"/>
      </g>
     </g>
    </g>
    <g id="xtick_5">
     <g id="line2d_5">
      <g>
       <use xlink:href="#m03acccedec" x="253.958597" y="322.5" style="stroke: #000000; stroke-width: 0.8"/>
      </g>
     </g>
     <g id="text_5">
      <!-- 16 -->
      <g transform="translate(243.948909 342.412188) scale(0.18 -0.18)">
       <defs>
        <path id="Helvetica-36" d="M 1872 4494 
Q 2622 4494 2917 4105 
Q 3213 3716 3213 3303 
L 2656 3303 
Q 2606 3569 2497 3719 
Q 2294 4000 1881 4000 
Q 1409 4000 1131 3564 
Q 853 3128 822 2316 
Q 1016 2600 1309 2741 
Q 1578 2866 1909 2866 
Q 2472 2866 2890 2506 
Q 3309 2147 3309 1434 
Q 3309 825 2912 354 
Q 2516 -116 1781 -116 
Q 1153 -116 697 361 
Q 241 838 241 1966 
Q 241 2800 444 3381 
Q 834 4494 1872 4494 
z
M 1831 384 
Q 2275 384 2495 682 
Q 2716 981 2716 1388 
Q 2716 1731 2519 2042 
Q 2322 2353 1803 2353 
Q 1441 2353 1167 2112 
Q 894 1872 894 1388 
Q 894 963 1142 673 
Q 1391 384 1831 384 
z
" transform="scale(0.015625)"/>
       </defs>
       <use xlink:href="#Helvetica-31"/>
       <use xlink:href="#Helvetica-36" x="55.615234"/>
      </g>
     </g>
    </g>
    <g id="xtick_6">
     <g id="line2d_6">
      <g>
       <use xlink:href="#m03acccedec" x="297.482708" y="322.5" style="stroke: #000000; stroke-width: 0.8"/>
      </g>
     </g>
     <g id="text_6">
      <!-- 20 -->
      <g transform="translate(287.47302 342.412188) scale(0.18 -0.18)">
       <use xlink:href="#Helvetica-32"/>
       <use xlink:href="#Helvetica-30" x="55.615234"/>
      </g>
     </g>
    </g>
    <g id="xtick_7">
     <g id="line2d_7">
      <g>
       <use xlink:href="#m03acccedec" x="341.006818" y="322.5" style="stroke: #000000; stroke-width: 0.8"/>
      </g>
     </g>
     <g id="text_7">
      <!-- 24 -->
      <g transform="translate(330.997131 342.412188) scale(0.18 -0.18)">
       <use xlink:href="#Helvetica-32"/>
       <use xlink:href="#Helvetica-34" x="55.615234"/>
      </g>
     </g>
    </g>
    <g id="text_8">
     <!-- Trial -->
     <g transform="translate(198.377031 363.07625) scale(0.18 -0.18)">
      <defs>
       <path id="Helvetica-54" d="M 3828 4591 
L 3828 4044 
L 2281 4044 
L 2281 0 
L 1650 0 
L 1650 4044 
L 103 4044 
L 103 4591 
L 3828 4591 
z
" transform="scale(0.015625)"/>
       <path id="Helvetica-72" d="M 428 3347 
L 963 3347 
L 963 2769 
Q 1028 2938 1284 3180 
Q 1541 3422 1875 3422 
Q 1891 3422 1928 3419 
Q 1966 3416 2056 3406 
L 2056 2813 
Q 2006 2822 1964 2825 
Q 1922 2828 1872 2828 
Q 1447 2828 1219 2554 
Q 991 2281 991 1925 
L 991 0 
L 428 0 
L 428 3347 
z
" transform="scale(0.015625)"/>
       <path id="Helvetica-69" d="M 413 3331 
L 984 3331 
L 984 0 
L 413 0 
L 413 3331 
z
M 413 4591 
L 984 4591 
L 984 3953 
L 413 3953 
L 413 4591 
z
" transform="scale(0.015625)"/>
       <path id="Helvetica-61" d="M 844 891 
Q 844 647 1022 506 
Q 1200 366 1444 366 
Q 1741 366 2019 503 
Q 2488 731 2488 1250 
L 2488 1703 
Q 2384 1638 2221 1594 
Q 2059 1550 1903 1531 
L 1563 1488 
Q 1256 1447 1103 1359 
Q 844 1213 844 891 
z
M 2206 2028 
Q 2400 2053 2466 2191 
Q 2503 2266 2503 2406 
Q 2503 2694 2298 2823 
Q 2094 2953 1713 2953 
Q 1272 2953 1088 2716 
Q 984 2584 953 2325 
L 428 2325 
Q 444 2944 830 3186 
Q 1216 3428 1725 3428 
Q 2316 3428 2684 3203 
Q 3050 2978 3050 2503 
L 3050 575 
Q 3050 488 3086 434 
Q 3122 381 3238 381 
Q 3275 381 3322 386 
Q 3369 391 3422 400 
L 3422 -16 
Q 3291 -53 3222 -62 
Q 3153 -72 3034 -72 
Q 2744 -72 2613 134 
Q 2544 244 2516 444 
Q 2344 219 2022 53 
Q 1700 -113 1313 -113 
Q 847 -113 551 170 
Q 256 453 256 878 
Q 256 1344 547 1600 
Q 838 1856 1309 1916 
L 2206 2028 
z
M 1741 3428 
L 1741 3428 
z
" transform="scale(0.015625)"/>
       <path id="Helvetica-6c" d="M 428 4591 
L 991 4591 
L 991 0 
L 428 0 
L 428 4591 
z
" transform="scale(0.015625)"/>
      </defs>
      <use xlink:href="#Helvetica-54"/>
      <use xlink:href="#Helvetica-72" x="61.083984"/>
      <use xlink:href="#Helvetica-69" x="94.384766"/>
      <use xlink:href="#Helvetica-61" x="116.601562"/>
      <use xlink:href="#Helvetica-6c" x="172.216797"/>
     </g>
    </g>
   </g>
   <g id="matplotlib.axis_2">
    <g id="ytick_1">
     <g id="line2d_8">
      <defs>
       <path id="m0b73b12bc0" d="M 0 0 
L -3.5 0 
" style="stroke: #000000; stroke-width: 0.8"/>
      </defs>
      <g>
       <use xlink:href="#m0b73b12bc0" x="78.23" y="322.5" style="stroke: #000000; stroke-width: 0.8"/>
      </g>
     </g>
     <g id="text_9">
      <!-- 40 -->
      <g transform="translate(51.210625 328.956094) scale(0.18 -0.18)">
       <use xlink:href="#Helvetica-34"/>
       <use xlink:href="#Helvetica-30" x="55.615234"/>
      </g>
     </g>
    </g>
    <g id="ytick_2">
     <g id="line2d_9">
      <g>
       <use xlink:href="#m0b73b12bc0" x="78.23" y="275.51" style="stroke: #000000; stroke-width: 0.8"/>
      </g>
     </g>
     <g id="text_10">
      <!-- 50 -->
      <g transform="translate(51.210625 281.966094) scale(0.18 -0.18)">
       <defs>
        <path id="Helvetica-35" d="M 791 1141 
Q 847 659 1238 475 
Q 1438 381 1700 381 
Q 2200 381 2440 700 
Q 2681 1019 2681 1406 
Q 2681 1875 2395 2131 
Q 2109 2388 1709 2388 
Q 1419 2388 1211 2275 
Q 1003 2163 856 1963 
L 369 1991 
L 709 4400 
L 3034 4400 
L 3034 3856 
L 1131 3856 
L 941 2613 
Q 1097 2731 1238 2791 
Q 1488 2894 1816 2894 
Q 2431 2894 2859 2497 
Q 3288 2100 3288 1491 
Q 3288 856 2895 371 
Q 2503 -113 1644 -113 
Q 1097 -113 676 195 
Q 256 503 206 1141 
L 791 1141 
z
" transform="scale(0.015625)"/>
       </defs>
       <use xlink:href="#Helvetica-35"/>
       <use xlink:href="#Helvetica-30" x="55.615234"/>
      </g>
     </g>
    </g>
    <g id="ytick_3">
     <g id="line2d_10">
      <g>
       <use xlink:href="#m0b73b12bc0" x="78.23" y="228.52" style="stroke: #000000; stroke-width: 0.8"/>
      </g>
     </g>
     <g id="text_11">
      <!-- 60 -->
      <g transform="translate(51.210625 234.976094) scale(0.18 -0.18)">
       <use xlink:href="#Helvetica-36"/>
       <use xlink:href="#Helvetica-30" x="55.615234"/>
      </g>
     </g>
    </g>
    <g id="ytick_4">
     <g id="line2d_11">
      <g>
       <use xlink:href="#m0b73b12bc0" x="78.23" y="181.53" style="stroke: #000000; stroke-width: 0.8"/>
      </g>
     </g>
     <g id="text_12">
      <!-- 70 -->
      <g transform="translate(51.210625 187.986094) scale(0.18 -0.18)">
       <defs>
        <path id="Helvetica-37" d="M 3347 4400 
L 3347 3909 
Q 3131 3700 2773 3181 
Q 2416 2663 2141 2063 
Q 1869 1478 1728 997 
Q 1638 688 1494 0 
L 872 0 
Q 1084 1281 1809 2550 
Q 2238 3294 2709 3834 
L 234 3834 
L 234 4400 
L 3347 4400 
z
" transform="scale(0.015625)"/>
       </defs>
       <use xlink:href="#Helvetica-37"/>
       <use xlink:href="#Helvetica-30" x="55.615234"/>
      </g>
     </g>
    </g>
    <g id="ytick_5">
     <g id="line2d_12">
      <g>
       <use xlink:href="#m0b73b12bc0" x="78.23" y="134.54" style="stroke: #000000; stroke-width: 0.8"/>
      </g>
     </g>
     <g id="text_13">
      <!-- 80 -->
      <g transform="translate(51.210625 140.996094) scale(0.18 -0.18)">
       <use xlink:href="#Helvetica-38"/>
       <use xlink:href="#Helvetica-30" x="55.615234"/>
      </g>
     </g>
    </g>
    <g id="ytick_6">
     <g id="line2d_13">
      <g>
       <use xlink:href="#m0b73b12bc0" x="78.23" y="87.55" style="stroke: #000000; stroke-width: 0.8"/>
      </g>
     </g>
     <g id="text_14">
      <!-- 90 -->
      <g transform="translate(51.210625 94.006094) scale(0.18 -0.18)">
       <defs>
        <path id="Helvetica-39" d="M 850 1081 
Q 875 616 1209 438 
Q 1381 344 1597 344 
Q 2000 344 2284 680 
Q 2569 1016 2688 2044 
Q 2500 1747 2223 1626 
Q 1947 1506 1628 1506 
Q 981 1506 604 1909 
Q 228 2313 228 2947 
Q 228 3556 600 4018 
Q 972 4481 1697 4481 
Q 2675 4481 3047 3600 
Q 3253 3116 3253 2388 
Q 3253 1566 3006 931 
Q 2597 -125 1619 -125 
Q 963 -125 622 219 
Q 281 563 281 1081 
L 850 1081 
z
M 1703 2000 
Q 2038 2000 2314 2220 
Q 2591 2441 2591 2991 
Q 2591 3484 2342 3726 
Q 2094 3969 1709 3969 
Q 1297 3969 1055 3692 
Q 813 3416 813 2953 
Q 813 2516 1025 2258 
Q 1238 2000 1703 2000 
z
" transform="scale(0.015625)"/>
       </defs>
       <use xlink:href="#Helvetica-39"/>
       <use xlink:href="#Helvetica-30" x="55.615234"/>
      </g>
     </g>
    </g>
    <g id="ytick_7">
     <g id="line2d_14">
      <g>
       <use xlink:href="#m0b73b12bc0" x="78.23" y="40.56" style="stroke: #000000; stroke-width: 0.8"/>
      </g>
     </g>
     <g id="text_15">
      <!-- 100 -->
      <g transform="translate(41.200938 47.016094) scale(0.18 -0.18)">
       <use xlink:href="#Helvetica-31"/>
       <use xlink:href="#Helvetica-30" x="55.615234"/>
       <use xlink:href="#Helvetica-30" x="111.230469"/>
      </g>
     </g>
    </g>
    <g id="text_16">
     <!-- Accuracy (%) -->
     <g transform="translate(33.342188 235.036406) rotate(-90) scale(0.18 -0.18)">
      <defs>
       <path id="Helvetica-41" d="M 2844 1881 
L 2147 3909 
L 1406 1881 
L 2844 1881 
z
M 1822 4591 
L 2525 4591 
L 4191 0 
L 3509 0 
L 3044 1375 
L 1228 1375 
L 731 0 
L 94 0 
L 1822 4591 
z
M 2144 4591 
L 2144 4591 
z
" transform="scale(0.015625)"/>
       <path id="Helvetica-63" d="M 1703 3444 
Q 2269 3444 2623 3169 
Q 2978 2894 3050 2222 
L 2503 2222 
Q 2453 2531 2275 2736 
Q 2097 2941 1703 2941 
Q 1166 2941 934 2416 
Q 784 2075 784 1575 
Q 784 1072 996 728 
Q 1209 384 1666 384 
Q 2016 384 2220 598 
Q 2425 813 2503 1184 
L 3050 1184 
Q 2956 519 2581 211 
Q 2206 -97 1622 -97 
Q 966 -97 575 383 
Q 184 863 184 1581 
Q 184 2463 612 2953 
Q 1041 3444 1703 3444 
z
M 1616 3428 
L 1616 3428 
z
" transform="scale(0.015625)"/>
       <path id="Helvetica-75" d="M 975 3347 
L 975 1125 
Q 975 869 1056 706 
Q 1206 406 1616 406 
Q 2203 406 2416 931 
Q 2531 1213 2531 1703 
L 2531 3347 
L 3094 3347 
L 3094 0 
L 2563 0 
L 2569 494 
Q 2459 303 2297 172 
Q 1975 -91 1516 -91 
Q 800 -91 541 388 
Q 400 644 400 1072 
L 400 3347 
L 975 3347 
z
M 1747 3428 
L 1747 3428 
z
" transform="scale(0.015625)"/>
       <path id="Helvetica-79" d="M 2503 3347 
L 3125 3347 
Q 3006 3025 2597 1878 
Q 2291 1016 2084 472 
Q 1597 -809 1397 -1090 
Q 1197 -1372 709 -1372 
Q 591 -1372 527 -1362 
Q 463 -1353 369 -1328 
L 369 -816 
Q 516 -856 581 -865 
Q 647 -875 697 -875 
Q 853 -875 926 -823 
Q 1000 -772 1050 -697 
Q 1066 -672 1162 -440 
Q 1259 -209 1303 -97 
L 66 3347 
L 703 3347 
L 1600 622 
L 2503 3347 
z
M 1597 3428 
L 1597 3428 
z
" transform="scale(0.015625)"/>
       <path id="Helvetica-20" transform="scale(0.015625)"/>
       <path id="Helvetica-28" d="M 1894 4666 
Q 1403 3713 1256 3263 
Q 1034 2578 1034 1681 
Q 1034 775 1288 25 
Q 1444 -438 1903 -1306 
L 1525 -1306 
Q 1069 -594 959 -397 
Q 850 -200 722 138 
Q 547 600 478 1125 
Q 444 1397 444 1644 
Q 444 2569 734 3291 
Q 919 3750 1503 4666 
L 1894 4666 
z
" transform="scale(0.015625)"/>
       <path id="Helvetica-25" d="M 4363 2175 
Q 4813 2175 5131 1856 
Q 5450 1538 5450 1088 
Q 5450 638 5131 319 
Q 4813 0 4363 0 
Q 3909 0 3590 319 
Q 3272 638 3272 1088 
Q 3272 1538 3590 1856 
Q 3909 2175 4363 2175 
z
M 3909 4456 
L 4256 4456 
L 1753 -119 
L 1406 -119 
L 3909 4456 
z
M 1294 2606 
Q 1563 2606 1752 2795 
Q 1941 2984 1941 3250 
Q 1941 3516 1752 3705 
Q 1563 3894 1294 3894 
Q 1028 3894 839 3706 
Q 650 3519 650 3250 
Q 650 2984 839 2795 
Q 1028 2606 1294 2606 
z
M 1294 4341 
Q 1747 4341 2065 4020 
Q 2384 3700 2384 3250 
Q 2384 2800 2065 2481 
Q 1747 2163 1294 2163 
Q 844 2163 525 2481 
Q 206 2800 206 3250 
Q 206 3700 525 4020 
Q 844 4341 1294 4341 
z
M 4363 444 
Q 4628 444 4817 633 
Q 5006 822 5006 1088 
Q 5006 1353 4817 1542 
Q 4628 1731 4363 1731 
Q 4094 1731 3905 1542 
Q 3716 1353 3716 1088 
Q 3716 822 3905 633 
Q 4094 444 4363 444 
z
" transform="scale(0.015625)"/>
       <path id="Helvetica-29" d="M 222 -1306 
Q 719 -338 863 106 
Q 1081 778 1081 1681 
Q 1081 2584 828 3334 
Q 672 3797 213 4666 
L 591 4666 
Q 1072 3897 1173 3717 
Q 1275 3538 1394 3222 
Q 1544 2831 1608 2450 
Q 1672 2069 1672 1716 
Q 1672 791 1378 66 
Q 1194 -400 613 -1306 
L 222 -1306 
z
" transform="scale(0.015625)"/>
      </defs>
      <use xlink:href="#Helvetica-41"/>
      <use xlink:href="#Helvetica-63" x="66.699219"/>
      <use xlink:href="#Helvetica-63" x="116.699219"/>
      <use xlink:href="#Helvetica-75" x="166.699219"/>
      <use xlink:href="#Helvetica-72" x="222.314453"/>
      <use xlink:href="#Helvetica-61" x="255.615234"/>
      <use xlink:href="#Helvetica-63" x="311.230469"/>
      <use xlink:href="#Helvetica-79" x="361.230469"/>
      <use xlink:href="#Helvetica-20" x="411.230469"/>
      <use xlink:href="#Helvetica-28" x="439.013672"/>
      <use xlink:href="#Helvetica-25" x="472.314453"/>
      <use xlink:href="#Helvetica-29" x="561.230469"/>
     </g>
    </g>
   </g>
   <g id="line2d_15">
    <path d="M 90.743182 253.030216 
L 101.624209 243.965787 
L 112.505237 233.741111 
L 123.386265 207.200463 
L 134.267292 193.2775 
L 145.14832 178.484352 
L 156.029348 164.996481 
L 166.910375 153.248981 
L 177.791403 149.333148 
L 188.672431 139.761111 
L 199.553458 140.631296 
L 210.434486 132.79963 
L 221.315514 132.79963 
L 232.196542 126.708333 
L 243.077569 125.403056 
L 253.958597 124.967963 
L 264.839625 127.143426 
L 275.720652 121.487222 
L 286.60168 120.181944 
L 297.482708 117.136296 
L 308.363735 110.609907 
L 319.244763 110.174815 
L 330.125791 111.262546 
L 341.006818 112.350278 
" clip-path="url(#p4c8dc59ed7)" style="fill: none; stroke: #095086; stroke-opacity: 0.75; stroke-width: 3; stroke-linecap: square"/>
   </g>
   <g id="line2d_16">
    <path d="M 90.743182 222.573735 
L 101.624209 207.526782 
L 112.505237 195.888056 
L 123.386265 164.126296 
L 134.267292 144.982222 
L 145.14832 131.929444 
L 156.029348 124.097778 
L 166.910375 118.441574 
L 177.791403 114.525741 
L 188.672431 111.915185 
L 199.553458 109.739722 
L 210.434486 106.694074 
L 221.315514 104.518611 
L 232.196542 101.472963 
L 243.077569 98.427315 
L 253.958597 100.602778 
L 264.839625 99.732593 
L 275.720652 98.862407 
L 286.60168 97.55713 
L 297.482708 97.992222 
L 308.363735 92.336019 
L 319.244763 87.985093 
L 330.125791 83.525394 
L 341.006818 84.794414 
" clip-path="url(#p4c8dc59ed7)" style="fill: none; stroke-dasharray: 7.4,3.2; stroke-dashoffset: 0; stroke: #095086; stroke-opacity: 0.75; stroke-width: 2"/>
   </g>
   <g id="line2d_17">
    <path d="M 90.743182 239.252284 
L 101.624209 227.105949 
L 112.505237 214.597037 
L 123.386265 196.323148 
L 134.267292 178.484352 
L 145.14832 166.301759 
L 156.029348 154.989352 
L 166.910375 150.638426 
L 177.791403 136.715463 
L 188.672431 135.845278 
L 199.553458 132.364537 
L 210.434486 133.234722 
L 221.315514 125.838148 
L 232.196542 125.838148 
L 243.077569 120.617037 
L 253.958597 117.571389 
L 264.839625 110.174815 
L 275.720652 111.915185 
L 286.60168 113.220463 
L 297.482708 110.609907 
L 308.363735 111.480093 
L 319.244763 112.78537 
L 330.125791 112.350278 
L 341.006818 108.724506 
" clip-path="url(#p4c8dc59ed7)" style="fill: none; stroke: #b00000; stroke-opacity: 0.75; stroke-width: 3; stroke-linecap: square"/>
   </g>
   <g id="line2d_18">
    <path d="M 90.743182 217.497654 
L 101.624209 201.000394 
L 112.505237 191.972222 
L 123.386265 164.561389 
L 134.267292 149.333148 
L 145.14832 142.371667 
L 156.029348 137.585648 
L 166.910375 132.79963 
L 177.791403 131.929444 
L 188.672431 132.364537 
L 199.553458 129.753981 
L 210.434486 128.883796 
L 221.315514 123.227593 
L 232.196542 120.181944 
L 243.077569 116.701204 
L 253.958597 109.739722 
L 264.839625 99.732593 
L 275.720652 93.206204 
L 286.60168 84.504352 
L 297.482708 80.153426 
L 308.363735 75.367407 
L 319.244763 75.8025 
L 330.125791 76.999005 
L 341.006818 77.54287 
" clip-path="url(#p4c8dc59ed7)" style="fill: none; stroke-dasharray: 7.4,3.2; stroke-dashoffset: 0; stroke: #b00000; stroke-opacity: 0.75; stroke-width: 2"/>
   </g>
   <g id="patch_3">
    <path d="M 78.23 322.5 
L 78.23 40.56 
" style="fill: none; stroke: #000000; stroke-width: 0.8; stroke-linejoin: miter; stroke-linecap: square"/>
   </g>
   <g id="patch_4">
    <path d="M 78.23 322.5 
L 353.52 322.5 
" style="fill: none; stroke: #000000; stroke-width: 0.8; stroke-linejoin: miter; stroke-linecap: square"/>
   </g>
   <g id="text_17">
    <!-- No Pain -->
    <g transform="translate(177.454 34.56) scale(0.216 -0.216)">
     <defs>
      <path id="Helvetica-4e" d="M 488 4591 
L 1222 4591 
L 3541 872 
L 3541 4591 
L 4131 4591 
L 4131 0 
L 3434 0 
L 1081 3716 
L 1081 0 
L 488 0 
L 488 4591 
z
M 2269 4591 
L 2269 4591 
z
" transform="scale(0.015625)"/>
      <path id="Helvetica-6f" d="M 1741 363 
Q 2300 363 2508 786 
Q 2716 1209 2716 1728 
Q 2716 2197 2566 2491 
Q 2328 2953 1747 2953 
Q 1231 2953 997 2559 
Q 763 2166 763 1609 
Q 763 1075 997 719 
Q 1231 363 1741 363 
z
M 1763 3444 
Q 2409 3444 2856 3012 
Q 3303 2581 3303 1744 
Q 3303 934 2909 406 
Q 2516 -122 1688 -122 
Q 997 -122 590 345 
Q 184 813 184 1600 
Q 184 2444 612 2944 
Q 1041 3444 1763 3444 
z
M 1744 3428 
L 1744 3428 
z
" transform="scale(0.015625)"/>
      <path id="Helvetica-50" d="M 547 4591 
L 2613 4591 
Q 3225 4591 3600 4245 
Q 3975 3900 3975 3275 
Q 3975 2738 3640 2339 
Q 3306 1941 2613 1941 
L 1169 1941 
L 1169 0 
L 547 0 
L 547 4591 
z
M 3347 3272 
Q 3347 3778 2972 3959 
Q 2766 4056 2406 4056 
L 1169 4056 
L 1169 2466 
L 2406 2466 
Q 2825 2466 3086 2644 
Q 3347 2822 3347 3272 
z
" transform="scale(0.015625)"/>
      <path id="Helvetica-6e" d="M 413 3347 
L 947 3347 
L 947 2872 
Q 1184 3166 1450 3294 
Q 1716 3422 2041 3422 
Q 2753 3422 3003 2925 
Q 3141 2653 3141 2147 
L 3141 0 
L 2569 0 
L 2569 2109 
Q 2569 2416 2478 2603 
Q 2328 2916 1934 2916 
Q 1734 2916 1606 2875 
Q 1375 2806 1200 2600 
Q 1059 2434 1017 2257 
Q 975 2081 975 1753 
L 975 0 
L 413 0 
L 413 3347 
z
M 1734 3428 
L 1734 3428 
z
" transform="scale(0.015625)"/>
     </defs>
     <use xlink:href="#Helvetica-4e"/>
     <use xlink:href="#Helvetica-6f" x="72.216797"/>
     <use xlink:href="#Helvetica-20" x="127.832031"/>
     <use xlink:href="#Helvetica-50" x="155.615234"/>
     <use xlink:href="#Helvetica-61" x="222.314453"/>
     <use xlink:href="#Helvetica-69" x="277.929688"/>
     <use xlink:href="#Helvetica-6e" x="300.146484"/>
    </g>
   </g>
   <g id="legend_1">
    <g id="line2d_19">
     <path d="M 224.89875 270.584063 
L 242.89875 270.584063 
L 260.89875 270.584063 
" style="fill: none; stroke: #095086; stroke-opacity: 0.75; stroke-width: 3; stroke-linecap: square"/>
    </g>
    <g id="text_18">
     <!-- Reward -->
     <g transform="translate(275.29875 276.884063) scale(0.18 -0.18)">
      <defs>
       <path id="Helvetica-52" d="M 2622 2488 
Q 3059 2488 3314 2663 
Q 3569 2838 3569 3294 
Q 3569 3784 3213 3963 
Q 3022 4056 2703 4056 
L 1184 4056 
L 1184 2488 
L 2622 2488 
z
M 563 4591 
L 2688 4591 
Q 3213 4591 3553 4438 
Q 4200 4144 4200 3353 
Q 4200 2941 4029 2678 
Q 3859 2416 3553 2256 
Q 3822 2147 3958 1969 
Q 4094 1791 4109 1391 
L 4131 775 
Q 4141 513 4175 384 
Q 4231 166 4375 103 
L 4375 0 
L 3613 0 
Q 3581 59 3562 153 
Q 3544 247 3531 516 
L 3494 1281 
Q 3472 1731 3159 1884 
Q 2981 1969 2600 1969 
L 1184 1969 
L 1184 0 
L 563 0 
L 563 4591 
z
" transform="scale(0.015625)"/>
       <path id="Helvetica-65" d="M 1806 3422 
Q 2163 3422 2497 3255 
Q 2831 3088 3006 2822 
Q 3175 2569 3231 2231 
Q 3281 2000 3281 1494 
L 828 1494 
Q 844 984 1069 676 
Q 1294 369 1766 369 
Q 2206 369 2469 659 
Q 2619 828 2681 1050 
L 3234 1050 
Q 3213 866 3089 639 
Q 2966 413 2813 269 
Q 2556 19 2178 -69 
Q 1975 -119 1719 -119 
Q 1094 -119 659 336 
Q 225 791 225 1609 
Q 225 2416 662 2919 
Q 1100 3422 1806 3422 
z
M 2703 1941 
Q 2669 2306 2544 2525 
Q 2313 2931 1772 2931 
Q 1384 2931 1121 2651 
Q 859 2372 844 1941 
L 2703 1941 
z
M 1753 3428 
L 1753 3428 
z
" transform="scale(0.015625)"/>
       <path id="Helvetica-77" d="M 672 3347 
L 1316 709 
L 1969 3347 
L 2600 3347 
L 3256 725 
L 3941 3347 
L 4503 3347 
L 3531 0 
L 2947 0 
L 2266 2591 
L 1606 0 
L 1022 0 
L 56 3347 
L 672 3347 
z
" transform="scale(0.015625)"/>
       <path id="Helvetica-64" d="M 769 1634 
Q 769 1097 997 734 
Q 1225 372 1728 372 
Q 2119 372 2370 708 
Q 2622 1044 2622 1672 
Q 2622 2306 2362 2611 
Q 2103 2916 1722 2916 
Q 1297 2916 1033 2591 
Q 769 2266 769 1634 
z
M 1616 3406 
Q 2000 3406 2259 3244 
Q 2409 3150 2600 2916 
L 2600 4606 
L 3141 4606 
L 3141 0 
L 2634 0 
L 2634 466 
Q 2438 156 2169 18 
Q 1900 -119 1553 -119 
Q 994 -119 584 351 
Q 175 822 175 1603 
Q 175 2334 548 2870 
Q 922 3406 1616 3406 
z
" transform="scale(0.015625)"/>
      </defs>
      <use xlink:href="#Helvetica-52"/>
      <use xlink:href="#Helvetica-65" x="72.216797"/>
      <use xlink:href="#Helvetica-77" x="127.832031"/>
      <use xlink:href="#Helvetica-61" x="200.048828"/>
      <use xlink:href="#Helvetica-72" x="255.664062"/>
      <use xlink:href="#Helvetica-64" x="288.964844"/>
     </g>
    </g>
    <g id="line2d_20">
     <path d="M 224.89875 296.248125 
L 242.89875 296.248125 
L 260.89875 296.248125 
" style="fill: none; stroke: #b00000; stroke-opacity: 0.75; stroke-width: 3; stroke-linecap: square"/>
    </g>
    <g id="text_19">
     <!-- Punish -->
     <g transform="translate(275.29875 302.548125) scale(0.18 -0.18)">
      <defs>
       <path id="Helvetica-73" d="M 747 1050 
Q 772 769 888 619 
Q 1100 347 1625 347 
Q 1938 347 2175 483 
Q 2413 619 2413 903 
Q 2413 1119 2222 1231 
Q 2100 1300 1741 1391 
L 1294 1503 
Q 866 1609 663 1741 
Q 300 1969 300 2372 
Q 300 2847 642 3140 
Q 984 3434 1563 3434 
Q 2319 3434 2653 2991 
Q 2863 2709 2856 2384 
L 2325 2384 
Q 2309 2575 2191 2731 
Q 1997 2953 1519 2953 
Q 1200 2953 1036 2831 
Q 872 2709 872 2509 
Q 872 2291 1088 2159 
Q 1213 2081 1456 2022 
L 1828 1931 
Q 2434 1784 2641 1647 
Q 2969 1431 2969 969 
Q 2969 522 2630 197 
Q 2291 -128 1597 -128 
Q 850 -128 539 211 
Q 228 550 206 1050 
L 747 1050 
z
M 1578 3428 
L 1578 3428 
z
" transform="scale(0.015625)"/>
       <path id="Helvetica-68" d="M 413 4606 
L 975 4606 
L 975 2894 
Q 1175 3147 1334 3250 
Q 1606 3428 2013 3428 
Q 2741 3428 3000 2919 
Q 3141 2641 3141 2147 
L 3141 0 
L 2563 0 
L 2563 2109 
Q 2563 2478 2469 2650 
Q 2316 2925 1894 2925 
Q 1544 2925 1259 2684 
Q 975 2444 975 1775 
L 975 0 
L 413 0 
L 413 4606 
z
" transform="scale(0.015625)"/>
      </defs>
      <use xlink:href="#Helvetica-50"/>
      <use xlink:href="#Helvetica-75" x="66.699219"/>
      <use xlink:href="#Helvetica-6e" x="122.314453"/>
      <use xlink:href="#Helvetica-69" x="177.929688"/>
      <use xlink:href="#Helvetica-73" x="200.146484"/>
      <use xlink:href="#Helvetica-68" x="250.146484"/>
     </g>
    </g>
   </g>
  </g>
  <g id="axes_2">
   <g id="patch_5">
    <path d="M 431.75 322.5 
L 707.04 322.5 
L 707.04 40.56 
L 431.75 40.56 
z
" style="fill: #ffffff"/>
   </g>
   <g id="PolyCollection_3">
    <path d="M 444.263182 212.891725 
L 444.263182 302.664124 
L 455.144209 295.396906 
L 466.025237 280.094923 
L 476.906265 260.327916 
L 487.787292 255.708014 
L 498.66832 235.202037 
L 509.549348 225.254192 
L 520.430375 205.825375 
L 531.311403 199.318973 
L 542.192431 182.227872 
L 553.073458 181.878314 
L 563.954486 167.481509 
L 574.835514 171.217099 
L 585.716542 165.517513 
L 596.597569 169.938437 
L 607.478597 169.194101 
L 618.359625 166.990946 
L 629.240652 163.628315 
L 640.12168 156.286059 
L 651.002708 161.527238 
L 661.883735 147.10791 
L 672.764763 145.551908 
L 683.645791 142.659814 
L 694.526818 142.495753 
L 694.526818 74.570159 
L 694.526818 74.570159 
L 683.645791 73.667261 
L 672.764763 84.517526 
L 661.883735 82.961524 
L 651.002708 79.181441 
L 640.12168 93.288658 
L 629.240652 94.81244 
L 618.359625 93.223016 
L 607.478597 96.339484 
L 596.597569 95.595148 
L 585.716542 94.696449 
L 574.835514 97.862901 
L 563.954486 99.825284 
L 553.073458 103.160554 
L 542.192431 108.130619 
L 531.311403 124.730461 
L 520.430375 135.956134 
L 509.549348 128.93977 
L 498.66832 143.816831 
L 487.787292 165.867836 
L 476.906265 173.660386 
L 466.025237 187.584322 
L 455.144209 202.426867 
L 444.263182 212.891725 
z
" clip-path="url(#p35251188ee)" style="fill: #095086; fill-opacity: 0.1"/>
   </g>
   <g id="PolyCollection_4">
    <path d="M 444.263182 191.627091 
L 444.263182 285.509261 
L 455.144209 267.85546 
L 466.025237 261.861038 
L 476.906265 235.665908 
L 487.787292 224.165829 
L 498.66832 211.729663 
L 509.549348 200.73858 
L 520.430375 189.009788 
L 531.311403 187.873396 
L 542.192431 187.236581 
L 553.073458 181.253684 
L 563.954486 186.352144 
L 574.835514 171.552719 
L 585.716542 174.453241 
L 596.597569 170.666115 
L 607.478597 181.878314 
L 618.359625 179.911315 
L 629.240652 190.895892 
L 640.12168 187.004145 
L 651.002708 187.197937 
L 661.883735 177.794853 
L 672.764763 173.939691 
L 683.645791 159.765511 
L 694.526818 155.136493 
L 694.526818 82.616841 
L 694.526818 82.616841 
L 683.645791 89.809206 
L 672.764763 91.593894 
L 661.883735 103.6976 
L 651.002708 108.480176 
L 640.12168 108.673968 
L 629.240652 108.328636 
L 618.359625 101.581138 
L 607.478597 103.160554 
L 596.597569 103.733507 
L 585.716542 99.946381 
L 574.835514 104.620111 
L 563.954486 104.006347 
L 553.073458 98.465561 
L 542.192431 108.441532 
L 531.311403 120.217171 
L 520.430375 110.21474 
L 509.549348 110.898402 
L 498.66832 130.051847 
L 487.787292 135.347756 
L 476.906265 138.033338 
L 466.025237 179.220094 
L 455.144209 190.071144 
L 444.263182 191.627091 
z
" clip-path="url(#p35251188ee)" style="fill: #b00000; fill-opacity: 0.1"/>
   </g>
   <g id="matplotlib.axis_3">
    <g id="xtick_8">
     <g id="line2d_21">
      <g>
       <use xlink:href="#m03acccedec" x="433.382154" y="322.5" style="stroke: #000000; stroke-width: 0.8"/>
      </g>
     </g>
     <g id="text_20">
      <!-- 0 -->
      <g transform="translate(428.37731 342.412188) scale(0.18 -0.18)">
       <use xlink:href="#Helvetica-30"/>
      </g>
     </g>
    </g>
    <g id="xtick_9">
     <g id="line2d_22">
      <g>
       <use xlink:href="#m03acccedec" x="476.906265" y="322.5" style="stroke: #000000; stroke-width: 0.8"/>
      </g>
     </g>
     <g id="text_21">
      <!-- 4 -->
      <g transform="translate(471.901421 342.412188) scale(0.18 -0.18)">
       <use xlink:href="#Helvetica-34"/>
      </g>
     </g>
    </g>
    <g id="xtick_10">
     <g id="line2d_23">
      <g>
       <use xlink:href="#m03acccedec" x="520.430375" y="322.5" style="stroke: #000000; stroke-width: 0.8"/>
      </g>
     </g>
     <g id="text_22">
      <!-- 8 -->
      <g transform="translate(515.425532 342.412188) scale(0.18 -0.18)">
       <use xlink:href="#Helvetica-38"/>
      </g>
     </g>
    </g>
    <g id="xtick_11">
     <g id="line2d_24">
      <g>
       <use xlink:href="#m03acccedec" x="563.954486" y="322.5" style="stroke: #000000; stroke-width: 0.8"/>
      </g>
     </g>
     <g id="text_23">
      <!-- 12 -->
      <g transform="translate(553.944799 342.412188) scale(0.18 -0.18)">
       <use xlink:href="#Helvetica-31"/>
       <use xlink:href="#Helvetica-32" x="55.615234"/>
      </g>
     </g>
    </g>
    <g id="xtick_12">
     <g id="line2d_25">
      <g>
       <use xlink:href="#m03acccedec" x="607.478597" y="322.5" style="stroke: #000000; stroke-width: 0.8"/>
      </g>
     </g>
     <g id="text_24">
      <!-- 16 -->
      <g transform="translate(597.468909 342.412188) scale(0.18 -0.18)">
       <use xlink:href="#Helvetica-31"/>
       <use xlink:href="#Helvetica-36" x="55.615234"/>
      </g>
     </g>
    </g>
    <g id="xtick_13">
     <g id="line2d_26">
      <g>
       <use xlink:href="#m03acccedec" x="651.002708" y="322.5" style="stroke: #000000; stroke-width: 0.8"/>
      </g>
     </g>
     <g id="text_25">
      <!-- 20 -->
      <g transform="translate(640.99302 342.412188) scale(0.18 -0.18)">
       <use xlink:href="#Helvetica-32"/>
       <use xlink:href="#Helvetica-30" x="55.615234"/>
      </g>
     </g>
    </g>
    <g id="xtick_14">
     <g id="line2d_27">
      <g>
       <use xlink:href="#m03acccedec" x="694.526818" y="322.5" style="stroke: #000000; stroke-width: 0.8"/>
      </g>
     </g>
     <g id="text_26">
      <!-- 24 -->
      <g transform="translate(684.517131 342.412188) scale(0.18 -0.18)">
       <use xlink:href="#Helvetica-32"/>
       <use xlink:href="#Helvetica-34" x="55.615234"/>
      </g>
     </g>
    </g>
    <g id="text_27">
     <!-- Trial -->
     <g transform="translate(551.897031 363.07625) scale(0.18 -0.18)">
      <use xlink:href="#Helvetica-54"/>
      <use xlink:href="#Helvetica-72" x="61.083984"/>
      <use xlink:href="#Helvetica-69" x="94.384766"/>
      <use xlink:href="#Helvetica-61" x="116.601562"/>
      <use xlink:href="#Helvetica-6c" x="172.216797"/>
     </g>
    </g>
   </g>
   <g id="matplotlib.axis_4">
    <g id="ytick_8">
     <g id="line2d_28">
      <g>
       <use xlink:href="#m0b73b12bc0" x="431.75" y="322.5" style="stroke: #000000; stroke-width: 0.8"/>
      </g>
     </g>
     <g id="text_28">
      <!-- 40 -->
      <g transform="translate(404.730625 328.956094) scale(0.18 -0.18)">
       <use xlink:href="#Helvetica-34"/>
       <use xlink:href="#Helvetica-30" x="55.615234"/>
      </g>
     </g>
    </g>
    <g id="ytick_9">
     <g id="line2d_29">
      <g>
       <use xlink:href="#m0b73b12bc0" x="431.75" y="275.51" style="stroke: #000000; stroke-width: 0.8"/>
      </g>
     </g>
     <g id="text_29">
      <!-- 50 -->
      <g transform="translate(404.730625 281.966094) scale(0.18 -0.18)">
       <use xlink:href="#Helvetica-35"/>
       <use xlink:href="#Helvetica-30" x="55.615234"/>
      </g>
     </g>
    </g>
    <g id="ytick_10">
     <g id="line2d_30">
      <g>
       <use xlink:href="#m0b73b12bc0" x="431.75" y="228.52" style="stroke: #000000; stroke-width: 0.8"/>
      </g>
     </g>
     <g id="text_30">
      <!-- 60 -->
      <g transform="translate(404.730625 234.976094) scale(0.18 -0.18)">
       <use xlink:href="#Helvetica-36"/>
       <use xlink:href="#Helvetica-30" x="55.615234"/>
      </g>
     </g>
    </g>
    <g id="ytick_11">
     <g id="line2d_31">
      <g>
       <use xlink:href="#m0b73b12bc0" x="431.75" y="181.53" style="stroke: #000000; stroke-width: 0.8"/>
      </g>
     </g>
     <g id="text_31">
      <!-- 70 -->
      <g transform="translate(404.730625 187.986094) scale(0.18 -0.18)">
       <use xlink:href="#Helvetica-37"/>
       <use xlink:href="#Helvetica-30" x="55.615234"/>
      </g>
     </g>
    </g>
    <g id="ytick_12">
     <g id="line2d_32">
      <g>
       <use xlink:href="#m0b73b12bc0" x="431.75" y="134.54" style="stroke: #000000; stroke-width: 0.8"/>
      </g>
     </g>
     <g id="text_32">
      <!-- 80 -->
      <g transform="translate(404.730625 140.996094) scale(0.18 -0.18)">
       <use xlink:href="#Helvetica-38"/>
       <use xlink:href="#Helvetica-30" x="55.615234"/>
      </g>
     </g>
    </g>
    <g id="ytick_13">
     <g id="line2d_33">
      <g>
       <use xlink:href="#m0b73b12bc0" x="431.75" y="87.55" style="stroke: #000000; stroke-width: 0.8"/>
      </g>
     </g>
     <g id="text_33">
      <!-- 90 -->
      <g transform="translate(404.730625 94.006094) scale(0.18 -0.18)">
       <use xlink:href="#Helvetica-39"/>
       <use xlink:href="#Helvetica-30" x="55.615234"/>
      </g>
     </g>
    </g>
    <g id="ytick_14">
     <g id="line2d_34">
      <g>
       <use xlink:href="#m0b73b12bc0" x="431.75" y="40.56" style="stroke: #000000; stroke-width: 0.8"/>
      </g>
     </g>
     <g id="text_34">
      <!-- 100 -->
      <g transform="translate(394.720938 47.016094) scale(0.18 -0.18)">
       <use xlink:href="#Helvetica-31"/>
       <use xlink:href="#Helvetica-30" x="55.615234"/>
       <use xlink:href="#Helvetica-30" x="111.230469"/>
      </g>
     </g>
    </g>
    <g id="text_35">
     <!-- Accuracy (%) -->
     <g transform="translate(386.862188 235.036406) rotate(-90) scale(0.18 -0.18)">
      <use xlink:href="#Helvetica-41"/>
      <use xlink:href="#Helvetica-63" x="66.699219"/>
      <use xlink:href="#Helvetica-63" x="116.699219"/>
      <use xlink:href="#Helvetica-75" x="166.699219"/>
      <use xlink:href="#Helvetica-72" x="222.314453"/>
      <use xlink:href="#Helvetica-61" x="255.615234"/>
      <use xlink:href="#Helvetica-63" x="311.230469"/>
      <use xlink:href="#Helvetica-79" x="361.230469"/>
      <use xlink:href="#Helvetica-20" x="411.230469"/>
      <use xlink:href="#Helvetica-28" x="439.013672"/>
      <use xlink:href="#Helvetica-25" x="472.314453"/>
      <use xlink:href="#Helvetica-29" x="561.230469"/>
     </g>
    </g>
   </g>
   <g id="line2d_35">
    <path d="M 444.263182 257.777925 
L 455.144209 248.911887 
L 466.025237 233.839623 
L 476.906265 216.994151 
L 487.787292 210.787925 
L 498.66832 189.509434 
L 509.549348 177.096981 
L 520.430375 170.890755 
L 531.311403 162.024717 
L 542.192431 145.179245 
L 553.073458 142.519434 
L 563.954486 133.653396 
L 574.835514 134.54 
L 585.716542 130.106981 
L 596.597569 132.766792 
L 607.478597 132.766792 
L 618.359625 130.106981 
L 629.240652 129.220377 
L 640.12168 124.787358 
L 651.002708 120.35434 
L 661.883735 115.034717 
L 672.764763 115.034717 
L 683.645791 108.163538 
L 694.526818 108.532956 
" clip-path="url(#p35251188ee)" style="fill: none; stroke: #095086; stroke-opacity: 0.75; stroke-width: 3; stroke-linecap: square"/>
   </g>
   <g id="line2d_36">
    <path d="M 444.263182 226.746792 
L 455.144209 211.231226 
L 466.025237 197.488868 
L 476.906265 174.43717 
L 487.787292 156.705094 
L 498.66832 144.292642 
L 509.549348 133.653396 
L 520.430375 125.673962 
L 531.311403 115.921321 
L 542.192431 112.374906 
L 553.073458 106.168679 
L 563.954486 105.282075 
L 574.835514 105.282075 
L 585.716542 112.374906 
L 596.597569 105.282075 
L 607.478597 100.849057 
L 618.359625 95.529434 
L 629.240652 94.64283 
L 640.12168 82.230377 
L 651.002708 84.003585 
L 661.883735 86.663396 
L 672.764763 86.663396 
L 683.645791 83.781934 
L 694.526818 90.800881 
" clip-path="url(#p35251188ee)" style="fill: none; stroke-dasharray: 7.4,3.2; stroke-dashoffset: 0; stroke: #095086; stroke-opacity: 0.75; stroke-width: 2"/>
   </g>
   <g id="line2d_37">
    <path d="M 444.263182 238.568176 
L 455.144209 228.963302 
L 466.025237 220.540566 
L 476.906265 186.849623 
L 487.787292 179.756792 
L 498.66832 170.890755 
L 509.549348 155.818491 
L 520.430375 149.612264 
L 531.311403 154.045283 
L 542.192431 147.839057 
L 553.073458 139.859623 
L 563.954486 145.179245 
L 574.835514 138.086415 
L 585.716542 137.199811 
L 596.597569 137.199811 
L 607.478597 142.519434 
L 618.359625 140.746226 
L 629.240652 149.612264 
L 640.12168 147.839057 
L 651.002708 147.839057 
L 661.883735 140.746226 
L 672.764763 132.766792 
L 683.645791 124.787358 
L 694.526818 118.876667 
" clip-path="url(#p35251188ee)" style="fill: none; stroke: #b00000; stroke-opacity: 0.75; stroke-width: 3; stroke-linecap: square"/>
   </g>
   <g id="line2d_38">
    <path d="M 444.263182 229.702138 
L 455.144209 225.638538 
L 466.025237 211.674528 
L 476.906265 191.282642 
L 487.787292 175.323774 
L 498.66832 154.931887 
L 509.549348 135.426604 
L 520.430375 126.560566 
L 531.311403 123.014151 
L 542.192431 118.581132 
L 553.073458 116.807925 
L 563.954486 118.581132 
L 574.835514 115.921321 
L 585.716542 111.488302 
L 596.597569 107.055283 
L 607.478597 104.395472 
L 618.359625 100.849057 
L 629.240652 99.075849 
L 640.12168 98.189245 
L 651.002708 99.075849 
L 661.883735 94.64283 
L 672.764763 89.323208 
L 683.645791 89.323208 
L 694.526818 84.890189 
" clip-path="url(#p35251188ee)" style="fill: none; stroke-dasharray: 7.4,3.2; stroke-dashoffset: 0; stroke: #b00000; stroke-opacity: 0.75; stroke-width: 2"/>
   </g>
   <g id="patch_6">
    <path d="M 431.75 322.5 
L 431.75 40.56 
" style="fill: none; stroke: #000000; stroke-width: 0.8; stroke-linejoin: miter; stroke-linecap: square"/>
   </g>
   <g id="patch_7">
    <path d="M 431.75 322.5 
L 707.04 322.5 
" style="fill: none; stroke: #000000; stroke-width: 0.8; stroke-linejoin: miter; stroke-linecap: square"/>
   </g>
   <g id="text_36">
    <!-- Acute Pain -->
    <g transform="translate(517.1635 34.56) scale(0.216 -0.216)">
     <defs>
      <path id="Helvetica-74" d="M 525 4281 
L 1094 4281 
L 1094 3347 
L 1628 3347 
L 1628 2888 
L 1094 2888 
L 1094 703 
Q 1094 528 1213 469 
Q 1278 434 1431 434 
Q 1472 434 1519 436 
Q 1566 438 1628 444 
L 1628 0 
Q 1531 -28 1426 -40 
Q 1322 -53 1200 -53 
Q 806 -53 665 148 
Q 525 350 525 672 
L 525 2888 
L 72 2888 
L 72 3347 
L 525 3347 
L 525 4281 
z
" transform="scale(0.015625)"/>
     </defs>
     <use xlink:href="#Helvetica-41"/>
     <use xlink:href="#Helvetica-63" x="66.699219"/>
     <use xlink:href="#Helvetica-75" x="116.699219"/>
     <use xlink:href="#Helvetica-74" x="172.314453"/>
     <use xlink:href="#Helvetica-65" x="200.097656"/>
     <use xlink:href="#Helvetica-20" x="255.712891"/>
     <use xlink:href="#Helvetica-50" x="283.496094"/>
     <use xlink:href="#Helvetica-61" x="350.195312"/>
     <use xlink:href="#Helvetica-69" x="405.810547"/>
     <use xlink:href="#Helvetica-6e" x="428.027344"/>
    </g>
   </g>
   <g id="legend_2">
    <g id="line2d_39">
     <path d="M 578.41875 270.584063 
L 596.41875 270.584063 
L 614.41875 270.584063 
" style="fill: none; stroke: #095086; stroke-opacity: 0.75; stroke-width: 3; stroke-linecap: square"/>
    </g>
    <g id="text_37">
     <!-- Reward -->
     <g transform="translate(628.81875 276.884063) scale(0.18 -0.18)">
      <use xlink:href="#Helvetica-52"/>
      <use xlink:href="#Helvetica-65" x="72.216797"/>
      <use xlink:href="#Helvetica-77" x="127.832031"/>
      <use xlink:href="#Helvetica-61" x="200.048828"/>
      <use xlink:href="#Helvetica-72" x="255.664062"/>
      <use xlink:href="#Helvetica-64" x="288.964844"/>
     </g>
    </g>
    <g id="line2d_40">
     <path d="M 578.41875 296.248125 
L 596.41875 296.248125 
L 614.41875 296.248125 
" style="fill: none; stroke: #b00000; stroke-opacity: 0.75; stroke-width: 3; stroke-linecap: square"/>
    </g>
    <g id="text_38">
     <!-- Punish -->
     <g transform="translate(628.81875 302.548125) scale(0.18 -0.18)">
      <use xlink:href="#Helvetica-50"/>
      <use xlink:href="#Helvetica-75" x="66.699219"/>
      <use xlink:href="#Helvetica-6e" x="122.314453"/>
      <use xlink:href="#Helvetica-69" x="177.929688"/>
      <use xlink:href="#Helvetica-73" x="200.146484"/>
      <use xlink:href="#Helvetica-68" x="250.146484"/>
     </g>
    </g>
   </g>
  </g>
  <g id="axes_3">
   <g id="patch_8">
    <path d="M 785.27 322.5 
L 1060.56 322.5 
L 1060.56 40.56 
L 785.27 40.56 
z
" style="fill: #ffffff"/>
   </g>
   <g id="PolyCollection_5">
    <path d="M 797.783182 207.195694 
L 797.783182 281.572596 
L 808.664209 272.632272 
L 819.545237 258.203515 
L 830.426265 243.655966 
L 841.307292 216.303177 
L 852.18832 208.586957 
L 863.069348 198.432966 
L 873.950375 185.292098 
L 884.831403 184.450569 
L 895.712431 175.782682 
L 906.593458 169.540215 
L 917.474486 162.877861 
L 928.355514 161.838584 
L 939.236542 161.797098 
L 950.117569 163.484276 
L 960.998597 159.988063 
L 971.879625 155.64863 
L 982.760652 150.674248 
L 993.64168 153.271569 
L 1004.522708 148.264504 
L 1015.403735 152.037994 
L 1026.284763 143.91454 
L 1037.165791 143.274248 
L 1048.046818 138.354754 
L 1048.046818 87.349861 
L 1048.046818 87.349861 
L 1037.165791 88.454726 
L 1026.284763 84.199819 
L 1015.403735 90.534827 
L 1004.522708 91.898573 
L 993.64168 84.481764 
L 982.760652 94.308316 
L 971.879625 96.563165 
L 960.998597 97.043219 
L 950.117569 101.981109 
L 939.236542 103.668287 
L 928.355514 102.421928 
L 917.474486 103.792395 
L 906.593458 111.588503 
L 895.712431 111.370395 
L 884.831403 111.136611 
L 873.950375 127.163287 
L 863.069348 130.890624 
L 852.18832 131.580479 
L 841.307292 146.756823 
L 830.426265 161.574546 
L 819.545237 186.787767 
L 808.664209 197.058882 
L 797.783182 207.195694 
z
" clip-path="url(#pe50e45c842)" style="fill: #095086; fill-opacity: 0.1"/>
   </g>
   <g id="PolyCollection_6">
    <path d="M 797.783182 202.823098 
L 797.783182 277.912714 
L 808.664209 270.353656 
L 819.545237 257.95848 
L 830.426265 241.504566 
L 841.307292 228.645259 
L 852.18832 210.855066 
L 863.069348 199.145901 
L 873.950375 189.780068 
L 884.831403 176.774512 
L 895.712431 170.068619 
L 906.593458 164.615728 
L 917.474486 164.846321 
L 928.355514 168.447738 
L 939.236542 159.410782 
L 950.117569 166.130962 
L 960.998597 164.685169 
L 971.879625 173.238587 
L 982.760652 164.646696 
L 993.64168 164.202048 
L 1004.522708 153.988859 
L 1015.403735 151.548909 
L 1026.284763 144.215583 
L 1037.165791 150.244387 
L 1048.046818 146.424515 
L 1048.046818 93.336938 
L 1048.046818 93.336938 
L 1037.165791 84.496766 
L 1026.284763 91.128007 
L 1015.403735 94.638526 
L 1004.522708 98.222936 
L 993.64168 98.853593 
L 982.760652 104.433304 
L 971.879625 107.890131 
L 960.998597 105.599703 
L 950.117569 102.949038 
L 939.236542 103.644859 
L 928.355514 99.42739 
L 917.474486 98.20932 
L 906.593458 106.874016 
L 895.712431 109.855227 
L 884.831403 113.993181 
L 873.950375 117.85583 
L 863.069348 131.382561 
L 852.18832 143.770831 
L 841.307292 148.873203 
L 830.426265 172.16005 
L 819.545237 188.237674 
L 808.664209 190.300959 
L 797.783182 202.823098 
z
" clip-path="url(#pe50e45c842)" style="fill: #b00000; fill-opacity: 0.1"/>
   </g>
   <g id="matplotlib.axis_5">
    <g id="xtick_15">
     <g id="line2d_41">
      <g>
       <use xlink:href="#m03acccedec" x="786.902154" y="322.5" style="stroke: #000000; stroke-width: 0.8"/>
      </g>
     </g>
     <g id="text_39">
      <!-- 0 -->
      <g transform="translate(781.89731 342.412188) scale(0.18 -0.18)">
       <use xlink:href="#Helvetica-30"/>
      </g>
     </g>
    </g>
    <g id="xtick_16">
     <g id="line2d_42">
      <g>
       <use xlink:href="#m03acccedec" x="830.426265" y="322.5" style="stroke: #000000; stroke-width: 0.8"/>
      </g>
     </g>
     <g id="text_40">
      <!-- 4 -->
      <g transform="translate(825.421421 342.412188) scale(0.18 -0.18)">
       <use xlink:href="#Helvetica-34"/>
      </g>
     </g>
    </g>
    <g id="xtick_17">
     <g id="line2d_43">
      <g>
       <use xlink:href="#m03acccedec" x="873.950375" y="322.5" style="stroke: #000000; stroke-width: 0.8"/>
      </g>
     </g>
     <g id="text_41">
      <!-- 8 -->
      <g transform="translate(868.945532 342.412188) scale(0.18 -0.18)">
       <use xlink:href="#Helvetica-38"/>
      </g>
     </g>
    </g>
    <g id="xtick_18">
     <g id="line2d_44">
      <g>
       <use xlink:href="#m03acccedec" x="917.474486" y="322.5" style="stroke: #000000; stroke-width: 0.8"/>
      </g>
     </g>
     <g id="text_42">
      <!-- 12 -->
      <g transform="translate(907.464799 342.412188) scale(0.18 -0.18)">
       <use xlink:href="#Helvetica-31"/>
       <use xlink:href="#Helvetica-32" x="55.615234"/>
      </g>
     </g>
    </g>
    <g id="xtick_19">
     <g id="line2d_45">
      <g>
       <use xlink:href="#m03acccedec" x="960.998597" y="322.5" style="stroke: #000000; stroke-width: 0.8"/>
      </g>
     </g>
     <g id="text_43">
      <!-- 16 -->
      <g transform="translate(950.988909 342.412188) scale(0.18 -0.18)">
       <use xlink:href="#Helvetica-31"/>
       <use xlink:href="#Helvetica-36" x="55.615234"/>
      </g>
     </g>
    </g>
    <g id="xtick_20">
     <g id="line2d_46">
      <g>
       <use xlink:href="#m03acccedec" x="1004.522708" y="322.5" style="stroke: #000000; stroke-width: 0.8"/>
      </g>
     </g>
     <g id="text_44">
      <!-- 20 -->
      <g transform="translate(994.51302 342.412188) scale(0.18 -0.18)">
       <use xlink:href="#Helvetica-32"/>
       <use xlink:href="#Helvetica-30" x="55.615234"/>
      </g>
     </g>
    </g>
    <g id="xtick_21">
     <g id="line2d_47">
      <g>
       <use xlink:href="#m03acccedec" x="1048.046818" y="322.5" style="stroke: #000000; stroke-width: 0.8"/>
      </g>
     </g>
     <g id="text_45">
      <!-- 24 -->
      <g transform="translate(1038.037131 342.412188) scale(0.18 -0.18)">
       <use xlink:href="#Helvetica-32"/>
       <use xlink:href="#Helvetica-34" x="55.615234"/>
      </g>
     </g>
    </g>
    <g id="text_46">
     <!-- Trial -->
     <g transform="translate(905.417031 363.07625) scale(0.18 -0.18)">
      <use xlink:href="#Helvetica-54"/>
      <use xlink:href="#Helvetica-72" x="61.083984"/>
      <use xlink:href="#Helvetica-69" x="94.384766"/>
      <use xlink:href="#Helvetica-61" x="116.601562"/>
      <use xlink:href="#Helvetica-6c" x="172.216797"/>
     </g>
    </g>
   </g>
   <g id="matplotlib.axis_6">
    <g id="ytick_15">
     <g id="line2d_48">
      <g>
       <use xlink:href="#m0b73b12bc0" x="785.27" y="322.5" style="stroke: #000000; stroke-width: 0.8"/>
      </g>
     </g>
     <g id="text_47">
      <!-- 40 -->
      <g transform="translate(758.250625 328.956094) scale(0.18 -0.18)">
       <use xlink:href="#Helvetica-34"/>
       <use xlink:href="#Helvetica-30" x="55.615234"/>
      </g>
     </g>
    </g>
    <g id="ytick_16">
     <g id="line2d_49">
      <g>
       <use xlink:href="#m0b73b12bc0" x="785.27" y="275.51" style="stroke: #000000; stroke-width: 0.8"/>
      </g>
     </g>
     <g id="text_48">
      <!-- 50 -->
      <g transform="translate(758.250625 281.966094) scale(0.18 -0.18)">
       <use xlink:href="#Helvetica-35"/>
       <use xlink:href="#Helvetica-30" x="55.615234"/>
      </g>
     </g>
    </g>
    <g id="ytick_17">
     <g id="line2d_50">
      <g>
       <use xlink:href="#m0b73b12bc0" x="785.27" y="228.52" style="stroke: #000000; stroke-width: 0.8"/>
      </g>
     </g>
     <g id="text_49">
      <!-- 60 -->
      <g transform="translate(758.250625 234.976094) scale(0.18 -0.18)">
       <use xlink:href="#Helvetica-36"/>
       <use xlink:href="#Helvetica-30" x="55.615234"/>
      </g>
     </g>
    </g>
    <g id="ytick_18">
     <g id="line2d_51">
      <g>
       <use xlink:href="#m0b73b12bc0" x="785.27" y="181.53" style="stroke: #000000; stroke-width: 0.8"/>
      </g>
     </g>
     <g id="text_50">
      <!-- 70 -->
      <g transform="translate(758.250625 187.986094) scale(0.18 -0.18)">
       <use xlink:href="#Helvetica-37"/>
       <use xlink:href="#Helvetica-30" x="55.615234"/>
      </g>
     </g>
    </g>
    <g id="ytick_19">
     <g id="line2d_52">
      <g>
       <use xlink:href="#m0b73b12bc0" x="785.27" y="134.54" style="stroke: #000000; stroke-width: 0.8"/>
      </g>
     </g>
     <g id="text_51">
      <!-- 80 -->
      <g transform="translate(758.250625 140.996094) scale(0.18 -0.18)">
       <use xlink:href="#Helvetica-38"/>
       <use xlink:href="#Helvetica-30" x="55.615234"/>
      </g>
     </g>
    </g>
    <g id="ytick_20">
     <g id="line2d_53">
      <g>
       <use xlink:href="#m0b73b12bc0" x="785.27" y="87.55" style="stroke: #000000; stroke-width: 0.8"/>
      </g>
     </g>
     <g id="text_52">
      <!-- 90 -->
      <g transform="translate(758.250625 94.006094) scale(0.18 -0.18)">
       <use xlink:href="#Helvetica-39"/>
       <use xlink:href="#Helvetica-30" x="55.615234"/>
      </g>
     </g>
    </g>
    <g id="ytick_21">
     <g id="line2d_54">
      <g>
       <use xlink:href="#m0b73b12bc0" x="785.27" y="40.56" style="stroke: #000000; stroke-width: 0.8"/>
      </g>
     </g>
     <g id="text_53">
      <!-- 100 -->
      <g transform="translate(748.240938 47.016094) scale(0.18 -0.18)">
       <use xlink:href="#Helvetica-31"/>
       <use xlink:href="#Helvetica-30" x="55.615234"/>
       <use xlink:href="#Helvetica-30" x="111.230469"/>
      </g>
     </g>
    </g>
    <g id="text_54">
     <!-- Accuracy (%) -->
     <g transform="translate(740.382188 235.036406) rotate(-90) scale(0.18 -0.18)">
      <use xlink:href="#Helvetica-41"/>
      <use xlink:href="#Helvetica-63" x="66.699219"/>
      <use xlink:href="#Helvetica-63" x="116.699219"/>
      <use xlink:href="#Helvetica-75" x="166.699219"/>
      <use xlink:href="#Helvetica-72" x="222.314453"/>
      <use xlink:href="#Helvetica-61" x="255.615234"/>
      <use xlink:href="#Helvetica-63" x="311.230469"/>
      <use xlink:href="#Helvetica-79" x="361.230469"/>
      <use xlink:href="#Helvetica-20" x="411.230469"/>
      <use xlink:href="#Helvetica-28" x="439.013672"/>
      <use xlink:href="#Helvetica-25" x="472.314453"/>
      <use xlink:href="#Helvetica-29" x="561.230469"/>
     </g>
    </g>
   </g>
   <g id="line2d_55">
    <path d="M 797.783182 244.384145 
L 808.664209 234.845577 
L 819.545237 222.495641 
L 830.426265 202.615256 
L 841.307292 181.53 
L 852.18832 170.083718 
L 863.069348 164.661795 
L 873.950375 156.227692 
L 884.831403 147.79359 
L 895.712431 143.576538 
L 906.593458 140.564359 
L 917.474486 133.335128 
L 928.355514 132.130256 
L 939.236542 132.732692 
L 950.117569 132.732692 
L 960.998597 128.515641 
L 971.879625 126.105897 
L 982.760652 122.491282 
L 993.64168 118.876667 
L 1004.522708 120.081538 
L 1015.403735 121.28641 
L 1026.284763 114.057179 
L 1037.165791 115.864487 
L 1048.046818 112.852308 
" clip-path="url(#pe50e45c842)" style="fill: none; stroke: #095086; stroke-opacity: 0.75; stroke-width: 3; stroke-linecap: square"/>
   </g>
   <g id="line2d_56">
    <path d="M 797.783182 238.359786 
L 808.664209 223.549904 
L 819.545237 212.254231 
L 830.426265 189.964103 
L 841.307292 165.264231 
L 852.18832 148.396026 
L 863.069348 139.359487 
L 873.950375 129.118077 
L 884.831403 121.28641 
L 895.712431 121.28641 
L 906.593458 114.057179 
L 917.474486 109.237692 
L 928.355514 105.020641 
L 939.236542 103.815769 
L 950.117569 94.779231 
L 960.998597 97.188974 
L 971.879625 94.176795 
L 982.760652 92.369487 
L 993.64168 85.742692 
L 1004.522708 89.357308 
L 1015.403735 85.742692 
L 1026.284763 83.332949 
L 1037.165791 82.730513 
L 1048.046818 84.738632 
" clip-path="url(#pe50e45c842)" style="fill: none; stroke-dasharray: 7.4,3.2; stroke-dashoffset: 0; stroke: #095086; stroke-opacity: 0.75; stroke-width: 2"/>
   </g>
   <g id="line2d_57">
    <path d="M 797.783182 240.367906 
L 808.664209 230.327308 
L 819.545237 223.098077 
L 830.426265 206.832308 
L 841.307292 188.759231 
L 852.18832 177.312949 
L 863.069348 165.264231 
L 873.950375 153.817949 
L 884.831403 145.383846 
L 895.712431 139.961923 
L 906.593458 135.744872 
L 917.474486 131.527821 
L 928.355514 133.937564 
L 939.236542 131.527821 
L 950.117569 134.54 
L 960.998597 135.142436 
L 971.879625 140.564359 
L 982.760652 134.54 
L 993.64168 131.527821 
L 1004.522708 126.105897 
L 1015.403735 123.093718 
L 1026.284763 117.671795 
L 1037.165791 117.370577 
L 1048.046818 119.880726 
" clip-path="url(#pe50e45c842)" style="fill: none; stroke: #b00000; stroke-opacity: 0.75; stroke-width: 3; stroke-linecap: square"/>
   </g>
   <g id="line2d_58">
    <path d="M 797.783182 246.392265 
L 808.664209 234.092532 
L 819.545237 227.315128 
L 830.426265 200.205513 
L 841.307292 180.927564 
L 852.18832 165.866667 
L 863.069348 148.998462 
L 873.950375 135.142436 
L 884.831403 124.901026 
L 895.712431 114.057179 
L 906.593458 107.430385 
L 917.474486 109.237692 
L 928.355514 104.418205 
L 939.236542 103.815769 
L 950.117569 105.020641 
L 960.998597 104.418205 
L 971.879625 97.79141 
L 982.760652 96.586538 
L 993.64168 92.971923 
L 1004.522708 89.357308 
L 1015.403735 85.140256 
L 1026.284763 82.128077 
L 1037.165791 77.459199 
L 1048.046818 73.693974 
" clip-path="url(#pe50e45c842)" style="fill: none; stroke-dasharray: 7.4,3.2; stroke-dashoffset: 0; stroke: #b00000; stroke-opacity: 0.75; stroke-width: 2"/>
   </g>
   <g id="patch_9">
    <path d="M 785.27 322.5 
L 785.27 40.56 
" style="fill: none; stroke: #000000; stroke-width: 0.8; stroke-linejoin: miter; stroke-linecap: square"/>
   </g>
   <g id="patch_10">
    <path d="M 785.27 322.5 
L 1060.56 322.5 
" style="fill: none; stroke: #000000; stroke-width: 0.8; stroke-linejoin: miter; stroke-linecap: square"/>
   </g>
   <g id="text_55">
    <!-- Chronic Pain -->
    <g transform="translate(861.086687 34.56) scale(0.216 -0.216)">
     <defs>
      <path id="Helvetica-43" d="M 2422 4716 
Q 3294 4716 3775 4256 
Q 4256 3797 4309 3213 
L 3703 3213 
Q 3600 3656 3292 3915 
Q 2984 4175 2428 4175 
Q 1750 4175 1333 3698 
Q 916 3222 916 2238 
Q 916 1431 1292 929 
Q 1669 428 2416 428 
Q 3103 428 3463 956 
Q 3653 1234 3747 1688 
L 4353 1688 
Q 4272 963 3816 472 
Q 3269 -119 2341 -119 
Q 1541 -119 997 366 
Q 281 1006 281 2344 
Q 281 3359 819 4009 
Q 1400 4716 2422 4716 
z
M 2297 4716 
L 2297 4716 
z
" transform="scale(0.015625)"/>
     </defs>
     <use xlink:href="#Helvetica-43"/>
     <use xlink:href="#Helvetica-68" x="72.216797"/>
     <use xlink:href="#Helvetica-72" x="127.832031"/>
     <use xlink:href="#Helvetica-6f" x="161.132812"/>
     <use xlink:href="#Helvetica-6e" x="216.748047"/>
     <use xlink:href="#Helvetica-69" x="272.363281"/>
     <use xlink:href="#Helvetica-63" x="294.580078"/>
     <use xlink:href="#Helvetica-20" x="344.580078"/>
     <use xlink:href="#Helvetica-50" x="372.363281"/>
     <use xlink:href="#Helvetica-61" x="439.0625"/>
     <use xlink:href="#Helvetica-69" x="494.677734"/>
     <use xlink:href="#Helvetica-6e" x="516.894531"/>
    </g>
   </g>
   <g id="legend_3">
    <g id="line2d_59">
     <path d="M 931.93875 270.584063 
L 949.93875 270.584063 
L 967.93875 270.584063 
" style="fill: none; stroke: #095086; stroke-opacity: 0.75; stroke-width: 3; stroke-linecap: square"/>
    </g>
    <g id="text_56">
     <!-- Reward -->
     <g transform="translate(982.33875 276.884063) scale(0.18 -0.18)">
      <use xlink:href="#Helvetica-52"/>
      <use xlink:href="#Helvetica-65" x="72.216797"/>
      <use xlink:href="#Helvetica-77" x="127.832031"/>
      <use xlink:href="#Helvetica-61" x="200.048828"/>
      <use xlink:href="#Helvetica-72" x="255.664062"/>
      <use xlink:href="#Helvetica-64" x="288.964844"/>
     </g>
    </g>
    <g id="line2d_60">
     <path d="M 931.93875 296.248125 
L 949.93875 296.248125 
L 967.93875 296.248125 
" style="fill: none; stroke: #b00000; stroke-opacity: 0.75; stroke-width: 3; stroke-linecap: square"/>
    </g>
    <g id="text_57">
     <!-- Punish -->
     <g transform="translate(982.33875 302.548125) scale(0.18 -0.18)">
      <use xlink:href="#Helvetica-50"/>
      <use xlink:href="#Helvetica-75" x="66.699219"/>
      <use xlink:href="#Helvetica-6e" x="122.314453"/>
      <use xlink:href="#Helvetica-69" x="177.929688"/>
      <use xlink:href="#Helvetica-73" x="200.146484"/>
      <use xlink:href="#Helvetica-68" x="250.146484"/>
     </g>
    </g>
   </g>
  </g>
  <g id="axes_4">
   <g id="patch_11">
    <path d="M 78.23 676.28 
L 353.52 676.28 
L 353.52 394.34 
L 78.23 394.34 
z
" style="fill: #ffffff"/>
   </g>
   <g id="patch_12">
    <path d="M 90.743182 676.28 
L 132.453788 676.28 
L 132.453788 423.552117 
L 90.743182 423.552117 
z
" clip-path="url(#pd2d96c3545)" style="fill: #095086; opacity: 0.75"/>
   </g>
   <g id="patch_13">
    <path d="M 142.881439 676.28 
L 184.592045 676.28 
L 184.592045 521.082472 
L 142.881439 521.082472 
z
" clip-path="url(#pd2d96c3545)" style="fill: #9bd2f2; opacity: 0.75"/>
   </g>
   <g id="patch_14">
    <path d="M 195.019697 676.28 
L 236.730303 676.28 
L 236.730303 539.865419 
L 195.019697 539.865419 
z
" clip-path="url(#pd2d96c3545)" style="fill: #eca6a6; opacity: 0.75"/>
   </g>
   <g id="patch_15">
    <path d="M 247.157955 676.28 
L 288.868561 676.28 
L 288.868561 640.763392 
L 247.157955 640.763392 
z
" clip-path="url(#pd2d96c3545)" style="fill: #b00000; opacity: 0.75"/>
   </g>
   <g id="patch_16">
    <path d="M 299.296212 676.28 
L 341.006818 676.28 
L 341.006818 573.685167 
L 299.296212 573.685167 
z
" clip-path="url(#pd2d96c3545)" style="fill: #d3d3d3; opacity: 0.75"/>
   </g>
   <g id="PathCollection_1">
    <defs>
     <path id="m4dd33727ae" d="M 0 4.242641 
L 4.242641 0 
L 0 -4.242641 
L -4.242641 0 
z
" style="stroke: #808080; stroke-opacity: 0.75"/>
    </defs>
    <g clip-path="url(#pd2d96c3545)">
     <use xlink:href="#m4dd33727ae" x="111.598485" y="433.8116" style="fill: #808080; fill-opacity: 0.75; stroke: #808080; stroke-opacity: 0.75"/>
     <use xlink:href="#m4dd33727ae" x="163.736742" y="511.3451" style="fill: #808080; fill-opacity: 0.75; stroke: #808080; stroke-opacity: 0.75"/>
     <use xlink:href="#m4dd33727ae" x="215.875" y="543.7682" style="fill: #808080; fill-opacity: 0.75; stroke: #808080; stroke-opacity: 0.75"/>
     <use xlink:href="#m4dd33727ae" x="268.013258" y="639.6278" style="fill: #808080; fill-opacity: 0.75; stroke: #808080; stroke-opacity: 0.75"/>
     <use xlink:href="#m4dd33727ae" x="320.151515" y="571.9622" style="fill: #808080; fill-opacity: 0.75; stroke: #808080; stroke-opacity: 0.75"/>
    </g>
   </g>
   <g id="matplotlib.axis_7">
    <g id="xtick_22">
     <g id="line2d_61">
      <g>
       <use xlink:href="#m03acccedec" x="111.598485" y="676.28" style="stroke: #000000; stroke-width: 0.8"/>
      </g>
     </g>
     <g id="text_58">
      <!-- HR -->
      <g transform="translate(98.59911 696.192188) scale(0.18 -0.18)">
       <defs>
        <path id="Helvetica-48" d="M 503 4591 
L 1131 4591 
L 1131 2694 
L 3519 2694 
L 3519 4591 
L 4147 4591 
L 4147 0 
L 3519 0 
L 3519 2147 
L 1131 2147 
L 1131 0 
L 503 0 
L 503 4591 
z
" transform="scale(0.015625)"/>
       </defs>
       <use xlink:href="#Helvetica-48"/>
       <use xlink:href="#Helvetica-52" x="72.216797"/>
      </g>
     </g>
    </g>
    <g id="xtick_23">
     <g id="line2d_62">
      <g>
       <use xlink:href="#m03acccedec" x="163.736742" y="676.28" style="stroke: #000000; stroke-width: 0.8"/>
      </g>
     </g>
     <g id="text_59">
      <!-- LR -->
      <g transform="translate(152.232211 696.192188) scale(0.18 -0.18)">
       <defs>
        <path id="Helvetica-4c" d="M 488 4591 
L 1109 4591 
L 1109 547 
L 3434 547 
L 3434 0 
L 488 0 
L 488 4591 
z
" transform="scale(0.015625)"/>
       </defs>
       <use xlink:href="#Helvetica-4c"/>
       <use xlink:href="#Helvetica-52" x="55.615234"/>
      </g>
     </g>
    </g>
    <g id="xtick_24">
     <g id="line2d_63">
      <g>
       <use xlink:href="#m03acccedec" x="215.875" y="676.28" style="stroke: #000000; stroke-width: 0.8"/>
      </g>
     </g>
     <g id="text_60">
      <!-- LP -->
      <g transform="translate(204.866875 696.192188) scale(0.18 -0.18)">
       <use xlink:href="#Helvetica-4c"/>
       <use xlink:href="#Helvetica-50" x="55.615234"/>
      </g>
     </g>
    </g>
    <g id="xtick_25">
     <g id="line2d_64">
      <g>
       <use xlink:href="#m03acccedec" x="268.013258" y="676.28" style="stroke: #000000; stroke-width: 0.8"/>
      </g>
     </g>
     <g id="text_61">
      <!-- HP -->
      <g transform="translate(255.510289 696.192188) scale(0.18 -0.18)">
       <use xlink:href="#Helvetica-48"/>
       <use xlink:href="#Helvetica-50" x="72.216797"/>
      </g>
     </g>
    </g>
    <g id="xtick_26">
     <g id="line2d_65">
      <g>
       <use xlink:href="#m03acccedec" x="320.151515" y="676.28" style="stroke: #000000; stroke-width: 0.8"/>
      </g>
     </g>
     <g id="text_62">
      <!-- N -->
      <g transform="translate(313.651828 696.192188) scale(0.18 -0.18)">
       <use xlink:href="#Helvetica-4e"/>
      </g>
     </g>
    </g>
   </g>
   <g id="matplotlib.axis_8">
    <g id="ytick_22">
     <g id="line2d_66">
      <g>
       <use xlink:href="#m0b73b12bc0" x="78.23" y="676.28" style="stroke: #000000; stroke-width: 0.8"/>
      </g>
     </g>
     <g id="text_63">
      <!-- 0 -->
      <g transform="translate(61.220313 682.736094) scale(0.18 -0.18)">
       <use xlink:href="#Helvetica-30"/>
      </g>
     </g>
    </g>
    <g id="ytick_23">
     <g id="line2d_67">
      <g>
       <use xlink:href="#m0b73b12bc0" x="78.23" y="619.892" style="stroke: #000000; stroke-width: 0.8"/>
      </g>
     </g>
     <g id="text_64">
      <!-- 20 -->
      <g transform="translate(51.210625 626.348094) scale(0.18 -0.18)">
       <use xlink:href="#Helvetica-32"/>
       <use xlink:href="#Helvetica-30" x="55.615234"/>
      </g>
     </g>
    </g>
    <g id="ytick_24">
     <g id="line2d_68">
      <g>
       <use xlink:href="#m0b73b12bc0" x="78.23" y="563.504" style="stroke: #000000; stroke-width: 0.8"/>
      </g>
     </g>
     <g id="text_65">
      <!-- 40 -->
      <g transform="translate(51.210625 569.960094) scale(0.18 -0.18)">
       <use xlink:href="#Helvetica-34"/>
       <use xlink:href="#Helvetica-30" x="55.615234"/>
      </g>
     </g>
    </g>
    <g id="ytick_25">
     <g id="line2d_69">
      <g>
       <use xlink:href="#m0b73b12bc0" x="78.23" y="507.116" style="stroke: #000000; stroke-width: 0.8"/>
      </g>
     </g>
     <g id="text_66">
      <!-- 60 -->
      <g transform="translate(51.210625 513.572094) scale(0.18 -0.18)">
       <use xlink:href="#Helvetica-36"/>
       <use xlink:href="#Helvetica-30" x="55.615234"/>
      </g>
     </g>
    </g>
    <g id="ytick_26">
     <g id="line2d_70">
      <g>
       <use xlink:href="#m0b73b12bc0" x="78.23" y="450.728" style="stroke: #000000; stroke-width: 0.8"/>
      </g>
     </g>
     <g id="text_67">
      <!-- 80 -->
      <g transform="translate(51.210625 457.184094) scale(0.18 -0.18)">
       <use xlink:href="#Helvetica-38"/>
       <use xlink:href="#Helvetica-30" x="55.615234"/>
      </g>
     </g>
    </g>
    <g id="ytick_27">
     <g id="line2d_71">
      <g>
       <use xlink:href="#m0b73b12bc0" x="78.23" y="394.34" style="stroke: #000000; stroke-width: 0.8"/>
      </g>
     </g>
     <g id="text_68">
      <!-- 100 -->
      <g transform="translate(41.200938 400.796094) scale(0.18 -0.18)">
       <use xlink:href="#Helvetica-31"/>
       <use xlink:href="#Helvetica-30" x="55.615234"/>
       <use xlink:href="#Helvetica-30" x="111.230469"/>
      </g>
     </g>
    </g>
    <g id="text_69">
     <!-- Choice Rate (%) -->
     <g transform="translate(33.449063 601.330625) rotate(-90) scale(0.18 -0.18)">
      <use xlink:href="#Helvetica-43"/>
      <use xlink:href="#Helvetica-68" x="72.216797"/>
      <use xlink:href="#Helvetica-6f" x="127.832031"/>
      <use xlink:href="#Helvetica-69" x="183.447266"/>
      <use xlink:href="#Helvetica-63" x="205.664062"/>
      <use xlink:href="#Helvetica-65" x="255.664062"/>
      <use xlink:href="#Helvetica-20" x="311.279297"/>
      <use xlink:href="#Helvetica-52" x="339.0625"/>
      <use xlink:href="#Helvetica-61" x="411.279297"/>
      <use xlink:href="#Helvetica-74" x="466.894531"/>
      <use xlink:href="#Helvetica-65" x="494.677734"/>
      <use xlink:href="#Helvetica-20" x="550.292969"/>
      <use xlink:href="#Helvetica-28" x="578.076172"/>
      <use xlink:href="#Helvetica-25" x="611.376953"/>
      <use xlink:href="#Helvetica-29" x="700.292969"/>
     </g>
    </g>
   </g>
   <g id="LineCollection_1">
    <path d="M 111.598485 429.036379 
L 111.598485 418.067854 
" clip-path="url(#pd2d96c3545)" style="fill: none; stroke: #696969; stroke-width: 1.5"/>
    <path d="M 163.736742 528.725238 
L 163.736742 513.439706 
" clip-path="url(#pd2d96c3545)" style="fill: none; stroke: #696969; stroke-width: 1.5"/>
    <path d="M 215.875 547.40537 
L 215.875 532.325469 
" clip-path="url(#pd2d96c3545)" style="fill: none; stroke: #696969; stroke-width: 1.5"/>
    <path d="M 268.013258 646.846897 
L 268.013258 634.679887 
" clip-path="url(#pd2d96c3545)" style="fill: none; stroke: #696969; stroke-width: 1.5"/>
    <path d="M 320.151515 584.197639 
L 320.151515 563.172694 
" clip-path="url(#pd2d96c3545)" style="fill: none; stroke: #696969; stroke-width: 1.5"/>
   </g>
   <g id="line2d_72">
    <defs>
     <path id="mcac1466752" d="M 5 0 
L -5 -0 
" style="stroke: #696969"/>
    </defs>
    <g clip-path="url(#pd2d96c3545)">
     <use xlink:href="#mcac1466752" x="111.598485" y="429.036379" style="fill: #696969; stroke: #696969"/>
     <use xlink:href="#mcac1466752" x="163.736742" y="528.725238" style="fill: #696969; stroke: #696969"/>
     <use xlink:href="#mcac1466752" x="215.875" y="547.40537" style="fill: #696969; stroke: #696969"/>
     <use xlink:href="#mcac1466752" x="268.013258" y="646.846897" style="fill: #696969; stroke: #696969"/>
     <use xlink:href="#mcac1466752" x="320.151515" y="584.197639" style="fill: #696969; stroke: #696969"/>
    </g>
   </g>
   <g id="line2d_73">
    <g clip-path="url(#pd2d96c3545)">
     <use xlink:href="#mcac1466752" x="111.598485" y="418.067854" style="fill: #696969; stroke: #696969"/>
     <use xlink:href="#mcac1466752" x="163.736742" y="513.439706" style="fill: #696969; stroke: #696969"/>
     <use xlink:href="#mcac1466752" x="215.875" y="532.325469" style="fill: #696969; stroke: #696969"/>
     <use xlink:href="#mcac1466752" x="268.013258" y="634.679887" style="fill: #696969; stroke: #696969"/>
     <use xlink:href="#mcac1466752" x="320.151515" y="563.172694" style="fill: #696969; stroke: #696969"/>
    </g>
   </g>
   <g id="LineCollection_2">
    <path d="M 111.598485 429.036379 
L 111.598485 418.067854 
" clip-path="url(#pd2d96c3545)" style="fill: none; stroke: #808080; stroke-width: 1.5"/>
    <path d="M 163.736742 528.725238 
L 163.736742 513.439706 
" clip-path="url(#pd2d96c3545)" style="fill: none; stroke: #808080; stroke-width: 1.5"/>
    <path d="M 215.875 547.40537 
L 215.875 532.325469 
" clip-path="url(#pd2d96c3545)" style="fill: none; stroke: #808080; stroke-width: 1.5"/>
    <path d="M 268.013258 646.846897 
L 268.013258 634.679887 
" clip-path="url(#pd2d96c3545)" style="fill: none; stroke: #808080; stroke-width: 1.5"/>
    <path d="M 320.151515 584.197639 
L 320.151515 563.172694 
" clip-path="url(#pd2d96c3545)" style="fill: none; stroke: #808080; stroke-width: 1.5"/>
   </g>
   <g id="line2d_74">
    <defs>
     <path id="m17acb28fd5" d="M 0 1.5 
C 0.397805 1.5 0.77937 1.341951 1.06066 1.06066 
C 1.341951 0.77937 1.5 0.397805 1.5 0 
C 1.5 -0.397805 1.341951 -0.77937 1.06066 -1.06066 
C 0.77937 -1.341951 0.397805 -1.5 0 -1.5 
C -0.397805 -1.5 -0.77937 -1.341951 -1.06066 -1.06066 
C -1.341951 -0.77937 -1.5 -0.397805 -1.5 0 
C -1.5 0.397805 -1.341951 0.77937 -1.06066 1.06066 
C -0.77937 1.341951 -0.397805 1.5 0 1.5 
z
" style="stroke: #808080"/>
    </defs>
    <g clip-path="url(#pd2d96c3545)">
     <use xlink:href="#m17acb28fd5" x="111.598485" y="423.552117" style="fill: #808080; stroke: #808080"/>
     <use xlink:href="#m17acb28fd5" x="163.736742" y="521.082472" style="fill: #808080; stroke: #808080"/>
     <use xlink:href="#m17acb28fd5" x="215.875" y="539.865419" style="fill: #808080; stroke: #808080"/>
     <use xlink:href="#m17acb28fd5" x="268.013258" y="640.763392" style="fill: #808080; stroke: #808080"/>
     <use xlink:href="#m17acb28fd5" x="320.151515" y="573.685167" style="fill: #808080; stroke: #808080"/>
    </g>
   </g>
   <g id="patch_17">
    <path d="M 78.23 676.28 
L 78.23 394.34 
" style="fill: none; stroke: #000000; stroke-width: 0.8; stroke-linejoin: miter; stroke-linecap: square"/>
   </g>
   <g id="patch_18">
    <path d="M 78.23 676.28 
L 353.52 676.28 
" style="fill: none; stroke: #000000; stroke-width: 0.8; stroke-linejoin: miter; stroke-linecap: square"/>
   </g>
  </g>
  <g id="axes_5">
   <g id="patch_19">
    <path d="M 431.75 676.28 
L 707.04 676.28 
L 707.04 394.34 
L 431.75 394.34 
z
" style="fill: #ffffff"/>
   </g>
   <g id="patch_20">
    <path d="M 444.263182 676.28 
L 485.973788 676.28 
L 485.973788 433.38603 
L 444.263182 433.38603 
z
" clip-path="url(#pc792d3533c)" style="fill: #095086; opacity: 0.75"/>
   </g>
   <g id="patch_21">
    <path d="M 496.401439 676.28 
L 538.112045 676.28 
L 538.112045 525.096325 
L 496.401439 525.096325 
z
" clip-path="url(#pc792d3533c)" style="fill: #9bd2f2; opacity: 0.75"/>
   </g>
   <g id="patch_22">
    <path d="M 548.539697 676.28 
L 590.250303 676.28 
L 590.250303 525.309109 
L 548.539697 525.309109 
z
" clip-path="url(#pc792d3533c)" style="fill: #eca6a6; opacity: 0.75"/>
   </g>
   <g id="patch_23">
    <path d="M 600.677955 676.28 
L 642.388561 676.28 
L 642.388561 631.275992 
L 600.677955 631.275992 
z
" clip-path="url(#pc792d3533c)" style="fill: #b00000; opacity: 0.75"/>
   </g>
   <g id="patch_24">
    <path d="M 652.816212 676.28 
L 694.526818 676.28 
L 694.526818 591.538411 
L 652.816212 591.538411 
z
" clip-path="url(#pc792d3533c)" style="fill: #d3d3d3; opacity: 0.75"/>
   </g>
   <g id="PathCollection_2">
    <g clip-path="url(#pc792d3533c)">
     <use xlink:href="#m4dd33727ae" x="465.118485" y="435.2213" style="fill: #808080; fill-opacity: 0.75; stroke: #808080; stroke-opacity: 0.75"/>
     <use xlink:href="#m4dd33727ae" x="517.256742" y="519.8033" style="fill: #808080; fill-opacity: 0.75; stroke: #808080; stroke-opacity: 0.75"/>
     <use xlink:href="#m4dd33727ae" x="569.395" y="531.0809" style="fill: #808080; fill-opacity: 0.75; stroke: #808080; stroke-opacity: 0.75"/>
     <use xlink:href="#m4dd33727ae" x="621.533258" y="626.9405" style="fill: #808080; fill-opacity: 0.75; stroke: #808080; stroke-opacity: 0.75"/>
     <use xlink:href="#m4dd33727ae" x="673.671515" y="594.5174" style="fill: #808080; fill-opacity: 0.75; stroke: #808080; stroke-opacity: 0.75"/>
    </g>
   </g>
   <g id="matplotlib.axis_9">
    <g id="xtick_27">
     <g id="line2d_75">
      <g>
       <use xlink:href="#m03acccedec" x="465.118485" y="676.28" style="stroke: #000000; stroke-width: 0.8"/>
      </g>
     </g>
     <g id="text_70">
      <!-- HR -->
      <g transform="translate(452.11911 696.192188) scale(0.18 -0.18)">
       <use xlink:href="#Helvetica-48"/>
       <use xlink:href="#Helvetica-52" x="72.216797"/>
      </g>
     </g>
    </g>
    <g id="xtick_28">
     <g id="line2d_76">
      <g>
       <use xlink:href="#m03acccedec" x="517.256742" y="676.28" style="stroke: #000000; stroke-width: 0.8"/>
      </g>
     </g>
     <g id="text_71">
      <!-- LR -->
      <g transform="translate(505.752211 696.192188) scale(0.18 -0.18)">
       <use xlink:href="#Helvetica-4c"/>
       <use xlink:href="#Helvetica-52" x="55.615234"/>
      </g>
     </g>
    </g>
    <g id="xtick_29">
     <g id="line2d_77">
      <g>
       <use xlink:href="#m03acccedec" x="569.395" y="676.28" style="stroke: #000000; stroke-width: 0.8"/>
      </g>
     </g>
     <g id="text_72">
      <!-- LP -->
      <g transform="translate(558.386875 696.192188) scale(0.18 -0.18)">
       <use xlink:href="#Helvetica-4c"/>
       <use xlink:href="#Helvetica-50" x="55.615234"/>
      </g>
     </g>
    </g>
    <g id="xtick_30">
     <g id="line2d_78">
      <g>
       <use xlink:href="#m03acccedec" x="621.533258" y="676.28" style="stroke: #000000; stroke-width: 0.8"/>
      </g>
     </g>
     <g id="text_73">
      <!-- HP -->
      <g transform="translate(609.030289 696.192188) scale(0.18 -0.18)">
       <use xlink:href="#Helvetica-48"/>
       <use xlink:href="#Helvetica-50" x="72.216797"/>
      </g>
     </g>
    </g>
    <g id="xtick_31">
     <g id="line2d_79">
      <g>
       <use xlink:href="#m03acccedec" x="673.671515" y="676.28" style="stroke: #000000; stroke-width: 0.8"/>
      </g>
     </g>
     <g id="text_74">
      <!-- N -->
      <g transform="translate(667.171828 696.192188) scale(0.18 -0.18)">
       <use xlink:href="#Helvetica-4e"/>
      </g>
     </g>
    </g>
   </g>
   <g id="matplotlib.axis_10">
    <g id="ytick_28">
     <g id="line2d_80">
      <g>
       <use xlink:href="#m0b73b12bc0" x="431.75" y="676.28" style="stroke: #000000; stroke-width: 0.8"/>
      </g>
     </g>
     <g id="text_75">
      <!-- 0 -->
      <g transform="translate(414.740313 682.736094) scale(0.18 -0.18)">
       <use xlink:href="#Helvetica-30"/>
      </g>
     </g>
    </g>
    <g id="ytick_29">
     <g id="line2d_81">
      <g>
       <use xlink:href="#m0b73b12bc0" x="431.75" y="619.892" style="stroke: #000000; stroke-width: 0.8"/>
      </g>
     </g>
     <g id="text_76">
      <!-- 20 -->
      <g transform="translate(404.730625 626.348094) scale(0.18 -0.18)">
       <use xlink:href="#Helvetica-32"/>
       <use xlink:href="#Helvetica-30" x="55.615234"/>
      </g>
     </g>
    </g>
    <g id="ytick_30">
     <g id="line2d_82">
      <g>
       <use xlink:href="#m0b73b12bc0" x="431.75" y="563.504" style="stroke: #000000; stroke-width: 0.8"/>
      </g>
     </g>
     <g id="text_77">
      <!-- 40 -->
      <g transform="translate(404.730625 569.960094) scale(0.18 -0.18)">
       <use xlink:href="#Helvetica-34"/>
       <use xlink:href="#Helvetica-30" x="55.615234"/>
      </g>
     </g>
    </g>
    <g id="ytick_31">
     <g id="line2d_83">
      <g>
       <use xlink:href="#m0b73b12bc0" x="431.75" y="507.116" style="stroke: #000000; stroke-width: 0.8"/>
      </g>
     </g>
     <g id="text_78">
      <!-- 60 -->
      <g transform="translate(404.730625 513.572094) scale(0.18 -0.18)">
       <use xlink:href="#Helvetica-36"/>
       <use xlink:href="#Helvetica-30" x="55.615234"/>
      </g>
     </g>
    </g>
    <g id="ytick_32">
     <g id="line2d_84">
      <g>
       <use xlink:href="#m0b73b12bc0" x="431.75" y="450.728" style="stroke: #000000; stroke-width: 0.8"/>
      </g>
     </g>
     <g id="text_79">
      <!-- 80 -->
      <g transform="translate(404.730625 457.184094) scale(0.18 -0.18)">
       <use xlink:href="#Helvetica-38"/>
       <use xlink:href="#Helvetica-30" x="55.615234"/>
      </g>
     </g>
    </g>
    <g id="ytick_33">
     <g id="line2d_85">
      <g>
       <use xlink:href="#m0b73b12bc0" x="431.75" y="394.34" style="stroke: #000000; stroke-width: 0.8"/>
      </g>
     </g>
     <g id="text_80">
      <!-- 100 -->
      <g transform="translate(394.720938 400.796094) scale(0.18 -0.18)">
       <use xlink:href="#Helvetica-31"/>
       <use xlink:href="#Helvetica-30" x="55.615234"/>
       <use xlink:href="#Helvetica-30" x="111.230469"/>
      </g>
     </g>
    </g>
    <g id="text_81">
     <!-- Choice Rate (%) -->
     <g transform="translate(386.969063 601.330625) rotate(-90) scale(0.18 -0.18)">
      <use xlink:href="#Helvetica-43"/>
      <use xlink:href="#Helvetica-68" x="72.216797"/>
      <use xlink:href="#Helvetica-6f" x="127.832031"/>
      <use xlink:href="#Helvetica-69" x="183.447266"/>
      <use xlink:href="#Helvetica-63" x="205.664062"/>
      <use xlink:href="#Helvetica-65" x="255.664062"/>
      <use xlink:href="#Helvetica-20" x="311.279297"/>
      <use xlink:href="#Helvetica-52" x="339.0625"/>
      <use xlink:href="#Helvetica-61" x="411.279297"/>
      <use xlink:href="#Helvetica-74" x="466.894531"/>
      <use xlink:href="#Helvetica-65" x="494.677734"/>
      <use xlink:href="#Helvetica-20" x="550.292969"/>
      <use xlink:href="#Helvetica-28" x="578.076172"/>
      <use xlink:href="#Helvetica-25" x="611.376953"/>
      <use xlink:href="#Helvetica-29" x="700.292969"/>
     </g>
    </g>
   </g>
   <g id="LineCollection_3">
    <path d="M 465.118485 443.164291 
L 465.118485 423.60777 
" clip-path="url(#pc792d3533c)" style="fill: none; stroke: #696969; stroke-width: 1.5"/>
    <path d="M 517.256742 534.798968 
L 517.256742 515.393681 
" clip-path="url(#pc792d3533c)" style="fill: none; stroke: #696969; stroke-width: 1.5"/>
    <path d="M 569.395 535.863252 
L 569.395 514.754967 
" clip-path="url(#pc792d3533c)" style="fill: none; stroke: #696969; stroke-width: 1.5"/>
    <path d="M 621.533258 640.578976 
L 621.533258 621.973009 
" clip-path="url(#pc792d3533c)" style="fill: none; stroke: #696969; stroke-width: 1.5"/>
    <path d="M 673.671515 604.512135 
L 673.671515 578.564688 
" clip-path="url(#pc792d3533c)" style="fill: none; stroke: #696969; stroke-width: 1.5"/>
   </g>
   <g id="line2d_86">
    <g clip-path="url(#pc792d3533c)">
     <use xlink:href="#mcac1466752" x="465.118485" y="443.164291" style="fill: #696969; stroke: #696969"/>
     <use xlink:href="#mcac1466752" x="517.256742" y="534.798968" style="fill: #696969; stroke: #696969"/>
     <use xlink:href="#mcac1466752" x="569.395" y="535.863252" style="fill: #696969; stroke: #696969"/>
     <use xlink:href="#mcac1466752" x="621.533258" y="640.578976" style="fill: #696969; stroke: #696969"/>
     <use xlink:href="#mcac1466752" x="673.671515" y="604.512135" style="fill: #696969; stroke: #696969"/>
    </g>
   </g>
   <g id="line2d_87">
    <g clip-path="url(#pc792d3533c)">
     <use xlink:href="#mcac1466752" x="465.118485" y="423.60777" style="fill: #696969; stroke: #696969"/>
     <use xlink:href="#mcac1466752" x="517.256742" y="515.393681" style="fill: #696969; stroke: #696969"/>
     <use xlink:href="#mcac1466752" x="569.395" y="514.754967" style="fill: #696969; stroke: #696969"/>
     <use xlink:href="#mcac1466752" x="621.533258" y="621.973009" style="fill: #696969; stroke: #696969"/>
     <use xlink:href="#mcac1466752" x="673.671515" y="578.564688" style="fill: #696969; stroke: #696969"/>
    </g>
   </g>
   <g id="LineCollection_4">
    <path d="M 465.118485 443.164291 
L 465.118485 423.60777 
" clip-path="url(#pc792d3533c)" style="fill: none; stroke: #808080; stroke-width: 1.5"/>
    <path d="M 517.256742 534.798968 
L 517.256742 515.393681 
" clip-path="url(#pc792d3533c)" style="fill: none; stroke: #808080; stroke-width: 1.5"/>
    <path d="M 569.395 535.863252 
L 569.395 514.754967 
" clip-path="url(#pc792d3533c)" style="fill: none; stroke: #808080; stroke-width: 1.5"/>
    <path d="M 621.533258 640.578976 
L 621.533258 621.973009 
" clip-path="url(#pc792d3533c)" style="fill: none; stroke: #808080; stroke-width: 1.5"/>
    <path d="M 673.671515 604.512135 
L 673.671515 578.564688 
" clip-path="url(#pc792d3533c)" style="fill: none; stroke: #808080; stroke-width: 1.5"/>
   </g>
   <g id="line2d_88">
    <g clip-path="url(#pc792d3533c)">
     <use xlink:href="#m17acb28fd5" x="465.118485" y="433.38603" style="fill: #808080; stroke: #808080"/>
     <use xlink:href="#m17acb28fd5" x="517.256742" y="525.096325" style="fill: #808080; stroke: #808080"/>
     <use xlink:href="#m17acb28fd5" x="569.395" y="525.309109" style="fill: #808080; stroke: #808080"/>
     <use xlink:href="#m17acb28fd5" x="621.533258" y="631.275992" style="fill: #808080; stroke: #808080"/>
     <use xlink:href="#m17acb28fd5" x="673.671515" y="591.538411" style="fill: #808080; stroke: #808080"/>
    </g>
   </g>
   <g id="patch_25">
    <path d="M 431.75 676.28 
L 431.75 394.34 
" style="fill: none; stroke: #000000; stroke-width: 0.8; stroke-linejoin: miter; stroke-linecap: square"/>
   </g>
   <g id="patch_26">
    <path d="M 431.75 676.28 
L 707.04 676.28 
" style="fill: none; stroke: #000000; stroke-width: 0.8; stroke-linejoin: miter; stroke-linecap: square"/>
   </g>
  </g>
  <g id="axes_6">
   <g id="patch_27">
    <path d="M 785.27 676.28 
L 1060.56 676.28 
L 1060.56 394.34 
L 785.27 394.34 
z
" style="fill: #ffffff"/>
   </g>
   <g id="patch_28">
    <path d="M 797.783182 676.28 
L 839.493788 676.28 
L 839.493788 431.498246 
L 797.783182 431.498246 
z
" clip-path="url(#pd14a0a0073)" style="fill: #095086; opacity: 0.75"/>
   </g>
   <g id="patch_29">
    <path d="M 849.921439 676.28 
L 891.632045 676.28 
L 891.632045 537.532988 
L 849.921439 537.532988 
z
" clip-path="url(#pd14a0a0073)" style="fill: #9bd2f2; opacity: 0.75"/>
   </g>
   <g id="patch_30">
    <path d="M 902.059697 676.28 
L 943.770303 676.28 
L 943.770303 525.098712 
L 902.059697 525.098712 
z
" clip-path="url(#pd14a0a0073)" style="fill: #eca6a6; opacity: 0.75"/>
   </g>
   <g id="patch_31">
    <path d="M 954.197955 676.28 
L 995.908561 676.28 
L 995.908561 634.603485 
L 954.197955 634.603485 
z
" clip-path="url(#pd14a0a0073)" style="fill: #b00000; opacity: 0.75"/>
   </g>
   <g id="patch_32">
    <path d="M 1006.336212 676.28 
L 1048.046818 676.28 
L 1048.046818 567.588515 
L 1006.336212 567.588515 
z
" clip-path="url(#pd14a0a0073)" style="fill: #d3d3d3; opacity: 0.75"/>
   </g>
   <g id="PathCollection_3">
    <g clip-path="url(#pd14a0a0073)">
     <use xlink:href="#m4dd33727ae" x="818.638485" y="439.4504" style="fill: #808080; fill-opacity: 0.75; stroke: #808080; stroke-opacity: 0.75"/>
     <use xlink:href="#m4dd33727ae" x="870.776742" y="529.6712" style="fill: #808080; fill-opacity: 0.75; stroke: #808080; stroke-opacity: 0.75"/>
     <use xlink:href="#m4dd33727ae" x="922.915" y="531.0809" style="fill: #808080; fill-opacity: 0.75; stroke: #808080; stroke-opacity: 0.75"/>
     <use xlink:href="#m4dd33727ae" x="975.053258" y="629.7599" style="fill: #808080; fill-opacity: 0.75; stroke: #808080; stroke-opacity: 0.75"/>
     <use xlink:href="#m4dd33727ae" x="1027.191515" y="566.3234" style="fill: #808080; fill-opacity: 0.75; stroke: #808080; stroke-opacity: 0.75"/>
    </g>
   </g>
   <g id="matplotlib.axis_11">
    <g id="xtick_32">
     <g id="line2d_89">
      <g>
       <use xlink:href="#m03acccedec" x="818.638485" y="676.28" style="stroke: #000000; stroke-width: 0.8"/>
      </g>
     </g>
     <g id="text_82">
      <!-- HR -->
      <g transform="translate(805.63911 696.192188) scale(0.18 -0.18)">
       <use xlink:href="#Helvetica-48"/>
       <use xlink:href="#Helvetica-52" x="72.216797"/>
      </g>
     </g>
    </g>
    <g id="xtick_33">
     <g id="line2d_90">
      <g>
       <use xlink:href="#m03acccedec" x="870.776742" y="676.28" style="stroke: #000000; stroke-width: 0.8"/>
      </g>
     </g>
     <g id="text_83">
      <!-- LR -->
      <g transform="translate(859.272211 696.192188) scale(0.18 -0.18)">
       <use xlink:href="#Helvetica-4c"/>
       <use xlink:href="#Helvetica-52" x="55.615234"/>
      </g>
     </g>
    </g>
    <g id="xtick_34">
     <g id="line2d_91">
      <g>
       <use xlink:href="#m03acccedec" x="922.915" y="676.28" style="stroke: #000000; stroke-width: 0.8"/>
      </g>
     </g>
     <g id="text_84">
      <!-- LP -->
      <g transform="translate(911.906875 696.192188) scale(0.18 -0.18)">
       <use xlink:href="#Helvetica-4c"/>
       <use xlink:href="#Helvetica-50" x="55.615234"/>
      </g>
     </g>
    </g>
    <g id="xtick_35">
     <g id="line2d_92">
      <g>
       <use xlink:href="#m03acccedec" x="975.053258" y="676.28" style="stroke: #000000; stroke-width: 0.8"/>
      </g>
     </g>
     <g id="text_85">
      <!-- HP -->
      <g transform="translate(962.550289 696.192188) scale(0.18 -0.18)">
       <use xlink:href="#Helvetica-48"/>
       <use xlink:href="#Helvetica-50" x="72.216797"/>
      </g>
     </g>
    </g>
    <g id="xtick_36">
     <g id="line2d_93">
      <g>
       <use xlink:href="#m03acccedec" x="1027.191515" y="676.28" style="stroke: #000000; stroke-width: 0.8"/>
      </g>
     </g>
     <g id="text_86">
      <!-- N -->
      <g transform="translate(1020.691828 696.192188) scale(0.18 -0.18)">
       <use xlink:href="#Helvetica-4e"/>
      </g>
     </g>
    </g>
   </g>
   <g id="matplotlib.axis_12">
    <g id="ytick_34">
     <g id="line2d_94">
      <g>
       <use xlink:href="#m0b73b12bc0" x="785.27" y="676.28" style="stroke: #000000; stroke-width: 0.8"/>
      </g>
     </g>
     <g id="text_87">
      <!-- 0 -->
      <g transform="translate(768.260313 682.736094) scale(0.18 -0.18)">
       <use xlink:href="#Helvetica-30"/>
      </g>
     </g>
    </g>
    <g id="ytick_35">
     <g id="line2d_95">
      <g>
       <use xlink:href="#m0b73b12bc0" x="785.27" y="619.892" style="stroke: #000000; stroke-width: 0.8"/>
      </g>
     </g>
     <g id="text_88">
      <!-- 20 -->
      <g transform="translate(758.250625 626.348094) scale(0.18 -0.18)">
       <use xlink:href="#Helvetica-32"/>
       <use xlink:href="#Helvetica-30" x="55.615234"/>
      </g>
     </g>
    </g>
    <g id="ytick_36">
     <g id="line2d_96">
      <g>
       <use xlink:href="#m0b73b12bc0" x="785.27" y="563.504" style="stroke: #000000; stroke-width: 0.8"/>
      </g>
     </g>
     <g id="text_89">
      <!-- 40 -->
      <g transform="translate(758.250625 569.960094) scale(0.18 -0.18)">
       <use xlink:href="#Helvetica-34"/>
       <use xlink:href="#Helvetica-30" x="55.615234"/>
      </g>
     </g>
    </g>
    <g id="ytick_37">
     <g id="line2d_97">
      <g>
       <use xlink:href="#m0b73b12bc0" x="785.27" y="507.116" style="stroke: #000000; stroke-width: 0.8"/>
      </g>
     </g>
     <g id="text_90">
      <!-- 60 -->
      <g transform="translate(758.250625 513.572094) scale(0.18 -0.18)">
       <use xlink:href="#Helvetica-36"/>
       <use xlink:href="#Helvetica-30" x="55.615234"/>
      </g>
     </g>
    </g>
    <g id="ytick_38">
     <g id="line2d_98">
      <g>
       <use xlink:href="#m0b73b12bc0" x="785.27" y="450.728" style="stroke: #000000; stroke-width: 0.8"/>
      </g>
     </g>
     <g id="text_91">
      <!-- 80 -->
      <g transform="translate(758.250625 457.184094) scale(0.18 -0.18)">
       <use xlink:href="#Helvetica-38"/>
       <use xlink:href="#Helvetica-30" x="55.615234"/>
      </g>
     </g>
    </g>
    <g id="ytick_39">
     <g id="line2d_99">
      <g>
       <use xlink:href="#m0b73b12bc0" x="785.27" y="394.34" style="stroke: #000000; stroke-width: 0.8"/>
      </g>
     </g>
     <g id="text_92">
      <!-- 100 -->
      <g transform="translate(748.240938 400.796094) scale(0.18 -0.18)">
       <use xlink:href="#Helvetica-31"/>
       <use xlink:href="#Helvetica-30" x="55.615234"/>
       <use xlink:href="#Helvetica-30" x="111.230469"/>
      </g>
     </g>
    </g>
    <g id="text_93">
     <!-- Choice Rate (%) -->
     <g transform="translate(740.489063 601.330625) rotate(-90) scale(0.18 -0.18)">
      <use xlink:href="#Helvetica-43"/>
      <use xlink:href="#Helvetica-68" x="72.216797"/>
      <use xlink:href="#Helvetica-6f" x="127.832031"/>
      <use xlink:href="#Helvetica-69" x="183.447266"/>
      <use xlink:href="#Helvetica-63" x="205.664062"/>
      <use xlink:href="#Helvetica-65" x="255.664062"/>
      <use xlink:href="#Helvetica-20" x="311.279297"/>
      <use xlink:href="#Helvetica-52" x="339.0625"/>
      <use xlink:href="#Helvetica-61" x="411.279297"/>
      <use xlink:href="#Helvetica-74" x="466.894531"/>
      <use xlink:href="#Helvetica-65" x="494.677734"/>
      <use xlink:href="#Helvetica-20" x="550.292969"/>
      <use xlink:href="#Helvetica-28" x="578.076172"/>
      <use xlink:href="#Helvetica-25" x="611.376953"/>
      <use xlink:href="#Helvetica-29" x="700.292969"/>
     </g>
    </g>
   </g>
   <g id="LineCollection_5">
    <path d="M 818.638485 438.712685 
L 818.638485 424.283807 
" clip-path="url(#pd14a0a0073)" style="fill: none; stroke: #696969; stroke-width: 1.5"/>
    <path d="M 870.776742 547.269443 
L 870.776742 527.796533 
" clip-path="url(#pd14a0a0073)" style="fill: none; stroke: #696969; stroke-width: 1.5"/>
    <path d="M 922.915 534.708989 
L 922.915 515.488434 
" clip-path="url(#pd14a0a0073)" style="fill: none; stroke: #696969; stroke-width: 1.5"/>
    <path d="M 975.053258 642.745016 
L 975.053258 626.461953 
" clip-path="url(#pd14a0a0073)" style="fill: none; stroke: #696969; stroke-width: 1.5"/>
    <path d="M 1027.191515 581.016564 
L 1027.191515 554.160467 
" clip-path="url(#pd14a0a0073)" style="fill: none; stroke: #696969; stroke-width: 1.5"/>
   </g>
   <g id="line2d_100">
    <g clip-path="url(#pd14a0a0073)">
     <use xlink:href="#mcac1466752" x="818.638485" y="438.712685" style="fill: #696969; stroke: #696969"/>
     <use xlink:href="#mcac1466752" x="870.776742" y="547.269443" style="fill: #696969; stroke: #696969"/>
     <use xlink:href="#mcac1466752" x="922.915" y="534.708989" style="fill: #696969; stroke: #696969"/>
     <use xlink:href="#mcac1466752" x="975.053258" y="642.745016" style="fill: #696969; stroke: #696969"/>
     <use xlink:href="#mcac1466752" x="1027.191515" y="581.016564" style="fill: #696969; stroke: #696969"/>
    </g>
   </g>
   <g id="line2d_101">
    <g clip-path="url(#pd14a0a0073)">
     <use xlink:href="#mcac1466752" x="818.638485" y="424.283807" style="fill: #696969; stroke: #696969"/>
     <use xlink:href="#mcac1466752" x="870.776742" y="527.796533" style="fill: #696969; stroke: #696969"/>
     <use xlink:href="#mcac1466752" x="922.915" y="515.488434" style="fill: #696969; stroke: #696969"/>
     <use xlink:href="#mcac1466752" x="975.053258" y="626.461953" style="fill: #696969; stroke: #696969"/>
     <use xlink:href="#mcac1466752" x="1027.191515" y="554.160467" style="fill: #696969; stroke: #696969"/>
    </g>
   </g>
   <g id="LineCollection_6">
    <path d="M 818.638485 438.712685 
L 818.638485 424.283807 
" clip-path="url(#pd14a0a0073)" style="fill: none; stroke: #808080; stroke-width: 1.5"/>
    <path d="M 870.776742 547.269443 
L 870.776742 527.796533 
" clip-path="url(#pd14a0a0073)" style="fill: none; stroke: #808080; stroke-width: 1.5"/>
    <path d="M 922.915 534.708989 
L 922.915 515.488434 
" clip-path="url(#pd14a0a0073)" style="fill: none; stroke: #808080; stroke-width: 1.5"/>
    <path d="M 975.053258 642.745016 
L 975.053258 626.461953 
" clip-path="url(#pd14a0a0073)" style="fill: none; stroke: #808080; stroke-width: 1.5"/>
    <path d="M 1027.191515 581.016564 
L 1027.191515 554.160467 
" clip-path="url(#pd14a0a0073)" style="fill: none; stroke: #808080; stroke-width: 1.5"/>
   </g>
   <g id="line2d_102">
    <g clip-path="url(#pd14a0a0073)">
     <use xlink:href="#m17acb28fd5" x="818.638485" y="431.498246" style="fill: #808080; stroke: #808080"/>
     <use xlink:href="#m17acb28fd5" x="870.776742" y="537.532988" style="fill: #808080; stroke: #808080"/>
     <use xlink:href="#m17acb28fd5" x="922.915" y="525.098712" style="fill: #808080; stroke: #808080"/>
     <use xlink:href="#m17acb28fd5" x="975.053258" y="634.603485" style="fill: #808080; stroke: #808080"/>
     <use xlink:href="#m17acb28fd5" x="1027.191515" y="567.588515" style="fill: #808080; stroke: #808080"/>
    </g>
   </g>
   <g id="patch_33">
    <path d="M 785.27 676.28 
L 785.27 394.34 
" style="fill: none; stroke: #000000; stroke-width: 0.8; stroke-linejoin: miter; stroke-linecap: square"/>
   </g>
   <g id="patch_34">
    <path d="M 785.27 676.28 
L 1060.56 676.28 
" style="fill: none; stroke: #000000; stroke-width: 0.8; stroke-linejoin: miter; stroke-linecap: square"/>
   </g>
  </g>
 </g>
 <defs>
  <clipPath id="p4c8dc59ed7">
   <rect x="78.23" y="40.56" width="275.29" height="281.94"/>
  </clipPath>
  <clipPath id="p35251188ee">
   <rect x="431.75" y="40.56" width="275.29" height="281.94"/>
  </clipPath>
  <clipPath id="pe50e45c842">
   <rect x="785.27" y="40.56" width="275.29" height="281.94"/>
  </clipPath>
  <clipPath id="pd2d96c3545">
   <rect x="78.23" y="394.34" width="275.29" height="281.94"/>
  </clipPath>
  <clipPath id="pc792d3533c">
   <rect x="431.75" y="394.34" width="275.29" height="281.94"/>
  </clipPath>
  <clipPath id="pd14a0a0073">
   <rect x="785.27" y="394.34" width="275.29" height="281.94"/>
  </clipPath>
 </defs>
</svg>
