<?xml version="1.0" encoding="utf-8" standalone="no"?>
<!DOCTYPE svg PUBLIC "-//W3C//DTD SVG 1.1//EN"
  "http://www.w3.org/Graphics/SVG/1.1/DTD/svg11.dtd">
<svg xmlns:xlink="http://www.w3.org/1999/xlink" width="1080pt" height="720pt" viewBox="0 0 1080 720" xmlns="http://www.w3.org/2000/svg" version="1.1">
 <metadata>
  <rdf:RDF xmlns:dc="http://purl.org/dc/elements/1.1/" xmlns:cc="http://creativecommons.org/ns#" xmlns:rdf="http://www.w3.org/1999/02/22-rdf-syntax-ns#">
   <cc:Work>
    <dc:type rdf:resource="http://purl.org/dc/dcmitype/StillImage"/>
    <dc:date>2025-05-13T17:16:25.676783</dc:date>
    <dc:format>image/svg+xml</dc:format>
    <dc:creator>
     <cc:Agent>
      <dc:title>Matplotlib v3.9.4, https://matplotlib.org/</dc:title>
     </cc:Agent>
    </dc:creator>
   </cc:Work>
  </rdf:RDF>
 </metadata>
 <defs>
  <style type="text/css">*{stroke-linejoin: round; stroke-linecap: butt}</style>
 </defs>
 <g id="figure_1">
  <g id="patch_1">
   <path d="M 0 720 
L 1080 720 
L 1080 0 
L 0 0 
z
" style="fill: #ffffff"/>
  </g>
  <g id="axes_1">
   <g id="patch_2">
    <path d="M 82.01 323.22 
L 353.52 323.22 
L 353.52 42 
L 82.01 42 
z
" style="fill: #ffffff"/>
   </g>
   <g id="PolyCollection_1">
    <path d="M 94.351364 143.046886 
L 94.351364 195.555583 
L 104.635833 187.895055 
L 114.920303 182.191389 
L 125.204773 167.281179 
L 135.489242 164.619245 
L 145.773712 164.148667 
L 156.058182 160.97727 
L 166.342652 161.015478 
L 176.627121 154.45864 
L 186.911591 155.284016 
L 197.196061 150.162973 
L 207.48053 148.332988 
L 217.765 141.339602 
L 228.04947 138.958055 
L 238.333939 134.044412 
L 248.618409 133.062755 
L 258.902879 129.489804 
L 269.187348 127.851327 
L 279.471818 124.745225 
L 289.756288 122.156741 
L 300.040758 123.359872 
L 310.325227 125.245312 
L 320.609697 125.931155 
L 330.894167 128.025553 
L 330.894167 87.904818 
L 330.894167 87.904818 
L 320.609697 89.131252 
L 310.325227 85.130095 
L 300.040758 82.849313 
L 289.756288 86.829926 
L 279.471818 85.630182 
L 269.187348 86.690303 
L 258.902879 92.6899 
L 248.618409 90.505689 
L 238.333939 91.607144 
L 228.04947 97.109056 
L 217.765 100.976842 
L 207.48053 103.010271 
L 197.196061 108.12399 
L 186.911591 109.94665 
L 176.627121 114.938249 
L 166.342652 114.630744 
L 156.058182 114.668952 
L 145.773712 121.21874 
L 135.489242 121.442533 
L 125.204773 122.252451 
L 114.920303 135.811426 
L 104.635833 140.870501 
L 94.351364 143.046886 
z
" clip-path="url(#p695413e736)" style="fill: #095086; fill-opacity: 0.1"/>
   </g>
   <g id="PolyCollection_2">
    <path d="M 94.351364 154.976743 
L 94.351364 205.614122 
L 104.635833 190.345279 
L 114.920303 183.716993 
L 125.204773 159.617192 
L 135.489242 152.447247 
L 145.773712 149.089802 
L 156.058182 144.05712 
L 166.342652 141.542924 
L 176.627121 138.788293 
L 186.911591 141.21859 
L 197.196061 141.746527 
L 207.48053 139.070165 
L 217.765 139.028365 
L 228.04947 134.632548 
L 238.333939 129.679155 
L 248.618409 124.51343 
L 258.902879 126.673567 
L 269.187348 121.984128 
L 279.471818 124.922715 
L 289.756288 121.388763 
L 300.040758 128.262944 
L 310.325227 127.18722 
L 320.609697 129.914754 
L 330.894167 131.186027 
L 330.894167 91.688047 
L 330.894167 91.688047 
L 320.609697 88.619506 
L 310.325227 87.35441 
L 300.040758 86.973056 
L 289.756288 85.514792 
L 279.471818 84.063952 
L 269.187348 85.613798 
L 258.902879 83.00747 
L 248.618409 88.639459 
L 238.333939 91.806178 
L 228.04947 93.102119 
L 217.765 97.733117 
L 207.48053 101.857539 
L 197.196061 97.792435 
L 186.911591 101.097855 
L 176.627121 98.667558 
L 166.342652 98.690409 
L 156.058182 102.425547 
L 145.773712 107.11405 
L 135.489242 109.311568 
L 125.204773 113.251549 
L 114.920303 140.535155 
L 104.635833 149.703795 
L 94.351364 154.976743 
z
" clip-path="url(#p695413e736)" style="fill: #b00000; fill-opacity: 0.1"/>
   </g>
   <g id="matplotlib.axis_1">
    <g id="xtick_1">
     <g id="line2d_1">
      <defs>
       <path id="mb707c1c789" d="M 0 0 
L 0 3.5 
" style="stroke: #000000; stroke-width: 0.8"/>
      </defs>
      <g>
       <use xlink:href="#mb707c1c789" x="94.351364" y="323.22" style="stroke: #000000; stroke-width: 0.8"/>
      </g>
     </g>
     <g id="text_1">
      <!-- 0 -->
      <g transform="translate(88.625114 343.897188) scale(0.18 -0.18)">
       <defs>
        <path id="DejaVuSans-30" d="M 2034 4250 
Q 1547 4250 1301 3770 
Q 1056 3291 1056 2328 
Q 1056 1369 1301 889 
Q 1547 409 2034 409 
Q 2525 409 2770 889 
Q 3016 1369 3016 2328 
Q 3016 3291 2770 3770 
Q 2525 4250 2034 4250 
z
M 2034 4750 
Q 2819 4750 3233 4129 
Q 3647 3509 3647 2328 
Q 3647 1150 3233 529 
Q 2819 -91 2034 -91 
Q 1250 -91 836 529 
Q 422 1150 422 2328 
Q 422 3509 836 4129 
Q 1250 4750 2034 4750 
z
" transform="scale(0.015625)"/>
       </defs>
       <use xlink:href="#DejaVuSans-30"/>
      </g>
     </g>
    </g>
    <g id="xtick_2">
     <g id="line2d_2">
      <g>
       <use xlink:href="#mb707c1c789" x="197.196061" y="323.22" style="stroke: #000000; stroke-width: 0.8"/>
      </g>
     </g>
     <g id="text_2">
      <!-- 10 -->
      <g transform="translate(185.743561 343.897188) scale(0.18 -0.18)">
       <defs>
        <path id="DejaVuSans-31" d="M 794 531 
L 1825 531 
L 1825 4091 
L 703 3866 
L 703 4441 
L 1819 4666 
L 2450 4666 
L 2450 531 
L 3481 531 
L 3481 0 
L 794 0 
L 794 531 
z
" transform="scale(0.015625)"/>
       </defs>
       <use xlink:href="#DejaVuSans-31"/>
       <use xlink:href="#DejaVuSans-30" x="63.623047"/>
      </g>
     </g>
    </g>
    <g id="xtick_3">
     <g id="line2d_3">
      <g>
       <use xlink:href="#mb707c1c789" x="300.040758" y="323.22" style="stroke: #000000; stroke-width: 0.8"/>
      </g>
     </g>
     <g id="text_3">
      <!-- 20 -->
      <g transform="translate(288.588258 343.897188) scale(0.18 -0.18)">
       <defs>
        <path id="DejaVuSans-32" d="M 1228 531 
L 3431 531 
L 3431 0 
L 469 0 
L 469 531 
Q 828 903 1448 1529 
Q 2069 2156 2228 2338 
Q 2531 2678 2651 2914 
Q 2772 3150 2772 3378 
Q 2772 3750 2511 3984 
Q 2250 4219 1831 4219 
Q 1534 4219 1204 4116 
Q 875 4013 500 3803 
L 500 4441 
Q 881 4594 1212 4672 
Q 1544 4750 1819 4750 
Q 2544 4750 2975 4387 
Q 3406 4025 3406 3419 
Q 3406 3131 3298 2873 
Q 3191 2616 2906 2266 
Q 2828 2175 2409 1742 
Q 1991 1309 1228 531 
z
" transform="scale(0.015625)"/>
       </defs>
       <use xlink:href="#DejaVuSans-32"/>
       <use xlink:href="#DejaVuSans-30" x="63.623047"/>
      </g>
     </g>
    </g>
    <g id="text_4">
     <!-- Trial -->
     <g transform="translate(199.379688 365.317813) scale(0.18 -0.18)">
      <defs>
       <path id="DejaVuSans-54" d="M -19 4666 
L 3928 4666 
L 3928 4134 
L 2272 4134 
L 2272 0 
L 1638 0 
L 1638 4134 
L -19 4134 
L -19 4666 
z
" transform="scale(0.015625)"/>
       <path id="DejaVuSans-72" d="M 2631 2963 
Q 2534 3019 2420 3045 
Q 2306 3072 2169 3072 
Q 1681 3072 1420 2755 
Q 1159 2438 1159 1844 
L 1159 0 
L 581 0 
L 581 3500 
L 1159 3500 
L 1159 2956 
Q 1341 3275 1631 3429 
Q 1922 3584 2338 3584 
Q 2397 3584 2469 3576 
Q 2541 3569 2628 3553 
L 2631 2963 
z
" transform="scale(0.015625)"/>
       <path id="DejaVuSans-69" d="M 603 3500 
L 1178 3500 
L 1178 0 
L 603 0 
L 603 3500 
z
M 603 4863 
L 1178 4863 
L 1178 4134 
L 603 4134 
L 603 4863 
z
" transform="scale(0.015625)"/>
       <path id="DejaVuSans-61" d="M 2194 1759 
Q 1497 1759 1228 1600 
Q 959 1441 959 1056 
Q 959 750 1161 570 
Q 1363 391 1709 391 
Q 2188 391 2477 730 
Q 2766 1069 2766 1631 
L 2766 1759 
L 2194 1759 
z
M 3341 1997 
L 3341 0 
L 2766 0 
L 2766 531 
Q 2569 213 2275 61 
Q 1981 -91 1556 -91 
Q 1019 -91 701 211 
Q 384 513 384 1019 
Q 384 1609 779 1909 
Q 1175 2209 1959 2209 
L 2766 2209 
L 2766 2266 
Q 2766 2663 2505 2880 
Q 2244 3097 1772 3097 
Q 1472 3097 1187 3025 
Q 903 2953 641 2809 
L 641 3341 
Q 956 3463 1253 3523 
Q 1550 3584 1831 3584 
Q 2591 3584 2966 3190 
Q 3341 2797 3341 1997 
z
" transform="scale(0.015625)"/>
       <path id="DejaVuSans-6c" d="M 603 4863 
L 1178 4863 
L 1178 0 
L 603 0 
L 603 4863 
z
" transform="scale(0.015625)"/>
      </defs>
      <use xlink:href="#DejaVuSans-54"/>
      <use xlink:href="#DejaVuSans-72" x="46.333984"/>
      <use xlink:href="#DejaVuSans-69" x="87.447266"/>
      <use xlink:href="#DejaVuSans-61" x="115.230469"/>
      <use xlink:href="#DejaVuSans-6c" x="176.509766"/>
     </g>
    </g>
   </g>
   <g id="matplotlib.axis_2">
    <g id="ytick_1">
     <g id="line2d_4">
      <defs>
       <path id="m75a7ce581b" d="M 0 0 
L -3.5 0 
" style="stroke: #000000; stroke-width: 0.8"/>
      </defs>
      <g>
       <use xlink:href="#m75a7ce581b" x="82.01" y="266.976" style="stroke: #000000; stroke-width: 0.8"/>
      </g>
     </g>
     <g id="text_5">
      <!-- 40 -->
      <g transform="translate(52.105 273.814594) scale(0.18 -0.18)">
       <defs>
        <path id="DejaVuSans-34" d="M 2419 4116 
L 825 1625 
L 2419 1625 
L 2419 4116 
z
M 2253 4666 
L 3047 4666 
L 3047 1625 
L 3713 1625 
L 3713 1100 
L 3047 1100 
L 3047 0 
L 2419 0 
L 2419 1100 
L 313 1100 
L 313 1709 
L 2253 4666 
z
" transform="scale(0.015625)"/>
       </defs>
       <use xlink:href="#DejaVuSans-34"/>
       <use xlink:href="#DejaVuSans-30" x="63.623047"/>
      </g>
     </g>
    </g>
    <g id="ytick_2">
     <g id="line2d_5">
      <g>
       <use xlink:href="#m75a7ce581b" x="82.01" y="191.984" style="stroke: #000000; stroke-width: 0.8"/>
      </g>
     </g>
     <g id="text_6">
      <!-- 60 -->
      <g transform="translate(52.105 198.822594) scale(0.18 -0.18)">
       <defs>
        <path id="DejaVuSans-36" d="M 2113 2584 
Q 1688 2584 1439 2293 
Q 1191 2003 1191 1497 
Q 1191 994 1439 701 
Q 1688 409 2113 409 
Q 2538 409 2786 701 
Q 3034 994 3034 1497 
Q 3034 2003 2786 2293 
Q 2538 2584 2113 2584 
z
M 3366 4563 
L 3366 3988 
Q 3128 4100 2886 4159 
Q 2644 4219 2406 4219 
Q 1781 4219 1451 3797 
Q 1122 3375 1075 2522 
Q 1259 2794 1537 2939 
Q 1816 3084 2150 3084 
Q 2853 3084 3261 2657 
Q 3669 2231 3669 1497 
Q 3669 778 3244 343 
Q 2819 -91 2113 -91 
Q 1303 -91 875 529 
Q 447 1150 447 2328 
Q 447 3434 972 4092 
Q 1497 4750 2381 4750 
Q 2619 4750 2861 4703 
Q 3103 4656 3366 4563 
z
" transform="scale(0.015625)"/>
       </defs>
       <use xlink:href="#DejaVuSans-36"/>
       <use xlink:href="#DejaVuSans-30" x="63.623047"/>
      </g>
     </g>
    </g>
    <g id="ytick_3">
     <g id="line2d_6">
      <g>
       <use xlink:href="#m75a7ce581b" x="82.01" y="116.992" style="stroke: #000000; stroke-width: 0.8"/>
      </g>
     </g>
     <g id="text_7">
      <!-- 80 -->
      <g transform="translate(52.105 123.830594) scale(0.18 -0.18)">
       <defs>
        <path id="DejaVuSans-38" d="M 2034 2216 
Q 1584 2216 1326 1975 
Q 1069 1734 1069 1313 
Q 1069 891 1326 650 
Q 1584 409 2034 409 
Q 2484 409 2743 651 
Q 3003 894 3003 1313 
Q 3003 1734 2745 1975 
Q 2488 2216 2034 2216 
z
M 1403 2484 
Q 997 2584 770 2862 
Q 544 3141 544 3541 
Q 544 4100 942 4425 
Q 1341 4750 2034 4750 
Q 2731 4750 3128 4425 
Q 3525 4100 3525 3541 
Q 3525 3141 3298 2862 
Q 3072 2584 2669 2484 
Q 3125 2378 3379 2068 
Q 3634 1759 3634 1313 
Q 3634 634 3220 271 
Q 2806 -91 2034 -91 
Q 1263 -91 848 271 
Q 434 634 434 1313 
Q 434 1759 690 2068 
Q 947 2378 1403 2484 
z
M 1172 3481 
Q 1172 3119 1398 2916 
Q 1625 2713 2034 2713 
Q 2441 2713 2670 2916 
Q 2900 3119 2900 3481 
Q 2900 3844 2670 4047 
Q 2441 4250 2034 4250 
Q 1625 4250 1398 4047 
Q 1172 3844 1172 3481 
z
" transform="scale(0.015625)"/>
       </defs>
       <use xlink:href="#DejaVuSans-38"/>
       <use xlink:href="#DejaVuSans-30" x="63.623047"/>
      </g>
     </g>
    </g>
    <g id="ytick_4">
     <g id="line2d_7">
      <g>
       <use xlink:href="#m75a7ce581b" x="82.01" y="42" style="stroke: #000000; stroke-width: 0.8"/>
      </g>
     </g>
     <g id="text_8">
      <!-- 100 -->
      <g transform="translate(40.6525 48.838594) scale(0.18 -0.18)">
       <use xlink:href="#DejaVuSans-31"/>
       <use xlink:href="#DejaVuSans-30" x="63.623047"/>
       <use xlink:href="#DejaVuSans-30" x="127.246094"/>
      </g>
     </g>
    </g>
    <g id="text_9">
     <!-- Accuracy (%) -->
     <g transform="translate(32.909063 242.135156) rotate(-90) scale(0.18 -0.18)">
      <defs>
       <path id="DejaVuSans-41" d="M 2188 4044 
L 1331 1722 
L 3047 1722 
L 2188 4044 
z
M 1831 4666 
L 2547 4666 
L 4325 0 
L 3669 0 
L 3244 1197 
L 1141 1197 
L 716 0 
L 50 0 
L 1831 4666 
z
" transform="scale(0.015625)"/>
       <path id="DejaVuSans-63" d="M 3122 3366 
L 3122 2828 
Q 2878 2963 2633 3030 
Q 2388 3097 2138 3097 
Q 1578 3097 1268 2742 
Q 959 2388 959 1747 
Q 959 1106 1268 751 
Q 1578 397 2138 397 
Q 2388 397 2633 464 
Q 2878 531 3122 666 
L 3122 134 
Q 2881 22 2623 -34 
Q 2366 -91 2075 -91 
Q 1284 -91 818 406 
Q 353 903 353 1747 
Q 353 2603 823 3093 
Q 1294 3584 2113 3584 
Q 2378 3584 2631 3529 
Q 2884 3475 3122 3366 
z
" transform="scale(0.015625)"/>
       <path id="DejaVuSans-75" d="M 544 1381 
L 544 3500 
L 1119 3500 
L 1119 1403 
Q 1119 906 1312 657 
Q 1506 409 1894 409 
Q 2359 409 2629 706 
Q 2900 1003 2900 1516 
L 2900 3500 
L 3475 3500 
L 3475 0 
L 2900 0 
L 2900 538 
Q 2691 219 2414 64 
Q 2138 -91 1772 -91 
Q 1169 -91 856 284 
Q 544 659 544 1381 
z
M 1991 3584 
L 1991 3584 
z
" transform="scale(0.015625)"/>
       <path id="DejaVuSans-79" d="M 2059 -325 
Q 1816 -950 1584 -1140 
Q 1353 -1331 966 -1331 
L 506 -1331 
L 506 -850 
L 844 -850 
Q 1081 -850 1212 -737 
Q 1344 -625 1503 -206 
L 1606 56 
L 191 3500 
L 800 3500 
L 1894 763 
L 2988 3500 
L 3597 3500 
L 2059 -325 
z
" transform="scale(0.015625)"/>
       <path id="DejaVuSans-20" transform="scale(0.015625)"/>
       <path id="DejaVuSans-28" d="M 1984 4856 
Q 1566 4138 1362 3434 
Q 1159 2731 1159 2009 
Q 1159 1288 1364 580 
Q 1569 -128 1984 -844 
L 1484 -844 
Q 1016 -109 783 600 
Q 550 1309 550 2009 
Q 550 2706 781 3412 
Q 1013 4119 1484 4856 
L 1984 4856 
z
" transform="scale(0.015625)"/>
       <path id="DejaVuSans-25" d="M 4653 2053 
Q 4381 2053 4226 1822 
Q 4072 1591 4072 1178 
Q 4072 772 4226 539 
Q 4381 306 4653 306 
Q 4919 306 5073 539 
Q 5228 772 5228 1178 
Q 5228 1588 5073 1820 
Q 4919 2053 4653 2053 
z
M 4653 2450 
Q 5147 2450 5437 2106 
Q 5728 1763 5728 1178 
Q 5728 594 5436 251 
Q 5144 -91 4653 -91 
Q 4153 -91 3862 251 
Q 3572 594 3572 1178 
Q 3572 1766 3864 2108 
Q 4156 2450 4653 2450 
z
M 1428 4353 
Q 1159 4353 1004 4120 
Q 850 3888 850 3481 
Q 850 3069 1003 2837 
Q 1156 2606 1428 2606 
Q 1700 2606 1854 2837 
Q 2009 3069 2009 3481 
Q 2009 3884 1853 4118 
Q 1697 4353 1428 4353 
z
M 4250 4750 
L 4750 4750 
L 1831 -91 
L 1331 -91 
L 4250 4750 
z
M 1428 4750 
Q 1922 4750 2215 4408 
Q 2509 4066 2509 3481 
Q 2509 2891 2217 2550 
Q 1925 2209 1428 2209 
Q 931 2209 642 2551 
Q 353 2894 353 3481 
Q 353 4063 643 4406 
Q 934 4750 1428 4750 
z
" transform="scale(0.015625)"/>
       <path id="DejaVuSans-29" d="M 513 4856 
L 1013 4856 
Q 1481 4119 1714 3412 
Q 1947 2706 1947 2009 
Q 1947 1309 1714 600 
Q 1481 -109 1013 -844 
L 513 -844 
Q 928 -128 1133 580 
Q 1338 1288 1338 2009 
Q 1338 2731 1133 3434 
Q 928 4138 513 4856 
z
" transform="scale(0.015625)"/>
      </defs>
      <use xlink:href="#DejaVuSans-41"/>
      <use xlink:href="#DejaVuSans-63" x="66.658203"/>
      <use xlink:href="#DejaVuSans-63" x="121.638672"/>
      <use xlink:href="#DejaVuSans-75" x="176.619141"/>
      <use xlink:href="#DejaVuSans-72" x="239.998047"/>
      <use xlink:href="#DejaVuSans-61" x="281.111328"/>
      <use xlink:href="#DejaVuSans-63" x="342.390625"/>
      <use xlink:href="#DejaVuSans-79" x="397.371094"/>
      <use xlink:href="#DejaVuSans-20" x="456.550781"/>
      <use xlink:href="#DejaVuSans-28" x="488.337891"/>
      <use xlink:href="#DejaVuSans-25" x="527.351562"/>
      <use xlink:href="#DejaVuSans-29" x="622.371094"/>
     </g>
    </g>
   </g>
   <g id="line2d_8">
    <path d="M 94.351364 169.301235 
L 104.635833 164.382778 
L 114.920303 159.001407 
L 125.204773 144.766815 
L 135.489242 143.030889 
L 145.773712 142.683704 
L 156.058182 137.823111 
L 166.342652 137.823111 
L 176.627121 134.698444 
L 186.911591 132.615333 
L 197.196061 129.143481 
L 207.48053 125.67163 
L 217.765 121.158222 
L 228.04947 118.033556 
L 238.333939 112.825778 
L 248.618409 111.784222 
L 258.902879 111.089852 
L 269.187348 107.270815 
L 279.471818 105.187704 
L 289.756288 104.493333 
L 300.040758 103.104593 
L 310.325227 105.187704 
L 320.609697 107.531204 
L 330.894167 107.965185 
" clip-path="url(#p695413e736)" style="fill: none; stroke: #095086; stroke-opacity: 0.75; stroke-width: 3; stroke-linecap: square"/>
   </g>
   <g id="line2d_9">
    <path d="M 104.635833 187.239136 
L 114.920303 175.232315 
L 125.204773 165.945111 
L 135.489242 140.600593 
L 145.773712 125.324444 
L 156.058182 114.908889 
L 166.342652 108.659556 
L 176.627121 104.146148 
L 186.911591 101.021481 
L 197.196061 98.93837 
L 207.48053 97.202444 
L 217.765 94.772148 
L 228.04947 93.036222 
L 238.333939 90.605926 
L 248.618409 88.17563 
L 258.902879 89.911556 
L 269.187348 89.217185 
L 279.471818 88.522815 
L 289.756288 87.481259 
L 300.040758 87.828444 
L 310.325227 83.315037 
L 320.609697 79.843185 
L 330.894167 76.284537 
L 341.178636 77.29716 
" clip-path="url(#p695413e736)" style="fill: none; stroke-dasharray: 7.4,3.2; stroke-dashoffset: 0; stroke: #095086; stroke-opacity: 0.75; stroke-width: 2"/>
   </g>
   <g id="line2d_10">
    <path d="M 94.351364 180.295432 
L 104.635833 170.024537 
L 114.920303 162.126074 
L 125.204773 136.43437 
L 135.489242 130.879407 
L 145.773712 128.101926 
L 156.058182 123.241333 
L 166.342652 120.116667 
L 176.627121 118.727926 
L 186.911591 121.158222 
L 197.196061 119.769481 
L 207.48053 120.463852 
L 217.765 118.380741 
L 228.04947 113.867333 
L 238.333939 110.742667 
L 248.618409 106.576444 
L 258.902879 104.840519 
L 269.187348 103.798963 
L 279.471818 104.493333 
L 289.756288 103.451778 
L 300.040758 107.618 
L 310.325227 107.270815 
L 320.609697 109.26713 
L 330.894167 111.437037 
" clip-path="url(#p695413e736)" style="fill: none; stroke: #b00000; stroke-opacity: 0.75; stroke-width: 3; stroke-linecap: square"/>
   </g>
   <g id="line2d_11">
    <path d="M 104.635833 183.188642 
L 114.920303 170.024537 
L 125.204773 162.820444 
L 135.489242 140.947778 
L 145.773712 128.796296 
L 156.058182 123.241333 
L 166.342652 119.422296 
L 176.627121 115.603259 
L 186.911591 114.908889 
L 197.196061 115.256074 
L 207.48053 113.172963 
L 217.765 112.478593 
L 228.04947 107.965185 
L 238.333939 105.534889 
L 248.618409 102.757407 
L 258.902879 97.202444 
L 269.187348 89.217185 
L 279.471818 84.009407 
L 289.756288 77.065704 
L 300.040758 73.593852 
L 310.325227 69.774815 
L 320.609697 70.122 
L 330.894167 71.076759 
L 341.178636 71.510741 
" clip-path="url(#p695413e736)" style="fill: none; stroke-dasharray: 7.4,3.2; stroke-dashoffset: 0; stroke: #b00000; stroke-opacity: 0.75; stroke-width: 2"/>
   </g>
   <g id="patch_3">
    <path d="M 82.01 323.22 
L 82.01 42 
" style="fill: none; stroke: #000000; stroke-width: 0.8; stroke-linejoin: miter; stroke-linecap: square"/>
   </g>
   <g id="patch_4">
    <path d="M 82.01 323.22 
L 353.52 323.22 
" style="fill: none; stroke: #000000; stroke-width: 0.8; stroke-linejoin: miter; stroke-linecap: square"/>
   </g>
   <g id="text_10">
    <!-- No Pain -->
    <g transform="translate(177.155313 36) scale(0.216 -0.216)">
     <defs>
      <path id="DejaVuSans-4e" d="M 628 4666 
L 1478 4666 
L 3547 763 
L 3547 4666 
L 4159 4666 
L 4159 0 
L 3309 0 
L 1241 3903 
L 1241 0 
L 628 0 
L 628 4666 
z
" transform="scale(0.015625)"/>
      <path id="DejaVuSans-6f" d="M 1959 3097 
Q 1497 3097 1228 2736 
Q 959 2375 959 1747 
Q 959 1119 1226 758 
Q 1494 397 1959 397 
Q 2419 397 2687 759 
Q 2956 1122 2956 1747 
Q 2956 2369 2687 2733 
Q 2419 3097 1959 3097 
z
M 1959 3584 
Q 2709 3584 3137 3096 
Q 3566 2609 3566 1747 
Q 3566 888 3137 398 
Q 2709 -91 1959 -91 
Q 1206 -91 779 398 
Q 353 888 353 1747 
Q 353 2609 779 3096 
Q 1206 3584 1959 3584 
z
" transform="scale(0.015625)"/>
      <path id="DejaVuSans-50" d="M 1259 4147 
L 1259 2394 
L 2053 2394 
Q 2494 2394 2734 2622 
Q 2975 2850 2975 3272 
Q 2975 3691 2734 3919 
Q 2494 4147 2053 4147 
L 1259 4147 
z
M 628 4666 
L 2053 4666 
Q 2838 4666 3239 4311 
Q 3641 3956 3641 3272 
Q 3641 2581 3239 2228 
Q 2838 1875 2053 1875 
L 1259 1875 
L 1259 0 
L 628 0 
L 628 4666 
z
" transform="scale(0.015625)"/>
      <path id="DejaVuSans-6e" d="M 3513 2113 
L 3513 0 
L 2938 0 
L 2938 2094 
Q 2938 2591 2744 2837 
Q 2550 3084 2163 3084 
Q 1697 3084 1428 2787 
Q 1159 2491 1159 1978 
L 1159 0 
L 581 0 
L 581 3500 
L 1159 3500 
L 1159 2956 
Q 1366 3272 1645 3428 
Q 1925 3584 2291 3584 
Q 2894 3584 3203 3211 
Q 3513 2838 3513 2113 
z
" transform="scale(0.015625)"/>
     </defs>
     <use xlink:href="#DejaVuSans-4e"/>
     <use xlink:href="#DejaVuSans-6f" x="74.804688"/>
     <use xlink:href="#DejaVuSans-20" x="135.986328"/>
     <use xlink:href="#DejaVuSans-50" x="167.773438"/>
     <use xlink:href="#DejaVuSans-61" x="223.576172"/>
     <use xlink:href="#DejaVuSans-69" x="284.855469"/>
     <use xlink:href="#DejaVuSans-6e" x="312.638672"/>
    </g>
   </g>
   <g id="legend_1">
    <g id="line2d_12">
     <path d="M 219.884062 270.555938 
L 237.884062 270.555938 
L 255.884062 270.555938 
" style="fill: none; stroke: #095086; stroke-opacity: 0.75; stroke-width: 3; stroke-linecap: square"/>
    </g>
    <g id="text_11">
     <!-- Reward -->
     <g transform="translate(270.284062 276.855938) scale(0.18 -0.18)">
      <defs>
       <path id="DejaVuSans-52" d="M 2841 2188 
Q 3044 2119 3236 1894 
Q 3428 1669 3622 1275 
L 4263 0 
L 3584 0 
L 2988 1197 
Q 2756 1666 2539 1819 
Q 2322 1972 1947 1972 
L 1259 1972 
L 1259 0 
L 628 0 
L 628 4666 
L 2053 4666 
Q 2853 4666 3247 4331 
Q 3641 3997 3641 3322 
Q 3641 2881 3436 2590 
Q 3231 2300 2841 2188 
z
M 1259 4147 
L 1259 2491 
L 2053 2491 
Q 2509 2491 2742 2702 
Q 2975 2913 2975 3322 
Q 2975 3731 2742 3939 
Q 2509 4147 2053 4147 
L 1259 4147 
z
" transform="scale(0.015625)"/>
       <path id="DejaVuSans-65" d="M 3597 1894 
L 3597 1613 
L 953 1613 
Q 991 1019 1311 708 
Q 1631 397 2203 397 
Q 2534 397 2845 478 
Q 3156 559 3463 722 
L 3463 178 
Q 3153 47 2828 -22 
Q 2503 -91 2169 -91 
Q 1331 -91 842 396 
Q 353 884 353 1716 
Q 353 2575 817 3079 
Q 1281 3584 2069 3584 
Q 2775 3584 3186 3129 
Q 3597 2675 3597 1894 
z
M 3022 2063 
Q 3016 2534 2758 2815 
Q 2500 3097 2075 3097 
Q 1594 3097 1305 2825 
Q 1016 2553 972 2059 
L 3022 2063 
z
" transform="scale(0.015625)"/>
       <path id="DejaVuSans-77" d="M 269 3500 
L 844 3500 
L 1563 769 
L 2278 3500 
L 2956 3500 
L 3675 769 
L 4391 3500 
L 4966 3500 
L 4050 0 
L 3372 0 
L 2619 2869 
L 1863 0 
L 1184 0 
L 269 3500 
z
" transform="scale(0.015625)"/>
       <path id="DejaVuSans-64" d="M 2906 2969 
L 2906 4863 
L 3481 4863 
L 3481 0 
L 2906 0 
L 2906 525 
Q 2725 213 2448 61 
Q 2172 -91 1784 -91 
Q 1150 -91 751 415 
Q 353 922 353 1747 
Q 353 2572 751 3078 
Q 1150 3584 1784 3584 
Q 2172 3584 2448 3432 
Q 2725 3281 2906 2969 
z
M 947 1747 
Q 947 1113 1208 752 
Q 1469 391 1925 391 
Q 2381 391 2643 752 
Q 2906 1113 2906 1747 
Q 2906 2381 2643 2742 
Q 2381 3103 1925 3103 
Q 1469 3103 1208 2742 
Q 947 2381 947 1747 
z
" transform="scale(0.015625)"/>
      </defs>
      <use xlink:href="#DejaVuSans-52"/>
      <use xlink:href="#DejaVuSans-65" x="64.982422"/>
      <use xlink:href="#DejaVuSans-77" x="126.505859"/>
      <use xlink:href="#DejaVuSans-61" x="208.292969"/>
      <use xlink:href="#DejaVuSans-72" x="269.572266"/>
      <use xlink:href="#DejaVuSans-64" x="308.935547"/>
     </g>
    </g>
    <g id="line2d_13">
     <path d="M 219.884062 296.976563 
L 237.884062 296.976563 
L 255.884062 296.976563 
" style="fill: none; stroke: #b00000; stroke-opacity: 0.75; stroke-width: 3; stroke-linecap: square"/>
    </g>
    <g id="text_12">
     <!-- Punish -->
     <g transform="translate(270.284062 303.276563) scale(0.18 -0.18)">
      <defs>
       <path id="DejaVuSans-73" d="M 2834 3397 
L 2834 2853 
Q 2591 2978 2328 3040 
Q 2066 3103 1784 3103 
Q 1356 3103 1142 2972 
Q 928 2841 928 2578 
Q 928 2378 1081 2264 
Q 1234 2150 1697 2047 
L 1894 2003 
Q 2506 1872 2764 1633 
Q 3022 1394 3022 966 
Q 3022 478 2636 193 
Q 2250 -91 1575 -91 
Q 1294 -91 989 -36 
Q 684 19 347 128 
L 347 722 
Q 666 556 975 473 
Q 1284 391 1588 391 
Q 1994 391 2212 530 
Q 2431 669 2431 922 
Q 2431 1156 2273 1281 
Q 2116 1406 1581 1522 
L 1381 1569 
Q 847 1681 609 1914 
Q 372 2147 372 2553 
Q 372 3047 722 3315 
Q 1072 3584 1716 3584 
Q 2034 3584 2315 3537 
Q 2597 3491 2834 3397 
z
" transform="scale(0.015625)"/>
       <path id="DejaVuSans-68" d="M 3513 2113 
L 3513 0 
L 2938 0 
L 2938 2094 
Q 2938 2591 2744 2837 
Q 2550 3084 2163 3084 
Q 1697 3084 1428 2787 
Q 1159 2491 1159 1978 
L 1159 0 
L 581 0 
L 581 4863 
L 1159 4863 
L 1159 2956 
Q 1366 3272 1645 3428 
Q 1925 3584 2291 3584 
Q 2894 3584 3203 3211 
Q 3513 2838 3513 2113 
z
" transform="scale(0.015625)"/>
      </defs>
      <use xlink:href="#DejaVuSans-50"/>
      <use xlink:href="#DejaVuSans-75" x="58.552734"/>
      <use xlink:href="#DejaVuSans-6e" x="121.931641"/>
      <use xlink:href="#DejaVuSans-69" x="185.310547"/>
      <use xlink:href="#DejaVuSans-73" x="213.09375"/>
      <use xlink:href="#DejaVuSans-68" x="265.193359"/>
     </g>
    </g>
   </g>
  </g>
  <g id="axes_2">
   <g id="patch_5">
    <path d="M 435.53 323.22 
L 707.04 323.22 
L 707.04 42 
L 435.53 42 
z
" style="fill: #ffffff"/>
   </g>
   <g id="PolyCollection_3">
    <path d="M 447.871364 136.368451 
L 447.871364 204.679599 
L 458.155833 201.675943 
L 468.440303 199.829106 
L 478.724773 189.025322 
L 489.009242 181.296994 
L 499.293712 171.246833 
L 509.578182 165.41058 
L 519.862652 164.515906 
L 530.147121 164.60878 
L 540.431591 169.908658 
L 550.716061 160.900647 
L 561.00053 161.164021 
L 571.285 150.442816 
L 581.56947 148.429531 
L 591.853939 141.107125 
L 602.138409 149.782771 
L 612.422879 145.400323 
L 622.707348 146.751213 
L 632.991818 150.551946 
L 643.276288 144.847566 
L 653.560758 145.653482 
L 663.845227 131.972954 
L 674.129697 137.684586 
L 684.414167 132.048552 
L 684.414167 79.296354 
L 684.414167 79.296354 
L 674.129697 75.428999 
L 663.845227 80.786895 
L 653.560758 81.255801 
L 643.276288 87.721491 
L 632.991818 87.676884 
L 622.707348 87.232787 
L 612.422879 91.413564 
L 602.138409 87.031115 
L 591.853939 82.972272 
L 581.56947 85.554469 
L 571.285 97.690618 
L 561.00053 98.28896 
L 550.716061 101.382221 
L 540.431591 100.863871 
L 530.147121 101.918918 
L 519.862652 102.011792 
L 509.578182 99.702174 
L 499.293712 105.185469 
L 489.009242 109.284742 
L 478.724773 117.120792 
L 468.440303 128.956102 
L 458.155833 140.551227 
L 447.871364 136.368451 
z
" clip-path="url(#p11d1da0c90)" style="fill: #095086; fill-opacity: 0.1"/>
   </g>
   <g id="PolyCollection_4">
    <path d="M 447.871364 157.214 
L 447.871364 235.715309 
L 458.155833 222.686273 
L 468.440303 213.51062 
L 478.724773 196.291747 
L 489.009242 186.831799 
L 499.293712 172.895089 
L 509.578182 170.669045 
L 519.862652 157.80487 
L 530.147121 148.937681 
L 540.431591 146.197986 
L 550.716061 149.044403 
L 561.00053 148.951529 
L 571.285 147.629459 
L 581.56947 141.187113 
L 591.853939 129.143067 
L 602.138409 124.603885 
L 612.422879 121.692383 
L 622.707348 124.973835 
L 632.991818 130.65089 
L 643.276288 141.814596 
L 653.560758 154.091033 
L 663.845227 165.691883 
L 674.129697 167.084931 
L 684.414167 172.868252 
L 684.414167 106.865584 
L 684.414167 106.865584 
L 674.129697 104.395069 
L 663.845227 96.590985 
L 653.560758 88.382627 
L 643.276288 83.679743 
L 632.991818 76.449186 
L 622.707348 72.221637 
L 612.422879 68.428371 
L 602.138409 72.591586 
L 591.853939 77.957009 
L 581.56947 80.062397 
L 571.285 84.939597 
L 561.00053 86.447415 
L 550.716061 86.354541 
L 540.431591 93.445788 
L 530.147121 94.950922 
L 519.862652 91.743507 
L 509.578182 95.858653 
L 499.293712 113.441817 
L 489.009242 117.899371 
L 478.724773 125.418744 
L 468.440303 143.573456 
L 458.155833 151.377124 
L 447.871364 157.214 
z
" clip-path="url(#p11d1da0c90)" style="fill: #b00000; fill-opacity: 0.1"/>
   </g>
   <g id="matplotlib.axis_3">
    <g id="xtick_4">
     <g id="line2d_14">
      <g>
       <use xlink:href="#mb707c1c789" x="447.871364" y="323.22" style="stroke: #000000; stroke-width: 0.8"/>
      </g>
     </g>
     <g id="text_13">
      <!-- 0 -->
      <g transform="translate(442.145114 343.897188) scale(0.18 -0.18)">
       <use xlink:href="#DejaVuSans-30"/>
      </g>
     </g>
    </g>
    <g id="xtick_5">
     <g id="line2d_15">
      <g>
       <use xlink:href="#mb707c1c789" x="550.716061" y="323.22" style="stroke: #000000; stroke-width: 0.8"/>
      </g>
     </g>
     <g id="text_14">
      <!-- 10 -->
      <g transform="translate(539.263561 343.897188) scale(0.18 -0.18)">
       <use xlink:href="#DejaVuSans-31"/>
       <use xlink:href="#DejaVuSans-30" x="63.623047"/>
      </g>
     </g>
    </g>
    <g id="xtick_6">
     <g id="line2d_16">
      <g>
       <use xlink:href="#mb707c1c789" x="653.560758" y="323.22" style="stroke: #000000; stroke-width: 0.8"/>
      </g>
     </g>
     <g id="text_15">
      <!-- 20 -->
      <g transform="translate(642.108258 343.897188) scale(0.18 -0.18)">
       <use xlink:href="#DejaVuSans-32"/>
       <use xlink:href="#DejaVuSans-30" x="63.623047"/>
      </g>
     </g>
    </g>
    <g id="text_16">
     <!-- Trial -->
     <g transform="translate(552.899688 365.317813) scale(0.18 -0.18)">
      <use xlink:href="#DejaVuSans-54"/>
      <use xlink:href="#DejaVuSans-72" x="46.333984"/>
      <use xlink:href="#DejaVuSans-69" x="87.447266"/>
      <use xlink:href="#DejaVuSans-61" x="115.230469"/>
      <use xlink:href="#DejaVuSans-6c" x="176.509766"/>
     </g>
    </g>
   </g>
   <g id="matplotlib.axis_4">
    <g id="ytick_5">
     <g id="line2d_17">
      <g>
       <use xlink:href="#m75a7ce581b" x="435.53" y="266.976" style="stroke: #000000; stroke-width: 0.8"/>
      </g>
     </g>
     <g id="text_17">
      <!-- 40 -->
      <g transform="translate(405.625 273.814594) scale(0.18 -0.18)">
       <use xlink:href="#DejaVuSans-34"/>
       <use xlink:href="#DejaVuSans-30" x="63.623047"/>
      </g>
     </g>
    </g>
    <g id="ytick_6">
     <g id="line2d_18">
      <g>
       <use xlink:href="#m75a7ce581b" x="435.53" y="191.984" style="stroke: #000000; stroke-width: 0.8"/>
      </g>
     </g>
     <g id="text_18">
      <!-- 60 -->
      <g transform="translate(405.625 198.822594) scale(0.18 -0.18)">
       <use xlink:href="#DejaVuSans-36"/>
       <use xlink:href="#DejaVuSans-30" x="63.623047"/>
      </g>
     </g>
    </g>
    <g id="ytick_7">
     <g id="line2d_19">
      <g>
       <use xlink:href="#m75a7ce581b" x="435.53" y="116.992" style="stroke: #000000; stroke-width: 0.8"/>
      </g>
     </g>
     <g id="text_19">
      <!-- 80 -->
      <g transform="translate(405.625 123.830594) scale(0.18 -0.18)">
       <use xlink:href="#DejaVuSans-38"/>
       <use xlink:href="#DejaVuSans-30" x="63.623047"/>
      </g>
     </g>
    </g>
    <g id="ytick_8">
     <g id="line2d_20">
      <g>
       <use xlink:href="#m75a7ce581b" x="435.53" y="42" style="stroke: #000000; stroke-width: 0.8"/>
      </g>
     </g>
     <g id="text_20">
      <!-- 100 -->
      <g transform="translate(394.1725 48.838594) scale(0.18 -0.18)">
       <use xlink:href="#DejaVuSans-31"/>
       <use xlink:href="#DejaVuSans-30" x="63.623047"/>
       <use xlink:href="#DejaVuSans-30" x="127.246094"/>
      </g>
     </g>
    </g>
    <g id="text_21">
     <!-- Accuracy (%) -->
     <g transform="translate(386.429063 242.135156) rotate(-90) scale(0.18 -0.18)">
      <use xlink:href="#DejaVuSans-41"/>
      <use xlink:href="#DejaVuSans-63" x="66.658203"/>
      <use xlink:href="#DejaVuSans-63" x="121.638672"/>
      <use xlink:href="#DejaVuSans-75" x="176.619141"/>
      <use xlink:href="#DejaVuSans-72" x="239.998047"/>
      <use xlink:href="#DejaVuSans-61" x="281.111328"/>
      <use xlink:href="#DejaVuSans-63" x="342.390625"/>
      <use xlink:href="#DejaVuSans-79" x="397.371094"/>
      <use xlink:href="#DejaVuSans-20" x="456.550781"/>
      <use xlink:href="#DejaVuSans-28" x="488.337891"/>
      <use xlink:href="#DejaVuSans-25" x="527.351562"/>
      <use xlink:href="#DejaVuSans-29" x="622.371094"/>
     </g>
    </g>
   </g>
   <g id="line2d_21">
    <path d="M 447.871364 170.524025 
L 458.155833 171.113585 
L 468.440303 164.392604 
L 478.724773 153.073057 
L 489.009242 145.290868 
L 499.293712 138.216151 
L 509.578182 132.556377 
L 519.862652 133.263849 
L 530.147121 133.263849 
L 540.431591 135.386264 
L 550.716061 131.141434 
L 561.00053 129.726491 
L 571.285 124.066717 
L 581.56947 116.992 
L 591.853939 112.039698 
L 602.138409 118.406943 
L 612.422879 118.406943 
L 622.707348 116.992 
L 632.991818 119.114415 
L 643.276288 116.284528 
L 653.560758 113.454642 
L 663.845227 106.379925 
L 674.129697 106.556792 
L 684.414167 105.672453 
" clip-path="url(#p11d1da0c90)" style="fill: none; stroke: #095086; stroke-opacity: 0.75; stroke-width: 3; stroke-linecap: square"/>
   </g>
   <g id="line2d_22">
    <path d="M 458.155833 190.569057 
L 468.440303 178.188302 
L 478.724773 167.222491 
L 489.009242 148.828226 
L 499.293712 134.678792 
L 509.578182 124.774189 
L 519.862652 116.284528 
L 530.147121 109.917283 
L 540.431591 102.135094 
L 550.716061 99.305208 
L 561.00053 94.352906 
L 571.285 93.645434 
L 581.56947 93.645434 
L 591.853939 99.305208 
L 602.138409 93.645434 
L 612.422879 90.108075 
L 622.707348 85.863245 
L 632.991818 85.155774 
L 643.276288 75.25117 
L 653.560758 76.666113 
L 663.845227 78.788528 
L 674.129697 78.788528 
L 684.414167 76.489245 
L 694.698636 82.090063 
" clip-path="url(#p11d1da0c90)" style="fill: none; stroke-dasharray: 7.4,3.2; stroke-dashoffset: 0; stroke: #095086; stroke-opacity: 0.75; stroke-width: 2"/>
   </g>
   <g id="line2d_23">
    <path d="M 447.871364 196.464654 
L 458.155833 187.031698 
L 468.440303 178.542038 
L 478.724773 160.855245 
L 489.009242 152.365585 
L 499.293712 143.168453 
L 509.578182 133.263849 
L 519.862652 124.774189 
L 530.147121 121.944302 
L 540.431591 119.821887 
L 550.716061 117.699472 
L 561.00053 117.699472 
L 571.285 116.284528 
L 581.56947 110.624755 
L 591.853939 103.550038 
L 602.138409 98.597736 
L 612.422879 95.060377 
L 622.707348 98.597736 
L 632.991818 103.550038 
L 643.276288 112.74717 
L 653.560758 121.23683 
L 663.845227 131.141434 
L 674.129697 135.74 
L 684.414167 139.866918 
" clip-path="url(#p11d1da0c90)" style="fill: none; stroke: #b00000; stroke-opacity: 0.75; stroke-width: 3; stroke-linecap: square"/>
   </g>
   <g id="line2d_24">
    <path d="M 458.155833 192.927296 
L 468.440303 189.684717 
L 478.724773 178.542038 
L 489.009242 162.270189 
L 499.293712 149.535698 
L 509.578182 133.263849 
L 519.862652 117.699472 
L 530.147121 110.624755 
L 540.431591 107.794868 
L 550.716061 104.257509 
L 561.00053 102.842566 
L 571.285 104.257509 
L 581.56947 102.135094 
L 591.853939 98.597736 
L 602.138409 95.060377 
L 612.422879 92.937962 
L 622.707348 90.108075 
L 632.991818 88.693132 
L 643.276288 87.98566 
L 653.560758 88.693132 
L 663.845227 85.155774 
L 674.129697 80.910943 
L 684.414167 80.910943 
L 694.698636 77.373585 
" clip-path="url(#p11d1da0c90)" style="fill: none; stroke-dasharray: 7.4,3.2; stroke-dashoffset: 0; stroke: #b00000; stroke-opacity: 0.75; stroke-width: 2"/>
   </g>
   <g id="patch_6">
    <path d="M 435.53 323.22 
L 435.53 42 
" style="fill: none; stroke: #000000; stroke-width: 0.8; stroke-linejoin: miter; stroke-linecap: square"/>
   </g>
   <g id="patch_7">
    <path d="M 435.53 323.22 
L 707.04 323.22 
" style="fill: none; stroke: #000000; stroke-width: 0.8; stroke-linejoin: miter; stroke-linecap: square"/>
   </g>
   <g id="text_22">
    <!-- Acute Pain -->
    <g transform="translate(514.502313 36) scale(0.216 -0.216)">
     <defs>
      <path id="DejaVuSans-74" d="M 1172 4494 
L 1172 3500 
L 2356 3500 
L 2356 3053 
L 1172 3053 
L 1172 1153 
Q 1172 725 1289 603 
Q 1406 481 1766 481 
L 2356 481 
L 2356 0 
L 1766 0 
Q 1100 0 847 248 
Q 594 497 594 1153 
L 594 3053 
L 172 3053 
L 172 3500 
L 594 3500 
L 594 4494 
L 1172 4494 
z
" transform="scale(0.015625)"/>
     </defs>
     <use xlink:href="#DejaVuSans-41"/>
     <use xlink:href="#DejaVuSans-63" x="66.658203"/>
     <use xlink:href="#DejaVuSans-75" x="121.638672"/>
     <use xlink:href="#DejaVuSans-74" x="185.017578"/>
     <use xlink:href="#DejaVuSans-65" x="224.226562"/>
     <use xlink:href="#DejaVuSans-20" x="285.75"/>
     <use xlink:href="#DejaVuSans-50" x="317.537109"/>
     <use xlink:href="#DejaVuSans-61" x="373.339844"/>
     <use xlink:href="#DejaVuSans-69" x="434.619141"/>
     <use xlink:href="#DejaVuSans-6e" x="462.402344"/>
    </g>
   </g>
   <g id="legend_2">
    <g id="line2d_25">
     <path d="M 573.404063 270.555938 
L 591.404063 270.555938 
L 609.404063 270.555938 
" style="fill: none; stroke: #095086; stroke-opacity: 0.75; stroke-width: 3; stroke-linecap: square"/>
    </g>
    <g id="text_23">
     <!-- Reward -->
     <g transform="translate(623.804062 276.855938) scale(0.18 -0.18)">
      <use xlink:href="#DejaVuSans-52"/>
      <use xlink:href="#DejaVuSans-65" x="64.982422"/>
      <use xlink:href="#DejaVuSans-77" x="126.505859"/>
      <use xlink:href="#DejaVuSans-61" x="208.292969"/>
      <use xlink:href="#DejaVuSans-72" x="269.572266"/>
      <use xlink:href="#DejaVuSans-64" x="308.935547"/>
     </g>
    </g>
    <g id="line2d_26">
     <path d="M 573.404063 296.976563 
L 591.404063 296.976563 
L 609.404063 296.976563 
" style="fill: none; stroke: #b00000; stroke-opacity: 0.75; stroke-width: 3; stroke-linecap: square"/>
    </g>
    <g id="text_24">
     <!-- Punish -->
     <g transform="translate(623.804062 303.276563) scale(0.18 -0.18)">
      <use xlink:href="#DejaVuSans-50"/>
      <use xlink:href="#DejaVuSans-75" x="58.552734"/>
      <use xlink:href="#DejaVuSans-6e" x="121.931641"/>
      <use xlink:href="#DejaVuSans-69" x="185.310547"/>
      <use xlink:href="#DejaVuSans-73" x="213.09375"/>
      <use xlink:href="#DejaVuSans-68" x="265.193359"/>
     </g>
    </g>
   </g>
  </g>
  <g id="axes_3">
   <g id="patch_8">
    <path d="M 789.05 323.22 
L 1060.56 323.22 
L 1060.56 42 
L 789.05 42 
z
" style="fill: #ffffff"/>
   </g>
   <g id="PolyCollection_5">
    <path d="M 801.391364 155.965776 
L 801.391364 221.272173 
L 811.675833 206.671587 
L 821.960303 199.065042 
L 832.244773 176.518139 
L 842.529242 166.688181 
L 852.813712 159.411091 
L 863.098182 151.25907 
L 873.382652 149.731889 
L 883.667121 145.470665 
L 893.951591 141.963082 
L 904.236061 138.894019 
L 914.52053 136.523611 
L 924.805 134.89084 
L 935.08947 139.991366 
L 945.373939 136.195002 
L 955.658409 140.413039 
L 965.942879 134.973087 
L 976.227348 136.523611 
L 986.511818 134.44509 
L 996.796288 136.137831 
L 1007.080758 130.488336 
L 1017.365227 132.966549 
L 1027.649697 125.248086 
L 1037.934167 130.967104 
L 1037.934167 84.429136 
L 1037.934167 84.429136 
L 1027.649697 82.536785 
L 1017.365227 81.788733 
L 1007.080758 88.112689 
L 996.796288 82.463194 
L 986.511818 81.271628 
L 976.227348 91.691773 
L 965.942879 88.435119 
L 955.658409 84.918038 
L 945.373939 91.058947 
L 935.08947 88.224018 
L 924.805 89.478801 
L 914.52053 91.691773 
L 904.236061 91.244238 
L 893.951591 92.020918 
L 883.667121 95.243386 
L 873.382652 99.635086 
L 863.098182 102.915083 
L 852.813712 105.338858 
L 842.529242 114.406178 
L 832.244773 122.843502 
L 821.960303 139.715471 
L 811.675833 151.337644 
L 801.391364 155.965776 
z
" clip-path="url(#p459bc6fe9b)" style="fill: #095086; fill-opacity: 0.1"/>
   </g>
   <g id="PolyCollection_6">
    <path d="M 801.391364 145.028459 
L 801.391364 201.76402 
L 811.675833 187.719591 
L 821.960303 184.643503 
L 832.244773 158.447604 
L 842.529242 153.592913 
L 852.813712 135.288494 
L 863.098182 132.402623 
L 873.382652 127.680727 
L 883.667121 132.393626 
L 893.951591 133.358237 
L 904.236061 134.560961 
L 914.52053 130.564379 
L 924.805 125.193417 
L 935.08947 124.442273 
L 945.373939 117.069096 
L 955.658409 118.307228 
L 965.942879 115.496817 
L 976.227348 117.595452 
L 986.511818 122.64262 
L 996.796288 123.196465 
L 1007.080758 124.231981 
L 1017.365227 125.979968 
L 1027.649697 121.878278 
L 1037.934167 122.392173 
L 1037.934167 76.980134 
L 1037.934167 76.980134 
L 1027.649697 79.897619 
L 1017.365227 76.276648 
L 1007.080758 81.870378 
L 996.796288 79.060151 
L 986.511818 73.84538 
L 976.227348 79.853984 
L 965.942879 77.14544 
L 955.658409 71.450721 
L 945.373939 77.496033 
L 935.08947 80.69865 
L 924.805 82.831814 
L 914.52053 85.152339 
L 904.236061 85.001501 
L 893.951591 84.281353 
L 883.667121 85.245964 
L 873.382652 86.113119 
L 863.098182 89.08271 
L 852.813712 92.92689 
L 842.529242 99.619805 
L 832.244773 106.302345 
L 821.960303 125.293933 
L 811.675833 135.437588 
L 801.391364 145.028459 
z
" clip-path="url(#p459bc6fe9b)" style="fill: #b00000; fill-opacity: 0.1"/>
   </g>
   <g id="matplotlib.axis_5">
    <g id="xtick_7">
     <g id="line2d_27">
      <g>
       <use xlink:href="#mb707c1c789" x="801.391364" y="323.22" style="stroke: #000000; stroke-width: 0.8"/>
      </g>
     </g>
     <g id="text_25">
      <!-- 0 -->
      <g transform="translate(795.665114 343.897188) scale(0.18 -0.18)">
       <use xlink:href="#DejaVuSans-30"/>
      </g>
     </g>
    </g>
    <g id="xtick_8">
     <g id="line2d_28">
      <g>
       <use xlink:href="#mb707c1c789" x="904.236061" y="323.22" style="stroke: #000000; stroke-width: 0.8"/>
      </g>
     </g>
     <g id="text_26">
      <!-- 10 -->
      <g transform="translate(892.783561 343.897188) scale(0.18 -0.18)">
       <use xlink:href="#DejaVuSans-31"/>
       <use xlink:href="#DejaVuSans-30" x="63.623047"/>
      </g>
     </g>
    </g>
    <g id="xtick_9">
     <g id="line2d_29">
      <g>
       <use xlink:href="#mb707c1c789" x="1007.080758" y="323.22" style="stroke: #000000; stroke-width: 0.8"/>
      </g>
     </g>
     <g id="text_27">
      <!-- 20 -->
      <g transform="translate(995.628258 343.897188) scale(0.18 -0.18)">
       <use xlink:href="#DejaVuSans-32"/>
       <use xlink:href="#DejaVuSans-30" x="63.623047"/>
      </g>
     </g>
    </g>
    <g id="text_28">
     <!-- Trial -->
     <g transform="translate(906.419688 365.317813) scale(0.18 -0.18)">
      <use xlink:href="#DejaVuSans-54"/>
      <use xlink:href="#DejaVuSans-72" x="46.333984"/>
      <use xlink:href="#DejaVuSans-69" x="87.447266"/>
      <use xlink:href="#DejaVuSans-61" x="115.230469"/>
      <use xlink:href="#DejaVuSans-6c" x="176.509766"/>
     </g>
    </g>
   </g>
   <g id="matplotlib.axis_6">
    <g id="ytick_9">
     <g id="line2d_30">
      <g>
       <use xlink:href="#m75a7ce581b" x="789.05" y="266.976" style="stroke: #000000; stroke-width: 0.8"/>
      </g>
     </g>
     <g id="text_29">
      <!-- 40 -->
      <g transform="translate(759.145 273.814594) scale(0.18 -0.18)">
       <use xlink:href="#DejaVuSans-34"/>
       <use xlink:href="#DejaVuSans-30" x="63.623047"/>
      </g>
     </g>
    </g>
    <g id="ytick_10">
     <g id="line2d_31">
      <g>
       <use xlink:href="#m75a7ce581b" x="789.05" y="191.984" style="stroke: #000000; stroke-width: 0.8"/>
      </g>
     </g>
     <g id="text_30">
      <!-- 60 -->
      <g transform="translate(759.145 198.822594) scale(0.18 -0.18)">
       <use xlink:href="#DejaVuSans-36"/>
       <use xlink:href="#DejaVuSans-30" x="63.623047"/>
      </g>
     </g>
    </g>
    <g id="ytick_11">
     <g id="line2d_32">
      <g>
       <use xlink:href="#m75a7ce581b" x="789.05" y="116.992" style="stroke: #000000; stroke-width: 0.8"/>
      </g>
     </g>
     <g id="text_31">
      <!-- 80 -->
      <g transform="translate(759.145 123.830594) scale(0.18 -0.18)">
       <use xlink:href="#DejaVuSans-38"/>
       <use xlink:href="#DejaVuSans-30" x="63.623047"/>
      </g>
     </g>
    </g>
    <g id="ytick_12">
     <g id="line2d_33">
      <g>
       <use xlink:href="#m75a7ce581b" x="789.05" y="42" style="stroke: #000000; stroke-width: 0.8"/>
      </g>
     </g>
     <g id="text_32">
      <!-- 100 -->
      <g transform="translate(747.6925 48.838594) scale(0.18 -0.18)">
       <use xlink:href="#DejaVuSans-31"/>
       <use xlink:href="#DejaVuSans-30" x="63.623047"/>
       <use xlink:href="#DejaVuSans-30" x="127.246094"/>
      </g>
     </g>
    </g>
    <g id="text_33">
     <!-- Accuracy (%) -->
     <g transform="translate(739.949063 242.135156) rotate(-90) scale(0.18 -0.18)">
      <use xlink:href="#DejaVuSans-41"/>
      <use xlink:href="#DejaVuSans-63" x="66.658203"/>
      <use xlink:href="#DejaVuSans-63" x="121.638672"/>
      <use xlink:href="#DejaVuSans-75" x="176.619141"/>
      <use xlink:href="#DejaVuSans-72" x="239.998047"/>
      <use xlink:href="#DejaVuSans-61" x="281.111328"/>
      <use xlink:href="#DejaVuSans-63" x="342.390625"/>
      <use xlink:href="#DejaVuSans-79" x="397.371094"/>
      <use xlink:href="#DejaVuSans-20" x="456.550781"/>
      <use xlink:href="#DejaVuSans-28" x="488.337891"/>
      <use xlink:href="#DejaVuSans-25" x="527.351562"/>
      <use xlink:href="#DejaVuSans-29" x="622.371094"/>
     </g>
    </g>
   </g>
   <g id="line2d_34">
    <path d="M 801.391364 188.618974 
L 811.675833 179.004615 
L 821.960303 169.390256 
L 832.244773 149.680821 
L 842.529242 140.547179 
L 852.813712 132.374974 
L 863.098182 127.087077 
L 873.382652 124.683487 
L 883.667121 120.357026 
L 893.951591 116.992 
L 904.236061 115.069128 
L 914.52053 114.107692 
L 924.805 112.184821 
L 935.08947 114.107692 
L 945.373939 113.626974 
L 955.658409 112.665538 
L 965.942879 111.704103 
L 976.227348 114.107692 
L 986.511818 107.858359 
L 996.796288 109.300513 
L 1007.080758 109.300513 
L 1017.365227 107.377641 
L 1027.649697 103.892436 
L 1037.934167 107.69812 
" clip-path="url(#p459bc6fe9b)" style="fill: none; stroke: #095086; stroke-opacity: 0.75; stroke-width: 3; stroke-linecap: square"/>
   </g>
   <g id="line2d_35">
    <path d="M 811.675833 199.835726 
L 821.960303 188.018077 
L 832.244773 179.004615 
L 842.529242 161.218051 
L 852.813712 141.508615 
L 863.098182 128.048513 
L 873.382652 120.837744 
L 883.667121 112.665538 
L 893.951591 106.416205 
L 904.236061 106.416205 
L 914.52053 100.64759 
L 924.805 96.801846 
L 935.08947 93.436821 
L 945.373939 92.475385 
L 955.658409 85.264615 
L 965.942879 87.187487 
L 976.227348 84.783897 
L 986.511818 83.341744 
L 996.796288 78.053846 
L 1007.080758 80.938154 
L 1017.365227 78.053846 
L 1027.649697 76.130974 
L 1037.934167 75.650256 
L 1048.218636 77.25265 
" clip-path="url(#p459bc6fe9b)" style="fill: none; stroke-dasharray: 7.4,3.2; stroke-dashoffset: 0; stroke: #095086; stroke-opacity: 0.75; stroke-width: 2"/>
   </g>
   <g id="line2d_36">
    <path d="M 801.391364 173.396239 
L 811.675833 161.57859 
L 821.960303 154.968718 
L 832.244773 132.374974 
L 842.529242 126.606359 
L 852.813712 114.107692 
L 863.098182 110.742667 
L 873.382652 106.896923 
L 883.667121 108.819795 
L 893.951591 108.819795 
L 904.236061 109.781231 
L 914.52053 107.858359 
L 924.805 104.012615 
L 935.08947 102.570462 
L 945.373939 97.282564 
L 955.658409 94.878974 
L 965.942879 96.321128 
L 976.227348 98.724718 
L 986.511818 98.244 
L 996.796288 101.128308 
L 1007.080758 103.051179 
L 1017.365227 101.128308 
L 1027.649697 100.887949 
L 1037.934167 99.686154 
" clip-path="url(#p459bc6fe9b)" style="fill: none; stroke: #b00000; stroke-opacity: 0.75; stroke-width: 3; stroke-linecap: square"/>
   </g>
   <g id="line2d_37">
    <path d="M 811.675833 206.245299 
L 821.960303 196.430641 
L 832.244773 191.022564 
L 842.529242 169.390256 
L 852.813712 154.007282 
L 863.098182 141.989333 
L 873.382652 128.529231 
L 883.667121 117.472718 
L 893.951591 109.300513 
L 904.236061 100.64759 
L 914.52053 95.359692 
L 924.805 96.801846 
L 935.08947 92.956103 
L 945.373939 92.475385 
L 955.658409 93.436821 
L 965.942879 92.956103 
L 976.227348 87.668205 
L 986.511818 86.706769 
L 996.796288 83.822462 
L 1007.080758 80.938154 
L 1017.365227 77.573128 
L 1027.649697 75.169538 
L 1037.934167 71.443974 
L 1048.218636 68.439487 
" clip-path="url(#p459bc6fe9b)" style="fill: none; stroke-dasharray: 7.4,3.2; stroke-dashoffset: 0; stroke: #b00000; stroke-opacity: 0.75; stroke-width: 2"/>
   </g>
   <g id="patch_9">
    <path d="M 789.05 323.22 
L 789.05 42 
" style="fill: none; stroke: #000000; stroke-width: 0.8; stroke-linejoin: miter; stroke-linecap: square"/>
   </g>
   <g id="patch_10">
    <path d="M 789.05 323.22 
L 1060.56 323.22 
" style="fill: none; stroke: #000000; stroke-width: 0.8; stroke-linejoin: miter; stroke-linecap: square"/>
   </g>
   <g id="text_34">
    <!-- Chronic Pain -->
    <g transform="translate(857.909125 36) scale(0.216 -0.216)">
     <defs>
      <path id="DejaVuSans-43" d="M 4122 4306 
L 4122 3641 
Q 3803 3938 3442 4084 
Q 3081 4231 2675 4231 
Q 1875 4231 1450 3742 
Q 1025 3253 1025 2328 
Q 1025 1406 1450 917 
Q 1875 428 2675 428 
Q 3081 428 3442 575 
Q 3803 722 4122 1019 
L 4122 359 
Q 3791 134 3420 21 
Q 3050 -91 2638 -91 
Q 1578 -91 968 557 
Q 359 1206 359 2328 
Q 359 3453 968 4101 
Q 1578 4750 2638 4750 
Q 3056 4750 3426 4639 
Q 3797 4528 4122 4306 
z
" transform="scale(0.015625)"/>
     </defs>
     <use xlink:href="#DejaVuSans-43"/>
     <use xlink:href="#DejaVuSans-68" x="69.824219"/>
     <use xlink:href="#DejaVuSans-72" x="133.203125"/>
     <use xlink:href="#DejaVuSans-6f" x="172.066406"/>
     <use xlink:href="#DejaVuSans-6e" x="233.248047"/>
     <use xlink:href="#DejaVuSans-69" x="296.626953"/>
     <use xlink:href="#DejaVuSans-63" x="324.410156"/>
     <use xlink:href="#DejaVuSans-20" x="379.390625"/>
     <use xlink:href="#DejaVuSans-50" x="411.177734"/>
     <use xlink:href="#DejaVuSans-61" x="466.980469"/>
     <use xlink:href="#DejaVuSans-69" x="528.259766"/>
     <use xlink:href="#DejaVuSans-6e" x="556.042969"/>
    </g>
   </g>
   <g id="legend_3">
    <g id="line2d_38">
     <path d="M 926.924062 270.555938 
L 944.924062 270.555938 
L 962.924062 270.555938 
" style="fill: none; stroke: #095086; stroke-opacity: 0.75; stroke-width: 3; stroke-linecap: square"/>
    </g>
    <g id="text_35">
     <!-- Reward -->
     <g transform="translate(977.324062 276.855938) scale(0.18 -0.18)">
      <use xlink:href="#DejaVuSans-52"/>
      <use xlink:href="#DejaVuSans-65" x="64.982422"/>
      <use xlink:href="#DejaVuSans-77" x="126.505859"/>
      <use xlink:href="#DejaVuSans-61" x="208.292969"/>
      <use xlink:href="#DejaVuSans-72" x="269.572266"/>
      <use xlink:href="#DejaVuSans-64" x="308.935547"/>
     </g>
    </g>
    <g id="line2d_39">
     <path d="M 926.924062 296.976563 
L 944.924062 296.976563 
L 962.924062 296.976563 
" style="fill: none; stroke: #b00000; stroke-opacity: 0.75; stroke-width: 3; stroke-linecap: square"/>
    </g>
    <g id="text_36">
     <!-- Punish -->
     <g transform="translate(977.324062 303.276563) scale(0.18 -0.18)">
      <use xlink:href="#DejaVuSans-50"/>
      <use xlink:href="#DejaVuSans-75" x="58.552734"/>
      <use xlink:href="#DejaVuSans-6e" x="121.931641"/>
      <use xlink:href="#DejaVuSans-69" x="185.310547"/>
      <use xlink:href="#DejaVuSans-73" x="213.09375"/>
      <use xlink:href="#DejaVuSans-68" x="265.193359"/>
     </g>
    </g>
   </g>
  </g>
  <g id="axes_4">
   <g id="patch_11">
    <path d="M 82.01 676.28 
L 353.52 676.28 
L 353.52 395.06 
L 82.01 395.06 
z
" style="fill: #ffffff"/>
   </g>
   <g id="patch_12">
    <path d="M 94.351364 676.28 
L 135.489242 676.28 
L 135.489242 431.306133 
L 94.351364 431.306133 
z
" clip-path="url(#pca0863062b)" style="fill: #095086; opacity: 0.75"/>
   </g>
   <g id="patch_13">
    <path d="M 145.773712 676.28 
L 186.911591 676.28 
L 186.911591 527.480769 
L 145.773712 527.480769 
z
" clip-path="url(#pca0863062b)" style="fill: #9bd2f2; opacity: 0.75"/>
   </g>
   <g id="patch_14">
    <path d="M 197.196061 676.28 
L 238.333939 676.28 
L 238.333939 535.188281 
L 197.196061 535.188281 
z
" clip-path="url(#pca0863062b)" style="fill: #eca6a6; opacity: 0.75"/>
   </g>
   <g id="patch_15">
    <path d="M 248.618409 676.28 
L 289.756288 676.28 
L 289.756288 633.914728 
L 248.618409 633.914728 
z
" clip-path="url(#pca0863062b)" style="fill: #b00000; opacity: 0.75"/>
   </g>
   <g id="patch_16">
    <path d="M 300.040758 676.28 
L 341.178636 676.28 
L 341.178636 572.280678 
L 300.040758 572.280678 
z
" clip-path="url(#pca0863062b)" style="fill: #d3d3d3; opacity: 0.75"/>
   </g>
   <g id="PathCollection_1">
    <defs>
     <path id="m15ea1841f5" d="M -0 4.242641 
L 4.242641 0 
L 0 -4.242641 
L -4.242641 -0 
z
" style="stroke: #808080; stroke-opacity: 0.75"/>
    </defs>
    <g clip-path="url(#pca0863062b)">
     <use xlink:href="#m15ea1841f5" x="114.920303" y="434.4308" style="fill: #808080; fill-opacity: 0.75; stroke: #808080; stroke-opacity: 0.75"/>
     <use xlink:href="#m15ea1841f5" x="166.342652" y="511.7663" style="fill: #808080; fill-opacity: 0.75; stroke: #808080; stroke-opacity: 0.75"/>
     <use xlink:href="#m15ea1841f5" x="217.765" y="544.1066" style="fill: #808080; fill-opacity: 0.75; stroke: #808080; stroke-opacity: 0.75"/>
     <use xlink:href="#m15ea1841f5" x="269.187348" y="639.7214" style="fill: #808080; fill-opacity: 0.75; stroke: #808080; stroke-opacity: 0.75"/>
     <use xlink:href="#m15ea1841f5" x="320.609697" y="572.2286" style="fill: #808080; fill-opacity: 0.75; stroke: #808080; stroke-opacity: 0.75"/>
    </g>
   </g>
   <g id="matplotlib.axis_7">
    <g id="xtick_10">
     <g id="line2d_40">
      <g>
       <use xlink:href="#mb707c1c789" x="114.920303" y="676.28" style="stroke: #000000; stroke-width: 0.8"/>
      </g>
     </g>
     <g id="text_37">
      <!-- HR -->
      <g transform="translate(101.898428 696.957188) scale(0.18 -0.18)">
       <defs>
        <path id="DejaVuSans-48" d="M 628 4666 
L 1259 4666 
L 1259 2753 
L 3553 2753 
L 3553 4666 
L 4184 4666 
L 4184 0 
L 3553 0 
L 3553 2222 
L 1259 2222 
L 1259 0 
L 628 0 
L 628 4666 
z
" transform="scale(0.015625)"/>
       </defs>
       <use xlink:href="#DejaVuSans-48"/>
       <use xlink:href="#DejaVuSans-52" x="75.195312"/>
      </g>
     </g>
    </g>
    <g id="xtick_11">
     <g id="line2d_41">
      <g>
       <use xlink:href="#mb707c1c789" x="166.342652" y="676.28" style="stroke: #000000; stroke-width: 0.8"/>
      </g>
     </g>
     <g id="text_38">
      <!-- LR -->
      <g transform="translate(155.07437 696.957188) scale(0.18 -0.18)">
       <defs>
        <path id="DejaVuSans-4c" d="M 628 4666 
L 1259 4666 
L 1259 531 
L 3531 531 
L 3531 0 
L 628 0 
L 628 4666 
z
" transform="scale(0.015625)"/>
       </defs>
       <use xlink:href="#DejaVuSans-4c"/>
       <use xlink:href="#DejaVuSans-52" x="55.712891"/>
      </g>
     </g>
    </g>
    <g id="xtick_12">
     <g id="line2d_42">
      <g>
       <use xlink:href="#mb707c1c789" x="217.765" y="676.28" style="stroke: #000000; stroke-width: 0.8"/>
      </g>
     </g>
     <g id="text_39">
      <!-- LP -->
      <g transform="translate(207.323594 696.957188) scale(0.18 -0.18)">
       <use xlink:href="#DejaVuSans-4c"/>
       <use xlink:href="#DejaVuSans-50" x="55.712891"/>
      </g>
     </g>
    </g>
    <g id="xtick_13">
     <g id="line2d_43">
      <g>
       <use xlink:href="#mb707c1c789" x="269.187348" y="676.28" style="stroke: #000000; stroke-width: 0.8"/>
      </g>
     </g>
     <g id="text_40">
      <!-- HP -->
      <g transform="translate(256.992348 696.957188) scale(0.18 -0.18)">
       <use xlink:href="#DejaVuSans-48"/>
       <use xlink:href="#DejaVuSans-50" x="75.195312"/>
      </g>
     </g>
    </g>
    <g id="xtick_14">
     <g id="line2d_44">
      <g>
       <use xlink:href="#mb707c1c789" x="320.609697" y="676.28" style="stroke: #000000; stroke-width: 0.8"/>
      </g>
     </g>
     <g id="text_41">
      <!-- N -->
      <g transform="translate(313.876572 696.957188) scale(0.18 -0.18)">
       <use xlink:href="#DejaVuSans-4e"/>
      </g>
     </g>
    </g>
   </g>
   <g id="matplotlib.axis_8">
    <g id="ytick_13">
     <g id="line2d_45">
      <g>
       <use xlink:href="#m75a7ce581b" x="82.01" y="676.28" style="stroke: #000000; stroke-width: 0.8"/>
      </g>
     </g>
     <g id="text_42">
      <!-- 0 -->
      <g transform="translate(63.5575 683.118594) scale(0.18 -0.18)">
       <use xlink:href="#DejaVuSans-30"/>
      </g>
     </g>
    </g>
    <g id="ytick_14">
     <g id="line2d_46">
      <g>
       <use xlink:href="#m75a7ce581b" x="82.01" y="620.036" style="stroke: #000000; stroke-width: 0.8"/>
      </g>
     </g>
     <g id="text_43">
      <!-- 20 -->
      <g transform="translate(52.105 626.874594) scale(0.18 -0.18)">
       <use xlink:href="#DejaVuSans-32"/>
       <use xlink:href="#DejaVuSans-30" x="63.623047"/>
      </g>
     </g>
    </g>
    <g id="ytick_15">
     <g id="line2d_47">
      <g>
       <use xlink:href="#m75a7ce581b" x="82.01" y="563.792" style="stroke: #000000; stroke-width: 0.8"/>
      </g>
     </g>
     <g id="text_44">
      <!-- 40 -->
      <g transform="translate(52.105 570.630594) scale(0.18 -0.18)">
       <use xlink:href="#DejaVuSans-34"/>
       <use xlink:href="#DejaVuSans-30" x="63.623047"/>
      </g>
     </g>
    </g>
    <g id="ytick_16">
     <g id="line2d_48">
      <g>
       <use xlink:href="#m75a7ce581b" x="82.01" y="507.548" style="stroke: #000000; stroke-width: 0.8"/>
      </g>
     </g>
     <g id="text_45">
      <!-- 60 -->
      <g transform="translate(52.105 514.386594) scale(0.18 -0.18)">
       <use xlink:href="#DejaVuSans-36"/>
       <use xlink:href="#DejaVuSans-30" x="63.623047"/>
      </g>
     </g>
    </g>
    <g id="ytick_17">
     <g id="line2d_49">
      <g>
       <use xlink:href="#m75a7ce581b" x="82.01" y="451.304" style="stroke: #000000; stroke-width: 0.8"/>
      </g>
     </g>
     <g id="text_46">
      <!-- 80 -->
      <g transform="translate(52.105 458.142594) scale(0.18 -0.18)">
       <use xlink:href="#DejaVuSans-38"/>
       <use xlink:href="#DejaVuSans-30" x="63.623047"/>
      </g>
     </g>
    </g>
    <g id="ytick_18">
     <g id="line2d_50">
      <g>
       <use xlink:href="#m75a7ce581b" x="82.01" y="395.06" style="stroke: #000000; stroke-width: 0.8"/>
      </g>
     </g>
     <g id="text_47">
      <!-- 100 -->
      <g transform="translate(40.6525 401.898594) scale(0.18 -0.18)">
       <use xlink:href="#DejaVuSans-31"/>
       <use xlink:href="#DejaVuSans-30" x="63.623047"/>
       <use xlink:href="#DejaVuSans-30" x="127.246094"/>
      </g>
     </g>
    </g>
    <g id="text_48">
     <!-- Choice Rate (%) -->
     <g transform="translate(32.909063 608.079219) rotate(-90) scale(0.18 -0.18)">
      <use xlink:href="#DejaVuSans-43"/>
      <use xlink:href="#DejaVuSans-68" x="69.824219"/>
      <use xlink:href="#DejaVuSans-6f" x="133.203125"/>
      <use xlink:href="#DejaVuSans-69" x="194.384766"/>
      <use xlink:href="#DejaVuSans-63" x="222.167969"/>
      <use xlink:href="#DejaVuSans-65" x="277.148438"/>
      <use xlink:href="#DejaVuSans-20" x="338.671875"/>
      <use xlink:href="#DejaVuSans-52" x="370.458984"/>
      <use xlink:href="#DejaVuSans-61" x="437.691406"/>
      <use xlink:href="#DejaVuSans-74" x="498.970703"/>
      <use xlink:href="#DejaVuSans-65" x="538.179688"/>
      <use xlink:href="#DejaVuSans-20" x="599.703125"/>
      <use xlink:href="#DejaVuSans-28" x="631.490234"/>
      <use xlink:href="#DejaVuSans-25" x="670.503906"/>
      <use xlink:href="#DejaVuSans-29" x="765.523438"/>
     </g>
    </g>
   </g>
   <g id="LineCollection_1">
    <path d="M 114.920303 437.214538 
L 114.920303 425.397729 
" clip-path="url(#pca0863062b)" style="fill: none; stroke: #696969; stroke-width: 1.5"/>
    <path d="M 166.342652 534.673566 
L 166.342652 520.287973 
" clip-path="url(#pca0863062b)" style="fill: none; stroke: #696969; stroke-width: 1.5"/>
    <path d="M 217.765 543.099663 
L 217.765 527.276898 
" clip-path="url(#pca0863062b)" style="fill: none; stroke: #696969; stroke-width: 1.5"/>
    <path d="M 269.187348 639.946091 
L 269.187348 627.883364 
" clip-path="url(#pca0863062b)" style="fill: none; stroke: #696969; stroke-width: 1.5"/>
    <path d="M 320.609697 582.296446 
L 320.609697 562.264909 
" clip-path="url(#pca0863062b)" style="fill: none; stroke: #696969; stroke-width: 1.5"/>
   </g>
   <g id="line2d_51">
    <defs>
     <path id="m21d01cd015" d="M 5 0 
L -5 -0 
" style="stroke: #696969"/>
    </defs>
    <g clip-path="url(#pca0863062b)">
     <use xlink:href="#m21d01cd015" x="114.920303" y="437.214538" style="fill: #696969; stroke: #696969"/>
     <use xlink:href="#m21d01cd015" x="166.342652" y="534.673566" style="fill: #696969; stroke: #696969"/>
     <use xlink:href="#m21d01cd015" x="217.765" y="543.099663" style="fill: #696969; stroke: #696969"/>
     <use xlink:href="#m21d01cd015" x="269.187348" y="639.946091" style="fill: #696969; stroke: #696969"/>
     <use xlink:href="#m21d01cd015" x="320.609697" y="582.296446" style="fill: #696969; stroke: #696969"/>
    </g>
   </g>
   <g id="line2d_52">
    <g clip-path="url(#pca0863062b)">
     <use xlink:href="#m21d01cd015" x="114.920303" y="425.397729" style="fill: #696969; stroke: #696969"/>
     <use xlink:href="#m21d01cd015" x="166.342652" y="520.287973" style="fill: #696969; stroke: #696969"/>
     <use xlink:href="#m21d01cd015" x="217.765" y="527.276898" style="fill: #696969; stroke: #696969"/>
     <use xlink:href="#m21d01cd015" x="269.187348" y="627.883364" style="fill: #696969; stroke: #696969"/>
     <use xlink:href="#m21d01cd015" x="320.609697" y="562.264909" style="fill: #696969; stroke: #696969"/>
    </g>
   </g>
   <g id="LineCollection_2">
    <path d="M 114.920303 437.214538 
L 114.920303 425.397729 
" clip-path="url(#pca0863062b)" style="fill: none; stroke: #808080; stroke-width: 1.5"/>
    <path d="M 166.342652 534.673566 
L 166.342652 520.287973 
" clip-path="url(#pca0863062b)" style="fill: none; stroke: #808080; stroke-width: 1.5"/>
    <path d="M 217.765 543.099663 
L 217.765 527.276898 
" clip-path="url(#pca0863062b)" style="fill: none; stroke: #808080; stroke-width: 1.5"/>
    <path d="M 269.187348 639.946091 
L 269.187348 627.883364 
" clip-path="url(#pca0863062b)" style="fill: none; stroke: #808080; stroke-width: 1.5"/>
    <path d="M 320.609697 582.296446 
L 320.609697 562.264909 
" clip-path="url(#pca0863062b)" style="fill: none; stroke: #808080; stroke-width: 1.5"/>
   </g>
   <g id="line2d_53">
    <defs>
     <path id="m830933961d" d="M 0 1.5 
C 0.397805 1.5 0.77937 1.341951 1.06066 1.06066 
C 1.341951 0.77937 1.5 0.397805 1.5 0 
C 1.5 -0.397805 1.341951 -0.77937 1.06066 -1.06066 
C 0.77937 -1.341951 0.397805 -1.5 0 -1.5 
C -0.397805 -1.5 -0.77937 -1.341951 -1.06066 -1.06066 
C -1.341951 -0.77937 -1.5 -0.397805 -1.5 0 
C -1.5 0.397805 -1.341951 0.77937 -1.06066 1.06066 
C -0.77937 1.341951 -0.397805 1.5 0 1.5 
z
" style="stroke: #808080"/>
    </defs>
    <g clip-path="url(#pca0863062b)">
     <use xlink:href="#m830933961d" x="114.920303" y="431.306133" style="fill: #808080; stroke: #808080"/>
     <use xlink:href="#m830933961d" x="166.342652" y="527.480769" style="fill: #808080; stroke: #808080"/>
     <use xlink:href="#m830933961d" x="217.765" y="535.188281" style="fill: #808080; stroke: #808080"/>
     <use xlink:href="#m830933961d" x="269.187348" y="633.914728" style="fill: #808080; stroke: #808080"/>
     <use xlink:href="#m830933961d" x="320.609697" y="572.280678" style="fill: #808080; stroke: #808080"/>
    </g>
   </g>
   <g id="patch_17">
    <path d="M 82.01 676.28 
L 82.01 395.06 
" style="fill: none; stroke: #000000; stroke-width: 0.8; stroke-linejoin: miter; stroke-linecap: square"/>
   </g>
   <g id="patch_18">
    <path d="M 82.01 676.28 
L 353.52 676.28 
" style="fill: none; stroke: #000000; stroke-width: 0.8; stroke-linejoin: miter; stroke-linecap: square"/>
   </g>
  </g>
  <g id="axes_5">
   <g id="patch_19">
    <path d="M 435.53 676.28 
L 707.04 676.28 
L 707.04 395.06 
L 435.53 395.06 
z
" style="fill: #ffffff"/>
   </g>
   <g id="patch_20">
    <path d="M 447.871364 676.28 
L 489.009242 676.28 
L 489.009242 442.098025 
L 447.871364 442.098025 
z
" clip-path="url(#pb1fced60c6)" style="fill: #095086; opacity: 0.75"/>
   </g>
   <g id="patch_21">
    <path d="M 499.293712 676.28 
L 540.431591 676.28 
L 540.431591 535.298577 
L 499.293712 535.298577 
z
" clip-path="url(#pb1fced60c6)" style="fill: #9bd2f2; opacity: 0.75"/>
   </g>
   <g id="patch_22">
    <path d="M 550.716061 676.28 
L 591.853939 676.28 
L 591.853939 522.564087 
L 550.716061 522.564087 
z
" clip-path="url(#pb1fced60c6)" style="fill: #eca6a6; opacity: 0.75"/>
   </g>
   <g id="patch_23">
    <path d="M 602.138409 676.28 
L 643.276288 676.28 
L 643.276288 617.807464 
L 602.138409 617.807464 
z
" clip-path="url(#pb1fced60c6)" style="fill: #b00000; opacity: 0.75"/>
   </g>
   <g id="patch_24">
    <path d="M 653.560758 676.28 
L 694.698636 676.28 
L 694.698636 590.163008 
L 653.560758 590.163008 
z
" clip-path="url(#pb1fced60c6)" style="fill: #d3d3d3; opacity: 0.75"/>
   </g>
   <g id="PathCollection_2">
    <g clip-path="url(#pb1fced60c6)">
     <use xlink:href="#m15ea1841f5" x="468.440303" y="435.8369" style="fill: #808080; fill-opacity: 0.75; stroke: #808080; stroke-opacity: 0.75"/>
     <use xlink:href="#m15ea1841f5" x="519.862652" y="520.2029" style="fill: #808080; fill-opacity: 0.75; stroke: #808080; stroke-opacity: 0.75"/>
     <use xlink:href="#m15ea1841f5" x="571.285" y="531.4517" style="fill: #808080; fill-opacity: 0.75; stroke: #808080; stroke-opacity: 0.75"/>
     <use xlink:href="#m15ea1841f5" x="622.707348" y="627.0665" style="fill: #808080; fill-opacity: 0.75; stroke: #808080; stroke-opacity: 0.75"/>
     <use xlink:href="#m15ea1841f5" x="674.129697" y="594.7262" style="fill: #808080; fill-opacity: 0.75; stroke: #808080; stroke-opacity: 0.75"/>
    </g>
   </g>
   <g id="matplotlib.axis_9">
    <g id="xtick_15">
     <g id="line2d_54">
      <g>
       <use xlink:href="#mb707c1c789" x="468.440303" y="676.28" style="stroke: #000000; stroke-width: 0.8"/>
      </g>
     </g>
     <g id="text_49">
      <!-- HR -->
      <g transform="translate(455.418428 696.957188) scale(0.18 -0.18)">
       <use xlink:href="#DejaVuSans-48"/>
       <use xlink:href="#DejaVuSans-52" x="75.195312"/>
      </g>
     </g>
    </g>
    <g id="xtick_16">
     <g id="line2d_55">
      <g>
       <use xlink:href="#mb707c1c789" x="519.862652" y="676.28" style="stroke: #000000; stroke-width: 0.8"/>
      </g>
     </g>
     <g id="text_50">
      <!-- LR -->
      <g transform="translate(508.59437 696.957188) scale(0.18 -0.18)">
       <use xlink:href="#DejaVuSans-4c"/>
       <use xlink:href="#DejaVuSans-52" x="55.712891"/>
      </g>
     </g>
    </g>
    <g id="xtick_17">
     <g id="line2d_56">
      <g>
       <use xlink:href="#mb707c1c789" x="571.285" y="676.28" style="stroke: #000000; stroke-width: 0.8"/>
      </g>
     </g>
     <g id="text_51">
      <!-- LP -->
      <g transform="translate(560.843594 696.957188) scale(0.18 -0.18)">
       <use xlink:href="#DejaVuSans-4c"/>
       <use xlink:href="#DejaVuSans-50" x="55.712891"/>
      </g>
     </g>
    </g>
    <g id="xtick_18">
     <g id="line2d_57">
      <g>
       <use xlink:href="#mb707c1c789" x="622.707348" y="676.28" style="stroke: #000000; stroke-width: 0.8"/>
      </g>
     </g>
     <g id="text_52">
      <!-- HP -->
      <g transform="translate(610.512348 696.957188) scale(0.18 -0.18)">
       <use xlink:href="#DejaVuSans-48"/>
       <use xlink:href="#DejaVuSans-50" x="75.195312"/>
      </g>
     </g>
    </g>
    <g id="xtick_19">
     <g id="line2d_58">
      <g>
       <use xlink:href="#mb707c1c789" x="674.129697" y="676.28" style="stroke: #000000; stroke-width: 0.8"/>
      </g>
     </g>
     <g id="text_53">
      <!-- N -->
      <g transform="translate(667.396572 696.957188) scale(0.18 -0.18)">
       <use xlink:href="#DejaVuSans-4e"/>
      </g>
     </g>
    </g>
   </g>
   <g id="matplotlib.axis_10">
    <g id="ytick_19">
     <g id="line2d_59">
      <g>
       <use xlink:href="#m75a7ce581b" x="435.53" y="676.28" style="stroke: #000000; stroke-width: 0.8"/>
      </g>
     </g>
     <g id="text_54">
      <!-- 0 -->
      <g transform="translate(417.0775 683.118594) scale(0.18 -0.18)">
       <use xlink:href="#DejaVuSans-30"/>
      </g>
     </g>
    </g>
    <g id="ytick_20">
     <g id="line2d_60">
      <g>
       <use xlink:href="#m75a7ce581b" x="435.53" y="620.036" style="stroke: #000000; stroke-width: 0.8"/>
      </g>
     </g>
     <g id="text_55">
      <!-- 20 -->
      <g transform="translate(405.625 626.874594) scale(0.18 -0.18)">
       <use xlink:href="#DejaVuSans-32"/>
       <use xlink:href="#DejaVuSans-30" x="63.623047"/>
      </g>
     </g>
    </g>
    <g id="ytick_21">
     <g id="line2d_61">
      <g>
       <use xlink:href="#m75a7ce581b" x="435.53" y="563.792" style="stroke: #000000; stroke-width: 0.8"/>
      </g>
     </g>
     <g id="text_56">
      <!-- 40 -->
      <g transform="translate(405.625 570.630594) scale(0.18 -0.18)">
       <use xlink:href="#DejaVuSans-34"/>
       <use xlink:href="#DejaVuSans-30" x="63.623047"/>
      </g>
     </g>
    </g>
    <g id="ytick_22">
     <g id="line2d_62">
      <g>
       <use xlink:href="#m75a7ce581b" x="435.53" y="507.548" style="stroke: #000000; stroke-width: 0.8"/>
      </g>
     </g>
     <g id="text_57">
      <!-- 60 -->
      <g transform="translate(405.625 514.386594) scale(0.18 -0.18)">
       <use xlink:href="#DejaVuSans-36"/>
       <use xlink:href="#DejaVuSans-30" x="63.623047"/>
      </g>
     </g>
    </g>
    <g id="ytick_23">
     <g id="line2d_63">
      <g>
       <use xlink:href="#m75a7ce581b" x="435.53" y="451.304" style="stroke: #000000; stroke-width: 0.8"/>
      </g>
     </g>
     <g id="text_58">
      <!-- 80 -->
      <g transform="translate(405.625 458.142594) scale(0.18 -0.18)">
       <use xlink:href="#DejaVuSans-38"/>
       <use xlink:href="#DejaVuSans-30" x="63.623047"/>
      </g>
     </g>
    </g>
    <g id="ytick_24">
     <g id="line2d_64">
      <g>
       <use xlink:href="#m75a7ce581b" x="435.53" y="395.06" style="stroke: #000000; stroke-width: 0.8"/>
      </g>
     </g>
     <g id="text_59">
      <!-- 100 -->
      <g transform="translate(394.1725 401.898594) scale(0.18 -0.18)">
       <use xlink:href="#DejaVuSans-31"/>
       <use xlink:href="#DejaVuSans-30" x="63.623047"/>
       <use xlink:href="#DejaVuSans-30" x="127.246094"/>
      </g>
     </g>
    </g>
    <g id="text_60">
     <!-- Choice Rate (%) -->
     <g transform="translate(386.429063 608.079219) rotate(-90) scale(0.18 -0.18)">
      <use xlink:href="#DejaVuSans-43"/>
      <use xlink:href="#DejaVuSans-68" x="69.824219"/>
      <use xlink:href="#DejaVuSans-6f" x="133.203125"/>
      <use xlink:href="#DejaVuSans-69" x="194.384766"/>
      <use xlink:href="#DejaVuSans-63" x="222.167969"/>
      <use xlink:href="#DejaVuSans-65" x="277.148438"/>
      <use xlink:href="#DejaVuSans-20" x="338.671875"/>
      <use xlink:href="#DejaVuSans-52" x="370.458984"/>
      <use xlink:href="#DejaVuSans-61" x="437.691406"/>
      <use xlink:href="#DejaVuSans-74" x="498.970703"/>
      <use xlink:href="#DejaVuSans-65" x="538.179688"/>
      <use xlink:href="#DejaVuSans-20" x="599.703125"/>
      <use xlink:href="#DejaVuSans-28" x="631.490234"/>
      <use xlink:href="#DejaVuSans-25" x="670.503906"/>
      <use xlink:href="#DejaVuSans-29" x="765.523438"/>
     </g>
    </g>
   </g>
   <g id="LineCollection_3">
    <path d="M 468.440303 452.233295 
L 468.440303 431.962754 
" clip-path="url(#pb1fced60c6)" style="fill: none; stroke: #696969; stroke-width: 1.5"/>
    <path d="M 519.862652 546.850417 
L 519.862652 523.746738 
" clip-path="url(#pb1fced60c6)" style="fill: none; stroke: #696969; stroke-width: 1.5"/>
    <path d="M 571.285 533.455022 
L 571.285 511.673151 
" clip-path="url(#pb1fced60c6)" style="fill: none; stroke: #696969; stroke-width: 1.5"/>
    <path d="M 622.707348 629.299958 
L 622.707348 606.314971 
" clip-path="url(#pb1fced60c6)" style="fill: none; stroke: #696969; stroke-width: 1.5"/>
    <path d="M 674.129697 602.752217 
L 674.129697 577.573799 
" clip-path="url(#pb1fced60c6)" style="fill: none; stroke: #696969; stroke-width: 1.5"/>
   </g>
   <g id="line2d_65">
    <g clip-path="url(#pb1fced60c6)">
     <use xlink:href="#m21d01cd015" x="468.440303" y="452.233295" style="fill: #696969; stroke: #696969"/>
     <use xlink:href="#m21d01cd015" x="519.862652" y="546.850417" style="fill: #696969; stroke: #696969"/>
     <use xlink:href="#m21d01cd015" x="571.285" y="533.455022" style="fill: #696969; stroke: #696969"/>
     <use xlink:href="#m21d01cd015" x="622.707348" y="629.299958" style="fill: #696969; stroke: #696969"/>
     <use xlink:href="#m21d01cd015" x="674.129697" y="602.752217" style="fill: #696969; stroke: #696969"/>
    </g>
   </g>
   <g id="line2d_66">
    <g clip-path="url(#pb1fced60c6)">
     <use xlink:href="#m21d01cd015" x="468.440303" y="431.962754" style="fill: #696969; stroke: #696969"/>
     <use xlink:href="#m21d01cd015" x="519.862652" y="523.746738" style="fill: #696969; stroke: #696969"/>
     <use xlink:href="#m21d01cd015" x="571.285" y="511.673151" style="fill: #696969; stroke: #696969"/>
     <use xlink:href="#m21d01cd015" x="622.707348" y="606.314971" style="fill: #696969; stroke: #696969"/>
     <use xlink:href="#m21d01cd015" x="674.129697" y="577.573799" style="fill: #696969; stroke: #696969"/>
    </g>
   </g>
   <g id="LineCollection_4">
    <path d="M 468.440303 452.233295 
L 468.440303 431.962754 
" clip-path="url(#pb1fced60c6)" style="fill: none; stroke: #808080; stroke-width: 1.5"/>
    <path d="M 519.862652 546.850417 
L 519.862652 523.746738 
" clip-path="url(#pb1fced60c6)" style="fill: none; stroke: #808080; stroke-width: 1.5"/>
    <path d="M 571.285 533.455022 
L 571.285 511.673151 
" clip-path="url(#pb1fced60c6)" style="fill: none; stroke: #808080; stroke-width: 1.5"/>
    <path d="M 622.707348 629.299958 
L 622.707348 606.314971 
" clip-path="url(#pb1fced60c6)" style="fill: none; stroke: #808080; stroke-width: 1.5"/>
    <path d="M 674.129697 602.752217 
L 674.129697 577.573799 
" clip-path="url(#pb1fced60c6)" style="fill: none; stroke: #808080; stroke-width: 1.5"/>
   </g>
   <g id="line2d_67">
    <g clip-path="url(#pb1fced60c6)">
     <use xlink:href="#m830933961d" x="468.440303" y="442.098025" style="fill: #808080; stroke: #808080"/>
     <use xlink:href="#m830933961d" x="519.862652" y="535.298577" style="fill: #808080; stroke: #808080"/>
     <use xlink:href="#m830933961d" x="571.285" y="522.564087" style="fill: #808080; stroke: #808080"/>
     <use xlink:href="#m830933961d" x="622.707348" y="617.807464" style="fill: #808080; stroke: #808080"/>
     <use xlink:href="#m830933961d" x="674.129697" y="590.163008" style="fill: #808080; stroke: #808080"/>
    </g>
   </g>
   <g id="patch_25">
    <path d="M 435.53 676.28 
L 435.53 395.06 
" style="fill: none; stroke: #000000; stroke-width: 0.8; stroke-linejoin: miter; stroke-linecap: square"/>
   </g>
   <g id="patch_26">
    <path d="M 435.53 676.28 
L 707.04 676.28 
" style="fill: none; stroke: #000000; stroke-width: 0.8; stroke-linejoin: miter; stroke-linecap: square"/>
   </g>
  </g>
  <g id="axes_6">
   <g id="patch_27">
    <path d="M 789.05 676.28 
L 1060.56 676.28 
L 1060.56 395.06 
L 789.05 395.06 
z
" style="fill: #ffffff"/>
   </g>
   <g id="patch_28">
    <path d="M 801.391364 676.28 
L 842.529242 676.28 
L 842.529242 434.845419 
L 801.391364 434.845419 
z
" clip-path="url(#ped3da82d99)" style="fill: #095086; opacity: 0.75"/>
   </g>
   <g id="patch_29">
    <path d="M 852.813712 676.28 
L 893.951591 676.28 
L 893.951591 548.180685 
L 852.813712 548.180685 
z
" clip-path="url(#ped3da82d99)" style="fill: #9bd2f2; opacity: 0.75"/>
   </g>
   <g id="patch_30">
    <path d="M 904.236061 676.28 
L 945.373939 676.28 
L 945.373939 517.426754 
L 904.236061 517.426754 
z
" clip-path="url(#ped3da82d99)" style="fill: #eca6a6; opacity: 0.75"/>
   </g>
   <g id="patch_31">
    <path d="M 955.658409 676.28 
L 996.796288 676.28 
L 996.796288 631.104531 
L 955.658409 631.104531 
z
" clip-path="url(#ped3da82d99)" style="fill: #b00000; opacity: 0.75"/>
   </g>
   <g id="patch_32">
    <path d="M 1007.080758 676.28 
L 1048.218636 676.28 
L 1048.218636 565.955231 
L 1007.080758 565.955231 
z
" clip-path="url(#ped3da82d99)" style="fill: #d3d3d3; opacity: 0.75"/>
   </g>
   <g id="PathCollection_3">
    <g clip-path="url(#ped3da82d99)">
     <use xlink:href="#m15ea1841f5" x="821.960303" y="440.0552" style="fill: #808080; fill-opacity: 0.75; stroke: #808080; stroke-opacity: 0.75"/>
     <use xlink:href="#m15ea1841f5" x="873.382652" y="530.0456" style="fill: #808080; fill-opacity: 0.75; stroke: #808080; stroke-opacity: 0.75"/>
     <use xlink:href="#m15ea1841f5" x="924.805" y="531.4517" style="fill: #808080; fill-opacity: 0.75; stroke: #808080; stroke-opacity: 0.75"/>
     <use xlink:href="#m15ea1841f5" x="976.227348" y="629.8787" style="fill: #808080; fill-opacity: 0.75; stroke: #808080; stroke-opacity: 0.75"/>
     <use xlink:href="#m15ea1841f5" x="1027.649697" y="566.6042" style="fill: #808080; fill-opacity: 0.75; stroke: #808080; stroke-opacity: 0.75"/>
    </g>
   </g>
   <g id="matplotlib.axis_11">
    <g id="xtick_20">
     <g id="line2d_68">
      <g>
       <use xlink:href="#mb707c1c789" x="821.960303" y="676.28" style="stroke: #000000; stroke-width: 0.8"/>
      </g>
     </g>
     <g id="text_61">
      <!-- HR -->
      <g transform="translate(808.938428 696.957188) scale(0.18 -0.18)">
       <use xlink:href="#DejaVuSans-48"/>
       <use xlink:href="#DejaVuSans-52" x="75.195312"/>
      </g>
     </g>
    </g>
    <g id="xtick_21">
     <g id="line2d_69">
      <g>
       <use xlink:href="#mb707c1c789" x="873.382652" y="676.28" style="stroke: #000000; stroke-width: 0.8"/>
      </g>
     </g>
     <g id="text_62">
      <!-- LR -->
      <g transform="translate(862.11437 696.957188) scale(0.18 -0.18)">
       <use xlink:href="#DejaVuSans-4c"/>
       <use xlink:href="#DejaVuSans-52" x="55.712891"/>
      </g>
     </g>
    </g>
    <g id="xtick_22">
     <g id="line2d_70">
      <g>
       <use xlink:href="#mb707c1c789" x="924.805" y="676.28" style="stroke: #000000; stroke-width: 0.8"/>
      </g>
     </g>
     <g id="text_63">
      <!-- LP -->
      <g transform="translate(914.363594 696.957188) scale(0.18 -0.18)">
       <use xlink:href="#DejaVuSans-4c"/>
       <use xlink:href="#DejaVuSans-50" x="55.712891"/>
      </g>
     </g>
    </g>
    <g id="xtick_23">
     <g id="line2d_71">
      <g>
       <use xlink:href="#mb707c1c789" x="976.227348" y="676.28" style="stroke: #000000; stroke-width: 0.8"/>
      </g>
     </g>
     <g id="text_64">
      <!-- HP -->
      <g transform="translate(964.032348 696.957188) scale(0.18 -0.18)">
       <use xlink:href="#DejaVuSans-48"/>
       <use xlink:href="#DejaVuSans-50" x="75.195312"/>
      </g>
     </g>
    </g>
    <g id="xtick_24">
     <g id="line2d_72">
      <g>
       <use xlink:href="#mb707c1c789" x="1027.649697" y="676.28" style="stroke: #000000; stroke-width: 0.8"/>
      </g>
     </g>
     <g id="text_65">
      <!-- N -->
      <g transform="translate(1020.916572 696.957188) scale(0.18 -0.18)">
       <use xlink:href="#DejaVuSans-4e"/>
      </g>
     </g>
    </g>
   </g>
   <g id="matplotlib.axis_12">
    <g id="ytick_25">
     <g id="line2d_73">
      <g>
       <use xlink:href="#m75a7ce581b" x="789.05" y="676.28" style="stroke: #000000; stroke-width: 0.8"/>
      </g>
     </g>
     <g id="text_66">
      <!-- 0 -->
      <g transform="translate(770.5975 683.118594) scale(0.18 -0.18)">
       <use xlink:href="#DejaVuSans-30"/>
      </g>
     </g>
    </g>
    <g id="ytick_26">
     <g id="line2d_74">
      <g>
       <use xlink:href="#m75a7ce581b" x="789.05" y="620.036" style="stroke: #000000; stroke-width: 0.8"/>
      </g>
     </g>
     <g id="text_67">
      <!-- 20 -->
      <g transform="translate(759.145 626.874594) scale(0.18 -0.18)">
       <use xlink:href="#DejaVuSans-32"/>
       <use xlink:href="#DejaVuSans-30" x="63.623047"/>
      </g>
     </g>
    </g>
    <g id="ytick_27">
     <g id="line2d_75">
      <g>
       <use xlink:href="#m75a7ce581b" x="789.05" y="563.792" style="stroke: #000000; stroke-width: 0.8"/>
      </g>
     </g>
     <g id="text_68">
      <!-- 40 -->
      <g transform="translate(759.145 570.630594) scale(0.18 -0.18)">
       <use xlink:href="#DejaVuSans-34"/>
       <use xlink:href="#DejaVuSans-30" x="63.623047"/>
      </g>
     </g>
    </g>
    <g id="ytick_28">
     <g id="line2d_76">
      <g>
       <use xlink:href="#m75a7ce581b" x="789.05" y="507.548" style="stroke: #000000; stroke-width: 0.8"/>
      </g>
     </g>
     <g id="text_69">
      <!-- 60 -->
      <g transform="translate(759.145 514.386594) scale(0.18 -0.18)">
       <use xlink:href="#DejaVuSans-36"/>
       <use xlink:href="#DejaVuSans-30" x="63.623047"/>
      </g>
     </g>
    </g>
    <g id="ytick_29">
     <g id="line2d_77">
      <g>
       <use xlink:href="#m75a7ce581b" x="789.05" y="451.304" style="stroke: #000000; stroke-width: 0.8"/>
      </g>
     </g>
     <g id="text_70">
      <!-- 80 -->
      <g transform="translate(759.145 458.142594) scale(0.18 -0.18)">
       <use xlink:href="#DejaVuSans-38"/>
       <use xlink:href="#DejaVuSans-30" x="63.623047"/>
      </g>
     </g>
    </g>
    <g id="ytick_30">
     <g id="line2d_78">
      <g>
       <use xlink:href="#m75a7ce581b" x="789.05" y="395.06" style="stroke: #000000; stroke-width: 0.8"/>
      </g>
     </g>
     <g id="text_71">
      <!-- 100 -->
      <g transform="translate(747.6925 401.898594) scale(0.18 -0.18)">
       <use xlink:href="#DejaVuSans-31"/>
       <use xlink:href="#DejaVuSans-30" x="63.623047"/>
       <use xlink:href="#DejaVuSans-30" x="127.246094"/>
      </g>
     </g>
    </g>
    <g id="text_72">
     <!-- Choice Rate (%) -->
     <g transform="translate(739.949063 608.079219) rotate(-90) scale(0.18 -0.18)">
      <use xlink:href="#DejaVuSans-43"/>
      <use xlink:href="#DejaVuSans-68" x="69.824219"/>
      <use xlink:href="#DejaVuSans-6f" x="133.203125"/>
      <use xlink:href="#DejaVuSans-69" x="194.384766"/>
      <use xlink:href="#DejaVuSans-63" x="222.167969"/>
      <use xlink:href="#DejaVuSans-65" x="277.148438"/>
      <use xlink:href="#DejaVuSans-20" x="338.671875"/>
      <use xlink:href="#DejaVuSans-52" x="370.458984"/>
      <use xlink:href="#DejaVuSans-61" x="437.691406"/>
      <use xlink:href="#DejaVuSans-74" x="498.970703"/>
      <use xlink:href="#DejaVuSans-65" x="538.179688"/>
      <use xlink:href="#DejaVuSans-20" x="599.703125"/>
      <use xlink:href="#DejaVuSans-28" x="631.490234"/>
      <use xlink:href="#DejaVuSans-25" x="670.503906"/>
      <use xlink:href="#DejaVuSans-29" x="765.523438"/>
     </g>
    </g>
   </g>
   <g id="LineCollection_5">
    <path d="M 821.960303 441.566318 
L 821.960303 428.12452 
" clip-path="url(#ped3da82d99)" style="fill: none; stroke: #696969; stroke-width: 1.5"/>
    <path d="M 873.382652 557.56932 
L 873.382652 538.79205 
" clip-path="url(#ped3da82d99)" style="fill: none; stroke: #696969; stroke-width: 1.5"/>
    <path d="M 924.805 526.318039 
L 924.805 508.535468 
" clip-path="url(#ped3da82d99)" style="fill: none; stroke: #696969; stroke-width: 1.5"/>
    <path d="M 976.227348 638.835421 
L 976.227348 623.37364 
" clip-path="url(#ped3da82d99)" style="fill: none; stroke: #696969; stroke-width: 1.5"/>
    <path d="M 1027.649697 578.437906 
L 1027.649697 553.472555 
" clip-path="url(#ped3da82d99)" style="fill: none; stroke: #696969; stroke-width: 1.5"/>
   </g>
   <g id="line2d_79">
    <g clip-path="url(#ped3da82d99)">
     <use xlink:href="#m21d01cd015" x="821.960303" y="441.566318" style="fill: #696969; stroke: #696969"/>
     <use xlink:href="#m21d01cd015" x="873.382652" y="557.56932" style="fill: #696969; stroke: #696969"/>
     <use xlink:href="#m21d01cd015" x="924.805" y="526.318039" style="fill: #696969; stroke: #696969"/>
     <use xlink:href="#m21d01cd015" x="976.227348" y="638.835421" style="fill: #696969; stroke: #696969"/>
     <use xlink:href="#m21d01cd015" x="1027.649697" y="578.437906" style="fill: #696969; stroke: #696969"/>
    </g>
   </g>
   <g id="line2d_80">
    <g clip-path="url(#ped3da82d99)">
     <use xlink:href="#m21d01cd015" x="821.960303" y="428.12452" style="fill: #696969; stroke: #696969"/>
     <use xlink:href="#m21d01cd015" x="873.382652" y="538.79205" style="fill: #696969; stroke: #696969"/>
     <use xlink:href="#m21d01cd015" x="924.805" y="508.535468" style="fill: #696969; stroke: #696969"/>
     <use xlink:href="#m21d01cd015" x="976.227348" y="623.37364" style="fill: #696969; stroke: #696969"/>
     <use xlink:href="#m21d01cd015" x="1027.649697" y="553.472555" style="fill: #696969; stroke: #696969"/>
    </g>
   </g>
   <g id="LineCollection_6">
    <path d="M 821.960303 441.566318 
L 821.960303 428.12452 
" clip-path="url(#ped3da82d99)" style="fill: none; stroke: #808080; stroke-width: 1.5"/>
    <path d="M 873.382652 557.56932 
L 873.382652 538.79205 
" clip-path="url(#ped3da82d99)" style="fill: none; stroke: #808080; stroke-width: 1.5"/>
    <path d="M 924.805 526.318039 
L 924.805 508.535468 
" clip-path="url(#ped3da82d99)" style="fill: none; stroke: #808080; stroke-width: 1.5"/>
    <path d="M 976.227348 638.835421 
L 976.227348 623.37364 
" clip-path="url(#ped3da82d99)" style="fill: none; stroke: #808080; stroke-width: 1.5"/>
    <path d="M 1027.649697 578.437906 
L 1027.649697 553.472555 
" clip-path="url(#ped3da82d99)" style="fill: none; stroke: #808080; stroke-width: 1.5"/>
   </g>
   <g id="line2d_81">
    <g clip-path="url(#ped3da82d99)">
     <use xlink:href="#m830933961d" x="821.960303" y="434.845419" style="fill: #808080; stroke: #808080"/>
     <use xlink:href="#m830933961d" x="873.382652" y="548.180685" style="fill: #808080; stroke: #808080"/>
     <use xlink:href="#m830933961d" x="924.805" y="517.426754" style="fill: #808080; stroke: #808080"/>
     <use xlink:href="#m830933961d" x="976.227348" y="631.104531" style="fill: #808080; stroke: #808080"/>
     <use xlink:href="#m830933961d" x="1027.649697" y="565.955231" style="fill: #808080; stroke: #808080"/>
    </g>
   </g>
   <g id="patch_33">
    <path d="M 789.05 676.28 
L 789.05 395.06 
" style="fill: none; stroke: #000000; stroke-width: 0.8; stroke-linejoin: miter; stroke-linecap: square"/>
   </g>
   <g id="patch_34">
    <path d="M 789.05 676.28 
L 1060.56 676.28 
" style="fill: none; stroke: #000000; stroke-width: 0.8; stroke-linejoin: miter; stroke-linecap: square"/>
   </g>
  </g>
 </g>
 <defs>
  <clipPath id="p695413e736">
   <rect x="82.01" y="42" width="271.51" height="281.22"/>
  </clipPath>
  <clipPath id="p11d1da0c90">
   <rect x="435.53" y="42" width="271.51" height="281.22"/>
  </clipPath>
  <clipPath id="p459bc6fe9b">
   <rect x="789.05" y="42" width="271.51" height="281.22"/>
  </clipPath>
  <clipPath id="pca0863062b">
   <rect x="82.01" y="395.06" width="271.51" height="281.22"/>
  </clipPath>
  <clipPath id="pb1fced60c6">
   <rect x="435.53" y="395.06" width="271.51" height="281.22"/>
  </clipPath>
  <clipPath id="ped3da82d99">
   <rect x="789.05" y="395.06" width="271.51" height="281.22"/>
  </clipPath>
 </defs>
</svg>
