<?xml version="1.0" encoding="utf-8" standalone="no"?>
<!DOCTYPE svg PUBLIC "-//W3C//DTD SVG 1.1//EN"
  "http://www.w3.org/Graphics/SVG/1.1/DTD/svg11.dtd">
<svg xmlns:xlink="http://www.w3.org/1999/xlink" width="1080pt" height="720pt" viewBox="0 0 1080 720" xmlns="http://www.w3.org/2000/svg" version="1.1">
 <metadata>
  <rdf:RDF xmlns:dc="http://purl.org/dc/elements/1.1/" xmlns:cc="http://creativecommons.org/ns#" xmlns:rdf="http://www.w3.org/1999/02/22-rdf-syntax-ns#">
   <cc:Work>
    <dc:type rdf:resource="http://purl.org/dc/dcmitype/StillImage"/>
    <dc:date>2025-05-13T17:16:27.467920</dc:date>
    <dc:format>image/svg+xml</dc:format>
    <dc:creator>
     <cc:Agent>
      <dc:title>Matplotlib v3.9.4, https://matplotlib.org/</dc:title>
     </cc:Agent>
    </dc:creator>
   </cc:Work>
  </rdf:RDF>
 </metadata>
 <defs>
  <style type="text/css">*{stroke-linejoin: round; stroke-linecap: butt}</style>
 </defs>
 <g id="figure_1">
  <g id="patch_1">
   <path d="M 0 720 
L 1080 720 
L 1080 0 
L 0 0 
z
" style="fill: #ffffff"/>
  </g>
  <g id="axes_1">
   <g id="patch_2">
    <path d="M 82.01 323.22 
L 353.52 323.22 
L 353.52 42 
L 82.01 42 
z
" style="fill: #ffffff"/>
   </g>
   <g id="PolyCollection_1">
    <path d="M 94.351364 172.816279 
L 94.351364 220.178536 
L 104.635833 216.993479 
L 114.920303 204.743733 
L 125.204773 187.05712 
L 135.489242 168.314889 
L 145.773712 164.628907 
L 156.058182 153.34722 
L 166.342652 147.545563 
L 176.627121 142.366339 
L 186.911591 138.729334 
L 197.196061 133.701528 
L 207.48053 131.235974 
L 217.765 129.764666 
L 228.04947 134.798681 
L 238.333939 135.941729 
L 248.618409 140.131135 
L 258.902879 139.663002 
L 269.187348 139.677576 
L 279.471818 134.68312 
L 289.756288 129.916185 
L 300.040758 128.414187 
L 310.325227 123.339452 
L 320.609697 120.717498 
L 330.894167 121.767387 
L 330.894167 82.590144 
L 330.894167 82.590144 
L 320.609697 83.061391 
L 310.325227 86.341585 
L 300.040758 90.988035 
L 289.756288 90.874778 
L 279.471818 93.051547 
L 269.187348 99.167017 
L 258.902879 97.79285 
L 248.618409 95.935976 
L 238.333939 95.95916 
L 228.04947 92.241615 
L 217.765 93.109408 
L 207.48053 93.721211 
L 197.196061 93.338768 
L 186.911591 100.809629 
L 176.627121 100.644476 
L 166.342652 104.492067 
L 156.058182 110.494705 
L 145.773712 117.266649 
L 135.489242 125.384963 
L 125.204773 137.195028 
L 114.920303 157.004415 
L 104.635833 161.245966 
L 94.351364 172.816279 
z
" clip-path="url(#p34968392b1)" style="fill: #095086; fill-opacity: 0.1"/>
   </g>
   <g id="PolyCollection_2">
    <path d="M 94.351364 150.723552 
L 94.351364 202.923608 
L 104.635833 192.436749 
L 114.920303 184.849876 
L 125.204773 164.193351 
L 135.489242 156.827772 
L 145.773712 151.695194 
L 156.058182 140.801983 
L 166.342652 140.131135 
L 176.627121 135.391952 
L 186.911591 135.183404 
L 197.196061 133.350041 
L 207.48053 131.272701 
L 217.765 131.091142 
L 228.04947 126.793238 
L 238.333939 127.958751 
L 248.618409 119.383434 
L 258.902879 120.126844 
L 269.187348 114.695685 
L 279.471818 116.08198 
L 289.756288 116.301881 
L 300.040758 114.237209 
L 310.325227 112.709134 
L 320.609697 108.605659 
L 330.894167 110.918497 
L 330.894167 70.293355 
L 330.894167 70.293355 
L 320.609697 79.549896 
L 310.325227 76.835162 
L 300.040758 73.918346 
L 289.756288 78.103008 
L 279.471818 79.71165 
L 269.187348 77.626093 
L 258.902879 81.221748 
L 248.618409 85.43701 
L 238.333939 85.194138 
L 228.04947 89.137132 
L 217.765 92.477303 
L 207.48053 91.601373 
L 197.196061 90.912774 
L 186.911591 96.023115 
L 176.627121 98.592048 
L 166.342652 95.935976 
L 156.058182 104.291943 
L 145.773712 110.063621 
L 135.489242 110.486006 
L 125.204773 119.090946 
L 114.920303 142.874124 
L 104.635833 146.744362 
L 94.351364 150.723552 
z
" clip-path="url(#p34968392b1)" style="fill: #b00000; fill-opacity: 0.1"/>
   </g>
   <g id="matplotlib.axis_1">
    <g id="xtick_1">
     <g id="line2d_1">
      <defs>
       <path id="m7030b58b74" d="M 0 0 
L 0 3.5 
" style="stroke: #000000; stroke-width: 0.8"/>
      </defs>
      <g>
       <use xlink:href="#m7030b58b74" x="94.351364" y="323.22" style="stroke: #000000; stroke-width: 0.8"/>
      </g>
     </g>
     <g id="text_1">
      <!-- 0 -->
      <g transform="translate(88.625114 343.897188) scale(0.18 -0.18)">
       <defs>
        <path id="DejaVuSans-30" d="M 2034 4250 
Q 1547 4250 1301 3770 
Q 1056 3291 1056 2328 
Q 1056 1369 1301 889 
Q 1547 409 2034 409 
Q 2525 409 2770 889 
Q 3016 1369 3016 2328 
Q 3016 3291 2770 3770 
Q 2525 4250 2034 4250 
z
M 2034 4750 
Q 2819 4750 3233 4129 
Q 3647 3509 3647 2328 
Q 3647 1150 3233 529 
Q 2819 -91 2034 -91 
Q 1250 -91 836 529 
Q 422 1150 422 2328 
Q 422 3509 836 4129 
Q 1250 4750 2034 4750 
z
" transform="scale(0.015625)"/>
       </defs>
       <use xlink:href="#DejaVuSans-30"/>
      </g>
     </g>
    </g>
    <g id="xtick_2">
     <g id="line2d_2">
      <g>
       <use xlink:href="#m7030b58b74" x="197.196061" y="323.22" style="stroke: #000000; stroke-width: 0.8"/>
      </g>
     </g>
     <g id="text_2">
      <!-- 10 -->
      <g transform="translate(185.743561 343.897188) scale(0.18 -0.18)">
       <defs>
        <path id="DejaVuSans-31" d="M 794 531 
L 1825 531 
L 1825 4091 
L 703 3866 
L 703 4441 
L 1819 4666 
L 2450 4666 
L 2450 531 
L 3481 531 
L 3481 0 
L 794 0 
L 794 531 
z
" transform="scale(0.015625)"/>
       </defs>
       <use xlink:href="#DejaVuSans-31"/>
       <use xlink:href="#DejaVuSans-30" x="63.623047"/>
      </g>
     </g>
    </g>
    <g id="xtick_3">
     <g id="line2d_3">
      <g>
       <use xlink:href="#m7030b58b74" x="300.040758" y="323.22" style="stroke: #000000; stroke-width: 0.8"/>
      </g>
     </g>
     <g id="text_3">
      <!-- 20 -->
      <g transform="translate(288.588258 343.897188) scale(0.18 -0.18)">
       <defs>
        <path id="DejaVuSans-32" d="M 1228 531 
L 3431 531 
L 3431 0 
L 469 0 
L 469 531 
Q 828 903 1448 1529 
Q 2069 2156 2228 2338 
Q 2531 2678 2651 2914 
Q 2772 3150 2772 3378 
Q 2772 3750 2511 3984 
Q 2250 4219 1831 4219 
Q 1534 4219 1204 4116 
Q 875 4013 500 3803 
L 500 4441 
Q 881 4594 1212 4672 
Q 1544 4750 1819 4750 
Q 2544 4750 2975 4387 
Q 3406 4025 3406 3419 
Q 3406 3131 3298 2873 
Q 3191 2616 2906 2266 
Q 2828 2175 2409 1742 
Q 1991 1309 1228 531 
z
" transform="scale(0.015625)"/>
       </defs>
       <use xlink:href="#DejaVuSans-32"/>
       <use xlink:href="#DejaVuSans-30" x="63.623047"/>
      </g>
     </g>
    </g>
    <g id="text_4">
     <!-- Trial -->
     <g transform="translate(199.379688 365.317813) scale(0.18 -0.18)">
      <defs>
       <path id="DejaVuSans-54" d="M -19 4666 
L 3928 4666 
L 3928 4134 
L 2272 4134 
L 2272 0 
L 1638 0 
L 1638 4134 
L -19 4134 
L -19 4666 
z
" transform="scale(0.015625)"/>
       <path id="DejaVuSans-72" d="M 2631 2963 
Q 2534 3019 2420 3045 
Q 2306 3072 2169 3072 
Q 1681 3072 1420 2755 
Q 1159 2438 1159 1844 
L 1159 0 
L 581 0 
L 581 3500 
L 1159 3500 
L 1159 2956 
Q 1341 3275 1631 3429 
Q 1922 3584 2338 3584 
Q 2397 3584 2469 3576 
Q 2541 3569 2628 3553 
L 2631 2963 
z
" transform="scale(0.015625)"/>
       <path id="DejaVuSans-69" d="M 603 3500 
L 1178 3500 
L 1178 0 
L 603 0 
L 603 3500 
z
M 603 4863 
L 1178 4863 
L 1178 4134 
L 603 4134 
L 603 4863 
z
" transform="scale(0.015625)"/>
       <path id="DejaVuSans-61" d="M 2194 1759 
Q 1497 1759 1228 1600 
Q 959 1441 959 1056 
Q 959 750 1161 570 
Q 1363 391 1709 391 
Q 2188 391 2477 730 
Q 2766 1069 2766 1631 
L 2766 1759 
L 2194 1759 
z
M 3341 1997 
L 3341 0 
L 2766 0 
L 2766 531 
Q 2569 213 2275 61 
Q 1981 -91 1556 -91 
Q 1019 -91 701 211 
Q 384 513 384 1019 
Q 384 1609 779 1909 
Q 1175 2209 1959 2209 
L 2766 2209 
L 2766 2266 
Q 2766 2663 2505 2880 
Q 2244 3097 1772 3097 
Q 1472 3097 1187 3025 
Q 903 2953 641 2809 
L 641 3341 
Q 956 3463 1253 3523 
Q 1550 3584 1831 3584 
Q 2591 3584 2966 3190 
Q 3341 2797 3341 1997 
z
" transform="scale(0.015625)"/>
       <path id="DejaVuSans-6c" d="M 603 4863 
L 1178 4863 
L 1178 0 
L 603 0 
L 603 4863 
z
" transform="scale(0.015625)"/>
      </defs>
      <use xlink:href="#DejaVuSans-54"/>
      <use xlink:href="#DejaVuSans-72" x="46.333984"/>
      <use xlink:href="#DejaVuSans-69" x="87.447266"/>
      <use xlink:href="#DejaVuSans-61" x="115.230469"/>
      <use xlink:href="#DejaVuSans-6c" x="176.509766"/>
     </g>
    </g>
   </g>
   <g id="matplotlib.axis_2">
    <g id="ytick_1">
     <g id="line2d_4">
      <defs>
       <path id="mffb652c9c8" d="M 0 0 
L -3.5 0 
" style="stroke: #000000; stroke-width: 0.8"/>
      </defs>
      <g>
       <use xlink:href="#mffb652c9c8" x="82.01" y="266.976" style="stroke: #000000; stroke-width: 0.8"/>
      </g>
     </g>
     <g id="text_5">
      <!-- 40 -->
      <g transform="translate(52.105 273.814594) scale(0.18 -0.18)">
       <defs>
        <path id="DejaVuSans-34" d="M 2419 4116 
L 825 1625 
L 2419 1625 
L 2419 4116 
z
M 2253 4666 
L 3047 4666 
L 3047 1625 
L 3713 1625 
L 3713 1100 
L 3047 1100 
L 3047 0 
L 2419 0 
L 2419 1100 
L 313 1100 
L 313 1709 
L 2253 4666 
z
" transform="scale(0.015625)"/>
       </defs>
       <use xlink:href="#DejaVuSans-34"/>
       <use xlink:href="#DejaVuSans-30" x="63.623047"/>
      </g>
     </g>
    </g>
    <g id="ytick_2">
     <g id="line2d_5">
      <g>
       <use xlink:href="#mffb652c9c8" x="82.01" y="191.984" style="stroke: #000000; stroke-width: 0.8"/>
      </g>
     </g>
     <g id="text_6">
      <!-- 60 -->
      <g transform="translate(52.105 198.822594) scale(0.18 -0.18)">
       <defs>
        <path id="DejaVuSans-36" d="M 2113 2584 
Q 1688 2584 1439 2293 
Q 1191 2003 1191 1497 
Q 1191 994 1439 701 
Q 1688 409 2113 409 
Q 2538 409 2786 701 
Q 3034 994 3034 1497 
Q 3034 2003 2786 2293 
Q 2538 2584 2113 2584 
z
M 3366 4563 
L 3366 3988 
Q 3128 4100 2886 4159 
Q 2644 4219 2406 4219 
Q 1781 4219 1451 3797 
Q 1122 3375 1075 2522 
Q 1259 2794 1537 2939 
Q 1816 3084 2150 3084 
Q 2853 3084 3261 2657 
Q 3669 2231 3669 1497 
Q 3669 778 3244 343 
Q 2819 -91 2113 -91 
Q 1303 -91 875 529 
Q 447 1150 447 2328 
Q 447 3434 972 4092 
Q 1497 4750 2381 4750 
Q 2619 4750 2861 4703 
Q 3103 4656 3366 4563 
z
" transform="scale(0.015625)"/>
       </defs>
       <use xlink:href="#DejaVuSans-36"/>
       <use xlink:href="#DejaVuSans-30" x="63.623047"/>
      </g>
     </g>
    </g>
    <g id="ytick_3">
     <g id="line2d_6">
      <g>
       <use xlink:href="#mffb652c9c8" x="82.01" y="116.992" style="stroke: #000000; stroke-width: 0.8"/>
      </g>
     </g>
     <g id="text_7">
      <!-- 80 -->
      <g transform="translate(52.105 123.830594) scale(0.18 -0.18)">
       <defs>
        <path id="DejaVuSans-38" d="M 2034 2216 
Q 1584 2216 1326 1975 
Q 1069 1734 1069 1313 
Q 1069 891 1326 650 
Q 1584 409 2034 409 
Q 2484 409 2743 651 
Q 3003 894 3003 1313 
Q 3003 1734 2745 1975 
Q 2488 2216 2034 2216 
z
M 1403 2484 
Q 997 2584 770 2862 
Q 544 3141 544 3541 
Q 544 4100 942 4425 
Q 1341 4750 2034 4750 
Q 2731 4750 3128 4425 
Q 3525 4100 3525 3541 
Q 3525 3141 3298 2862 
Q 3072 2584 2669 2484 
Q 3125 2378 3379 2068 
Q 3634 1759 3634 1313 
Q 3634 634 3220 271 
Q 2806 -91 2034 -91 
Q 1263 -91 848 271 
Q 434 634 434 1313 
Q 434 1759 690 2068 
Q 947 2378 1403 2484 
z
M 1172 3481 
Q 1172 3119 1398 2916 
Q 1625 2713 2034 2713 
Q 2441 2713 2670 2916 
Q 2900 3119 2900 3481 
Q 2900 3844 2670 4047 
Q 2441 4250 2034 4250 
Q 1625 4250 1398 4047 
Q 1172 3844 1172 3481 
z
" transform="scale(0.015625)"/>
       </defs>
       <use xlink:href="#DejaVuSans-38"/>
       <use xlink:href="#DejaVuSans-30" x="63.623047"/>
      </g>
     </g>
    </g>
    <g id="ytick_4">
     <g id="line2d_7">
      <g>
       <use xlink:href="#mffb652c9c8" x="82.01" y="42" style="stroke: #000000; stroke-width: 0.8"/>
      </g>
     </g>
     <g id="text_8">
      <!-- 100 -->
      <g transform="translate(40.6525 48.838594) scale(0.18 -0.18)">
       <use xlink:href="#DejaVuSans-31"/>
       <use xlink:href="#DejaVuSans-30" x="63.623047"/>
       <use xlink:href="#DejaVuSans-30" x="127.246094"/>
      </g>
     </g>
    </g>
    <g id="text_9">
     <!-- Accuracy (%) -->
     <g transform="translate(32.909063 242.135156) rotate(-90) scale(0.18 -0.18)">
      <defs>
       <path id="DejaVuSans-41" d="M 2188 4044 
L 1331 1722 
L 3047 1722 
L 2188 4044 
z
M 1831 4666 
L 2547 4666 
L 4325 0 
L 3669 0 
L 3244 1197 
L 1141 1197 
L 716 0 
L 50 0 
L 1831 4666 
z
" transform="scale(0.015625)"/>
       <path id="DejaVuSans-63" d="M 3122 3366 
L 3122 2828 
Q 2878 2963 2633 3030 
Q 2388 3097 2138 3097 
Q 1578 3097 1268 2742 
Q 959 2388 959 1747 
Q 959 1106 1268 751 
Q 1578 397 2138 397 
Q 2388 397 2633 464 
Q 2878 531 3122 666 
L 3122 134 
Q 2881 22 2623 -34 
Q 2366 -91 2075 -91 
Q 1284 -91 818 406 
Q 353 903 353 1747 
Q 353 2603 823 3093 
Q 1294 3584 2113 3584 
Q 2378 3584 2631 3529 
Q 2884 3475 3122 3366 
z
" transform="scale(0.015625)"/>
       <path id="DejaVuSans-75" d="M 544 1381 
L 544 3500 
L 1119 3500 
L 1119 1403 
Q 1119 906 1312 657 
Q 1506 409 1894 409 
Q 2359 409 2629 706 
Q 2900 1003 2900 1516 
L 2900 3500 
L 3475 3500 
L 3475 0 
L 2900 0 
L 2900 538 
Q 2691 219 2414 64 
Q 2138 -91 1772 -91 
Q 1169 -91 856 284 
Q 544 659 544 1381 
z
M 1991 3584 
L 1991 3584 
z
" transform="scale(0.015625)"/>
       <path id="DejaVuSans-79" d="M 2059 -325 
Q 1816 -950 1584 -1140 
Q 1353 -1331 966 -1331 
L 506 -1331 
L 506 -850 
L 844 -850 
Q 1081 -850 1212 -737 
Q 1344 -625 1503 -206 
L 1606 56 
L 191 3500 
L 800 3500 
L 1894 763 
L 2988 3500 
L 3597 3500 
L 2059 -325 
z
" transform="scale(0.015625)"/>
       <path id="DejaVuSans-20" transform="scale(0.015625)"/>
       <path id="DejaVuSans-28" d="M 1984 4856 
Q 1566 4138 1362 3434 
Q 1159 2731 1159 2009 
Q 1159 1288 1364 580 
Q 1569 -128 1984 -844 
L 1484 -844 
Q 1016 -109 783 600 
Q 550 1309 550 2009 
Q 550 2706 781 3412 
Q 1013 4119 1484 4856 
L 1984 4856 
z
" transform="scale(0.015625)"/>
       <path id="DejaVuSans-25" d="M 4653 2053 
Q 4381 2053 4226 1822 
Q 4072 1591 4072 1178 
Q 4072 772 4226 539 
Q 4381 306 4653 306 
Q 4919 306 5073 539 
Q 5228 772 5228 1178 
Q 5228 1588 5073 1820 
Q 4919 2053 4653 2053 
z
M 4653 2450 
Q 5147 2450 5437 2106 
Q 5728 1763 5728 1178 
Q 5728 594 5436 251 
Q 5144 -91 4653 -91 
Q 4153 -91 3862 251 
Q 3572 594 3572 1178 
Q 3572 1766 3864 2108 
Q 4156 2450 4653 2450 
z
M 1428 4353 
Q 1159 4353 1004 4120 
Q 850 3888 850 3481 
Q 850 3069 1003 2837 
Q 1156 2606 1428 2606 
Q 1700 2606 1854 2837 
Q 2009 3069 2009 3481 
Q 2009 3884 1853 4118 
Q 1697 4353 1428 4353 
z
M 4250 4750 
L 4750 4750 
L 1831 -91 
L 1331 -91 
L 4250 4750 
z
M 1428 4750 
Q 1922 4750 2215 4408 
Q 2509 4066 2509 3481 
Q 2509 2891 2217 2550 
Q 1925 2209 1428 2209 
Q 931 2209 642 2551 
Q 353 2894 353 3481 
Q 353 4063 643 4406 
Q 934 4750 1428 4750 
z
" transform="scale(0.015625)"/>
       <path id="DejaVuSans-29" d="M 513 4856 
L 1013 4856 
Q 1481 4119 1714 3412 
Q 1947 2706 1947 2009 
Q 1947 1309 1714 600 
Q 1481 -109 1013 -844 
L 513 -844 
Q 928 -128 1133 580 
Q 1338 1288 1338 2009 
Q 1338 2731 1133 3434 
Q 928 4138 513 4856 
z
" transform="scale(0.015625)"/>
      </defs>
      <use xlink:href="#DejaVuSans-41"/>
      <use xlink:href="#DejaVuSans-63" x="66.658203"/>
      <use xlink:href="#DejaVuSans-63" x="121.638672"/>
      <use xlink:href="#DejaVuSans-75" x="176.619141"/>
      <use xlink:href="#DejaVuSans-72" x="239.998047"/>
      <use xlink:href="#DejaVuSans-61" x="281.111328"/>
      <use xlink:href="#DejaVuSans-63" x="342.390625"/>
      <use xlink:href="#DejaVuSans-79" x="397.371094"/>
      <use xlink:href="#DejaVuSans-20" x="456.550781"/>
      <use xlink:href="#DejaVuSans-28" x="488.337891"/>
      <use xlink:href="#DejaVuSans-25" x="527.351562"/>
      <use xlink:href="#DejaVuSans-29" x="622.371094"/>
     </g>
    </g>
   </g>
   <g id="line2d_8">
    <path d="M 94.351364 196.497407 
L 104.635833 189.119722 
L 114.920303 180.874074 
L 125.204773 162.126074 
L 135.489242 146.849926 
L 145.773712 140.947778 
L 156.058182 131.920963 
L 166.342652 126.018815 
L 176.627121 121.505407 
L 186.911591 119.769481 
L 197.196061 113.520148 
L 207.48053 112.478593 
L 217.765 111.437037 
L 228.04947 113.520148 
L 238.333939 115.950444 
L 248.618409 118.033556 
L 258.902879 118.727926 
L 269.187348 119.422296 
L 279.471818 113.867333 
L 289.756288 110.395481 
L 300.040758 109.701111 
L 310.325227 104.840519 
L 320.609697 101.889444 
L 330.894167 102.178765 
" clip-path="url(#p34968392b1)" style="fill: none; stroke: #095086; stroke-opacity: 0.75; stroke-width: 3; stroke-linecap: square"/>
   </g>
   <g id="line2d_9">
    <path d="M 104.635833 187.239136 
L 114.920303 175.232315 
L 125.204773 165.945111 
L 135.489242 140.600593 
L 145.773712 125.324444 
L 156.058182 114.908889 
L 166.342652 108.659556 
L 176.627121 104.146148 
L 186.911591 101.021481 
L 197.196061 98.93837 
L 207.48053 97.202444 
L 217.765 94.772148 
L 228.04947 93.036222 
L 238.333939 90.605926 
L 248.618409 88.17563 
L 258.902879 89.911556 
L 269.187348 89.217185 
L 279.471818 88.522815 
L 289.756288 87.481259 
L 300.040758 87.828444 
L 310.325227 83.315037 
L 320.609697 79.843185 
L 330.894167 76.284537 
L 341.178636 77.29716 
" clip-path="url(#p34968392b1)" style="fill: none; stroke-dasharray: 7.4,3.2; stroke-dashoffset: 0; stroke: #095086; stroke-opacity: 0.75; stroke-width: 2"/>
   </g>
   <g id="line2d_10">
    <path d="M 94.351364 176.82358 
L 104.635833 169.590556 
L 114.920303 163.862 
L 125.204773 141.642148 
L 135.489242 133.656889 
L 145.773712 130.879407 
L 156.058182 122.546963 
L 166.342652 118.033556 
L 176.627121 116.992 
L 186.911591 115.603259 
L 197.196061 112.131407 
L 207.48053 111.437037 
L 217.765 111.784222 
L 228.04947 107.965185 
L 238.333939 106.576444 
L 248.618409 102.410222 
L 258.902879 100.674296 
L 269.187348 96.160889 
L 279.471818 97.896815 
L 289.756288 97.202444 
L 300.040758 94.077778 
L 310.325227 94.772148 
L 320.609697 94.077778 
L 330.894167 90.605926 
" clip-path="url(#p34968392b1)" style="fill: none; stroke: #b00000; stroke-opacity: 0.75; stroke-width: 3; stroke-linecap: square"/>
   </g>
   <g id="line2d_11">
    <path d="M 104.635833 183.188642 
L 114.920303 170.024537 
L 125.204773 162.820444 
L 135.489242 140.947778 
L 145.773712 128.796296 
L 156.058182 123.241333 
L 166.342652 119.422296 
L 176.627121 115.603259 
L 186.911591 114.908889 
L 197.196061 115.256074 
L 207.48053 113.172963 
L 217.765 112.478593 
L 228.04947 107.965185 
L 238.333939 105.534889 
L 248.618409 102.757407 
L 258.902879 97.202444 
L 269.187348 89.217185 
L 279.471818 84.009407 
L 289.756288 77.065704 
L 300.040758 73.593852 
L 310.325227 69.774815 
L 320.609697 70.122 
L 330.894167 71.076759 
L 341.178636 71.510741 
" clip-path="url(#p34968392b1)" style="fill: none; stroke-dasharray: 7.4,3.2; stroke-dashoffset: 0; stroke: #b00000; stroke-opacity: 0.75; stroke-width: 2"/>
   </g>
   <g id="patch_3">
    <path d="M 82.01 323.22 
L 82.01 42 
" style="fill: none; stroke: #000000; stroke-width: 0.8; stroke-linejoin: miter; stroke-linecap: square"/>
   </g>
   <g id="patch_4">
    <path d="M 82.01 323.22 
L 353.52 323.22 
" style="fill: none; stroke: #000000; stroke-width: 0.8; stroke-linejoin: miter; stroke-linecap: square"/>
   </g>
   <g id="text_10">
    <!-- No Pain -->
    <g transform="translate(177.155313 36) scale(0.216 -0.216)">
     <defs>
      <path id="DejaVuSans-4e" d="M 628 4666 
L 1478 4666 
L 3547 763 
L 3547 4666 
L 4159 4666 
L 4159 0 
L 3309 0 
L 1241 3903 
L 1241 0 
L 628 0 
L 628 4666 
z
" transform="scale(0.015625)"/>
      <path id="DejaVuSans-6f" d="M 1959 3097 
Q 1497 3097 1228 2736 
Q 959 2375 959 1747 
Q 959 1119 1226 758 
Q 1494 397 1959 397 
Q 2419 397 2687 759 
Q 2956 1122 2956 1747 
Q 2956 2369 2687 2733 
Q 2419 3097 1959 3097 
z
M 1959 3584 
Q 2709 3584 3137 3096 
Q 3566 2609 3566 1747 
Q 3566 888 3137 398 
Q 2709 -91 1959 -91 
Q 1206 -91 779 398 
Q 353 888 353 1747 
Q 353 2609 779 3096 
Q 1206 3584 1959 3584 
z
" transform="scale(0.015625)"/>
      <path id="DejaVuSans-50" d="M 1259 4147 
L 1259 2394 
L 2053 2394 
Q 2494 2394 2734 2622 
Q 2975 2850 2975 3272 
Q 2975 3691 2734 3919 
Q 2494 4147 2053 4147 
L 1259 4147 
z
M 628 4666 
L 2053 4666 
Q 2838 4666 3239 4311 
Q 3641 3956 3641 3272 
Q 3641 2581 3239 2228 
Q 2838 1875 2053 1875 
L 1259 1875 
L 1259 0 
L 628 0 
L 628 4666 
z
" transform="scale(0.015625)"/>
      <path id="DejaVuSans-6e" d="M 3513 2113 
L 3513 0 
L 2938 0 
L 2938 2094 
Q 2938 2591 2744 2837 
Q 2550 3084 2163 3084 
Q 1697 3084 1428 2787 
Q 1159 2491 1159 1978 
L 1159 0 
L 581 0 
L 581 3500 
L 1159 3500 
L 1159 2956 
Q 1366 3272 1645 3428 
Q 1925 3584 2291 3584 
Q 2894 3584 3203 3211 
Q 3513 2838 3513 2113 
z
" transform="scale(0.015625)"/>
     </defs>
     <use xlink:href="#DejaVuSans-4e"/>
     <use xlink:href="#DejaVuSans-6f" x="74.804688"/>
     <use xlink:href="#DejaVuSans-20" x="135.986328"/>
     <use xlink:href="#DejaVuSans-50" x="167.773438"/>
     <use xlink:href="#DejaVuSans-61" x="223.576172"/>
     <use xlink:href="#DejaVuSans-69" x="284.855469"/>
     <use xlink:href="#DejaVuSans-6e" x="312.638672"/>
    </g>
   </g>
   <g id="legend_1">
    <g id="line2d_12">
     <path d="M 219.884062 270.555938 
L 237.884062 270.555938 
L 255.884062 270.555938 
" style="fill: none; stroke: #095086; stroke-opacity: 0.75; stroke-width: 3; stroke-linecap: square"/>
    </g>
    <g id="text_11">
     <!-- Reward -->
     <g transform="translate(270.284062 276.855938) scale(0.18 -0.18)">
      <defs>
       <path id="DejaVuSans-52" d="M 2841 2188 
Q 3044 2119 3236 1894 
Q 3428 1669 3622 1275 
L 4263 0 
L 3584 0 
L 2988 1197 
Q 2756 1666 2539 1819 
Q 2322 1972 1947 1972 
L 1259 1972 
L 1259 0 
L 628 0 
L 628 4666 
L 2053 4666 
Q 2853 4666 3247 4331 
Q 3641 3997 3641 3322 
Q 3641 2881 3436 2590 
Q 3231 2300 2841 2188 
z
M 1259 4147 
L 1259 2491 
L 2053 2491 
Q 2509 2491 2742 2702 
Q 2975 2913 2975 3322 
Q 2975 3731 2742 3939 
Q 2509 4147 2053 4147 
L 1259 4147 
z
" transform="scale(0.015625)"/>
       <path id="DejaVuSans-65" d="M 3597 1894 
L 3597 1613 
L 953 1613 
Q 991 1019 1311 708 
Q 1631 397 2203 397 
Q 2534 397 2845 478 
Q 3156 559 3463 722 
L 3463 178 
Q 3153 47 2828 -22 
Q 2503 -91 2169 -91 
Q 1331 -91 842 396 
Q 353 884 353 1716 
Q 353 2575 817 3079 
Q 1281 3584 2069 3584 
Q 2775 3584 3186 3129 
Q 3597 2675 3597 1894 
z
M 3022 2063 
Q 3016 2534 2758 2815 
Q 2500 3097 2075 3097 
Q 1594 3097 1305 2825 
Q 1016 2553 972 2059 
L 3022 2063 
z
" transform="scale(0.015625)"/>
       <path id="DejaVuSans-77" d="M 269 3500 
L 844 3500 
L 1563 769 
L 2278 3500 
L 2956 3500 
L 3675 769 
L 4391 3500 
L 4966 3500 
L 4050 0 
L 3372 0 
L 2619 2869 
L 1863 0 
L 1184 0 
L 269 3500 
z
" transform="scale(0.015625)"/>
       <path id="DejaVuSans-64" d="M 2906 2969 
L 2906 4863 
L 3481 4863 
L 3481 0 
L 2906 0 
L 2906 525 
Q 2725 213 2448 61 
Q 2172 -91 1784 -91 
Q 1150 -91 751 415 
Q 353 922 353 1747 
Q 353 2572 751 3078 
Q 1150 3584 1784 3584 
Q 2172 3584 2448 3432 
Q 2725 3281 2906 2969 
z
M 947 1747 
Q 947 1113 1208 752 
Q 1469 391 1925 391 
Q 2381 391 2643 752 
Q 2906 1113 2906 1747 
Q 2906 2381 2643 2742 
Q 2381 3103 1925 3103 
Q 1469 3103 1208 2742 
Q 947 2381 947 1747 
z
" transform="scale(0.015625)"/>
      </defs>
      <use xlink:href="#DejaVuSans-52"/>
      <use xlink:href="#DejaVuSans-65" x="64.982422"/>
      <use xlink:href="#DejaVuSans-77" x="126.505859"/>
      <use xlink:href="#DejaVuSans-61" x="208.292969"/>
      <use xlink:href="#DejaVuSans-72" x="269.572266"/>
      <use xlink:href="#DejaVuSans-64" x="308.935547"/>
     </g>
    </g>
    <g id="line2d_13">
     <path d="M 219.884062 296.976563 
L 237.884062 296.976563 
L 255.884062 296.976563 
" style="fill: none; stroke: #b00000; stroke-opacity: 0.75; stroke-width: 3; stroke-linecap: square"/>
    </g>
    <g id="text_12">
     <!-- Punish -->
     <g transform="translate(270.284062 303.276563) scale(0.18 -0.18)">
      <defs>
       <path id="DejaVuSans-73" d="M 2834 3397 
L 2834 2853 
Q 2591 2978 2328 3040 
Q 2066 3103 1784 3103 
Q 1356 3103 1142 2972 
Q 928 2841 928 2578 
Q 928 2378 1081 2264 
Q 1234 2150 1697 2047 
L 1894 2003 
Q 2506 1872 2764 1633 
Q 3022 1394 3022 966 
Q 3022 478 2636 193 
Q 2250 -91 1575 -91 
Q 1294 -91 989 -36 
Q 684 19 347 128 
L 347 722 
Q 666 556 975 473 
Q 1284 391 1588 391 
Q 1994 391 2212 530 
Q 2431 669 2431 922 
Q 2431 1156 2273 1281 
Q 2116 1406 1581 1522 
L 1381 1569 
Q 847 1681 609 1914 
Q 372 2147 372 2553 
Q 372 3047 722 3315 
Q 1072 3584 1716 3584 
Q 2034 3584 2315 3537 
Q 2597 3491 2834 3397 
z
" transform="scale(0.015625)"/>
       <path id="DejaVuSans-68" d="M 3513 2113 
L 3513 0 
L 2938 0 
L 2938 2094 
Q 2938 2591 2744 2837 
Q 2550 3084 2163 3084 
Q 1697 3084 1428 2787 
Q 1159 2491 1159 1978 
L 1159 0 
L 581 0 
L 581 4863 
L 1159 4863 
L 1159 2956 
Q 1366 3272 1645 3428 
Q 1925 3584 2291 3584 
Q 2894 3584 3203 3211 
Q 3513 2838 3513 2113 
z
" transform="scale(0.015625)"/>
      </defs>
      <use xlink:href="#DejaVuSans-50"/>
      <use xlink:href="#DejaVuSans-75" x="58.552734"/>
      <use xlink:href="#DejaVuSans-6e" x="121.931641"/>
      <use xlink:href="#DejaVuSans-69" x="185.310547"/>
      <use xlink:href="#DejaVuSans-73" x="213.09375"/>
      <use xlink:href="#DejaVuSans-68" x="265.193359"/>
     </g>
    </g>
   </g>
  </g>
  <g id="axes_2">
   <g id="patch_5">
    <path d="M 435.53 323.22 
L 707.04 323.22 
L 707.04 42 
L 435.53 42 
z
" style="fill: #ffffff"/>
   </g>
   <g id="PolyCollection_3">
    <path d="M 447.871364 179.175795 
L 447.871364 244.41062 
L 458.155833 239.687072 
L 468.440303 232.402215 
L 478.724773 207.056992 
L 489.009242 189.717865 
L 499.293712 175.315184 
L 509.578182 163.169984 
L 519.862652 153.821077 
L 530.147121 148.677627 
L 540.431591 153.265381 
L 550.716061 157.182991 
L 561.00053 157.009278 
L 571.285 157.20117 
L 581.56947 150.949681 
L 591.853939 140.168263 
L 602.138409 140.700767 
L 612.422879 135.70593 
L 622.707348 151.968331 
L 632.991818 143.277908 
L 643.276288 147.016316 
L 653.560758 138.810007 
L 663.845227 129.593342 
L 674.129697 121.27689 
L 684.414167 113.344791 
L 684.414167 67.343008 
L 684.414167 67.343008 
L 674.129697 67.075186 
L 663.845227 80.33662 
L 653.560758 78.194672 
L 643.276288 81.30791 
L 632.991818 89.291149 
L 622.707348 83.430612 
L 612.422879 79.883806 
L 602.138409 79.133799 
L 591.853939 88.155964 
L 581.56947 88.694093 
L 571.285 82.442603 
L 561.00053 91.124156 
L 550.716061 92.365386 
L 540.431591 87.793336 
L 530.147121 89.551204 
L 519.862652 98.557187 
L 509.578182 97.69794 
L 499.293712 109.606778 
L 489.009242 120.673078 
L 478.724773 128.802932 
L 468.440303 151.565785 
L 458.155833 169.749909 
L 447.871364 179.175795 
z
" clip-path="url(#p85a878adea)" style="fill: #095086; fill-opacity: 0.1"/>
   </g>
   <g id="PolyCollection_4">
    <path d="M 447.871364 150.704082 
L 447.871364 223.359314 
L 458.155833 216.997748 
L 468.440303 202.856484 
L 478.724773 194.811659 
L 489.009242 180.513853 
L 499.293712 185.271707 
L 509.578182 172.895089 
L 519.862652 172.645508 
L 530.147121 154.987883 
L 540.431591 156.453424 
L 550.716061 144.942961 
L 561.00053 146.829114 
L 571.285 143.277908 
L 581.56947 145.841349 
L 591.853939 146.190664 
L 602.138409 144.847566 
L 612.422879 145.551277 
L 622.707348 143.478958 
L 632.991818 137.769088 
L 643.276288 131.514534 
L 653.560758 128.954169 
L 663.845227 126.782988 
L 674.129697 121.663599 
L 684.414167 121.598627 
L 684.414167 75.596845 
L 684.414167 75.596845 
L 674.129697 73.763193 
L 663.845227 66.167654 
L 653.560758 73.901077 
L 643.276288 81.245315 
L 632.991818 79.235591 
L 622.707348 77.770552 
L 612.422879 87.01778 
L 602.138409 87.721491 
L 591.853939 80.718619 
L 581.56947 83.897821 
L 571.285 89.291149 
L 561.00053 84.325 
L 550.716061 90.455983 
L 540.431591 94.509897 
L 530.147121 103.050154 
L 519.862652 100.956908 
L 509.578182 113.441817 
L 499.293712 113.799689 
L 489.009242 121.38743 
L 478.724773 126.898831 
L 468.440303 144.322987 
L 458.155833 142.916214 
L 447.871364 150.704082 
z
" clip-path="url(#p85a878adea)" style="fill: #b00000; fill-opacity: 0.1"/>
   </g>
   <g id="matplotlib.axis_3">
    <g id="xtick_4">
     <g id="line2d_14">
      <g>
       <use xlink:href="#m7030b58b74" x="447.871364" y="323.22" style="stroke: #000000; stroke-width: 0.8"/>
      </g>
     </g>
     <g id="text_13">
      <!-- 0 -->
      <g transform="translate(442.145114 343.897188) scale(0.18 -0.18)">
       <use xlink:href="#DejaVuSans-30"/>
      </g>
     </g>
    </g>
    <g id="xtick_5">
     <g id="line2d_15">
      <g>
       <use xlink:href="#m7030b58b74" x="550.716061" y="323.22" style="stroke: #000000; stroke-width: 0.8"/>
      </g>
     </g>
     <g id="text_14">
      <!-- 10 -->
      <g transform="translate(539.263561 343.897188) scale(0.18 -0.18)">
       <use xlink:href="#DejaVuSans-31"/>
       <use xlink:href="#DejaVuSans-30" x="63.623047"/>
      </g>
     </g>
    </g>
    <g id="xtick_6">
     <g id="line2d_16">
      <g>
       <use xlink:href="#m7030b58b74" x="653.560758" y="323.22" style="stroke: #000000; stroke-width: 0.8"/>
      </g>
     </g>
     <g id="text_15">
      <!-- 20 -->
      <g transform="translate(642.108258 343.897188) scale(0.18 -0.18)">
       <use xlink:href="#DejaVuSans-32"/>
       <use xlink:href="#DejaVuSans-30" x="63.623047"/>
      </g>
     </g>
    </g>
    <g id="text_16">
     <!-- Trial -->
     <g transform="translate(552.899688 365.317813) scale(0.18 -0.18)">
      <use xlink:href="#DejaVuSans-54"/>
      <use xlink:href="#DejaVuSans-72" x="46.333984"/>
      <use xlink:href="#DejaVuSans-69" x="87.447266"/>
      <use xlink:href="#DejaVuSans-61" x="115.230469"/>
      <use xlink:href="#DejaVuSans-6c" x="176.509766"/>
     </g>
    </g>
   </g>
   <g id="matplotlib.axis_4">
    <g id="ytick_5">
     <g id="line2d_17">
      <g>
       <use xlink:href="#mffb652c9c8" x="435.53" y="266.976" style="stroke: #000000; stroke-width: 0.8"/>
      </g>
     </g>
     <g id="text_17">
      <!-- 40 -->
      <g transform="translate(405.625 273.814594) scale(0.18 -0.18)">
       <use xlink:href="#DejaVuSans-34"/>
       <use xlink:href="#DejaVuSans-30" x="63.623047"/>
      </g>
     </g>
    </g>
    <g id="ytick_6">
     <g id="line2d_18">
      <g>
       <use xlink:href="#mffb652c9c8" x="435.53" y="191.984" style="stroke: #000000; stroke-width: 0.8"/>
      </g>
     </g>
     <g id="text_18">
      <!-- 60 -->
      <g transform="translate(405.625 198.822594) scale(0.18 -0.18)">
       <use xlink:href="#DejaVuSans-36"/>
       <use xlink:href="#DejaVuSans-30" x="63.623047"/>
      </g>
     </g>
    </g>
    <g id="ytick_7">
     <g id="line2d_19">
      <g>
       <use xlink:href="#mffb652c9c8" x="435.53" y="116.992" style="stroke: #000000; stroke-width: 0.8"/>
      </g>
     </g>
     <g id="text_19">
      <!-- 80 -->
      <g transform="translate(405.625 123.830594) scale(0.18 -0.18)">
       <use xlink:href="#DejaVuSans-38"/>
       <use xlink:href="#DejaVuSans-30" x="63.623047"/>
      </g>
     </g>
    </g>
    <g id="ytick_8">
     <g id="line2d_20">
      <g>
       <use xlink:href="#mffb652c9c8" x="435.53" y="42" style="stroke: #000000; stroke-width: 0.8"/>
      </g>
     </g>
     <g id="text_20">
      <!-- 100 -->
      <g transform="translate(394.1725 48.838594) scale(0.18 -0.18)">
       <use xlink:href="#DejaVuSans-31"/>
       <use xlink:href="#DejaVuSans-30" x="63.623047"/>
       <use xlink:href="#DejaVuSans-30" x="127.246094"/>
      </g>
     </g>
    </g>
    <g id="text_21">
     <!-- Accuracy (%) -->
     <g transform="translate(386.429063 242.135156) rotate(-90) scale(0.18 -0.18)">
      <use xlink:href="#DejaVuSans-41"/>
      <use xlink:href="#DejaVuSans-63" x="66.658203"/>
      <use xlink:href="#DejaVuSans-63" x="121.638672"/>
      <use xlink:href="#DejaVuSans-75" x="176.619141"/>
      <use xlink:href="#DejaVuSans-72" x="239.998047"/>
      <use xlink:href="#DejaVuSans-61" x="281.111328"/>
      <use xlink:href="#DejaVuSans-63" x="342.390625"/>
      <use xlink:href="#DejaVuSans-79" x="397.371094"/>
      <use xlink:href="#DejaVuSans-20" x="456.550781"/>
      <use xlink:href="#DejaVuSans-28" x="488.337891"/>
      <use xlink:href="#DejaVuSans-25" x="527.351562"/>
      <use xlink:href="#DejaVuSans-29" x="622.371094"/>
     </g>
    </g>
   </g>
   <g id="line2d_21">
    <path d="M 447.871364 211.793208 
L 458.155833 204.718491 
L 468.440303 191.984 
L 478.724773 167.929962 
L 489.009242 155.195472 
L 499.293712 142.460981 
L 509.578182 130.433962 
L 519.862652 126.189132 
L 530.147121 119.114415 
L 540.431591 120.529358 
L 550.716061 124.774189 
L 561.00053 124.066717 
L 571.285 119.821887 
L 581.56947 119.821887 
L 591.853939 114.162113 
L 602.138409 109.917283 
L 612.422879 107.794868 
L 622.707348 117.699472 
L 632.991818 116.284528 
L 643.276288 114.162113 
L 653.560758 108.50234 
L 663.845227 104.964981 
L 674.129697 94.176038 
L 684.414167 90.343899 
" clip-path="url(#p85a878adea)" style="fill: none; stroke: #095086; stroke-opacity: 0.75; stroke-width: 3; stroke-linecap: square"/>
   </g>
   <g id="line2d_22">
    <path d="M 458.155833 190.569057 
L 468.440303 178.188302 
L 478.724773 167.222491 
L 489.009242 148.828226 
L 499.293712 134.678792 
L 509.578182 124.774189 
L 519.862652 116.284528 
L 530.147121 109.917283 
L 540.431591 102.135094 
L 550.716061 99.305208 
L 561.00053 94.352906 
L 571.285 93.645434 
L 581.56947 93.645434 
L 591.853939 99.305208 
L 602.138409 93.645434 
L 612.422879 90.108075 
L 622.707348 85.863245 
L 632.991818 85.155774 
L 643.276288 75.25117 
L 653.560758 76.666113 
L 663.845227 78.788528 
L 674.129697 78.788528 
L 684.414167 76.489245 
L 694.698636 82.090063 
" clip-path="url(#p85a878adea)" style="fill: none; stroke-dasharray: 7.4,3.2; stroke-dashoffset: 0; stroke: #095086; stroke-opacity: 0.75; stroke-width: 2"/>
   </g>
   <g id="line2d_23">
    <path d="M 447.871364 187.031698 
L 458.155833 179.956981 
L 468.440303 173.589736 
L 478.724773 160.855245 
L 489.009242 150.950642 
L 499.293712 149.535698 
L 509.578182 143.168453 
L 519.862652 136.801208 
L 530.147121 129.019019 
L 540.431591 125.48166 
L 550.716061 117.699472 
L 561.00053 115.577057 
L 571.285 116.284528 
L 581.56947 114.869585 
L 591.853939 113.454642 
L 602.138409 116.284528 
L 612.422879 116.284528 
L 622.707348 110.624755 
L 632.991818 108.50234 
L 643.276288 106.379925 
L 653.560758 101.427623 
L 663.845227 96.475321 
L 674.129697 97.713396 
L 684.414167 98.597736 
" clip-path="url(#p85a878adea)" style="fill: none; stroke: #b00000; stroke-opacity: 0.75; stroke-width: 3; stroke-linecap: square"/>
   </g>
   <g id="line2d_24">
    <path d="M 458.155833 192.927296 
L 468.440303 189.684717 
L 478.724773 178.542038 
L 489.009242 162.270189 
L 499.293712 149.535698 
L 509.578182 133.263849 
L 519.862652 117.699472 
L 530.147121 110.624755 
L 540.431591 107.794868 
L 550.716061 104.257509 
L 561.00053 102.842566 
L 571.285 104.257509 
L 581.56947 102.135094 
L 591.853939 98.597736 
L 602.138409 95.060377 
L 612.422879 92.937962 
L 622.707348 90.108075 
L 632.991818 88.693132 
L 643.276288 87.98566 
L 653.560758 88.693132 
L 663.845227 85.155774 
L 674.129697 80.910943 
L 684.414167 80.910943 
L 694.698636 77.373585 
" clip-path="url(#p85a878adea)" style="fill: none; stroke-dasharray: 7.4,3.2; stroke-dashoffset: 0; stroke: #b00000; stroke-opacity: 0.75; stroke-width: 2"/>
   </g>
   <g id="patch_6">
    <path d="M 435.53 323.22 
L 435.53 42 
" style="fill: none; stroke: #000000; stroke-width: 0.8; stroke-linejoin: miter; stroke-linecap: square"/>
   </g>
   <g id="patch_7">
    <path d="M 435.53 323.22 
L 707.04 323.22 
" style="fill: none; stroke: #000000; stroke-width: 0.8; stroke-linejoin: miter; stroke-linecap: square"/>
   </g>
   <g id="text_22">
    <!-- Acute Pain -->
    <g transform="translate(514.502313 36) scale(0.216 -0.216)">
     <defs>
      <path id="DejaVuSans-74" d="M 1172 4494 
L 1172 3500 
L 2356 3500 
L 2356 3053 
L 1172 3053 
L 1172 1153 
Q 1172 725 1289 603 
Q 1406 481 1766 481 
L 2356 481 
L 2356 0 
L 1766 0 
Q 1100 0 847 248 
Q 594 497 594 1153 
L 594 3053 
L 172 3053 
L 172 3500 
L 594 3500 
L 594 4494 
L 1172 4494 
z
" transform="scale(0.015625)"/>
     </defs>
     <use xlink:href="#DejaVuSans-41"/>
     <use xlink:href="#DejaVuSans-63" x="66.658203"/>
     <use xlink:href="#DejaVuSans-75" x="121.638672"/>
     <use xlink:href="#DejaVuSans-74" x="185.017578"/>
     <use xlink:href="#DejaVuSans-65" x="224.226562"/>
     <use xlink:href="#DejaVuSans-20" x="285.75"/>
     <use xlink:href="#DejaVuSans-50" x="317.537109"/>
     <use xlink:href="#DejaVuSans-61" x="373.339844"/>
     <use xlink:href="#DejaVuSans-69" x="434.619141"/>
     <use xlink:href="#DejaVuSans-6e" x="462.402344"/>
    </g>
   </g>
   <g id="legend_2">
    <g id="line2d_25">
     <path d="M 573.404063 270.555938 
L 591.404063 270.555938 
L 609.404063 270.555938 
" style="fill: none; stroke: #095086; stroke-opacity: 0.75; stroke-width: 3; stroke-linecap: square"/>
    </g>
    <g id="text_23">
     <!-- Reward -->
     <g transform="translate(623.804062 276.855938) scale(0.18 -0.18)">
      <use xlink:href="#DejaVuSans-52"/>
      <use xlink:href="#DejaVuSans-65" x="64.982422"/>
      <use xlink:href="#DejaVuSans-77" x="126.505859"/>
      <use xlink:href="#DejaVuSans-61" x="208.292969"/>
      <use xlink:href="#DejaVuSans-72" x="269.572266"/>
      <use xlink:href="#DejaVuSans-64" x="308.935547"/>
     </g>
    </g>
    <g id="line2d_26">
     <path d="M 573.404063 296.976563 
L 591.404063 296.976563 
L 609.404063 296.976563 
" style="fill: none; stroke: #b00000; stroke-opacity: 0.75; stroke-width: 3; stroke-linecap: square"/>
    </g>
    <g id="text_24">
     <!-- Punish -->
     <g transform="translate(623.804062 303.276563) scale(0.18 -0.18)">
      <use xlink:href="#DejaVuSans-50"/>
      <use xlink:href="#DejaVuSans-75" x="58.552734"/>
      <use xlink:href="#DejaVuSans-6e" x="121.931641"/>
      <use xlink:href="#DejaVuSans-69" x="185.310547"/>
      <use xlink:href="#DejaVuSans-73" x="213.09375"/>
      <use xlink:href="#DejaVuSans-68" x="265.193359"/>
     </g>
    </g>
   </g>
  </g>
  <g id="axes_3">
   <g id="patch_8">
    <path d="M 789.05 323.22 
L 1060.56 323.22 
L 1060.56 42 
L 789.05 42 
z
" style="fill: #ffffff"/>
   </g>
   <g id="PolyCollection_5">
    <path d="M 801.391364 147.595905 
L 801.391364 208.810933 
L 811.675833 203.680564 
L 821.960303 201.57371 
L 832.244773 185.798172 
L 842.529242 180.593875 
L 852.813712 172.42833 
L 863.098182 166.746332 
L 873.382652 158.052323 
L 883.667121 154.189514 
L 893.951591 151.23525 
L 904.236061 151.581705 
L 914.52053 143.208828 
L 924.805 143.213884 
L 935.08947 137.485047 
L 945.373939 135.976407 
L 955.658409 137.064159 
L 965.942879 139.72184 
L 976.227348 137.773728 
L 986.511818 136.289028 
L 996.796288 124.573357 
L 1007.080758 122.633689 
L 1017.365227 114.679588 
L 1027.649697 118.264369 
L 1037.934167 115.919914 
L 1037.934167 67.428462 
L 1037.934167 67.428462 
L 1027.649697 72.695375 
L 1017.365227 77.001232 
L 1007.080758 75.777183 
L 996.796288 83.451874 
L 986.511818 88.080613 
L 976.227348 86.595913 
L 965.942879 91.377853 
L 955.658409 88.266918 
L 945.373939 90.316106 
L 935.08947 92.653209 
L 924.805 93.654424 
L 914.52053 92.698044 
L 904.236061 97.785269 
L 893.951591 105.823211 
L 883.667121 101.907511 
L 873.382652 105.73619 
L 863.098182 116.270899 
L 852.813712 120.20326 
L 842.529242 122.61351 
L 832.244773 129.90788 
L 821.960303 142.013982 
L 811.675833 145.916103 
L 801.391364 147.595905 
z
" clip-path="url(#p272f44d4d4)" style="fill: #095086; fill-opacity: 0.1"/>
   </g>
   <g id="PolyCollection_6">
    <path d="M 801.391364 168.636173 
L 801.391364 231.03528 
L 811.675833 219.892231 
L 821.960303 203.735528 
L 832.244773 190.354459 
L 842.529242 170.61564 
L 852.813712 161.400284 
L 863.098182 156.362372 
L 873.382652 150.641762 
L 883.667121 140.442075 
L 893.951591 132.750588 
L 904.236061 130.796617 
L 914.52053 124.031561 
L 924.805 124.795763 
L 935.08947 126.62501 
L 945.373939 129.324408 
L 955.658409 127.223456 
L 965.942879 126.969082 
L 976.227348 124.231981 
L 986.511818 121.008367 
L 996.796288 120.859022 
L 1007.080758 117.981084 
L 1017.365227 117.929938 
L 1027.649697 119.786738 
L 1037.934167 118.77591 
L 1037.934167 72.584431 
L 1037.934167 72.584431 
L 1027.649697 72.374801 
L 1017.365227 76.63519 
L 1007.080758 74.661172 
L 996.796288 74.667543 
L 986.511818 82.209684 
L 976.227348 81.870378 
L 965.942879 78.171841 
L 955.658409 82.724647 
L 945.373939 83.508002 
L 935.08947 79.477349 
L 924.805 79.383724 
L 914.52053 86.877977 
L 904.236061 82.997229 
L 893.951591 84.889002 
L 883.667121 92.580489 
L 873.382652 98.725212 
L 863.098182 100.69609 
L 852.813712 109.11828 
L 842.529242 120.093078 
L 832.244773 130.158772 
L 821.960303 150.427959 
L 811.675833 154.942128 
L 801.391364 168.636173 
z
" clip-path="url(#p272f44d4d4)" style="fill: #b00000; fill-opacity: 0.1"/>
   </g>
   <g id="matplotlib.axis_5">
    <g id="xtick_7">
     <g id="line2d_27">
      <g>
       <use xlink:href="#m7030b58b74" x="801.391364" y="323.22" style="stroke: #000000; stroke-width: 0.8"/>
      </g>
     </g>
     <g id="text_25">
      <!-- 0 -->
      <g transform="translate(795.665114 343.897188) scale(0.18 -0.18)">
       <use xlink:href="#DejaVuSans-30"/>
      </g>
     </g>
    </g>
    <g id="xtick_8">
     <g id="line2d_28">
      <g>
       <use xlink:href="#m7030b58b74" x="904.236061" y="323.22" style="stroke: #000000; stroke-width: 0.8"/>
      </g>
     </g>
     <g id="text_26">
      <!-- 10 -->
      <g transform="translate(892.783561 343.897188) scale(0.18 -0.18)">
       <use xlink:href="#DejaVuSans-31"/>
       <use xlink:href="#DejaVuSans-30" x="63.623047"/>
      </g>
     </g>
    </g>
    <g id="xtick_9">
     <g id="line2d_29">
      <g>
       <use xlink:href="#m7030b58b74" x="1007.080758" y="323.22" style="stroke: #000000; stroke-width: 0.8"/>
      </g>
     </g>
     <g id="text_27">
      <!-- 20 -->
      <g transform="translate(995.628258 343.897188) scale(0.18 -0.18)">
       <use xlink:href="#DejaVuSans-32"/>
       <use xlink:href="#DejaVuSans-30" x="63.623047"/>
      </g>
     </g>
    </g>
    <g id="text_28">
     <!-- Trial -->
     <g transform="translate(906.419688 365.317813) scale(0.18 -0.18)">
      <use xlink:href="#DejaVuSans-54"/>
      <use xlink:href="#DejaVuSans-72" x="46.333984"/>
      <use xlink:href="#DejaVuSans-69" x="87.447266"/>
      <use xlink:href="#DejaVuSans-61" x="115.230469"/>
      <use xlink:href="#DejaVuSans-6c" x="176.509766"/>
     </g>
    </g>
   </g>
   <g id="matplotlib.axis_6">
    <g id="ytick_9">
     <g id="line2d_30">
      <g>
       <use xlink:href="#mffb652c9c8" x="789.05" y="266.976" style="stroke: #000000; stroke-width: 0.8"/>
      </g>
     </g>
     <g id="text_29">
      <!-- 40 -->
      <g transform="translate(759.145 273.814594) scale(0.18 -0.18)">
       <use xlink:href="#DejaVuSans-34"/>
       <use xlink:href="#DejaVuSans-30" x="63.623047"/>
      </g>
     </g>
    </g>
    <g id="ytick_10">
     <g id="line2d_31">
      <g>
       <use xlink:href="#mffb652c9c8" x="789.05" y="191.984" style="stroke: #000000; stroke-width: 0.8"/>
      </g>
     </g>
     <g id="text_30">
      <!-- 60 -->
      <g transform="translate(759.145 198.822594) scale(0.18 -0.18)">
       <use xlink:href="#DejaVuSans-36"/>
       <use xlink:href="#DejaVuSans-30" x="63.623047"/>
      </g>
     </g>
    </g>
    <g id="ytick_11">
     <g id="line2d_32">
      <g>
       <use xlink:href="#mffb652c9c8" x="789.05" y="116.992" style="stroke: #000000; stroke-width: 0.8"/>
      </g>
     </g>
     <g id="text_31">
      <!-- 80 -->
      <g transform="translate(759.145 123.830594) scale(0.18 -0.18)">
       <use xlink:href="#DejaVuSans-38"/>
       <use xlink:href="#DejaVuSans-30" x="63.623047"/>
      </g>
     </g>
    </g>
    <g id="ytick_12">
     <g id="line2d_33">
      <g>
       <use xlink:href="#mffb652c9c8" x="789.05" y="42" style="stroke: #000000; stroke-width: 0.8"/>
      </g>
     </g>
     <g id="text_32">
      <!-- 100 -->
      <g transform="translate(747.6925 48.838594) scale(0.18 -0.18)">
       <use xlink:href="#DejaVuSans-31"/>
       <use xlink:href="#DejaVuSans-30" x="63.623047"/>
       <use xlink:href="#DejaVuSans-30" x="127.246094"/>
      </g>
     </g>
    </g>
    <g id="text_33">
     <!-- Accuracy (%) -->
     <g transform="translate(739.949063 242.135156) rotate(-90) scale(0.18 -0.18)">
      <use xlink:href="#DejaVuSans-41"/>
      <use xlink:href="#DejaVuSans-63" x="66.658203"/>
      <use xlink:href="#DejaVuSans-63" x="121.638672"/>
      <use xlink:href="#DejaVuSans-75" x="176.619141"/>
      <use xlink:href="#DejaVuSans-72" x="239.998047"/>
      <use xlink:href="#DejaVuSans-61" x="281.111328"/>
      <use xlink:href="#DejaVuSans-63" x="342.390625"/>
      <use xlink:href="#DejaVuSans-79" x="397.371094"/>
      <use xlink:href="#DejaVuSans-20" x="456.550781"/>
      <use xlink:href="#DejaVuSans-28" x="488.337891"/>
      <use xlink:href="#DejaVuSans-25" x="527.351562"/>
      <use xlink:href="#DejaVuSans-29" x="622.371094"/>
     </g>
    </g>
   </g>
   <g id="line2d_34">
    <path d="M 801.391364 178.203419 
L 811.675833 174.798333 
L 821.960303 171.793846 
L 832.244773 157.853026 
L 842.529242 151.603692 
L 852.813712 146.315795 
L 863.098182 141.508615 
L 873.382652 131.894256 
L 883.667121 128.048513 
L 893.951591 128.529231 
L 904.236061 124.683487 
L 914.52053 117.953436 
L 924.805 118.434154 
L 935.08947 115.069128 
L 945.373939 113.146256 
L 955.658409 112.665538 
L 965.942879 115.549846 
L 976.227348 112.184821 
L 986.511818 112.184821 
L 996.796288 104.012615 
L 1007.080758 99.205436 
L 1017.365227 95.84041 
L 1027.649697 95.479872 
L 1037.934167 91.674188 
" clip-path="url(#p272f44d4d4)" style="fill: none; stroke: #095086; stroke-opacity: 0.75; stroke-width: 3; stroke-linecap: square"/>
   </g>
   <g id="line2d_35">
    <path d="M 811.675833 199.835726 
L 821.960303 188.018077 
L 832.244773 179.004615 
L 842.529242 161.218051 
L 852.813712 141.508615 
L 863.098182 128.048513 
L 873.382652 120.837744 
L 883.667121 112.665538 
L 893.951591 106.416205 
L 904.236061 106.416205 
L 914.52053 100.64759 
L 924.805 96.801846 
L 935.08947 93.436821 
L 945.373939 92.475385 
L 955.658409 85.264615 
L 965.942879 87.187487 
L 976.227348 84.783897 
L 986.511818 83.341744 
L 996.796288 78.053846 
L 1007.080758 80.938154 
L 1017.365227 78.053846 
L 1027.649697 76.130974 
L 1037.934167 75.650256 
L 1048.218636 77.25265 
" clip-path="url(#p272f44d4d4)" style="fill: none; stroke-dasharray: 7.4,3.2; stroke-dashoffset: 0; stroke: #095086; stroke-opacity: 0.75; stroke-width: 2"/>
   </g>
   <g id="line2d_36">
    <path d="M 801.391364 199.835726 
L 811.675833 187.417179 
L 821.960303 177.081744 
L 832.244773 160.256615 
L 842.529242 145.354359 
L 852.813712 135.259282 
L 863.098182 128.529231 
L 873.382652 124.683487 
L 883.667121 116.511282 
L 893.951591 108.819795 
L 904.236061 106.896923 
L 914.52053 105.454769 
L 924.805 102.089744 
L 935.08947 103.051179 
L 945.373939 106.416205 
L 955.658409 104.974051 
L 965.942879 102.570462 
L 976.227348 103.051179 
L 986.511818 101.609026 
L 996.796288 97.763282 
L 1007.080758 96.321128 
L 1017.365227 97.282564 
L 1027.649697 96.080769 
L 1037.934167 95.680171 
" clip-path="url(#p272f44d4d4)" style="fill: none; stroke: #b00000; stroke-opacity: 0.75; stroke-width: 3; stroke-linecap: square"/>
   </g>
   <g id="line2d_37">
    <path d="M 811.675833 206.245299 
L 821.960303 196.430641 
L 832.244773 191.022564 
L 842.529242 169.390256 
L 852.813712 154.007282 
L 863.098182 141.989333 
L 873.382652 128.529231 
L 883.667121 117.472718 
L 893.951591 109.300513 
L 904.236061 100.64759 
L 914.52053 95.359692 
L 924.805 96.801846 
L 935.08947 92.956103 
L 945.373939 92.475385 
L 955.658409 93.436821 
L 965.942879 92.956103 
L 976.227348 87.668205 
L 986.511818 86.706769 
L 996.796288 83.822462 
L 1007.080758 80.938154 
L 1017.365227 77.573128 
L 1027.649697 75.169538 
L 1037.934167 71.443974 
L 1048.218636 68.439487 
" clip-path="url(#p272f44d4d4)" style="fill: none; stroke-dasharray: 7.4,3.2; stroke-dashoffset: 0; stroke: #b00000; stroke-opacity: 0.75; stroke-width: 2"/>
   </g>
   <g id="patch_9">
    <path d="M 789.05 323.22 
L 789.05 42 
" style="fill: none; stroke: #000000; stroke-width: 0.8; stroke-linejoin: miter; stroke-linecap: square"/>
   </g>
   <g id="patch_10">
    <path d="M 789.05 323.22 
L 1060.56 323.22 
" style="fill: none; stroke: #000000; stroke-width: 0.8; stroke-linejoin: miter; stroke-linecap: square"/>
   </g>
   <g id="text_34">
    <!-- Chronic Pain -->
    <g transform="translate(857.909125 36) scale(0.216 -0.216)">
     <defs>
      <path id="DejaVuSans-43" d="M 4122 4306 
L 4122 3641 
Q 3803 3938 3442 4084 
Q 3081 4231 2675 4231 
Q 1875 4231 1450 3742 
Q 1025 3253 1025 2328 
Q 1025 1406 1450 917 
Q 1875 428 2675 428 
Q 3081 428 3442 575 
Q 3803 722 4122 1019 
L 4122 359 
Q 3791 134 3420 21 
Q 3050 -91 2638 -91 
Q 1578 -91 968 557 
Q 359 1206 359 2328 
Q 359 3453 968 4101 
Q 1578 4750 2638 4750 
Q 3056 4750 3426 4639 
Q 3797 4528 4122 4306 
z
" transform="scale(0.015625)"/>
     </defs>
     <use xlink:href="#DejaVuSans-43"/>
     <use xlink:href="#DejaVuSans-68" x="69.824219"/>
     <use xlink:href="#DejaVuSans-72" x="133.203125"/>
     <use xlink:href="#DejaVuSans-6f" x="172.066406"/>
     <use xlink:href="#DejaVuSans-6e" x="233.248047"/>
     <use xlink:href="#DejaVuSans-69" x="296.626953"/>
     <use xlink:href="#DejaVuSans-63" x="324.410156"/>
     <use xlink:href="#DejaVuSans-20" x="379.390625"/>
     <use xlink:href="#DejaVuSans-50" x="411.177734"/>
     <use xlink:href="#DejaVuSans-61" x="466.980469"/>
     <use xlink:href="#DejaVuSans-69" x="528.259766"/>
     <use xlink:href="#DejaVuSans-6e" x="556.042969"/>
    </g>
   </g>
   <g id="legend_3">
    <g id="line2d_38">
     <path d="M 926.924062 270.555938 
L 944.924062 270.555938 
L 962.924062 270.555938 
" style="fill: none; stroke: #095086; stroke-opacity: 0.75; stroke-width: 3; stroke-linecap: square"/>
    </g>
    <g id="text_35">
     <!-- Reward -->
     <g transform="translate(977.324062 276.855938) scale(0.18 -0.18)">
      <use xlink:href="#DejaVuSans-52"/>
      <use xlink:href="#DejaVuSans-65" x="64.982422"/>
      <use xlink:href="#DejaVuSans-77" x="126.505859"/>
      <use xlink:href="#DejaVuSans-61" x="208.292969"/>
      <use xlink:href="#DejaVuSans-72" x="269.572266"/>
      <use xlink:href="#DejaVuSans-64" x="308.935547"/>
     </g>
    </g>
    <g id="line2d_39">
     <path d="M 926.924062 296.976563 
L 944.924062 296.976563 
L 962.924062 296.976563 
" style="fill: none; stroke: #b00000; stroke-opacity: 0.75; stroke-width: 3; stroke-linecap: square"/>
    </g>
    <g id="text_36">
     <!-- Punish -->
     <g transform="translate(977.324062 303.276563) scale(0.18 -0.18)">
      <use xlink:href="#DejaVuSans-50"/>
      <use xlink:href="#DejaVuSans-75" x="58.552734"/>
      <use xlink:href="#DejaVuSans-6e" x="121.931641"/>
      <use xlink:href="#DejaVuSans-69" x="185.310547"/>
      <use xlink:href="#DejaVuSans-73" x="213.09375"/>
      <use xlink:href="#DejaVuSans-68" x="265.193359"/>
     </g>
    </g>
   </g>
  </g>
  <g id="axes_4">
   <g id="patch_11">
    <path d="M 82.01 676.28 
L 353.52 676.28 
L 353.52 395.06 
L 82.01 395.06 
z
" style="fill: #ffffff"/>
   </g>
   <g id="patch_12">
    <path d="M 94.351364 676.28 
L 135.489242 676.28 
L 135.489242 424.509983 
L 94.351364 424.509983 
z
" clip-path="url(#pd15537c4e9)" style="fill: #095086; opacity: 0.75"/>
   </g>
   <g id="patch_13">
    <path d="M 145.773712 676.28 
L 186.911591 676.28 
L 186.911591 518.588489 
L 145.773712 518.588489 
z
" clip-path="url(#pd15537c4e9)" style="fill: #9bd2f2; opacity: 0.75"/>
   </g>
   <g id="patch_14">
    <path d="M 197.196061 676.28 
L 238.333939 676.28 
L 238.333939 541.216283 
L 197.196061 541.216283 
z
" clip-path="url(#pd15537c4e9)" style="fill: #eca6a6; opacity: 0.75"/>
   </g>
   <g id="patch_15">
    <path d="M 248.618409 676.28 
L 289.756288 676.28 
L 289.756288 643.327786 
L 248.618409 643.327786 
z
" clip-path="url(#pd15537c4e9)" style="fill: #b00000; opacity: 0.75"/>
   </g>
   <g id="patch_16">
    <path d="M 300.040758 676.28 
L 341.178636 676.28 
L 341.178636 572.671261 
L 300.040758 572.671261 
z
" clip-path="url(#pd15537c4e9)" style="fill: #d3d3d3; opacity: 0.75"/>
   </g>
   <g id="PathCollection_1">
    <defs>
     <path id="m3c0b85853e" d="M -0 4.242641 
L 4.242641 0 
L 0 -4.242641 
L -4.242641 -0 
z
" style="stroke: #808080; stroke-opacity: 0.75"/>
    </defs>
    <g clip-path="url(#pd15537c4e9)">
     <use xlink:href="#m3c0b85853e" x="114.920303" y="434.4308" style="fill: #808080; fill-opacity: 0.75; stroke: #808080; stroke-opacity: 0.75"/>
     <use xlink:href="#m3c0b85853e" x="166.342652" y="511.7663" style="fill: #808080; fill-opacity: 0.75; stroke: #808080; stroke-opacity: 0.75"/>
     <use xlink:href="#m3c0b85853e" x="217.765" y="544.1066" style="fill: #808080; fill-opacity: 0.75; stroke: #808080; stroke-opacity: 0.75"/>
     <use xlink:href="#m3c0b85853e" x="269.187348" y="639.7214" style="fill: #808080; fill-opacity: 0.75; stroke: #808080; stroke-opacity: 0.75"/>
     <use xlink:href="#m3c0b85853e" x="320.609697" y="572.2286" style="fill: #808080; fill-opacity: 0.75; stroke: #808080; stroke-opacity: 0.75"/>
    </g>
   </g>
   <g id="matplotlib.axis_7">
    <g id="xtick_10">
     <g id="line2d_40">
      <g>
       <use xlink:href="#m7030b58b74" x="114.920303" y="676.28" style="stroke: #000000; stroke-width: 0.8"/>
      </g>
     </g>
     <g id="text_37">
      <!-- HR -->
      <g transform="translate(101.898428 696.957188) scale(0.18 -0.18)">
       <defs>
        <path id="DejaVuSans-48" d="M 628 4666 
L 1259 4666 
L 1259 2753 
L 3553 2753 
L 3553 4666 
L 4184 4666 
L 4184 0 
L 3553 0 
L 3553 2222 
L 1259 2222 
L 1259 0 
L 628 0 
L 628 4666 
z
" transform="scale(0.015625)"/>
       </defs>
       <use xlink:href="#DejaVuSans-48"/>
       <use xlink:href="#DejaVuSans-52" x="75.195312"/>
      </g>
     </g>
    </g>
    <g id="xtick_11">
     <g id="line2d_41">
      <g>
       <use xlink:href="#m7030b58b74" x="166.342652" y="676.28" style="stroke: #000000; stroke-width: 0.8"/>
      </g>
     </g>
     <g id="text_38">
      <!-- LR -->
      <g transform="translate(155.07437 696.957188) scale(0.18 -0.18)">
       <defs>
        <path id="DejaVuSans-4c" d="M 628 4666 
L 1259 4666 
L 1259 531 
L 3531 531 
L 3531 0 
L 628 0 
L 628 4666 
z
" transform="scale(0.015625)"/>
       </defs>
       <use xlink:href="#DejaVuSans-4c"/>
       <use xlink:href="#DejaVuSans-52" x="55.712891"/>
      </g>
     </g>
    </g>
    <g id="xtick_12">
     <g id="line2d_42">
      <g>
       <use xlink:href="#m7030b58b74" x="217.765" y="676.28" style="stroke: #000000; stroke-width: 0.8"/>
      </g>
     </g>
     <g id="text_39">
      <!-- LP -->
      <g transform="translate(207.323594 696.957188) scale(0.18 -0.18)">
       <use xlink:href="#DejaVuSans-4c"/>
       <use xlink:href="#DejaVuSans-50" x="55.712891"/>
      </g>
     </g>
    </g>
    <g id="xtick_13">
     <g id="line2d_43">
      <g>
       <use xlink:href="#m7030b58b74" x="269.187348" y="676.28" style="stroke: #000000; stroke-width: 0.8"/>
      </g>
     </g>
     <g id="text_40">
      <!-- HP -->
      <g transform="translate(256.992348 696.957188) scale(0.18 -0.18)">
       <use xlink:href="#DejaVuSans-48"/>
       <use xlink:href="#DejaVuSans-50" x="75.195312"/>
      </g>
     </g>
    </g>
    <g id="xtick_14">
     <g id="line2d_44">
      <g>
       <use xlink:href="#m7030b58b74" x="320.609697" y="676.28" style="stroke: #000000; stroke-width: 0.8"/>
      </g>
     </g>
     <g id="text_41">
      <!-- N -->
      <g transform="translate(313.876572 696.957188) scale(0.18 -0.18)">
       <use xlink:href="#DejaVuSans-4e"/>
      </g>
     </g>
    </g>
   </g>
   <g id="matplotlib.axis_8">
    <g id="ytick_13">
     <g id="line2d_45">
      <g>
       <use xlink:href="#mffb652c9c8" x="82.01" y="676.28" style="stroke: #000000; stroke-width: 0.8"/>
      </g>
     </g>
     <g id="text_42">
      <!-- 0 -->
      <g transform="translate(63.5575 683.118594) scale(0.18 -0.18)">
       <use xlink:href="#DejaVuSans-30"/>
      </g>
     </g>
    </g>
    <g id="ytick_14">
     <g id="line2d_46">
      <g>
       <use xlink:href="#mffb652c9c8" x="82.01" y="620.036" style="stroke: #000000; stroke-width: 0.8"/>
      </g>
     </g>
     <g id="text_43">
      <!-- 20 -->
      <g transform="translate(52.105 626.874594) scale(0.18 -0.18)">
       <use xlink:href="#DejaVuSans-32"/>
       <use xlink:href="#DejaVuSans-30" x="63.623047"/>
      </g>
     </g>
    </g>
    <g id="ytick_15">
     <g id="line2d_47">
      <g>
       <use xlink:href="#mffb652c9c8" x="82.01" y="563.792" style="stroke: #000000; stroke-width: 0.8"/>
      </g>
     </g>
     <g id="text_44">
      <!-- 40 -->
      <g transform="translate(52.105 570.630594) scale(0.18 -0.18)">
       <use xlink:href="#DejaVuSans-34"/>
       <use xlink:href="#DejaVuSans-30" x="63.623047"/>
      </g>
     </g>
    </g>
    <g id="ytick_16">
     <g id="line2d_48">
      <g>
       <use xlink:href="#mffb652c9c8" x="82.01" y="507.548" style="stroke: #000000; stroke-width: 0.8"/>
      </g>
     </g>
     <g id="text_45">
      <!-- 60 -->
      <g transform="translate(52.105 514.386594) scale(0.18 -0.18)">
       <use xlink:href="#DejaVuSans-36"/>
       <use xlink:href="#DejaVuSans-30" x="63.623047"/>
      </g>
     </g>
    </g>
    <g id="ytick_17">
     <g id="line2d_49">
      <g>
       <use xlink:href="#mffb652c9c8" x="82.01" y="451.304" style="stroke: #000000; stroke-width: 0.8"/>
      </g>
     </g>
     <g id="text_46">
      <!-- 80 -->
      <g transform="translate(52.105 458.142594) scale(0.18 -0.18)">
       <use xlink:href="#DejaVuSans-38"/>
       <use xlink:href="#DejaVuSans-30" x="63.623047"/>
      </g>
     </g>
    </g>
    <g id="ytick_18">
     <g id="line2d_50">
      <g>
       <use xlink:href="#mffb652c9c8" x="82.01" y="395.06" style="stroke: #000000; stroke-width: 0.8"/>
      </g>
     </g>
     <g id="text_47">
      <!-- 100 -->
      <g transform="translate(40.6525 401.898594) scale(0.18 -0.18)">
       <use xlink:href="#DejaVuSans-31"/>
       <use xlink:href="#DejaVuSans-30" x="63.623047"/>
       <use xlink:href="#DejaVuSans-30" x="127.246094"/>
      </g>
     </g>
    </g>
    <g id="text_48">
     <!-- Choice Rate (%) -->
     <g transform="translate(32.909063 608.079219) rotate(-90) scale(0.18 -0.18)">
      <use xlink:href="#DejaVuSans-43"/>
      <use xlink:href="#DejaVuSans-68" x="69.824219"/>
      <use xlink:href="#DejaVuSans-6f" x="133.203125"/>
      <use xlink:href="#DejaVuSans-69" x="194.384766"/>
      <use xlink:href="#DejaVuSans-63" x="222.167969"/>
      <use xlink:href="#DejaVuSans-65" x="277.148438"/>
      <use xlink:href="#DejaVuSans-20" x="338.671875"/>
      <use xlink:href="#DejaVuSans-52" x="370.458984"/>
      <use xlink:href="#DejaVuSans-61" x="437.691406"/>
      <use xlink:href="#DejaVuSans-74" x="498.970703"/>
      <use xlink:href="#DejaVuSans-65" x="538.179688"/>
      <use xlink:href="#DejaVuSans-20" x="599.703125"/>
      <use xlink:href="#DejaVuSans-28" x="631.490234"/>
      <use xlink:href="#DejaVuSans-25" x="670.503906"/>
      <use xlink:href="#DejaVuSans-29" x="765.523438"/>
     </g>
    </g>
   </g>
   <g id="LineCollection_1">
    <path d="M 114.920303 429.820837 
L 114.920303 419.19913 
" clip-path="url(#pd15537c4e9)" style="fill: none; stroke: #696969; stroke-width: 1.5"/>
    <path d="M 166.342652 525.356908 
L 166.342652 511.82007 
" clip-path="url(#pd15537c4e9)" style="fill: none; stroke: #696969; stroke-width: 1.5"/>
    <path d="M 217.765 548.196939 
L 217.765 534.235628 
" clip-path="url(#pd15537c4e9)" style="fill: none; stroke: #696969; stroke-width: 1.5"/>
    <path d="M 269.187348 648.772225 
L 269.187348 637.883347 
" clip-path="url(#pd15537c4e9)" style="fill: none; stroke: #696969; stroke-width: 1.5"/>
    <path d="M 320.609697 583.166714 
L 320.609697 562.175808 
" clip-path="url(#pd15537c4e9)" style="fill: none; stroke: #696969; stroke-width: 1.5"/>
   </g>
   <g id="line2d_51">
    <defs>
     <path id="m6bd85d156d" d="M 5 0 
L -5 -0 
" style="stroke: #696969"/>
    </defs>
    <g clip-path="url(#pd15537c4e9)">
     <use xlink:href="#m6bd85d156d" x="114.920303" y="429.820837" style="fill: #696969; stroke: #696969"/>
     <use xlink:href="#m6bd85d156d" x="166.342652" y="525.356908" style="fill: #696969; stroke: #696969"/>
     <use xlink:href="#m6bd85d156d" x="217.765" y="548.196939" style="fill: #696969; stroke: #696969"/>
     <use xlink:href="#m6bd85d156d" x="269.187348" y="648.772225" style="fill: #696969; stroke: #696969"/>
     <use xlink:href="#m6bd85d156d" x="320.609697" y="583.166714" style="fill: #696969; stroke: #696969"/>
    </g>
   </g>
   <g id="line2d_52">
    <g clip-path="url(#pd15537c4e9)">
     <use xlink:href="#m6bd85d156d" x="114.920303" y="419.19913" style="fill: #696969; stroke: #696969"/>
     <use xlink:href="#m6bd85d156d" x="166.342652" y="511.82007" style="fill: #696969; stroke: #696969"/>
     <use xlink:href="#m6bd85d156d" x="217.765" y="534.235628" style="fill: #696969; stroke: #696969"/>
     <use xlink:href="#m6bd85d156d" x="269.187348" y="637.883347" style="fill: #696969; stroke: #696969"/>
     <use xlink:href="#m6bd85d156d" x="320.609697" y="562.175808" style="fill: #696969; stroke: #696969"/>
    </g>
   </g>
   <g id="LineCollection_2">
    <path d="M 114.920303 429.820837 
L 114.920303 419.19913 
" clip-path="url(#pd15537c4e9)" style="fill: none; stroke: #808080; stroke-width: 1.5"/>
    <path d="M 166.342652 525.356908 
L 166.342652 511.82007 
" clip-path="url(#pd15537c4e9)" style="fill: none; stroke: #808080; stroke-width: 1.5"/>
    <path d="M 217.765 548.196939 
L 217.765 534.235628 
" clip-path="url(#pd15537c4e9)" style="fill: none; stroke: #808080; stroke-width: 1.5"/>
    <path d="M 269.187348 648.772225 
L 269.187348 637.883347 
" clip-path="url(#pd15537c4e9)" style="fill: none; stroke: #808080; stroke-width: 1.5"/>
    <path d="M 320.609697 583.166714 
L 320.609697 562.175808 
" clip-path="url(#pd15537c4e9)" style="fill: none; stroke: #808080; stroke-width: 1.5"/>
   </g>
   <g id="line2d_53">
    <defs>
     <path id="m3a913688d8" d="M 0 1.5 
C 0.397805 1.5 0.77937 1.341951 1.06066 1.06066 
C 1.341951 0.77937 1.5 0.397805 1.5 0 
C 1.5 -0.397805 1.341951 -0.77937 1.06066 -1.06066 
C 0.77937 -1.341951 0.397805 -1.5 0 -1.5 
C -0.397805 -1.5 -0.77937 -1.341951 -1.06066 -1.06066 
C -1.341951 -0.77937 -1.5 -0.397805 -1.5 0 
C -1.5 0.397805 -1.341951 0.77937 -1.06066 1.06066 
C -0.77937 1.341951 -0.397805 1.5 0 1.5 
z
" style="stroke: #808080"/>
    </defs>
    <g clip-path="url(#pd15537c4e9)">
     <use xlink:href="#m3a913688d8" x="114.920303" y="424.509983" style="fill: #808080; stroke: #808080"/>
     <use xlink:href="#m3a913688d8" x="166.342652" y="518.588489" style="fill: #808080; stroke: #808080"/>
     <use xlink:href="#m3a913688d8" x="217.765" y="541.216283" style="fill: #808080; stroke: #808080"/>
     <use xlink:href="#m3a913688d8" x="269.187348" y="643.327786" style="fill: #808080; stroke: #808080"/>
     <use xlink:href="#m3a913688d8" x="320.609697" y="572.671261" style="fill: #808080; stroke: #808080"/>
    </g>
   </g>
   <g id="patch_17">
    <path d="M 82.01 676.28 
L 82.01 395.06 
" style="fill: none; stroke: #000000; stroke-width: 0.8; stroke-linejoin: miter; stroke-linecap: square"/>
   </g>
   <g id="patch_18">
    <path d="M 82.01 676.28 
L 353.52 676.28 
" style="fill: none; stroke: #000000; stroke-width: 0.8; stroke-linejoin: miter; stroke-linecap: square"/>
   </g>
  </g>
  <g id="axes_5">
   <g id="patch_19">
    <path d="M 435.53 676.28 
L 707.04 676.28 
L 707.04 395.06 
L 435.53 395.06 
z
" style="fill: #ffffff"/>
   </g>
   <g id="patch_20">
    <path d="M 447.871364 676.28 
L 489.009242 676.28 
L 489.009242 430.849225 
L 447.871364 430.849225 
z
" clip-path="url(#p86a9c1d98e)" style="fill: #095086; opacity: 0.75"/>
   </g>
   <g id="patch_21">
    <path d="M 499.293712 676.28 
L 540.431591 676.28 
L 540.431591 525.164045 
L 499.293712 525.164045 
z
" clip-path="url(#p86a9c1d98e)" style="fill: #9bd2f2; opacity: 0.75"/>
   </g>
   <g id="patch_22">
    <path d="M 550.716061 676.28 
L 591.853939 676.28 
L 591.853939 523.519174 
L 550.716061 523.519174 
z
" clip-path="url(#p86a9c1d98e)" style="fill: #eca6a6; opacity: 0.75"/>
   </g>
   <g id="patch_23">
    <path d="M 602.138409 676.28 
L 643.276288 676.28 
L 643.276288 635.821462 
L 602.138409 635.821462 
z
" clip-path="url(#p86a9c1d98e)" style="fill: #b00000; opacity: 0.75"/>
   </g>
   <g id="patch_24">
    <path d="M 653.560758 676.28 
L 694.698636 676.28 
L 694.698636 594.036415 
L 653.560758 594.036415 
z
" clip-path="url(#p86a9c1d98e)" style="fill: #d3d3d3; opacity: 0.75"/>
   </g>
   <g id="PathCollection_2">
    <g clip-path="url(#p86a9c1d98e)">
     <use xlink:href="#m3c0b85853e" x="468.440303" y="435.8369" style="fill: #808080; fill-opacity: 0.75; stroke: #808080; stroke-opacity: 0.75"/>
     <use xlink:href="#m3c0b85853e" x="519.862652" y="520.2029" style="fill: #808080; fill-opacity: 0.75; stroke: #808080; stroke-opacity: 0.75"/>
     <use xlink:href="#m3c0b85853e" x="571.285" y="531.4517" style="fill: #808080; fill-opacity: 0.75; stroke: #808080; stroke-opacity: 0.75"/>
     <use xlink:href="#m3c0b85853e" x="622.707348" y="627.0665" style="fill: #808080; fill-opacity: 0.75; stroke: #808080; stroke-opacity: 0.75"/>
     <use xlink:href="#m3c0b85853e" x="674.129697" y="594.7262" style="fill: #808080; fill-opacity: 0.75; stroke: #808080; stroke-opacity: 0.75"/>
    </g>
   </g>
   <g id="matplotlib.axis_9">
    <g id="xtick_15">
     <g id="line2d_54">
      <g>
       <use xlink:href="#m7030b58b74" x="468.440303" y="676.28" style="stroke: #000000; stroke-width: 0.8"/>
      </g>
     </g>
     <g id="text_49">
      <!-- HR -->
      <g transform="translate(455.418428 696.957188) scale(0.18 -0.18)">
       <use xlink:href="#DejaVuSans-48"/>
       <use xlink:href="#DejaVuSans-52" x="75.195312"/>
      </g>
     </g>
    </g>
    <g id="xtick_16">
     <g id="line2d_55">
      <g>
       <use xlink:href="#m7030b58b74" x="519.862652" y="676.28" style="stroke: #000000; stroke-width: 0.8"/>
      </g>
     </g>
     <g id="text_50">
      <!-- LR -->
      <g transform="translate(508.59437 696.957188) scale(0.18 -0.18)">
       <use xlink:href="#DejaVuSans-4c"/>
       <use xlink:href="#DejaVuSans-52" x="55.712891"/>
      </g>
     </g>
    </g>
    <g id="xtick_17">
     <g id="line2d_56">
      <g>
       <use xlink:href="#m7030b58b74" x="571.285" y="676.28" style="stroke: #000000; stroke-width: 0.8"/>
      </g>
     </g>
     <g id="text_51">
      <!-- LP -->
      <g transform="translate(560.843594 696.957188) scale(0.18 -0.18)">
       <use xlink:href="#DejaVuSans-4c"/>
       <use xlink:href="#DejaVuSans-50" x="55.712891"/>
      </g>
     </g>
    </g>
    <g id="xtick_18">
     <g id="line2d_57">
      <g>
       <use xlink:href="#m7030b58b74" x="622.707348" y="676.28" style="stroke: #000000; stroke-width: 0.8"/>
      </g>
     </g>
     <g id="text_52">
      <!-- HP -->
      <g transform="translate(610.512348 696.957188) scale(0.18 -0.18)">
       <use xlink:href="#DejaVuSans-48"/>
       <use xlink:href="#DejaVuSans-50" x="75.195312"/>
      </g>
     </g>
    </g>
    <g id="xtick_19">
     <g id="line2d_58">
      <g>
       <use xlink:href="#m7030b58b74" x="674.129697" y="676.28" style="stroke: #000000; stroke-width: 0.8"/>
      </g>
     </g>
     <g id="text_53">
      <!-- N -->
      <g transform="translate(667.396572 696.957188) scale(0.18 -0.18)">
       <use xlink:href="#DejaVuSans-4e"/>
      </g>
     </g>
    </g>
   </g>
   <g id="matplotlib.axis_10">
    <g id="ytick_19">
     <g id="line2d_59">
      <g>
       <use xlink:href="#mffb652c9c8" x="435.53" y="676.28" style="stroke: #000000; stroke-width: 0.8"/>
      </g>
     </g>
     <g id="text_54">
      <!-- 0 -->
      <g transform="translate(417.0775 683.118594) scale(0.18 -0.18)">
       <use xlink:href="#DejaVuSans-30"/>
      </g>
     </g>
    </g>
    <g id="ytick_20">
     <g id="line2d_60">
      <g>
       <use xlink:href="#mffb652c9c8" x="435.53" y="620.036" style="stroke: #000000; stroke-width: 0.8"/>
      </g>
     </g>
     <g id="text_55">
      <!-- 20 -->
      <g transform="translate(405.625 626.874594) scale(0.18 -0.18)">
       <use xlink:href="#DejaVuSans-32"/>
       <use xlink:href="#DejaVuSans-30" x="63.623047"/>
      </g>
     </g>
    </g>
    <g id="ytick_21">
     <g id="line2d_61">
      <g>
       <use xlink:href="#mffb652c9c8" x="435.53" y="563.792" style="stroke: #000000; stroke-width: 0.8"/>
      </g>
     </g>
     <g id="text_56">
      <!-- 40 -->
      <g transform="translate(405.625 570.630594) scale(0.18 -0.18)">
       <use xlink:href="#DejaVuSans-34"/>
       <use xlink:href="#DejaVuSans-30" x="63.623047"/>
      </g>
     </g>
    </g>
    <g id="ytick_22">
     <g id="line2d_62">
      <g>
       <use xlink:href="#mffb652c9c8" x="435.53" y="507.548" style="stroke: #000000; stroke-width: 0.8"/>
      </g>
     </g>
     <g id="text_57">
      <!-- 60 -->
      <g transform="translate(405.625 514.386594) scale(0.18 -0.18)">
       <use xlink:href="#DejaVuSans-36"/>
       <use xlink:href="#DejaVuSans-30" x="63.623047"/>
      </g>
     </g>
    </g>
    <g id="ytick_23">
     <g id="line2d_63">
      <g>
       <use xlink:href="#mffb652c9c8" x="435.53" y="451.304" style="stroke: #000000; stroke-width: 0.8"/>
      </g>
     </g>
     <g id="text_58">
      <!-- 80 -->
      <g transform="translate(405.625 458.142594) scale(0.18 -0.18)">
       <use xlink:href="#DejaVuSans-38"/>
       <use xlink:href="#DejaVuSans-30" x="63.623047"/>
      </g>
     </g>
    </g>
    <g id="ytick_24">
     <g id="line2d_64">
      <g>
       <use xlink:href="#mffb652c9c8" x="435.53" y="395.06" style="stroke: #000000; stroke-width: 0.8"/>
      </g>
     </g>
     <g id="text_59">
      <!-- 100 -->
      <g transform="translate(394.1725 401.898594) scale(0.18 -0.18)">
       <use xlink:href="#DejaVuSans-31"/>
       <use xlink:href="#DejaVuSans-30" x="63.623047"/>
       <use xlink:href="#DejaVuSans-30" x="127.246094"/>
      </g>
     </g>
    </g>
    <g id="text_60">
     <!-- Choice Rate (%) -->
     <g transform="translate(386.429063 608.079219) rotate(-90) scale(0.18 -0.18)">
      <use xlink:href="#DejaVuSans-43"/>
      <use xlink:href="#DejaVuSans-68" x="69.824219"/>
      <use xlink:href="#DejaVuSans-6f" x="133.203125"/>
      <use xlink:href="#DejaVuSans-69" x="194.384766"/>
      <use xlink:href="#DejaVuSans-63" x="222.167969"/>
      <use xlink:href="#DejaVuSans-65" x="277.148438"/>
      <use xlink:href="#DejaVuSans-20" x="338.671875"/>
      <use xlink:href="#DejaVuSans-52" x="370.458984"/>
      <use xlink:href="#DejaVuSans-61" x="437.691406"/>
      <use xlink:href="#DejaVuSans-74" x="498.970703"/>
      <use xlink:href="#DejaVuSans-65" x="538.179688"/>
      <use xlink:href="#DejaVuSans-20" x="599.703125"/>
      <use xlink:href="#DejaVuSans-28" x="631.490234"/>
      <use xlink:href="#DejaVuSans-25" x="670.503906"/>
      <use xlink:href="#DejaVuSans-29" x="765.523438"/>
     </g>
    </g>
   </g>
   <g id="LineCollection_3">
    <path d="M 468.440303 440.024112 
L 468.440303 421.674337 
" clip-path="url(#p86a9c1d98e)" style="fill: none; stroke: #696969; stroke-width: 1.5"/>
    <path d="M 519.862652 535.3969 
L 519.862652 514.931191 
" clip-path="url(#p86a9c1d98e)" style="fill: none; stroke: #696969; stroke-width: 1.5"/>
    <path d="M 571.285 532.757606 
L 571.285 514.280741 
" clip-path="url(#p86a9c1d98e)" style="fill: none; stroke: #696969; stroke-width: 1.5"/>
    <path d="M 622.707348 644.177788 
L 622.707348 627.465137 
" clip-path="url(#p86a9c1d98e)" style="fill: none; stroke: #696969; stroke-width: 1.5"/>
    <path d="M 674.129697 606.292339 
L 674.129697 581.780491 
" clip-path="url(#p86a9c1d98e)" style="fill: none; stroke: #696969; stroke-width: 1.5"/>
   </g>
   <g id="line2d_65">
    <g clip-path="url(#p86a9c1d98e)">
     <use xlink:href="#m6bd85d156d" x="468.440303" y="440.024112" style="fill: #696969; stroke: #696969"/>
     <use xlink:href="#m6bd85d156d" x="519.862652" y="535.3969" style="fill: #696969; stroke: #696969"/>
     <use xlink:href="#m6bd85d156d" x="571.285" y="532.757606" style="fill: #696969; stroke: #696969"/>
     <use xlink:href="#m6bd85d156d" x="622.707348" y="644.177788" style="fill: #696969; stroke: #696969"/>
     <use xlink:href="#m6bd85d156d" x="674.129697" y="606.292339" style="fill: #696969; stroke: #696969"/>
    </g>
   </g>
   <g id="line2d_66">
    <g clip-path="url(#p86a9c1d98e)">
     <use xlink:href="#m6bd85d156d" x="468.440303" y="421.674337" style="fill: #696969; stroke: #696969"/>
     <use xlink:href="#m6bd85d156d" x="519.862652" y="514.931191" style="fill: #696969; stroke: #696969"/>
     <use xlink:href="#m6bd85d156d" x="571.285" y="514.280741" style="fill: #696969; stroke: #696969"/>
     <use xlink:href="#m6bd85d156d" x="622.707348" y="627.465137" style="fill: #696969; stroke: #696969"/>
     <use xlink:href="#m6bd85d156d" x="674.129697" y="581.780491" style="fill: #696969; stroke: #696969"/>
    </g>
   </g>
   <g id="LineCollection_4">
    <path d="M 468.440303 440.024112 
L 468.440303 421.674337 
" clip-path="url(#p86a9c1d98e)" style="fill: none; stroke: #808080; stroke-width: 1.5"/>
    <path d="M 519.862652 535.3969 
L 519.862652 514.931191 
" clip-path="url(#p86a9c1d98e)" style="fill: none; stroke: #808080; stroke-width: 1.5"/>
    <path d="M 571.285 532.757606 
L 571.285 514.280741 
" clip-path="url(#p86a9c1d98e)" style="fill: none; stroke: #808080; stroke-width: 1.5"/>
    <path d="M 622.707348 644.177788 
L 622.707348 627.465137 
" clip-path="url(#p86a9c1d98e)" style="fill: none; stroke: #808080; stroke-width: 1.5"/>
    <path d="M 674.129697 606.292339 
L 674.129697 581.780491 
" clip-path="url(#p86a9c1d98e)" style="fill: none; stroke: #808080; stroke-width: 1.5"/>
   </g>
   <g id="line2d_67">
    <g clip-path="url(#p86a9c1d98e)">
     <use xlink:href="#m3a913688d8" x="468.440303" y="430.849225" style="fill: #808080; stroke: #808080"/>
     <use xlink:href="#m3a913688d8" x="519.862652" y="525.164045" style="fill: #808080; stroke: #808080"/>
     <use xlink:href="#m3a913688d8" x="571.285" y="523.519174" style="fill: #808080; stroke: #808080"/>
     <use xlink:href="#m3a913688d8" x="622.707348" y="635.821462" style="fill: #808080; stroke: #808080"/>
     <use xlink:href="#m3a913688d8" x="674.129697" y="594.036415" style="fill: #808080; stroke: #808080"/>
    </g>
   </g>
   <g id="patch_25">
    <path d="M 435.53 676.28 
L 435.53 395.06 
" style="fill: none; stroke: #000000; stroke-width: 0.8; stroke-linejoin: miter; stroke-linecap: square"/>
   </g>
   <g id="patch_26">
    <path d="M 435.53 676.28 
L 707.04 676.28 
" style="fill: none; stroke: #000000; stroke-width: 0.8; stroke-linejoin: miter; stroke-linecap: square"/>
   </g>
  </g>
  <g id="axes_6">
   <g id="patch_27">
    <path d="M 789.05 676.28 
L 1060.56 676.28 
L 1060.56 395.06 
L 789.05 395.06 
z
" style="fill: #ffffff"/>
   </g>
   <g id="patch_28">
    <path d="M 801.391364 676.28 
L 842.529242 676.28 
L 842.529242 429.996177 
L 801.391364 429.996177 
z
" clip-path="url(#p049fa862bb)" style="fill: #095086; opacity: 0.75"/>
   </g>
   <g id="patch_29">
    <path d="M 852.813712 676.28 
L 893.951591 676.28 
L 893.951591 535.291435 
L 852.813712 535.291435 
z
" clip-path="url(#p049fa862bb)" style="fill: #9bd2f2; opacity: 0.75"/>
   </g>
   <g id="patch_30">
    <path d="M 904.236061 676.28 
L 945.373939 676.28 
L 945.373939 528.621473 
L 904.236061 528.621473 
z
" clip-path="url(#p049fa862bb)" style="fill: #eca6a6; opacity: 0.75"/>
   </g>
   <g id="patch_31">
    <path d="M 955.658409 676.28 
L 996.796288 676.28 
L 996.796288 637.107496 
L 955.658409 637.107496 
z
" clip-path="url(#p049fa862bb)" style="fill: #b00000; opacity: 0.75"/>
   </g>
   <g id="patch_32">
    <path d="M 1007.080758 676.28 
L 1048.218636 676.28 
L 1048.218636 566.964738 
L 1007.080758 566.964738 
z
" clip-path="url(#p049fa862bb)" style="fill: #d3d3d3; opacity: 0.75"/>
   </g>
   <g id="PathCollection_3">
    <g clip-path="url(#p049fa862bb)">
     <use xlink:href="#m3c0b85853e" x="821.960303" y="440.0552" style="fill: #808080; fill-opacity: 0.75; stroke: #808080; stroke-opacity: 0.75"/>
     <use xlink:href="#m3c0b85853e" x="873.382652" y="530.0456" style="fill: #808080; fill-opacity: 0.75; stroke: #808080; stroke-opacity: 0.75"/>
     <use xlink:href="#m3c0b85853e" x="924.805" y="531.4517" style="fill: #808080; fill-opacity: 0.75; stroke: #808080; stroke-opacity: 0.75"/>
     <use xlink:href="#m3c0b85853e" x="976.227348" y="629.8787" style="fill: #808080; fill-opacity: 0.75; stroke: #808080; stroke-opacity: 0.75"/>
     <use xlink:href="#m3c0b85853e" x="1027.649697" y="566.6042" style="fill: #808080; fill-opacity: 0.75; stroke: #808080; stroke-opacity: 0.75"/>
    </g>
   </g>
   <g id="matplotlib.axis_11">
    <g id="xtick_20">
     <g id="line2d_68">
      <g>
       <use xlink:href="#m7030b58b74" x="821.960303" y="676.28" style="stroke: #000000; stroke-width: 0.8"/>
      </g>
     </g>
     <g id="text_61">
      <!-- HR -->
      <g transform="translate(808.938428 696.957188) scale(0.18 -0.18)">
       <use xlink:href="#DejaVuSans-48"/>
       <use xlink:href="#DejaVuSans-52" x="75.195312"/>
      </g>
     </g>
    </g>
    <g id="xtick_21">
     <g id="line2d_69">
      <g>
       <use xlink:href="#m7030b58b74" x="873.382652" y="676.28" style="stroke: #000000; stroke-width: 0.8"/>
      </g>
     </g>
     <g id="text_62">
      <!-- LR -->
      <g transform="translate(862.11437 696.957188) scale(0.18 -0.18)">
       <use xlink:href="#DejaVuSans-4c"/>
       <use xlink:href="#DejaVuSans-52" x="55.712891"/>
      </g>
     </g>
    </g>
    <g id="xtick_22">
     <g id="line2d_70">
      <g>
       <use xlink:href="#m7030b58b74" x="924.805" y="676.28" style="stroke: #000000; stroke-width: 0.8"/>
      </g>
     </g>
     <g id="text_63">
      <!-- LP -->
      <g transform="translate(914.363594 696.957188) scale(0.18 -0.18)">
       <use xlink:href="#DejaVuSans-4c"/>
       <use xlink:href="#DejaVuSans-50" x="55.712891"/>
      </g>
     </g>
    </g>
    <g id="xtick_23">
     <g id="line2d_71">
      <g>
       <use xlink:href="#m7030b58b74" x="976.227348" y="676.28" style="stroke: #000000; stroke-width: 0.8"/>
      </g>
     </g>
     <g id="text_64">
      <!-- HP -->
      <g transform="translate(964.032348 696.957188) scale(0.18 -0.18)">
       <use xlink:href="#DejaVuSans-48"/>
       <use xlink:href="#DejaVuSans-50" x="75.195312"/>
      </g>
     </g>
    </g>
    <g id="xtick_24">
     <g id="line2d_72">
      <g>
       <use xlink:href="#m7030b58b74" x="1027.649697" y="676.28" style="stroke: #000000; stroke-width: 0.8"/>
      </g>
     </g>
     <g id="text_65">
      <!-- N -->
      <g transform="translate(1020.916572 696.957188) scale(0.18 -0.18)">
       <use xlink:href="#DejaVuSans-4e"/>
      </g>
     </g>
    </g>
   </g>
   <g id="matplotlib.axis_12">
    <g id="ytick_25">
     <g id="line2d_73">
      <g>
       <use xlink:href="#mffb652c9c8" x="789.05" y="676.28" style="stroke: #000000; stroke-width: 0.8"/>
      </g>
     </g>
     <g id="text_66">
      <!-- 0 -->
      <g transform="translate(770.5975 683.118594) scale(0.18 -0.18)">
       <use xlink:href="#DejaVuSans-30"/>
      </g>
     </g>
    </g>
    <g id="ytick_26">
     <g id="line2d_74">
      <g>
       <use xlink:href="#mffb652c9c8" x="789.05" y="620.036" style="stroke: #000000; stroke-width: 0.8"/>
      </g>
     </g>
     <g id="text_67">
      <!-- 20 -->
      <g transform="translate(759.145 626.874594) scale(0.18 -0.18)">
       <use xlink:href="#DejaVuSans-32"/>
       <use xlink:href="#DejaVuSans-30" x="63.623047"/>
      </g>
     </g>
    </g>
    <g id="ytick_27">
     <g id="line2d_75">
      <g>
       <use xlink:href="#mffb652c9c8" x="789.05" y="563.792" style="stroke: #000000; stroke-width: 0.8"/>
      </g>
     </g>
     <g id="text_68">
      <!-- 40 -->
      <g transform="translate(759.145 570.630594) scale(0.18 -0.18)">
       <use xlink:href="#DejaVuSans-34"/>
       <use xlink:href="#DejaVuSans-30" x="63.623047"/>
      </g>
     </g>
    </g>
    <g id="ytick_28">
     <g id="line2d_76">
      <g>
       <use xlink:href="#mffb652c9c8" x="789.05" y="507.548" style="stroke: #000000; stroke-width: 0.8"/>
      </g>
     </g>
     <g id="text_69">
      <!-- 60 -->
      <g transform="translate(759.145 514.386594) scale(0.18 -0.18)">
       <use xlink:href="#DejaVuSans-36"/>
       <use xlink:href="#DejaVuSans-30" x="63.623047"/>
      </g>
     </g>
    </g>
    <g id="ytick_29">
     <g id="line2d_77">
      <g>
       <use xlink:href="#mffb652c9c8" x="789.05" y="451.304" style="stroke: #000000; stroke-width: 0.8"/>
      </g>
     </g>
     <g id="text_70">
      <!-- 80 -->
      <g transform="translate(759.145 458.142594) scale(0.18 -0.18)">
       <use xlink:href="#DejaVuSans-38"/>
       <use xlink:href="#DejaVuSans-30" x="63.623047"/>
      </g>
     </g>
    </g>
    <g id="ytick_30">
     <g id="line2d_78">
      <g>
       <use xlink:href="#mffb652c9c8" x="789.05" y="395.06" style="stroke: #000000; stroke-width: 0.8"/>
      </g>
     </g>
     <g id="text_71">
      <!-- 100 -->
      <g transform="translate(747.6925 401.898594) scale(0.18 -0.18)">
       <use xlink:href="#DejaVuSans-31"/>
       <use xlink:href="#DejaVuSans-30" x="63.623047"/>
       <use xlink:href="#DejaVuSans-30" x="127.246094"/>
      </g>
     </g>
    </g>
    <g id="text_72">
     <!-- Choice Rate (%) -->
     <g transform="translate(739.949063 608.079219) rotate(-90) scale(0.18 -0.18)">
      <use xlink:href="#DejaVuSans-43"/>
      <use xlink:href="#DejaVuSans-68" x="69.824219"/>
      <use xlink:href="#DejaVuSans-6f" x="133.203125"/>
      <use xlink:href="#DejaVuSans-69" x="194.384766"/>
      <use xlink:href="#DejaVuSans-63" x="222.167969"/>
      <use xlink:href="#DejaVuSans-65" x="277.148438"/>
      <use xlink:href="#DejaVuSans-20" x="338.671875"/>
      <use xlink:href="#DejaVuSans-52" x="370.458984"/>
      <use xlink:href="#DejaVuSans-61" x="437.691406"/>
      <use xlink:href="#DejaVuSans-74" x="498.970703"/>
      <use xlink:href="#DejaVuSans-65" x="538.179688"/>
      <use xlink:href="#DejaVuSans-20" x="599.703125"/>
      <use xlink:href="#DejaVuSans-28" x="631.490234"/>
      <use xlink:href="#DejaVuSans-25" x="670.503906"/>
      <use xlink:href="#DejaVuSans-29" x="765.523438"/>
     </g>
    </g>
   </g>
   <g id="LineCollection_5">
    <path d="M 821.960303 436.744398 
L 821.960303 423.247956 
" clip-path="url(#p049fa862bb)" style="fill: none; stroke: #696969; stroke-width: 1.5"/>
    <path d="M 873.382652 544.757064 
L 873.382652 525.825805 
" clip-path="url(#p049fa862bb)" style="fill: none; stroke: #696969; stroke-width: 1.5"/>
    <path d="M 924.805 538.176154 
L 924.805 519.066793 
" clip-path="url(#p049fa862bb)" style="fill: none; stroke: #696969; stroke-width: 1.5"/>
    <path d="M 976.227348 644.787291 
L 976.227348 629.427702 
" clip-path="url(#p049fa862bb)" style="fill: none; stroke: #696969; stroke-width: 1.5"/>
    <path d="M 1027.649697 579.622872 
L 1027.649697 554.306605 
" clip-path="url(#p049fa862bb)" style="fill: none; stroke: #696969; stroke-width: 1.5"/>
   </g>
   <g id="line2d_79">
    <g clip-path="url(#p049fa862bb)">
     <use xlink:href="#m6bd85d156d" x="821.960303" y="436.744398" style="fill: #696969; stroke: #696969"/>
     <use xlink:href="#m6bd85d156d" x="873.382652" y="544.757064" style="fill: #696969; stroke: #696969"/>
     <use xlink:href="#m6bd85d156d" x="924.805" y="538.176154" style="fill: #696969; stroke: #696969"/>
     <use xlink:href="#m6bd85d156d" x="976.227348" y="644.787291" style="fill: #696969; stroke: #696969"/>
     <use xlink:href="#m6bd85d156d" x="1027.649697" y="579.622872" style="fill: #696969; stroke: #696969"/>
    </g>
   </g>
   <g id="line2d_80">
    <g clip-path="url(#p049fa862bb)">
     <use xlink:href="#m6bd85d156d" x="821.960303" y="423.247956" style="fill: #696969; stroke: #696969"/>
     <use xlink:href="#m6bd85d156d" x="873.382652" y="525.825805" style="fill: #696969; stroke: #696969"/>
     <use xlink:href="#m6bd85d156d" x="924.805" y="519.066793" style="fill: #696969; stroke: #696969"/>
     <use xlink:href="#m6bd85d156d" x="976.227348" y="629.427702" style="fill: #696969; stroke: #696969"/>
     <use xlink:href="#m6bd85d156d" x="1027.649697" y="554.306605" style="fill: #696969; stroke: #696969"/>
    </g>
   </g>
   <g id="LineCollection_6">
    <path d="M 821.960303 436.744398 
L 821.960303 423.247956 
" clip-path="url(#p049fa862bb)" style="fill: none; stroke: #808080; stroke-width: 1.5"/>
    <path d="M 873.382652 544.757064 
L 873.382652 525.825805 
" clip-path="url(#p049fa862bb)" style="fill: none; stroke: #808080; stroke-width: 1.5"/>
    <path d="M 924.805 538.176154 
L 924.805 519.066793 
" clip-path="url(#p049fa862bb)" style="fill: none; stroke: #808080; stroke-width: 1.5"/>
    <path d="M 976.227348 644.787291 
L 976.227348 629.427702 
" clip-path="url(#p049fa862bb)" style="fill: none; stroke: #808080; stroke-width: 1.5"/>
    <path d="M 1027.649697 579.622872 
L 1027.649697 554.306605 
" clip-path="url(#p049fa862bb)" style="fill: none; stroke: #808080; stroke-width: 1.5"/>
   </g>
   <g id="line2d_81">
    <g clip-path="url(#p049fa862bb)">
     <use xlink:href="#m3a913688d8" x="821.960303" y="429.996177" style="fill: #808080; stroke: #808080"/>
     <use xlink:href="#m3a913688d8" x="873.382652" y="535.291435" style="fill: #808080; stroke: #808080"/>
     <use xlink:href="#m3a913688d8" x="924.805" y="528.621473" style="fill: #808080; stroke: #808080"/>
     <use xlink:href="#m3a913688d8" x="976.227348" y="637.107496" style="fill: #808080; stroke: #808080"/>
     <use xlink:href="#m3a913688d8" x="1027.649697" y="566.964738" style="fill: #808080; stroke: #808080"/>
    </g>
   </g>
   <g id="patch_33">
    <path d="M 789.05 676.28 
L 789.05 395.06 
" style="fill: none; stroke: #000000; stroke-width: 0.8; stroke-linejoin: miter; stroke-linecap: square"/>
   </g>
   <g id="patch_34">
    <path d="M 789.05 676.28 
L 1060.56 676.28 
" style="fill: none; stroke: #000000; stroke-width: 0.8; stroke-linejoin: miter; stroke-linecap: square"/>
   </g>
  </g>
 </g>
 <defs>
  <clipPath id="p34968392b1">
   <rect x="82.01" y="42" width="271.51" height="281.22"/>
  </clipPath>
  <clipPath id="p85a878adea">
   <rect x="435.53" y="42" width="271.51" height="281.22"/>
  </clipPath>
  <clipPath id="p272f44d4d4">
   <rect x="789.05" y="42" width="271.51" height="281.22"/>
  </clipPath>
  <clipPath id="pd15537c4e9">
   <rect x="82.01" y="395.06" width="271.51" height="281.22"/>
  </clipPath>
  <clipPath id="p86a9c1d98e">
   <rect x="435.53" y="395.06" width="271.51" height="281.22"/>
  </clipPath>
  <clipPath id="p049fa862bb">
   <rect x="789.05" y="395.06" width="271.51" height="281.22"/>
  </clipPath>
 </defs>
</svg>
