<?xml version="1.0" encoding="utf-8" standalone="no"?>
<!DOCTYPE svg PUBLIC "-//W3C//DTD SVG 1.1//EN"
  "http://www.w3.org/Graphics/SVG/1.1/DTD/svg11.dtd">
<svg xmlns:xlink="http://www.w3.org/1999/xlink" width="1080pt" height="720pt" viewBox="0 0 1080 720" xmlns="http://www.w3.org/2000/svg" version="1.1">
 <metadata>
  <rdf:RDF xmlns:dc="http://purl.org/dc/elements/1.1/" xmlns:cc="http://creativecommons.org/ns#" xmlns:rdf="http://www.w3.org/1999/02/22-rdf-syntax-ns#">
   <cc:Work>
    <dc:type rdf:resource="http://purl.org/dc/dcmitype/StillImage"/>
    <dc:date>2025-05-13T17:16:25.074744</dc:date>
    <dc:format>image/svg+xml</dc:format>
    <dc:creator>
     <cc:Agent>
      <dc:title>Matplotlib v3.9.4, https://matplotlib.org/</dc:title>
     </cc:Agent>
    </dc:creator>
   </cc:Work>
  </rdf:RDF>
 </metadata>
 <defs>
  <style type="text/css">*{stroke-linejoin: round; stroke-linecap: butt}</style>
 </defs>
 <g id="figure_1">
  <g id="patch_1">
   <path d="M 0 720 
L 1080 720 
L 1080 0 
L 0 0 
z
" style="fill: #ffffff"/>
  </g>
  <g id="axes_1">
   <g id="patch_2">
    <path d="M 82.01 323.22 
L 353.52 323.22 
L 353.52 42 
L 82.01 42 
z
" style="fill: #ffffff"/>
   </g>
   <g id="PolyCollection_1">
    <path d="M 94.351364 175.210007 
L 94.351364 223.571227 
L 104.635833 215.704431 
L 114.920303 212.093227 
L 125.204773 197.762 
L 135.489242 188.665932 
L 145.773712 185.596614 
L 156.058182 178.258633 
L 166.342652 173.737159 
L 176.627121 168.637852 
L 186.911591 170.104904 
L 197.196061 164.464128 
L 207.48053 167.844 
L 217.765 163.596923 
L 228.04947 170.478351 
L 238.333939 166.383519 
L 248.618409 164.90354 
L 258.902879 157.507917 
L 269.187348 158.369911 
L 279.471818 152.309175 
L 289.756288 153.142241 
L 300.040758 150.415336 
L 310.325227 149.82977 
L 320.609697 146.434712 
L 330.894167 140.816558 
L 330.894167 98.259492 
L 330.894167 98.259492 
L 320.609697 100.742325 
L 310.325227 105.679711 
L 300.040758 103.011035 
L 289.756288 107.922203 
L 279.471818 110.144011 
L 269.187348 115.1932 
L 258.902879 113.277713 
L 248.618409 117.686386 
L 238.333939 118.983888 
L 228.04947 121.13839 
L 217.765 118.298633 
L 207.48053 119.606519 
L 197.196061 120.208909 
L 186.911591 120.123096 
L 176.627121 124.36763 
L 166.342652 128.989508 
L 156.058182 129.328626 
L 145.773712 134.489312 
L 135.489242 140.446809 
L 125.204773 148.71 
L 114.920303 158.681736 
L 104.635833 166.006865 
L 94.351364 175.210007 
z
" clip-path="url(#p339343c226)" style="fill: #095086; fill-opacity: 0.1"/>
   </g>
   <g id="PolyCollection_2">
    <path d="M 94.351364 179.339113 
L 94.351364 231.014961 
L 104.635833 228.385083 
L 114.920303 221.867873 
L 125.204773 209.772553 
L 135.489242 200.060768 
L 145.773712 192.79 
L 156.058182 180.939073 
L 166.342652 175.125899 
L 176.627121 171.702437 
L 186.911591 173.141504 
L 197.196061 166.448834 
L 207.48053 166.22224 
L 217.765 157.837916 
L 228.04947 151.677632 
L 238.333939 151.042718 
L 248.618409 156.587155 
L 258.902879 153.078138 
L 269.187348 154.570108 
L 279.471818 151.403671 
L 289.756288 149.189698 
L 300.040758 145.958831 
L 310.325227 152.260066 
L 320.609697 150.165476 
L 330.894167 155.291474 
L 330.894167 106.930254 
L 330.894167 106.930254 
L 320.609697 104.823228 
L 310.325227 108.110008 
L 300.040758 108.16191 
L 289.756288 102.847932 
L 279.471818 108.966403 
L 269.187348 109.271818 
L 258.902879 105.903195 
L 248.618409 111.420994 
L 238.333939 111.410467 
L 228.04947 110.775553 
L 217.765 116.419566 
L 207.48053 117.062057 
L 197.196061 119.612944 
L 186.911591 128.196422 
L 176.627121 127.552378 
L 166.342652 130.378249 
L 156.058182 135.675001 
L 145.773712 143.266444 
L 135.489242 150.577454 
L 125.204773 164.474262 
L 114.920303 173.210053 
L 104.635833 175.89325 
L 94.351364 179.339113 
z
" clip-path="url(#p339343c226)" style="fill: #b00000; fill-opacity: 0.1"/>
   </g>
   <g id="matplotlib.axis_1">
    <g id="xtick_1">
     <g id="line2d_1">
      <defs>
       <path id="m7d26f3290c" d="M 0 0 
L 0 3.5 
" style="stroke: #000000; stroke-width: 0.8"/>
      </defs>
      <g>
       <use xlink:href="#m7d26f3290c" x="94.351364" y="323.22" style="stroke: #000000; stroke-width: 0.8"/>
      </g>
     </g>
     <g id="text_1">
      <!-- 0 -->
      <g transform="translate(88.625114 343.897188) scale(0.18 -0.18)">
       <defs>
        <path id="DejaVuSans-30" d="M 2034 4250 
Q 1547 4250 1301 3770 
Q 1056 3291 1056 2328 
Q 1056 1369 1301 889 
Q 1547 409 2034 409 
Q 2525 409 2770 889 
Q 3016 1369 3016 2328 
Q 3016 3291 2770 3770 
Q 2525 4250 2034 4250 
z
M 2034 4750 
Q 2819 4750 3233 4129 
Q 3647 3509 3647 2328 
Q 3647 1150 3233 529 
Q 2819 -91 2034 -91 
Q 1250 -91 836 529 
Q 422 1150 422 2328 
Q 422 3509 836 4129 
Q 1250 4750 2034 4750 
z
" transform="scale(0.015625)"/>
       </defs>
       <use xlink:href="#DejaVuSans-30"/>
      </g>
     </g>
    </g>
    <g id="xtick_2">
     <g id="line2d_2">
      <g>
       <use xlink:href="#m7d26f3290c" x="197.196061" y="323.22" style="stroke: #000000; stroke-width: 0.8"/>
      </g>
     </g>
     <g id="text_2">
      <!-- 10 -->
      <g transform="translate(185.743561 343.897188) scale(0.18 -0.18)">
       <defs>
        <path id="DejaVuSans-31" d="M 794 531 
L 1825 531 
L 1825 4091 
L 703 3866 
L 703 4441 
L 1819 4666 
L 2450 4666 
L 2450 531 
L 3481 531 
L 3481 0 
L 794 0 
L 794 531 
z
" transform="scale(0.015625)"/>
       </defs>
       <use xlink:href="#DejaVuSans-31"/>
       <use xlink:href="#DejaVuSans-30" x="63.623047"/>
      </g>
     </g>
    </g>
    <g id="xtick_3">
     <g id="line2d_3">
      <g>
       <use xlink:href="#m7d26f3290c" x="300.040758" y="323.22" style="stroke: #000000; stroke-width: 0.8"/>
      </g>
     </g>
     <g id="text_3">
      <!-- 20 -->
      <g transform="translate(288.588258 343.897188) scale(0.18 -0.18)">
       <defs>
        <path id="DejaVuSans-32" d="M 1228 531 
L 3431 531 
L 3431 0 
L 469 0 
L 469 531 
Q 828 903 1448 1529 
Q 2069 2156 2228 2338 
Q 2531 2678 2651 2914 
Q 2772 3150 2772 3378 
Q 2772 3750 2511 3984 
Q 2250 4219 1831 4219 
Q 1534 4219 1204 4116 
Q 875 4013 500 3803 
L 500 4441 
Q 881 4594 1212 4672 
Q 1544 4750 1819 4750 
Q 2544 4750 2975 4387 
Q 3406 4025 3406 3419 
Q 3406 3131 3298 2873 
Q 3191 2616 2906 2266 
Q 2828 2175 2409 1742 
Q 1991 1309 1228 531 
z
" transform="scale(0.015625)"/>
       </defs>
       <use xlink:href="#DejaVuSans-32"/>
       <use xlink:href="#DejaVuSans-30" x="63.623047"/>
      </g>
     </g>
    </g>
    <g id="text_4">
     <!-- Trial -->
     <g transform="translate(199.379688 365.317813) scale(0.18 -0.18)">
      <defs>
       <path id="DejaVuSans-54" d="M -19 4666 
L 3928 4666 
L 3928 4134 
L 2272 4134 
L 2272 0 
L 1638 0 
L 1638 4134 
L -19 4134 
L -19 4666 
z
" transform="scale(0.015625)"/>
       <path id="DejaVuSans-72" d="M 2631 2963 
Q 2534 3019 2420 3045 
Q 2306 3072 2169 3072 
Q 1681 3072 1420 2755 
Q 1159 2438 1159 1844 
L 1159 0 
L 581 0 
L 581 3500 
L 1159 3500 
L 1159 2956 
Q 1341 3275 1631 3429 
Q 1922 3584 2338 3584 
Q 2397 3584 2469 3576 
Q 2541 3569 2628 3553 
L 2631 2963 
z
" transform="scale(0.015625)"/>
       <path id="DejaVuSans-69" d="M 603 3500 
L 1178 3500 
L 1178 0 
L 603 0 
L 603 3500 
z
M 603 4863 
L 1178 4863 
L 1178 4134 
L 603 4134 
L 603 4863 
z
" transform="scale(0.015625)"/>
       <path id="DejaVuSans-61" d="M 2194 1759 
Q 1497 1759 1228 1600 
Q 959 1441 959 1056 
Q 959 750 1161 570 
Q 1363 391 1709 391 
Q 2188 391 2477 730 
Q 2766 1069 2766 1631 
L 2766 1759 
L 2194 1759 
z
M 3341 1997 
L 3341 0 
L 2766 0 
L 2766 531 
Q 2569 213 2275 61 
Q 1981 -91 1556 -91 
Q 1019 -91 701 211 
Q 384 513 384 1019 
Q 384 1609 779 1909 
Q 1175 2209 1959 2209 
L 2766 2209 
L 2766 2266 
Q 2766 2663 2505 2880 
Q 2244 3097 1772 3097 
Q 1472 3097 1187 3025 
Q 903 2953 641 2809 
L 641 3341 
Q 956 3463 1253 3523 
Q 1550 3584 1831 3584 
Q 2591 3584 2966 3190 
Q 3341 2797 3341 1997 
z
" transform="scale(0.015625)"/>
       <path id="DejaVuSans-6c" d="M 603 4863 
L 1178 4863 
L 1178 0 
L 603 0 
L 603 4863 
z
" transform="scale(0.015625)"/>
      </defs>
      <use xlink:href="#DejaVuSans-54"/>
      <use xlink:href="#DejaVuSans-72" x="46.333984"/>
      <use xlink:href="#DejaVuSans-69" x="87.447266"/>
      <use xlink:href="#DejaVuSans-61" x="115.230469"/>
      <use xlink:href="#DejaVuSans-6c" x="176.509766"/>
     </g>
    </g>
   </g>
   <g id="matplotlib.axis_2">
    <g id="ytick_1">
     <g id="line2d_4">
      <defs>
       <path id="m4a7c4afa31" d="M 0 0 
L -3.5 0 
" style="stroke: #000000; stroke-width: 0.8"/>
      </defs>
      <g>
       <use xlink:href="#m4a7c4afa31" x="82.01" y="266.976" style="stroke: #000000; stroke-width: 0.8"/>
      </g>
     </g>
     <g id="text_5">
      <!-- 40 -->
      <g transform="translate(52.105 273.814594) scale(0.18 -0.18)">
       <defs>
        <path id="DejaVuSans-34" d="M 2419 4116 
L 825 1625 
L 2419 1625 
L 2419 4116 
z
M 2253 4666 
L 3047 4666 
L 3047 1625 
L 3713 1625 
L 3713 1100 
L 3047 1100 
L 3047 0 
L 2419 0 
L 2419 1100 
L 313 1100 
L 313 1709 
L 2253 4666 
z
" transform="scale(0.015625)"/>
       </defs>
       <use xlink:href="#DejaVuSans-34"/>
       <use xlink:href="#DejaVuSans-30" x="63.623047"/>
      </g>
     </g>
    </g>
    <g id="ytick_2">
     <g id="line2d_5">
      <g>
       <use xlink:href="#m4a7c4afa31" x="82.01" y="191.984" style="stroke: #000000; stroke-width: 0.8"/>
      </g>
     </g>
     <g id="text_6">
      <!-- 60 -->
      <g transform="translate(52.105 198.822594) scale(0.18 -0.18)">
       <defs>
        <path id="DejaVuSans-36" d="M 2113 2584 
Q 1688 2584 1439 2293 
Q 1191 2003 1191 1497 
Q 1191 994 1439 701 
Q 1688 409 2113 409 
Q 2538 409 2786 701 
Q 3034 994 3034 1497 
Q 3034 2003 2786 2293 
Q 2538 2584 2113 2584 
z
M 3366 4563 
L 3366 3988 
Q 3128 4100 2886 4159 
Q 2644 4219 2406 4219 
Q 1781 4219 1451 3797 
Q 1122 3375 1075 2522 
Q 1259 2794 1537 2939 
Q 1816 3084 2150 3084 
Q 2853 3084 3261 2657 
Q 3669 2231 3669 1497 
Q 3669 778 3244 343 
Q 2819 -91 2113 -91 
Q 1303 -91 875 529 
Q 447 1150 447 2328 
Q 447 3434 972 4092 
Q 1497 4750 2381 4750 
Q 2619 4750 2861 4703 
Q 3103 4656 3366 4563 
z
" transform="scale(0.015625)"/>
       </defs>
       <use xlink:href="#DejaVuSans-36"/>
       <use xlink:href="#DejaVuSans-30" x="63.623047"/>
      </g>
     </g>
    </g>
    <g id="ytick_3">
     <g id="line2d_6">
      <g>
       <use xlink:href="#m4a7c4afa31" x="82.01" y="116.992" style="stroke: #000000; stroke-width: 0.8"/>
      </g>
     </g>
     <g id="text_7">
      <!-- 80 -->
      <g transform="translate(52.105 123.830594) scale(0.18 -0.18)">
       <defs>
        <path id="DejaVuSans-38" d="M 2034 2216 
Q 1584 2216 1326 1975 
Q 1069 1734 1069 1313 
Q 1069 891 1326 650 
Q 1584 409 2034 409 
Q 2484 409 2743 651 
Q 3003 894 3003 1313 
Q 3003 1734 2745 1975 
Q 2488 2216 2034 2216 
z
M 1403 2484 
Q 997 2584 770 2862 
Q 544 3141 544 3541 
Q 544 4100 942 4425 
Q 1341 4750 2034 4750 
Q 2731 4750 3128 4425 
Q 3525 4100 3525 3541 
Q 3525 3141 3298 2862 
Q 3072 2584 2669 2484 
Q 3125 2378 3379 2068 
Q 3634 1759 3634 1313 
Q 3634 634 3220 271 
Q 2806 -91 2034 -91 
Q 1263 -91 848 271 
Q 434 634 434 1313 
Q 434 1759 690 2068 
Q 947 2378 1403 2484 
z
M 1172 3481 
Q 1172 3119 1398 2916 
Q 1625 2713 2034 2713 
Q 2441 2713 2670 2916 
Q 2900 3119 2900 3481 
Q 2900 3844 2670 4047 
Q 2441 4250 2034 4250 
Q 1625 4250 1398 4047 
Q 1172 3844 1172 3481 
z
" transform="scale(0.015625)"/>
       </defs>
       <use xlink:href="#DejaVuSans-38"/>
       <use xlink:href="#DejaVuSans-30" x="63.623047"/>
      </g>
     </g>
    </g>
    <g id="ytick_4">
     <g id="line2d_7">
      <g>
       <use xlink:href="#m4a7c4afa31" x="82.01" y="42" style="stroke: #000000; stroke-width: 0.8"/>
      </g>
     </g>
     <g id="text_8">
      <!-- 100 -->
      <g transform="translate(40.6525 48.838594) scale(0.18 -0.18)">
       <use xlink:href="#DejaVuSans-31"/>
       <use xlink:href="#DejaVuSans-30" x="63.623047"/>
       <use xlink:href="#DejaVuSans-30" x="127.246094"/>
      </g>
     </g>
    </g>
    <g id="text_9">
     <!-- Accuracy (%) -->
     <g transform="translate(32.909063 242.135156) rotate(-90) scale(0.18 -0.18)">
      <defs>
       <path id="DejaVuSans-41" d="M 2188 4044 
L 1331 1722 
L 3047 1722 
L 2188 4044 
z
M 1831 4666 
L 2547 4666 
L 4325 0 
L 3669 0 
L 3244 1197 
L 1141 1197 
L 716 0 
L 50 0 
L 1831 4666 
z
" transform="scale(0.015625)"/>
       <path id="DejaVuSans-63" d="M 3122 3366 
L 3122 2828 
Q 2878 2963 2633 3030 
Q 2388 3097 2138 3097 
Q 1578 3097 1268 2742 
Q 959 2388 959 1747 
Q 959 1106 1268 751 
Q 1578 397 2138 397 
Q 2388 397 2633 464 
Q 2878 531 3122 666 
L 3122 134 
Q 2881 22 2623 -34 
Q 2366 -91 2075 -91 
Q 1284 -91 818 406 
Q 353 903 353 1747 
Q 353 2603 823 3093 
Q 1294 3584 2113 3584 
Q 2378 3584 2631 3529 
Q 2884 3475 3122 3366 
z
" transform="scale(0.015625)"/>
       <path id="DejaVuSans-75" d="M 544 1381 
L 544 3500 
L 1119 3500 
L 1119 1403 
Q 1119 906 1312 657 
Q 1506 409 1894 409 
Q 2359 409 2629 706 
Q 2900 1003 2900 1516 
L 2900 3500 
L 3475 3500 
L 3475 0 
L 2900 0 
L 2900 538 
Q 2691 219 2414 64 
Q 2138 -91 1772 -91 
Q 1169 -91 856 284 
Q 544 659 544 1381 
z
M 1991 3584 
L 1991 3584 
z
" transform="scale(0.015625)"/>
       <path id="DejaVuSans-79" d="M 2059 -325 
Q 1816 -950 1584 -1140 
Q 1353 -1331 966 -1331 
L 506 -1331 
L 506 -850 
L 844 -850 
Q 1081 -850 1212 -737 
Q 1344 -625 1503 -206 
L 1606 56 
L 191 3500 
L 800 3500 
L 1894 763 
L 2988 3500 
L 3597 3500 
L 2059 -325 
z
" transform="scale(0.015625)"/>
       <path id="DejaVuSans-20" transform="scale(0.015625)"/>
       <path id="DejaVuSans-28" d="M 1984 4856 
Q 1566 4138 1362 3434 
Q 1159 2731 1159 2009 
Q 1159 1288 1364 580 
Q 1569 -128 1984 -844 
L 1484 -844 
Q 1016 -109 783 600 
Q 550 1309 550 2009 
Q 550 2706 781 3412 
Q 1013 4119 1484 4856 
L 1984 4856 
z
" transform="scale(0.015625)"/>
       <path id="DejaVuSans-25" d="M 4653 2053 
Q 4381 2053 4226 1822 
Q 4072 1591 4072 1178 
Q 4072 772 4226 539 
Q 4381 306 4653 306 
Q 4919 306 5073 539 
Q 5228 772 5228 1178 
Q 5228 1588 5073 1820 
Q 4919 2053 4653 2053 
z
M 4653 2450 
Q 5147 2450 5437 2106 
Q 5728 1763 5728 1178 
Q 5728 594 5436 251 
Q 5144 -91 4653 -91 
Q 4153 -91 3862 251 
Q 3572 594 3572 1178 
Q 3572 1766 3864 2108 
Q 4156 2450 4653 2450 
z
M 1428 4353 
Q 1159 4353 1004 4120 
Q 850 3888 850 3481 
Q 850 3069 1003 2837 
Q 1156 2606 1428 2606 
Q 1700 2606 1854 2837 
Q 2009 3069 2009 3481 
Q 2009 3884 1853 4118 
Q 1697 4353 1428 4353 
z
M 4250 4750 
L 4750 4750 
L 1831 -91 
L 1331 -91 
L 4250 4750 
z
M 1428 4750 
Q 1922 4750 2215 4408 
Q 2509 4066 2509 3481 
Q 2509 2891 2217 2550 
Q 1925 2209 1428 2209 
Q 931 2209 642 2551 
Q 353 2894 353 3481 
Q 353 4063 643 4406 
Q 934 4750 1428 4750 
z
" transform="scale(0.015625)"/>
       <path id="DejaVuSans-29" d="M 513 4856 
L 1013 4856 
Q 1481 4119 1714 3412 
Q 1947 2706 1947 2009 
Q 1947 1309 1714 600 
Q 1481 -109 1013 -844 
L 513 -844 
Q 928 -128 1133 580 
Q 1338 1288 1338 2009 
Q 1338 2731 1133 3434 
Q 928 4138 513 4856 
z
" transform="scale(0.015625)"/>
      </defs>
      <use xlink:href="#DejaVuSans-41"/>
      <use xlink:href="#DejaVuSans-63" x="66.658203"/>
      <use xlink:href="#DejaVuSans-63" x="121.638672"/>
      <use xlink:href="#DejaVuSans-75" x="176.619141"/>
      <use xlink:href="#DejaVuSans-72" x="239.998047"/>
      <use xlink:href="#DejaVuSans-61" x="281.111328"/>
      <use xlink:href="#DejaVuSans-63" x="342.390625"/>
      <use xlink:href="#DejaVuSans-79" x="397.371094"/>
      <use xlink:href="#DejaVuSans-20" x="456.550781"/>
      <use xlink:href="#DejaVuSans-28" x="488.337891"/>
      <use xlink:href="#DejaVuSans-25" x="527.351562"/>
      <use xlink:href="#DejaVuSans-29" x="622.371094"/>
     </g>
    </g>
   </g>
   <g id="line2d_8">
    <path d="M 94.351364 199.390617 
L 104.635833 190.855648 
L 114.920303 185.387481 
L 125.204773 173.236 
L 135.489242 164.55637 
L 145.773712 160.042963 
L 156.058182 153.79363 
L 166.342652 151.363333 
L 176.627121 146.502741 
L 186.911591 145.114 
L 197.196061 142.336519 
L 207.48053 143.725259 
L 217.765 140.947778 
L 228.04947 145.80837 
L 238.333939 142.683704 
L 248.618409 141.294963 
L 258.902879 135.392815 
L 269.187348 136.781556 
L 279.471818 131.226593 
L 289.756288 130.532222 
L 300.040758 126.713185 
L 310.325227 127.754741 
L 320.609697 123.588519 
L 330.894167 119.538025 
" clip-path="url(#p339343c226)" style="fill: none; stroke: #095086; stroke-opacity: 0.75; stroke-width: 3; stroke-linecap: square"/>
   </g>
   <g id="line2d_9">
    <path d="M 104.635833 187.239136 
L 114.920303 175.232315 
L 125.204773 165.945111 
L 135.489242 140.600593 
L 145.773712 125.324444 
L 156.058182 114.908889 
L 166.342652 108.659556 
L 176.627121 104.146148 
L 186.911591 101.021481 
L 197.196061 98.93837 
L 207.48053 97.202444 
L 217.765 94.772148 
L 228.04947 93.036222 
L 238.333939 90.605926 
L 248.618409 88.17563 
L 258.902879 89.911556 
L 269.187348 89.217185 
L 279.471818 88.522815 
L 289.756288 87.481259 
L 300.040758 87.828444 
L 310.325227 83.315037 
L 320.609697 79.843185 
L 330.894167 76.284537 
L 341.178636 77.29716 
" clip-path="url(#p339343c226)" style="fill: none; stroke-dasharray: 7.4,3.2; stroke-dashoffset: 0; stroke: #095086; stroke-opacity: 0.75; stroke-width: 2"/>
   </g>
   <g id="line2d_10">
    <path d="M 94.351364 205.177037 
L 104.635833 202.139167 
L 114.920303 197.538963 
L 125.204773 187.123407 
L 135.489242 175.319111 
L 145.773712 168.028222 
L 156.058182 158.307037 
L 166.342652 152.752074 
L 176.627121 149.627407 
L 186.911591 150.668963 
L 197.196061 143.030889 
L 207.48053 141.642148 
L 217.765 137.128741 
L 228.04947 131.226593 
L 238.333939 131.226593 
L 248.618409 134.004074 
L 258.902879 129.490667 
L 269.187348 131.920963 
L 279.471818 130.185037 
L 289.756288 126.018815 
L 300.040758 127.06037 
L 310.325227 130.185037 
L 320.609697 127.494352 
L 330.894167 131.110864 
" clip-path="url(#p339343c226)" style="fill: none; stroke: #b00000; stroke-opacity: 0.75; stroke-width: 3; stroke-linecap: square"/>
   </g>
   <g id="line2d_11">
    <path d="M 104.635833 183.188642 
L 114.920303 170.024537 
L 125.204773 162.820444 
L 135.489242 140.947778 
L 145.773712 128.796296 
L 156.058182 123.241333 
L 166.342652 119.422296 
L 176.627121 115.603259 
L 186.911591 114.908889 
L 197.196061 115.256074 
L 207.48053 113.172963 
L 217.765 112.478593 
L 228.04947 107.965185 
L 238.333939 105.534889 
L 248.618409 102.757407 
L 258.902879 97.202444 
L 269.187348 89.217185 
L 279.471818 84.009407 
L 289.756288 77.065704 
L 300.040758 73.593852 
L 310.325227 69.774815 
L 320.609697 70.122 
L 330.894167 71.076759 
L 341.178636 71.510741 
" clip-path="url(#p339343c226)" style="fill: none; stroke-dasharray: 7.4,3.2; stroke-dashoffset: 0; stroke: #b00000; stroke-opacity: 0.75; stroke-width: 2"/>
   </g>
   <g id="patch_3">
    <path d="M 82.01 323.22 
L 82.01 42 
" style="fill: none; stroke: #000000; stroke-width: 0.8; stroke-linejoin: miter; stroke-linecap: square"/>
   </g>
   <g id="patch_4">
    <path d="M 82.01 323.22 
L 353.52 323.22 
" style="fill: none; stroke: #000000; stroke-width: 0.8; stroke-linejoin: miter; stroke-linecap: square"/>
   </g>
   <g id="text_10">
    <!-- No Pain -->
    <g transform="translate(177.155313 36) scale(0.216 -0.216)">
     <defs>
      <path id="DejaVuSans-4e" d="M 628 4666 
L 1478 4666 
L 3547 763 
L 3547 4666 
L 4159 4666 
L 4159 0 
L 3309 0 
L 1241 3903 
L 1241 0 
L 628 0 
L 628 4666 
z
" transform="scale(0.015625)"/>
      <path id="DejaVuSans-6f" d="M 1959 3097 
Q 1497 3097 1228 2736 
Q 959 2375 959 1747 
Q 959 1119 1226 758 
Q 1494 397 1959 397 
Q 2419 397 2687 759 
Q 2956 1122 2956 1747 
Q 2956 2369 2687 2733 
Q 2419 3097 1959 3097 
z
M 1959 3584 
Q 2709 3584 3137 3096 
Q 3566 2609 3566 1747 
Q 3566 888 3137 398 
Q 2709 -91 1959 -91 
Q 1206 -91 779 398 
Q 353 888 353 1747 
Q 353 2609 779 3096 
Q 1206 3584 1959 3584 
z
" transform="scale(0.015625)"/>
      <path id="DejaVuSans-50" d="M 1259 4147 
L 1259 2394 
L 2053 2394 
Q 2494 2394 2734 2622 
Q 2975 2850 2975 3272 
Q 2975 3691 2734 3919 
Q 2494 4147 2053 4147 
L 1259 4147 
z
M 628 4666 
L 2053 4666 
Q 2838 4666 3239 4311 
Q 3641 3956 3641 3272 
Q 3641 2581 3239 2228 
Q 2838 1875 2053 1875 
L 1259 1875 
L 1259 0 
L 628 0 
L 628 4666 
z
" transform="scale(0.015625)"/>
      <path id="DejaVuSans-6e" d="M 3513 2113 
L 3513 0 
L 2938 0 
L 2938 2094 
Q 2938 2591 2744 2837 
Q 2550 3084 2163 3084 
Q 1697 3084 1428 2787 
Q 1159 2491 1159 1978 
L 1159 0 
L 581 0 
L 581 3500 
L 1159 3500 
L 1159 2956 
Q 1366 3272 1645 3428 
Q 1925 3584 2291 3584 
Q 2894 3584 3203 3211 
Q 3513 2838 3513 2113 
z
" transform="scale(0.015625)"/>
     </defs>
     <use xlink:href="#DejaVuSans-4e"/>
     <use xlink:href="#DejaVuSans-6f" x="74.804688"/>
     <use xlink:href="#DejaVuSans-20" x="135.986328"/>
     <use xlink:href="#DejaVuSans-50" x="167.773438"/>
     <use xlink:href="#DejaVuSans-61" x="223.576172"/>
     <use xlink:href="#DejaVuSans-69" x="284.855469"/>
     <use xlink:href="#DejaVuSans-6e" x="312.638672"/>
    </g>
   </g>
   <g id="legend_1">
    <g id="line2d_12">
     <path d="M 219.884062 270.555938 
L 237.884062 270.555938 
L 255.884062 270.555938 
" style="fill: none; stroke: #095086; stroke-opacity: 0.75; stroke-width: 3; stroke-linecap: square"/>
    </g>
    <g id="text_11">
     <!-- Reward -->
     <g transform="translate(270.284062 276.855938) scale(0.18 -0.18)">
      <defs>
       <path id="DejaVuSans-52" d="M 2841 2188 
Q 3044 2119 3236 1894 
Q 3428 1669 3622 1275 
L 4263 0 
L 3584 0 
L 2988 1197 
Q 2756 1666 2539 1819 
Q 2322 1972 1947 1972 
L 1259 1972 
L 1259 0 
L 628 0 
L 628 4666 
L 2053 4666 
Q 2853 4666 3247 4331 
Q 3641 3997 3641 3322 
Q 3641 2881 3436 2590 
Q 3231 2300 2841 2188 
z
M 1259 4147 
L 1259 2491 
L 2053 2491 
Q 2509 2491 2742 2702 
Q 2975 2913 2975 3322 
Q 2975 3731 2742 3939 
Q 2509 4147 2053 4147 
L 1259 4147 
z
" transform="scale(0.015625)"/>
       <path id="DejaVuSans-65" d="M 3597 1894 
L 3597 1613 
L 953 1613 
Q 991 1019 1311 708 
Q 1631 397 2203 397 
Q 2534 397 2845 478 
Q 3156 559 3463 722 
L 3463 178 
Q 3153 47 2828 -22 
Q 2503 -91 2169 -91 
Q 1331 -91 842 396 
Q 353 884 353 1716 
Q 353 2575 817 3079 
Q 1281 3584 2069 3584 
Q 2775 3584 3186 3129 
Q 3597 2675 3597 1894 
z
M 3022 2063 
Q 3016 2534 2758 2815 
Q 2500 3097 2075 3097 
Q 1594 3097 1305 2825 
Q 1016 2553 972 2059 
L 3022 2063 
z
" transform="scale(0.015625)"/>
       <path id="DejaVuSans-77" d="M 269 3500 
L 844 3500 
L 1563 769 
L 2278 3500 
L 2956 3500 
L 3675 769 
L 4391 3500 
L 4966 3500 
L 4050 0 
L 3372 0 
L 2619 2869 
L 1863 0 
L 1184 0 
L 269 3500 
z
" transform="scale(0.015625)"/>
       <path id="DejaVuSans-64" d="M 2906 2969 
L 2906 4863 
L 3481 4863 
L 3481 0 
L 2906 0 
L 2906 525 
Q 2725 213 2448 61 
Q 2172 -91 1784 -91 
Q 1150 -91 751 415 
Q 353 922 353 1747 
Q 353 2572 751 3078 
Q 1150 3584 1784 3584 
Q 2172 3584 2448 3432 
Q 2725 3281 2906 2969 
z
M 947 1747 
Q 947 1113 1208 752 
Q 1469 391 1925 391 
Q 2381 391 2643 752 
Q 2906 1113 2906 1747 
Q 2906 2381 2643 2742 
Q 2381 3103 1925 3103 
Q 1469 3103 1208 2742 
Q 947 2381 947 1747 
z
" transform="scale(0.015625)"/>
      </defs>
      <use xlink:href="#DejaVuSans-52"/>
      <use xlink:href="#DejaVuSans-65" x="64.982422"/>
      <use xlink:href="#DejaVuSans-77" x="126.505859"/>
      <use xlink:href="#DejaVuSans-61" x="208.292969"/>
      <use xlink:href="#DejaVuSans-72" x="269.572266"/>
      <use xlink:href="#DejaVuSans-64" x="308.935547"/>
     </g>
    </g>
    <g id="line2d_13">
     <path d="M 219.884062 296.976563 
L 237.884062 296.976563 
L 255.884062 296.976563 
" style="fill: none; stroke: #b00000; stroke-opacity: 0.75; stroke-width: 3; stroke-linecap: square"/>
    </g>
    <g id="text_12">
     <!-- Punish -->
     <g transform="translate(270.284062 303.276563) scale(0.18 -0.18)">
      <defs>
       <path id="DejaVuSans-73" d="M 2834 3397 
L 2834 2853 
Q 2591 2978 2328 3040 
Q 2066 3103 1784 3103 
Q 1356 3103 1142 2972 
Q 928 2841 928 2578 
Q 928 2378 1081 2264 
Q 1234 2150 1697 2047 
L 1894 2003 
Q 2506 1872 2764 1633 
Q 3022 1394 3022 966 
Q 3022 478 2636 193 
Q 2250 -91 1575 -91 
Q 1294 -91 989 -36 
Q 684 19 347 128 
L 347 722 
Q 666 556 975 473 
Q 1284 391 1588 391 
Q 1994 391 2212 530 
Q 2431 669 2431 922 
Q 2431 1156 2273 1281 
Q 2116 1406 1581 1522 
L 1381 1569 
Q 847 1681 609 1914 
Q 372 2147 372 2553 
Q 372 3047 722 3315 
Q 1072 3584 1716 3584 
Q 2034 3584 2315 3537 
Q 2597 3491 2834 3397 
z
" transform="scale(0.015625)"/>
       <path id="DejaVuSans-68" d="M 3513 2113 
L 3513 0 
L 2938 0 
L 2938 2094 
Q 2938 2591 2744 2837 
Q 2550 3084 2163 3084 
Q 1697 3084 1428 2787 
Q 1159 2491 1159 1978 
L 1159 0 
L 581 0 
L 581 4863 
L 1159 4863 
L 1159 2956 
Q 1366 3272 1645 3428 
Q 1925 3584 2291 3584 
Q 2894 3584 3203 3211 
Q 3513 2838 3513 2113 
z
" transform="scale(0.015625)"/>
      </defs>
      <use xlink:href="#DejaVuSans-50"/>
      <use xlink:href="#DejaVuSans-75" x="58.552734"/>
      <use xlink:href="#DejaVuSans-6e" x="121.931641"/>
      <use xlink:href="#DejaVuSans-69" x="185.310547"/>
      <use xlink:href="#DejaVuSans-73" x="213.09375"/>
      <use xlink:href="#DejaVuSans-68" x="265.193359"/>
     </g>
    </g>
   </g>
  </g>
  <g id="axes_2">
   <g id="patch_5">
    <path d="M 435.53 323.22 
L 707.04 323.22 
L 707.04 42 
L 435.53 42 
z
" style="fill: #ffffff"/>
   </g>
   <g id="PolyCollection_3">
    <path d="M 447.871364 173.370493 
L 447.871364 243.141205 
L 458.155833 248.828292 
L 468.440303 238.54834 
L 478.724773 226.161403 
L 489.009242 211.621409 
L 499.293712 208.502922 
L 509.578182 199.958513 
L 519.862652 204.589699 
L 530.147121 200.124031 
L 540.431591 201.134508 
L 550.716061 192.210597 
L 561.00053 190.088182 
L 571.285 183.893202 
L 581.56947 187.91262 
L 591.853939 184.753094 
L 602.138409 185.740057 
L 612.422879 189.052262 
L 622.707348 186.671226 
L 632.991818 178.145071 
L 643.276288 173.160204 
L 653.560758 171.924957 
L 663.845227 167.532995 
L 674.129697 165.823003 
L 684.414167 165.316252 
L 684.414167 102.62639 
L 684.414167 102.62639 
L 674.129697 100.350959 
L 663.845227 101.824589 
L 653.560758 105.922289 
L 643.276288 110.346815 
L 632.991818 112.436665 
L 622.707348 110.985226 
L 612.422879 117.093851 
L 602.138409 123.235943 
L 591.853939 108.658529 
L 581.56947 111.158776 
L 571.285 118.008081 
L 561.00053 118.887818 
L 550.716061 121.010233 
L 540.431591 130.480587 
L 530.147121 130.07612 
L 519.862652 132.685169 
L 509.578182 134.486468 
L 499.293712 145.751266 
L 489.009242 142.632779 
L 478.724773 150.73188 
L 468.440303 166.64381 
L 458.155833 171.220765 
L 447.871364 173.370493 
z
" clip-path="url(#p4300b187d7)" style="fill: #095086; fill-opacity: 0.1"/>
   </g>
   <g id="PolyCollection_4">
    <path d="M 447.871364 173.15712 
L 447.871364 248.071056 
L 458.155833 244.043133 
L 468.440303 239.296972 
L 478.724773 225.18714 
L 489.009242 211.839023 
L 499.293712 215.909246 
L 509.578182 208.424401 
L 519.862652 196.112271 
L 530.147121 192.754389 
L 540.431591 192.382862 
L 550.716061 183.097373 
L 561.00053 180.314824 
L 571.285 181.25626 
L 581.56947 181.296994 
L 591.853939 175.904475 
L 602.138409 181.649864 
L 612.422879 182.95542 
L 622.707348 179.389222 
L 632.991818 174.69607 
L 643.276288 170.362882 
L 653.560758 158.07076 
L 663.845227 156.655817 
L 674.129697 162.162715 
L 684.414167 155.149303 
L 684.414167 96.285665 
L 684.414167 96.285665 
L 674.129697 93.399171 
L 663.845227 97.137391 
L 653.560758 98.552334 
L 643.276288 104.654476 
L 632.991818 108.810949 
L 622.707348 106.947683 
L 612.422879 114.701033 
L 602.138409 118.836475 
L 591.853939 110.432431 
L 581.56947 109.284742 
L 571.285 112.155362 
L 561.00053 110.266912 
L 550.716061 117.388967 
L 540.431591 126.497741 
L 530.147121 121.881385 
L 519.862652 128.428106 
L 509.578182 140.170014 
L 499.293712 144.004716 
L 489.009242 150.904826 
L 478.724773 153.121087 
L 468.440303 170.140009 
L 458.155833 165.393848 
L 447.871364 173.15712 
z
" clip-path="url(#p4300b187d7)" style="fill: #b00000; fill-opacity: 0.1"/>
   </g>
   <g id="matplotlib.axis_3">
    <g id="xtick_4">
     <g id="line2d_14">
      <g>
       <use xlink:href="#m7d26f3290c" x="447.871364" y="323.22" style="stroke: #000000; stroke-width: 0.8"/>
      </g>
     </g>
     <g id="text_13">
      <!-- 0 -->
      <g transform="translate(442.145114 343.897188) scale(0.18 -0.18)">
       <use xlink:href="#DejaVuSans-30"/>
      </g>
     </g>
    </g>
    <g id="xtick_5">
     <g id="line2d_15">
      <g>
       <use xlink:href="#m7d26f3290c" x="550.716061" y="323.22" style="stroke: #000000; stroke-width: 0.8"/>
      </g>
     </g>
     <g id="text_14">
      <!-- 10 -->
      <g transform="translate(539.263561 343.897188) scale(0.18 -0.18)">
       <use xlink:href="#DejaVuSans-31"/>
       <use xlink:href="#DejaVuSans-30" x="63.623047"/>
      </g>
     </g>
    </g>
    <g id="xtick_6">
     <g id="line2d_16">
      <g>
       <use xlink:href="#m7d26f3290c" x="653.560758" y="323.22" style="stroke: #000000; stroke-width: 0.8"/>
      </g>
     </g>
     <g id="text_15">
      <!-- 20 -->
      <g transform="translate(642.108258 343.897188) scale(0.18 -0.18)">
       <use xlink:href="#DejaVuSans-32"/>
       <use xlink:href="#DejaVuSans-30" x="63.623047"/>
      </g>
     </g>
    </g>
    <g id="text_16">
     <!-- Trial -->
     <g transform="translate(552.899688 365.317813) scale(0.18 -0.18)">
      <use xlink:href="#DejaVuSans-54"/>
      <use xlink:href="#DejaVuSans-72" x="46.333984"/>
      <use xlink:href="#DejaVuSans-69" x="87.447266"/>
      <use xlink:href="#DejaVuSans-61" x="115.230469"/>
      <use xlink:href="#DejaVuSans-6c" x="176.509766"/>
     </g>
    </g>
   </g>
   <g id="matplotlib.axis_4">
    <g id="ytick_5">
     <g id="line2d_17">
      <g>
       <use xlink:href="#m4a7c4afa31" x="435.53" y="266.976" style="stroke: #000000; stroke-width: 0.8"/>
      </g>
     </g>
     <g id="text_17">
      <!-- 40 -->
      <g transform="translate(405.625 273.814594) scale(0.18 -0.18)">
       <use xlink:href="#DejaVuSans-34"/>
       <use xlink:href="#DejaVuSans-30" x="63.623047"/>
      </g>
     </g>
    </g>
    <g id="ytick_6">
     <g id="line2d_18">
      <g>
       <use xlink:href="#m4a7c4afa31" x="435.53" y="191.984" style="stroke: #000000; stroke-width: 0.8"/>
      </g>
     </g>
     <g id="text_18">
      <!-- 60 -->
      <g transform="translate(405.625 198.822594) scale(0.18 -0.18)">
       <use xlink:href="#DejaVuSans-36"/>
       <use xlink:href="#DejaVuSans-30" x="63.623047"/>
      </g>
     </g>
    </g>
    <g id="ytick_7">
     <g id="line2d_19">
      <g>
       <use xlink:href="#m4a7c4afa31" x="435.53" y="116.992" style="stroke: #000000; stroke-width: 0.8"/>
      </g>
     </g>
     <g id="text_19">
      <!-- 80 -->
      <g transform="translate(405.625 123.830594) scale(0.18 -0.18)">
       <use xlink:href="#DejaVuSans-38"/>
       <use xlink:href="#DejaVuSans-30" x="63.623047"/>
      </g>
     </g>
    </g>
    <g id="ytick_8">
     <g id="line2d_20">
      <g>
       <use xlink:href="#m4a7c4afa31" x="435.53" y="42" style="stroke: #000000; stroke-width: 0.8"/>
      </g>
     </g>
     <g id="text_20">
      <!-- 100 -->
      <g transform="translate(394.1725 48.838594) scale(0.18 -0.18)">
       <use xlink:href="#DejaVuSans-31"/>
       <use xlink:href="#DejaVuSans-30" x="63.623047"/>
       <use xlink:href="#DejaVuSans-30" x="127.246094"/>
      </g>
     </g>
    </g>
    <g id="text_21">
     <!-- Accuracy (%) -->
     <g transform="translate(386.429063 242.135156) rotate(-90) scale(0.18 -0.18)">
      <use xlink:href="#DejaVuSans-41"/>
      <use xlink:href="#DejaVuSans-63" x="66.658203"/>
      <use xlink:href="#DejaVuSans-63" x="121.638672"/>
      <use xlink:href="#DejaVuSans-75" x="176.619141"/>
      <use xlink:href="#DejaVuSans-72" x="239.998047"/>
      <use xlink:href="#DejaVuSans-61" x="281.111328"/>
      <use xlink:href="#DejaVuSans-63" x="342.390625"/>
      <use xlink:href="#DejaVuSans-79" x="397.371094"/>
      <use xlink:href="#DejaVuSans-20" x="456.550781"/>
      <use xlink:href="#DejaVuSans-28" x="488.337891"/>
      <use xlink:href="#DejaVuSans-25" x="527.351562"/>
      <use xlink:href="#DejaVuSans-29" x="622.371094"/>
     </g>
    </g>
   </g>
   <g id="line2d_21">
    <path d="M 447.871364 208.255849 
L 458.155833 210.024528 
L 468.440303 202.596075 
L 478.724773 188.446642 
L 489.009242 177.127094 
L 499.293712 177.127094 
L 509.578182 167.222491 
L 519.862652 168.637434 
L 530.147121 165.100075 
L 540.431591 165.807547 
L 550.716061 156.610415 
L 561.00053 154.488 
L 571.285 150.950642 
L 581.56947 149.535698 
L 591.853939 146.705811 
L 602.138409 154.488 
L 612.422879 153.073057 
L 622.707348 148.828226 
L 632.991818 145.290868 
L 643.276288 141.753509 
L 653.560758 138.923623 
L 663.845227 134.678792 
L 674.129697 133.086981 
L 684.414167 133.971321 
" clip-path="url(#p4300b187d7)" style="fill: none; stroke: #095086; stroke-opacity: 0.75; stroke-width: 3; stroke-linecap: square"/>
   </g>
   <g id="line2d_22">
    <path d="M 458.155833 190.569057 
L 468.440303 178.188302 
L 478.724773 167.222491 
L 489.009242 148.828226 
L 499.293712 134.678792 
L 509.578182 124.774189 
L 519.862652 116.284528 
L 530.147121 109.917283 
L 540.431591 102.135094 
L 550.716061 99.305208 
L 561.00053 94.352906 
L 571.285 93.645434 
L 581.56947 93.645434 
L 591.853939 99.305208 
L 602.138409 93.645434 
L 612.422879 90.108075 
L 622.707348 85.863245 
L 632.991818 85.155774 
L 643.276288 75.25117 
L 653.560758 76.666113 
L 663.845227 78.788528 
L 674.129697 78.788528 
L 684.414167 76.489245 
L 694.698636 82.090063 
" clip-path="url(#p4300b187d7)" style="fill: none; stroke-dasharray: 7.4,3.2; stroke-dashoffset: 0; stroke: #095086; stroke-opacity: 0.75; stroke-width: 2"/>
   </g>
   <g id="line2d_23">
    <path d="M 447.871364 210.614088 
L 458.155833 204.718491 
L 468.440303 204.718491 
L 478.724773 189.154113 
L 489.009242 181.371925 
L 499.293712 179.956981 
L 509.578182 174.297208 
L 519.862652 162.270189 
L 530.147121 157.317887 
L 540.431591 159.440302 
L 550.716061 150.24317 
L 561.00053 145.290868 
L 571.285 146.705811 
L 581.56947 145.290868 
L 591.853939 143.168453 
L 602.138409 150.24317 
L 612.422879 148.828226 
L 622.707348 143.168453 
L 632.991818 141.753509 
L 643.276288 137.508679 
L 653.560758 128.311547 
L 663.845227 126.896604 
L 674.129697 127.780943 
L 684.414167 125.717484 
" clip-path="url(#p4300b187d7)" style="fill: none; stroke: #b00000; stroke-opacity: 0.75; stroke-width: 3; stroke-linecap: square"/>
   </g>
   <g id="line2d_24">
    <path d="M 458.155833 192.927296 
L 468.440303 189.684717 
L 478.724773 178.542038 
L 489.009242 162.270189 
L 499.293712 149.535698 
L 509.578182 133.263849 
L 519.862652 117.699472 
L 530.147121 110.624755 
L 540.431591 107.794868 
L 550.716061 104.257509 
L 561.00053 102.842566 
L 571.285 104.257509 
L 581.56947 102.135094 
L 591.853939 98.597736 
L 602.138409 95.060377 
L 612.422879 92.937962 
L 622.707348 90.108075 
L 632.991818 88.693132 
L 643.276288 87.98566 
L 653.560758 88.693132 
L 663.845227 85.155774 
L 674.129697 80.910943 
L 684.414167 80.910943 
L 694.698636 77.373585 
" clip-path="url(#p4300b187d7)" style="fill: none; stroke-dasharray: 7.4,3.2; stroke-dashoffset: 0; stroke: #b00000; stroke-opacity: 0.75; stroke-width: 2"/>
   </g>
   <g id="patch_6">
    <path d="M 435.53 323.22 
L 435.53 42 
" style="fill: none; stroke: #000000; stroke-width: 0.8; stroke-linejoin: miter; stroke-linecap: square"/>
   </g>
   <g id="patch_7">
    <path d="M 435.53 323.22 
L 707.04 323.22 
" style="fill: none; stroke: #000000; stroke-width: 0.8; stroke-linejoin: miter; stroke-linecap: square"/>
   </g>
   <g id="text_22">
    <!-- Acute Pain -->
    <g transform="translate(514.502313 36) scale(0.216 -0.216)">
     <defs>
      <path id="DejaVuSans-74" d="M 1172 4494 
L 1172 3500 
L 2356 3500 
L 2356 3053 
L 1172 3053 
L 1172 1153 
Q 1172 725 1289 603 
Q 1406 481 1766 481 
L 2356 481 
L 2356 0 
L 1766 0 
Q 1100 0 847 248 
Q 594 497 594 1153 
L 594 3053 
L 172 3053 
L 172 3500 
L 594 3500 
L 594 4494 
L 1172 4494 
z
" transform="scale(0.015625)"/>
     </defs>
     <use xlink:href="#DejaVuSans-41"/>
     <use xlink:href="#DejaVuSans-63" x="66.658203"/>
     <use xlink:href="#DejaVuSans-75" x="121.638672"/>
     <use xlink:href="#DejaVuSans-74" x="185.017578"/>
     <use xlink:href="#DejaVuSans-65" x="224.226562"/>
     <use xlink:href="#DejaVuSans-20" x="285.75"/>
     <use xlink:href="#DejaVuSans-50" x="317.537109"/>
     <use xlink:href="#DejaVuSans-61" x="373.339844"/>
     <use xlink:href="#DejaVuSans-69" x="434.619141"/>
     <use xlink:href="#DejaVuSans-6e" x="462.402344"/>
    </g>
   </g>
   <g id="legend_2">
    <g id="line2d_25">
     <path d="M 573.404063 270.555938 
L 591.404063 270.555938 
L 609.404063 270.555938 
" style="fill: none; stroke: #095086; stroke-opacity: 0.75; stroke-width: 3; stroke-linecap: square"/>
    </g>
    <g id="text_23">
     <!-- Reward -->
     <g transform="translate(623.804062 276.855938) scale(0.18 -0.18)">
      <use xlink:href="#DejaVuSans-52"/>
      <use xlink:href="#DejaVuSans-65" x="64.982422"/>
      <use xlink:href="#DejaVuSans-77" x="126.505859"/>
      <use xlink:href="#DejaVuSans-61" x="208.292969"/>
      <use xlink:href="#DejaVuSans-72" x="269.572266"/>
      <use xlink:href="#DejaVuSans-64" x="308.935547"/>
     </g>
    </g>
    <g id="line2d_26">
     <path d="M 573.404063 296.976563 
L 591.404063 296.976563 
L 609.404063 296.976563 
" style="fill: none; stroke: #b00000; stroke-opacity: 0.75; stroke-width: 3; stroke-linecap: square"/>
    </g>
    <g id="text_24">
     <!-- Punish -->
     <g transform="translate(623.804062 303.276563) scale(0.18 -0.18)">
      <use xlink:href="#DejaVuSans-50"/>
      <use xlink:href="#DejaVuSans-75" x="58.552734"/>
      <use xlink:href="#DejaVuSans-6e" x="121.931641"/>
      <use xlink:href="#DejaVuSans-69" x="185.310547"/>
      <use xlink:href="#DejaVuSans-73" x="213.09375"/>
      <use xlink:href="#DejaVuSans-68" x="265.193359"/>
     </g>
    </g>
   </g>
  </g>
  <g id="axes_3">
   <g id="patch_8">
    <path d="M 789.05 323.22 
L 1060.56 323.22 
L 1060.56 42 
L 789.05 42 
z
" style="fill: #ffffff"/>
   </g>
   <g id="PolyCollection_5">
    <path d="M 801.391364 163.330412 
L 801.391364 220.31711 
L 811.675833 219.560647 
L 821.960303 211.698858 
L 832.244773 200.845536 
L 842.529242 197.147463 
L 852.813712 190.43678 
L 863.098182 189.852006 
L 873.382652 189.762643 
L 883.667121 185.23314 
L 893.951591 182.924316 
L 904.236061 186.554434 
L 914.52053 180.657666 
L 924.805 178.789946 
L 935.08947 177.504023 
L 945.373939 180.97618 
L 955.658409 174.918537 
L 965.942879 174.004263 
L 976.227348 173.692069 
L 986.511818 172.004743 
L 996.796288 172.479548 
L 1007.080758 170.265757 
L 1017.365227 164.929654 
L 1027.649697 164.556792 
L 1037.934167 157.879449 
L 1037.934167 111.998157 
L 1037.934167 111.998157 
L 1027.649697 110.528592 
L 1017.365227 109.434654 
L 1007.080758 114.674346 
L 996.796288 120.152042 
L 986.511818 121.588283 
L 976.227348 114.132341 
L 965.942879 118.627326 
L 955.658409 124.443104 
L 945.373939 122.231205 
L 935.08947 122.819054 
L 924.805 123.456003 
L 914.52053 130.241206 
L 904.236061 129.151617 
L 893.951591 121.244504 
L 883.667121 128.550039 
L 873.382652 137.480639 
L 863.098182 132.584097 
L 852.813712 136.806502 
L 842.529242 135.864434 
L 832.244773 142.742157 
L 821.960303 154.963296 
L 811.675833 160.080891 
L 801.391364 163.330412 
z
" clip-path="url(#p4b73bc591c)" style="fill: #095086; fill-opacity: 0.1"/>
   </g>
   <g id="PolyCollection_6">
    <path d="M 801.391364 181.013769 
L 801.391364 242.693581 
L 811.675833 237.220829 
L 821.960303 230.283001 
L 832.244773 220.361164 
L 842.529242 211.58837 
L 852.813712 207.116541 
L 863.098182 192.595708 
L 873.382652 193.37904 
L 883.667121 185.705015 
L 893.951591 176.542587 
L 904.236061 170.126981 
L 914.52053 170.040958 
L 924.805 159.412864 
L 935.08947 166.505506 
L 945.373939 161.956828 
L 955.658409 170.267833 
L 965.942879 167.678281 
L 976.227348 171.230242 
L 986.511818 165.347133 
L 996.796288 167.445398 
L 1007.080758 168.041997 
L 1017.365227 164.752634 
L 1027.649697 164.30786 
L 1037.934167 161.778913 
L 1037.934167 111.30348 
L 1037.934167 111.30348 
L 1027.649697 110.777525 
L 1017.365227 114.418853 
L 1007.080758 114.013798 
L 996.796288 113.648961 
L 986.511818 116.708662 
L 976.227348 117.555604 
L 965.942879 117.261821 
L 955.658409 113.710834 
L 945.373939 111.446044 
L 935.08947 110.74311 
L 924.805 113.028572 
L 914.52053 111.053401 
L 904.236061 112.890249 
L 893.951591 121.857618 
L 883.667121 125.193856 
L 873.382652 130.979934 
L 863.098182 135.60901 
L 852.813712 142.239766 
L 842.529242 157.958092 
L 832.244773 157.838221 
L 821.960303 169.067973 
L 811.675833 177.272761 
L 801.391364 181.013769 
z
" clip-path="url(#p4b73bc591c)" style="fill: #b00000; fill-opacity: 0.1"/>
   </g>
   <g id="matplotlib.axis_5">
    <g id="xtick_7">
     <g id="line2d_27">
      <g>
       <use xlink:href="#m7d26f3290c" x="801.391364" y="323.22" style="stroke: #000000; stroke-width: 0.8"/>
      </g>
     </g>
     <g id="text_25">
      <!-- 0 -->
      <g transform="translate(795.665114 343.897188) scale(0.18 -0.18)">
       <use xlink:href="#DejaVuSans-30"/>
      </g>
     </g>
    </g>
    <g id="xtick_8">
     <g id="line2d_28">
      <g>
       <use xlink:href="#m7d26f3290c" x="904.236061" y="323.22" style="stroke: #000000; stroke-width: 0.8"/>
      </g>
     </g>
     <g id="text_26">
      <!-- 10 -->
      <g transform="translate(892.783561 343.897188) scale(0.18 -0.18)">
       <use xlink:href="#DejaVuSans-31"/>
       <use xlink:href="#DejaVuSans-30" x="63.623047"/>
      </g>
     </g>
    </g>
    <g id="xtick_9">
     <g id="line2d_29">
      <g>
       <use xlink:href="#m7d26f3290c" x="1007.080758" y="323.22" style="stroke: #000000; stroke-width: 0.8"/>
      </g>
     </g>
     <g id="text_27">
      <!-- 20 -->
      <g transform="translate(995.628258 343.897188) scale(0.18 -0.18)">
       <use xlink:href="#DejaVuSans-32"/>
       <use xlink:href="#DejaVuSans-30" x="63.623047"/>
      </g>
     </g>
    </g>
    <g id="text_28">
     <!-- Trial -->
     <g transform="translate(906.419688 365.317813) scale(0.18 -0.18)">
      <use xlink:href="#DejaVuSans-54"/>
      <use xlink:href="#DejaVuSans-72" x="46.333984"/>
      <use xlink:href="#DejaVuSans-69" x="87.447266"/>
      <use xlink:href="#DejaVuSans-61" x="115.230469"/>
      <use xlink:href="#DejaVuSans-6c" x="176.509766"/>
     </g>
    </g>
   </g>
   <g id="matplotlib.axis_6">
    <g id="ytick_9">
     <g id="line2d_30">
      <g>
       <use xlink:href="#m4a7c4afa31" x="789.05" y="266.976" style="stroke: #000000; stroke-width: 0.8"/>
      </g>
     </g>
     <g id="text_29">
      <!-- 40 -->
      <g transform="translate(759.145 273.814594) scale(0.18 -0.18)">
       <use xlink:href="#DejaVuSans-34"/>
       <use xlink:href="#DejaVuSans-30" x="63.623047"/>
      </g>
     </g>
    </g>
    <g id="ytick_10">
     <g id="line2d_31">
      <g>
       <use xlink:href="#m4a7c4afa31" x="789.05" y="191.984" style="stroke: #000000; stroke-width: 0.8"/>
      </g>
     </g>
     <g id="text_30">
      <!-- 60 -->
      <g transform="translate(759.145 198.822594) scale(0.18 -0.18)">
       <use xlink:href="#DejaVuSans-36"/>
       <use xlink:href="#DejaVuSans-30" x="63.623047"/>
      </g>
     </g>
    </g>
    <g id="ytick_11">
     <g id="line2d_32">
      <g>
       <use xlink:href="#m4a7c4afa31" x="789.05" y="116.992" style="stroke: #000000; stroke-width: 0.8"/>
      </g>
     </g>
     <g id="text_31">
      <!-- 80 -->
      <g transform="translate(759.145 123.830594) scale(0.18 -0.18)">
       <use xlink:href="#DejaVuSans-38"/>
       <use xlink:href="#DejaVuSans-30" x="63.623047"/>
      </g>
     </g>
    </g>
    <g id="ytick_12">
     <g id="line2d_33">
      <g>
       <use xlink:href="#m4a7c4afa31" x="789.05" y="42" style="stroke: #000000; stroke-width: 0.8"/>
      </g>
     </g>
     <g id="text_32">
      <!-- 100 -->
      <g transform="translate(747.6925 48.838594) scale(0.18 -0.18)">
       <use xlink:href="#DejaVuSans-31"/>
       <use xlink:href="#DejaVuSans-30" x="63.623047"/>
       <use xlink:href="#DejaVuSans-30" x="127.246094"/>
      </g>
     </g>
    </g>
    <g id="text_33">
     <!-- Accuracy (%) -->
     <g transform="translate(739.949063 242.135156) rotate(-90) scale(0.18 -0.18)">
      <use xlink:href="#DejaVuSans-41"/>
      <use xlink:href="#DejaVuSans-63" x="66.658203"/>
      <use xlink:href="#DejaVuSans-63" x="121.638672"/>
      <use xlink:href="#DejaVuSans-75" x="176.619141"/>
      <use xlink:href="#DejaVuSans-72" x="239.998047"/>
      <use xlink:href="#DejaVuSans-61" x="281.111328"/>
      <use xlink:href="#DejaVuSans-63" x="342.390625"/>
      <use xlink:href="#DejaVuSans-79" x="397.371094"/>
      <use xlink:href="#DejaVuSans-20" x="456.550781"/>
      <use xlink:href="#DejaVuSans-28" x="488.337891"/>
      <use xlink:href="#DejaVuSans-25" x="527.351562"/>
      <use xlink:href="#DejaVuSans-29" x="622.371094"/>
     </g>
    </g>
   </g>
   <g id="line2d_34">
    <path d="M 801.391364 191.823761 
L 811.675833 189.820769 
L 821.960303 183.331077 
L 832.244773 171.793846 
L 842.529242 166.505949 
L 852.813712 163.621641 
L 863.098182 161.218051 
L 873.382652 163.621641 
L 883.667121 156.89159 
L 893.951591 152.08441 
L 904.236061 157.853026 
L 914.52053 155.449436 
L 924.805 151.122974 
L 935.08947 150.161538 
L 945.373939 151.603692 
L 955.658409 149.680821 
L 965.942879 146.315795 
L 976.227348 143.912205 
L 986.511818 146.796513 
L 996.796288 146.315795 
L 1007.080758 142.470051 
L 1017.365227 137.182154 
L 1027.649697 137.542692 
L 1037.934167 134.938803 
" clip-path="url(#p4b73bc591c)" style="fill: none; stroke: #095086; stroke-opacity: 0.75; stroke-width: 3; stroke-linecap: square"/>
   </g>
   <g id="line2d_35">
    <path d="M 811.675833 199.835726 
L 821.960303 188.018077 
L 832.244773 179.004615 
L 842.529242 161.218051 
L 852.813712 141.508615 
L 863.098182 128.048513 
L 873.382652 120.837744 
L 883.667121 112.665538 
L 893.951591 106.416205 
L 904.236061 106.416205 
L 914.52053 100.64759 
L 924.805 96.801846 
L 935.08947 93.436821 
L 945.373939 92.475385 
L 955.658409 85.264615 
L 965.942879 87.187487 
L 976.227348 84.783897 
L 986.511818 83.341744 
L 996.796288 78.053846 
L 1007.080758 80.938154 
L 1017.365227 78.053846 
L 1027.649697 76.130974 
L 1037.934167 75.650256 
L 1048.218636 77.25265 
" clip-path="url(#p4b73bc591c)" style="fill: none; stroke-dasharray: 7.4,3.2; stroke-dashoffset: 0; stroke: #095086; stroke-opacity: 0.75; stroke-width: 2"/>
   </g>
   <g id="line2d_36">
    <path d="M 801.391364 211.853675 
L 811.675833 207.246795 
L 821.960303 199.675487 
L 832.244773 189.099692 
L 842.529242 184.773231 
L 852.813712 174.678154 
L 863.098182 164.102359 
L 873.382652 162.179487 
L 883.667121 155.449436 
L 893.951591 149.200103 
L 904.236061 141.508615 
L 914.52053 140.547179 
L 924.805 136.220718 
L 935.08947 138.624308 
L 945.373939 136.701436 
L 955.658409 141.989333 
L 965.942879 142.470051 
L 976.227348 144.392923 
L 986.511818 141.027897 
L 996.796288 140.547179 
L 1007.080758 141.027897 
L 1017.365227 139.585744 
L 1027.649697 137.542692 
L 1037.934167 136.541197 
" clip-path="url(#p4b73bc591c)" style="fill: none; stroke: #b00000; stroke-opacity: 0.75; stroke-width: 3; stroke-linecap: square"/>
   </g>
   <g id="line2d_37">
    <path d="M 811.675833 206.245299 
L 821.960303 196.430641 
L 832.244773 191.022564 
L 842.529242 169.390256 
L 852.813712 154.007282 
L 863.098182 141.989333 
L 873.382652 128.529231 
L 883.667121 117.472718 
L 893.951591 109.300513 
L 904.236061 100.64759 
L 914.52053 95.359692 
L 924.805 96.801846 
L 935.08947 92.956103 
L 945.373939 92.475385 
L 955.658409 93.436821 
L 965.942879 92.956103 
L 976.227348 87.668205 
L 986.511818 86.706769 
L 996.796288 83.822462 
L 1007.080758 80.938154 
L 1017.365227 77.573128 
L 1027.649697 75.169538 
L 1037.934167 71.443974 
L 1048.218636 68.439487 
" clip-path="url(#p4b73bc591c)" style="fill: none; stroke-dasharray: 7.4,3.2; stroke-dashoffset: 0; stroke: #b00000; stroke-opacity: 0.75; stroke-width: 2"/>
   </g>
   <g id="patch_9">
    <path d="M 789.05 323.22 
L 789.05 42 
" style="fill: none; stroke: #000000; stroke-width: 0.8; stroke-linejoin: miter; stroke-linecap: square"/>
   </g>
   <g id="patch_10">
    <path d="M 789.05 323.22 
L 1060.56 323.22 
" style="fill: none; stroke: #000000; stroke-width: 0.8; stroke-linejoin: miter; stroke-linecap: square"/>
   </g>
   <g id="text_34">
    <!-- Chronic Pain -->
    <g transform="translate(857.909125 36) scale(0.216 -0.216)">
     <defs>
      <path id="DejaVuSans-43" d="M 4122 4306 
L 4122 3641 
Q 3803 3938 3442 4084 
Q 3081 4231 2675 4231 
Q 1875 4231 1450 3742 
Q 1025 3253 1025 2328 
Q 1025 1406 1450 917 
Q 1875 428 2675 428 
Q 3081 428 3442 575 
Q 3803 722 4122 1019 
L 4122 359 
Q 3791 134 3420 21 
Q 3050 -91 2638 -91 
Q 1578 -91 968 557 
Q 359 1206 359 2328 
Q 359 3453 968 4101 
Q 1578 4750 2638 4750 
Q 3056 4750 3426 4639 
Q 3797 4528 4122 4306 
z
" transform="scale(0.015625)"/>
     </defs>
     <use xlink:href="#DejaVuSans-43"/>
     <use xlink:href="#DejaVuSans-68" x="69.824219"/>
     <use xlink:href="#DejaVuSans-72" x="133.203125"/>
     <use xlink:href="#DejaVuSans-6f" x="172.066406"/>
     <use xlink:href="#DejaVuSans-6e" x="233.248047"/>
     <use xlink:href="#DejaVuSans-69" x="296.626953"/>
     <use xlink:href="#DejaVuSans-63" x="324.410156"/>
     <use xlink:href="#DejaVuSans-20" x="379.390625"/>
     <use xlink:href="#DejaVuSans-50" x="411.177734"/>
     <use xlink:href="#DejaVuSans-61" x="466.980469"/>
     <use xlink:href="#DejaVuSans-69" x="528.259766"/>
     <use xlink:href="#DejaVuSans-6e" x="556.042969"/>
    </g>
   </g>
   <g id="legend_3">
    <g id="line2d_38">
     <path d="M 926.924062 270.555938 
L 944.924062 270.555938 
L 962.924062 270.555938 
" style="fill: none; stroke: #095086; stroke-opacity: 0.75; stroke-width: 3; stroke-linecap: square"/>
    </g>
    <g id="text_35">
     <!-- Reward -->
     <g transform="translate(977.324062 276.855938) scale(0.18 -0.18)">
      <use xlink:href="#DejaVuSans-52"/>
      <use xlink:href="#DejaVuSans-65" x="64.982422"/>
      <use xlink:href="#DejaVuSans-77" x="126.505859"/>
      <use xlink:href="#DejaVuSans-61" x="208.292969"/>
      <use xlink:href="#DejaVuSans-72" x="269.572266"/>
      <use xlink:href="#DejaVuSans-64" x="308.935547"/>
     </g>
    </g>
    <g id="line2d_39">
     <path d="M 926.924062 296.976563 
L 944.924062 296.976563 
L 962.924062 296.976563 
" style="fill: none; stroke: #b00000; stroke-opacity: 0.75; stroke-width: 3; stroke-linecap: square"/>
    </g>
    <g id="text_36">
     <!-- Punish -->
     <g transform="translate(977.324062 303.276563) scale(0.18 -0.18)">
      <use xlink:href="#DejaVuSans-50"/>
      <use xlink:href="#DejaVuSans-75" x="58.552734"/>
      <use xlink:href="#DejaVuSans-6e" x="121.931641"/>
      <use xlink:href="#DejaVuSans-69" x="185.310547"/>
      <use xlink:href="#DejaVuSans-73" x="213.09375"/>
      <use xlink:href="#DejaVuSans-68" x="265.193359"/>
     </g>
    </g>
   </g>
  </g>
  <g id="axes_4">
   <g id="patch_11">
    <path d="M 82.01 676.28 
L 353.52 676.28 
L 353.52 395.06 
L 82.01 395.06 
z
" style="fill: #ffffff"/>
   </g>
   <g id="patch_12">
    <path d="M 94.351364 676.28 
L 135.489242 676.28 
L 135.489242 432.061261 
L 94.351364 432.061261 
z
" clip-path="url(#p7e5c7a0c27)" style="fill: #095086; opacity: 0.75"/>
   </g>
   <g id="patch_13">
    <path d="M 145.773712 676.28 
L 186.911591 676.28 
L 186.911591 497.249619 
L 145.773712 497.249619 
z
" clip-path="url(#p7e5c7a0c27)" style="fill: #9bd2f2; opacity: 0.75"/>
   </g>
   <g id="patch_14">
    <path d="M 197.196061 676.28 
L 238.333939 676.28 
L 238.333939 561.305286 
L 197.196061 561.305286 
z
" clip-path="url(#p7e5c7a0c27)" style="fill: #eca6a6; opacity: 0.75"/>
   </g>
   <g id="patch_15">
    <path d="M 248.618409 676.28 
L 289.756288 676.28 
L 289.756288 636.349364 
L 248.618409 636.349364 
z
" clip-path="url(#p7e5c7a0c27)" style="fill: #b00000; opacity: 0.75"/>
   </g>
   <g id="patch_16">
    <path d="M 300.040758 676.28 
L 341.178636 676.28 
L 341.178636 573.426389 
L 300.040758 573.426389 
z
" clip-path="url(#p7e5c7a0c27)" style="fill: #d3d3d3; opacity: 0.75"/>
   </g>
   <g id="PathCollection_1">
    <defs>
     <path id="m3383334334" d="M -0 4.242641 
L 4.242641 0 
L 0 -4.242641 
L -4.242641 -0 
z
" style="stroke: #808080; stroke-opacity: 0.75"/>
    </defs>
    <g clip-path="url(#p7e5c7a0c27)">
     <use xlink:href="#m3383334334" x="114.920303" y="434.4308" style="fill: #808080; fill-opacity: 0.75; stroke: #808080; stroke-opacity: 0.75"/>
     <use xlink:href="#m3383334334" x="166.342652" y="511.7663" style="fill: #808080; fill-opacity: 0.75; stroke: #808080; stroke-opacity: 0.75"/>
     <use xlink:href="#m3383334334" x="217.765" y="544.1066" style="fill: #808080; fill-opacity: 0.75; stroke: #808080; stroke-opacity: 0.75"/>
     <use xlink:href="#m3383334334" x="269.187348" y="639.7214" style="fill: #808080; fill-opacity: 0.75; stroke: #808080; stroke-opacity: 0.75"/>
     <use xlink:href="#m3383334334" x="320.609697" y="572.2286" style="fill: #808080; fill-opacity: 0.75; stroke: #808080; stroke-opacity: 0.75"/>
    </g>
   </g>
   <g id="matplotlib.axis_7">
    <g id="xtick_10">
     <g id="line2d_40">
      <g>
       <use xlink:href="#m7d26f3290c" x="114.920303" y="676.28" style="stroke: #000000; stroke-width: 0.8"/>
      </g>
     </g>
     <g id="text_37">
      <!-- HR -->
      <g transform="translate(101.898428 696.957188) scale(0.18 -0.18)">
       <defs>
        <path id="DejaVuSans-48" d="M 628 4666 
L 1259 4666 
L 1259 2753 
L 3553 2753 
L 3553 4666 
L 4184 4666 
L 4184 0 
L 3553 0 
L 3553 2222 
L 1259 2222 
L 1259 0 
L 628 0 
L 628 4666 
z
" transform="scale(0.015625)"/>
       </defs>
       <use xlink:href="#DejaVuSans-48"/>
       <use xlink:href="#DejaVuSans-52" x="75.195312"/>
      </g>
     </g>
    </g>
    <g id="xtick_11">
     <g id="line2d_41">
      <g>
       <use xlink:href="#m7d26f3290c" x="166.342652" y="676.28" style="stroke: #000000; stroke-width: 0.8"/>
      </g>
     </g>
     <g id="text_38">
      <!-- LR -->
      <g transform="translate(155.07437 696.957188) scale(0.18 -0.18)">
       <defs>
        <path id="DejaVuSans-4c" d="M 628 4666 
L 1259 4666 
L 1259 531 
L 3531 531 
L 3531 0 
L 628 0 
L 628 4666 
z
" transform="scale(0.015625)"/>
       </defs>
       <use xlink:href="#DejaVuSans-4c"/>
       <use xlink:href="#DejaVuSans-52" x="55.712891"/>
      </g>
     </g>
    </g>
    <g id="xtick_12">
     <g id="line2d_42">
      <g>
       <use xlink:href="#m7d26f3290c" x="217.765" y="676.28" style="stroke: #000000; stroke-width: 0.8"/>
      </g>
     </g>
     <g id="text_39">
      <!-- LP -->
      <g transform="translate(207.323594 696.957188) scale(0.18 -0.18)">
       <use xlink:href="#DejaVuSans-4c"/>
       <use xlink:href="#DejaVuSans-50" x="55.712891"/>
      </g>
     </g>
    </g>
    <g id="xtick_13">
     <g id="line2d_43">
      <g>
       <use xlink:href="#m7d26f3290c" x="269.187348" y="676.28" style="stroke: #000000; stroke-width: 0.8"/>
      </g>
     </g>
     <g id="text_40">
      <!-- HP -->
      <g transform="translate(256.992348 696.957188) scale(0.18 -0.18)">
       <use xlink:href="#DejaVuSans-48"/>
       <use xlink:href="#DejaVuSans-50" x="75.195312"/>
      </g>
     </g>
    </g>
    <g id="xtick_14">
     <g id="line2d_44">
      <g>
       <use xlink:href="#m7d26f3290c" x="320.609697" y="676.28" style="stroke: #000000; stroke-width: 0.8"/>
      </g>
     </g>
     <g id="text_41">
      <!-- N -->
      <g transform="translate(313.876572 696.957188) scale(0.18 -0.18)">
       <use xlink:href="#DejaVuSans-4e"/>
      </g>
     </g>
    </g>
   </g>
   <g id="matplotlib.axis_8">
    <g id="ytick_13">
     <g id="line2d_45">
      <g>
       <use xlink:href="#m4a7c4afa31" x="82.01" y="676.28" style="stroke: #000000; stroke-width: 0.8"/>
      </g>
     </g>
     <g id="text_42">
      <!-- 0 -->
      <g transform="translate(63.5575 683.118594) scale(0.18 -0.18)">
       <use xlink:href="#DejaVuSans-30"/>
      </g>
     </g>
    </g>
    <g id="ytick_14">
     <g id="line2d_46">
      <g>
       <use xlink:href="#m4a7c4afa31" x="82.01" y="620.036" style="stroke: #000000; stroke-width: 0.8"/>
      </g>
     </g>
     <g id="text_43">
      <!-- 20 -->
      <g transform="translate(52.105 626.874594) scale(0.18 -0.18)">
       <use xlink:href="#DejaVuSans-32"/>
       <use xlink:href="#DejaVuSans-30" x="63.623047"/>
      </g>
     </g>
    </g>
    <g id="ytick_15">
     <g id="line2d_47">
      <g>
       <use xlink:href="#m4a7c4afa31" x="82.01" y="563.792" style="stroke: #000000; stroke-width: 0.8"/>
      </g>
     </g>
     <g id="text_44">
      <!-- 40 -->
      <g transform="translate(52.105 570.630594) scale(0.18 -0.18)">
       <use xlink:href="#DejaVuSans-34"/>
       <use xlink:href="#DejaVuSans-30" x="63.623047"/>
      </g>
     </g>
    </g>
    <g id="ytick_16">
     <g id="line2d_48">
      <g>
       <use xlink:href="#m4a7c4afa31" x="82.01" y="507.548" style="stroke: #000000; stroke-width: 0.8"/>
      </g>
     </g>
     <g id="text_45">
      <!-- 60 -->
      <g transform="translate(52.105 514.386594) scale(0.18 -0.18)">
       <use xlink:href="#DejaVuSans-36"/>
       <use xlink:href="#DejaVuSans-30" x="63.623047"/>
      </g>
     </g>
    </g>
    <g id="ytick_17">
     <g id="line2d_49">
      <g>
       <use xlink:href="#m4a7c4afa31" x="82.01" y="451.304" style="stroke: #000000; stroke-width: 0.8"/>
      </g>
     </g>
     <g id="text_46">
      <!-- 80 -->
      <g transform="translate(52.105 458.142594) scale(0.18 -0.18)">
       <use xlink:href="#DejaVuSans-38"/>
       <use xlink:href="#DejaVuSans-30" x="63.623047"/>
      </g>
     </g>
    </g>
    <g id="ytick_18">
     <g id="line2d_50">
      <g>
       <use xlink:href="#m4a7c4afa31" x="82.01" y="395.06" style="stroke: #000000; stroke-width: 0.8"/>
      </g>
     </g>
     <g id="text_47">
      <!-- 100 -->
      <g transform="translate(40.6525 401.898594) scale(0.18 -0.18)">
       <use xlink:href="#DejaVuSans-31"/>
       <use xlink:href="#DejaVuSans-30" x="63.623047"/>
       <use xlink:href="#DejaVuSans-30" x="127.246094"/>
      </g>
     </g>
    </g>
    <g id="text_48">
     <!-- Choice Rate (%) -->
     <g transform="translate(32.909063 608.079219) rotate(-90) scale(0.18 -0.18)">
      <use xlink:href="#DejaVuSans-43"/>
      <use xlink:href="#DejaVuSans-68" x="69.824219"/>
      <use xlink:href="#DejaVuSans-6f" x="133.203125"/>
      <use xlink:href="#DejaVuSans-69" x="194.384766"/>
      <use xlink:href="#DejaVuSans-63" x="222.167969"/>
      <use xlink:href="#DejaVuSans-65" x="277.148438"/>
      <use xlink:href="#DejaVuSans-20" x="338.671875"/>
      <use xlink:href="#DejaVuSans-52" x="370.458984"/>
      <use xlink:href="#DejaVuSans-61" x="437.691406"/>
      <use xlink:href="#DejaVuSans-74" x="498.970703"/>
      <use xlink:href="#DejaVuSans-65" x="538.179688"/>
      <use xlink:href="#DejaVuSans-20" x="599.703125"/>
      <use xlink:href="#DejaVuSans-28" x="631.490234"/>
      <use xlink:href="#DejaVuSans-25" x="670.503906"/>
      <use xlink:href="#DejaVuSans-29" x="765.523438"/>
     </g>
    </g>
   </g>
   <g id="LineCollection_1">
    <path d="M 114.920303 438.312524 
L 114.920303 425.809999 
" clip-path="url(#p7e5c7a0c27)" style="fill: none; stroke: #696969; stroke-width: 1.5"/>
    <path d="M 166.342652 501.942684 
L 166.342652 492.556555 
" clip-path="url(#p7e5c7a0c27)" style="fill: none; stroke: #696969; stroke-width: 1.5"/>
    <path d="M 217.765 565.98282 
L 217.765 556.627752 
" clip-path="url(#p7e5c7a0c27)" style="fill: none; stroke: #696969; stroke-width: 1.5"/>
    <path d="M 269.187348 642.3255 
L 269.187348 630.373228 
" clip-path="url(#p7e5c7a0c27)" style="fill: none; stroke: #696969; stroke-width: 1.5"/>
    <path d="M 320.609697 583.857078 
L 320.609697 562.9957 
" clip-path="url(#p7e5c7a0c27)" style="fill: none; stroke: #696969; stroke-width: 1.5"/>
   </g>
   <g id="line2d_51">
    <defs>
     <path id="mcc3bea9fe9" d="M 5 0 
L -5 -0 
" style="stroke: #696969"/>
    </defs>
    <g clip-path="url(#p7e5c7a0c27)">
     <use xlink:href="#mcc3bea9fe9" x="114.920303" y="438.312524" style="fill: #696969; stroke: #696969"/>
     <use xlink:href="#mcc3bea9fe9" x="166.342652" y="501.942684" style="fill: #696969; stroke: #696969"/>
     <use xlink:href="#mcc3bea9fe9" x="217.765" y="565.98282" style="fill: #696969; stroke: #696969"/>
     <use xlink:href="#mcc3bea9fe9" x="269.187348" y="642.3255" style="fill: #696969; stroke: #696969"/>
     <use xlink:href="#mcc3bea9fe9" x="320.609697" y="583.857078" style="fill: #696969; stroke: #696969"/>
    </g>
   </g>
   <g id="line2d_52">
    <g clip-path="url(#p7e5c7a0c27)">
     <use xlink:href="#mcc3bea9fe9" x="114.920303" y="425.809999" style="fill: #696969; stroke: #696969"/>
     <use xlink:href="#mcc3bea9fe9" x="166.342652" y="492.556555" style="fill: #696969; stroke: #696969"/>
     <use xlink:href="#mcc3bea9fe9" x="217.765" y="556.627752" style="fill: #696969; stroke: #696969"/>
     <use xlink:href="#mcc3bea9fe9" x="269.187348" y="630.373228" style="fill: #696969; stroke: #696969"/>
     <use xlink:href="#mcc3bea9fe9" x="320.609697" y="562.9957" style="fill: #696969; stroke: #696969"/>
    </g>
   </g>
   <g id="LineCollection_2">
    <path d="M 114.920303 438.312524 
L 114.920303 425.809999 
" clip-path="url(#p7e5c7a0c27)" style="fill: none; stroke: #808080; stroke-width: 1.5"/>
    <path d="M 166.342652 501.942684 
L 166.342652 492.556555 
" clip-path="url(#p7e5c7a0c27)" style="fill: none; stroke: #808080; stroke-width: 1.5"/>
    <path d="M 217.765 565.98282 
L 217.765 556.627752 
" clip-path="url(#p7e5c7a0c27)" style="fill: none; stroke: #808080; stroke-width: 1.5"/>
    <path d="M 269.187348 642.3255 
L 269.187348 630.373228 
" clip-path="url(#p7e5c7a0c27)" style="fill: none; stroke: #808080; stroke-width: 1.5"/>
    <path d="M 320.609697 583.857078 
L 320.609697 562.9957 
" clip-path="url(#p7e5c7a0c27)" style="fill: none; stroke: #808080; stroke-width: 1.5"/>
   </g>
   <g id="line2d_53">
    <defs>
     <path id="m8a4ef2e380" d="M 0 1.5 
C 0.397805 1.5 0.77937 1.341951 1.06066 1.06066 
C 1.341951 0.77937 1.5 0.397805 1.5 0 
C 1.5 -0.397805 1.341951 -0.77937 1.06066 -1.06066 
C 0.77937 -1.341951 0.397805 -1.5 0 -1.5 
C -0.397805 -1.5 -0.77937 -1.341951 -1.06066 -1.06066 
C -1.341951 -0.77937 -1.5 -0.397805 -1.5 0 
C -1.5 0.397805 -1.341951 0.77937 -1.06066 1.06066 
C -0.77937 1.341951 -0.397805 1.5 0 1.5 
z
" style="stroke: #808080"/>
    </defs>
    <g clip-path="url(#p7e5c7a0c27)">
     <use xlink:href="#m8a4ef2e380" x="114.920303" y="432.061261" style="fill: #808080; stroke: #808080"/>
     <use xlink:href="#m8a4ef2e380" x="166.342652" y="497.249619" style="fill: #808080; stroke: #808080"/>
     <use xlink:href="#m8a4ef2e380" x="217.765" y="561.305286" style="fill: #808080; stroke: #808080"/>
     <use xlink:href="#m8a4ef2e380" x="269.187348" y="636.349364" style="fill: #808080; stroke: #808080"/>
     <use xlink:href="#m8a4ef2e380" x="320.609697" y="573.426389" style="fill: #808080; stroke: #808080"/>
    </g>
   </g>
   <g id="patch_17">
    <path d="M 82.01 676.28 
L 82.01 395.06 
" style="fill: none; stroke: #000000; stroke-width: 0.8; stroke-linejoin: miter; stroke-linecap: square"/>
   </g>
   <g id="patch_18">
    <path d="M 82.01 676.28 
L 353.52 676.28 
" style="fill: none; stroke: #000000; stroke-width: 0.8; stroke-linejoin: miter; stroke-linecap: square"/>
   </g>
  </g>
  <g id="axes_5">
   <g id="patch_19">
    <path d="M 435.53 676.28 
L 707.04 676.28 
L 707.04 395.06 
L 435.53 395.06 
z
" style="fill: #ffffff"/>
   </g>
   <g id="patch_20">
    <path d="M 447.871364 676.28 
L 489.009242 676.28 
L 489.009242 435.571598 
L 447.871364 435.571598 
z
" clip-path="url(#p23fcfc0e1e)" style="fill: #095086; opacity: 0.75"/>
   </g>
   <g id="patch_21">
    <path d="M 499.293712 676.28 
L 540.431591 676.28 
L 540.431591 499.482823 
L 499.293712 499.482823 
z
" clip-path="url(#p23fcfc0e1e)" style="fill: #9bd2f2; opacity: 0.75"/>
   </g>
   <g id="patch_22">
    <path d="M 550.716061 676.28 
L 591.853939 676.28 
L 591.853939 553.816649 
L 550.716061 553.816649 
z
" clip-path="url(#p23fcfc0e1e)" style="fill: #eca6a6; opacity: 0.75"/>
   </g>
   <g id="patch_23">
    <path d="M 602.138409 676.28 
L 643.276288 676.28 
L 643.276288 626.509366 
L 602.138409 626.509366 
z
" clip-path="url(#p23fcfc0e1e)" style="fill: #b00000; opacity: 0.75"/>
   </g>
   <g id="patch_24">
    <path d="M 653.560758 676.28 
L 694.698636 676.28 
L 694.698636 594.036415 
L 653.560758 594.036415 
z
" clip-path="url(#p23fcfc0e1e)" style="fill: #d3d3d3; opacity: 0.75"/>
   </g>
   <g id="PathCollection_2">
    <g clip-path="url(#p23fcfc0e1e)">
     <use xlink:href="#m3383334334" x="468.440303" y="435.8369" style="fill: #808080; fill-opacity: 0.75; stroke: #808080; stroke-opacity: 0.75"/>
     <use xlink:href="#m3383334334" x="519.862652" y="520.2029" style="fill: #808080; fill-opacity: 0.75; stroke: #808080; stroke-opacity: 0.75"/>
     <use xlink:href="#m3383334334" x="571.285" y="531.4517" style="fill: #808080; fill-opacity: 0.75; stroke: #808080; stroke-opacity: 0.75"/>
     <use xlink:href="#m3383334334" x="622.707348" y="627.0665" style="fill: #808080; fill-opacity: 0.75; stroke: #808080; stroke-opacity: 0.75"/>
     <use xlink:href="#m3383334334" x="674.129697" y="594.7262" style="fill: #808080; fill-opacity: 0.75; stroke: #808080; stroke-opacity: 0.75"/>
    </g>
   </g>
   <g id="matplotlib.axis_9">
    <g id="xtick_15">
     <g id="line2d_54">
      <g>
       <use xlink:href="#m7d26f3290c" x="468.440303" y="676.28" style="stroke: #000000; stroke-width: 0.8"/>
      </g>
     </g>
     <g id="text_49">
      <!-- HR -->
      <g transform="translate(455.418428 696.957188) scale(0.18 -0.18)">
       <use xlink:href="#DejaVuSans-48"/>
       <use xlink:href="#DejaVuSans-52" x="75.195312"/>
      </g>
     </g>
    </g>
    <g id="xtick_16">
     <g id="line2d_55">
      <g>
       <use xlink:href="#m7d26f3290c" x="519.862652" y="676.28" style="stroke: #000000; stroke-width: 0.8"/>
      </g>
     </g>
     <g id="text_50">
      <!-- LR -->
      <g transform="translate(508.59437 696.957188) scale(0.18 -0.18)">
       <use xlink:href="#DejaVuSans-4c"/>
       <use xlink:href="#DejaVuSans-52" x="55.712891"/>
      </g>
     </g>
    </g>
    <g id="xtick_17">
     <g id="line2d_56">
      <g>
       <use xlink:href="#m7d26f3290c" x="571.285" y="676.28" style="stroke: #000000; stroke-width: 0.8"/>
      </g>
     </g>
     <g id="text_51">
      <!-- LP -->
      <g transform="translate(560.843594 696.957188) scale(0.18 -0.18)">
       <use xlink:href="#DejaVuSans-4c"/>
       <use xlink:href="#DejaVuSans-50" x="55.712891"/>
      </g>
     </g>
    </g>
    <g id="xtick_18">
     <g id="line2d_57">
      <g>
       <use xlink:href="#m7d26f3290c" x="622.707348" y="676.28" style="stroke: #000000; stroke-width: 0.8"/>
      </g>
     </g>
     <g id="text_52">
      <!-- HP -->
      <g transform="translate(610.512348 696.957188) scale(0.18 -0.18)">
       <use xlink:href="#DejaVuSans-48"/>
       <use xlink:href="#DejaVuSans-50" x="75.195312"/>
      </g>
     </g>
    </g>
    <g id="xtick_19">
     <g id="line2d_58">
      <g>
       <use xlink:href="#m7d26f3290c" x="674.129697" y="676.28" style="stroke: #000000; stroke-width: 0.8"/>
      </g>
     </g>
     <g id="text_53">
      <!-- N -->
      <g transform="translate(667.396572 696.957188) scale(0.18 -0.18)">
       <use xlink:href="#DejaVuSans-4e"/>
      </g>
     </g>
    </g>
   </g>
   <g id="matplotlib.axis_10">
    <g id="ytick_19">
     <g id="line2d_59">
      <g>
       <use xlink:href="#m4a7c4afa31" x="435.53" y="676.28" style="stroke: #000000; stroke-width: 0.8"/>
      </g>
     </g>
     <g id="text_54">
      <!-- 0 -->
      <g transform="translate(417.0775 683.118594) scale(0.18 -0.18)">
       <use xlink:href="#DejaVuSans-30"/>
      </g>
     </g>
    </g>
    <g id="ytick_20">
     <g id="line2d_60">
      <g>
       <use xlink:href="#m4a7c4afa31" x="435.53" y="620.036" style="stroke: #000000; stroke-width: 0.8"/>
      </g>
     </g>
     <g id="text_55">
      <!-- 20 -->
      <g transform="translate(405.625 626.874594) scale(0.18 -0.18)">
       <use xlink:href="#DejaVuSans-32"/>
       <use xlink:href="#DejaVuSans-30" x="63.623047"/>
      </g>
     </g>
    </g>
    <g id="ytick_21">
     <g id="line2d_61">
      <g>
       <use xlink:href="#m4a7c4afa31" x="435.53" y="563.792" style="stroke: #000000; stroke-width: 0.8"/>
      </g>
     </g>
     <g id="text_56">
      <!-- 40 -->
      <g transform="translate(405.625 570.630594) scale(0.18 -0.18)">
       <use xlink:href="#DejaVuSans-34"/>
       <use xlink:href="#DejaVuSans-30" x="63.623047"/>
      </g>
     </g>
    </g>
    <g id="ytick_22">
     <g id="line2d_62">
      <g>
       <use xlink:href="#m4a7c4afa31" x="435.53" y="507.548" style="stroke: #000000; stroke-width: 0.8"/>
      </g>
     </g>
     <g id="text_57">
      <!-- 60 -->
      <g transform="translate(405.625 514.386594) scale(0.18 -0.18)">
       <use xlink:href="#DejaVuSans-36"/>
       <use xlink:href="#DejaVuSans-30" x="63.623047"/>
      </g>
     </g>
    </g>
    <g id="ytick_23">
     <g id="line2d_63">
      <g>
       <use xlink:href="#m4a7c4afa31" x="435.53" y="451.304" style="stroke: #000000; stroke-width: 0.8"/>
      </g>
     </g>
     <g id="text_58">
      <!-- 80 -->
      <g transform="translate(405.625 458.142594) scale(0.18 -0.18)">
       <use xlink:href="#DejaVuSans-38"/>
       <use xlink:href="#DejaVuSans-30" x="63.623047"/>
      </g>
     </g>
    </g>
    <g id="ytick_24">
     <g id="line2d_64">
      <g>
       <use xlink:href="#m4a7c4afa31" x="435.53" y="395.06" style="stroke: #000000; stroke-width: 0.8"/>
      </g>
     </g>
     <g id="text_59">
      <!-- 100 -->
      <g transform="translate(394.1725 401.898594) scale(0.18 -0.18)">
       <use xlink:href="#DejaVuSans-31"/>
       <use xlink:href="#DejaVuSans-30" x="63.623047"/>
       <use xlink:href="#DejaVuSans-30" x="127.246094"/>
      </g>
     </g>
    </g>
    <g id="text_60">
     <!-- Choice Rate (%) -->
     <g transform="translate(386.429063 608.079219) rotate(-90) scale(0.18 -0.18)">
      <use xlink:href="#DejaVuSans-43"/>
      <use xlink:href="#DejaVuSans-68" x="69.824219"/>
      <use xlink:href="#DejaVuSans-6f" x="133.203125"/>
      <use xlink:href="#DejaVuSans-69" x="194.384766"/>
      <use xlink:href="#DejaVuSans-63" x="222.167969"/>
      <use xlink:href="#DejaVuSans-65" x="277.148438"/>
      <use xlink:href="#DejaVuSans-20" x="338.671875"/>
      <use xlink:href="#DejaVuSans-52" x="370.458984"/>
      <use xlink:href="#DejaVuSans-61" x="437.691406"/>
      <use xlink:href="#DejaVuSans-74" x="498.970703"/>
      <use xlink:href="#DejaVuSans-65" x="538.179688"/>
      <use xlink:href="#DejaVuSans-20" x="599.703125"/>
      <use xlink:href="#DejaVuSans-28" x="631.490234"/>
      <use xlink:href="#DejaVuSans-25" x="670.503906"/>
      <use xlink:href="#DejaVuSans-29" x="765.523438"/>
     </g>
    </g>
   </g>
   <g id="LineCollection_3">
    <path d="M 468.440303 443.83141 
L 468.440303 427.311787 
" clip-path="url(#p23fcfc0e1e)" style="fill: none; stroke: #696969; stroke-width: 1.5"/>
    <path d="M 519.862652 505.021626 
L 519.862652 493.944019 
" clip-path="url(#p23fcfc0e1e)" style="fill: none; stroke: #696969; stroke-width: 1.5"/>
    <path d="M 571.285 559.240095 
L 571.285 548.393203 
" clip-path="url(#p23fcfc0e1e)" style="fill: none; stroke: #696969; stroke-width: 1.5"/>
    <path d="M 622.707348 635.435549 
L 622.707348 617.583183 
" clip-path="url(#p23fcfc0e1e)" style="fill: none; stroke: #696969; stroke-width: 1.5"/>
    <path d="M 674.129697 606.498024 
L 674.129697 581.574806 
" clip-path="url(#p23fcfc0e1e)" style="fill: none; stroke: #696969; stroke-width: 1.5"/>
   </g>
   <g id="line2d_65">
    <g clip-path="url(#p23fcfc0e1e)">
     <use xlink:href="#mcc3bea9fe9" x="468.440303" y="443.83141" style="fill: #696969; stroke: #696969"/>
     <use xlink:href="#mcc3bea9fe9" x="519.862652" y="505.021626" style="fill: #696969; stroke: #696969"/>
     <use xlink:href="#mcc3bea9fe9" x="571.285" y="559.240095" style="fill: #696969; stroke: #696969"/>
     <use xlink:href="#mcc3bea9fe9" x="622.707348" y="635.435549" style="fill: #696969; stroke: #696969"/>
     <use xlink:href="#mcc3bea9fe9" x="674.129697" y="606.498024" style="fill: #696969; stroke: #696969"/>
    </g>
   </g>
   <g id="line2d_66">
    <g clip-path="url(#p23fcfc0e1e)">
     <use xlink:href="#mcc3bea9fe9" x="468.440303" y="427.311787" style="fill: #696969; stroke: #696969"/>
     <use xlink:href="#mcc3bea9fe9" x="519.862652" y="493.944019" style="fill: #696969; stroke: #696969"/>
     <use xlink:href="#mcc3bea9fe9" x="571.285" y="548.393203" style="fill: #696969; stroke: #696969"/>
     <use xlink:href="#mcc3bea9fe9" x="622.707348" y="617.583183" style="fill: #696969; stroke: #696969"/>
     <use xlink:href="#mcc3bea9fe9" x="674.129697" y="581.574806" style="fill: #696969; stroke: #696969"/>
    </g>
   </g>
   <g id="LineCollection_4">
    <path d="M 468.440303 443.83141 
L 468.440303 427.311787 
" clip-path="url(#p23fcfc0e1e)" style="fill: none; stroke: #808080; stroke-width: 1.5"/>
    <path d="M 519.862652 505.021626 
L 519.862652 493.944019 
" clip-path="url(#p23fcfc0e1e)" style="fill: none; stroke: #808080; stroke-width: 1.5"/>
    <path d="M 571.285 559.240095 
L 571.285 548.393203 
" clip-path="url(#p23fcfc0e1e)" style="fill: none; stroke: #808080; stroke-width: 1.5"/>
    <path d="M 622.707348 635.435549 
L 622.707348 617.583183 
" clip-path="url(#p23fcfc0e1e)" style="fill: none; stroke: #808080; stroke-width: 1.5"/>
    <path d="M 674.129697 606.498024 
L 674.129697 581.574806 
" clip-path="url(#p23fcfc0e1e)" style="fill: none; stroke: #808080; stroke-width: 1.5"/>
   </g>
   <g id="line2d_67">
    <g clip-path="url(#p23fcfc0e1e)">
     <use xlink:href="#m8a4ef2e380" x="468.440303" y="435.571598" style="fill: #808080; stroke: #808080"/>
     <use xlink:href="#m8a4ef2e380" x="519.862652" y="499.482823" style="fill: #808080; stroke: #808080"/>
     <use xlink:href="#m8a4ef2e380" x="571.285" y="553.816649" style="fill: #808080; stroke: #808080"/>
     <use xlink:href="#m8a4ef2e380" x="622.707348" y="626.509366" style="fill: #808080; stroke: #808080"/>
     <use xlink:href="#m8a4ef2e380" x="674.129697" y="594.036415" style="fill: #808080; stroke: #808080"/>
    </g>
   </g>
   <g id="patch_25">
    <path d="M 435.53 676.28 
L 435.53 395.06 
" style="fill: none; stroke: #000000; stroke-width: 0.8; stroke-linejoin: miter; stroke-linecap: square"/>
   </g>
   <g id="patch_26">
    <path d="M 435.53 676.28 
L 707.04 676.28 
" style="fill: none; stroke: #000000; stroke-width: 0.8; stroke-linejoin: miter; stroke-linecap: square"/>
   </g>
  </g>
  <g id="axes_6">
   <g id="patch_27">
    <path d="M 789.05 676.28 
L 1060.56 676.28 
L 1060.56 395.06 
L 789.05 395.06 
z
" style="fill: #ffffff"/>
   </g>
   <g id="patch_28">
    <path d="M 801.391364 676.28 
L 842.529242 676.28 
L 842.529242 439.514392 
L 801.391364 439.514392 
z
" clip-path="url(#p8d6c225dfb)" style="fill: #095086; opacity: 0.75"/>
   </g>
   <g id="patch_29">
    <path d="M 852.813712 676.28 
L 893.951591 676.28 
L 893.951591 501.995708 
L 852.813712 501.995708 
z
" clip-path="url(#p8d6c225dfb)" style="fill: #9bd2f2; opacity: 0.75"/>
   </g>
   <g id="patch_30">
    <path d="M 904.236061 676.28 
L 945.373939 676.28 
L 945.373939 559.086973 
L 904.236061 559.086973 
z
" clip-path="url(#p8d6c225dfb)" style="fill: #eca6a6; opacity: 0.75"/>
   </g>
   <g id="patch_31">
    <path d="M 955.658409 676.28 
L 996.796288 676.28 
L 996.796288 632.564712 
L 955.658409 632.564712 
z
" clip-path="url(#p8d6c225dfb)" style="fill: #b00000; opacity: 0.75"/>
   </g>
   <g id="patch_32">
    <path d="M 1007.080758 676.28 
L 1048.218636 676.28 
L 1048.218636 562.746438 
L 1007.080758 562.746438 
z
" clip-path="url(#p8d6c225dfb)" style="fill: #d3d3d3; opacity: 0.75"/>
   </g>
   <g id="PathCollection_3">
    <g clip-path="url(#p8d6c225dfb)">
     <use xlink:href="#m3383334334" x="821.960303" y="440.0552" style="fill: #808080; fill-opacity: 0.75; stroke: #808080; stroke-opacity: 0.75"/>
     <use xlink:href="#m3383334334" x="873.382652" y="530.0456" style="fill: #808080; fill-opacity: 0.75; stroke: #808080; stroke-opacity: 0.75"/>
     <use xlink:href="#m3383334334" x="924.805" y="531.4517" style="fill: #808080; fill-opacity: 0.75; stroke: #808080; stroke-opacity: 0.75"/>
     <use xlink:href="#m3383334334" x="976.227348" y="629.8787" style="fill: #808080; fill-opacity: 0.75; stroke: #808080; stroke-opacity: 0.75"/>
     <use xlink:href="#m3383334334" x="1027.649697" y="566.6042" style="fill: #808080; fill-opacity: 0.75; stroke: #808080; stroke-opacity: 0.75"/>
    </g>
   </g>
   <g id="matplotlib.axis_11">
    <g id="xtick_20">
     <g id="line2d_68">
      <g>
       <use xlink:href="#m7d26f3290c" x="821.960303" y="676.28" style="stroke: #000000; stroke-width: 0.8"/>
      </g>
     </g>
     <g id="text_61">
      <!-- HR -->
      <g transform="translate(808.938428 696.957188) scale(0.18 -0.18)">
       <use xlink:href="#DejaVuSans-48"/>
       <use xlink:href="#DejaVuSans-52" x="75.195312"/>
      </g>
     </g>
    </g>
    <g id="xtick_21">
     <g id="line2d_69">
      <g>
       <use xlink:href="#m7d26f3290c" x="873.382652" y="676.28" style="stroke: #000000; stroke-width: 0.8"/>
      </g>
     </g>
     <g id="text_62">
      <!-- LR -->
      <g transform="translate(862.11437 696.957188) scale(0.18 -0.18)">
       <use xlink:href="#DejaVuSans-4c"/>
       <use xlink:href="#DejaVuSans-52" x="55.712891"/>
      </g>
     </g>
    </g>
    <g id="xtick_22">
     <g id="line2d_70">
      <g>
       <use xlink:href="#m7d26f3290c" x="924.805" y="676.28" style="stroke: #000000; stroke-width: 0.8"/>
      </g>
     </g>
     <g id="text_63">
      <!-- LP -->
      <g transform="translate(914.363594 696.957188) scale(0.18 -0.18)">
       <use xlink:href="#DejaVuSans-4c"/>
       <use xlink:href="#DejaVuSans-50" x="55.712891"/>
      </g>
     </g>
    </g>
    <g id="xtick_23">
     <g id="line2d_71">
      <g>
       <use xlink:href="#m7d26f3290c" x="976.227348" y="676.28" style="stroke: #000000; stroke-width: 0.8"/>
      </g>
     </g>
     <g id="text_64">
      <!-- HP -->
      <g transform="translate(964.032348 696.957188) scale(0.18 -0.18)">
       <use xlink:href="#DejaVuSans-48"/>
       <use xlink:href="#DejaVuSans-50" x="75.195312"/>
      </g>
     </g>
    </g>
    <g id="xtick_24">
     <g id="line2d_72">
      <g>
       <use xlink:href="#m7d26f3290c" x="1027.649697" y="676.28" style="stroke: #000000; stroke-width: 0.8"/>
      </g>
     </g>
     <g id="text_65">
      <!-- N -->
      <g transform="translate(1020.916572 696.957188) scale(0.18 -0.18)">
       <use xlink:href="#DejaVuSans-4e"/>
      </g>
     </g>
    </g>
   </g>
   <g id="matplotlib.axis_12">
    <g id="ytick_25">
     <g id="line2d_73">
      <g>
       <use xlink:href="#m4a7c4afa31" x="789.05" y="676.28" style="stroke: #000000; stroke-width: 0.8"/>
      </g>
     </g>
     <g id="text_66">
      <!-- 0 -->
      <g transform="translate(770.5975 683.118594) scale(0.18 -0.18)">
       <use xlink:href="#DejaVuSans-30"/>
      </g>
     </g>
    </g>
    <g id="ytick_26">
     <g id="line2d_74">
      <g>
       <use xlink:href="#m4a7c4afa31" x="789.05" y="620.036" style="stroke: #000000; stroke-width: 0.8"/>
      </g>
     </g>
     <g id="text_67">
      <!-- 20 -->
      <g transform="translate(759.145 626.874594) scale(0.18 -0.18)">
       <use xlink:href="#DejaVuSans-32"/>
       <use xlink:href="#DejaVuSans-30" x="63.623047"/>
      </g>
     </g>
    </g>
    <g id="ytick_27">
     <g id="line2d_75">
      <g>
       <use xlink:href="#m4a7c4afa31" x="789.05" y="563.792" style="stroke: #000000; stroke-width: 0.8"/>
      </g>
     </g>
     <g id="text_68">
      <!-- 40 -->
      <g transform="translate(759.145 570.630594) scale(0.18 -0.18)">
       <use xlink:href="#DejaVuSans-34"/>
       <use xlink:href="#DejaVuSans-30" x="63.623047"/>
      </g>
     </g>
    </g>
    <g id="ytick_28">
     <g id="line2d_76">
      <g>
       <use xlink:href="#m4a7c4afa31" x="789.05" y="507.548" style="stroke: #000000; stroke-width: 0.8"/>
      </g>
     </g>
     <g id="text_69">
      <!-- 60 -->
      <g transform="translate(759.145 514.386594) scale(0.18 -0.18)">
       <use xlink:href="#DejaVuSans-36"/>
       <use xlink:href="#DejaVuSans-30" x="63.623047"/>
      </g>
     </g>
    </g>
    <g id="ytick_29">
     <g id="line2d_77">
      <g>
       <use xlink:href="#m4a7c4afa31" x="789.05" y="451.304" style="stroke: #000000; stroke-width: 0.8"/>
      </g>
     </g>
     <g id="text_70">
      <!-- 80 -->
      <g transform="translate(759.145 458.142594) scale(0.18 -0.18)">
       <use xlink:href="#DejaVuSans-38"/>
       <use xlink:href="#DejaVuSans-30" x="63.623047"/>
      </g>
     </g>
    </g>
    <g id="ytick_30">
     <g id="line2d_78">
      <g>
       <use xlink:href="#m4a7c4afa31" x="789.05" y="395.06" style="stroke: #000000; stroke-width: 0.8"/>
      </g>
     </g>
     <g id="text_71">
      <!-- 100 -->
      <g transform="translate(747.6925 401.898594) scale(0.18 -0.18)">
       <use xlink:href="#DejaVuSans-31"/>
       <use xlink:href="#DejaVuSans-30" x="63.623047"/>
       <use xlink:href="#DejaVuSans-30" x="127.246094"/>
      </g>
     </g>
    </g>
    <g id="text_72">
     <!-- Choice Rate (%) -->
     <g transform="translate(739.949063 608.079219) rotate(-90) scale(0.18 -0.18)">
      <use xlink:href="#DejaVuSans-43"/>
      <use xlink:href="#DejaVuSans-68" x="69.824219"/>
      <use xlink:href="#DejaVuSans-6f" x="133.203125"/>
      <use xlink:href="#DejaVuSans-69" x="194.384766"/>
      <use xlink:href="#DejaVuSans-63" x="222.167969"/>
      <use xlink:href="#DejaVuSans-65" x="277.148438"/>
      <use xlink:href="#DejaVuSans-20" x="338.671875"/>
      <use xlink:href="#DejaVuSans-52" x="370.458984"/>
      <use xlink:href="#DejaVuSans-61" x="437.691406"/>
      <use xlink:href="#DejaVuSans-74" x="498.970703"/>
      <use xlink:href="#DejaVuSans-65" x="538.179688"/>
      <use xlink:href="#DejaVuSans-20" x="599.703125"/>
      <use xlink:href="#DejaVuSans-28" x="631.490234"/>
      <use xlink:href="#DejaVuSans-25" x="670.503906"/>
      <use xlink:href="#DejaVuSans-29" x="765.523438"/>
     </g>
    </g>
   </g>
   <g id="LineCollection_5">
    <path d="M 821.960303 446.736526 
L 821.960303 432.292258 
" clip-path="url(#p8d6c225dfb)" style="fill: none; stroke: #696969; stroke-width: 1.5"/>
    <path d="M 873.382652 507.763364 
L 873.382652 496.228051 
" clip-path="url(#p8d6c225dfb)" style="fill: none; stroke: #696969; stroke-width: 1.5"/>
    <path d="M 924.805 564.03825 
L 924.805 554.135696 
" clip-path="url(#p8d6c225dfb)" style="fill: none; stroke: #696969; stroke-width: 1.5"/>
    <path d="M 976.227348 640.255963 
L 976.227348 624.87346 
" clip-path="url(#p8d6c225dfb)" style="fill: none; stroke: #696969; stroke-width: 1.5"/>
    <path d="M 1027.649697 574.791978 
L 1027.649697 550.700899 
" clip-path="url(#p8d6c225dfb)" style="fill: none; stroke: #696969; stroke-width: 1.5"/>
   </g>
   <g id="line2d_79">
    <g clip-path="url(#p8d6c225dfb)">
     <use xlink:href="#mcc3bea9fe9" x="821.960303" y="446.736526" style="fill: #696969; stroke: #696969"/>
     <use xlink:href="#mcc3bea9fe9" x="873.382652" y="507.763364" style="fill: #696969; stroke: #696969"/>
     <use xlink:href="#mcc3bea9fe9" x="924.805" y="564.03825" style="fill: #696969; stroke: #696969"/>
     <use xlink:href="#mcc3bea9fe9" x="976.227348" y="640.255963" style="fill: #696969; stroke: #696969"/>
     <use xlink:href="#mcc3bea9fe9" x="1027.649697" y="574.791978" style="fill: #696969; stroke: #696969"/>
    </g>
   </g>
   <g id="line2d_80">
    <g clip-path="url(#p8d6c225dfb)">
     <use xlink:href="#mcc3bea9fe9" x="821.960303" y="432.292258" style="fill: #696969; stroke: #696969"/>
     <use xlink:href="#mcc3bea9fe9" x="873.382652" y="496.228051" style="fill: #696969; stroke: #696969"/>
     <use xlink:href="#mcc3bea9fe9" x="924.805" y="554.135696" style="fill: #696969; stroke: #696969"/>
     <use xlink:href="#mcc3bea9fe9" x="976.227348" y="624.87346" style="fill: #696969; stroke: #696969"/>
     <use xlink:href="#mcc3bea9fe9" x="1027.649697" y="550.700899" style="fill: #696969; stroke: #696969"/>
    </g>
   </g>
   <g id="LineCollection_6">
    <path d="M 821.960303 446.736526 
L 821.960303 432.292258 
" clip-path="url(#p8d6c225dfb)" style="fill: none; stroke: #808080; stroke-width: 1.5"/>
    <path d="M 873.382652 507.763364 
L 873.382652 496.228051 
" clip-path="url(#p8d6c225dfb)" style="fill: none; stroke: #808080; stroke-width: 1.5"/>
    <path d="M 924.805 564.03825 
L 924.805 554.135696 
" clip-path="url(#p8d6c225dfb)" style="fill: none; stroke: #808080; stroke-width: 1.5"/>
    <path d="M 976.227348 640.255963 
L 976.227348 624.87346 
" clip-path="url(#p8d6c225dfb)" style="fill: none; stroke: #808080; stroke-width: 1.5"/>
    <path d="M 1027.649697 574.791978 
L 1027.649697 550.700899 
" clip-path="url(#p8d6c225dfb)" style="fill: none; stroke: #808080; stroke-width: 1.5"/>
   </g>
   <g id="line2d_81">
    <g clip-path="url(#p8d6c225dfb)">
     <use xlink:href="#m8a4ef2e380" x="821.960303" y="439.514392" style="fill: #808080; stroke: #808080"/>
     <use xlink:href="#m8a4ef2e380" x="873.382652" y="501.995708" style="fill: #808080; stroke: #808080"/>
     <use xlink:href="#m8a4ef2e380" x="924.805" y="559.086973" style="fill: #808080; stroke: #808080"/>
     <use xlink:href="#m8a4ef2e380" x="976.227348" y="632.564712" style="fill: #808080; stroke: #808080"/>
     <use xlink:href="#m8a4ef2e380" x="1027.649697" y="562.746438" style="fill: #808080; stroke: #808080"/>
    </g>
   </g>
   <g id="patch_33">
    <path d="M 789.05 676.28 
L 789.05 395.06 
" style="fill: none; stroke: #000000; stroke-width: 0.8; stroke-linejoin: miter; stroke-linecap: square"/>
   </g>
   <g id="patch_34">
    <path d="M 789.05 676.28 
L 1060.56 676.28 
" style="fill: none; stroke: #000000; stroke-width: 0.8; stroke-linejoin: miter; stroke-linecap: square"/>
   </g>
  </g>
 </g>
 <defs>
  <clipPath id="p339343c226">
   <rect x="82.01" y="42" width="271.51" height="281.22"/>
  </clipPath>
  <clipPath id="p4300b187d7">
   <rect x="435.53" y="42" width="271.51" height="281.22"/>
  </clipPath>
  <clipPath id="p4b73bc591c">
   <rect x="789.05" y="42" width="271.51" height="281.22"/>
  </clipPath>
  <clipPath id="p7e5c7a0c27">
   <rect x="82.01" y="395.06" width="271.51" height="281.22"/>
  </clipPath>
  <clipPath id="p23fcfc0e1e">
   <rect x="435.53" y="395.06" width="271.51" height="281.22"/>
  </clipPath>
  <clipPath id="p8d6c225dfb">
   <rect x="789.05" y="395.06" width="271.51" height="281.22"/>
  </clipPath>
 </defs>
</svg>
