<?xml version="1.0" encoding="utf-8" standalone="no"?>
<!DOCTYPE svg PUBLIC "-//W3C//DTD SVG 1.1//EN"
  "http://www.w3.org/Graphics/SVG/1.1/DTD/svg11.dtd">
<svg xmlns:xlink="http://www.w3.org/1999/xlink" width="1080pt" height="720pt" viewBox="0 0 1080 720" xmlns="http://www.w3.org/2000/svg" version="1.1">
 <metadata>
  <rdf:RDF xmlns:dc="http://purl.org/dc/elements/1.1/" xmlns:cc="http://creativecommons.org/ns#" xmlns:rdf="http://www.w3.org/1999/02/22-rdf-syntax-ns#">
   <cc:Work>
    <dc:type rdf:resource="http://purl.org/dc/dcmitype/StillImage"/>
    <dc:date>2025-05-13T17:16:26.272086</dc:date>
    <dc:format>image/svg+xml</dc:format>
    <dc:creator>
     <cc:Agent>
      <dc:title>Matplotlib v3.9.4, https://matplotlib.org/</dc:title>
     </cc:Agent>
    </dc:creator>
   </cc:Work>
  </rdf:RDF>
 </metadata>
 <defs>
  <style type="text/css">*{stroke-linejoin: round; stroke-linecap: butt}</style>
 </defs>
 <g id="figure_1">
  <g id="patch_1">
   <path d="M 0 720 
L 1080 720 
L 1080 0 
L 0 0 
z
" style="fill: #ffffff"/>
  </g>
  <g id="axes_1">
   <g id="patch_2">
    <path d="M 82.01 323.22 
L 353.52 323.22 
L 353.52 42 
L 82.01 42 
z
" style="fill: #ffffff"/>
   </g>
   <g id="PolyCollection_1">
    <path d="M 94.351364 179.410412 
L 94.351364 228.629094 
L 104.635833 220.246746 
L 114.920303 213.438473 
L 125.204773 191.615134 
L 135.489242 175.848802 
L 145.773712 163.422573 
L 156.058182 155.155341 
L 166.342652 146.543078 
L 176.627121 143.597447 
L 186.911591 143.868371 
L 197.196061 147.221501 
L 207.48053 144.274807 
L 217.765 146.128526 
L 228.04947 138.903655 
L 238.333939 140.496541 
L 248.618409 132.036114 
L 258.902879 133.008627 
L 269.187348 127.003679 
L 279.471818 128.353397 
L 289.756288 125.53294 
L 300.040758 123.054312 
L 310.325227 116.141066 
L 320.609697 114.534362 
L 330.894167 108.637653 
L 330.894167 77.203335 
L 330.894167 77.203335 
L 320.609697 75.35712 
L 310.325227 78.958194 
L 300.040758 83.154873 
L 289.756288 84.842467 
L 279.471818 86.188233 
L 269.187348 88.926691 
L 258.902879 93.337299 
L 248.618409 92.921071 
L 238.333939 92.098718 
L 228.04947 100.635308 
L 217.765 103.131622 
L 207.48053 100.124748 
L 197.196061 104.121758 
L 186.911591 103.308666 
L 176.627121 102.88522 
L 166.342652 104.105811 
L 156.058182 112.158437 
L 145.773712 119.167353 
L 135.489242 129.655346 
L 125.204773 139.580718 
L 114.920303 162.197083 
L 104.635833 167.540291 
L 94.351364 179.410412 
z
" clip-path="url(#p2605aacefb)" style="fill: #095086; fill-opacity: 0.1"/>
   </g>
   <g id="PolyCollection_2">
    <path d="M 94.351364 174.09709 
L 94.351364 225.841428 
L 104.635833 214.581427 
L 114.920303 208.065175 
L 125.204773 190.751797 
L 135.489242 182.368441 
L 145.773712 168.279092 
L 156.058182 160.999778 
L 166.342652 151.085722 
L 176.627121 145.434156 
L 186.911591 143.478311 
L 197.196061 145.713874 
L 207.48053 143.351045 
L 217.765 144.475803 
L 228.04947 138.18384 
L 238.333939 132.292007 
L 248.618409 125.328695 
L 258.902879 120.543905 
L 269.187348 117.846534 
L 279.471818 116.224444 
L 289.756288 116.626625 
L 300.040758 116.057668 
L 310.325227 118.152094 
L 320.609697 120.501581 
L 330.894167 117.0609 
L 330.894167 82.667495 
L 330.894167 82.667495 
L 320.609697 78.06953 
L 310.325227 77.641535 
L 300.040758 81.819073 
L 289.756288 80.555745 
L 279.471818 79.569185 
L 269.187348 77.947096 
L 258.902879 82.887799 
L 248.618409 87.129823 
L 238.333939 91.276438 
L 228.04947 94.411419 
L 217.765 97.146272 
L 207.48053 100.354141 
L 197.196061 100.768792 
L 186.911591 100.921245 
L 176.627121 102.437252 
L 166.342652 109.284353 
L 156.058182 116.729556 
L 145.773712 121.254538 
L 135.489242 130.079411 
L 125.204773 143.915907 
L 114.920303 157.849196 
L 104.635833 162.790055 
L 94.351364 174.09709 
z
" clip-path="url(#p2605aacefb)" style="fill: #b00000; fill-opacity: 0.1"/>
   </g>
   <g id="matplotlib.axis_1">
    <g id="xtick_1">
     <g id="line2d_1">
      <defs>
       <path id="m3e486c12b5" d="M 0 0 
L 0 3.5 
" style="stroke: #000000; stroke-width: 0.8"/>
      </defs>
      <g>
       <use xlink:href="#m3e486c12b5" x="94.351364" y="323.22" style="stroke: #000000; stroke-width: 0.8"/>
      </g>
     </g>
     <g id="text_1">
      <!-- 0 -->
      <g transform="translate(88.625114 343.897188) scale(0.18 -0.18)">
       <defs>
        <path id="DejaVuSans-30" d="M 2034 4250 
Q 1547 4250 1301 3770 
Q 1056 3291 1056 2328 
Q 1056 1369 1301 889 
Q 1547 409 2034 409 
Q 2525 409 2770 889 
Q 3016 1369 3016 2328 
Q 3016 3291 2770 3770 
Q 2525 4250 2034 4250 
z
M 2034 4750 
Q 2819 4750 3233 4129 
Q 3647 3509 3647 2328 
Q 3647 1150 3233 529 
Q 2819 -91 2034 -91 
Q 1250 -91 836 529 
Q 422 1150 422 2328 
Q 422 3509 836 4129 
Q 1250 4750 2034 4750 
z
" transform="scale(0.015625)"/>
       </defs>
       <use xlink:href="#DejaVuSans-30"/>
      </g>
     </g>
    </g>
    <g id="xtick_2">
     <g id="line2d_2">
      <g>
       <use xlink:href="#m3e486c12b5" x="197.196061" y="323.22" style="stroke: #000000; stroke-width: 0.8"/>
      </g>
     </g>
     <g id="text_2">
      <!-- 10 -->
      <g transform="translate(185.743561 343.897188) scale(0.18 -0.18)">
       <defs>
        <path id="DejaVuSans-31" d="M 794 531 
L 1825 531 
L 1825 4091 
L 703 3866 
L 703 4441 
L 1819 4666 
L 2450 4666 
L 2450 531 
L 3481 531 
L 3481 0 
L 794 0 
L 794 531 
z
" transform="scale(0.015625)"/>
       </defs>
       <use xlink:href="#DejaVuSans-31"/>
       <use xlink:href="#DejaVuSans-30" x="63.623047"/>
      </g>
     </g>
    </g>
    <g id="xtick_3">
     <g id="line2d_3">
      <g>
       <use xlink:href="#m3e486c12b5" x="300.040758" y="323.22" style="stroke: #000000; stroke-width: 0.8"/>
      </g>
     </g>
     <g id="text_3">
      <!-- 20 -->
      <g transform="translate(288.588258 343.897188) scale(0.18 -0.18)">
       <defs>
        <path id="DejaVuSans-32" d="M 1228 531 
L 3431 531 
L 3431 0 
L 469 0 
L 469 531 
Q 828 903 1448 1529 
Q 2069 2156 2228 2338 
Q 2531 2678 2651 2914 
Q 2772 3150 2772 3378 
Q 2772 3750 2511 3984 
Q 2250 4219 1831 4219 
Q 1534 4219 1204 4116 
Q 875 4013 500 3803 
L 500 4441 
Q 881 4594 1212 4672 
Q 1544 4750 1819 4750 
Q 2544 4750 2975 4387 
Q 3406 4025 3406 3419 
Q 3406 3131 3298 2873 
Q 3191 2616 2906 2266 
Q 2828 2175 2409 1742 
Q 1991 1309 1228 531 
z
" transform="scale(0.015625)"/>
       </defs>
       <use xlink:href="#DejaVuSans-32"/>
       <use xlink:href="#DejaVuSans-30" x="63.623047"/>
      </g>
     </g>
    </g>
    <g id="text_4">
     <!-- Trial -->
     <g transform="translate(199.379688 365.317813) scale(0.18 -0.18)">
      <defs>
       <path id="DejaVuSans-54" d="M -19 4666 
L 3928 4666 
L 3928 4134 
L 2272 4134 
L 2272 0 
L 1638 0 
L 1638 4134 
L -19 4134 
L -19 4666 
z
" transform="scale(0.015625)"/>
       <path id="DejaVuSans-72" d="M 2631 2963 
Q 2534 3019 2420 3045 
Q 2306 3072 2169 3072 
Q 1681 3072 1420 2755 
Q 1159 2438 1159 1844 
L 1159 0 
L 581 0 
L 581 3500 
L 1159 3500 
L 1159 2956 
Q 1341 3275 1631 3429 
Q 1922 3584 2338 3584 
Q 2397 3584 2469 3576 
Q 2541 3569 2628 3553 
L 2631 2963 
z
" transform="scale(0.015625)"/>
       <path id="DejaVuSans-69" d="M 603 3500 
L 1178 3500 
L 1178 0 
L 603 0 
L 603 3500 
z
M 603 4863 
L 1178 4863 
L 1178 4134 
L 603 4134 
L 603 4863 
z
" transform="scale(0.015625)"/>
       <path id="DejaVuSans-61" d="M 2194 1759 
Q 1497 1759 1228 1600 
Q 959 1441 959 1056 
Q 959 750 1161 570 
Q 1363 391 1709 391 
Q 2188 391 2477 730 
Q 2766 1069 2766 1631 
L 2766 1759 
L 2194 1759 
z
M 3341 1997 
L 3341 0 
L 2766 0 
L 2766 531 
Q 2569 213 2275 61 
Q 1981 -91 1556 -91 
Q 1019 -91 701 211 
Q 384 513 384 1019 
Q 384 1609 779 1909 
Q 1175 2209 1959 2209 
L 2766 2209 
L 2766 2266 
Q 2766 2663 2505 2880 
Q 2244 3097 1772 3097 
Q 1472 3097 1187 3025 
Q 903 2953 641 2809 
L 641 3341 
Q 956 3463 1253 3523 
Q 1550 3584 1831 3584 
Q 2591 3584 2966 3190 
Q 3341 2797 3341 1997 
z
" transform="scale(0.015625)"/>
       <path id="DejaVuSans-6c" d="M 603 4863 
L 1178 4863 
L 1178 0 
L 603 0 
L 603 4863 
z
" transform="scale(0.015625)"/>
      </defs>
      <use xlink:href="#DejaVuSans-54"/>
      <use xlink:href="#DejaVuSans-72" x="46.333984"/>
      <use xlink:href="#DejaVuSans-69" x="87.447266"/>
      <use xlink:href="#DejaVuSans-61" x="115.230469"/>
      <use xlink:href="#DejaVuSans-6c" x="176.509766"/>
     </g>
    </g>
   </g>
   <g id="matplotlib.axis_2">
    <g id="ytick_1">
     <g id="line2d_4">
      <defs>
       <path id="m1e31430b56" d="M 0 0 
L -3.5 0 
" style="stroke: #000000; stroke-width: 0.8"/>
      </defs>
      <g>
       <use xlink:href="#m1e31430b56" x="82.01" y="266.976" style="stroke: #000000; stroke-width: 0.8"/>
      </g>
     </g>
     <g id="text_5">
      <!-- 40 -->
      <g transform="translate(52.105 273.814594) scale(0.18 -0.18)">
       <defs>
        <path id="DejaVuSans-34" d="M 2419 4116 
L 825 1625 
L 2419 1625 
L 2419 4116 
z
M 2253 4666 
L 3047 4666 
L 3047 1625 
L 3713 1625 
L 3713 1100 
L 3047 1100 
L 3047 0 
L 2419 0 
L 2419 1100 
L 313 1100 
L 313 1709 
L 2253 4666 
z
" transform="scale(0.015625)"/>
       </defs>
       <use xlink:href="#DejaVuSans-34"/>
       <use xlink:href="#DejaVuSans-30" x="63.623047"/>
      </g>
     </g>
    </g>
    <g id="ytick_2">
     <g id="line2d_5">
      <g>
       <use xlink:href="#m1e31430b56" x="82.01" y="191.984" style="stroke: #000000; stroke-width: 0.8"/>
      </g>
     </g>
     <g id="text_6">
      <!-- 60 -->
      <g transform="translate(52.105 198.822594) scale(0.18 -0.18)">
       <defs>
        <path id="DejaVuSans-36" d="M 2113 2584 
Q 1688 2584 1439 2293 
Q 1191 2003 1191 1497 
Q 1191 994 1439 701 
Q 1688 409 2113 409 
Q 2538 409 2786 701 
Q 3034 994 3034 1497 
Q 3034 2003 2786 2293 
Q 2538 2584 2113 2584 
z
M 3366 4563 
L 3366 3988 
Q 3128 4100 2886 4159 
Q 2644 4219 2406 4219 
Q 1781 4219 1451 3797 
Q 1122 3375 1075 2522 
Q 1259 2794 1537 2939 
Q 1816 3084 2150 3084 
Q 2853 3084 3261 2657 
Q 3669 2231 3669 1497 
Q 3669 778 3244 343 
Q 2819 -91 2113 -91 
Q 1303 -91 875 529 
Q 447 1150 447 2328 
Q 447 3434 972 4092 
Q 1497 4750 2381 4750 
Q 2619 4750 2861 4703 
Q 3103 4656 3366 4563 
z
" transform="scale(0.015625)"/>
       </defs>
       <use xlink:href="#DejaVuSans-36"/>
       <use xlink:href="#DejaVuSans-30" x="63.623047"/>
      </g>
     </g>
    </g>
    <g id="ytick_3">
     <g id="line2d_6">
      <g>
       <use xlink:href="#m1e31430b56" x="82.01" y="116.992" style="stroke: #000000; stroke-width: 0.8"/>
      </g>
     </g>
     <g id="text_7">
      <!-- 80 -->
      <g transform="translate(52.105 123.830594) scale(0.18 -0.18)">
       <defs>
        <path id="DejaVuSans-38" d="M 2034 2216 
Q 1584 2216 1326 1975 
Q 1069 1734 1069 1313 
Q 1069 891 1326 650 
Q 1584 409 2034 409 
Q 2484 409 2743 651 
Q 3003 894 3003 1313 
Q 3003 1734 2745 1975 
Q 2488 2216 2034 2216 
z
M 1403 2484 
Q 997 2584 770 2862 
Q 544 3141 544 3541 
Q 544 4100 942 4425 
Q 1341 4750 2034 4750 
Q 2731 4750 3128 4425 
Q 3525 4100 3525 3541 
Q 3525 3141 3298 2862 
Q 3072 2584 2669 2484 
Q 3125 2378 3379 2068 
Q 3634 1759 3634 1313 
Q 3634 634 3220 271 
Q 2806 -91 2034 -91 
Q 1263 -91 848 271 
Q 434 634 434 1313 
Q 434 1759 690 2068 
Q 947 2378 1403 2484 
z
M 1172 3481 
Q 1172 3119 1398 2916 
Q 1625 2713 2034 2713 
Q 2441 2713 2670 2916 
Q 2900 3119 2900 3481 
Q 2900 3844 2670 4047 
Q 2441 4250 2034 4250 
Q 1625 4250 1398 4047 
Q 1172 3844 1172 3481 
z
" transform="scale(0.015625)"/>
       </defs>
       <use xlink:href="#DejaVuSans-38"/>
       <use xlink:href="#DejaVuSans-30" x="63.623047"/>
      </g>
     </g>
    </g>
    <g id="ytick_4">
     <g id="line2d_7">
      <g>
       <use xlink:href="#m1e31430b56" x="82.01" y="42" style="stroke: #000000; stroke-width: 0.8"/>
      </g>
     </g>
     <g id="text_8">
      <!-- 100 -->
      <g transform="translate(40.6525 48.838594) scale(0.18 -0.18)">
       <use xlink:href="#DejaVuSans-31"/>
       <use xlink:href="#DejaVuSans-30" x="63.623047"/>
       <use xlink:href="#DejaVuSans-30" x="127.246094"/>
      </g>
     </g>
    </g>
    <g id="text_9">
     <!-- Accuracy (%) -->
     <g transform="translate(32.909063 242.135156) rotate(-90) scale(0.18 -0.18)">
      <defs>
       <path id="DejaVuSans-41" d="M 2188 4044 
L 1331 1722 
L 3047 1722 
L 2188 4044 
z
M 1831 4666 
L 2547 4666 
L 4325 0 
L 3669 0 
L 3244 1197 
L 1141 1197 
L 716 0 
L 50 0 
L 1831 4666 
z
" transform="scale(0.015625)"/>
       <path id="DejaVuSans-63" d="M 3122 3366 
L 3122 2828 
Q 2878 2963 2633 3030 
Q 2388 3097 2138 3097 
Q 1578 3097 1268 2742 
Q 959 2388 959 1747 
Q 959 1106 1268 751 
Q 1578 397 2138 397 
Q 2388 397 2633 464 
Q 2878 531 3122 666 
L 3122 134 
Q 2881 22 2623 -34 
Q 2366 -91 2075 -91 
Q 1284 -91 818 406 
Q 353 903 353 1747 
Q 353 2603 823 3093 
Q 1294 3584 2113 3584 
Q 2378 3584 2631 3529 
Q 2884 3475 3122 3366 
z
" transform="scale(0.015625)"/>
       <path id="DejaVuSans-75" d="M 544 1381 
L 544 3500 
L 1119 3500 
L 1119 1403 
Q 1119 906 1312 657 
Q 1506 409 1894 409 
Q 2359 409 2629 706 
Q 2900 1003 2900 1516 
L 2900 3500 
L 3475 3500 
L 3475 0 
L 2900 0 
L 2900 538 
Q 2691 219 2414 64 
Q 2138 -91 1772 -91 
Q 1169 -91 856 284 
Q 544 659 544 1381 
z
M 1991 3584 
L 1991 3584 
z
" transform="scale(0.015625)"/>
       <path id="DejaVuSans-79" d="M 2059 -325 
Q 1816 -950 1584 -1140 
Q 1353 -1331 966 -1331 
L 506 -1331 
L 506 -850 
L 844 -850 
Q 1081 -850 1212 -737 
Q 1344 -625 1503 -206 
L 1606 56 
L 191 3500 
L 800 3500 
L 1894 763 
L 2988 3500 
L 3597 3500 
L 2059 -325 
z
" transform="scale(0.015625)"/>
       <path id="DejaVuSans-20" transform="scale(0.015625)"/>
       <path id="DejaVuSans-28" d="M 1984 4856 
Q 1566 4138 1362 3434 
Q 1159 2731 1159 2009 
Q 1159 1288 1364 580 
Q 1569 -128 1984 -844 
L 1484 -844 
Q 1016 -109 783 600 
Q 550 1309 550 2009 
Q 550 2706 781 3412 
Q 1013 4119 1484 4856 
L 1984 4856 
z
" transform="scale(0.015625)"/>
       <path id="DejaVuSans-25" d="M 4653 2053 
Q 4381 2053 4226 1822 
Q 4072 1591 4072 1178 
Q 4072 772 4226 539 
Q 4381 306 4653 306 
Q 4919 306 5073 539 
Q 5228 772 5228 1178 
Q 5228 1588 5073 1820 
Q 4919 2053 4653 2053 
z
M 4653 2450 
Q 5147 2450 5437 2106 
Q 5728 1763 5728 1178 
Q 5728 594 5436 251 
Q 5144 -91 4653 -91 
Q 4153 -91 3862 251 
Q 3572 594 3572 1178 
Q 3572 1766 3864 2108 
Q 4156 2450 4653 2450 
z
M 1428 4353 
Q 1159 4353 1004 4120 
Q 850 3888 850 3481 
Q 850 3069 1003 2837 
Q 1156 2606 1428 2606 
Q 1700 2606 1854 2837 
Q 2009 3069 2009 3481 
Q 2009 3884 1853 4118 
Q 1697 4353 1428 4353 
z
M 4250 4750 
L 4750 4750 
L 1831 -91 
L 1331 -91 
L 4250 4750 
z
M 1428 4750 
Q 1922 4750 2215 4408 
Q 2509 4066 2509 3481 
Q 2509 2891 2217 2550 
Q 1925 2209 1428 2209 
Q 931 2209 642 2551 
Q 353 2894 353 3481 
Q 353 4063 643 4406 
Q 934 4750 1428 4750 
z
" transform="scale(0.015625)"/>
       <path id="DejaVuSans-29" d="M 513 4856 
L 1013 4856 
Q 1481 4119 1714 3412 
Q 1947 2706 1947 2009 
Q 1947 1309 1714 600 
Q 1481 -109 1013 -844 
L 513 -844 
Q 928 -128 1133 580 
Q 1338 1288 1338 2009 
Q 1338 2731 1133 3434 
Q 928 4138 513 4856 
z
" transform="scale(0.015625)"/>
      </defs>
      <use xlink:href="#DejaVuSans-41"/>
      <use xlink:href="#DejaVuSans-63" x="66.658203"/>
      <use xlink:href="#DejaVuSans-63" x="121.638672"/>
      <use xlink:href="#DejaVuSans-75" x="176.619141"/>
      <use xlink:href="#DejaVuSans-72" x="239.998047"/>
      <use xlink:href="#DejaVuSans-61" x="281.111328"/>
      <use xlink:href="#DejaVuSans-63" x="342.390625"/>
      <use xlink:href="#DejaVuSans-79" x="397.371094"/>
      <use xlink:href="#DejaVuSans-20" x="456.550781"/>
      <use xlink:href="#DejaVuSans-28" x="488.337891"/>
      <use xlink:href="#DejaVuSans-25" x="527.351562"/>
      <use xlink:href="#DejaVuSans-29" x="622.371094"/>
     </g>
    </g>
   </g>
   <g id="line2d_8">
    <path d="M 94.351364 204.019753 
L 104.635833 193.893519 
L 114.920303 187.817778 
L 125.204773 165.597926 
L 135.489242 152.752074 
L 145.773712 141.294963 
L 156.058182 133.656889 
L 166.342652 125.324444 
L 176.627121 123.241333 
L 186.911591 123.588519 
L 197.196061 125.67163 
L 207.48053 122.199778 
L 217.765 124.630074 
L 228.04947 119.769481 
L 238.333939 116.29763 
L 248.618409 112.478593 
L 258.902879 113.172963 
L 269.187348 107.965185 
L 279.471818 107.270815 
L 289.756288 105.187704 
L 300.040758 103.104593 
L 310.325227 97.54963 
L 320.609697 94.945741 
L 330.894167 92.920494 
" clip-path="url(#p2605aacefb)" style="fill: none; stroke: #095086; stroke-opacity: 0.75; stroke-width: 3; stroke-linecap: square"/>
   </g>
   <g id="line2d_9">
    <path d="M 104.635833 187.239136 
L 114.920303 175.232315 
L 125.204773 165.945111 
L 135.489242 140.600593 
L 145.773712 125.324444 
L 156.058182 114.908889 
L 166.342652 108.659556 
L 176.627121 104.146148 
L 186.911591 101.021481 
L 197.196061 98.93837 
L 207.48053 97.202444 
L 217.765 94.772148 
L 228.04947 93.036222 
L 238.333939 90.605926 
L 248.618409 88.17563 
L 258.902879 89.911556 
L 269.187348 89.217185 
L 279.471818 88.522815 
L 289.756288 87.481259 
L 300.040758 87.828444 
L 310.325227 83.315037 
L 320.609697 79.843185 
L 330.894167 76.284537 
L 341.178636 77.29716 
" clip-path="url(#p2605aacefb)" style="fill: none; stroke-dasharray: 7.4,3.2; stroke-dashoffset: 0; stroke: #095086; stroke-opacity: 0.75; stroke-width: 2"/>
   </g>
   <g id="line2d_10">
    <path d="M 94.351364 199.969259 
L 104.635833 188.685741 
L 114.920303 182.957185 
L 125.204773 167.333852 
L 135.489242 156.223926 
L 145.773712 144.766815 
L 156.058182 138.864667 
L 166.342652 130.185037 
L 176.627121 123.935704 
L 186.911591 122.199778 
L 197.196061 123.241333 
L 207.48053 121.852593 
L 217.765 120.811037 
L 228.04947 116.29763 
L 238.333939 111.784222 
L 248.618409 106.229259 
L 258.902879 101.715852 
L 269.187348 97.896815 
L 279.471818 97.896815 
L 289.756288 98.591185 
L 300.040758 98.93837 
L 310.325227 97.896815 
L 320.609697 99.285556 
L 330.894167 99.864198 
" clip-path="url(#p2605aacefb)" style="fill: none; stroke: #b00000; stroke-opacity: 0.75; stroke-width: 3; stroke-linecap: square"/>
   </g>
   <g id="line2d_11">
    <path d="M 104.635833 183.188642 
L 114.920303 170.024537 
L 125.204773 162.820444 
L 135.489242 140.947778 
L 145.773712 128.796296 
L 156.058182 123.241333 
L 166.342652 119.422296 
L 176.627121 115.603259 
L 186.911591 114.908889 
L 197.196061 115.256074 
L 207.48053 113.172963 
L 217.765 112.478593 
L 228.04947 107.965185 
L 238.333939 105.534889 
L 248.618409 102.757407 
L 258.902879 97.202444 
L 269.187348 89.217185 
L 279.471818 84.009407 
L 289.756288 77.065704 
L 300.040758 73.593852 
L 310.325227 69.774815 
L 320.609697 70.122 
L 330.894167 71.076759 
L 341.178636 71.510741 
" clip-path="url(#p2605aacefb)" style="fill: none; stroke-dasharray: 7.4,3.2; stroke-dashoffset: 0; stroke: #b00000; stroke-opacity: 0.75; stroke-width: 2"/>
   </g>
   <g id="patch_3">
    <path d="M 82.01 323.22 
L 82.01 42 
" style="fill: none; stroke: #000000; stroke-width: 0.8; stroke-linejoin: miter; stroke-linecap: square"/>
   </g>
   <g id="patch_4">
    <path d="M 82.01 323.22 
L 353.52 323.22 
" style="fill: none; stroke: #000000; stroke-width: 0.8; stroke-linejoin: miter; stroke-linecap: square"/>
   </g>
   <g id="text_10">
    <!-- No Pain -->
    <g transform="translate(177.155313 36) scale(0.216 -0.216)">
     <defs>
      <path id="DejaVuSans-4e" d="M 628 4666 
L 1478 4666 
L 3547 763 
L 3547 4666 
L 4159 4666 
L 4159 0 
L 3309 0 
L 1241 3903 
L 1241 0 
L 628 0 
L 628 4666 
z
" transform="scale(0.015625)"/>
      <path id="DejaVuSans-6f" d="M 1959 3097 
Q 1497 3097 1228 2736 
Q 959 2375 959 1747 
Q 959 1119 1226 758 
Q 1494 397 1959 397 
Q 2419 397 2687 759 
Q 2956 1122 2956 1747 
Q 2956 2369 2687 2733 
Q 2419 3097 1959 3097 
z
M 1959 3584 
Q 2709 3584 3137 3096 
Q 3566 2609 3566 1747 
Q 3566 888 3137 398 
Q 2709 -91 1959 -91 
Q 1206 -91 779 398 
Q 353 888 353 1747 
Q 353 2609 779 3096 
Q 1206 3584 1959 3584 
z
" transform="scale(0.015625)"/>
      <path id="DejaVuSans-50" d="M 1259 4147 
L 1259 2394 
L 2053 2394 
Q 2494 2394 2734 2622 
Q 2975 2850 2975 3272 
Q 2975 3691 2734 3919 
Q 2494 4147 2053 4147 
L 1259 4147 
z
M 628 4666 
L 2053 4666 
Q 2838 4666 3239 4311 
Q 3641 3956 3641 3272 
Q 3641 2581 3239 2228 
Q 2838 1875 2053 1875 
L 1259 1875 
L 1259 0 
L 628 0 
L 628 4666 
z
" transform="scale(0.015625)"/>
      <path id="DejaVuSans-6e" d="M 3513 2113 
L 3513 0 
L 2938 0 
L 2938 2094 
Q 2938 2591 2744 2837 
Q 2550 3084 2163 3084 
Q 1697 3084 1428 2787 
Q 1159 2491 1159 1978 
L 1159 0 
L 581 0 
L 581 3500 
L 1159 3500 
L 1159 2956 
Q 1366 3272 1645 3428 
Q 1925 3584 2291 3584 
Q 2894 3584 3203 3211 
Q 3513 2838 3513 2113 
z
" transform="scale(0.015625)"/>
     </defs>
     <use xlink:href="#DejaVuSans-4e"/>
     <use xlink:href="#DejaVuSans-6f" x="74.804688"/>
     <use xlink:href="#DejaVuSans-20" x="135.986328"/>
     <use xlink:href="#DejaVuSans-50" x="167.773438"/>
     <use xlink:href="#DejaVuSans-61" x="223.576172"/>
     <use xlink:href="#DejaVuSans-69" x="284.855469"/>
     <use xlink:href="#DejaVuSans-6e" x="312.638672"/>
    </g>
   </g>
   <g id="legend_1">
    <g id="line2d_12">
     <path d="M 219.884062 270.555938 
L 237.884062 270.555938 
L 255.884062 270.555938 
" style="fill: none; stroke: #095086; stroke-opacity: 0.75; stroke-width: 3; stroke-linecap: square"/>
    </g>
    <g id="text_11">
     <!-- Reward -->
     <g transform="translate(270.284062 276.855938) scale(0.18 -0.18)">
      <defs>
       <path id="DejaVuSans-52" d="M 2841 2188 
Q 3044 2119 3236 1894 
Q 3428 1669 3622 1275 
L 4263 0 
L 3584 0 
L 2988 1197 
Q 2756 1666 2539 1819 
Q 2322 1972 1947 1972 
L 1259 1972 
L 1259 0 
L 628 0 
L 628 4666 
L 2053 4666 
Q 2853 4666 3247 4331 
Q 3641 3997 3641 3322 
Q 3641 2881 3436 2590 
Q 3231 2300 2841 2188 
z
M 1259 4147 
L 1259 2491 
L 2053 2491 
Q 2509 2491 2742 2702 
Q 2975 2913 2975 3322 
Q 2975 3731 2742 3939 
Q 2509 4147 2053 4147 
L 1259 4147 
z
" transform="scale(0.015625)"/>
       <path id="DejaVuSans-65" d="M 3597 1894 
L 3597 1613 
L 953 1613 
Q 991 1019 1311 708 
Q 1631 397 2203 397 
Q 2534 397 2845 478 
Q 3156 559 3463 722 
L 3463 178 
Q 3153 47 2828 -22 
Q 2503 -91 2169 -91 
Q 1331 -91 842 396 
Q 353 884 353 1716 
Q 353 2575 817 3079 
Q 1281 3584 2069 3584 
Q 2775 3584 3186 3129 
Q 3597 2675 3597 1894 
z
M 3022 2063 
Q 3016 2534 2758 2815 
Q 2500 3097 2075 3097 
Q 1594 3097 1305 2825 
Q 1016 2553 972 2059 
L 3022 2063 
z
" transform="scale(0.015625)"/>
       <path id="DejaVuSans-77" d="M 269 3500 
L 844 3500 
L 1563 769 
L 2278 3500 
L 2956 3500 
L 3675 769 
L 4391 3500 
L 4966 3500 
L 4050 0 
L 3372 0 
L 2619 2869 
L 1863 0 
L 1184 0 
L 269 3500 
z
" transform="scale(0.015625)"/>
       <path id="DejaVuSans-64" d="M 2906 2969 
L 2906 4863 
L 3481 4863 
L 3481 0 
L 2906 0 
L 2906 525 
Q 2725 213 2448 61 
Q 2172 -91 1784 -91 
Q 1150 -91 751 415 
Q 353 922 353 1747 
Q 353 2572 751 3078 
Q 1150 3584 1784 3584 
Q 2172 3584 2448 3432 
Q 2725 3281 2906 2969 
z
M 947 1747 
Q 947 1113 1208 752 
Q 1469 391 1925 391 
Q 2381 391 2643 752 
Q 2906 1113 2906 1747 
Q 2906 2381 2643 2742 
Q 2381 3103 1925 3103 
Q 1469 3103 1208 2742 
Q 947 2381 947 1747 
z
" transform="scale(0.015625)"/>
      </defs>
      <use xlink:href="#DejaVuSans-52"/>
      <use xlink:href="#DejaVuSans-65" x="64.982422"/>
      <use xlink:href="#DejaVuSans-77" x="126.505859"/>
      <use xlink:href="#DejaVuSans-61" x="208.292969"/>
      <use xlink:href="#DejaVuSans-72" x="269.572266"/>
      <use xlink:href="#DejaVuSans-64" x="308.935547"/>
     </g>
    </g>
    <g id="line2d_13">
     <path d="M 219.884062 296.976563 
L 237.884062 296.976563 
L 255.884062 296.976563 
" style="fill: none; stroke: #b00000; stroke-opacity: 0.75; stroke-width: 3; stroke-linecap: square"/>
    </g>
    <g id="text_12">
     <!-- Punish -->
     <g transform="translate(270.284062 303.276563) scale(0.18 -0.18)">
      <defs>
       <path id="DejaVuSans-73" d="M 2834 3397 
L 2834 2853 
Q 2591 2978 2328 3040 
Q 2066 3103 1784 3103 
Q 1356 3103 1142 2972 
Q 928 2841 928 2578 
Q 928 2378 1081 2264 
Q 1234 2150 1697 2047 
L 1894 2003 
Q 2506 1872 2764 1633 
Q 3022 1394 3022 966 
Q 3022 478 2636 193 
Q 2250 -91 1575 -91 
Q 1294 -91 989 -36 
Q 684 19 347 128 
L 347 722 
Q 666 556 975 473 
Q 1284 391 1588 391 
Q 1994 391 2212 530 
Q 2431 669 2431 922 
Q 2431 1156 2273 1281 
Q 2116 1406 1581 1522 
L 1381 1569 
Q 847 1681 609 1914 
Q 372 2147 372 2553 
Q 372 3047 722 3315 
Q 1072 3584 1716 3584 
Q 2034 3584 2315 3537 
Q 2597 3491 2834 3397 
z
" transform="scale(0.015625)"/>
       <path id="DejaVuSans-68" d="M 3513 2113 
L 3513 0 
L 2938 0 
L 2938 2094 
Q 2938 2591 2744 2837 
Q 2550 3084 2163 3084 
Q 1697 3084 1428 2787 
Q 1159 2491 1159 1978 
L 1159 0 
L 581 0 
L 581 4863 
L 1159 4863 
L 1159 2956 
Q 1366 3272 1645 3428 
Q 1925 3584 2291 3584 
Q 2894 3584 3203 3211 
Q 3513 2838 3513 2113 
z
" transform="scale(0.015625)"/>
      </defs>
      <use xlink:href="#DejaVuSans-50"/>
      <use xlink:href="#DejaVuSans-75" x="58.552734"/>
      <use xlink:href="#DejaVuSans-6e" x="121.931641"/>
      <use xlink:href="#DejaVuSans-69" x="185.310547"/>
      <use xlink:href="#DejaVuSans-73" x="213.09375"/>
      <use xlink:href="#DejaVuSans-68" x="265.193359"/>
     </g>
    </g>
   </g>
  </g>
  <g id="axes_2">
   <g id="patch_5">
    <path d="M 435.53 323.22 
L 707.04 323.22 
L 707.04 42 
L 435.53 42 
z
" style="fill: #ffffff"/>
   </g>
   <g id="PolyCollection_3">
    <path d="M 447.871364 159.367977 
L 447.871364 235.91957 
L 458.155833 226.060202 
L 468.440303 221.711172 
L 478.724773 215.470279 
L 489.009242 205.346096 
L 499.293712 195.879201 
L 509.578182 182.27172 
L 519.862652 173.19104 
L 530.147121 162.629753 
L 540.431591 166.265183 
L 550.716061 160.900647 
L 561.00053 172.058076 
L 571.285 157.972921 
L 581.56947 158.482994 
L 591.853939 145.54805 
L 602.138409 155.194511 
L 612.422879 148.692885 
L 622.707348 155.026875 
L 632.991818 150.994637 
L 643.276288 141.407835 
L 653.560758 143.478958 
L 663.845227 131.006093 
L 674.129697 136.86446 
L 684.414167 124.415678 
L 684.414167 77.496272 
L 684.414167 77.496272 
L 674.129697 76.249125 
L 663.845227 76.093983 
L 653.560758 77.770552 
L 643.276288 95.406052 
L 632.991818 85.81925 
L 622.707348 80.372068 
L 612.422879 93.780775 
L 602.138409 92.938923 
L 591.853939 95.510667 
L 581.56947 92.480326 
L 571.285 98.650173 
L 561.00053 97.299509 
L 550.716061 101.382221 
L 540.431591 100.262515 
L 530.147121 108.142775 
L 519.862652 110.315979 
L 509.578182 116.799676 
L 499.293712 125.83129 
L 489.009242 129.098885 
L 478.724773 143.02874 
L 468.440303 155.182111 
L 458.155833 155.077911 
L 447.871364 159.367977 
z
" clip-path="url(#pca4c27d203)" style="fill: #095086; fill-opacity: 0.1"/>
   </g>
   <g id="PolyCollection_4">
    <path d="M 447.871364 164.293128 
L 447.871364 235.710897 
L 458.155833 225.360675 
L 468.440303 220.195237 
L 478.724773 215.569422 
L 489.009242 199.102712 
L 499.293712 186.121665 
L 509.578182 181.598521 
L 519.862652 176.970103 
L 530.147121 170.065202 
L 540.431591 164.436599 
L 550.716061 163.993908 
L 561.00053 150.602734 
L 571.285 146.038888 
L 581.56947 139.755142 
L 591.853939 143.446393 
L 602.138409 145.155972 
L 612.422879 147.010557 
L 622.707348 143.478958 
L 632.991818 135.936745 
L 643.276288 129.556187 
L 653.560758 120.546587 
L 663.845227 122.06835 
L 674.129697 120.573078 
L 684.414167 127.232911 
L 684.414167 72.3208 
L 684.414167 72.3208 
L 674.129697 71.316356 
L 663.845227 70.882292 
L 653.560758 72.404055 
L 643.276288 77.543888 
L 632.991818 73.993217 
L 622.707348 77.770552 
L 612.422879 86.973443 
L 602.138409 80.338367 
L 591.853939 80.633004 
L 581.56947 88.569084 
L 571.285 90.774999 
L 561.00053 96.115756 
L 550.716061 101.118847 
L 540.431591 99.261212 
L 530.147121 110.61193 
L 519.862652 115.026576 
L 509.578182 110.398158 
L 499.293712 118.609505 
L 489.009242 133.927326 
L 478.724773 133.024993 
L 468.440303 151.038273 
L 458.155833 161.083476 
L 447.871364 164.293128 
z
" clip-path="url(#pca4c27d203)" style="fill: #b00000; fill-opacity: 0.1"/>
   </g>
   <g id="matplotlib.axis_3">
    <g id="xtick_4">
     <g id="line2d_14">
      <g>
       <use xlink:href="#m3e486c12b5" x="447.871364" y="323.22" style="stroke: #000000; stroke-width: 0.8"/>
      </g>
     </g>
     <g id="text_13">
      <!-- 0 -->
      <g transform="translate(442.145114 343.897188) scale(0.18 -0.18)">
       <use xlink:href="#DejaVuSans-30"/>
      </g>
     </g>
    </g>
    <g id="xtick_5">
     <g id="line2d_15">
      <g>
       <use xlink:href="#m3e486c12b5" x="550.716061" y="323.22" style="stroke: #000000; stroke-width: 0.8"/>
      </g>
     </g>
     <g id="text_14">
      <!-- 10 -->
      <g transform="translate(539.263561 343.897188) scale(0.18 -0.18)">
       <use xlink:href="#DejaVuSans-31"/>
       <use xlink:href="#DejaVuSans-30" x="63.623047"/>
      </g>
     </g>
    </g>
    <g id="xtick_6">
     <g id="line2d_16">
      <g>
       <use xlink:href="#m3e486c12b5" x="653.560758" y="323.22" style="stroke: #000000; stroke-width: 0.8"/>
      </g>
     </g>
     <g id="text_15">
      <!-- 20 -->
      <g transform="translate(642.108258 343.897188) scale(0.18 -0.18)">
       <use xlink:href="#DejaVuSans-32"/>
       <use xlink:href="#DejaVuSans-30" x="63.623047"/>
      </g>
     </g>
    </g>
    <g id="text_16">
     <!-- Trial -->
     <g transform="translate(552.899688 365.317813) scale(0.18 -0.18)">
      <use xlink:href="#DejaVuSans-54"/>
      <use xlink:href="#DejaVuSans-72" x="46.333984"/>
      <use xlink:href="#DejaVuSans-69" x="87.447266"/>
      <use xlink:href="#DejaVuSans-61" x="115.230469"/>
      <use xlink:href="#DejaVuSans-6c" x="176.509766"/>
     </g>
    </g>
   </g>
   <g id="matplotlib.axis_4">
    <g id="ytick_5">
     <g id="line2d_17">
      <g>
       <use xlink:href="#m1e31430b56" x="435.53" y="266.976" style="stroke: #000000; stroke-width: 0.8"/>
      </g>
     </g>
     <g id="text_17">
      <!-- 40 -->
      <g transform="translate(405.625 273.814594) scale(0.18 -0.18)">
       <use xlink:href="#DejaVuSans-34"/>
       <use xlink:href="#DejaVuSans-30" x="63.623047"/>
      </g>
     </g>
    </g>
    <g id="ytick_6">
     <g id="line2d_18">
      <g>
       <use xlink:href="#m1e31430b56" x="435.53" y="191.984" style="stroke: #000000; stroke-width: 0.8"/>
      </g>
     </g>
     <g id="text_18">
      <!-- 60 -->
      <g transform="translate(405.625 198.822594) scale(0.18 -0.18)">
       <use xlink:href="#DejaVuSans-36"/>
       <use xlink:href="#DejaVuSans-30" x="63.623047"/>
      </g>
     </g>
    </g>
    <g id="ytick_7">
     <g id="line2d_19">
      <g>
       <use xlink:href="#m1e31430b56" x="435.53" y="116.992" style="stroke: #000000; stroke-width: 0.8"/>
      </g>
     </g>
     <g id="text_19">
      <!-- 80 -->
      <g transform="translate(405.625 123.830594) scale(0.18 -0.18)">
       <use xlink:href="#DejaVuSans-38"/>
       <use xlink:href="#DejaVuSans-30" x="63.623047"/>
      </g>
     </g>
    </g>
    <g id="ytick_8">
     <g id="line2d_20">
      <g>
       <use xlink:href="#m1e31430b56" x="435.53" y="42" style="stroke: #000000; stroke-width: 0.8"/>
      </g>
     </g>
     <g id="text_20">
      <!-- 100 -->
      <g transform="translate(394.1725 48.838594) scale(0.18 -0.18)">
       <use xlink:href="#DejaVuSans-31"/>
       <use xlink:href="#DejaVuSans-30" x="63.623047"/>
       <use xlink:href="#DejaVuSans-30" x="127.246094"/>
      </g>
     </g>
    </g>
    <g id="text_21">
     <!-- Accuracy (%) -->
     <g transform="translate(386.429063 242.135156) rotate(-90) scale(0.18 -0.18)">
      <use xlink:href="#DejaVuSans-41"/>
      <use xlink:href="#DejaVuSans-63" x="66.658203"/>
      <use xlink:href="#DejaVuSans-63" x="121.638672"/>
      <use xlink:href="#DejaVuSans-75" x="176.619141"/>
      <use xlink:href="#DejaVuSans-72" x="239.998047"/>
      <use xlink:href="#DejaVuSans-61" x="281.111328"/>
      <use xlink:href="#DejaVuSans-63" x="342.390625"/>
      <use xlink:href="#DejaVuSans-79" x="397.371094"/>
      <use xlink:href="#DejaVuSans-20" x="456.550781"/>
      <use xlink:href="#DejaVuSans-28" x="488.337891"/>
      <use xlink:href="#DejaVuSans-25" x="527.351562"/>
      <use xlink:href="#DejaVuSans-29" x="622.371094"/>
     </g>
    </g>
   </g>
   <g id="line2d_21">
    <path d="M 447.871364 197.643774 
L 458.155833 190.569057 
L 468.440303 188.446642 
L 478.724773 179.249509 
L 489.009242 167.222491 
L 499.293712 160.855245 
L 509.578182 149.535698 
L 519.862652 141.753509 
L 530.147121 135.386264 
L 540.431591 133.263849 
L 550.716061 131.141434 
L 561.00053 134.678792 
L 571.285 128.311547 
L 581.56947 125.48166 
L 591.853939 120.529358 
L 602.138409 124.066717 
L 612.422879 121.23683 
L 622.707348 117.699472 
L 632.991818 118.406943 
L 643.276288 118.406943 
L 653.560758 110.624755 
L 663.845227 103.550038 
L 674.129697 106.556792 
L 684.414167 100.955975 
" clip-path="url(#pca4c27d203)" style="fill: none; stroke: #095086; stroke-opacity: 0.75; stroke-width: 3; stroke-linecap: square"/>
   </g>
   <g id="line2d_22">
    <path d="M 458.155833 190.569057 
L 468.440303 178.188302 
L 478.724773 167.222491 
L 489.009242 148.828226 
L 499.293712 134.678792 
L 509.578182 124.774189 
L 519.862652 116.284528 
L 530.147121 109.917283 
L 540.431591 102.135094 
L 550.716061 99.305208 
L 561.00053 94.352906 
L 571.285 93.645434 
L 581.56947 93.645434 
L 591.853939 99.305208 
L 602.138409 93.645434 
L 612.422879 90.108075 
L 622.707348 85.863245 
L 632.991818 85.155774 
L 643.276288 75.25117 
L 653.560758 76.666113 
L 663.845227 78.788528 
L 674.129697 78.788528 
L 684.414167 76.489245 
L 694.698636 82.090063 
" clip-path="url(#pca4c27d203)" style="fill: none; stroke-dasharray: 7.4,3.2; stroke-dashoffset: 0; stroke: #095086; stroke-opacity: 0.75; stroke-width: 2"/>
   </g>
   <g id="line2d_23">
    <path d="M 447.871364 200.002013 
L 458.155833 193.222075 
L 468.440303 185.616755 
L 478.724773 174.297208 
L 489.009242 166.515019 
L 499.293712 152.365585 
L 509.578182 145.99834 
L 519.862652 145.99834 
L 530.147121 140.338566 
L 540.431591 131.848906 
L 550.716061 132.556377 
L 561.00053 123.359245 
L 571.285 118.406943 
L 581.56947 114.162113 
L 591.853939 112.039698 
L 602.138409 112.74717 
L 612.422879 116.992 
L 622.707348 110.624755 
L 632.991818 104.964981 
L 643.276288 103.550038 
L 653.560758 96.475321 
L 663.845227 96.475321 
L 674.129697 95.944717 
L 684.414167 99.776855 
" clip-path="url(#pca4c27d203)" style="fill: none; stroke: #b00000; stroke-opacity: 0.75; stroke-width: 3; stroke-linecap: square"/>
   </g>
   <g id="line2d_24">
    <path d="M 458.155833 192.927296 
L 468.440303 189.684717 
L 478.724773 178.542038 
L 489.009242 162.270189 
L 499.293712 149.535698 
L 509.578182 133.263849 
L 519.862652 117.699472 
L 530.147121 110.624755 
L 540.431591 107.794868 
L 550.716061 104.257509 
L 561.00053 102.842566 
L 571.285 104.257509 
L 581.56947 102.135094 
L 591.853939 98.597736 
L 602.138409 95.060377 
L 612.422879 92.937962 
L 622.707348 90.108075 
L 632.991818 88.693132 
L 643.276288 87.98566 
L 653.560758 88.693132 
L 663.845227 85.155774 
L 674.129697 80.910943 
L 684.414167 80.910943 
L 694.698636 77.373585 
" clip-path="url(#pca4c27d203)" style="fill: none; stroke-dasharray: 7.4,3.2; stroke-dashoffset: 0; stroke: #b00000; stroke-opacity: 0.75; stroke-width: 2"/>
   </g>
   <g id="patch_6">
    <path d="M 435.53 323.22 
L 435.53 42 
" style="fill: none; stroke: #000000; stroke-width: 0.8; stroke-linejoin: miter; stroke-linecap: square"/>
   </g>
   <g id="patch_7">
    <path d="M 435.53 323.22 
L 707.04 323.22 
" style="fill: none; stroke: #000000; stroke-width: 0.8; stroke-linejoin: miter; stroke-linecap: square"/>
   </g>
   <g id="text_22">
    <!-- Acute Pain -->
    <g transform="translate(514.502313 36) scale(0.216 -0.216)">
     <defs>
      <path id="DejaVuSans-74" d="M 1172 4494 
L 1172 3500 
L 2356 3500 
L 2356 3053 
L 1172 3053 
L 1172 1153 
Q 1172 725 1289 603 
Q 1406 481 1766 481 
L 2356 481 
L 2356 0 
L 1766 0 
Q 1100 0 847 248 
Q 594 497 594 1153 
L 594 3053 
L 172 3053 
L 172 3500 
L 594 3500 
L 594 4494 
L 1172 4494 
z
" transform="scale(0.015625)"/>
     </defs>
     <use xlink:href="#DejaVuSans-41"/>
     <use xlink:href="#DejaVuSans-63" x="66.658203"/>
     <use xlink:href="#DejaVuSans-75" x="121.638672"/>
     <use xlink:href="#DejaVuSans-74" x="185.017578"/>
     <use xlink:href="#DejaVuSans-65" x="224.226562"/>
     <use xlink:href="#DejaVuSans-20" x="285.75"/>
     <use xlink:href="#DejaVuSans-50" x="317.537109"/>
     <use xlink:href="#DejaVuSans-61" x="373.339844"/>
     <use xlink:href="#DejaVuSans-69" x="434.619141"/>
     <use xlink:href="#DejaVuSans-6e" x="462.402344"/>
    </g>
   </g>
   <g id="legend_2">
    <g id="line2d_25">
     <path d="M 573.404063 270.555938 
L 591.404063 270.555938 
L 609.404063 270.555938 
" style="fill: none; stroke: #095086; stroke-opacity: 0.75; stroke-width: 3; stroke-linecap: square"/>
    </g>
    <g id="text_23">
     <!-- Reward -->
     <g transform="translate(623.804062 276.855938) scale(0.18 -0.18)">
      <use xlink:href="#DejaVuSans-52"/>
      <use xlink:href="#DejaVuSans-65" x="64.982422"/>
      <use xlink:href="#DejaVuSans-77" x="126.505859"/>
      <use xlink:href="#DejaVuSans-61" x="208.292969"/>
      <use xlink:href="#DejaVuSans-72" x="269.572266"/>
      <use xlink:href="#DejaVuSans-64" x="308.935547"/>
     </g>
    </g>
    <g id="line2d_26">
     <path d="M 573.404063 296.976563 
L 591.404063 296.976563 
L 609.404063 296.976563 
" style="fill: none; stroke: #b00000; stroke-opacity: 0.75; stroke-width: 3; stroke-linecap: square"/>
    </g>
    <g id="text_24">
     <!-- Punish -->
     <g transform="translate(623.804062 303.276563) scale(0.18 -0.18)">
      <use xlink:href="#DejaVuSans-50"/>
      <use xlink:href="#DejaVuSans-75" x="58.552734"/>
      <use xlink:href="#DejaVuSans-6e" x="121.931641"/>
      <use xlink:href="#DejaVuSans-69" x="185.310547"/>
      <use xlink:href="#DejaVuSans-73" x="213.09375"/>
      <use xlink:href="#DejaVuSans-68" x="265.193359"/>
     </g>
    </g>
   </g>
  </g>
  <g id="axes_3">
   <g id="patch_8">
    <path d="M 789.05 323.22 
L 1060.56 323.22 
L 1060.56 42 
L 789.05 42 
z
" style="fill: #ffffff"/>
   </g>
   <g id="PolyCollection_5">
    <path d="M 801.391364 183.475292 
L 801.391364 245.039237 
L 811.675833 233.89699 
L 821.960303 227.007402 
L 832.244773 206.535333 
L 842.529242 194.36022 
L 852.813712 182.997465 
L 863.098182 175.414879 
L 873.382652 163.737947 
L 883.667121 159.891809 
L 893.951591 153.68033 
L 904.236061 150.88264 
L 914.52053 143.405236 
L 924.805 142.733166 
L 935.08947 134.53735 
L 945.373939 138.880315 
L 955.658409 132.088779 
L 965.942879 130.274278 
L 976.227348 126.479433 
L 986.511818 129.140392 
L 996.796288 126.649972 
L 1007.080758 125.447543 
L 1017.365227 114.570599 
L 1027.649697 123.051045 
L 1037.934167 104.960728 
L 1037.934167 65.568503 
L 1037.934167 65.568503 
L 1027.649697 71.514083 
L 1017.365227 81.917401 
L 1007.080758 76.809072 
L 996.796288 78.490951 
L 986.511818 88.499198 
L 976.227348 79.622926 
L 965.942879 85.44244 
L 955.658409 85.550811 
L 945.373939 81.643583 
L 935.08947 90.793727 
L 924.805 93.173706 
L 914.52053 93.463072 
L 904.236061 100.407206 
L 893.951591 101.45526 
L 883.667121 105.819576 
L 873.382652 113.510668 
L 863.098182 118.178147 
L 852.813712 125.017099 
L 842.529242 135.767369 
L 832.244773 146.666718 
L 821.960303 166.574957 
L 811.675833 173.385831 
L 801.391364 183.475292 
z
" clip-path="url(#p444f401251)" style="fill: #095086; fill-opacity: 0.1"/>
   </g>
   <g id="PolyCollection_6">
    <path d="M 801.391364 168.646497 
L 801.391364 229.422562 
L 811.675833 225.848408 
L 821.960303 218.365048 
L 832.244773 206.403461 
L 842.529242 196.120174 
L 852.813712 194.197302 
L 863.098182 186.137885 
L 873.382652 174.595267 
L 883.667121 159.929663 
L 893.951591 148.349523 
L 904.236061 141.884267 
L 914.52053 131.286612 
L 924.805 132.523771 
L 935.08947 132.737697 
L 945.373939 133.004489 
L 955.658409 128.723753 
L 965.942879 129.85339 
L 976.227348 124.711136 
L 986.511818 128.832124 
L 996.796288 124.315701 
L 1007.080758 130.451608 
L 1017.365227 121.671783 
L 1027.649697 124.157901 
L 1037.934167 117.93626 
L 1037.934167 73.424082 
L 1037.934167 73.424082 
L 1027.649697 80.021587 
L 1017.365227 81.546268 
L 1007.080758 78.535058 
L 996.796288 82.748094 
L 986.511818 84.000286 
L 976.227348 81.391223 
L 965.942879 81.056149 
L 955.658409 82.185785 
L 945.373939 83.673664 
L 935.08947 83.940456 
L 924.805 83.192946 
L 914.52053 84.430106 
L 904.236061 88.253989 
L 893.951591 97.171708 
L 883.667121 107.704593 
L 873.382652 120.92063 
L 863.098182 133.41391 
L 852.813712 142.660339 
L 842.529242 144.583211 
L 832.244773 148.721462 
L 821.960303 163.68008 
L 811.675833 165.811079 
L 801.391364 168.646497 
z
" clip-path="url(#p444f401251)" style="fill: #b00000; fill-opacity: 0.1"/>
   </g>
   <g id="matplotlib.axis_5">
    <g id="xtick_7">
     <g id="line2d_27">
      <g>
       <use xlink:href="#m3e486c12b5" x="801.391364" y="323.22" style="stroke: #000000; stroke-width: 0.8"/>
      </g>
     </g>
     <g id="text_25">
      <!-- 0 -->
      <g transform="translate(795.665114 343.897188) scale(0.18 -0.18)">
       <use xlink:href="#DejaVuSans-30"/>
      </g>
     </g>
    </g>
    <g id="xtick_8">
     <g id="line2d_28">
      <g>
       <use xlink:href="#m3e486c12b5" x="904.236061" y="323.22" style="stroke: #000000; stroke-width: 0.8"/>
      </g>
     </g>
     <g id="text_26">
      <!-- 10 -->
      <g transform="translate(892.783561 343.897188) scale(0.18 -0.18)">
       <use xlink:href="#DejaVuSans-31"/>
       <use xlink:href="#DejaVuSans-30" x="63.623047"/>
      </g>
     </g>
    </g>
    <g id="xtick_9">
     <g id="line2d_29">
      <g>
       <use xlink:href="#m3e486c12b5" x="1007.080758" y="323.22" style="stroke: #000000; stroke-width: 0.8"/>
      </g>
     </g>
     <g id="text_27">
      <!-- 20 -->
      <g transform="translate(995.628258 343.897188) scale(0.18 -0.18)">
       <use xlink:href="#DejaVuSans-32"/>
       <use xlink:href="#DejaVuSans-30" x="63.623047"/>
      </g>
     </g>
    </g>
    <g id="text_28">
     <!-- Trial -->
     <g transform="translate(906.419688 365.317813) scale(0.18 -0.18)">
      <use xlink:href="#DejaVuSans-54"/>
      <use xlink:href="#DejaVuSans-72" x="46.333984"/>
      <use xlink:href="#DejaVuSans-69" x="87.447266"/>
      <use xlink:href="#DejaVuSans-61" x="115.230469"/>
      <use xlink:href="#DejaVuSans-6c" x="176.509766"/>
     </g>
    </g>
   </g>
   <g id="matplotlib.axis_6">
    <g id="ytick_9">
     <g id="line2d_30">
      <g>
       <use xlink:href="#m1e31430b56" x="789.05" y="266.976" style="stroke: #000000; stroke-width: 0.8"/>
      </g>
     </g>
     <g id="text_29">
      <!-- 40 -->
      <g transform="translate(759.145 273.814594) scale(0.18 -0.18)">
       <use xlink:href="#DejaVuSans-34"/>
       <use xlink:href="#DejaVuSans-30" x="63.623047"/>
      </g>
     </g>
    </g>
    <g id="ytick_10">
     <g id="line2d_31">
      <g>
       <use xlink:href="#m1e31430b56" x="789.05" y="191.984" style="stroke: #000000; stroke-width: 0.8"/>
      </g>
     </g>
     <g id="text_30">
      <!-- 60 -->
      <g transform="translate(759.145 198.822594) scale(0.18 -0.18)">
       <use xlink:href="#DejaVuSans-36"/>
       <use xlink:href="#DejaVuSans-30" x="63.623047"/>
      </g>
     </g>
    </g>
    <g id="ytick_11">
     <g id="line2d_32">
      <g>
       <use xlink:href="#m1e31430b56" x="789.05" y="116.992" style="stroke: #000000; stroke-width: 0.8"/>
      </g>
     </g>
     <g id="text_31">
      <!-- 80 -->
      <g transform="translate(759.145 123.830594) scale(0.18 -0.18)">
       <use xlink:href="#DejaVuSans-38"/>
       <use xlink:href="#DejaVuSans-30" x="63.623047"/>
      </g>
     </g>
    </g>
    <g id="ytick_12">
     <g id="line2d_33">
      <g>
       <use xlink:href="#m1e31430b56" x="789.05" y="42" style="stroke: #000000; stroke-width: 0.8"/>
      </g>
     </g>
     <g id="text_32">
      <!-- 100 -->
      <g transform="translate(747.6925 48.838594) scale(0.18 -0.18)">
       <use xlink:href="#DejaVuSans-31"/>
       <use xlink:href="#DejaVuSans-30" x="63.623047"/>
       <use xlink:href="#DejaVuSans-30" x="127.246094"/>
      </g>
     </g>
    </g>
    <g id="text_33">
     <!-- Accuracy (%) -->
     <g transform="translate(739.949063 242.135156) rotate(-90) scale(0.18 -0.18)">
      <use xlink:href="#DejaVuSans-41"/>
      <use xlink:href="#DejaVuSans-63" x="66.658203"/>
      <use xlink:href="#DejaVuSans-63" x="121.638672"/>
      <use xlink:href="#DejaVuSans-75" x="176.619141"/>
      <use xlink:href="#DejaVuSans-72" x="239.998047"/>
      <use xlink:href="#DejaVuSans-61" x="281.111328"/>
      <use xlink:href="#DejaVuSans-63" x="342.390625"/>
      <use xlink:href="#DejaVuSans-79" x="397.371094"/>
      <use xlink:href="#DejaVuSans-20" x="456.550781"/>
      <use xlink:href="#DejaVuSans-28" x="488.337891"/>
      <use xlink:href="#DejaVuSans-25" x="527.351562"/>
      <use xlink:href="#DejaVuSans-29" x="622.371094"/>
     </g>
    </g>
   </g>
   <g id="line2d_34">
    <path d="M 801.391364 214.257265 
L 811.675833 203.64141 
L 821.960303 196.791179 
L 832.244773 176.601026 
L 842.529242 165.063795 
L 852.813712 154.007282 
L 863.098182 146.796513 
L 873.382652 138.624308 
L 883.667121 132.855692 
L 893.951591 127.567795 
L 904.236061 125.644923 
L 914.52053 118.434154 
L 924.805 117.953436 
L 935.08947 112.665538 
L 945.373939 110.261949 
L 955.658409 108.819795 
L 965.942879 107.858359 
L 976.227348 103.051179 
L 986.511818 108.819795 
L 996.796288 102.570462 
L 1007.080758 101.128308 
L 1017.365227 98.244 
L 1027.649697 97.282564 
L 1037.934167 85.264615 
" clip-path="url(#p444f401251)" style="fill: none; stroke: #095086; stroke-opacity: 0.75; stroke-width: 3; stroke-linecap: square"/>
   </g>
   <g id="line2d_35">
    <path d="M 811.675833 199.835726 
L 821.960303 188.018077 
L 832.244773 179.004615 
L 842.529242 161.218051 
L 852.813712 141.508615 
L 863.098182 128.048513 
L 873.382652 120.837744 
L 883.667121 112.665538 
L 893.951591 106.416205 
L 904.236061 106.416205 
L 914.52053 100.64759 
L 924.805 96.801846 
L 935.08947 93.436821 
L 945.373939 92.475385 
L 955.658409 85.264615 
L 965.942879 87.187487 
L 976.227348 84.783897 
L 986.511818 83.341744 
L 996.796288 78.053846 
L 1007.080758 80.938154 
L 1017.365227 78.053846 
L 1027.649697 76.130974 
L 1037.934167 75.650256 
L 1048.218636 77.25265 
" clip-path="url(#p444f401251)" style="fill: none; stroke-dasharray: 7.4,3.2; stroke-dashoffset: 0; stroke: #095086; stroke-opacity: 0.75; stroke-width: 2"/>
   </g>
   <g id="line2d_36">
    <path d="M 801.391364 199.03453 
L 811.675833 195.829744 
L 821.960303 191.022564 
L 832.244773 177.562462 
L 842.529242 170.351692 
L 852.813712 168.428821 
L 863.098182 159.775897 
L 873.382652 147.757949 
L 883.667121 133.817128 
L 893.951591 122.760615 
L 904.236061 115.069128 
L 914.52053 107.858359 
L 924.805 107.858359 
L 935.08947 108.339077 
L 945.373939 108.339077 
L 955.658409 105.454769 
L 965.942879 105.454769 
L 976.227348 103.051179 
L 986.511818 106.416205 
L 996.796288 103.531897 
L 1007.080758 104.493333 
L 1017.365227 101.609026 
L 1027.649697 102.089744 
L 1037.934167 95.680171 
" clip-path="url(#p444f401251)" style="fill: none; stroke: #b00000; stroke-opacity: 0.75; stroke-width: 3; stroke-linecap: square"/>
   </g>
   <g id="line2d_37">
    <path d="M 811.675833 206.245299 
L 821.960303 196.430641 
L 832.244773 191.022564 
L 842.529242 169.390256 
L 852.813712 154.007282 
L 863.098182 141.989333 
L 873.382652 128.529231 
L 883.667121 117.472718 
L 893.951591 109.300513 
L 904.236061 100.64759 
L 914.52053 95.359692 
L 924.805 96.801846 
L 935.08947 92.956103 
L 945.373939 92.475385 
L 955.658409 93.436821 
L 965.942879 92.956103 
L 976.227348 87.668205 
L 986.511818 86.706769 
L 996.796288 83.822462 
L 1007.080758 80.938154 
L 1017.365227 77.573128 
L 1027.649697 75.169538 
L 1037.934167 71.443974 
L 1048.218636 68.439487 
" clip-path="url(#p444f401251)" style="fill: none; stroke-dasharray: 7.4,3.2; stroke-dashoffset: 0; stroke: #b00000; stroke-opacity: 0.75; stroke-width: 2"/>
   </g>
   <g id="patch_9">
    <path d="M 789.05 323.22 
L 789.05 42 
" style="fill: none; stroke: #000000; stroke-width: 0.8; stroke-linejoin: miter; stroke-linecap: square"/>
   </g>
   <g id="patch_10">
    <path d="M 789.05 323.22 
L 1060.56 323.22 
" style="fill: none; stroke: #000000; stroke-width: 0.8; stroke-linejoin: miter; stroke-linecap: square"/>
   </g>
   <g id="text_34">
    <!-- Chronic Pain -->
    <g transform="translate(857.909125 36) scale(0.216 -0.216)">
     <defs>
      <path id="DejaVuSans-43" d="M 4122 4306 
L 4122 3641 
Q 3803 3938 3442 4084 
Q 3081 4231 2675 4231 
Q 1875 4231 1450 3742 
Q 1025 3253 1025 2328 
Q 1025 1406 1450 917 
Q 1875 428 2675 428 
Q 3081 428 3442 575 
Q 3803 722 4122 1019 
L 4122 359 
Q 3791 134 3420 21 
Q 3050 -91 2638 -91 
Q 1578 -91 968 557 
Q 359 1206 359 2328 
Q 359 3453 968 4101 
Q 1578 4750 2638 4750 
Q 3056 4750 3426 4639 
Q 3797 4528 4122 4306 
z
" transform="scale(0.015625)"/>
     </defs>
     <use xlink:href="#DejaVuSans-43"/>
     <use xlink:href="#DejaVuSans-68" x="69.824219"/>
     <use xlink:href="#DejaVuSans-72" x="133.203125"/>
     <use xlink:href="#DejaVuSans-6f" x="172.066406"/>
     <use xlink:href="#DejaVuSans-6e" x="233.248047"/>
     <use xlink:href="#DejaVuSans-69" x="296.626953"/>
     <use xlink:href="#DejaVuSans-63" x="324.410156"/>
     <use xlink:href="#DejaVuSans-20" x="379.390625"/>
     <use xlink:href="#DejaVuSans-50" x="411.177734"/>
     <use xlink:href="#DejaVuSans-61" x="466.980469"/>
     <use xlink:href="#DejaVuSans-69" x="528.259766"/>
     <use xlink:href="#DejaVuSans-6e" x="556.042969"/>
    </g>
   </g>
   <g id="legend_3">
    <g id="line2d_38">
     <path d="M 926.924062 270.555938 
L 944.924062 270.555938 
L 962.924062 270.555938 
" style="fill: none; stroke: #095086; stroke-opacity: 0.75; stroke-width: 3; stroke-linecap: square"/>
    </g>
    <g id="text_35">
     <!-- Reward -->
     <g transform="translate(977.324062 276.855938) scale(0.18 -0.18)">
      <use xlink:href="#DejaVuSans-52"/>
      <use xlink:href="#DejaVuSans-65" x="64.982422"/>
      <use xlink:href="#DejaVuSans-77" x="126.505859"/>
      <use xlink:href="#DejaVuSans-61" x="208.292969"/>
      <use xlink:href="#DejaVuSans-72" x="269.572266"/>
      <use xlink:href="#DejaVuSans-64" x="308.935547"/>
     </g>
    </g>
    <g id="line2d_39">
     <path d="M 926.924062 296.976563 
L 944.924062 296.976563 
L 962.924062 296.976563 
" style="fill: none; stroke: #b00000; stroke-opacity: 0.75; stroke-width: 3; stroke-linecap: square"/>
    </g>
    <g id="text_36">
     <!-- Punish -->
     <g transform="translate(977.324062 303.276563) scale(0.18 -0.18)">
      <use xlink:href="#DejaVuSans-50"/>
      <use xlink:href="#DejaVuSans-75" x="58.552734"/>
      <use xlink:href="#DejaVuSans-6e" x="121.931641"/>
      <use xlink:href="#DejaVuSans-69" x="185.310547"/>
      <use xlink:href="#DejaVuSans-73" x="213.09375"/>
      <use xlink:href="#DejaVuSans-68" x="265.193359"/>
     </g>
    </g>
   </g>
  </g>
  <g id="axes_4">
   <g id="patch_11">
    <path d="M 82.01 676.28 
L 353.52 676.28 
L 353.52 395.06 
L 82.01 395.06 
z
" style="fill: #ffffff"/>
   </g>
   <g id="patch_12">
    <path d="M 94.351364 676.28 
L 135.489242 676.28 
L 135.489242 428.650167 
L 94.351364 428.650167 
z
" clip-path="url(#p17f9fd1f56)" style="fill: #095086; opacity: 0.75"/>
   </g>
   <g id="patch_13">
    <path d="M 145.773712 676.28 
L 186.911591 676.28 
L 186.911591 525.788242 
L 145.773712 525.788242 
z
" clip-path="url(#p17f9fd1f56)" style="fill: #9bd2f2; opacity: 0.75"/>
   </g>
   <g id="patch_14">
    <path d="M 197.196061 676.28 
L 238.333939 676.28 
L 238.333939 533.430656 
L 197.196061 533.430656 
z
" clip-path="url(#p17f9fd1f56)" style="fill: #eca6a6; opacity: 0.75"/>
   </g>
   <g id="patch_15">
    <path d="M 248.618409 676.28 
L 289.756288 676.28 
L 289.756288 639.317797 
L 248.618409 639.317797 
z
" clip-path="url(#p17f9fd1f56)" style="fill: #b00000; opacity: 0.75"/>
   </g>
   <g id="patch_16">
    <path d="M 300.040758 676.28 
L 341.178636 676.28 
L 341.178636 572.723339 
L 300.040758 572.723339 
z
" clip-path="url(#p17f9fd1f56)" style="fill: #d3d3d3; opacity: 0.75"/>
   </g>
   <g id="PathCollection_1">
    <defs>
     <path id="mf0ac30f179" d="M -0 4.242641 
L 4.242641 0 
L 0 -4.242641 
L -4.242641 -0 
z
" style="stroke: #808080; stroke-opacity: 0.75"/>
    </defs>
    <g clip-path="url(#p17f9fd1f56)">
     <use xlink:href="#mf0ac30f179" x="114.920303" y="434.4308" style="fill: #808080; fill-opacity: 0.75; stroke: #808080; stroke-opacity: 0.75"/>
     <use xlink:href="#mf0ac30f179" x="166.342652" y="511.7663" style="fill: #808080; fill-opacity: 0.75; stroke: #808080; stroke-opacity: 0.75"/>
     <use xlink:href="#mf0ac30f179" x="217.765" y="544.1066" style="fill: #808080; fill-opacity: 0.75; stroke: #808080; stroke-opacity: 0.75"/>
     <use xlink:href="#mf0ac30f179" x="269.187348" y="639.7214" style="fill: #808080; fill-opacity: 0.75; stroke: #808080; stroke-opacity: 0.75"/>
     <use xlink:href="#mf0ac30f179" x="320.609697" y="572.2286" style="fill: #808080; fill-opacity: 0.75; stroke: #808080; stroke-opacity: 0.75"/>
    </g>
   </g>
   <g id="matplotlib.axis_7">
    <g id="xtick_10">
     <g id="line2d_40">
      <g>
       <use xlink:href="#m3e486c12b5" x="114.920303" y="676.28" style="stroke: #000000; stroke-width: 0.8"/>
      </g>
     </g>
     <g id="text_37">
      <!-- HR -->
      <g transform="translate(101.898428 696.957188) scale(0.18 -0.18)">
       <defs>
        <path id="DejaVuSans-48" d="M 628 4666 
L 1259 4666 
L 1259 2753 
L 3553 2753 
L 3553 4666 
L 4184 4666 
L 4184 0 
L 3553 0 
L 3553 2222 
L 1259 2222 
L 1259 0 
L 628 0 
L 628 4666 
z
" transform="scale(0.015625)"/>
       </defs>
       <use xlink:href="#DejaVuSans-48"/>
       <use xlink:href="#DejaVuSans-52" x="75.195312"/>
      </g>
     </g>
    </g>
    <g id="xtick_11">
     <g id="line2d_41">
      <g>
       <use xlink:href="#m3e486c12b5" x="166.342652" y="676.28" style="stroke: #000000; stroke-width: 0.8"/>
      </g>
     </g>
     <g id="text_38">
      <!-- LR -->
      <g transform="translate(155.07437 696.957188) scale(0.18 -0.18)">
       <defs>
        <path id="DejaVuSans-4c" d="M 628 4666 
L 1259 4666 
L 1259 531 
L 3531 531 
L 3531 0 
L 628 0 
L 628 4666 
z
" transform="scale(0.015625)"/>
       </defs>
       <use xlink:href="#DejaVuSans-4c"/>
       <use xlink:href="#DejaVuSans-52" x="55.712891"/>
      </g>
     </g>
    </g>
    <g id="xtick_12">
     <g id="line2d_42">
      <g>
       <use xlink:href="#m3e486c12b5" x="217.765" y="676.28" style="stroke: #000000; stroke-width: 0.8"/>
      </g>
     </g>
     <g id="text_39">
      <!-- LP -->
      <g transform="translate(207.323594 696.957188) scale(0.18 -0.18)">
       <use xlink:href="#DejaVuSans-4c"/>
       <use xlink:href="#DejaVuSans-50" x="55.712891"/>
      </g>
     </g>
    </g>
    <g id="xtick_13">
     <g id="line2d_43">
      <g>
       <use xlink:href="#m3e486c12b5" x="269.187348" y="676.28" style="stroke: #000000; stroke-width: 0.8"/>
      </g>
     </g>
     <g id="text_40">
      <!-- HP -->
      <g transform="translate(256.992348 696.957188) scale(0.18 -0.18)">
       <use xlink:href="#DejaVuSans-48"/>
       <use xlink:href="#DejaVuSans-50" x="75.195312"/>
      </g>
     </g>
    </g>
    <g id="xtick_14">
     <g id="line2d_44">
      <g>
       <use xlink:href="#m3e486c12b5" x="320.609697" y="676.28" style="stroke: #000000; stroke-width: 0.8"/>
      </g>
     </g>
     <g id="text_41">
      <!-- N -->
      <g transform="translate(313.876572 696.957188) scale(0.18 -0.18)">
       <use xlink:href="#DejaVuSans-4e"/>
      </g>
     </g>
    </g>
   </g>
   <g id="matplotlib.axis_8">
    <g id="ytick_13">
     <g id="line2d_45">
      <g>
       <use xlink:href="#m1e31430b56" x="82.01" y="676.28" style="stroke: #000000; stroke-width: 0.8"/>
      </g>
     </g>
     <g id="text_42">
      <!-- 0 -->
      <g transform="translate(63.5575 683.118594) scale(0.18 -0.18)">
       <use xlink:href="#DejaVuSans-30"/>
      </g>
     </g>
    </g>
    <g id="ytick_14">
     <g id="line2d_46">
      <g>
       <use xlink:href="#m1e31430b56" x="82.01" y="620.036" style="stroke: #000000; stroke-width: 0.8"/>
      </g>
     </g>
     <g id="text_43">
      <!-- 20 -->
      <g transform="translate(52.105 626.874594) scale(0.18 -0.18)">
       <use xlink:href="#DejaVuSans-32"/>
       <use xlink:href="#DejaVuSans-30" x="63.623047"/>
      </g>
     </g>
    </g>
    <g id="ytick_15">
     <g id="line2d_47">
      <g>
       <use xlink:href="#m1e31430b56" x="82.01" y="563.792" style="stroke: #000000; stroke-width: 0.8"/>
      </g>
     </g>
     <g id="text_44">
      <!-- 40 -->
      <g transform="translate(52.105 570.630594) scale(0.18 -0.18)">
       <use xlink:href="#DejaVuSans-34"/>
       <use xlink:href="#DejaVuSans-30" x="63.623047"/>
      </g>
     </g>
    </g>
    <g id="ytick_16">
     <g id="line2d_48">
      <g>
       <use xlink:href="#m1e31430b56" x="82.01" y="507.548" style="stroke: #000000; stroke-width: 0.8"/>
      </g>
     </g>
     <g id="text_45">
      <!-- 60 -->
      <g transform="translate(52.105 514.386594) scale(0.18 -0.18)">
       <use xlink:href="#DejaVuSans-36"/>
       <use xlink:href="#DejaVuSans-30" x="63.623047"/>
      </g>
     </g>
    </g>
    <g id="ytick_17">
     <g id="line2d_49">
      <g>
       <use xlink:href="#m1e31430b56" x="82.01" y="451.304" style="stroke: #000000; stroke-width: 0.8"/>
      </g>
     </g>
     <g id="text_46">
      <!-- 80 -->
      <g transform="translate(52.105 458.142594) scale(0.18 -0.18)">
       <use xlink:href="#DejaVuSans-38"/>
       <use xlink:href="#DejaVuSans-30" x="63.623047"/>
      </g>
     </g>
    </g>
    <g id="ytick_18">
     <g id="line2d_50">
      <g>
       <use xlink:href="#m1e31430b56" x="82.01" y="395.06" style="stroke: #000000; stroke-width: 0.8"/>
      </g>
     </g>
     <g id="text_47">
      <!-- 100 -->
      <g transform="translate(40.6525 401.898594) scale(0.18 -0.18)">
       <use xlink:href="#DejaVuSans-31"/>
       <use xlink:href="#DejaVuSans-30" x="63.623047"/>
       <use xlink:href="#DejaVuSans-30" x="127.246094"/>
      </g>
     </g>
    </g>
    <g id="text_48">
     <!-- Choice Rate (%) -->
     <g transform="translate(32.909063 608.079219) rotate(-90) scale(0.18 -0.18)">
      <use xlink:href="#DejaVuSans-43"/>
      <use xlink:href="#DejaVuSans-68" x="69.824219"/>
      <use xlink:href="#DejaVuSans-6f" x="133.203125"/>
      <use xlink:href="#DejaVuSans-69" x="194.384766"/>
      <use xlink:href="#DejaVuSans-63" x="222.167969"/>
      <use xlink:href="#DejaVuSans-65" x="277.148438"/>
      <use xlink:href="#DejaVuSans-20" x="338.671875"/>
      <use xlink:href="#DejaVuSans-52" x="370.458984"/>
      <use xlink:href="#DejaVuSans-61" x="437.691406"/>
      <use xlink:href="#DejaVuSans-74" x="498.970703"/>
      <use xlink:href="#DejaVuSans-65" x="538.179688"/>
      <use xlink:href="#DejaVuSans-20" x="599.703125"/>
      <use xlink:href="#DejaVuSans-28" x="631.490234"/>
      <use xlink:href="#DejaVuSans-25" x="670.503906"/>
      <use xlink:href="#DejaVuSans-29" x="765.523438"/>
     </g>
    </g>
   </g>
   <g id="LineCollection_1">
    <path d="M 114.920303 435.078296 
L 114.920303 422.222038 
" clip-path="url(#p17f9fd1f56)" style="fill: none; stroke: #696969; stroke-width: 1.5"/>
    <path d="M 166.342652 533.326159 
L 166.342652 518.250325 
" clip-path="url(#p17f9fd1f56)" style="fill: none; stroke: #696969; stroke-width: 1.5"/>
    <path d="M 217.765 541.12759 
L 217.765 525.733721 
" clip-path="url(#p17f9fd1f56)" style="fill: none; stroke: #696969; stroke-width: 1.5"/>
    <path d="M 269.187348 645.630325 
L 269.187348 633.00527 
" clip-path="url(#p17f9fd1f56)" style="fill: none; stroke: #696969; stroke-width: 1.5"/>
    <path d="M 320.609697 583.473402 
L 320.609697 561.973275 
" clip-path="url(#p17f9fd1f56)" style="fill: none; stroke: #696969; stroke-width: 1.5"/>
   </g>
   <g id="line2d_51">
    <defs>
     <path id="m1af0ddb2cb" d="M 5 0 
L -5 -0 
" style="stroke: #696969"/>
    </defs>
    <g clip-path="url(#p17f9fd1f56)">
     <use xlink:href="#m1af0ddb2cb" x="114.920303" y="435.078296" style="fill: #696969; stroke: #696969"/>
     <use xlink:href="#m1af0ddb2cb" x="166.342652" y="533.326159" style="fill: #696969; stroke: #696969"/>
     <use xlink:href="#m1af0ddb2cb" x="217.765" y="541.12759" style="fill: #696969; stroke: #696969"/>
     <use xlink:href="#m1af0ddb2cb" x="269.187348" y="645.630325" style="fill: #696969; stroke: #696969"/>
     <use xlink:href="#m1af0ddb2cb" x="320.609697" y="583.473402" style="fill: #696969; stroke: #696969"/>
    </g>
   </g>
   <g id="line2d_52">
    <g clip-path="url(#p17f9fd1f56)">
     <use xlink:href="#m1af0ddb2cb" x="114.920303" y="422.222038" style="fill: #696969; stroke: #696969"/>
     <use xlink:href="#m1af0ddb2cb" x="166.342652" y="518.250325" style="fill: #696969; stroke: #696969"/>
     <use xlink:href="#m1af0ddb2cb" x="217.765" y="525.733721" style="fill: #696969; stroke: #696969"/>
     <use xlink:href="#m1af0ddb2cb" x="269.187348" y="633.00527" style="fill: #696969; stroke: #696969"/>
     <use xlink:href="#m1af0ddb2cb" x="320.609697" y="561.973275" style="fill: #696969; stroke: #696969"/>
    </g>
   </g>
   <g id="LineCollection_2">
    <path d="M 114.920303 435.078296 
L 114.920303 422.222038 
" clip-path="url(#p17f9fd1f56)" style="fill: none; stroke: #808080; stroke-width: 1.5"/>
    <path d="M 166.342652 533.326159 
L 166.342652 518.250325 
" clip-path="url(#p17f9fd1f56)" style="fill: none; stroke: #808080; stroke-width: 1.5"/>
    <path d="M 217.765 541.12759 
L 217.765 525.733721 
" clip-path="url(#p17f9fd1f56)" style="fill: none; stroke: #808080; stroke-width: 1.5"/>
    <path d="M 269.187348 645.630325 
L 269.187348 633.00527 
" clip-path="url(#p17f9fd1f56)" style="fill: none; stroke: #808080; stroke-width: 1.5"/>
    <path d="M 320.609697 583.473402 
L 320.609697 561.973275 
" clip-path="url(#p17f9fd1f56)" style="fill: none; stroke: #808080; stroke-width: 1.5"/>
   </g>
   <g id="line2d_53">
    <defs>
     <path id="m7a26df36e2" d="M 0 1.5 
C 0.397805 1.5 0.77937 1.341951 1.06066 1.06066 
C 1.341951 0.77937 1.5 0.397805 1.5 0 
C 1.5 -0.397805 1.341951 -0.77937 1.06066 -1.06066 
C 0.77937 -1.341951 0.397805 -1.5 0 -1.5 
C -0.397805 -1.5 -0.77937 -1.341951 -1.06066 -1.06066 
C -1.341951 -0.77937 -1.5 -0.397805 -1.5 0 
C -1.5 0.397805 -1.341951 0.77937 -1.06066 1.06066 
C -0.77937 1.341951 -0.397805 1.5 0 1.5 
z
" style="stroke: #808080"/>
    </defs>
    <g clip-path="url(#p17f9fd1f56)">
     <use xlink:href="#m7a26df36e2" x="114.920303" y="428.650167" style="fill: #808080; stroke: #808080"/>
     <use xlink:href="#m7a26df36e2" x="166.342652" y="525.788242" style="fill: #808080; stroke: #808080"/>
     <use xlink:href="#m7a26df36e2" x="217.765" y="533.430656" style="fill: #808080; stroke: #808080"/>
     <use xlink:href="#m7a26df36e2" x="269.187348" y="639.317797" style="fill: #808080; stroke: #808080"/>
     <use xlink:href="#m7a26df36e2" x="320.609697" y="572.723339" style="fill: #808080; stroke: #808080"/>
    </g>
   </g>
   <g id="patch_17">
    <path d="M 82.01 676.28 
L 82.01 395.06 
" style="fill: none; stroke: #000000; stroke-width: 0.8; stroke-linejoin: miter; stroke-linecap: square"/>
   </g>
   <g id="patch_18">
    <path d="M 82.01 676.28 
L 353.52 676.28 
" style="fill: none; stroke: #000000; stroke-width: 0.8; stroke-linejoin: miter; stroke-linecap: square"/>
   </g>
  </g>
  <g id="axes_5">
   <g id="patch_19">
    <path d="M 435.53 676.28 
L 707.04 676.28 
L 707.04 395.06 
L 435.53 395.06 
z
" style="fill: #ffffff"/>
   </g>
   <g id="patch_20">
    <path d="M 447.871364 676.28 
L 489.009242 676.28 
L 489.009242 434.643042 
L 447.871364 434.643042 
z
" clip-path="url(#pf4893757b2)" style="fill: #095086; opacity: 0.75"/>
   </g>
   <g id="patch_21">
    <path d="M 499.293712 676.28 
L 540.431591 676.28 
L 540.431591 524.580381 
L 499.293712 524.580381 
z
" clip-path="url(#pf4893757b2)" style="fill: #9bd2f2; opacity: 0.75"/>
   </g>
   <g id="patch_22">
    <path d="M 550.716061 676.28 
L 591.853939 676.28 
L 591.853939 526.437494 
L 550.716061 526.437494 
z
" clip-path="url(#pf4893757b2)" style="fill: #eca6a6; opacity: 0.75"/>
   </g>
   <g id="patch_23">
    <path d="M 602.138409 676.28 
L 643.276288 676.28 
L 643.276288 630.913377 
L 602.138409 630.913377 
z
" clip-path="url(#pf4893757b2)" style="fill: #b00000; opacity: 0.75"/>
   </g>
   <g id="patch_24">
    <path d="M 653.560758 676.28 
L 694.698636 676.28 
L 694.698636 592.126242 
L 653.560758 592.126242 
z
" clip-path="url(#pf4893757b2)" style="fill: #d3d3d3; opacity: 0.75"/>
   </g>
   <g id="PathCollection_2">
    <g clip-path="url(#pf4893757b2)">
     <use xlink:href="#mf0ac30f179" x="468.440303" y="435.8369" style="fill: #808080; fill-opacity: 0.75; stroke: #808080; stroke-opacity: 0.75"/>
     <use xlink:href="#mf0ac30f179" x="519.862652" y="520.2029" style="fill: #808080; fill-opacity: 0.75; stroke: #808080; stroke-opacity: 0.75"/>
     <use xlink:href="#mf0ac30f179" x="571.285" y="531.4517" style="fill: #808080; fill-opacity: 0.75; stroke: #808080; stroke-opacity: 0.75"/>
     <use xlink:href="#mf0ac30f179" x="622.707348" y="627.0665" style="fill: #808080; fill-opacity: 0.75; stroke: #808080; stroke-opacity: 0.75"/>
     <use xlink:href="#mf0ac30f179" x="674.129697" y="594.7262" style="fill: #808080; fill-opacity: 0.75; stroke: #808080; stroke-opacity: 0.75"/>
    </g>
   </g>
   <g id="matplotlib.axis_9">
    <g id="xtick_15">
     <g id="line2d_54">
      <g>
       <use xlink:href="#m3e486c12b5" x="468.440303" y="676.28" style="stroke: #000000; stroke-width: 0.8"/>
      </g>
     </g>
     <g id="text_49">
      <!-- HR -->
      <g transform="translate(455.418428 696.957188) scale(0.18 -0.18)">
       <use xlink:href="#DejaVuSans-48"/>
       <use xlink:href="#DejaVuSans-52" x="75.195312"/>
      </g>
     </g>
    </g>
    <g id="xtick_16">
     <g id="line2d_55">
      <g>
       <use xlink:href="#m3e486c12b5" x="519.862652" y="676.28" style="stroke: #000000; stroke-width: 0.8"/>
      </g>
     </g>
     <g id="text_50">
      <!-- LR -->
      <g transform="translate(508.59437 696.957188) scale(0.18 -0.18)">
       <use xlink:href="#DejaVuSans-4c"/>
       <use xlink:href="#DejaVuSans-52" x="55.712891"/>
      </g>
     </g>
    </g>
    <g id="xtick_17">
     <g id="line2d_56">
      <g>
       <use xlink:href="#m3e486c12b5" x="571.285" y="676.28" style="stroke: #000000; stroke-width: 0.8"/>
      </g>
     </g>
     <g id="text_51">
      <!-- LP -->
      <g transform="translate(560.843594 696.957188) scale(0.18 -0.18)">
       <use xlink:href="#DejaVuSans-4c"/>
       <use xlink:href="#DejaVuSans-50" x="55.712891"/>
      </g>
     </g>
    </g>
    <g id="xtick_18">
     <g id="line2d_57">
      <g>
       <use xlink:href="#m3e486c12b5" x="622.707348" y="676.28" style="stroke: #000000; stroke-width: 0.8"/>
      </g>
     </g>
     <g id="text_52">
      <!-- HP -->
      <g transform="translate(610.512348 696.957188) scale(0.18 -0.18)">
       <use xlink:href="#DejaVuSans-48"/>
       <use xlink:href="#DejaVuSans-50" x="75.195312"/>
      </g>
     </g>
    </g>
    <g id="xtick_19">
     <g id="line2d_58">
      <g>
       <use xlink:href="#m3e486c12b5" x="674.129697" y="676.28" style="stroke: #000000; stroke-width: 0.8"/>
      </g>
     </g>
     <g id="text_53">
      <!-- N -->
      <g transform="translate(667.396572 696.957188) scale(0.18 -0.18)">
       <use xlink:href="#DejaVuSans-4e"/>
      </g>
     </g>
    </g>
   </g>
   <g id="matplotlib.axis_10">
    <g id="ytick_19">
     <g id="line2d_59">
      <g>
       <use xlink:href="#m1e31430b56" x="435.53" y="676.28" style="stroke: #000000; stroke-width: 0.8"/>
      </g>
     </g>
     <g id="text_54">
      <!-- 0 -->
      <g transform="translate(417.0775 683.118594) scale(0.18 -0.18)">
       <use xlink:href="#DejaVuSans-30"/>
      </g>
     </g>
    </g>
    <g id="ytick_20">
     <g id="line2d_60">
      <g>
       <use xlink:href="#m1e31430b56" x="435.53" y="620.036" style="stroke: #000000; stroke-width: 0.8"/>
      </g>
     </g>
     <g id="text_55">
      <!-- 20 -->
      <g transform="translate(405.625 626.874594) scale(0.18 -0.18)">
       <use xlink:href="#DejaVuSans-32"/>
       <use xlink:href="#DejaVuSans-30" x="63.623047"/>
      </g>
     </g>
    </g>
    <g id="ytick_21">
     <g id="line2d_61">
      <g>
       <use xlink:href="#m1e31430b56" x="435.53" y="563.792" style="stroke: #000000; stroke-width: 0.8"/>
      </g>
     </g>
     <g id="text_56">
      <!-- 40 -->
      <g transform="translate(405.625 570.630594) scale(0.18 -0.18)">
       <use xlink:href="#DejaVuSans-34"/>
       <use xlink:href="#DejaVuSans-30" x="63.623047"/>
      </g>
     </g>
    </g>
    <g id="ytick_22">
     <g id="line2d_62">
      <g>
       <use xlink:href="#m1e31430b56" x="435.53" y="507.548" style="stroke: #000000; stroke-width: 0.8"/>
      </g>
     </g>
     <g id="text_57">
      <!-- 60 -->
      <g transform="translate(405.625 514.386594) scale(0.18 -0.18)">
       <use xlink:href="#DejaVuSans-36"/>
       <use xlink:href="#DejaVuSans-30" x="63.623047"/>
      </g>
     </g>
    </g>
    <g id="ytick_23">
     <g id="line2d_63">
      <g>
       <use xlink:href="#m1e31430b56" x="435.53" y="451.304" style="stroke: #000000; stroke-width: 0.8"/>
      </g>
     </g>
     <g id="text_58">
      <!-- 80 -->
      <g transform="translate(405.625 458.142594) scale(0.18 -0.18)">
       <use xlink:href="#DejaVuSans-38"/>
       <use xlink:href="#DejaVuSans-30" x="63.623047"/>
      </g>
     </g>
    </g>
    <g id="ytick_24">
     <g id="line2d_64">
      <g>
       <use xlink:href="#m1e31430b56" x="435.53" y="395.06" style="stroke: #000000; stroke-width: 0.8"/>
      </g>
     </g>
     <g id="text_59">
      <!-- 100 -->
      <g transform="translate(394.1725 401.898594) scale(0.18 -0.18)">
       <use xlink:href="#DejaVuSans-31"/>
       <use xlink:href="#DejaVuSans-30" x="63.623047"/>
       <use xlink:href="#DejaVuSans-30" x="127.246094"/>
      </g>
     </g>
    </g>
    <g id="text_60">
     <!-- Choice Rate (%) -->
     <g transform="translate(386.429063 608.079219) rotate(-90) scale(0.18 -0.18)">
      <use xlink:href="#DejaVuSans-43"/>
      <use xlink:href="#DejaVuSans-68" x="69.824219"/>
      <use xlink:href="#DejaVuSans-6f" x="133.203125"/>
      <use xlink:href="#DejaVuSans-69" x="194.384766"/>
      <use xlink:href="#DejaVuSans-63" x="222.167969"/>
      <use xlink:href="#DejaVuSans-65" x="277.148438"/>
      <use xlink:href="#DejaVuSans-20" x="338.671875"/>
      <use xlink:href="#DejaVuSans-52" x="370.458984"/>
      <use xlink:href="#DejaVuSans-61" x="437.691406"/>
      <use xlink:href="#DejaVuSans-74" x="498.970703"/>
      <use xlink:href="#DejaVuSans-65" x="538.179688"/>
      <use xlink:href="#DejaVuSans-20" x="599.703125"/>
      <use xlink:href="#DejaVuSans-28" x="631.490234"/>
      <use xlink:href="#DejaVuSans-25" x="670.503906"/>
      <use xlink:href="#DejaVuSans-29" x="765.523438"/>
     </g>
    </g>
   </g>
   <g id="LineCollection_3">
    <path d="M 468.440303 443.720385 
L 468.440303 425.565698 
" clip-path="url(#pf4893757b2)" style="fill: none; stroke: #696969; stroke-width: 1.5"/>
    <path d="M 519.862652 535.178238 
L 519.862652 513.982524 
" clip-path="url(#pf4893757b2)" style="fill: none; stroke: #696969; stroke-width: 1.5"/>
    <path d="M 571.285 536.646016 
L 571.285 516.228973 
" clip-path="url(#pf4893757b2)" style="fill: none; stroke: #696969; stroke-width: 1.5"/>
    <path d="M 622.707348 640.094114 
L 622.707348 621.73264 
" clip-path="url(#pf4893757b2)" style="fill: none; stroke: #696969; stroke-width: 1.5"/>
    <path d="M 674.129697 605.591432 
L 674.129697 578.661051 
" clip-path="url(#pf4893757b2)" style="fill: none; stroke: #696969; stroke-width: 1.5"/>
   </g>
   <g id="line2d_65">
    <g clip-path="url(#pf4893757b2)">
     <use xlink:href="#m1af0ddb2cb" x="468.440303" y="443.720385" style="fill: #696969; stroke: #696969"/>
     <use xlink:href="#m1af0ddb2cb" x="519.862652" y="535.178238" style="fill: #696969; stroke: #696969"/>
     <use xlink:href="#m1af0ddb2cb" x="571.285" y="536.646016" style="fill: #696969; stroke: #696969"/>
     <use xlink:href="#m1af0ddb2cb" x="622.707348" y="640.094114" style="fill: #696969; stroke: #696969"/>
     <use xlink:href="#m1af0ddb2cb" x="674.129697" y="605.591432" style="fill: #696969; stroke: #696969"/>
    </g>
   </g>
   <g id="line2d_66">
    <g clip-path="url(#pf4893757b2)">
     <use xlink:href="#m1af0ddb2cb" x="468.440303" y="425.565698" style="fill: #696969; stroke: #696969"/>
     <use xlink:href="#m1af0ddb2cb" x="519.862652" y="513.982524" style="fill: #696969; stroke: #696969"/>
     <use xlink:href="#m1af0ddb2cb" x="571.285" y="516.228973" style="fill: #696969; stroke: #696969"/>
     <use xlink:href="#m1af0ddb2cb" x="622.707348" y="621.73264" style="fill: #696969; stroke: #696969"/>
     <use xlink:href="#m1af0ddb2cb" x="674.129697" y="578.661051" style="fill: #696969; stroke: #696969"/>
    </g>
   </g>
   <g id="LineCollection_4">
    <path d="M 468.440303 443.720385 
L 468.440303 425.565698 
" clip-path="url(#pf4893757b2)" style="fill: none; stroke: #808080; stroke-width: 1.5"/>
    <path d="M 519.862652 535.178238 
L 519.862652 513.982524 
" clip-path="url(#pf4893757b2)" style="fill: none; stroke: #808080; stroke-width: 1.5"/>
    <path d="M 571.285 536.646016 
L 571.285 516.228973 
" clip-path="url(#pf4893757b2)" style="fill: none; stroke: #808080; stroke-width: 1.5"/>
    <path d="M 622.707348 640.094114 
L 622.707348 621.73264 
" clip-path="url(#pf4893757b2)" style="fill: none; stroke: #808080; stroke-width: 1.5"/>
    <path d="M 674.129697 605.591432 
L 674.129697 578.661051 
" clip-path="url(#pf4893757b2)" style="fill: none; stroke: #808080; stroke-width: 1.5"/>
   </g>
   <g id="line2d_67">
    <g clip-path="url(#pf4893757b2)">
     <use xlink:href="#m7a26df36e2" x="468.440303" y="434.643042" style="fill: #808080; stroke: #808080"/>
     <use xlink:href="#m7a26df36e2" x="519.862652" y="524.580381" style="fill: #808080; stroke: #808080"/>
     <use xlink:href="#m7a26df36e2" x="571.285" y="526.437494" style="fill: #808080; stroke: #808080"/>
     <use xlink:href="#m7a26df36e2" x="622.707348" y="630.913377" style="fill: #808080; stroke: #808080"/>
     <use xlink:href="#m7a26df36e2" x="674.129697" y="592.126242" style="fill: #808080; stroke: #808080"/>
    </g>
   </g>
   <g id="patch_25">
    <path d="M 435.53 676.28 
L 435.53 395.06 
" style="fill: none; stroke: #000000; stroke-width: 0.8; stroke-linejoin: miter; stroke-linecap: square"/>
   </g>
   <g id="patch_26">
    <path d="M 435.53 676.28 
L 707.04 676.28 
" style="fill: none; stroke: #000000; stroke-width: 0.8; stroke-linejoin: miter; stroke-linecap: square"/>
   </g>
  </g>
  <g id="axes_6">
   <g id="patch_27">
    <path d="M 789.05 676.28 
L 1060.56 676.28 
L 1060.56 395.06 
L 789.05 395.06 
z
" style="fill: #ffffff"/>
   </g>
   <g id="patch_28">
    <path d="M 801.391364 676.28 
L 842.529242 676.28 
L 842.529242 432.628108 
L 801.391364 432.628108 
z
" clip-path="url(#pc6c2294f5f)" style="fill: #095086; opacity: 0.75"/>
   </g>
   <g id="patch_29">
    <path d="M 852.813712 676.28 
L 893.951591 676.28 
L 893.951591 541.06005 
L 852.813712 541.06005 
z
" clip-path="url(#pc6c2294f5f)" style="fill: #9bd2f2; opacity: 0.75"/>
   </g>
   <g id="patch_30">
    <path d="M 904.236061 676.28 
L 945.373939 676.28 
L 945.373939 524.367119 
L 904.236061 524.367119 
z
" clip-path="url(#pc6c2294f5f)" style="fill: #eca6a6; opacity: 0.75"/>
   </g>
   <g id="patch_31">
    <path d="M 955.658409 676.28 
L 996.796288 676.28 
L 996.796288 632.059958 
L 955.658409 632.059958 
z
" clip-path="url(#pc6c2294f5f)" style="fill: #b00000; opacity: 0.75"/>
   </g>
   <g id="patch_32">
    <path d="M 1007.080758 676.28 
L 1048.218636 676.28 
L 1048.218636 567.866085 
L 1007.080758 567.866085 
z
" clip-path="url(#pc6c2294f5f)" style="fill: #d3d3d3; opacity: 0.75"/>
   </g>
   <g id="PathCollection_3">
    <g clip-path="url(#pc6c2294f5f)">
     <use xlink:href="#mf0ac30f179" x="821.960303" y="440.0552" style="fill: #808080; fill-opacity: 0.75; stroke: #808080; stroke-opacity: 0.75"/>
     <use xlink:href="#mf0ac30f179" x="873.382652" y="530.0456" style="fill: #808080; fill-opacity: 0.75; stroke: #808080; stroke-opacity: 0.75"/>
     <use xlink:href="#mf0ac30f179" x="924.805" y="531.4517" style="fill: #808080; fill-opacity: 0.75; stroke: #808080; stroke-opacity: 0.75"/>
     <use xlink:href="#mf0ac30f179" x="976.227348" y="629.8787" style="fill: #808080; fill-opacity: 0.75; stroke: #808080; stroke-opacity: 0.75"/>
     <use xlink:href="#mf0ac30f179" x="1027.649697" y="566.6042" style="fill: #808080; fill-opacity: 0.75; stroke: #808080; stroke-opacity: 0.75"/>
    </g>
   </g>
   <g id="matplotlib.axis_11">
    <g id="xtick_20">
     <g id="line2d_68">
      <g>
       <use xlink:href="#m3e486c12b5" x="821.960303" y="676.28" style="stroke: #000000; stroke-width: 0.8"/>
      </g>
     </g>
     <g id="text_61">
      <!-- HR -->
      <g transform="translate(808.938428 696.957188) scale(0.18 -0.18)">
       <use xlink:href="#DejaVuSans-48"/>
       <use xlink:href="#DejaVuSans-52" x="75.195312"/>
      </g>
     </g>
    </g>
    <g id="xtick_21">
     <g id="line2d_69">
      <g>
       <use xlink:href="#m3e486c12b5" x="873.382652" y="676.28" style="stroke: #000000; stroke-width: 0.8"/>
      </g>
     </g>
     <g id="text_62">
      <!-- LR -->
      <g transform="translate(862.11437 696.957188) scale(0.18 -0.18)">
       <use xlink:href="#DejaVuSans-4c"/>
       <use xlink:href="#DejaVuSans-52" x="55.712891"/>
      </g>
     </g>
    </g>
    <g id="xtick_22">
     <g id="line2d_70">
      <g>
       <use xlink:href="#m3e486c12b5" x="924.805" y="676.28" style="stroke: #000000; stroke-width: 0.8"/>
      </g>
     </g>
     <g id="text_63">
      <!-- LP -->
      <g transform="translate(914.363594 696.957188) scale(0.18 -0.18)">
       <use xlink:href="#DejaVuSans-4c"/>
       <use xlink:href="#DejaVuSans-50" x="55.712891"/>
      </g>
     </g>
    </g>
    <g id="xtick_23">
     <g id="line2d_71">
      <g>
       <use xlink:href="#m3e486c12b5" x="976.227348" y="676.28" style="stroke: #000000; stroke-width: 0.8"/>
      </g>
     </g>
     <g id="text_64">
      <!-- HP -->
      <g transform="translate(964.032348 696.957188) scale(0.18 -0.18)">
       <use xlink:href="#DejaVuSans-48"/>
       <use xlink:href="#DejaVuSans-50" x="75.195312"/>
      </g>
     </g>
    </g>
    <g id="xtick_24">
     <g id="line2d_72">
      <g>
       <use xlink:href="#m3e486c12b5" x="1027.649697" y="676.28" style="stroke: #000000; stroke-width: 0.8"/>
      </g>
     </g>
     <g id="text_65">
      <!-- N -->
      <g transform="translate(1020.916572 696.957188) scale(0.18 -0.18)">
       <use xlink:href="#DejaVuSans-4e"/>
      </g>
     </g>
    </g>
   </g>
   <g id="matplotlib.axis_12">
    <g id="ytick_25">
     <g id="line2d_73">
      <g>
       <use xlink:href="#m1e31430b56" x="789.05" y="676.28" style="stroke: #000000; stroke-width: 0.8"/>
      </g>
     </g>
     <g id="text_66">
      <!-- 0 -->
      <g transform="translate(770.5975 683.118594) scale(0.18 -0.18)">
       <use xlink:href="#DejaVuSans-30"/>
      </g>
     </g>
    </g>
    <g id="ytick_26">
     <g id="line2d_74">
      <g>
       <use xlink:href="#m1e31430b56" x="789.05" y="620.036" style="stroke: #000000; stroke-width: 0.8"/>
      </g>
     </g>
     <g id="text_67">
      <!-- 20 -->
      <g transform="translate(759.145 626.874594) scale(0.18 -0.18)">
       <use xlink:href="#DejaVuSans-32"/>
       <use xlink:href="#DejaVuSans-30" x="63.623047"/>
      </g>
     </g>
    </g>
    <g id="ytick_27">
     <g id="line2d_75">
      <g>
       <use xlink:href="#m1e31430b56" x="789.05" y="563.792" style="stroke: #000000; stroke-width: 0.8"/>
      </g>
     </g>
     <g id="text_68">
      <!-- 40 -->
      <g transform="translate(759.145 570.630594) scale(0.18 -0.18)">
       <use xlink:href="#DejaVuSans-34"/>
       <use xlink:href="#DejaVuSans-30" x="63.623047"/>
      </g>
     </g>
    </g>
    <g id="ytick_28">
     <g id="line2d_76">
      <g>
       <use xlink:href="#m1e31430b56" x="789.05" y="507.548" style="stroke: #000000; stroke-width: 0.8"/>
      </g>
     </g>
     <g id="text_69">
      <!-- 60 -->
      <g transform="translate(759.145 514.386594) scale(0.18 -0.18)">
       <use xlink:href="#DejaVuSans-36"/>
       <use xlink:href="#DejaVuSans-30" x="63.623047"/>
      </g>
     </g>
    </g>
    <g id="ytick_29">
     <g id="line2d_77">
      <g>
       <use xlink:href="#m1e31430b56" x="789.05" y="451.304" style="stroke: #000000; stroke-width: 0.8"/>
      </g>
     </g>
     <g id="text_70">
      <!-- 80 -->
      <g transform="translate(759.145 458.142594) scale(0.18 -0.18)">
       <use xlink:href="#DejaVuSans-38"/>
       <use xlink:href="#DejaVuSans-30" x="63.623047"/>
      </g>
     </g>
    </g>
    <g id="ytick_30">
     <g id="line2d_78">
      <g>
       <use xlink:href="#m1e31430b56" x="789.05" y="395.06" style="stroke: #000000; stroke-width: 0.8"/>
      </g>
     </g>
     <g id="text_71">
      <!-- 100 -->
      <g transform="translate(747.6925 401.898594) scale(0.18 -0.18)">
       <use xlink:href="#DejaVuSans-31"/>
       <use xlink:href="#DejaVuSans-30" x="63.623047"/>
       <use xlink:href="#DejaVuSans-30" x="127.246094"/>
      </g>
     </g>
    </g>
    <g id="text_72">
     <!-- Choice Rate (%) -->
     <g transform="translate(739.949063 608.079219) rotate(-90) scale(0.18 -0.18)">
      <use xlink:href="#DejaVuSans-43"/>
      <use xlink:href="#DejaVuSans-68" x="69.824219"/>
      <use xlink:href="#DejaVuSans-6f" x="133.203125"/>
      <use xlink:href="#DejaVuSans-69" x="194.384766"/>
      <use xlink:href="#DejaVuSans-63" x="222.167969"/>
      <use xlink:href="#DejaVuSans-65" x="277.148438"/>
      <use xlink:href="#DejaVuSans-20" x="338.671875"/>
      <use xlink:href="#DejaVuSans-52" x="370.458984"/>
      <use xlink:href="#DejaVuSans-61" x="437.691406"/>
      <use xlink:href="#DejaVuSans-74" x="498.970703"/>
      <use xlink:href="#DejaVuSans-65" x="538.179688"/>
      <use xlink:href="#DejaVuSans-20" x="599.703125"/>
      <use xlink:href="#DejaVuSans-28" x="631.490234"/>
      <use xlink:href="#DejaVuSans-25" x="670.503906"/>
      <use xlink:href="#DejaVuSans-29" x="765.523438"/>
     </g>
    </g>
   </g>
   <g id="LineCollection_5">
    <path d="M 821.960303 440.076527 
L 821.960303 425.179688 
" clip-path="url(#pc6c2294f5f)" style="fill: none; stroke: #696969; stroke-width: 1.5"/>
    <path d="M 873.382652 550.735944 
L 873.382652 531.384156 
" clip-path="url(#pc6c2294f5f)" style="fill: none; stroke: #696969; stroke-width: 1.5"/>
    <path d="M 924.805 533.610297 
L 924.805 515.123941 
" clip-path="url(#pc6c2294f5f)" style="fill: none; stroke: #696969; stroke-width: 1.5"/>
    <path d="M 976.227348 640.637672 
L 976.227348 623.482243 
" clip-path="url(#pc6c2294f5f)" style="fill: none; stroke: #696969; stroke-width: 1.5"/>
    <path d="M 1027.649697 581.091554 
L 1027.649697 554.640616 
" clip-path="url(#pc6c2294f5f)" style="fill: none; stroke: #696969; stroke-width: 1.5"/>
   </g>
   <g id="line2d_79">
    <g clip-path="url(#pc6c2294f5f)">
     <use xlink:href="#m1af0ddb2cb" x="821.960303" y="440.076527" style="fill: #696969; stroke: #696969"/>
     <use xlink:href="#m1af0ddb2cb" x="873.382652" y="550.735944" style="fill: #696969; stroke: #696969"/>
     <use xlink:href="#m1af0ddb2cb" x="924.805" y="533.610297" style="fill: #696969; stroke: #696969"/>
     <use xlink:href="#m1af0ddb2cb" x="976.227348" y="640.637672" style="fill: #696969; stroke: #696969"/>
     <use xlink:href="#m1af0ddb2cb" x="1027.649697" y="581.091554" style="fill: #696969; stroke: #696969"/>
    </g>
   </g>
   <g id="line2d_80">
    <g clip-path="url(#pc6c2294f5f)">
     <use xlink:href="#m1af0ddb2cb" x="821.960303" y="425.179688" style="fill: #696969; stroke: #696969"/>
     <use xlink:href="#m1af0ddb2cb" x="873.382652" y="531.384156" style="fill: #696969; stroke: #696969"/>
     <use xlink:href="#m1af0ddb2cb" x="924.805" y="515.123941" style="fill: #696969; stroke: #696969"/>
     <use xlink:href="#m1af0ddb2cb" x="976.227348" y="623.482243" style="fill: #696969; stroke: #696969"/>
     <use xlink:href="#m1af0ddb2cb" x="1027.649697" y="554.640616" style="fill: #696969; stroke: #696969"/>
    </g>
   </g>
   <g id="LineCollection_6">
    <path d="M 821.960303 440.076527 
L 821.960303 425.179688 
" clip-path="url(#pc6c2294f5f)" style="fill: none; stroke: #808080; stroke-width: 1.5"/>
    <path d="M 873.382652 550.735944 
L 873.382652 531.384156 
" clip-path="url(#pc6c2294f5f)" style="fill: none; stroke: #808080; stroke-width: 1.5"/>
    <path d="M 924.805 533.610297 
L 924.805 515.123941 
" clip-path="url(#pc6c2294f5f)" style="fill: none; stroke: #808080; stroke-width: 1.5"/>
    <path d="M 976.227348 640.637672 
L 976.227348 623.482243 
" clip-path="url(#pc6c2294f5f)" style="fill: none; stroke: #808080; stroke-width: 1.5"/>
    <path d="M 1027.649697 581.091554 
L 1027.649697 554.640616 
" clip-path="url(#pc6c2294f5f)" style="fill: none; stroke: #808080; stroke-width: 1.5"/>
   </g>
   <g id="line2d_81">
    <g clip-path="url(#pc6c2294f5f)">
     <use xlink:href="#m7a26df36e2" x="821.960303" y="432.628108" style="fill: #808080; stroke: #808080"/>
     <use xlink:href="#m7a26df36e2" x="873.382652" y="541.06005" style="fill: #808080; stroke: #808080"/>
     <use xlink:href="#m7a26df36e2" x="924.805" y="524.367119" style="fill: #808080; stroke: #808080"/>
     <use xlink:href="#m7a26df36e2" x="976.227348" y="632.059958" style="fill: #808080; stroke: #808080"/>
     <use xlink:href="#m7a26df36e2" x="1027.649697" y="567.866085" style="fill: #808080; stroke: #808080"/>
    </g>
   </g>
   <g id="patch_33">
    <path d="M 789.05 676.28 
L 789.05 395.06 
" style="fill: none; stroke: #000000; stroke-width: 0.8; stroke-linejoin: miter; stroke-linecap: square"/>
   </g>
   <g id="patch_34">
    <path d="M 789.05 676.28 
L 1060.56 676.28 
" style="fill: none; stroke: #000000; stroke-width: 0.8; stroke-linejoin: miter; stroke-linecap: square"/>
   </g>
  </g>
 </g>
 <defs>
  <clipPath id="p2605aacefb">
   <rect x="82.01" y="42" width="271.51" height="281.22"/>
  </clipPath>
  <clipPath id="pca4c27d203">
   <rect x="435.53" y="42" width="271.51" height="281.22"/>
  </clipPath>
  <clipPath id="p444f401251">
   <rect x="789.05" y="42" width="271.51" height="281.22"/>
  </clipPath>
  <clipPath id="p17f9fd1f56">
   <rect x="82.01" y="395.06" width="271.51" height="281.22"/>
  </clipPath>
  <clipPath id="pf4893757b2">
   <rect x="435.53" y="395.06" width="271.51" height="281.22"/>
  </clipPath>
  <clipPath id="pc6c2294f5f">
   <rect x="789.05" y="395.06" width="271.51" height="281.22"/>
  </clipPath>
 </defs>
</svg>
