<?xml version="1.0" encoding="utf-8" standalone="no"?>
<!DOCTYPE svg PUBLIC "-//W3C//DTD SVG 1.1//EN"
  "http://www.w3.org/Graphics/SVG/1.1/DTD/svg11.dtd">
<svg xmlns:xlink="http://www.w3.org/1999/xlink" width="1080pt" height="720pt" viewBox="0 0 1080 720" xmlns="http://www.w3.org/2000/svg" version="1.1">
 <metadata>
  <rdf:RDF xmlns:dc="http://purl.org/dc/elements/1.1/" xmlns:cc="http://creativecommons.org/ns#" xmlns:rdf="http://www.w3.org/1999/02/22-rdf-syntax-ns#">
   <cc:Work>
    <dc:type rdf:resource="http://purl.org/dc/dcmitype/StillImage"/>
    <dc:date>2025-05-14T10:00:43.266874</dc:date>
    <dc:format>image/svg+xml</dc:format>
    <dc:creator>
     <cc:Agent>
      <dc:title>Matplotlib v3.9.2, https://matplotlib.org/</dc:title>
     </cc:Agent>
    </dc:creator>
   </cc:Work>
  </rdf:RDF>
 </metadata>
 <defs>
  <style type="text/css">*{stroke-linejoin: round; stroke-linecap: butt}</style>
 </defs>
 <g id="figure_1">
  <g id="patch_1">
   <path d="M 0 720 
L 1080 720 
L 1080 0 
L 0 0 
z
" style="fill: #ffffff"/>
  </g>
  <g id="axes_1">
   <g id="patch_2">
    <path d="M 78.23 322.5 
L 353.52 322.5 
L 353.52 40.56 
L 78.23 40.56 
z
" style="fill: #ffffff"/>
   </g>
   <g id="PolyCollection_1">
    <path d="M 90.743182 178.733701 
L 90.743182 227.255435 
L 101.624209 217.747039 
L 112.505237 214.938666 
L 123.386265 202.139092 
L 134.267292 197.164555 
L 145.14832 187.075928 
L 156.029348 184.097867 
L 166.910375 172.72313 
L 177.791403 160.914842 
L 188.672431 155.969298 
L 199.553458 152.933242 
L 210.434486 152.006176 
L 221.315514 150.080748 
L 232.196542 146.276276 
L 243.077569 140.00716 
L 253.958597 125.838933 
L 264.839625 125.431708 
L 275.720652 118.877451 
L 286.60168 121.393443 
L 297.482708 119.895862 
L 308.363735 122.361669 
L 319.244763 119.031452 
L 330.125791 120.43308 
L 341.006818 119.403111 
L 341.006818 82.382568 
L 341.006818 82.382568 
L 330.125791 79.032105 
L 319.244763 85.30677 
L 308.363735 84.064997 
L 297.482708 77.480879 
L 286.60168 83.640927 
L 275.720652 84.068475 
L 264.839625 86.564144 
L 253.958597 91.029956 
L 243.077569 91.48084 
L 232.196542 102.615428 
L 221.315514 105.772438 
L 210.434486 103.150861 
L 199.553458 111.96987 
L 188.672431 113.80685 
L 177.791403 114.430491 
L 166.910375 128.379685 
L 156.029348 131.624059 
L 145.14832 141.872812 
L 134.267292 148.491741 
L 123.386265 154.655574 
L 112.505237 164.82889 
L 101.624209 172.288702 
L 90.743182 178.733701 
z
" clip-path="url(#pc85837ad54)" style="fill: #095086; fill-opacity: 0.1"/>
   </g>
   <g id="PolyCollection_2">
    <path d="M 90.743182 184.210645 
L 90.743182 232.220713 
L 101.624209 222.91641 
L 112.505237 209.589654 
L 123.386265 196.635106 
L 134.267292 183.131638 
L 145.14832 168.36283 
L 156.029348 158.762616 
L 166.910375 149.733011 
L 177.791403 143.325056 
L 188.672431 136.85427 
L 199.553458 140.522424 
L 210.434486 136.409133 
L 221.315514 136.803662 
L 232.196542 129.097989 
L 243.077569 130.826631 
L 253.958597 122.366835 
L 264.839625 122.071023 
L 275.720652 116.277175 
L 286.60168 116.264342 
L 297.482708 116.03739 
L 308.363735 116.850568 
L 319.244763 117.838392 
L 330.125791 116.89799 
L 341.006818 112.589374 
L 341.006818 81.074576 
L 341.006818 81.074576 
L 330.125791 76.475899 
L 319.244763 76.057608 
L 308.363735 79.830024 
L 297.482708 75.074018 
L 286.60168 80.416251 
L 275.720652 81.795714 
L 264.839625 78.090311 
L 253.958597 86.148276 
L 243.077569 91.611443 
L 232.196542 89.163196 
L 221.315514 92.595893 
L 210.434486 97.863459 
L 199.553458 95.142464 
L 188.672431 95.329878 
L 177.791403 105.566647 
L 166.910375 108.208619 
L 156.029348 109.621236 
L 145.14832 120.209318 
L 134.267292 134.678732 
L 123.386265 145.54045 
L 112.505237 162.520272 
L 101.624209 171.470256 
L 90.743182 184.210645 
z
" clip-path="url(#pc85837ad54)" style="fill: #b00000; fill-opacity: 0.1"/>
   </g>
   <g id="matplotlib.axis_1">
    <g id="xtick_1">
     <g id="line2d_1">
      <defs>
       <path id="m8a35428dd9" d="M 0 0 
L 0 3.5 
" style="stroke: #000000; stroke-width: 0.8"/>
      </defs>
      <g>
       <use xlink:href="#m8a35428dd9" x="79.862154" y="322.5" style="stroke: #000000; stroke-width: 0.8"/>
      </g>
     </g>
     <g id="text_1">
      <!-- 0 -->
      <g transform="translate(74.85731 342.412188) scale(0.18 -0.18)">
       <defs>
        <path id="Helvetica-30" d="M 1731 4475 
Q 2600 4475 2988 3759 
Q 3288 3206 3288 2244 
Q 3288 1331 3016 734 
Q 2622 -122 1728 -122 
Q 922 -122 528 578 
Q 200 1163 200 2147 
Q 200 2909 397 3456 
Q 766 4475 1731 4475 
z
M 1725 391 
Q 2163 391 2422 778 
Q 2681 1166 2681 2222 
Q 2681 2984 2493 3476 
Q 2306 3969 1766 3969 
Q 1269 3969 1039 3501 
Q 809 3034 809 2125 
Q 809 1441 956 1025 
Q 1181 391 1725 391 
z
" transform="scale(0.015625)"/>
       </defs>
       <use xlink:href="#Helvetica-30"/>
      </g>
     </g>
    </g>
    <g id="xtick_2">
     <g id="line2d_2">
      <g>
       <use xlink:href="#m8a35428dd9" x="123.386265" y="322.5" style="stroke: #000000; stroke-width: 0.8"/>
      </g>
     </g>
     <g id="text_2">
      <!-- 4 -->
      <g transform="translate(118.381421 342.412188) scale(0.18 -0.18)">
       <defs>
        <path id="Helvetica-34" d="M 2116 1584 
L 2116 3613 
L 681 1584 
L 2116 1584 
z
M 2125 0 
L 2125 1094 
L 163 1094 
L 163 1644 
L 2213 4488 
L 2688 4488 
L 2688 1584 
L 3347 1584 
L 3347 1094 
L 2688 1094 
L 2688 0 
L 2125 0 
z
" transform="scale(0.015625)"/>
       </defs>
       <use xlink:href="#Helvetica-34"/>
      </g>
     </g>
    </g>
    <g id="xtick_3">
     <g id="line2d_3">
      <g>
       <use xlink:href="#m8a35428dd9" x="166.910375" y="322.5" style="stroke: #000000; stroke-width: 0.8"/>
      </g>
     </g>
     <g id="text_3">
      <!-- 8 -->
      <g transform="translate(161.905532 342.412188) scale(0.18 -0.18)">
       <defs>
        <path id="Helvetica-38" d="M 1741 2600 
Q 2113 2600 2322 2808 
Q 2531 3016 2531 3303 
Q 2531 3553 2331 3762 
Q 2131 3972 1722 3972 
Q 1316 3972 1134 3762 
Q 953 3553 953 3272 
Q 953 2956 1187 2778 
Q 1422 2600 1741 2600 
z
M 1775 384 
Q 2166 384 2423 595 
Q 2681 806 2681 1225 
Q 2681 1659 2415 1884 
Q 2150 2109 1734 2109 
Q 1331 2109 1076 1879 
Q 822 1650 822 1244 
Q 822 894 1055 639 
Q 1288 384 1775 384 
z
M 975 2384 
Q 741 2484 609 2619 
Q 363 2869 363 3269 
Q 363 3769 725 4128 
Q 1088 4488 1753 4488 
Q 2397 4488 2762 4148 
Q 3128 3809 3128 3356 
Q 3128 2938 2916 2678 
Q 2797 2531 2547 2391 
Q 2825 2263 2984 2097 
Q 3281 1784 3281 1284 
Q 3281 694 2884 283 
Q 2488 -128 1763 -128 
Q 1109 -128 657 226 
Q 206 581 206 1256 
Q 206 1653 400 1942 
Q 594 2231 975 2384 
z
" transform="scale(0.015625)"/>
       </defs>
       <use xlink:href="#Helvetica-38"/>
      </g>
     </g>
    </g>
    <g id="xtick_4">
     <g id="line2d_4">
      <g>
       <use xlink:href="#m8a35428dd9" x="210.434486" y="322.5" style="stroke: #000000; stroke-width: 0.8"/>
      </g>
     </g>
     <g id="text_4">
      <!-- 12 -->
      <g transform="translate(200.424799 342.412188) scale(0.18 -0.18)">
       <defs>
        <path id="Helvetica-31" d="M 613 3169 
L 613 3600 
Q 1222 3659 1462 3798 
Q 1703 3938 1822 4456 
L 2266 4456 
L 2266 0 
L 1666 0 
L 1666 3169 
L 613 3169 
z
" transform="scale(0.015625)"/>
        <path id="Helvetica-32" d="M 200 0 
Q 231 578 439 1006 
Q 647 1434 1250 1784 
L 1850 2131 
Q 2253 2366 2416 2531 
Q 2672 2791 2672 3125 
Q 2672 3516 2437 3745 
Q 2203 3975 1813 3975 
Q 1234 3975 1013 3538 
Q 894 3303 881 2888 
L 309 2888 
Q 319 3472 525 3841 
Q 891 4491 1816 4491 
Q 2584 4491 2939 4075 
Q 3294 3659 3294 3150 
Q 3294 2613 2916 2231 
Q 2697 2009 2131 1694 
L 1703 1456 
Q 1397 1288 1222 1134 
Q 909 863 828 531 
L 3272 531 
L 3272 0 
L 200 0 
z
" transform="scale(0.015625)"/>
       </defs>
       <use xlink:href="#Helvetica-31"/>
       <use xlink:href="#Helvetica-32" x="55.615234"/>
      </g>
     </g>
    </g>
    <g id="xtick_5">
     <g id="line2d_5">
      <g>
       <use xlink:href="#m8a35428dd9" x="253.958597" y="322.5" style="stroke: #000000; stroke-width: 0.8"/>
      </g>
     </g>
     <g id="text_5">
      <!-- 16 -->
      <g transform="translate(243.948909 342.412188) scale(0.18 -0.18)">
       <defs>
        <path id="Helvetica-36" d="M 1872 4494 
Q 2622 4494 2917 4105 
Q 3213 3716 3213 3303 
L 2656 3303 
Q 2606 3569 2497 3719 
Q 2294 4000 1881 4000 
Q 1409 4000 1131 3564 
Q 853 3128 822 2316 
Q 1016 2600 1309 2741 
Q 1578 2866 1909 2866 
Q 2472 2866 2890 2506 
Q 3309 2147 3309 1434 
Q 3309 825 2912 354 
Q 2516 -116 1781 -116 
Q 1153 -116 697 361 
Q 241 838 241 1966 
Q 241 2800 444 3381 
Q 834 4494 1872 4494 
z
M 1831 384 
Q 2275 384 2495 682 
Q 2716 981 2716 1388 
Q 2716 1731 2519 2042 
Q 2322 2353 1803 2353 
Q 1441 2353 1167 2112 
Q 894 1872 894 1388 
Q 894 963 1142 673 
Q 1391 384 1831 384 
z
" transform="scale(0.015625)"/>
       </defs>
       <use xlink:href="#Helvetica-31"/>
       <use xlink:href="#Helvetica-36" x="55.615234"/>
      </g>
     </g>
    </g>
    <g id="xtick_6">
     <g id="line2d_6">
      <g>
       <use xlink:href="#m8a35428dd9" x="297.482708" y="322.5" style="stroke: #000000; stroke-width: 0.8"/>
      </g>
     </g>
     <g id="text_6">
      <!-- 20 -->
      <g transform="translate(287.47302 342.412188) scale(0.18 -0.18)">
       <use xlink:href="#Helvetica-32"/>
       <use xlink:href="#Helvetica-30" x="55.615234"/>
      </g>
     </g>
    </g>
    <g id="xtick_7">
     <g id="line2d_7">
      <g>
       <use xlink:href="#m8a35428dd9" x="341.006818" y="322.5" style="stroke: #000000; stroke-width: 0.8"/>
      </g>
     </g>
     <g id="text_7">
      <!-- 24 -->
      <g transform="translate(330.997131 342.412188) scale(0.18 -0.18)">
       <use xlink:href="#Helvetica-32"/>
       <use xlink:href="#Helvetica-34" x="55.615234"/>
      </g>
     </g>
    </g>
    <g id="text_8">
     <!-- Trial -->
     <g transform="translate(198.377031 363.07625) scale(0.18 -0.18)">
      <defs>
       <path id="Helvetica-54" d="M 3828 4591 
L 3828 4044 
L 2281 4044 
L 2281 0 
L 1650 0 
L 1650 4044 
L 103 4044 
L 103 4591 
L 3828 4591 
z
" transform="scale(0.015625)"/>
       <path id="Helvetica-72" d="M 428 3347 
L 963 3347 
L 963 2769 
Q 1028 2938 1284 3180 
Q 1541 3422 1875 3422 
Q 1891 3422 1928 3419 
Q 1966 3416 2056 3406 
L 2056 2813 
Q 2006 2822 1964 2825 
Q 1922 2828 1872 2828 
Q 1447 2828 1219 2554 
Q 991 2281 991 1925 
L 991 0 
L 428 0 
L 428 3347 
z
" transform="scale(0.015625)"/>
       <path id="Helvetica-69" d="M 413 3331 
L 984 3331 
L 984 0 
L 413 0 
L 413 3331 
z
M 413 4591 
L 984 4591 
L 984 3953 
L 413 3953 
L 413 4591 
z
" transform="scale(0.015625)"/>
       <path id="Helvetica-61" d="M 844 891 
Q 844 647 1022 506 
Q 1200 366 1444 366 
Q 1741 366 2019 503 
Q 2488 731 2488 1250 
L 2488 1703 
Q 2384 1638 2221 1594 
Q 2059 1550 1903 1531 
L 1563 1488 
Q 1256 1447 1103 1359 
Q 844 1213 844 891 
z
M 2206 2028 
Q 2400 2053 2466 2191 
Q 2503 2266 2503 2406 
Q 2503 2694 2298 2823 
Q 2094 2953 1713 2953 
Q 1272 2953 1088 2716 
Q 984 2584 953 2325 
L 428 2325 
Q 444 2944 830 3186 
Q 1216 3428 1725 3428 
Q 2316 3428 2684 3203 
Q 3050 2978 3050 2503 
L 3050 575 
Q 3050 488 3086 434 
Q 3122 381 3238 381 
Q 3275 381 3322 386 
Q 3369 391 3422 400 
L 3422 -16 
Q 3291 -53 3222 -62 
Q 3153 -72 3034 -72 
Q 2744 -72 2613 134 
Q 2544 244 2516 444 
Q 2344 219 2022 53 
Q 1700 -113 1313 -113 
Q 847 -113 551 170 
Q 256 453 256 878 
Q 256 1344 547 1600 
Q 838 1856 1309 1916 
L 2206 2028 
z
M 1741 3428 
L 1741 3428 
z
" transform="scale(0.015625)"/>
       <path id="Helvetica-6c" d="M 428 4591 
L 991 4591 
L 991 0 
L 428 0 
L 428 4591 
z
" transform="scale(0.015625)"/>
      </defs>
      <use xlink:href="#Helvetica-54"/>
      <use xlink:href="#Helvetica-72" x="61.083984"/>
      <use xlink:href="#Helvetica-69" x="94.384766"/>
      <use xlink:href="#Helvetica-61" x="116.601562"/>
      <use xlink:href="#Helvetica-6c" x="172.216797"/>
     </g>
    </g>
   </g>
   <g id="matplotlib.axis_2">
    <g id="ytick_1">
     <g id="line2d_8">
      <defs>
       <path id="m4bf4dbbba8" d="M 0 0 
L -3.5 0 
" style="stroke: #000000; stroke-width: 0.8"/>
      </defs>
      <g>
       <use xlink:href="#m4bf4dbbba8" x="78.23" y="266.112" style="stroke: #000000; stroke-width: 0.8"/>
      </g>
     </g>
     <g id="text_9">
      <!-- 40 -->
      <g transform="translate(51.210625 272.568094) scale(0.18 -0.18)">
       <use xlink:href="#Helvetica-34"/>
       <use xlink:href="#Helvetica-30" x="55.615234"/>
      </g>
     </g>
    </g>
    <g id="ytick_2">
     <g id="line2d_9">
      <g>
       <use xlink:href="#m4bf4dbbba8" x="78.23" y="190.928" style="stroke: #000000; stroke-width: 0.8"/>
      </g>
     </g>
     <g id="text_10">
      <!-- 60 -->
      <g transform="translate(51.210625 197.384094) scale(0.18 -0.18)">
       <use xlink:href="#Helvetica-36"/>
       <use xlink:href="#Helvetica-30" x="55.615234"/>
      </g>
     </g>
    </g>
    <g id="ytick_3">
     <g id="line2d_10">
      <g>
       <use xlink:href="#m4bf4dbbba8" x="78.23" y="115.744" style="stroke: #000000; stroke-width: 0.8"/>
      </g>
     </g>
     <g id="text_11">
      <!-- 80 -->
      <g transform="translate(51.210625 122.200094) scale(0.18 -0.18)">
       <use xlink:href="#Helvetica-38"/>
       <use xlink:href="#Helvetica-30" x="55.615234"/>
      </g>
     </g>
    </g>
    <g id="ytick_4">
     <g id="line2d_11">
      <g>
       <use xlink:href="#m4bf4dbbba8" x="78.23" y="40.56" style="stroke: #000000; stroke-width: 0.8"/>
      </g>
     </g>
     <g id="text_12">
      <!-- 100 -->
      <g transform="translate(41.200938 47.016094) scale(0.18 -0.18)">
       <use xlink:href="#Helvetica-31"/>
       <use xlink:href="#Helvetica-30" x="55.615234"/>
       <use xlink:href="#Helvetica-30" x="111.230469"/>
      </g>
     </g>
    </g>
    <g id="text_13">
     <!-- Accuracy (%) -->
     <g transform="translate(33.342188 235.036406) rotate(-90) scale(0.18 -0.18)">
      <defs>
       <path id="Helvetica-41" d="M 2844 1881 
L 2147 3909 
L 1406 1881 
L 2844 1881 
z
M 1822 4591 
L 2525 4591 
L 4191 0 
L 3509 0 
L 3044 1375 
L 1228 1375 
L 731 0 
L 94 0 
L 1822 4591 
z
M 2144 4591 
L 2144 4591 
z
" transform="scale(0.015625)"/>
       <path id="Helvetica-63" d="M 1703 3444 
Q 2269 3444 2623 3169 
Q 2978 2894 3050 2222 
L 2503 2222 
Q 2453 2531 2275 2736 
Q 2097 2941 1703 2941 
Q 1166 2941 934 2416 
Q 784 2075 784 1575 
Q 784 1072 996 728 
Q 1209 384 1666 384 
Q 2016 384 2220 598 
Q 2425 813 2503 1184 
L 3050 1184 
Q 2956 519 2581 211 
Q 2206 -97 1622 -97 
Q 966 -97 575 383 
Q 184 863 184 1581 
Q 184 2463 612 2953 
Q 1041 3444 1703 3444 
z
M 1616 3428 
L 1616 3428 
z
" transform="scale(0.015625)"/>
       <path id="Helvetica-75" d="M 975 3347 
L 975 1125 
Q 975 869 1056 706 
Q 1206 406 1616 406 
Q 2203 406 2416 931 
Q 2531 1213 2531 1703 
L 2531 3347 
L 3094 3347 
L 3094 0 
L 2563 0 
L 2569 494 
Q 2459 303 2297 172 
Q 1975 -91 1516 -91 
Q 800 -91 541 388 
Q 400 644 400 1072 
L 400 3347 
L 975 3347 
z
M 1747 3428 
L 1747 3428 
z
" transform="scale(0.015625)"/>
       <path id="Helvetica-79" d="M 2503 3347 
L 3125 3347 
Q 3006 3025 2597 1878 
Q 2291 1016 2084 472 
Q 1597 -809 1397 -1090 
Q 1197 -1372 709 -1372 
Q 591 -1372 527 -1362 
Q 463 -1353 369 -1328 
L 369 -816 
Q 516 -856 581 -865 
Q 647 -875 697 -875 
Q 853 -875 926 -823 
Q 1000 -772 1050 -697 
Q 1066 -672 1162 -440 
Q 1259 -209 1303 -97 
L 66 3347 
L 703 3347 
L 1600 622 
L 2503 3347 
z
M 1597 3428 
L 1597 3428 
z
" transform="scale(0.015625)"/>
       <path id="Helvetica-20" transform="scale(0.015625)"/>
       <path id="Helvetica-28" d="M 1894 4666 
Q 1403 3713 1256 3263 
Q 1034 2578 1034 1681 
Q 1034 775 1288 25 
Q 1444 -438 1903 -1306 
L 1525 -1306 
Q 1069 -594 959 -397 
Q 850 -200 722 138 
Q 547 600 478 1125 
Q 444 1397 444 1644 
Q 444 2569 734 3291 
Q 919 3750 1503 4666 
L 1894 4666 
z
" transform="scale(0.015625)"/>
       <path id="Helvetica-25" d="M 4363 2175 
Q 4813 2175 5131 1856 
Q 5450 1538 5450 1088 
Q 5450 638 5131 319 
Q 4813 0 4363 0 
Q 3909 0 3590 319 
Q 3272 638 3272 1088 
Q 3272 1538 3590 1856 
Q 3909 2175 4363 2175 
z
M 3909 4456 
L 4256 4456 
L 1753 -119 
L 1406 -119 
L 3909 4456 
z
M 1294 2606 
Q 1563 2606 1752 2795 
Q 1941 2984 1941 3250 
Q 1941 3516 1752 3705 
Q 1563 3894 1294 3894 
Q 1028 3894 839 3706 
Q 650 3519 650 3250 
Q 650 2984 839 2795 
Q 1028 2606 1294 2606 
z
M 1294 4341 
Q 1747 4341 2065 4020 
Q 2384 3700 2384 3250 
Q 2384 2800 2065 2481 
Q 1747 2163 1294 2163 
Q 844 2163 525 2481 
Q 206 2800 206 3250 
Q 206 3700 525 4020 
Q 844 4341 1294 4341 
z
M 4363 444 
Q 4628 444 4817 633 
Q 5006 822 5006 1088 
Q 5006 1353 4817 1542 
Q 4628 1731 4363 1731 
Q 4094 1731 3905 1542 
Q 3716 1353 3716 1088 
Q 3716 822 3905 633 
Q 4094 444 4363 444 
z
" transform="scale(0.015625)"/>
       <path id="Helvetica-29" d="M 222 -1306 
Q 719 -338 863 106 
Q 1081 778 1081 1681 
Q 1081 2584 828 3334 
Q 672 3797 213 4666 
L 591 4666 
Q 1072 3897 1173 3717 
Q 1275 3538 1394 3222 
Q 1544 2831 1608 2450 
Q 1672 2069 1672 1716 
Q 1672 791 1378 66 
Q 1194 -400 613 -1306 
L 222 -1306 
z
" transform="scale(0.015625)"/>
      </defs>
      <use xlink:href="#Helvetica-41"/>
      <use xlink:href="#Helvetica-63" x="66.699219"/>
      <use xlink:href="#Helvetica-63" x="116.699219"/>
      <use xlink:href="#Helvetica-75" x="166.699219"/>
      <use xlink:href="#Helvetica-72" x="222.314453"/>
      <use xlink:href="#Helvetica-61" x="255.615234"/>
      <use xlink:href="#Helvetica-63" x="311.230469"/>
      <use xlink:href="#Helvetica-79" x="361.230469"/>
      <use xlink:href="#Helvetica-20" x="411.230469"/>
      <use xlink:href="#Helvetica-28" x="439.013672"/>
      <use xlink:href="#Helvetica-25" x="472.314453"/>
      <use xlink:href="#Helvetica-29" x="561.230469"/>
     </g>
    </g>
   </g>
   <g id="line2d_12">
    <path d="M 90.743182 202.994568 
L 101.624209 195.01787 
L 112.505237 189.883778 
L 123.386265 178.397333 
L 134.267292 172.828148 
L 145.14832 164.47437 
L 156.029348 157.860963 
L 166.910375 150.551407 
L 177.791403 137.672667 
L 188.672431 134.888074 
L 199.553458 132.451556 
L 210.434486 127.578519 
L 221.315514 127.926593 
L 232.196542 124.445852 
L 243.077569 115.744 
L 253.958597 108.434444 
L 264.839625 105.997926 
L 275.720652 101.472963 
L 286.60168 102.517185 
L 297.482708 98.68837 
L 308.363735 103.213333 
L 319.244763 102.169111 
L 330.125791 99.732593 
L 341.006818 100.89284 
" clip-path="url(#pc85837ad54)" style="fill: none; stroke: #095086; stroke-opacity: 0.75; stroke-width: 3; stroke-linecap: square"/>
   </g>
   <g id="line2d_13">
    <path d="M 90.743182 186.170988 
L 101.624209 174.133426 
L 112.505237 164.822444 
L 123.386265 139.413037 
L 134.267292 124.097778 
L 145.14832 113.655556 
L 156.029348 107.390222 
L 166.910375 102.865259 
L 177.791403 99.732593 
L 188.672431 97.644148 
L 199.553458 95.903778 
L 210.434486 93.467259 
L 221.315514 91.726889 
L 232.196542 89.29037 
L 243.077569 86.853852 
L 253.958597 88.594222 
L 264.839625 87.898074 
L 275.720652 87.201926 
L 286.60168 86.157704 
L 297.482708 86.505778 
L 308.363735 81.980815 
L 319.244763 78.500074 
L 330.125791 74.932315 
L 341.006818 75.947531 
" clip-path="url(#pc85837ad54)" style="fill: none; stroke-dasharray: 7.4,3.2; stroke-dashoffset: 0; stroke: #095086; stroke-opacity: 0.75; stroke-width: 2"/>
   </g>
   <g id="line2d_14">
    <path d="M 90.743182 208.215679 
L 101.624209 197.193333 
L 112.505237 186.054963 
L 123.386265 171.087778 
L 134.267292 158.905185 
L 145.14832 144.286074 
L 156.029348 134.191926 
L 166.910375 128.970815 
L 177.791403 124.445852 
L 188.672431 116.092074 
L 199.553458 117.832444 
L 210.434486 117.136296 
L 221.315514 114.699778 
L 232.196542 109.130593 
L 243.077569 111.219037 
L 253.958597 104.257556 
L 264.839625 100.080667 
L 275.720652 99.036444 
L 286.60168 98.340296 
L 297.482708 95.555704 
L 308.363735 98.340296 
L 319.244763 96.948 
L 330.125791 96.686944 
L 341.006818 96.831975 
" clip-path="url(#pc85837ad54)" style="fill: none; stroke: #b00000; stroke-opacity: 0.75; stroke-width: 3; stroke-linecap: square"/>
   </g>
   <g id="line2d_15">
    <path d="M 90.743182 182.110123 
L 101.624209 168.912315 
L 112.505237 161.689778 
L 123.386265 139.761111 
L 134.267292 127.578519 
L 145.14832 122.009333 
L 156.029348 118.180519 
L 166.910375 114.351704 
L 177.791403 113.655556 
L 188.672431 114.00363 
L 199.553458 111.915185 
L 210.434486 111.219037 
L 221.315514 106.694074 
L 232.196542 104.257556 
L 243.077569 101.472963 
L 253.958597 95.903778 
L 264.839625 87.898074 
L 275.720652 82.676963 
L 286.60168 75.715481 
L 297.482708 72.234741 
L 308.363735 68.405926 
L 319.244763 68.754 
L 330.125791 69.711204 
L 341.006818 70.146296 
" clip-path="url(#pc85837ad54)" style="fill: none; stroke-dasharray: 7.4,3.2; stroke-dashoffset: 0; stroke: #b00000; stroke-opacity: 0.75; stroke-width: 2"/>
   </g>
   <g id="patch_3">
    <path d="M 78.23 322.5 
L 78.23 40.56 
" style="fill: none; stroke: #000000; stroke-width: 0.8; stroke-linejoin: miter; stroke-linecap: square"/>
   </g>
   <g id="patch_4">
    <path d="M 78.23 322.5 
L 353.52 322.5 
" style="fill: none; stroke: #000000; stroke-width: 0.8; stroke-linejoin: miter; stroke-linecap: square"/>
   </g>
   <g id="text_14">
    <!-- No Pain -->
    <g transform="translate(177.454 34.56) scale(0.216 -0.216)">
     <defs>
      <path id="Helvetica-4e" d="M 488 4591 
L 1222 4591 
L 3541 872 
L 3541 4591 
L 4131 4591 
L 4131 0 
L 3434 0 
L 1081 3716 
L 1081 0 
L 488 0 
L 488 4591 
z
M 2269 4591 
L 2269 4591 
z
" transform="scale(0.015625)"/>
      <path id="Helvetica-6f" d="M 1741 363 
Q 2300 363 2508 786 
Q 2716 1209 2716 1728 
Q 2716 2197 2566 2491 
Q 2328 2953 1747 2953 
Q 1231 2953 997 2559 
Q 763 2166 763 1609 
Q 763 1075 997 719 
Q 1231 363 1741 363 
z
M 1763 3444 
Q 2409 3444 2856 3012 
Q 3303 2581 3303 1744 
Q 3303 934 2909 406 
Q 2516 -122 1688 -122 
Q 997 -122 590 345 
Q 184 813 184 1600 
Q 184 2444 612 2944 
Q 1041 3444 1763 3444 
z
M 1744 3428 
L 1744 3428 
z
" transform="scale(0.015625)"/>
      <path id="Helvetica-50" d="M 547 4591 
L 2613 4591 
Q 3225 4591 3600 4245 
Q 3975 3900 3975 3275 
Q 3975 2738 3640 2339 
Q 3306 1941 2613 1941 
L 1169 1941 
L 1169 0 
L 547 0 
L 547 4591 
z
M 3347 3272 
Q 3347 3778 2972 3959 
Q 2766 4056 2406 4056 
L 1169 4056 
L 1169 2466 
L 2406 2466 
Q 2825 2466 3086 2644 
Q 3347 2822 3347 3272 
z
" transform="scale(0.015625)"/>
      <path id="Helvetica-6e" d="M 413 3347 
L 947 3347 
L 947 2872 
Q 1184 3166 1450 3294 
Q 1716 3422 2041 3422 
Q 2753 3422 3003 2925 
Q 3141 2653 3141 2147 
L 3141 0 
L 2569 0 
L 2569 2109 
Q 2569 2416 2478 2603 
Q 2328 2916 1934 2916 
Q 1734 2916 1606 2875 
Q 1375 2806 1200 2600 
Q 1059 2434 1017 2257 
Q 975 2081 975 1753 
L 975 0 
L 413 0 
L 413 3347 
z
M 1734 3428 
L 1734 3428 
z
" transform="scale(0.015625)"/>
     </defs>
     <use xlink:href="#Helvetica-4e"/>
     <use xlink:href="#Helvetica-6f" x="72.216797"/>
     <use xlink:href="#Helvetica-20" x="127.832031"/>
     <use xlink:href="#Helvetica-50" x="155.615234"/>
     <use xlink:href="#Helvetica-61" x="222.314453"/>
     <use xlink:href="#Helvetica-69" x="277.929688"/>
     <use xlink:href="#Helvetica-6e" x="300.146484"/>
    </g>
   </g>
   <g id="legend_1">
    <g id="line2d_16">
     <path d="M 224.89875 270.584063 
L 242.89875 270.584063 
L 260.89875 270.584063 
" style="fill: none; stroke: #095086; stroke-opacity: 0.75; stroke-width: 3; stroke-linecap: square"/>
    </g>
    <g id="text_15">
     <!-- Reward -->
     <g transform="translate(275.29875 276.884063) scale(0.18 -0.18)">
      <defs>
       <path id="Helvetica-52" d="M 2622 2488 
Q 3059 2488 3314 2663 
Q 3569 2838 3569 3294 
Q 3569 3784 3213 3963 
Q 3022 4056 2703 4056 
L 1184 4056 
L 1184 2488 
L 2622 2488 
z
M 563 4591 
L 2688 4591 
Q 3213 4591 3553 4438 
Q 4200 4144 4200 3353 
Q 4200 2941 4029 2678 
Q 3859 2416 3553 2256 
Q 3822 2147 3958 1969 
Q 4094 1791 4109 1391 
L 4131 775 
Q 4141 513 4175 384 
Q 4231 166 4375 103 
L 4375 0 
L 3613 0 
Q 3581 59 3562 153 
Q 3544 247 3531 516 
L 3494 1281 
Q 3472 1731 3159 1884 
Q 2981 1969 2600 1969 
L 1184 1969 
L 1184 0 
L 563 0 
L 563 4591 
z
" transform="scale(0.015625)"/>
       <path id="Helvetica-65" d="M 1806 3422 
Q 2163 3422 2497 3255 
Q 2831 3088 3006 2822 
Q 3175 2569 3231 2231 
Q 3281 2000 3281 1494 
L 828 1494 
Q 844 984 1069 676 
Q 1294 369 1766 369 
Q 2206 369 2469 659 
Q 2619 828 2681 1050 
L 3234 1050 
Q 3213 866 3089 639 
Q 2966 413 2813 269 
Q 2556 19 2178 -69 
Q 1975 -119 1719 -119 
Q 1094 -119 659 336 
Q 225 791 225 1609 
Q 225 2416 662 2919 
Q 1100 3422 1806 3422 
z
M 2703 1941 
Q 2669 2306 2544 2525 
Q 2313 2931 1772 2931 
Q 1384 2931 1121 2651 
Q 859 2372 844 1941 
L 2703 1941 
z
M 1753 3428 
L 1753 3428 
z
" transform="scale(0.015625)"/>
       <path id="Helvetica-77" d="M 672 3347 
L 1316 709 
L 1969 3347 
L 2600 3347 
L 3256 725 
L 3941 3347 
L 4503 3347 
L 3531 0 
L 2947 0 
L 2266 2591 
L 1606 0 
L 1022 0 
L 56 3347 
L 672 3347 
z
" transform="scale(0.015625)"/>
       <path id="Helvetica-64" d="M 769 1634 
Q 769 1097 997 734 
Q 1225 372 1728 372 
Q 2119 372 2370 708 
Q 2622 1044 2622 1672 
Q 2622 2306 2362 2611 
Q 2103 2916 1722 2916 
Q 1297 2916 1033 2591 
Q 769 2266 769 1634 
z
M 1616 3406 
Q 2000 3406 2259 3244 
Q 2409 3150 2600 2916 
L 2600 4606 
L 3141 4606 
L 3141 0 
L 2634 0 
L 2634 466 
Q 2438 156 2169 18 
Q 1900 -119 1553 -119 
Q 994 -119 584 351 
Q 175 822 175 1603 
Q 175 2334 548 2870 
Q 922 3406 1616 3406 
z
" transform="scale(0.015625)"/>
      </defs>
      <use xlink:href="#Helvetica-52"/>
      <use xlink:href="#Helvetica-65" x="72.216797"/>
      <use xlink:href="#Helvetica-77" x="127.832031"/>
      <use xlink:href="#Helvetica-61" x="200.048828"/>
      <use xlink:href="#Helvetica-72" x="255.664062"/>
      <use xlink:href="#Helvetica-64" x="288.964844"/>
     </g>
    </g>
    <g id="line2d_17">
     <path d="M 224.89875 296.248125 
L 242.89875 296.248125 
L 260.89875 296.248125 
" style="fill: none; stroke: #b00000; stroke-opacity: 0.75; stroke-width: 3; stroke-linecap: square"/>
    </g>
    <g id="text_16">
     <!-- Punish -->
     <g transform="translate(275.29875 302.548125) scale(0.18 -0.18)">
      <defs>
       <path id="Helvetica-73" d="M 747 1050 
Q 772 769 888 619 
Q 1100 347 1625 347 
Q 1938 347 2175 483 
Q 2413 619 2413 903 
Q 2413 1119 2222 1231 
Q 2100 1300 1741 1391 
L 1294 1503 
Q 866 1609 663 1741 
Q 300 1969 300 2372 
Q 300 2847 642 3140 
Q 984 3434 1563 3434 
Q 2319 3434 2653 2991 
Q 2863 2709 2856 2384 
L 2325 2384 
Q 2309 2575 2191 2731 
Q 1997 2953 1519 2953 
Q 1200 2953 1036 2831 
Q 872 2709 872 2509 
Q 872 2291 1088 2159 
Q 1213 2081 1456 2022 
L 1828 1931 
Q 2434 1784 2641 1647 
Q 2969 1431 2969 969 
Q 2969 522 2630 197 
Q 2291 -128 1597 -128 
Q 850 -128 539 211 
Q 228 550 206 1050 
L 747 1050 
z
M 1578 3428 
L 1578 3428 
z
" transform="scale(0.015625)"/>
       <path id="Helvetica-68" d="M 413 4606 
L 975 4606 
L 975 2894 
Q 1175 3147 1334 3250 
Q 1606 3428 2013 3428 
Q 2741 3428 3000 2919 
Q 3141 2641 3141 2147 
L 3141 0 
L 2563 0 
L 2563 2109 
Q 2563 2478 2469 2650 
Q 2316 2925 1894 2925 
Q 1544 2925 1259 2684 
Q 975 2444 975 1775 
L 975 0 
L 413 0 
L 413 4606 
z
" transform="scale(0.015625)"/>
      </defs>
      <use xlink:href="#Helvetica-50"/>
      <use xlink:href="#Helvetica-75" x="66.699219"/>
      <use xlink:href="#Helvetica-6e" x="122.314453"/>
      <use xlink:href="#Helvetica-69" x="177.929688"/>
      <use xlink:href="#Helvetica-73" x="200.146484"/>
      <use xlink:href="#Helvetica-68" x="250.146484"/>
     </g>
    </g>
   </g>
  </g>
  <g id="axes_2">
   <g id="patch_5">
    <path d="M 431.75 322.5 
L 707.04 322.5 
L 707.04 40.56 
L 431.75 40.56 
z
" style="fill: #ffffff"/>
   </g>
   <g id="PolyCollection_3">
    <path d="M 444.263182 172.719904 
L 444.263182 248.855945 
L 455.144209 239.535764 
L 466.025237 233.030151 
L 476.906265 212.743536 
L 487.787292 203.046236 
L 498.66832 196.256109 
L 509.549348 196.061965 
L 520.430375 187.961534 
L 531.311403 181.225215 
L 542.192431 173.684155 
L 553.073458 167.645278 
L 563.954486 160.887638 
L 574.835514 159.288916 
L 585.716542 157.2429 
L 596.597569 158.789212 
L 607.478597 152.405664 
L 618.359625 149.221738 
L 629.240652 141.104549 
L 640.12168 135.004377 
L 651.002708 133.421347 
L 661.883735 132.417995 
L 672.764763 130.999428 
L 683.645791 132.516729 
L 694.526818 129.177482 
L 694.526818 72.520631 
L 694.526818 72.520631 
L 683.645791 74.501007 
L 672.764763 76.372949 
L 661.883735 77.791515 
L 651.002708 83.880993 
L 640.12168 80.879397 
L 629.240652 83.290621 
L 618.359625 87.940526 
L 607.478597 86.175166 
L 596.597569 92.558713 
L 585.716542 102.616421 
L 574.835514 96.314707 
L 563.954486 94.715985 
L 553.073458 104.981137 
L 542.192431 107.453656 
L 531.311403 109.842559 
L 520.430375 117.2919 
L 509.549348 127.632828 
L 498.66832 134.531513 
L 487.787292 139.089915 
L 476.906265 143.578276 
L 466.025237 161.592943 
L 455.144209 162.534802 
L 444.263182 172.719904 
z
" clip-path="url(#pdeb5271fa2)" style="fill: #095086; fill-opacity: 0.1"/>
   </g>
   <g id="PolyCollection_4">
    <path d="M 444.263182 174.965823 
L 444.263182 248.974303 
L 455.144209 242.128001 
L 466.025237 239.358444 
L 476.906265 224.363057 
L 487.787292 213.855425 
L 498.66832 194.749608 
L 509.549348 182.462122 
L 520.430375 174.214774 
L 531.311403 173.620138 
L 542.192431 165.406669 
L 553.073458 165.517429 
L 563.954486 161.178765 
L 574.835514 164.434053 
L 585.716542 163.065551 
L 596.597569 158.300018 
L 607.478597 160.029114 
L 618.359625 153.699128 
L 629.240652 151.696381 
L 640.12168 141.830079 
L 651.002708 139.1305 
L 661.883735 127.736795 
L 672.764763 124.14149 
L 683.645791 118.068583 
L 694.526818 116.706983 
L 694.526818 68.441193 
L 694.526818 68.441193 
L 683.645791 67.670662 
L 672.764763 63.370963 
L 661.883735 72.542752 
L 651.002708 79.590405 
L 640.12168 79.727959 
L 629.240652 85.465883 
L 618.359625 91.974532 
L 607.478597 96.993075 
L 596.597569 95.885039 
L 585.716542 93.956638 
L 574.835514 98.2624 
L 563.954486 105.773386 
L 553.073458 102.853288 
L 542.192431 105.801181 
L 531.311403 104.680541 
L 520.430375 111.178735 
L 509.549348 122.791312 
L 498.66832 127.526618 
L 487.787292 129.699292 
L 476.906265 144.725849 
L 466.025237 162.357481 
L 455.144209 170.581811 
L 444.263182 174.965823 
z
" clip-path="url(#pdeb5271fa2)" style="fill: #b00000; fill-opacity: 0.1"/>
   </g>
   <g id="matplotlib.axis_3">
    <g id="xtick_8">
     <g id="line2d_18">
      <g>
       <use xlink:href="#m8a35428dd9" x="433.382154" y="322.5" style="stroke: #000000; stroke-width: 0.8"/>
      </g>
     </g>
     <g id="text_17">
      <!-- 0 -->
      <g transform="translate(428.37731 342.412188) scale(0.18 -0.18)">
       <use xlink:href="#Helvetica-30"/>
      </g>
     </g>
    </g>
    <g id="xtick_9">
     <g id="line2d_19">
      <g>
       <use xlink:href="#m8a35428dd9" x="476.906265" y="322.5" style="stroke: #000000; stroke-width: 0.8"/>
      </g>
     </g>
     <g id="text_18">
      <!-- 4 -->
      <g transform="translate(471.901421 342.412188) scale(0.18 -0.18)">
       <use xlink:href="#Helvetica-34"/>
      </g>
     </g>
    </g>
    <g id="xtick_10">
     <g id="line2d_20">
      <g>
       <use xlink:href="#m8a35428dd9" x="520.430375" y="322.5" style="stroke: #000000; stroke-width: 0.8"/>
      </g>
     </g>
     <g id="text_19">
      <!-- 8 -->
      <g transform="translate(515.425532 342.412188) scale(0.18 -0.18)">
       <use xlink:href="#Helvetica-38"/>
      </g>
     </g>
    </g>
    <g id="xtick_11">
     <g id="line2d_21">
      <g>
       <use xlink:href="#m8a35428dd9" x="563.954486" y="322.5" style="stroke: #000000; stroke-width: 0.8"/>
      </g>
     </g>
     <g id="text_20">
      <!-- 12 -->
      <g transform="translate(553.944799 342.412188) scale(0.18 -0.18)">
       <use xlink:href="#Helvetica-31"/>
       <use xlink:href="#Helvetica-32" x="55.615234"/>
      </g>
     </g>
    </g>
    <g id="xtick_12">
     <g id="line2d_22">
      <g>
       <use xlink:href="#m8a35428dd9" x="607.478597" y="322.5" style="stroke: #000000; stroke-width: 0.8"/>
      </g>
     </g>
     <g id="text_21">
      <!-- 16 -->
      <g transform="translate(597.468909 342.412188) scale(0.18 -0.18)">
       <use xlink:href="#Helvetica-31"/>
       <use xlink:href="#Helvetica-36" x="55.615234"/>
      </g>
     </g>
    </g>
    <g id="xtick_13">
     <g id="line2d_23">
      <g>
       <use xlink:href="#m8a35428dd9" x="651.002708" y="322.5" style="stroke: #000000; stroke-width: 0.8"/>
      </g>
     </g>
     <g id="text_22">
      <!-- 20 -->
      <g transform="translate(640.99302 342.412188) scale(0.18 -0.18)">
       <use xlink:href="#Helvetica-32"/>
       <use xlink:href="#Helvetica-30" x="55.615234"/>
      </g>
     </g>
    </g>
    <g id="xtick_14">
     <g id="line2d_24">
      <g>
       <use xlink:href="#m8a35428dd9" x="694.526818" y="322.5" style="stroke: #000000; stroke-width: 0.8"/>
      </g>
     </g>
     <g id="text_23">
      <!-- 24 -->
      <g transform="translate(684.517131 342.412188) scale(0.18 -0.18)">
       <use xlink:href="#Helvetica-32"/>
       <use xlink:href="#Helvetica-34" x="55.615234"/>
      </g>
     </g>
    </g>
    <g id="text_24">
     <!-- Trial -->
     <g transform="translate(551.897031 363.07625) scale(0.18 -0.18)">
      <use xlink:href="#Helvetica-54"/>
      <use xlink:href="#Helvetica-72" x="61.083984"/>
      <use xlink:href="#Helvetica-69" x="94.384766"/>
      <use xlink:href="#Helvetica-61" x="116.601562"/>
      <use xlink:href="#Helvetica-6c" x="172.216797"/>
     </g>
    </g>
   </g>
   <g id="matplotlib.axis_4">
    <g id="ytick_5">
     <g id="line2d_25">
      <g>
       <use xlink:href="#m4bf4dbbba8" x="431.75" y="266.112" style="stroke: #000000; stroke-width: 0.8"/>
      </g>
     </g>
     <g id="text_25">
      <!-- 40 -->
      <g transform="translate(404.730625 272.568094) scale(0.18 -0.18)">
       <use xlink:href="#Helvetica-34"/>
       <use xlink:href="#Helvetica-30" x="55.615234"/>
      </g>
     </g>
    </g>
    <g id="ytick_6">
     <g id="line2d_26">
      <g>
       <use xlink:href="#m4bf4dbbba8" x="431.75" y="190.928" style="stroke: #000000; stroke-width: 0.8"/>
      </g>
     </g>
     <g id="text_26">
      <!-- 60 -->
      <g transform="translate(404.730625 197.384094) scale(0.18 -0.18)">
       <use xlink:href="#Helvetica-36"/>
       <use xlink:href="#Helvetica-30" x="55.615234"/>
      </g>
     </g>
    </g>
    <g id="ytick_7">
     <g id="line2d_27">
      <g>
       <use xlink:href="#m4bf4dbbba8" x="431.75" y="115.744" style="stroke: #000000; stroke-width: 0.8"/>
      </g>
     </g>
     <g id="text_27">
      <!-- 80 -->
      <g transform="translate(404.730625 122.200094) scale(0.18 -0.18)">
       <use xlink:href="#Helvetica-38"/>
       <use xlink:href="#Helvetica-30" x="55.615234"/>
      </g>
     </g>
    </g>
    <g id="ytick_8">
     <g id="line2d_28">
      <g>
       <use xlink:href="#m4bf4dbbba8" x="431.75" y="40.56" style="stroke: #000000; stroke-width: 0.8"/>
      </g>
     </g>
     <g id="text_28">
      <!-- 100 -->
      <g transform="translate(394.720938 47.016094) scale(0.18 -0.18)">
       <use xlink:href="#Helvetica-31"/>
       <use xlink:href="#Helvetica-30" x="55.615234"/>
       <use xlink:href="#Helvetica-30" x="111.230469"/>
      </g>
     </g>
    </g>
    <g id="text_29">
     <!-- Accuracy (%) -->
     <g transform="translate(386.862188 235.036406) rotate(-90) scale(0.18 -0.18)">
      <use xlink:href="#Helvetica-41"/>
      <use xlink:href="#Helvetica-63" x="66.699219"/>
      <use xlink:href="#Helvetica-63" x="116.699219"/>
      <use xlink:href="#Helvetica-75" x="166.699219"/>
      <use xlink:href="#Helvetica-72" x="222.314453"/>
      <use xlink:href="#Helvetica-61" x="255.615234"/>
      <use xlink:href="#Helvetica-63" x="311.230469"/>
      <use xlink:href="#Helvetica-79" x="361.230469"/>
      <use xlink:href="#Helvetica-20" x="411.230469"/>
      <use xlink:href="#Helvetica-28" x="439.013672"/>
      <use xlink:href="#Helvetica-25" x="472.314453"/>
      <use xlink:href="#Helvetica-29" x="561.230469"/>
     </g>
    </g>
   </g>
   <g id="line2d_29">
    <path d="M 444.263182 210.787925 
L 455.144209 201.035283 
L 466.025237 197.311547 
L 476.906265 178.160906 
L 487.787292 171.068075 
L 498.66832 165.393811 
L 509.549348 161.847396 
L 520.430375 152.626717 
L 531.311403 145.533887 
L 542.192431 140.568906 
L 553.073458 136.313208 
L 563.954486 127.801811 
L 574.835514 127.801811 
L 585.716542 129.92966 
L 596.597569 125.673962 
L 607.478597 119.290415 
L 618.359625 118.581132 
L 629.240652 112.197585 
L 640.12168 107.941887 
L 651.002708 108.65117 
L 661.883735 105.104755 
L 672.764763 103.686189 
L 683.645791 103.508868 
L 694.526818 100.849057 
" clip-path="url(#pdeb5271fa2)" style="fill: none; stroke: #095086; stroke-opacity: 0.75; stroke-width: 3; stroke-linecap: square"/>
   </g>
   <g id="line2d_30">
    <path d="M 444.263182 189.509434 
L 455.144209 177.096981 
L 466.025237 166.103094 
L 476.906265 147.661736 
L 487.787292 133.476075 
L 498.66832 123.546113 
L 509.549348 115.034717 
L 520.430375 108.65117 
L 531.311403 100.849057 
L 542.192431 98.011925 
L 553.073458 93.046943 
L 563.954486 92.33766 
L 574.835514 92.33766 
L 585.716542 98.011925 
L 596.597569 92.33766 
L 607.478597 88.791245 
L 618.359625 84.535547 
L 629.240652 83.826264 
L 640.12168 73.896302 
L 651.002708 75.314868 
L 661.883735 77.442717 
L 672.764763 77.442717 
L 683.645791 75.137547 
L 694.526818 80.752704 
" clip-path="url(#pdeb5271fa2)" style="fill: none; stroke-dasharray: 7.4,3.2; stroke-dashoffset: 0; stroke: #095086; stroke-opacity: 0.75; stroke-width: 2"/>
   </g>
   <g id="line2d_31">
    <path d="M 444.263182 211.970063 
L 455.144209 206.354906 
L 466.025237 200.857962 
L 476.906265 184.544453 
L 487.787292 171.777358 
L 498.66832 161.138113 
L 509.549348 152.626717 
L 520.430375 142.696755 
L 531.311403 139.15034 
L 542.192431 135.603925 
L 553.073458 134.185358 
L 563.954486 133.476075 
L 574.835514 131.348226 
L 585.716542 128.511094 
L 596.597569 127.092528 
L 607.478597 128.511094 
L 618.359625 122.83683 
L 629.240652 118.581132 
L 640.12168 110.779019 
L 651.002708 109.360453 
L 661.883735 100.139774 
L 672.764763 93.756226 
L 683.645791 92.869623 
L 694.526818 92.574088 
" clip-path="url(#pdeb5271fa2)" style="fill: none; stroke: #b00000; stroke-opacity: 0.75; stroke-width: 3; stroke-linecap: square"/>
   </g>
   <g id="line2d_32">
    <path d="M 444.263182 191.873711 
L 455.144209 188.62283 
L 466.025237 177.451623 
L 476.906265 161.138113 
L 487.787292 148.371019 
L 498.66832 132.057509 
L 509.549348 116.453283 
L 520.430375 109.360453 
L 531.311403 106.523321 
L 542.192431 102.976906 
L 553.073458 101.55834 
L 563.954486 102.976906 
L 574.835514 100.849057 
L 585.716542 97.302642 
L 596.597569 93.756226 
L 607.478597 91.628377 
L 618.359625 88.791245 
L 629.240652 87.372679 
L 640.12168 86.663396 
L 651.002708 87.372679 
L 661.883735 83.826264 
L 672.764763 79.570566 
L 683.645791 79.570566 
L 694.526818 76.024151 
" clip-path="url(#pdeb5271fa2)" style="fill: none; stroke-dasharray: 7.4,3.2; stroke-dashoffset: 0; stroke: #b00000; stroke-opacity: 0.75; stroke-width: 2"/>
   </g>
   <g id="patch_6">
    <path d="M 431.75 322.5 
L 431.75 40.56 
" style="fill: none; stroke: #000000; stroke-width: 0.8; stroke-linejoin: miter; stroke-linecap: square"/>
   </g>
   <g id="patch_7">
    <path d="M 431.75 322.5 
L 707.04 322.5 
" style="fill: none; stroke: #000000; stroke-width: 0.8; stroke-linejoin: miter; stroke-linecap: square"/>
   </g>
   <g id="text_30">
    <!-- Acute Pain -->
    <g transform="translate(517.1635 34.56) scale(0.216 -0.216)">
     <defs>
      <path id="Helvetica-74" d="M 525 4281 
L 1094 4281 
L 1094 3347 
L 1628 3347 
L 1628 2888 
L 1094 2888 
L 1094 703 
Q 1094 528 1213 469 
Q 1278 434 1431 434 
Q 1472 434 1519 436 
Q 1566 438 1628 444 
L 1628 0 
Q 1531 -28 1426 -40 
Q 1322 -53 1200 -53 
Q 806 -53 665 148 
Q 525 350 525 672 
L 525 2888 
L 72 2888 
L 72 3347 
L 525 3347 
L 525 4281 
z
" transform="scale(0.015625)"/>
     </defs>
     <use xlink:href="#Helvetica-41"/>
     <use xlink:href="#Helvetica-63" x="66.699219"/>
     <use xlink:href="#Helvetica-75" x="116.699219"/>
     <use xlink:href="#Helvetica-74" x="172.314453"/>
     <use xlink:href="#Helvetica-65" x="200.097656"/>
     <use xlink:href="#Helvetica-20" x="255.712891"/>
     <use xlink:href="#Helvetica-50" x="283.496094"/>
     <use xlink:href="#Helvetica-61" x="350.195312"/>
     <use xlink:href="#Helvetica-69" x="405.810547"/>
     <use xlink:href="#Helvetica-6e" x="428.027344"/>
    </g>
   </g>
   <g id="legend_2">
    <g id="line2d_33">
     <path d="M 578.41875 270.584063 
L 596.41875 270.584063 
L 614.41875 270.584063 
" style="fill: none; stroke: #095086; stroke-opacity: 0.75; stroke-width: 3; stroke-linecap: square"/>
    </g>
    <g id="text_31">
     <!-- Reward -->
     <g transform="translate(628.81875 276.884063) scale(0.18 -0.18)">
      <use xlink:href="#Helvetica-52"/>
      <use xlink:href="#Helvetica-65" x="72.216797"/>
      <use xlink:href="#Helvetica-77" x="127.832031"/>
      <use xlink:href="#Helvetica-61" x="200.048828"/>
      <use xlink:href="#Helvetica-72" x="255.664062"/>
      <use xlink:href="#Helvetica-64" x="288.964844"/>
     </g>
    </g>
    <g id="line2d_34">
     <path d="M 578.41875 296.248125 
L 596.41875 296.248125 
L 614.41875 296.248125 
" style="fill: none; stroke: #b00000; stroke-opacity: 0.75; stroke-width: 3; stroke-linecap: square"/>
    </g>
    <g id="text_32">
     <!-- Punish -->
     <g transform="translate(628.81875 302.548125) scale(0.18 -0.18)">
      <use xlink:href="#Helvetica-50"/>
      <use xlink:href="#Helvetica-75" x="66.699219"/>
      <use xlink:href="#Helvetica-6e" x="122.314453"/>
      <use xlink:href="#Helvetica-69" x="177.929688"/>
      <use xlink:href="#Helvetica-73" x="200.146484"/>
      <use xlink:href="#Helvetica-68" x="250.146484"/>
     </g>
    </g>
   </g>
  </g>
  <g id="axes_3">
   <g id="patch_8">
    <path d="M 785.27 322.5 
L 1060.56 322.5 
L 1060.56 40.56 
L 785.27 40.56 
z
" style="fill: #ffffff"/>
   </g>
   <g id="PolyCollection_5">
    <path d="M 797.783182 179.756088 
L 797.783182 241.941006 
L 808.664209 234.59429 
L 819.545237 226.319403 
L 830.426265 209.69274 
L 841.307292 201.942756 
L 852.18832 193.794981 
L 863.069348 179.652753 
L 873.950375 164.052481 
L 884.831403 154.744992 
L 895.712431 146.566871 
L 906.593458 138.532318 
L 917.474486 140.916474 
L 928.355514 137.431197 
L 939.236542 136.689427 
L 950.117569 136.137021 
L 960.998597 135.065673 
L 971.879625 133.539249 
L 982.760652 133.846504 
L 993.64168 130.835585 
L 1004.522708 129.739212 
L 1015.403735 121.521929 
L 1026.284763 127.532402 
L 1037.165791 122.128963 
L 1048.046818 127.126198 
L 1048.046818 82.51346 
L 1048.046818 82.51346 
L 1037.165791 78.273345 
L 1026.284763 76.002573 
L 1015.403735 84.904738 
L 1004.522708 82.470839 
L 993.64168 83.302261 
L 982.760652 86.074727 
L 971.879625 87.34588 
L 960.998597 86.783353 
L 950.117569 88.603697 
L 939.236542 85.159598 
L 928.355514 85.381726 
L 917.474486 89.607629 
L 906.593458 93.91958 
L 895.712431 90.704514 
L 884.831403 108.551623 
L 873.950375 121.413776 
L 863.069348 120.271965 
L 852.18832 134.082763 
L 841.307292 146.176834 
L 830.426265 146.138029 
L 819.545237 168.067264 
L 808.664209 175.45571 
L 797.783182 179.756088 
z
" clip-path="url(#p839d938ab1)" style="fill: #095086; fill-opacity: 0.1"/>
   </g>
   <g id="PolyCollection_6">
    <path d="M 797.783182 171.916036 
L 797.783182 225.683622 
L 808.664209 222.472842 
L 819.545237 217.300647 
L 830.426265 201.157251 
L 841.307292 197.019968 
L 852.18832 187.977719 
L 863.069348 178.313259 
L 873.950375 171.081947 
L 884.831403 163.157673 
L 895.712431 153.089008 
L 906.593458 147.787572 
L 917.474486 144.073601 
L 928.355514 138.771652 
L 939.236542 138.177429 
L 950.117569 136.137021 
L 960.998597 133.725281 
L 971.879625 135.171127 
L 982.760652 128.594942 
L 993.64168 128.325866 
L 1004.522708 122.037053 
L 1015.403735 123.711416 
L 1026.284763 119.627309 
L 1037.165791 122.279735 
L 1048.046818 126.3354 
L 1048.046818 76.878275 
L 1048.046818 76.878275 
L 1037.165791 74.507957 
L 1026.284763 76.196486 
L 1015.403735 81.751354 
L 1004.522708 78.606229 
L 993.64168 78.100801 
L 982.760652 86.506801 
L 971.879625 85.714001 
L 960.998597 84.268155 
L 950.117569 88.603697 
L 939.236542 88.491083 
L 928.355514 94.644143 
L 917.474486 96.089476 
L 906.593458 99.122787 
L 895.712431 104.424223 
L 884.831403 110.741814 
L 873.950375 115.348207 
L 863.069348 121.611459 
L 852.18832 133.152742 
L 841.307292 142.424545 
L 830.426265 147.926236 
L 819.545237 158.771968 
L 808.664209 167.094337 
L 797.783182 171.916036 
z
" clip-path="url(#p839d938ab1)" style="fill: #b00000; fill-opacity: 0.1"/>
   </g>
   <g id="matplotlib.axis_5">
    <g id="xtick_15">
     <g id="line2d_35">
      <g>
       <use xlink:href="#m8a35428dd9" x="786.902154" y="322.5" style="stroke: #000000; stroke-width: 0.8"/>
      </g>
     </g>
     <g id="text_33">
      <!-- 0 -->
      <g transform="translate(781.89731 342.412188) scale(0.18 -0.18)">
       <use xlink:href="#Helvetica-30"/>
      </g>
     </g>
    </g>
    <g id="xtick_16">
     <g id="line2d_36">
      <g>
       <use xlink:href="#m8a35428dd9" x="830.426265" y="322.5" style="stroke: #000000; stroke-width: 0.8"/>
      </g>
     </g>
     <g id="text_34">
      <!-- 4 -->
      <g transform="translate(825.421421 342.412188) scale(0.18 -0.18)">
       <use xlink:href="#Helvetica-34"/>
      </g>
     </g>
    </g>
    <g id="xtick_17">
     <g id="line2d_37">
      <g>
       <use xlink:href="#m8a35428dd9" x="873.950375" y="322.5" style="stroke: #000000; stroke-width: 0.8"/>
      </g>
     </g>
     <g id="text_35">
      <!-- 8 -->
      <g transform="translate(868.945532 342.412188) scale(0.18 -0.18)">
       <use xlink:href="#Helvetica-38"/>
      </g>
     </g>
    </g>
    <g id="xtick_18">
     <g id="line2d_38">
      <g>
       <use xlink:href="#m8a35428dd9" x="917.474486" y="322.5" style="stroke: #000000; stroke-width: 0.8"/>
      </g>
     </g>
     <g id="text_36">
      <!-- 12 -->
      <g transform="translate(907.464799 342.412188) scale(0.18 -0.18)">
       <use xlink:href="#Helvetica-31"/>
       <use xlink:href="#Helvetica-32" x="55.615234"/>
      </g>
     </g>
    </g>
    <g id="xtick_19">
     <g id="line2d_39">
      <g>
       <use xlink:href="#m8a35428dd9" x="960.998597" y="322.5" style="stroke: #000000; stroke-width: 0.8"/>
      </g>
     </g>
     <g id="text_37">
      <!-- 16 -->
      <g transform="translate(950.988909 342.412188) scale(0.18 -0.18)">
       <use xlink:href="#Helvetica-31"/>
       <use xlink:href="#Helvetica-36" x="55.615234"/>
      </g>
     </g>
    </g>
    <g id="xtick_20">
     <g id="line2d_40">
      <g>
       <use xlink:href="#m8a35428dd9" x="1004.522708" y="322.5" style="stroke: #000000; stroke-width: 0.8"/>
      </g>
     </g>
     <g id="text_38">
      <!-- 20 -->
      <g transform="translate(994.51302 342.412188) scale(0.18 -0.18)">
       <use xlink:href="#Helvetica-32"/>
       <use xlink:href="#Helvetica-30" x="55.615234"/>
      </g>
     </g>
    </g>
    <g id="xtick_21">
     <g id="line2d_41">
      <g>
       <use xlink:href="#m8a35428dd9" x="1048.046818" y="322.5" style="stroke: #000000; stroke-width: 0.8"/>
      </g>
     </g>
     <g id="text_39">
      <!-- 24 -->
      <g transform="translate(1038.037131 342.412188) scale(0.18 -0.18)">
       <use xlink:href="#Helvetica-32"/>
       <use xlink:href="#Helvetica-34" x="55.615234"/>
      </g>
     </g>
    </g>
    <g id="text_40">
     <!-- Trial -->
     <g transform="translate(905.417031 363.07625) scale(0.18 -0.18)">
      <use xlink:href="#Helvetica-54"/>
      <use xlink:href="#Helvetica-72" x="61.083984"/>
      <use xlink:href="#Helvetica-69" x="94.384766"/>
      <use xlink:href="#Helvetica-61" x="116.601562"/>
      <use xlink:href="#Helvetica-6c" x="172.216797"/>
     </g>
    </g>
   </g>
   <g id="matplotlib.axis_6">
    <g id="ytick_9">
     <g id="line2d_42">
      <g>
       <use xlink:href="#m4bf4dbbba8" x="785.27" y="266.112" style="stroke: #000000; stroke-width: 0.8"/>
      </g>
     </g>
     <g id="text_41">
      <!-- 40 -->
      <g transform="translate(758.250625 272.568094) scale(0.18 -0.18)">
       <use xlink:href="#Helvetica-34"/>
       <use xlink:href="#Helvetica-30" x="55.615234"/>
      </g>
     </g>
    </g>
    <g id="ytick_10">
     <g id="line2d_43">
      <g>
       <use xlink:href="#m4bf4dbbba8" x="785.27" y="190.928" style="stroke: #000000; stroke-width: 0.8"/>
      </g>
     </g>
     <g id="text_42">
      <!-- 60 -->
      <g transform="translate(758.250625 197.384094) scale(0.18 -0.18)">
       <use xlink:href="#Helvetica-36"/>
       <use xlink:href="#Helvetica-30" x="55.615234"/>
      </g>
     </g>
    </g>
    <g id="ytick_11">
     <g id="line2d_44">
      <g>
       <use xlink:href="#m4bf4dbbba8" x="785.27" y="115.744" style="stroke: #000000; stroke-width: 0.8"/>
      </g>
     </g>
     <g id="text_43">
      <!-- 80 -->
      <g transform="translate(758.250625 122.200094) scale(0.18 -0.18)">
       <use xlink:href="#Helvetica-38"/>
       <use xlink:href="#Helvetica-30" x="55.615234"/>
      </g>
     </g>
    </g>
    <g id="ytick_12">
     <g id="line2d_45">
      <g>
       <use xlink:href="#m4bf4dbbba8" x="785.27" y="40.56" style="stroke: #000000; stroke-width: 0.8"/>
      </g>
     </g>
     <g id="text_44">
      <!-- 100 -->
      <g transform="translate(748.240938 47.016094) scale(0.18 -0.18)">
       <use xlink:href="#Helvetica-31"/>
       <use xlink:href="#Helvetica-30" x="55.615234"/>
       <use xlink:href="#Helvetica-30" x="111.230469"/>
      </g>
     </g>
    </g>
    <g id="text_45">
     <!-- Accuracy (%) -->
     <g transform="translate(740.382188 235.036406) rotate(-90) scale(0.18 -0.18)">
      <use xlink:href="#Helvetica-41"/>
      <use xlink:href="#Helvetica-63" x="66.699219"/>
      <use xlink:href="#Helvetica-63" x="116.699219"/>
      <use xlink:href="#Helvetica-75" x="166.699219"/>
      <use xlink:href="#Helvetica-72" x="222.314453"/>
      <use xlink:href="#Helvetica-61" x="255.615234"/>
      <use xlink:href="#Helvetica-63" x="311.230469"/>
      <use xlink:href="#Helvetica-79" x="361.230469"/>
      <use xlink:href="#Helvetica-20" x="411.230469"/>
      <use xlink:href="#Helvetica-28" x="439.013672"/>
      <use xlink:href="#Helvetica-25" x="472.314453"/>
      <use xlink:href="#Helvetica-29" x="561.230469"/>
     </g>
    </g>
   </g>
   <g id="line2d_46">
    <path d="M 797.783182 210.848547 
L 808.664209 205.025 
L 819.545237 197.193333 
L 830.426265 177.915385 
L 841.307292 174.059795 
L 852.18832 163.938872 
L 863.069348 149.962359 
L 873.950375 142.733128 
L 884.831403 131.648308 
L 895.712431 118.635692 
L 906.593458 116.225949 
L 917.474486 115.262051 
L 928.355514 111.406462 
L 939.236542 110.924513 
L 950.117569 112.370359 
L 960.998597 110.924513 
L 971.879625 110.442564 
L 982.760652 109.960615 
L 993.64168 107.068923 
L 1004.522708 106.105026 
L 1015.403735 103.213333 
L 1026.284763 101.767487 
L 1037.165791 100.201154 
L 1048.046818 104.819829 
" clip-path="url(#p839d938ab1)" style="fill: none; stroke: #095086; stroke-opacity: 0.75; stroke-width: 3; stroke-linecap: square"/>
   </g>
   <g id="line2d_47">
    <path d="M 797.783182 198.799829 
L 808.664209 186.951923 
L 819.545237 177.915385 
L 830.426265 160.083282 
L 841.307292 140.323385 
L 852.18832 126.828821 
L 863.069348 119.59959 
L 873.950375 111.406462 
L 884.831403 105.141128 
L 895.712431 105.141128 
L 906.593458 99.357744 
L 917.474486 95.502154 
L 928.355514 92.128513 
L 939.236542 91.164615 
L 950.117569 83.935385 
L 960.998597 85.863179 
L 971.879625 83.453436 
L 982.760652 82.00759 
L 993.64168 76.706154 
L 1004.522708 79.597846 
L 1015.403735 76.706154 
L 1026.284763 74.778359 
L 1037.165791 74.29641 
L 1048.046818 75.902906 
" clip-path="url(#p839d938ab1)" style="fill: none; stroke-dasharray: 7.4,3.2; stroke-dashoffset: 0; stroke: #095086; stroke-opacity: 0.75; stroke-width: 2"/>
   </g>
   <g id="line2d_48">
    <path d="M 797.783182 198.799829 
L 808.664209 194.78359 
L 819.545237 188.036308 
L 830.426265 174.541744 
L 841.307292 169.722256 
L 852.18832 160.565231 
L 863.069348 149.962359 
L 873.950375 143.215077 
L 884.831403 136.949744 
L 895.712431 128.756615 
L 906.593458 123.455179 
L 917.474486 120.081538 
L 928.355514 116.707897 
L 939.236542 113.334256 
L 950.117569 112.370359 
L 960.998597 108.996718 
L 971.879625 110.442564 
L 982.760652 107.550872 
L 993.64168 103.213333 
L 1004.522708 100.321641 
L 1015.403735 102.731385 
L 1026.284763 97.911897 
L 1037.165791 98.393846 
L 1048.046818 101.606838 
" clip-path="url(#p839d938ab1)" style="fill: none; stroke: #b00000; stroke-opacity: 0.75; stroke-width: 3; stroke-linecap: square"/>
   </g>
   <g id="line2d_49">
    <path d="M 797.783182 205.225812 
L 808.664209 195.386026 
L 819.545237 189.964103 
L 830.426265 168.27641 
L 841.307292 152.854051 
L 852.18832 140.805333 
L 863.069348 127.310769 
L 873.950375 116.225949 
L 884.831403 108.032821 
L 895.712431 99.357744 
L 906.593458 94.056308 
L 917.474486 95.502154 
L 928.355514 91.646564 
L 939.236542 91.164615 
L 950.117569 92.128513 
L 960.998597 91.646564 
L 971.879625 86.345128 
L 982.760652 85.381231 
L 993.64168 82.489538 
L 1004.522708 79.597846 
L 1015.403735 76.224205 
L 1026.284763 73.814462 
L 1037.165791 70.079359 
L 1048.046818 67.067179 
" clip-path="url(#p839d938ab1)" style="fill: none; stroke-dasharray: 7.4,3.2; stroke-dashoffset: 0; stroke: #b00000; stroke-opacity: 0.75; stroke-width: 2"/>
   </g>
   <g id="patch_9">
    <path d="M 785.27 322.5 
L 785.27 40.56 
" style="fill: none; stroke: #000000; stroke-width: 0.8; stroke-linejoin: miter; stroke-linecap: square"/>
   </g>
   <g id="patch_10">
    <path d="M 785.27 322.5 
L 1060.56 322.5 
" style="fill: none; stroke: #000000; stroke-width: 0.8; stroke-linejoin: miter; stroke-linecap: square"/>
   </g>
   <g id="text_46">
    <!-- Chronic Pain -->
    <g transform="translate(861.086687 34.56) scale(0.216 -0.216)">
     <defs>
      <path id="Helvetica-43" d="M 2422 4716 
Q 3294 4716 3775 4256 
Q 4256 3797 4309 3213 
L 3703 3213 
Q 3600 3656 3292 3915 
Q 2984 4175 2428 4175 
Q 1750 4175 1333 3698 
Q 916 3222 916 2238 
Q 916 1431 1292 929 
Q 1669 428 2416 428 
Q 3103 428 3463 956 
Q 3653 1234 3747 1688 
L 4353 1688 
Q 4272 963 3816 472 
Q 3269 -119 2341 -119 
Q 1541 -119 997 366 
Q 281 1006 281 2344 
Q 281 3359 819 4009 
Q 1400 4716 2422 4716 
z
M 2297 4716 
L 2297 4716 
z
" transform="scale(0.015625)"/>
     </defs>
     <use xlink:href="#Helvetica-43"/>
     <use xlink:href="#Helvetica-68" x="72.216797"/>
     <use xlink:href="#Helvetica-72" x="127.832031"/>
     <use xlink:href="#Helvetica-6f" x="161.132812"/>
     <use xlink:href="#Helvetica-6e" x="216.748047"/>
     <use xlink:href="#Helvetica-69" x="272.363281"/>
     <use xlink:href="#Helvetica-63" x="294.580078"/>
     <use xlink:href="#Helvetica-20" x="344.580078"/>
     <use xlink:href="#Helvetica-50" x="372.363281"/>
     <use xlink:href="#Helvetica-61" x="439.0625"/>
     <use xlink:href="#Helvetica-69" x="494.677734"/>
     <use xlink:href="#Helvetica-6e" x="516.894531"/>
    </g>
   </g>
   <g id="legend_3">
    <g id="line2d_50">
     <path d="M 931.93875 270.584063 
L 949.93875 270.584063 
L 967.93875 270.584063 
" style="fill: none; stroke: #095086; stroke-opacity: 0.75; stroke-width: 3; stroke-linecap: square"/>
    </g>
    <g id="text_47">
     <!-- Reward -->
     <g transform="translate(982.33875 276.884063) scale(0.18 -0.18)">
      <use xlink:href="#Helvetica-52"/>
      <use xlink:href="#Helvetica-65" x="72.216797"/>
      <use xlink:href="#Helvetica-77" x="127.832031"/>
      <use xlink:href="#Helvetica-61" x="200.048828"/>
      <use xlink:href="#Helvetica-72" x="255.664062"/>
      <use xlink:href="#Helvetica-64" x="288.964844"/>
     </g>
    </g>
    <g id="line2d_51">
     <path d="M 931.93875 296.248125 
L 949.93875 296.248125 
L 967.93875 296.248125 
" style="fill: none; stroke: #b00000; stroke-opacity: 0.75; stroke-width: 3; stroke-linecap: square"/>
    </g>
    <g id="text_48">
     <!-- Punish -->
     <g transform="translate(982.33875 302.548125) scale(0.18 -0.18)">
      <use xlink:href="#Helvetica-50"/>
      <use xlink:href="#Helvetica-75" x="66.699219"/>
      <use xlink:href="#Helvetica-6e" x="122.314453"/>
      <use xlink:href="#Helvetica-69" x="177.929688"/>
      <use xlink:href="#Helvetica-73" x="200.146484"/>
      <use xlink:href="#Helvetica-68" x="250.146484"/>
     </g>
    </g>
   </g>
  </g>
  <g id="axes_4">
   <g id="patch_11">
    <path d="M 78.23 676.28 
L 353.52 676.28 
L 353.52 394.34 
L 78.23 394.34 
z
" style="fill: #ffffff"/>
   </g>
   <g id="patch_12">
    <path d="M 90.743182 676.28 
L 132.453788 676.28 
L 132.453788 428.903756 
L 90.743182 428.903756 
z
" clip-path="url(#p1f7be7d9ff)" style="fill: #095086; opacity: 0.75"/>
   </g>
   <g id="patch_13">
    <path d="M 142.881439 676.28 
L 184.592045 676.28 
L 184.592045 522.766281 
L 142.881439 522.766281 
z
" clip-path="url(#p1f7be7d9ff)" style="fill: #9bd2f2; opacity: 0.75"/>
   </g>
   <g id="patch_14">
    <path d="M 195.019697 676.28 
L 236.730303 676.28 
L 236.730303 535.910428 
L 195.019697 535.910428 
z
" clip-path="url(#p1f7be7d9ff)" style="fill: #eca6a6; opacity: 0.75"/>
   </g>
   <g id="patch_15">
    <path d="M 247.157955 676.28 
L 288.868561 676.28 
L 288.868561 639.131794 
L 247.157955 639.131794 
z
" clip-path="url(#p1f7be7d9ff)" style="fill: #b00000; opacity: 0.75"/>
   </g>
   <g id="patch_16">
    <path d="M 299.296212 676.28 
L 341.006818 676.28 
L 341.006818 571.309561 
L 299.296212 571.309561 
z
" clip-path="url(#p1f7be7d9ff)" style="fill: #d3d3d3; opacity: 0.75"/>
   </g>
   <g id="PathCollection_1">
    <defs>
     <path id="me882d0a72f" d="M 0 4.242641 
L 4.242641 0 
L 0 -4.242641 
L -4.242641 0 
z
" style="stroke: #808080; stroke-opacity: 0.75"/>
    </defs>
    <g clip-path="url(#p1f7be7d9ff)">
     <use xlink:href="#me882d0a72f" x="111.598485" y="433.8116" style="fill: #808080; fill-opacity: 0.75; stroke: #808080; stroke-opacity: 0.75"/>
     <use xlink:href="#me882d0a72f" x="163.736742" y="511.3451" style="fill: #808080; fill-opacity: 0.75; stroke: #808080; stroke-opacity: 0.75"/>
     <use xlink:href="#me882d0a72f" x="215.875" y="543.7682" style="fill: #808080; fill-opacity: 0.75; stroke: #808080; stroke-opacity: 0.75"/>
     <use xlink:href="#me882d0a72f" x="268.013258" y="639.6278" style="fill: #808080; fill-opacity: 0.75; stroke: #808080; stroke-opacity: 0.75"/>
     <use xlink:href="#me882d0a72f" x="320.151515" y="571.9622" style="fill: #808080; fill-opacity: 0.75; stroke: #808080; stroke-opacity: 0.75"/>
    </g>
   </g>
   <g id="matplotlib.axis_7">
    <g id="xtick_22">
     <g id="line2d_52">
      <g>
       <use xlink:href="#m8a35428dd9" x="111.598485" y="676.28" style="stroke: #000000; stroke-width: 0.8"/>
      </g>
     </g>
     <g id="text_49">
      <!-- HR -->
      <g transform="translate(98.59911 696.192188) scale(0.18 -0.18)">
       <defs>
        <path id="Helvetica-48" d="M 503 4591 
L 1131 4591 
L 1131 2694 
L 3519 2694 
L 3519 4591 
L 4147 4591 
L 4147 0 
L 3519 0 
L 3519 2147 
L 1131 2147 
L 1131 0 
L 503 0 
L 503 4591 
z
" transform="scale(0.015625)"/>
       </defs>
       <use xlink:href="#Helvetica-48"/>
       <use xlink:href="#Helvetica-52" x="72.216797"/>
      </g>
     </g>
    </g>
    <g id="xtick_23">
     <g id="line2d_53">
      <g>
       <use xlink:href="#m8a35428dd9" x="163.736742" y="676.28" style="stroke: #000000; stroke-width: 0.8"/>
      </g>
     </g>
     <g id="text_50">
      <!-- LR -->
      <g transform="translate(152.232211 696.192188) scale(0.18 -0.18)">
       <defs>
        <path id="Helvetica-4c" d="M 488 4591 
L 1109 4591 
L 1109 547 
L 3434 547 
L 3434 0 
L 488 0 
L 488 4591 
z
" transform="scale(0.015625)"/>
       </defs>
       <use xlink:href="#Helvetica-4c"/>
       <use xlink:href="#Helvetica-52" x="55.615234"/>
      </g>
     </g>
    </g>
    <g id="xtick_24">
     <g id="line2d_54">
      <g>
       <use xlink:href="#m8a35428dd9" x="215.875" y="676.28" style="stroke: #000000; stroke-width: 0.8"/>
      </g>
     </g>
     <g id="text_51">
      <!-- LP -->
      <g transform="translate(204.866875 696.192188) scale(0.18 -0.18)">
       <use xlink:href="#Helvetica-4c"/>
       <use xlink:href="#Helvetica-50" x="55.615234"/>
      </g>
     </g>
    </g>
    <g id="xtick_25">
     <g id="line2d_55">
      <g>
       <use xlink:href="#m8a35428dd9" x="268.013258" y="676.28" style="stroke: #000000; stroke-width: 0.8"/>
      </g>
     </g>
     <g id="text_52">
      <!-- HP -->
      <g transform="translate(255.510289 696.192188) scale(0.18 -0.18)">
       <use xlink:href="#Helvetica-48"/>
       <use xlink:href="#Helvetica-50" x="72.216797"/>
      </g>
     </g>
    </g>
    <g id="xtick_26">
     <g id="line2d_56">
      <g>
       <use xlink:href="#m8a35428dd9" x="320.151515" y="676.28" style="stroke: #000000; stroke-width: 0.8"/>
      </g>
     </g>
     <g id="text_53">
      <!-- N -->
      <g transform="translate(313.651828 696.192188) scale(0.18 -0.18)">
       <use xlink:href="#Helvetica-4e"/>
      </g>
     </g>
    </g>
   </g>
   <g id="matplotlib.axis_8">
    <g id="ytick_13">
     <g id="line2d_57">
      <g>
       <use xlink:href="#m4bf4dbbba8" x="78.23" y="676.28" style="stroke: #000000; stroke-width: 0.8"/>
      </g>
     </g>
     <g id="text_54">
      <!-- 0 -->
      <g transform="translate(61.220313 682.736094) scale(0.18 -0.18)">
       <use xlink:href="#Helvetica-30"/>
      </g>
     </g>
    </g>
    <g id="ytick_14">
     <g id="line2d_58">
      <g>
       <use xlink:href="#m4bf4dbbba8" x="78.23" y="619.892" style="stroke: #000000; stroke-width: 0.8"/>
      </g>
     </g>
     <g id="text_55">
      <!-- 20 -->
      <g transform="translate(51.210625 626.348094) scale(0.18 -0.18)">
       <use xlink:href="#Helvetica-32"/>
       <use xlink:href="#Helvetica-30" x="55.615234"/>
      </g>
     </g>
    </g>
    <g id="ytick_15">
     <g id="line2d_59">
      <g>
       <use xlink:href="#m4bf4dbbba8" x="78.23" y="563.504" style="stroke: #000000; stroke-width: 0.8"/>
      </g>
     </g>
     <g id="text_56">
      <!-- 40 -->
      <g transform="translate(51.210625 569.960094) scale(0.18 -0.18)">
       <use xlink:href="#Helvetica-34"/>
       <use xlink:href="#Helvetica-30" x="55.615234"/>
      </g>
     </g>
    </g>
    <g id="ytick_16">
     <g id="line2d_60">
      <g>
       <use xlink:href="#m4bf4dbbba8" x="78.23" y="507.116" style="stroke: #000000; stroke-width: 0.8"/>
      </g>
     </g>
     <g id="text_57">
      <!-- 60 -->
      <g transform="translate(51.210625 513.572094) scale(0.18 -0.18)">
       <use xlink:href="#Helvetica-36"/>
       <use xlink:href="#Helvetica-30" x="55.615234"/>
      </g>
     </g>
    </g>
    <g id="ytick_17">
     <g id="line2d_61">
      <g>
       <use xlink:href="#m4bf4dbbba8" x="78.23" y="450.728" style="stroke: #000000; stroke-width: 0.8"/>
      </g>
     </g>
     <g id="text_58">
      <!-- 80 -->
      <g transform="translate(51.210625 457.184094) scale(0.18 -0.18)">
       <use xlink:href="#Helvetica-38"/>
       <use xlink:href="#Helvetica-30" x="55.615234"/>
      </g>
     </g>
    </g>
    <g id="ytick_18">
     <g id="line2d_62">
      <g>
       <use xlink:href="#m4bf4dbbba8" x="78.23" y="394.34" style="stroke: #000000; stroke-width: 0.8"/>
      </g>
     </g>
     <g id="text_59">
      <!-- 100 -->
      <g transform="translate(41.200938 400.796094) scale(0.18 -0.18)">
       <use xlink:href="#Helvetica-31"/>
       <use xlink:href="#Helvetica-30" x="55.615234"/>
       <use xlink:href="#Helvetica-30" x="111.230469"/>
      </g>
     </g>
    </g>
    <g id="text_60">
     <!-- Choice Rate (%) -->
     <g transform="translate(33.449063 601.330625) rotate(-90) scale(0.18 -0.18)">
      <use xlink:href="#Helvetica-43"/>
      <use xlink:href="#Helvetica-68" x="72.216797"/>
      <use xlink:href="#Helvetica-6f" x="127.832031"/>
      <use xlink:href="#Helvetica-69" x="183.447266"/>
      <use xlink:href="#Helvetica-63" x="205.664062"/>
      <use xlink:href="#Helvetica-65" x="255.664062"/>
      <use xlink:href="#Helvetica-20" x="311.279297"/>
      <use xlink:href="#Helvetica-52" x="339.0625"/>
      <use xlink:href="#Helvetica-61" x="411.279297"/>
      <use xlink:href="#Helvetica-74" x="466.894531"/>
      <use xlink:href="#Helvetica-65" x="494.677734"/>
      <use xlink:href="#Helvetica-20" x="550.292969"/>
      <use xlink:href="#Helvetica-28" x="578.076172"/>
      <use xlink:href="#Helvetica-25" x="611.376953"/>
      <use xlink:href="#Helvetica-29" x="700.292969"/>
     </g>
    </g>
   </g>
   <g id="LineCollection_1">
    <path d="M 111.598485 435.143123 
L 111.598485 422.664389 
" clip-path="url(#p1f7be7d9ff)" style="fill: none; stroke: #696969; stroke-width: 1.5"/>
    <path d="M 163.736742 530.564888 
L 163.736742 514.967673 
" clip-path="url(#p1f7be7d9ff)" style="fill: none; stroke: #696969; stroke-width: 1.5"/>
    <path d="M 215.875 543.722132 
L 215.875 528.098723 
" clip-path="url(#p1f7be7d9ff)" style="fill: none; stroke: #696969; stroke-width: 1.5"/>
    <path d="M 268.013258 645.48779 
L 268.013258 632.775799 
" clip-path="url(#p1f7be7d9ff)" style="fill: none; stroke: #696969; stroke-width: 1.5"/>
    <path d="M 320.151515 582.357348 
L 320.151515 560.261774 
" clip-path="url(#p1f7be7d9ff)" style="fill: none; stroke: #696969; stroke-width: 1.5"/>
   </g>
   <g id="line2d_63">
    <defs>
     <path id="m26cdbae791" d="M 5 0 
L -5 -0 
" style="stroke: #696969"/>
    </defs>
    <g clip-path="url(#p1f7be7d9ff)">
     <use xlink:href="#m26cdbae791" x="111.598485" y="435.143123" style="fill: #696969; stroke: #696969"/>
     <use xlink:href="#m26cdbae791" x="163.736742" y="530.564888" style="fill: #696969; stroke: #696969"/>
     <use xlink:href="#m26cdbae791" x="215.875" y="543.722132" style="fill: #696969; stroke: #696969"/>
     <use xlink:href="#m26cdbae791" x="268.013258" y="645.48779" style="fill: #696969; stroke: #696969"/>
     <use xlink:href="#m26cdbae791" x="320.151515" y="582.357348" style="fill: #696969; stroke: #696969"/>
    </g>
   </g>
   <g id="line2d_64">
    <g clip-path="url(#p1f7be7d9ff)">
     <use xlink:href="#m26cdbae791" x="111.598485" y="422.664389" style="fill: #696969; stroke: #696969"/>
     <use xlink:href="#m26cdbae791" x="163.736742" y="514.967673" style="fill: #696969; stroke: #696969"/>
     <use xlink:href="#m26cdbae791" x="215.875" y="528.098723" style="fill: #696969; stroke: #696969"/>
     <use xlink:href="#m26cdbae791" x="268.013258" y="632.775799" style="fill: #696969; stroke: #696969"/>
     <use xlink:href="#m26cdbae791" x="320.151515" y="560.261774" style="fill: #696969; stroke: #696969"/>
    </g>
   </g>
   <g id="LineCollection_2">
    <path d="M 111.598485 435.143123 
L 111.598485 422.664389 
" clip-path="url(#p1f7be7d9ff)" style="fill: none; stroke: #808080; stroke-width: 1.5"/>
    <path d="M 163.736742 530.564888 
L 163.736742 514.967673 
" clip-path="url(#p1f7be7d9ff)" style="fill: none; stroke: #808080; stroke-width: 1.5"/>
    <path d="M 215.875 543.722132 
L 215.875 528.098723 
" clip-path="url(#p1f7be7d9ff)" style="fill: none; stroke: #808080; stroke-width: 1.5"/>
    <path d="M 268.013258 645.48779 
L 268.013258 632.775799 
" clip-path="url(#p1f7be7d9ff)" style="fill: none; stroke: #808080; stroke-width: 1.5"/>
    <path d="M 320.151515 582.357348 
L 320.151515 560.261774 
" clip-path="url(#p1f7be7d9ff)" style="fill: none; stroke: #808080; stroke-width: 1.5"/>
   </g>
   <g id="line2d_65">
    <defs>
     <path id="m58726c0ff0" d="M 0 1.5 
C 0.397805 1.5 0.77937 1.341951 1.06066 1.06066 
C 1.341951 0.77937 1.5 0.397805 1.5 0 
C 1.5 -0.397805 1.341951 -0.77937 1.06066 -1.06066 
C 0.77937 -1.341951 0.397805 -1.5 0 -1.5 
C -0.397805 -1.5 -0.77937 -1.341951 -1.06066 -1.06066 
C -1.341951 -0.77937 -1.5 -0.397805 -1.5 0 
C -1.5 0.397805 -1.341951 0.77937 -1.06066 1.06066 
C -0.77937 1.341951 -0.397805 1.5 0 1.5 
z
" style="stroke: #808080"/>
    </defs>
    <g clip-path="url(#p1f7be7d9ff)">
     <use xlink:href="#m58726c0ff0" x="111.598485" y="428.903756" style="fill: #808080; stroke: #808080"/>
     <use xlink:href="#m58726c0ff0" x="163.736742" y="522.766281" style="fill: #808080; stroke: #808080"/>
     <use xlink:href="#m58726c0ff0" x="215.875" y="535.910428" style="fill: #808080; stroke: #808080"/>
     <use xlink:href="#m58726c0ff0" x="268.013258" y="639.131794" style="fill: #808080; stroke: #808080"/>
     <use xlink:href="#m58726c0ff0" x="320.151515" y="571.309561" style="fill: #808080; stroke: #808080"/>
    </g>
   </g>
   <g id="patch_17">
    <path d="M 78.23 676.28 
L 78.23 394.34 
" style="fill: none; stroke: #000000; stroke-width: 0.8; stroke-linejoin: miter; stroke-linecap: square"/>
   </g>
   <g id="patch_18">
    <path d="M 78.23 676.28 
L 353.52 676.28 
" style="fill: none; stroke: #000000; stroke-width: 0.8; stroke-linejoin: miter; stroke-linecap: square"/>
   </g>
  </g>
  <g id="axes_5">
   <g id="patch_19">
    <path d="M 431.75 676.28 
L 707.04 676.28 
L 707.04 394.34 
L 431.75 394.34 
z
" style="fill: #ffffff"/>
   </g>
   <g id="patch_20">
    <path d="M 444.263182 676.28 
L 485.973788 676.28 
L 485.973788 433.652011 
L 444.263182 433.652011 
z
" clip-path="url(#p0e8f4a038d)" style="fill: #095086; opacity: 0.75"/>
   </g>
   <g id="patch_21">
    <path d="M 496.401439 676.28 
L 538.112045 676.28 
L 538.112045 525.255913 
L 496.401439 525.255913 
z
" clip-path="url(#p0e8f4a038d)" style="fill: #9bd2f2; opacity: 0.75"/>
   </g>
   <g id="patch_22">
    <path d="M 548.539697 676.28 
L 590.250303 676.28 
L 590.250303 524.404774 
L 548.539697 524.404774 
z
" clip-path="url(#p0e8f4a038d)" style="fill: #eca6a6; opacity: 0.75"/>
   </g>
   <g id="patch_23">
    <path d="M 600.677955 676.28 
L 642.388561 676.28 
L 642.388561 629.946087 
L 600.677955 629.946087 
z
" clip-path="url(#p0e8f4a038d)" style="fill: #b00000; opacity: 0.75"/>
   </g>
   <g id="patch_24">
    <path d="M 652.816212 676.28 
L 694.526818 676.28 
L 694.526818 594.411008 
L 652.816212 594.411008 
z
" clip-path="url(#p0e8f4a038d)" style="fill: #d3d3d3; opacity: 0.75"/>
   </g>
   <g id="PathCollection_2">
    <g clip-path="url(#p0e8f4a038d)">
     <use xlink:href="#me882d0a72f" x="465.118485" y="435.2213" style="fill: #808080; fill-opacity: 0.75; stroke: #808080; stroke-opacity: 0.75"/>
     <use xlink:href="#me882d0a72f" x="517.256742" y="519.8033" style="fill: #808080; fill-opacity: 0.75; stroke: #808080; stroke-opacity: 0.75"/>
     <use xlink:href="#me882d0a72f" x="569.395" y="531.0809" style="fill: #808080; fill-opacity: 0.75; stroke: #808080; stroke-opacity: 0.75"/>
     <use xlink:href="#me882d0a72f" x="621.533258" y="626.9405" style="fill: #808080; fill-opacity: 0.75; stroke: #808080; stroke-opacity: 0.75"/>
     <use xlink:href="#me882d0a72f" x="673.671515" y="594.5174" style="fill: #808080; fill-opacity: 0.75; stroke: #808080; stroke-opacity: 0.75"/>
    </g>
   </g>
   <g id="matplotlib.axis_9">
    <g id="xtick_27">
     <g id="line2d_66">
      <g>
       <use xlink:href="#m8a35428dd9" x="465.118485" y="676.28" style="stroke: #000000; stroke-width: 0.8"/>
      </g>
     </g>
     <g id="text_61">
      <!-- HR -->
      <g transform="translate(452.11911 696.192188) scale(0.18 -0.18)">
       <use xlink:href="#Helvetica-48"/>
       <use xlink:href="#Helvetica-52" x="72.216797"/>
      </g>
     </g>
    </g>
    <g id="xtick_28">
     <g id="line2d_67">
      <g>
       <use xlink:href="#m8a35428dd9" x="517.256742" y="676.28" style="stroke: #000000; stroke-width: 0.8"/>
      </g>
     </g>
     <g id="text_62">
      <!-- LR -->
      <g transform="translate(505.752211 696.192188) scale(0.18 -0.18)">
       <use xlink:href="#Helvetica-4c"/>
       <use xlink:href="#Helvetica-52" x="55.615234"/>
      </g>
     </g>
    </g>
    <g id="xtick_29">
     <g id="line2d_68">
      <g>
       <use xlink:href="#m8a35428dd9" x="569.395" y="676.28" style="stroke: #000000; stroke-width: 0.8"/>
      </g>
     </g>
     <g id="text_63">
      <!-- LP -->
      <g transform="translate(558.386875 696.192188) scale(0.18 -0.18)">
       <use xlink:href="#Helvetica-4c"/>
       <use xlink:href="#Helvetica-50" x="55.615234"/>
      </g>
     </g>
    </g>
    <g id="xtick_30">
     <g id="line2d_69">
      <g>
       <use xlink:href="#m8a35428dd9" x="621.533258" y="676.28" style="stroke: #000000; stroke-width: 0.8"/>
      </g>
     </g>
     <g id="text_64">
      <!-- HP -->
      <g transform="translate(609.030289 696.192188) scale(0.18 -0.18)">
       <use xlink:href="#Helvetica-48"/>
       <use xlink:href="#Helvetica-50" x="72.216797"/>
      </g>
     </g>
    </g>
    <g id="xtick_31">
     <g id="line2d_70">
      <g>
       <use xlink:href="#m8a35428dd9" x="673.671515" y="676.28" style="stroke: #000000; stroke-width: 0.8"/>
      </g>
     </g>
     <g id="text_65">
      <!-- N -->
      <g transform="translate(667.171828 696.192188) scale(0.18 -0.18)">
       <use xlink:href="#Helvetica-4e"/>
      </g>
     </g>
    </g>
   </g>
   <g id="matplotlib.axis_10">
    <g id="ytick_19">
     <g id="line2d_71">
      <g>
       <use xlink:href="#m4bf4dbbba8" x="431.75" y="676.28" style="stroke: #000000; stroke-width: 0.8"/>
      </g>
     </g>
     <g id="text_66">
      <!-- 0 -->
      <g transform="translate(414.740313 682.736094) scale(0.18 -0.18)">
       <use xlink:href="#Helvetica-30"/>
      </g>
     </g>
    </g>
    <g id="ytick_20">
     <g id="line2d_72">
      <g>
       <use xlink:href="#m4bf4dbbba8" x="431.75" y="619.892" style="stroke: #000000; stroke-width: 0.8"/>
      </g>
     </g>
     <g id="text_67">
      <!-- 20 -->
      <g transform="translate(404.730625 626.348094) scale(0.18 -0.18)">
       <use xlink:href="#Helvetica-32"/>
       <use xlink:href="#Helvetica-30" x="55.615234"/>
      </g>
     </g>
    </g>
    <g id="ytick_21">
     <g id="line2d_73">
      <g>
       <use xlink:href="#m4bf4dbbba8" x="431.75" y="563.504" style="stroke: #000000; stroke-width: 0.8"/>
      </g>
     </g>
     <g id="text_68">
      <!-- 40 -->
      <g transform="translate(404.730625 569.960094) scale(0.18 -0.18)">
       <use xlink:href="#Helvetica-34"/>
       <use xlink:href="#Helvetica-30" x="55.615234"/>
      </g>
     </g>
    </g>
    <g id="ytick_22">
     <g id="line2d_74">
      <g>
       <use xlink:href="#m4bf4dbbba8" x="431.75" y="507.116" style="stroke: #000000; stroke-width: 0.8"/>
      </g>
     </g>
     <g id="text_69">
      <!-- 60 -->
      <g transform="translate(404.730625 513.572094) scale(0.18 -0.18)">
       <use xlink:href="#Helvetica-36"/>
       <use xlink:href="#Helvetica-30" x="55.615234"/>
      </g>
     </g>
    </g>
    <g id="ytick_23">
     <g id="line2d_75">
      <g>
       <use xlink:href="#m4bf4dbbba8" x="431.75" y="450.728" style="stroke: #000000; stroke-width: 0.8"/>
      </g>
     </g>
     <g id="text_70">
      <!-- 80 -->
      <g transform="translate(404.730625 457.184094) scale(0.18 -0.18)">
       <use xlink:href="#Helvetica-38"/>
       <use xlink:href="#Helvetica-30" x="55.615234"/>
      </g>
     </g>
    </g>
    <g id="ytick_24">
     <g id="line2d_76">
      <g>
       <use xlink:href="#m4bf4dbbba8" x="431.75" y="394.34" style="stroke: #000000; stroke-width: 0.8"/>
      </g>
     </g>
     <g id="text_71">
      <!-- 100 -->
      <g transform="translate(394.720938 400.796094) scale(0.18 -0.18)">
       <use xlink:href="#Helvetica-31"/>
       <use xlink:href="#Helvetica-30" x="55.615234"/>
       <use xlink:href="#Helvetica-30" x="111.230469"/>
      </g>
     </g>
    </g>
    <g id="text_72">
     <!-- Choice Rate (%) -->
     <g transform="translate(386.969063 601.330625) rotate(-90) scale(0.18 -0.18)">
      <use xlink:href="#Helvetica-43"/>
      <use xlink:href="#Helvetica-68" x="72.216797"/>
      <use xlink:href="#Helvetica-6f" x="127.832031"/>
      <use xlink:href="#Helvetica-69" x="183.447266"/>
      <use xlink:href="#Helvetica-63" x="205.664062"/>
      <use xlink:href="#Helvetica-65" x="255.664062"/>
      <use xlink:href="#Helvetica-20" x="311.279297"/>
      <use xlink:href="#Helvetica-52" x="339.0625"/>
      <use xlink:href="#Helvetica-61" x="411.279297"/>
      <use xlink:href="#Helvetica-74" x="466.894531"/>
      <use xlink:href="#Helvetica-65" x="494.677734"/>
      <use xlink:href="#Helvetica-20" x="550.292969"/>
      <use xlink:href="#Helvetica-28" x="578.076172"/>
      <use xlink:href="#Helvetica-25" x="611.376953"/>
      <use xlink:href="#Helvetica-29" x="700.292969"/>
     </g>
    </g>
   </g>
   <g id="LineCollection_3">
    <path d="M 465.118485 442.267574 
L 465.118485 425.036448 
" clip-path="url(#p0e8f4a038d)" style="fill: none; stroke: #696969; stroke-width: 1.5"/>
    <path d="M 517.256742 535.765885 
L 517.256742 514.745941 
" clip-path="url(#p0e8f4a038d)" style="fill: none; stroke: #696969; stroke-width: 1.5"/>
    <path d="M 569.395 535.251927 
L 569.395 513.55762 
" clip-path="url(#p0e8f4a038d)" style="fill: none; stroke: #696969; stroke-width: 1.5"/>
    <path d="M 621.533258 638.451889 
L 621.533258 621.440285 
" clip-path="url(#p0e8f4a038d)" style="fill: none; stroke: #696969; stroke-width: 1.5"/>
    <path d="M 673.671515 607.771544 
L 673.671515 581.050471 
" clip-path="url(#p0e8f4a038d)" style="fill: none; stroke: #696969; stroke-width: 1.5"/>
   </g>
   <g id="line2d_77">
    <g clip-path="url(#p0e8f4a038d)">
     <use xlink:href="#m26cdbae791" x="465.118485" y="442.267574" style="fill: #696969; stroke: #696969"/>
     <use xlink:href="#m26cdbae791" x="517.256742" y="535.765885" style="fill: #696969; stroke: #696969"/>
     <use xlink:href="#m26cdbae791" x="569.395" y="535.251927" style="fill: #696969; stroke: #696969"/>
     <use xlink:href="#m26cdbae791" x="621.533258" y="638.451889" style="fill: #696969; stroke: #696969"/>
     <use xlink:href="#m26cdbae791" x="673.671515" y="607.771544" style="fill: #696969; stroke: #696969"/>
    </g>
   </g>
   <g id="line2d_78">
    <g clip-path="url(#p0e8f4a038d)">
     <use xlink:href="#m26cdbae791" x="465.118485" y="425.036448" style="fill: #696969; stroke: #696969"/>
     <use xlink:href="#m26cdbae791" x="517.256742" y="514.745941" style="fill: #696969; stroke: #696969"/>
     <use xlink:href="#m26cdbae791" x="569.395" y="513.55762" style="fill: #696969; stroke: #696969"/>
     <use xlink:href="#m26cdbae791" x="621.533258" y="621.440285" style="fill: #696969; stroke: #696969"/>
     <use xlink:href="#m26cdbae791" x="673.671515" y="581.050471" style="fill: #696969; stroke: #696969"/>
    </g>
   </g>
   <g id="LineCollection_4">
    <path d="M 465.118485 442.267574 
L 465.118485 425.036448 
" clip-path="url(#p0e8f4a038d)" style="fill: none; stroke: #808080; stroke-width: 1.5"/>
    <path d="M 517.256742 535.765885 
L 517.256742 514.745941 
" clip-path="url(#p0e8f4a038d)" style="fill: none; stroke: #808080; stroke-width: 1.5"/>
    <path d="M 569.395 535.251927 
L 569.395 513.55762 
" clip-path="url(#p0e8f4a038d)" style="fill: none; stroke: #808080; stroke-width: 1.5"/>
    <path d="M 621.533258 638.451889 
L 621.533258 621.440285 
" clip-path="url(#p0e8f4a038d)" style="fill: none; stroke: #808080; stroke-width: 1.5"/>
    <path d="M 673.671515 607.771544 
L 673.671515 581.050471 
" clip-path="url(#p0e8f4a038d)" style="fill: none; stroke: #808080; stroke-width: 1.5"/>
   </g>
   <g id="line2d_79">
    <g clip-path="url(#p0e8f4a038d)">
     <use xlink:href="#m58726c0ff0" x="465.118485" y="433.652011" style="fill: #808080; stroke: #808080"/>
     <use xlink:href="#m58726c0ff0" x="517.256742" y="525.255913" style="fill: #808080; stroke: #808080"/>
     <use xlink:href="#m58726c0ff0" x="569.395" y="524.404774" style="fill: #808080; stroke: #808080"/>
     <use xlink:href="#m58726c0ff0" x="621.533258" y="629.946087" style="fill: #808080; stroke: #808080"/>
     <use xlink:href="#m58726c0ff0" x="673.671515" y="594.411008" style="fill: #808080; stroke: #808080"/>
    </g>
   </g>
   <g id="patch_25">
    <path d="M 431.75 676.28 
L 431.75 394.34 
" style="fill: none; stroke: #000000; stroke-width: 0.8; stroke-linejoin: miter; stroke-linecap: square"/>
   </g>
   <g id="patch_26">
    <path d="M 431.75 676.28 
L 707.04 676.28 
" style="fill: none; stroke: #000000; stroke-width: 0.8; stroke-linejoin: miter; stroke-linecap: square"/>
   </g>
  </g>
  <g id="axes_6">
   <g id="patch_27">
    <path d="M 785.27 676.28 
L 1060.56 676.28 
L 1060.56 394.34 
L 785.27 394.34 
z
" style="fill: #ffffff"/>
   </g>
   <g id="patch_28">
    <path d="M 797.783182 676.28 
L 839.493788 676.28 
L 839.493788 434.534523 
L 797.783182 434.534523 
z
" clip-path="url(#p7c9635fa8f)" style="fill: #095086; opacity: 0.75"/>
   </g>
   <g id="patch_29">
    <path d="M 849.921439 676.28 
L 891.632045 676.28 
L 891.632045 538.093254 
L 849.921439 538.093254 
z
" clip-path="url(#p7c9635fa8f)" style="fill: #9bd2f2; opacity: 0.75"/>
   </g>
   <g id="patch_30">
    <path d="M 902.059697 676.28 
L 943.770303 676.28 
L 943.770303 523.417915 
L 902.059697 523.417915 
z
" clip-path="url(#p7c9635fa8f)" style="fill: #eca6a6; opacity: 0.75"/>
   </g>
   <g id="patch_31">
    <path d="M 954.197955 676.28 
L 995.908561 676.28 
L 995.908561 633.627538 
L 954.197955 633.627538 
z
" clip-path="url(#p7c9635fa8f)" style="fill: #b00000; opacity: 0.75"/>
   </g>
   <g id="patch_32">
    <path d="M 1006.336212 676.28 
L 1048.046818 676.28 
L 1048.046818 565.528185 
L 1006.336212 565.528185 
z
" clip-path="url(#p7c9635fa8f)" style="fill: #d3d3d3; opacity: 0.75"/>
   </g>
   <g id="PathCollection_3">
    <g clip-path="url(#p7c9635fa8f)">
     <use xlink:href="#me882d0a72f" x="818.638485" y="439.4504" style="fill: #808080; fill-opacity: 0.75; stroke: #808080; stroke-opacity: 0.75"/>
     <use xlink:href="#me882d0a72f" x="870.776742" y="529.6712" style="fill: #808080; fill-opacity: 0.75; stroke: #808080; stroke-opacity: 0.75"/>
     <use xlink:href="#me882d0a72f" x="922.915" y="531.0809" style="fill: #808080; fill-opacity: 0.75; stroke: #808080; stroke-opacity: 0.75"/>
     <use xlink:href="#me882d0a72f" x="975.053258" y="629.7599" style="fill: #808080; fill-opacity: 0.75; stroke: #808080; stroke-opacity: 0.75"/>
     <use xlink:href="#me882d0a72f" x="1027.191515" y="566.3234" style="fill: #808080; fill-opacity: 0.75; stroke: #808080; stroke-opacity: 0.75"/>
    </g>
   </g>
   <g id="matplotlib.axis_11">
    <g id="xtick_32">
     <g id="line2d_80">
      <g>
       <use xlink:href="#m8a35428dd9" x="818.638485" y="676.28" style="stroke: #000000; stroke-width: 0.8"/>
      </g>
     </g>
     <g id="text_73">
      <!-- HR -->
      <g transform="translate(805.63911 696.192188) scale(0.18 -0.18)">
       <use xlink:href="#Helvetica-48"/>
       <use xlink:href="#Helvetica-52" x="72.216797"/>
      </g>
     </g>
    </g>
    <g id="xtick_33">
     <g id="line2d_81">
      <g>
       <use xlink:href="#m8a35428dd9" x="870.776742" y="676.28" style="stroke: #000000; stroke-width: 0.8"/>
      </g>
     </g>
     <g id="text_74">
      <!-- LR -->
      <g transform="translate(859.272211 696.192188) scale(0.18 -0.18)">
       <use xlink:href="#Helvetica-4c"/>
       <use xlink:href="#Helvetica-52" x="55.615234"/>
      </g>
     </g>
    </g>
    <g id="xtick_34">
     <g id="line2d_82">
      <g>
       <use xlink:href="#m8a35428dd9" x="922.915" y="676.28" style="stroke: #000000; stroke-width: 0.8"/>
      </g>
     </g>
     <g id="text_75">
      <!-- LP -->
      <g transform="translate(911.906875 696.192188) scale(0.18 -0.18)">
       <use xlink:href="#Helvetica-4c"/>
       <use xlink:href="#Helvetica-50" x="55.615234"/>
      </g>
     </g>
    </g>
    <g id="xtick_35">
     <g id="line2d_83">
      <g>
       <use xlink:href="#m8a35428dd9" x="975.053258" y="676.28" style="stroke: #000000; stroke-width: 0.8"/>
      </g>
     </g>
     <g id="text_76">
      <!-- HP -->
      <g transform="translate(962.550289 696.192188) scale(0.18 -0.18)">
       <use xlink:href="#Helvetica-48"/>
       <use xlink:href="#Helvetica-50" x="72.216797"/>
      </g>
     </g>
    </g>
    <g id="xtick_36">
     <g id="line2d_84">
      <g>
       <use xlink:href="#m8a35428dd9" x="1027.191515" y="676.28" style="stroke: #000000; stroke-width: 0.8"/>
      </g>
     </g>
     <g id="text_77">
      <!-- N -->
      <g transform="translate(1020.691828 696.192188) scale(0.18 -0.18)">
       <use xlink:href="#Helvetica-4e"/>
      </g>
     </g>
    </g>
   </g>
   <g id="matplotlib.axis_12">
    <g id="ytick_25">
     <g id="line2d_85">
      <g>
       <use xlink:href="#m4bf4dbbba8" x="785.27" y="676.28" style="stroke: #000000; stroke-width: 0.8"/>
      </g>
     </g>
     <g id="text_78">
      <!-- 0 -->
      <g transform="translate(768.260313 682.736094) scale(0.18 -0.18)">
       <use xlink:href="#Helvetica-30"/>
      </g>
     </g>
    </g>
    <g id="ytick_26">
     <g id="line2d_86">
      <g>
       <use xlink:href="#m4bf4dbbba8" x="785.27" y="619.892" style="stroke: #000000; stroke-width: 0.8"/>
      </g>
     </g>
     <g id="text_79">
      <!-- 20 -->
      <g transform="translate(758.250625 626.348094) scale(0.18 -0.18)">
       <use xlink:href="#Helvetica-32"/>
       <use xlink:href="#Helvetica-30" x="55.615234"/>
      </g>
     </g>
    </g>
    <g id="ytick_27">
     <g id="line2d_87">
      <g>
       <use xlink:href="#m4bf4dbbba8" x="785.27" y="563.504" style="stroke: #000000; stroke-width: 0.8"/>
      </g>
     </g>
     <g id="text_80">
      <!-- 40 -->
      <g transform="translate(758.250625 569.960094) scale(0.18 -0.18)">
       <use xlink:href="#Helvetica-34"/>
       <use xlink:href="#Helvetica-30" x="55.615234"/>
      </g>
     </g>
    </g>
    <g id="ytick_28">
     <g id="line2d_88">
      <g>
       <use xlink:href="#m4bf4dbbba8" x="785.27" y="507.116" style="stroke: #000000; stroke-width: 0.8"/>
      </g>
     </g>
     <g id="text_81">
      <!-- 60 -->
      <g transform="translate(758.250625 513.572094) scale(0.18 -0.18)">
       <use xlink:href="#Helvetica-36"/>
       <use xlink:href="#Helvetica-30" x="55.615234"/>
      </g>
     </g>
    </g>
    <g id="ytick_29">
     <g id="line2d_89">
      <g>
       <use xlink:href="#m4bf4dbbba8" x="785.27" y="450.728" style="stroke: #000000; stroke-width: 0.8"/>
      </g>
     </g>
     <g id="text_82">
      <!-- 80 -->
      <g transform="translate(758.250625 457.184094) scale(0.18 -0.18)">
       <use xlink:href="#Helvetica-38"/>
       <use xlink:href="#Helvetica-30" x="55.615234"/>
      </g>
     </g>
    </g>
    <g id="ytick_30">
     <g id="line2d_90">
      <g>
       <use xlink:href="#m4bf4dbbba8" x="785.27" y="394.34" style="stroke: #000000; stroke-width: 0.8"/>
      </g>
     </g>
     <g id="text_83">
      <!-- 100 -->
      <g transform="translate(748.240938 400.796094) scale(0.18 -0.18)">
       <use xlink:href="#Helvetica-31"/>
       <use xlink:href="#Helvetica-30" x="55.615234"/>
       <use xlink:href="#Helvetica-30" x="111.230469"/>
      </g>
     </g>
    </g>
    <g id="text_84">
     <!-- Choice Rate (%) -->
     <g transform="translate(740.489063 601.330625) rotate(-90) scale(0.18 -0.18)">
      <use xlink:href="#Helvetica-43"/>
      <use xlink:href="#Helvetica-68" x="72.216797"/>
      <use xlink:href="#Helvetica-6f" x="127.832031"/>
      <use xlink:href="#Helvetica-69" x="183.447266"/>
      <use xlink:href="#Helvetica-63" x="205.664062"/>
      <use xlink:href="#Helvetica-65" x="255.664062"/>
      <use xlink:href="#Helvetica-20" x="311.279297"/>
      <use xlink:href="#Helvetica-52" x="339.0625"/>
      <use xlink:href="#Helvetica-61" x="411.279297"/>
      <use xlink:href="#Helvetica-74" x="466.894531"/>
      <use xlink:href="#Helvetica-65" x="494.677734"/>
      <use xlink:href="#Helvetica-20" x="550.292969"/>
      <use xlink:href="#Helvetica-28" x="578.076172"/>
      <use xlink:href="#Helvetica-25" x="611.376953"/>
      <use xlink:href="#Helvetica-29" x="700.292969"/>
     </g>
    </g>
   </g>
   <g id="LineCollection_5">
    <path d="M 818.638485 442.548747 
L 818.638485 426.520299 
" clip-path="url(#p7c9635fa8f)" style="fill: none; stroke: #696969; stroke-width: 1.5"/>
    <path d="M 870.776742 547.508349 
L 870.776742 528.678158 
" clip-path="url(#p7c9635fa8f)" style="fill: none; stroke: #696969; stroke-width: 1.5"/>
    <path d="M 922.915 532.582708 
L 922.915 514.253123 
" clip-path="url(#p7c9635fa8f)" style="fill: none; stroke: #696969; stroke-width: 1.5"/>
    <path d="M 975.053258 642.318236 
L 975.053258 624.936841 
" clip-path="url(#p7c9635fa8f)" style="fill: none; stroke: #696969; stroke-width: 1.5"/>
    <path d="M 1027.191515 578.959066 
L 1027.191515 552.097303 
" clip-path="url(#p7c9635fa8f)" style="fill: none; stroke: #696969; stroke-width: 1.5"/>
   </g>
   <g id="line2d_91">
    <g clip-path="url(#p7c9635fa8f)">
     <use xlink:href="#m26cdbae791" x="818.638485" y="442.548747" style="fill: #696969; stroke: #696969"/>
     <use xlink:href="#m26cdbae791" x="870.776742" y="547.508349" style="fill: #696969; stroke: #696969"/>
     <use xlink:href="#m26cdbae791" x="922.915" y="532.582708" style="fill: #696969; stroke: #696969"/>
     <use xlink:href="#m26cdbae791" x="975.053258" y="642.318236" style="fill: #696969; stroke: #696969"/>
     <use xlink:href="#m26cdbae791" x="1027.191515" y="578.959066" style="fill: #696969; stroke: #696969"/>
    </g>
   </g>
   <g id="line2d_92">
    <g clip-path="url(#p7c9635fa8f)">
     <use xlink:href="#m26cdbae791" x="818.638485" y="426.520299" style="fill: #696969; stroke: #696969"/>
     <use xlink:href="#m26cdbae791" x="870.776742" y="528.678158" style="fill: #696969; stroke: #696969"/>
     <use xlink:href="#m26cdbae791" x="922.915" y="514.253123" style="fill: #696969; stroke: #696969"/>
     <use xlink:href="#m26cdbae791" x="975.053258" y="624.936841" style="fill: #696969; stroke: #696969"/>
     <use xlink:href="#m26cdbae791" x="1027.191515" y="552.097303" style="fill: #696969; stroke: #696969"/>
    </g>
   </g>
   <g id="LineCollection_6">
    <path d="M 818.638485 442.548747 
L 818.638485 426.520299 
" clip-path="url(#p7c9635fa8f)" style="fill: none; stroke: #808080; stroke-width: 1.5"/>
    <path d="M 870.776742 547.508349 
L 870.776742 528.678158 
" clip-path="url(#p7c9635fa8f)" style="fill: none; stroke: #808080; stroke-width: 1.5"/>
    <path d="M 922.915 532.582708 
L 922.915 514.253123 
" clip-path="url(#p7c9635fa8f)" style="fill: none; stroke: #808080; stroke-width: 1.5"/>
    <path d="M 975.053258 642.318236 
L 975.053258 624.936841 
" clip-path="url(#p7c9635fa8f)" style="fill: none; stroke: #808080; stroke-width: 1.5"/>
    <path d="M 1027.191515 578.959066 
L 1027.191515 552.097303 
" clip-path="url(#p7c9635fa8f)" style="fill: none; stroke: #808080; stroke-width: 1.5"/>
   </g>
   <g id="line2d_93">
    <g clip-path="url(#p7c9635fa8f)">
     <use xlink:href="#m58726c0ff0" x="818.638485" y="434.534523" style="fill: #808080; stroke: #808080"/>
     <use xlink:href="#m58726c0ff0" x="870.776742" y="538.093254" style="fill: #808080; stroke: #808080"/>
     <use xlink:href="#m58726c0ff0" x="922.915" y="523.417915" style="fill: #808080; stroke: #808080"/>
     <use xlink:href="#m58726c0ff0" x="975.053258" y="633.627538" style="fill: #808080; stroke: #808080"/>
     <use xlink:href="#m58726c0ff0" x="1027.191515" y="565.528185" style="fill: #808080; stroke: #808080"/>
    </g>
   </g>
   <g id="patch_33">
    <path d="M 785.27 676.28 
L 785.27 394.34 
" style="fill: none; stroke: #000000; stroke-width: 0.8; stroke-linejoin: miter; stroke-linecap: square"/>
   </g>
   <g id="patch_34">
    <path d="M 785.27 676.28 
L 1060.56 676.28 
" style="fill: none; stroke: #000000; stroke-width: 0.8; stroke-linejoin: miter; stroke-linecap: square"/>
   </g>
  </g>
 </g>
 <defs>
  <clipPath id="pc85837ad54">
   <rect x="78.23" y="40.56" width="275.29" height="281.94"/>
  </clipPath>
  <clipPath id="pdeb5271fa2">
   <rect x="431.75" y="40.56" width="275.29" height="281.94"/>
  </clipPath>
  <clipPath id="p839d938ab1">
   <rect x="785.27" y="40.56" width="275.29" height="281.94"/>
  </clipPath>
  <clipPath id="p1f7be7d9ff">
   <rect x="78.23" y="394.34" width="275.29" height="281.94"/>
  </clipPath>
  <clipPath id="p0e8f4a038d">
   <rect x="431.75" y="394.34" width="275.29" height="281.94"/>
  </clipPath>
  <clipPath id="p7c9635fa8f">
   <rect x="785.27" y="394.34" width="275.29" height="281.94"/>
  </clipPath>
 </defs>
</svg>
