<?xml version="1.0" encoding="utf-8" standalone="no"?>
<!DOCTYPE svg PUBLIC "-//W3C//DTD SVG 1.1//EN"
  "http://www.w3.org/Graphics/SVG/1.1/DTD/svg11.dtd">
<svg xmlns:xlink="http://www.w3.org/1999/xlink" width="1080pt" height="720pt" viewBox="0 0 1080 720" xmlns="http://www.w3.org/2000/svg" version="1.1">
 <metadata>
  <rdf:RDF xmlns:dc="http://purl.org/dc/elements/1.1/" xmlns:cc="http://creativecommons.org/ns#" xmlns:rdf="http://www.w3.org/1999/02/22-rdf-syntax-ns#">
   <cc:Work>
    <dc:type rdf:resource="http://purl.org/dc/dcmitype/StillImage"/>
    <dc:date>2025-05-13T17:16:26.873762</dc:date>
    <dc:format>image/svg+xml</dc:format>
    <dc:creator>
     <cc:Agent>
      <dc:title>Matplotlib v3.9.4, https://matplotlib.org/</dc:title>
     </cc:Agent>
    </dc:creator>
   </cc:Work>
  </rdf:RDF>
 </metadata>
 <defs>
  <style type="text/css">*{stroke-linejoin: round; stroke-linecap: butt}</style>
 </defs>
 <g id="figure_1">
  <g id="patch_1">
   <path d="M 0 720 
L 1080 720 
L 1080 0 
L 0 0 
z
" style="fill: #ffffff"/>
  </g>
  <g id="axes_1">
   <g id="patch_2">
    <path d="M 82.01 323.22 
L 353.52 323.22 
L 353.52 42 
L 82.01 42 
z
" style="fill: #ffffff"/>
   </g>
   <g id="PolyCollection_1">
    <path d="M 94.351364 199.201448 
L 94.351364 248.185712 
L 104.635833 232.794999 
L 114.920303 220.590753 
L 125.204773 198.253166 
L 135.489242 180.057431 
L 145.773712 163.689585 
L 156.058182 155.090128 
L 166.342652 151.297437 
L 176.627121 144.464269 
L 186.911591 139.94858 
L 197.196061 139.722735 
L 207.48053 135.236251 
L 217.765 132.854589 
L 228.04947 128.663045 
L 238.333939 127.940306 
L 248.618409 120.942572 
L 258.902879 119.036249 
L 269.187348 118.403432 
L 279.471818 119.112841 
L 289.756288 116.801097 
L 300.040758 110.387874 
L 310.325227 111.7944 
L 320.609697 107.483558 
L 330.894167 111.351831 
L 330.894167 72.174589 
L 330.894167 72.174589 
L 320.609697 76.332183 
L 310.325227 72.889304 
L 300.040758 77.073312 
L 289.756288 81.770014 
L 279.471818 76.680789 
L 269.187348 78.084568 
L 258.902879 85.089825 
L 248.618409 84.572243 
L 238.333939 84.518212 
L 228.04947 89.350436 
L 217.765 93.491337 
L 207.48053 98.053379 
L 197.196061 98.427487 
L 186.911591 96.812901 
L 176.627121 104.101509 
L 166.342652 109.767008 
L 156.058182 110.834909 
L 145.773712 119.594711 
L 135.489242 135.862273 
L 125.204773 148.913205 
L 114.920303 169.62658 
L 104.635833 183.634816 
L 94.351364 199.201448 
z
" clip-path="url(#p26d0104ed0)" style="fill: #095086; fill-opacity: 0.1"/>
   </g>
   <g id="PolyCollection_2">
    <path d="M 94.351364 172.248726 
L 94.351364 223.060657 
L 104.635833 213.487187 
L 114.920303 205.148332 
L 125.204773 189.111359 
L 135.489242 172.790823 
L 145.773712 166.467067 
L 156.058182 165.786114 
L 166.342652 158.022726 
L 176.627121 157.160732 
L 186.911591 155.475011 
L 197.196061 154.919402 
L 207.48053 148.457084 
L 217.765 140.187511 
L 228.04947 132.639192 
L 238.333939 128.26209 
L 248.618409 125.681807 
L 258.902879 122.159213 
L 269.187348 121.89158 
L 279.471818 120.81182 
L 289.756288 123.509386 
L 300.040758 120.677786 
L 310.325227 121.544395 
L 320.609697 121.912047 
L 330.894167 118.279216 
L 330.894167 83.763747 
L 330.894167 83.763747 
L 320.609697 82.734805 
L 310.325227 83.276049 
L 300.040758 81.365177 
L 289.756288 83.394169 
L 279.471818 86.091736 
L 269.187348 83.623234 
L 258.902879 82.661232 
L 248.618409 86.776711 
L 238.333939 88.362651 
L 228.04947 91.623623 
L 217.765 98.657082 
L 207.48053 102.191805 
L 197.196061 107.533783 
L 186.911591 114.616248 
L 176.627121 112.930528 
L 166.342652 114.846015 
L 156.058182 117.498182 
L 145.773712 122.372193 
L 135.489242 129.241473 
L 125.204773 139.307012 
L 114.920303 156.599816 
L 104.635833 160.412443 
L 94.351364 172.248726 
z
" clip-path="url(#p26d0104ed0)" style="fill: #b00000; fill-opacity: 0.1"/>
   </g>
   <g id="matplotlib.axis_1">
    <g id="xtick_1">
     <g id="line2d_1">
      <defs>
       <path id="m7589839fad" d="M 0 0 
L 0 3.5 
" style="stroke: #000000; stroke-width: 0.8"/>
      </defs>
      <g>
       <use xlink:href="#m7589839fad" x="94.351364" y="323.22" style="stroke: #000000; stroke-width: 0.8"/>
      </g>
     </g>
     <g id="text_1">
      <!-- 0 -->
      <g transform="translate(88.625114 343.897188) scale(0.18 -0.18)">
       <defs>
        <path id="DejaVuSans-30" d="M 2034 4250 
Q 1547 4250 1301 3770 
Q 1056 3291 1056 2328 
Q 1056 1369 1301 889 
Q 1547 409 2034 409 
Q 2525 409 2770 889 
Q 3016 1369 3016 2328 
Q 3016 3291 2770 3770 
Q 2525 4250 2034 4250 
z
M 2034 4750 
Q 2819 4750 3233 4129 
Q 3647 3509 3647 2328 
Q 3647 1150 3233 529 
Q 2819 -91 2034 -91 
Q 1250 -91 836 529 
Q 422 1150 422 2328 
Q 422 3509 836 4129 
Q 1250 4750 2034 4750 
z
" transform="scale(0.015625)"/>
       </defs>
       <use xlink:href="#DejaVuSans-30"/>
      </g>
     </g>
    </g>
    <g id="xtick_2">
     <g id="line2d_2">
      <g>
       <use xlink:href="#m7589839fad" x="197.196061" y="323.22" style="stroke: #000000; stroke-width: 0.8"/>
      </g>
     </g>
     <g id="text_2">
      <!-- 10 -->
      <g transform="translate(185.743561 343.897188) scale(0.18 -0.18)">
       <defs>
        <path id="DejaVuSans-31" d="M 794 531 
L 1825 531 
L 1825 4091 
L 703 3866 
L 703 4441 
L 1819 4666 
L 2450 4666 
L 2450 531 
L 3481 531 
L 3481 0 
L 794 0 
L 794 531 
z
" transform="scale(0.015625)"/>
       </defs>
       <use xlink:href="#DejaVuSans-31"/>
       <use xlink:href="#DejaVuSans-30" x="63.623047"/>
      </g>
     </g>
    </g>
    <g id="xtick_3">
     <g id="line2d_3">
      <g>
       <use xlink:href="#m7589839fad" x="300.040758" y="323.22" style="stroke: #000000; stroke-width: 0.8"/>
      </g>
     </g>
     <g id="text_3">
      <!-- 20 -->
      <g transform="translate(288.588258 343.897188) scale(0.18 -0.18)">
       <defs>
        <path id="DejaVuSans-32" d="M 1228 531 
L 3431 531 
L 3431 0 
L 469 0 
L 469 531 
Q 828 903 1448 1529 
Q 2069 2156 2228 2338 
Q 2531 2678 2651 2914 
Q 2772 3150 2772 3378 
Q 2772 3750 2511 3984 
Q 2250 4219 1831 4219 
Q 1534 4219 1204 4116 
Q 875 4013 500 3803 
L 500 4441 
Q 881 4594 1212 4672 
Q 1544 4750 1819 4750 
Q 2544 4750 2975 4387 
Q 3406 4025 3406 3419 
Q 3406 3131 3298 2873 
Q 3191 2616 2906 2266 
Q 2828 2175 2409 1742 
Q 1991 1309 1228 531 
z
" transform="scale(0.015625)"/>
       </defs>
       <use xlink:href="#DejaVuSans-32"/>
       <use xlink:href="#DejaVuSans-30" x="63.623047"/>
      </g>
     </g>
    </g>
    <g id="text_4">
     <!-- Trial -->
     <g transform="translate(199.379688 365.317813) scale(0.18 -0.18)">
      <defs>
       <path id="DejaVuSans-54" d="M -19 4666 
L 3928 4666 
L 3928 4134 
L 2272 4134 
L 2272 0 
L 1638 0 
L 1638 4134 
L -19 4134 
L -19 4666 
z
" transform="scale(0.015625)"/>
       <path id="DejaVuSans-72" d="M 2631 2963 
Q 2534 3019 2420 3045 
Q 2306 3072 2169 3072 
Q 1681 3072 1420 2755 
Q 1159 2438 1159 1844 
L 1159 0 
L 581 0 
L 581 3500 
L 1159 3500 
L 1159 2956 
Q 1341 3275 1631 3429 
Q 1922 3584 2338 3584 
Q 2397 3584 2469 3576 
Q 2541 3569 2628 3553 
L 2631 2963 
z
" transform="scale(0.015625)"/>
       <path id="DejaVuSans-69" d="M 603 3500 
L 1178 3500 
L 1178 0 
L 603 0 
L 603 3500 
z
M 603 4863 
L 1178 4863 
L 1178 4134 
L 603 4134 
L 603 4863 
z
" transform="scale(0.015625)"/>
       <path id="DejaVuSans-61" d="M 2194 1759 
Q 1497 1759 1228 1600 
Q 959 1441 959 1056 
Q 959 750 1161 570 
Q 1363 391 1709 391 
Q 2188 391 2477 730 
Q 2766 1069 2766 1631 
L 2766 1759 
L 2194 1759 
z
M 3341 1997 
L 3341 0 
L 2766 0 
L 2766 531 
Q 2569 213 2275 61 
Q 1981 -91 1556 -91 
Q 1019 -91 701 211 
Q 384 513 384 1019 
Q 384 1609 779 1909 
Q 1175 2209 1959 2209 
L 2766 2209 
L 2766 2266 
Q 2766 2663 2505 2880 
Q 2244 3097 1772 3097 
Q 1472 3097 1187 3025 
Q 903 2953 641 2809 
L 641 3341 
Q 956 3463 1253 3523 
Q 1550 3584 1831 3584 
Q 2591 3584 2966 3190 
Q 3341 2797 3341 1997 
z
" transform="scale(0.015625)"/>
       <path id="DejaVuSans-6c" d="M 603 4863 
L 1178 4863 
L 1178 0 
L 603 0 
L 603 4863 
z
" transform="scale(0.015625)"/>
      </defs>
      <use xlink:href="#DejaVuSans-54"/>
      <use xlink:href="#DejaVuSans-72" x="46.333984"/>
      <use xlink:href="#DejaVuSans-69" x="87.447266"/>
      <use xlink:href="#DejaVuSans-61" x="115.230469"/>
      <use xlink:href="#DejaVuSans-6c" x="176.509766"/>
     </g>
    </g>
   </g>
   <g id="matplotlib.axis_2">
    <g id="ytick_1">
     <g id="line2d_4">
      <defs>
       <path id="ma591417daf" d="M 0 0 
L -3.5 0 
" style="stroke: #000000; stroke-width: 0.8"/>
      </defs>
      <g>
       <use xlink:href="#ma591417daf" x="82.01" y="266.976" style="stroke: #000000; stroke-width: 0.8"/>
      </g>
     </g>
     <g id="text_5">
      <!-- 40 -->
      <g transform="translate(52.105 273.814594) scale(0.18 -0.18)">
       <defs>
        <path id="DejaVuSans-34" d="M 2419 4116 
L 825 1625 
L 2419 1625 
L 2419 4116 
z
M 2253 4666 
L 3047 4666 
L 3047 1625 
L 3713 1625 
L 3713 1100 
L 3047 1100 
L 3047 0 
L 2419 0 
L 2419 1100 
L 313 1100 
L 313 1709 
L 2253 4666 
z
" transform="scale(0.015625)"/>
       </defs>
       <use xlink:href="#DejaVuSans-34"/>
       <use xlink:href="#DejaVuSans-30" x="63.623047"/>
      </g>
     </g>
    </g>
    <g id="ytick_2">
     <g id="line2d_5">
      <g>
       <use xlink:href="#ma591417daf" x="82.01" y="191.984" style="stroke: #000000; stroke-width: 0.8"/>
      </g>
     </g>
     <g id="text_6">
      <!-- 60 -->
      <g transform="translate(52.105 198.822594) scale(0.18 -0.18)">
       <defs>
        <path id="DejaVuSans-36" d="M 2113 2584 
Q 1688 2584 1439 2293 
Q 1191 2003 1191 1497 
Q 1191 994 1439 701 
Q 1688 409 2113 409 
Q 2538 409 2786 701 
Q 3034 994 3034 1497 
Q 3034 2003 2786 2293 
Q 2538 2584 2113 2584 
z
M 3366 4563 
L 3366 3988 
Q 3128 4100 2886 4159 
Q 2644 4219 2406 4219 
Q 1781 4219 1451 3797 
Q 1122 3375 1075 2522 
Q 1259 2794 1537 2939 
Q 1816 3084 2150 3084 
Q 2853 3084 3261 2657 
Q 3669 2231 3669 1497 
Q 3669 778 3244 343 
Q 2819 -91 2113 -91 
Q 1303 -91 875 529 
Q 447 1150 447 2328 
Q 447 3434 972 4092 
Q 1497 4750 2381 4750 
Q 2619 4750 2861 4703 
Q 3103 4656 3366 4563 
z
" transform="scale(0.015625)"/>
       </defs>
       <use xlink:href="#DejaVuSans-36"/>
       <use xlink:href="#DejaVuSans-30" x="63.623047"/>
      </g>
     </g>
    </g>
    <g id="ytick_3">
     <g id="line2d_6">
      <g>
       <use xlink:href="#ma591417daf" x="82.01" y="116.992" style="stroke: #000000; stroke-width: 0.8"/>
      </g>
     </g>
     <g id="text_7">
      <!-- 80 -->
      <g transform="translate(52.105 123.830594) scale(0.18 -0.18)">
       <defs>
        <path id="DejaVuSans-38" d="M 2034 2216 
Q 1584 2216 1326 1975 
Q 1069 1734 1069 1313 
Q 1069 891 1326 650 
Q 1584 409 2034 409 
Q 2484 409 2743 651 
Q 3003 894 3003 1313 
Q 3003 1734 2745 1975 
Q 2488 2216 2034 2216 
z
M 1403 2484 
Q 997 2584 770 2862 
Q 544 3141 544 3541 
Q 544 4100 942 4425 
Q 1341 4750 2034 4750 
Q 2731 4750 3128 4425 
Q 3525 4100 3525 3541 
Q 3525 3141 3298 2862 
Q 3072 2584 2669 2484 
Q 3125 2378 3379 2068 
Q 3634 1759 3634 1313 
Q 3634 634 3220 271 
Q 2806 -91 2034 -91 
Q 1263 -91 848 271 
Q 434 634 434 1313 
Q 434 1759 690 2068 
Q 947 2378 1403 2484 
z
M 1172 3481 
Q 1172 3119 1398 2916 
Q 1625 2713 2034 2713 
Q 2441 2713 2670 2916 
Q 2900 3119 2900 3481 
Q 2900 3844 2670 4047 
Q 2441 4250 2034 4250 
Q 1625 4250 1398 4047 
Q 1172 3844 1172 3481 
z
" transform="scale(0.015625)"/>
       </defs>
       <use xlink:href="#DejaVuSans-38"/>
       <use xlink:href="#DejaVuSans-30" x="63.623047"/>
      </g>
     </g>
    </g>
    <g id="ytick_4">
     <g id="line2d_7">
      <g>
       <use xlink:href="#ma591417daf" x="82.01" y="42" style="stroke: #000000; stroke-width: 0.8"/>
      </g>
     </g>
     <g id="text_8">
      <!-- 100 -->
      <g transform="translate(40.6525 48.838594) scale(0.18 -0.18)">
       <use xlink:href="#DejaVuSans-31"/>
       <use xlink:href="#DejaVuSans-30" x="63.623047"/>
       <use xlink:href="#DejaVuSans-30" x="127.246094"/>
      </g>
     </g>
    </g>
    <g id="text_9">
     <!-- Accuracy (%) -->
     <g transform="translate(32.909063 242.135156) rotate(-90) scale(0.18 -0.18)">
      <defs>
       <path id="DejaVuSans-41" d="M 2188 4044 
L 1331 1722 
L 3047 1722 
L 2188 4044 
z
M 1831 4666 
L 2547 4666 
L 4325 0 
L 3669 0 
L 3244 1197 
L 1141 1197 
L 716 0 
L 50 0 
L 1831 4666 
z
" transform="scale(0.015625)"/>
       <path id="DejaVuSans-63" d="M 3122 3366 
L 3122 2828 
Q 2878 2963 2633 3030 
Q 2388 3097 2138 3097 
Q 1578 3097 1268 2742 
Q 959 2388 959 1747 
Q 959 1106 1268 751 
Q 1578 397 2138 397 
Q 2388 397 2633 464 
Q 2878 531 3122 666 
L 3122 134 
Q 2881 22 2623 -34 
Q 2366 -91 2075 -91 
Q 1284 -91 818 406 
Q 353 903 353 1747 
Q 353 2603 823 3093 
Q 1294 3584 2113 3584 
Q 2378 3584 2631 3529 
Q 2884 3475 3122 3366 
z
" transform="scale(0.015625)"/>
       <path id="DejaVuSans-75" d="M 544 1381 
L 544 3500 
L 1119 3500 
L 1119 1403 
Q 1119 906 1312 657 
Q 1506 409 1894 409 
Q 2359 409 2629 706 
Q 2900 1003 2900 1516 
L 2900 3500 
L 3475 3500 
L 3475 0 
L 2900 0 
L 2900 538 
Q 2691 219 2414 64 
Q 2138 -91 1772 -91 
Q 1169 -91 856 284 
Q 544 659 544 1381 
z
M 1991 3584 
L 1991 3584 
z
" transform="scale(0.015625)"/>
       <path id="DejaVuSans-79" d="M 2059 -325 
Q 1816 -950 1584 -1140 
Q 1353 -1331 966 -1331 
L 506 -1331 
L 506 -850 
L 844 -850 
Q 1081 -850 1212 -737 
Q 1344 -625 1503 -206 
L 1606 56 
L 191 3500 
L 800 3500 
L 1894 763 
L 2988 3500 
L 3597 3500 
L 2059 -325 
z
" transform="scale(0.015625)"/>
       <path id="DejaVuSans-20" transform="scale(0.015625)"/>
       <path id="DejaVuSans-28" d="M 1984 4856 
Q 1566 4138 1362 3434 
Q 1159 2731 1159 2009 
Q 1159 1288 1364 580 
Q 1569 -128 1984 -844 
L 1484 -844 
Q 1016 -109 783 600 
Q 550 1309 550 2009 
Q 550 2706 781 3412 
Q 1013 4119 1484 4856 
L 1984 4856 
z
" transform="scale(0.015625)"/>
       <path id="DejaVuSans-25" d="M 4653 2053 
Q 4381 2053 4226 1822 
Q 4072 1591 4072 1178 
Q 4072 772 4226 539 
Q 4381 306 4653 306 
Q 4919 306 5073 539 
Q 5228 772 5228 1178 
Q 5228 1588 5073 1820 
Q 4919 2053 4653 2053 
z
M 4653 2450 
Q 5147 2450 5437 2106 
Q 5728 1763 5728 1178 
Q 5728 594 5436 251 
Q 5144 -91 4653 -91 
Q 4153 -91 3862 251 
Q 3572 594 3572 1178 
Q 3572 1766 3864 2108 
Q 4156 2450 4653 2450 
z
M 1428 4353 
Q 1159 4353 1004 4120 
Q 850 3888 850 3481 
Q 850 3069 1003 2837 
Q 1156 2606 1428 2606 
Q 1700 2606 1854 2837 
Q 2009 3069 2009 3481 
Q 2009 3884 1853 4118 
Q 1697 4353 1428 4353 
z
M 4250 4750 
L 4750 4750 
L 1831 -91 
L 1331 -91 
L 4250 4750 
z
M 1428 4750 
Q 1922 4750 2215 4408 
Q 2509 4066 2509 3481 
Q 2509 2891 2217 2550 
Q 1925 2209 1428 2209 
Q 931 2209 642 2551 
Q 353 2894 353 3481 
Q 353 4063 643 4406 
Q 934 4750 1428 4750 
z
" transform="scale(0.015625)"/>
       <path id="DejaVuSans-29" d="M 513 4856 
L 1013 4856 
Q 1481 4119 1714 3412 
Q 1947 2706 1947 2009 
Q 1947 1309 1714 600 
Q 1481 -109 1013 -844 
L 513 -844 
Q 928 -128 1133 580 
Q 1338 1288 1338 2009 
Q 1338 2731 1133 3434 
Q 928 4138 513 4856 
z
" transform="scale(0.015625)"/>
      </defs>
      <use xlink:href="#DejaVuSans-41"/>
      <use xlink:href="#DejaVuSans-63" x="66.658203"/>
      <use xlink:href="#DejaVuSans-63" x="121.638672"/>
      <use xlink:href="#DejaVuSans-75" x="176.619141"/>
      <use xlink:href="#DejaVuSans-72" x="239.998047"/>
      <use xlink:href="#DejaVuSans-61" x="281.111328"/>
      <use xlink:href="#DejaVuSans-63" x="342.390625"/>
      <use xlink:href="#DejaVuSans-79" x="397.371094"/>
      <use xlink:href="#DejaVuSans-20" x="456.550781"/>
      <use xlink:href="#DejaVuSans-28" x="488.337891"/>
      <use xlink:href="#DejaVuSans-25" x="527.351562"/>
      <use xlink:href="#DejaVuSans-29" x="622.371094"/>
     </g>
    </g>
   </g>
   <g id="line2d_8">
    <path d="M 94.351364 223.69358 
L 104.635833 208.214907 
L 114.920303 195.108667 
L 125.204773 173.583185 
L 135.489242 157.959852 
L 145.773712 141.642148 
L 156.058182 132.962519 
L 166.342652 130.532222 
L 176.627121 124.282889 
L 186.911591 118.380741 
L 197.196061 119.075111 
L 207.48053 116.644815 
L 217.765 113.172963 
L 228.04947 109.006741 
L 238.333939 106.229259 
L 248.618409 102.757407 
L 258.902879 102.063037 
L 269.187348 98.244 
L 279.471818 97.896815 
L 289.756288 99.285556 
L 300.040758 93.730593 
L 310.325227 92.341852 
L 320.609697 91.90787 
L 330.894167 91.76321 
" clip-path="url(#p26d0104ed0)" style="fill: none; stroke: #095086; stroke-opacity: 0.75; stroke-width: 3; stroke-linecap: square"/>
   </g>
   <g id="line2d_9">
    <path d="M 104.635833 187.239136 
L 114.920303 175.232315 
L 125.204773 165.945111 
L 135.489242 140.600593 
L 145.773712 125.324444 
L 156.058182 114.908889 
L 166.342652 108.659556 
L 176.627121 104.146148 
L 186.911591 101.021481 
L 197.196061 98.93837 
L 207.48053 97.202444 
L 217.765 94.772148 
L 228.04947 93.036222 
L 238.333939 90.605926 
L 248.618409 88.17563 
L 258.902879 89.911556 
L 269.187348 89.217185 
L 279.471818 88.522815 
L 289.756288 87.481259 
L 300.040758 87.828444 
L 310.325227 83.315037 
L 320.609697 79.843185 
L 330.894167 76.284537 
L 341.178636 77.29716 
" clip-path="url(#p26d0104ed0)" style="fill: none; stroke-dasharray: 7.4,3.2; stroke-dashoffset: 0; stroke: #095086; stroke-opacity: 0.75; stroke-width: 2"/>
   </g>
   <g id="line2d_10">
    <path d="M 94.351364 197.654691 
L 104.635833 186.949815 
L 114.920303 180.874074 
L 125.204773 164.209185 
L 135.489242 151.016148 
L 145.773712 144.41963 
L 156.058182 141.642148 
L 166.342652 136.43437 
L 176.627121 135.04563 
L 186.911591 135.04563 
L 197.196061 131.226593 
L 207.48053 125.324444 
L 217.765 119.422296 
L 228.04947 112.131407 
L 238.333939 108.31237 
L 248.618409 106.229259 
L 258.902879 102.410222 
L 269.187348 102.757407 
L 279.471818 103.451778 
L 289.756288 103.451778 
L 300.040758 101.021481 
L 310.325227 102.410222 
L 320.609697 102.323426 
L 330.894167 101.021481 
" clip-path="url(#p26d0104ed0)" style="fill: none; stroke: #b00000; stroke-opacity: 0.75; stroke-width: 3; stroke-linecap: square"/>
   </g>
   <g id="line2d_11">
    <path d="M 104.635833 183.188642 
L 114.920303 170.024537 
L 125.204773 162.820444 
L 135.489242 140.947778 
L 145.773712 128.796296 
L 156.058182 123.241333 
L 166.342652 119.422296 
L 176.627121 115.603259 
L 186.911591 114.908889 
L 197.196061 115.256074 
L 207.48053 113.172963 
L 217.765 112.478593 
L 228.04947 107.965185 
L 238.333939 105.534889 
L 248.618409 102.757407 
L 258.902879 97.202444 
L 269.187348 89.217185 
L 279.471818 84.009407 
L 289.756288 77.065704 
L 300.040758 73.593852 
L 310.325227 69.774815 
L 320.609697 70.122 
L 330.894167 71.076759 
L 341.178636 71.510741 
" clip-path="url(#p26d0104ed0)" style="fill: none; stroke-dasharray: 7.4,3.2; stroke-dashoffset: 0; stroke: #b00000; stroke-opacity: 0.75; stroke-width: 2"/>
   </g>
   <g id="patch_3">
    <path d="M 82.01 323.22 
L 82.01 42 
" style="fill: none; stroke: #000000; stroke-width: 0.8; stroke-linejoin: miter; stroke-linecap: square"/>
   </g>
   <g id="patch_4">
    <path d="M 82.01 323.22 
L 353.52 323.22 
" style="fill: none; stroke: #000000; stroke-width: 0.8; stroke-linejoin: miter; stroke-linecap: square"/>
   </g>
   <g id="text_10">
    <!-- No Pain -->
    <g transform="translate(177.155313 36) scale(0.216 -0.216)">
     <defs>
      <path id="DejaVuSans-4e" d="M 628 4666 
L 1478 4666 
L 3547 763 
L 3547 4666 
L 4159 4666 
L 4159 0 
L 3309 0 
L 1241 3903 
L 1241 0 
L 628 0 
L 628 4666 
z
" transform="scale(0.015625)"/>
      <path id="DejaVuSans-6f" d="M 1959 3097 
Q 1497 3097 1228 2736 
Q 959 2375 959 1747 
Q 959 1119 1226 758 
Q 1494 397 1959 397 
Q 2419 397 2687 759 
Q 2956 1122 2956 1747 
Q 2956 2369 2687 2733 
Q 2419 3097 1959 3097 
z
M 1959 3584 
Q 2709 3584 3137 3096 
Q 3566 2609 3566 1747 
Q 3566 888 3137 398 
Q 2709 -91 1959 -91 
Q 1206 -91 779 398 
Q 353 888 353 1747 
Q 353 2609 779 3096 
Q 1206 3584 1959 3584 
z
" transform="scale(0.015625)"/>
      <path id="DejaVuSans-50" d="M 1259 4147 
L 1259 2394 
L 2053 2394 
Q 2494 2394 2734 2622 
Q 2975 2850 2975 3272 
Q 2975 3691 2734 3919 
Q 2494 4147 2053 4147 
L 1259 4147 
z
M 628 4666 
L 2053 4666 
Q 2838 4666 3239 4311 
Q 3641 3956 3641 3272 
Q 3641 2581 3239 2228 
Q 2838 1875 2053 1875 
L 1259 1875 
L 1259 0 
L 628 0 
L 628 4666 
z
" transform="scale(0.015625)"/>
      <path id="DejaVuSans-6e" d="M 3513 2113 
L 3513 0 
L 2938 0 
L 2938 2094 
Q 2938 2591 2744 2837 
Q 2550 3084 2163 3084 
Q 1697 3084 1428 2787 
Q 1159 2491 1159 1978 
L 1159 0 
L 581 0 
L 581 3500 
L 1159 3500 
L 1159 2956 
Q 1366 3272 1645 3428 
Q 1925 3584 2291 3584 
Q 2894 3584 3203 3211 
Q 3513 2838 3513 2113 
z
" transform="scale(0.015625)"/>
     </defs>
     <use xlink:href="#DejaVuSans-4e"/>
     <use xlink:href="#DejaVuSans-6f" x="74.804688"/>
     <use xlink:href="#DejaVuSans-20" x="135.986328"/>
     <use xlink:href="#DejaVuSans-50" x="167.773438"/>
     <use xlink:href="#DejaVuSans-61" x="223.576172"/>
     <use xlink:href="#DejaVuSans-69" x="284.855469"/>
     <use xlink:href="#DejaVuSans-6e" x="312.638672"/>
    </g>
   </g>
   <g id="legend_1">
    <g id="line2d_12">
     <path d="M 219.884062 270.555938 
L 237.884062 270.555938 
L 255.884062 270.555938 
" style="fill: none; stroke: #095086; stroke-opacity: 0.75; stroke-width: 3; stroke-linecap: square"/>
    </g>
    <g id="text_11">
     <!-- Reward -->
     <g transform="translate(270.284062 276.855938) scale(0.18 -0.18)">
      <defs>
       <path id="DejaVuSans-52" d="M 2841 2188 
Q 3044 2119 3236 1894 
Q 3428 1669 3622 1275 
L 4263 0 
L 3584 0 
L 2988 1197 
Q 2756 1666 2539 1819 
Q 2322 1972 1947 1972 
L 1259 1972 
L 1259 0 
L 628 0 
L 628 4666 
L 2053 4666 
Q 2853 4666 3247 4331 
Q 3641 3997 3641 3322 
Q 3641 2881 3436 2590 
Q 3231 2300 2841 2188 
z
M 1259 4147 
L 1259 2491 
L 2053 2491 
Q 2509 2491 2742 2702 
Q 2975 2913 2975 3322 
Q 2975 3731 2742 3939 
Q 2509 4147 2053 4147 
L 1259 4147 
z
" transform="scale(0.015625)"/>
       <path id="DejaVuSans-65" d="M 3597 1894 
L 3597 1613 
L 953 1613 
Q 991 1019 1311 708 
Q 1631 397 2203 397 
Q 2534 397 2845 478 
Q 3156 559 3463 722 
L 3463 178 
Q 3153 47 2828 -22 
Q 2503 -91 2169 -91 
Q 1331 -91 842 396 
Q 353 884 353 1716 
Q 353 2575 817 3079 
Q 1281 3584 2069 3584 
Q 2775 3584 3186 3129 
Q 3597 2675 3597 1894 
z
M 3022 2063 
Q 3016 2534 2758 2815 
Q 2500 3097 2075 3097 
Q 1594 3097 1305 2825 
Q 1016 2553 972 2059 
L 3022 2063 
z
" transform="scale(0.015625)"/>
       <path id="DejaVuSans-77" d="M 269 3500 
L 844 3500 
L 1563 769 
L 2278 3500 
L 2956 3500 
L 3675 769 
L 4391 3500 
L 4966 3500 
L 4050 0 
L 3372 0 
L 2619 2869 
L 1863 0 
L 1184 0 
L 269 3500 
z
" transform="scale(0.015625)"/>
       <path id="DejaVuSans-64" d="M 2906 2969 
L 2906 4863 
L 3481 4863 
L 3481 0 
L 2906 0 
L 2906 525 
Q 2725 213 2448 61 
Q 2172 -91 1784 -91 
Q 1150 -91 751 415 
Q 353 922 353 1747 
Q 353 2572 751 3078 
Q 1150 3584 1784 3584 
Q 2172 3584 2448 3432 
Q 2725 3281 2906 2969 
z
M 947 1747 
Q 947 1113 1208 752 
Q 1469 391 1925 391 
Q 2381 391 2643 752 
Q 2906 1113 2906 1747 
Q 2906 2381 2643 2742 
Q 2381 3103 1925 3103 
Q 1469 3103 1208 2742 
Q 947 2381 947 1747 
z
" transform="scale(0.015625)"/>
      </defs>
      <use xlink:href="#DejaVuSans-52"/>
      <use xlink:href="#DejaVuSans-65" x="64.982422"/>
      <use xlink:href="#DejaVuSans-77" x="126.505859"/>
      <use xlink:href="#DejaVuSans-61" x="208.292969"/>
      <use xlink:href="#DejaVuSans-72" x="269.572266"/>
      <use xlink:href="#DejaVuSans-64" x="308.935547"/>
     </g>
    </g>
    <g id="line2d_13">
     <path d="M 219.884062 296.976563 
L 237.884062 296.976563 
L 255.884062 296.976563 
" style="fill: none; stroke: #b00000; stroke-opacity: 0.75; stroke-width: 3; stroke-linecap: square"/>
    </g>
    <g id="text_12">
     <!-- Punish -->
     <g transform="translate(270.284062 303.276563) scale(0.18 -0.18)">
      <defs>
       <path id="DejaVuSans-73" d="M 2834 3397 
L 2834 2853 
Q 2591 2978 2328 3040 
Q 2066 3103 1784 3103 
Q 1356 3103 1142 2972 
Q 928 2841 928 2578 
Q 928 2378 1081 2264 
Q 1234 2150 1697 2047 
L 1894 2003 
Q 2506 1872 2764 1633 
Q 3022 1394 3022 966 
Q 3022 478 2636 193 
Q 2250 -91 1575 -91 
Q 1294 -91 989 -36 
Q 684 19 347 128 
L 347 722 
Q 666 556 975 473 
Q 1284 391 1588 391 
Q 1994 391 2212 530 
Q 2431 669 2431 922 
Q 2431 1156 2273 1281 
Q 2116 1406 1581 1522 
L 1381 1569 
Q 847 1681 609 1914 
Q 372 2147 372 2553 
Q 372 3047 722 3315 
Q 1072 3584 1716 3584 
Q 2034 3584 2315 3537 
Q 2597 3491 2834 3397 
z
" transform="scale(0.015625)"/>
       <path id="DejaVuSans-68" d="M 3513 2113 
L 3513 0 
L 2938 0 
L 2938 2094 
Q 2938 2591 2744 2837 
Q 2550 3084 2163 3084 
Q 1697 3084 1428 2787 
Q 1159 2491 1159 1978 
L 1159 0 
L 581 0 
L 581 4863 
L 1159 4863 
L 1159 2956 
Q 1366 3272 1645 3428 
Q 1925 3584 2291 3584 
Q 2894 3584 3203 3211 
Q 3513 2838 3513 2113 
z
" transform="scale(0.015625)"/>
      </defs>
      <use xlink:href="#DejaVuSans-50"/>
      <use xlink:href="#DejaVuSans-75" x="58.552734"/>
      <use xlink:href="#DejaVuSans-6e" x="121.931641"/>
      <use xlink:href="#DejaVuSans-69" x="185.310547"/>
      <use xlink:href="#DejaVuSans-73" x="213.09375"/>
      <use xlink:href="#DejaVuSans-68" x="265.193359"/>
     </g>
    </g>
   </g>
  </g>
  <g id="axes_2">
   <g id="patch_5">
    <path d="M 435.53 323.22 
L 707.04 323.22 
L 707.04 42 
L 435.53 42 
z
" style="fill: #ffffff"/>
   </g>
   <g id="PolyCollection_3">
    <path d="M 447.871364 176.752189 
L 447.871364 253.908943 
L 458.155833 243.080394 
L 468.440303 237.709641 
L 478.724773 226.94587 
L 489.009242 201.474629 
L 499.293712 187.736942 
L 509.578182 177.43587 
L 519.862652 159.030199 
L 530.147121 162.669051 
L 540.431591 157.626663 
L 550.716061 159.749078 
L 561.00053 154.748409 
L 571.285 150.304257 
L 581.56947 144.861336 
L 591.853939 142.11571 
L 602.138409 136.248139 
L 612.422879 137.772849 
L 622.707348 138.21519 
L 632.991818 142.326085 
L 643.276288 139.93584 
L 653.560758 132.383181 
L 663.845227 131.027818 
L 674.129697 124.994776 
L 684.414167 125.329679 
L 684.414167 69.507554 
L 684.414167 69.507554 
L 674.129697 75.738054 
L 663.845227 70.412484 
L 653.560758 74.716895 
L 643.276288 79.898726 
L 632.991818 77.508481 
L 622.707348 75.959602 
L 612.422879 80.646774 
L 602.138409 89.246201 
L 591.853939 80.548743 
L 581.56947 82.047947 
L 571.285 92.169404 
L 561.00053 96.214912 
L 550.716061 96.874016 
L 540.431591 94.751601 
L 530.147121 96.78393 
L 519.862652 110.327386 
L 509.578182 114.560809 
L 499.293712 119.824114 
L 489.009242 142.874956 
L 478.724773 151.362356 
L 468.440303 170.312396 
L 458.155833 171.662625 
L 447.871364 176.752189 
z
" clip-path="url(#p7dff0b68d3)" style="fill: #095086; fill-opacity: 0.1"/>
   </g>
   <g id="PolyCollection_4">
    <path d="M 447.871364 156.386925 
L 447.871364 229.467666 
L 458.155833 222.23688 
L 468.440303 224.72463 
L 478.724773 209.622762 
L 489.009242 201.093501 
L 499.293712 191.7841 
L 509.578182 181.087583 
L 519.862652 168.584997 
L 530.147121 166.823795 
L 540.431591 166.118052 
L 550.716061 163.193837 
L 561.00053 160.509974 
L 571.285 151.703515 
L 581.56947 149.138731 
L 591.853939 143.702728 
L 602.138409 134.508489 
L 612.422879 138.490641 
L 622.707348 137.395063 
L 632.991818 132.377125 
L 643.276288 132.981857 
L 653.560758 125.85476 
L 663.845227 127.728123 
L 674.129697 122.848006 
L 684.414167 128.844282 
L 684.414167 70.709429 
L 684.414167 70.709429 
L 674.129697 72.578787 
L 663.845227 76.542065 
L 653.560758 75.585542 
L 643.276288 74.118219 
L 632.991818 78.967781 
L 622.707348 76.779729 
L 612.422879 71.439321 
L 602.138409 82.49619 
L 591.853939 86.036442 
L 581.56947 83.430325 
L 571.285 92.185089 
L 561.00053 98.943007 
L 550.716061 100.503975 
L 540.431591 100.409646 
L 530.147121 103.948733 
L 519.862652 109.262249 
L 509.578182 112.324039 
L 499.293712 122.851673 
L 489.009242 131.936537 
L 478.724773 137.556709 
L 468.440303 156.413483 
L 458.155833 160.669912 
L 447.871364 156.386925 
z
" clip-path="url(#p7dff0b68d3)" style="fill: #b00000; fill-opacity: 0.1"/>
   </g>
   <g id="matplotlib.axis_3">
    <g id="xtick_4">
     <g id="line2d_14">
      <g>
       <use xlink:href="#m7589839fad" x="447.871364" y="323.22" style="stroke: #000000; stroke-width: 0.8"/>
      </g>
     </g>
     <g id="text_13">
      <!-- 0 -->
      <g transform="translate(442.145114 343.897188) scale(0.18 -0.18)">
       <use xlink:href="#DejaVuSans-30"/>
      </g>
     </g>
    </g>
    <g id="xtick_5">
     <g id="line2d_15">
      <g>
       <use xlink:href="#m7589839fad" x="550.716061" y="323.22" style="stroke: #000000; stroke-width: 0.8"/>
      </g>
     </g>
     <g id="text_14">
      <!-- 10 -->
      <g transform="translate(539.263561 343.897188) scale(0.18 -0.18)">
       <use xlink:href="#DejaVuSans-31"/>
       <use xlink:href="#DejaVuSans-30" x="63.623047"/>
      </g>
     </g>
    </g>
    <g id="xtick_6">
     <g id="line2d_16">
      <g>
       <use xlink:href="#m7589839fad" x="653.560758" y="323.22" style="stroke: #000000; stroke-width: 0.8"/>
      </g>
     </g>
     <g id="text_15">
      <!-- 20 -->
      <g transform="translate(642.108258 343.897188) scale(0.18 -0.18)">
       <use xlink:href="#DejaVuSans-32"/>
       <use xlink:href="#DejaVuSans-30" x="63.623047"/>
      </g>
     </g>
    </g>
    <g id="text_16">
     <!-- Trial -->
     <g transform="translate(552.899688 365.317813) scale(0.18 -0.18)">
      <use xlink:href="#DejaVuSans-54"/>
      <use xlink:href="#DejaVuSans-72" x="46.333984"/>
      <use xlink:href="#DejaVuSans-69" x="87.447266"/>
      <use xlink:href="#DejaVuSans-61" x="115.230469"/>
      <use xlink:href="#DejaVuSans-6c" x="176.509766"/>
     </g>
    </g>
   </g>
   <g id="matplotlib.axis_4">
    <g id="ytick_5">
     <g id="line2d_17">
      <g>
       <use xlink:href="#ma591417daf" x="435.53" y="266.976" style="stroke: #000000; stroke-width: 0.8"/>
      </g>
     </g>
     <g id="text_17">
      <!-- 40 -->
      <g transform="translate(405.625 273.814594) scale(0.18 -0.18)">
       <use xlink:href="#DejaVuSans-34"/>
       <use xlink:href="#DejaVuSans-30" x="63.623047"/>
      </g>
     </g>
    </g>
    <g id="ytick_6">
     <g id="line2d_18">
      <g>
       <use xlink:href="#ma591417daf" x="435.53" y="191.984" style="stroke: #000000; stroke-width: 0.8"/>
      </g>
     </g>
     <g id="text_18">
      <!-- 60 -->
      <g transform="translate(405.625 198.822594) scale(0.18 -0.18)">
       <use xlink:href="#DejaVuSans-36"/>
       <use xlink:href="#DejaVuSans-30" x="63.623047"/>
      </g>
     </g>
    </g>
    <g id="ytick_7">
     <g id="line2d_19">
      <g>
       <use xlink:href="#ma591417daf" x="435.53" y="116.992" style="stroke: #000000; stroke-width: 0.8"/>
      </g>
     </g>
     <g id="text_19">
      <!-- 80 -->
      <g transform="translate(405.625 123.830594) scale(0.18 -0.18)">
       <use xlink:href="#DejaVuSans-38"/>
       <use xlink:href="#DejaVuSans-30" x="63.623047"/>
      </g>
     </g>
    </g>
    <g id="ytick_8">
     <g id="line2d_20">
      <g>
       <use xlink:href="#ma591417daf" x="435.53" y="42" style="stroke: #000000; stroke-width: 0.8"/>
      </g>
     </g>
     <g id="text_20">
      <!-- 100 -->
      <g transform="translate(394.1725 48.838594) scale(0.18 -0.18)">
       <use xlink:href="#DejaVuSans-31"/>
       <use xlink:href="#DejaVuSans-30" x="63.623047"/>
       <use xlink:href="#DejaVuSans-30" x="127.246094"/>
      </g>
     </g>
    </g>
    <g id="text_21">
     <!-- Accuracy (%) -->
     <g transform="translate(386.429063 242.135156) rotate(-90) scale(0.18 -0.18)">
      <use xlink:href="#DejaVuSans-41"/>
      <use xlink:href="#DejaVuSans-63" x="66.658203"/>
      <use xlink:href="#DejaVuSans-63" x="121.638672"/>
      <use xlink:href="#DejaVuSans-75" x="176.619141"/>
      <use xlink:href="#DejaVuSans-72" x="239.998047"/>
      <use xlink:href="#DejaVuSans-61" x="281.111328"/>
      <use xlink:href="#DejaVuSans-63" x="342.390625"/>
      <use xlink:href="#DejaVuSans-79" x="397.371094"/>
      <use xlink:href="#DejaVuSans-20" x="456.550781"/>
      <use xlink:href="#DejaVuSans-28" x="488.337891"/>
      <use xlink:href="#DejaVuSans-25" x="527.351562"/>
      <use xlink:href="#DejaVuSans-29" x="622.371094"/>
     </g>
    </g>
   </g>
   <g id="line2d_21">
    <path d="M 447.871364 215.330566 
L 458.155833 207.371509 
L 468.440303 204.011019 
L 478.724773 189.154113 
L 489.009242 172.174792 
L 499.293712 153.780528 
L 509.578182 145.99834 
L 519.862652 134.678792 
L 530.147121 129.726491 
L 540.431591 126.189132 
L 550.716061 128.311547 
L 561.00053 125.48166 
L 571.285 121.23683 
L 581.56947 113.454642 
L 591.853939 111.332226 
L 602.138409 112.74717 
L 612.422879 109.209811 
L 622.707348 107.087396 
L 632.991818 109.917283 
L 643.276288 109.917283 
L 653.560758 103.550038 
L 663.845227 100.720151 
L 674.129697 100.366415 
L 684.414167 97.418616 
" clip-path="url(#p7dff0b68d3)" style="fill: none; stroke: #095086; stroke-opacity: 0.75; stroke-width: 3; stroke-linecap: square"/>
   </g>
   <g id="line2d_22">
    <path d="M 458.155833 190.569057 
L 468.440303 178.188302 
L 478.724773 167.222491 
L 489.009242 148.828226 
L 499.293712 134.678792 
L 509.578182 124.774189 
L 519.862652 116.284528 
L 530.147121 109.917283 
L 540.431591 102.135094 
L 550.716061 99.305208 
L 561.00053 94.352906 
L 571.285 93.645434 
L 581.56947 93.645434 
L 591.853939 99.305208 
L 602.138409 93.645434 
L 612.422879 90.108075 
L 622.707348 85.863245 
L 632.991818 85.155774 
L 643.276288 75.25117 
L 653.560758 76.666113 
L 663.845227 78.788528 
L 674.129697 78.788528 
L 684.414167 76.489245 
L 694.698636 82.090063 
" clip-path="url(#p7dff0b68d3)" style="fill: none; stroke-dasharray: 7.4,3.2; stroke-dashoffset: 0; stroke: #095086; stroke-opacity: 0.75; stroke-width: 2"/>
   </g>
   <g id="line2d_23">
    <path d="M 447.871364 192.927296 
L 458.155833 191.453396 
L 468.440303 190.569057 
L 478.724773 173.589736 
L 489.009242 166.515019 
L 499.293712 157.317887 
L 509.578182 146.705811 
L 519.862652 138.923623 
L 530.147121 135.386264 
L 540.431591 133.263849 
L 550.716061 131.848906 
L 561.00053 129.726491 
L 571.285 121.944302 
L 581.56947 116.284528 
L 591.853939 114.869585 
L 602.138409 108.50234 
L 612.422879 104.964981 
L 622.707348 107.087396 
L 632.991818 105.672453 
L 643.276288 103.550038 
L 653.560758 100.720151 
L 663.845227 102.135094 
L 674.129697 97.713396 
L 684.414167 99.776855 
" clip-path="url(#p7dff0b68d3)" style="fill: none; stroke: #b00000; stroke-opacity: 0.75; stroke-width: 3; stroke-linecap: square"/>
   </g>
   <g id="line2d_24">
    <path d="M 458.155833 192.927296 
L 468.440303 189.684717 
L 478.724773 178.542038 
L 489.009242 162.270189 
L 499.293712 149.535698 
L 509.578182 133.263849 
L 519.862652 117.699472 
L 530.147121 110.624755 
L 540.431591 107.794868 
L 550.716061 104.257509 
L 561.00053 102.842566 
L 571.285 104.257509 
L 581.56947 102.135094 
L 591.853939 98.597736 
L 602.138409 95.060377 
L 612.422879 92.937962 
L 622.707348 90.108075 
L 632.991818 88.693132 
L 643.276288 87.98566 
L 653.560758 88.693132 
L 663.845227 85.155774 
L 674.129697 80.910943 
L 684.414167 80.910943 
L 694.698636 77.373585 
" clip-path="url(#p7dff0b68d3)" style="fill: none; stroke-dasharray: 7.4,3.2; stroke-dashoffset: 0; stroke: #b00000; stroke-opacity: 0.75; stroke-width: 2"/>
   </g>
   <g id="patch_6">
    <path d="M 435.53 323.22 
L 435.53 42 
" style="fill: none; stroke: #000000; stroke-width: 0.8; stroke-linejoin: miter; stroke-linecap: square"/>
   </g>
   <g id="patch_7">
    <path d="M 435.53 323.22 
L 707.04 323.22 
" style="fill: none; stroke: #000000; stroke-width: 0.8; stroke-linejoin: miter; stroke-linecap: square"/>
   </g>
   <g id="text_22">
    <!-- Acute Pain -->
    <g transform="translate(514.502313 36) scale(0.216 -0.216)">
     <defs>
      <path id="DejaVuSans-74" d="M 1172 4494 
L 1172 3500 
L 2356 3500 
L 2356 3053 
L 1172 3053 
L 1172 1153 
Q 1172 725 1289 603 
Q 1406 481 1766 481 
L 2356 481 
L 2356 0 
L 1766 0 
Q 1100 0 847 248 
Q 594 497 594 1153 
L 594 3053 
L 172 3053 
L 172 3500 
L 594 3500 
L 594 4494 
L 1172 4494 
z
" transform="scale(0.015625)"/>
     </defs>
     <use xlink:href="#DejaVuSans-41"/>
     <use xlink:href="#DejaVuSans-63" x="66.658203"/>
     <use xlink:href="#DejaVuSans-75" x="121.638672"/>
     <use xlink:href="#DejaVuSans-74" x="185.017578"/>
     <use xlink:href="#DejaVuSans-65" x="224.226562"/>
     <use xlink:href="#DejaVuSans-20" x="285.75"/>
     <use xlink:href="#DejaVuSans-50" x="317.537109"/>
     <use xlink:href="#DejaVuSans-61" x="373.339844"/>
     <use xlink:href="#DejaVuSans-69" x="434.619141"/>
     <use xlink:href="#DejaVuSans-6e" x="462.402344"/>
    </g>
   </g>
   <g id="legend_2">
    <g id="line2d_25">
     <path d="M 573.404063 270.555938 
L 591.404063 270.555938 
L 609.404063 270.555938 
" style="fill: none; stroke: #095086; stroke-opacity: 0.75; stroke-width: 3; stroke-linecap: square"/>
    </g>
    <g id="text_23">
     <!-- Reward -->
     <g transform="translate(623.804062 276.855938) scale(0.18 -0.18)">
      <use xlink:href="#DejaVuSans-52"/>
      <use xlink:href="#DejaVuSans-65" x="64.982422"/>
      <use xlink:href="#DejaVuSans-77" x="126.505859"/>
      <use xlink:href="#DejaVuSans-61" x="208.292969"/>
      <use xlink:href="#DejaVuSans-72" x="269.572266"/>
      <use xlink:href="#DejaVuSans-64" x="308.935547"/>
     </g>
    </g>
    <g id="line2d_26">
     <path d="M 573.404063 296.976563 
L 591.404063 296.976563 
L 609.404063 296.976563 
" style="fill: none; stroke: #b00000; stroke-opacity: 0.75; stroke-width: 3; stroke-linecap: square"/>
    </g>
    <g id="text_24">
     <!-- Punish -->
     <g transform="translate(623.804062 303.276563) scale(0.18 -0.18)">
      <use xlink:href="#DejaVuSans-50"/>
      <use xlink:href="#DejaVuSans-75" x="58.552734"/>
      <use xlink:href="#DejaVuSans-6e" x="121.931641"/>
      <use xlink:href="#DejaVuSans-69" x="185.310547"/>
      <use xlink:href="#DejaVuSans-73" x="213.09375"/>
      <use xlink:href="#DejaVuSans-68" x="265.193359"/>
     </g>
    </g>
   </g>
  </g>
  <g id="axes_3">
   <g id="patch_8">
    <path d="M 789.05 323.22 
L 1060.56 323.22 
L 1060.56 42 
L 789.05 42 
z
" style="fill: #ffffff"/>
   </g>
   <g id="PolyCollection_5">
    <path d="M 801.391364 168.549906 
L 801.391364 226.314367 
L 811.675833 225.75363 
L 821.960303 214.988576 
L 832.244773 206.019056 
L 842.529242 196.796601 
L 852.813712 192.924628 
L 863.098182 180.593875 
L 873.382652 176.649718 
L 883.667121 163.257229 
L 893.951591 155.168016 
L 904.236061 150.756116 
L 914.52053 151.344041 
L 924.805 145.468219 
L 935.08947 143.497836 
L 945.373939 134.617304 
L 955.658409 134.446643 
L 965.942879 126.845863 
L 976.227348 128.883023 
L 986.511818 130.977113 
L 996.796288 125.358728 
L 1007.080758 121.993702 
L 1017.365227 117.367102 
L 1027.649697 112.862814 
L 1037.934167 108.761735 
L 1037.934167 69.779461 
L 1037.934167 69.779461 
L 1027.649697 73.289751 
L 1017.365227 73.352283 
L 1007.080758 75.455734 
L 996.796288 78.82076 
L 986.511818 77.048118 
L 976.227348 82.026516 
L 965.942879 83.10224 
L 955.658409 85.115818 
L 945.373939 92.636645 
L 935.08947 89.524728 
L 924.805 93.32296 
L 914.52053 99.945805 
L 904.236061 98.610858 
L 893.951591 102.851882 
L 883.667121 113.02995 
L 873.382652 117.904743 
L 863.098182 122.61351 
L 852.813712 136.241526 
L 842.529242 140.06104 
L 832.244773 147.182996 
L 821.960303 159.365065 
L 811.675833 164.704062 
L 801.391364 168.549906 
z
" clip-path="url(#pf7fefd0969)" style="fill: #095086; fill-opacity: 0.1"/>
   </g>
   <g id="PolyCollection_6">
    <path d="M 801.391364 162.451015 
L 801.391364 219.594113 
L 811.675833 216.401584 
L 821.960303 212.107918 
L 832.244773 197.06797 
L 842.529242 185.585186 
L 852.813712 174.847711 
L 863.098182 161.002315 
L 873.382652 157.366529 
L 883.667121 148.989096 
L 893.951591 150.006501 
L 904.236061 146.181654 
L 914.52053 144.392429 
L 924.805 139.848858 
L 935.08947 139.36814 
L 945.373939 138.098721 
L 955.658409 142.462984 
L 965.942879 134.508743 
L 976.227348 130.565035 
L 986.511818 123.371776 
L 996.796288 118.944084 
L 1007.080758 118.215855 
L 1017.365227 117.908567 
L 1027.649697 115.926584 
L 1037.934167 114.160626 
L 1037.934167 77.199715 
L 1037.934167 77.199715 
L 1027.649697 71.427775 
L 1017.365227 73.772253 
L 1007.080758 79.233581 
L 996.796288 76.58248 
L 986.511818 82.730583 
L 976.227348 88.997427 
L 965.942879 84.092283 
L 955.658409 83.829528 
L 945.373939 93.962407 
L 935.08947 89.80868 
L 924.805 90.289398 
L 914.52053 92.475879 
L 904.236061 90.686654 
L 893.951591 96.476166 
L 883.667121 101.339315 
L 873.382652 101.614804 
L 863.098182 112.400557 
L 852.813712 124.51393 
L 842.529242 127.236558 
L 832.244773 139.789671 
L 821.960303 150.708492 
L 811.675833 159.63457 
L 801.391364 162.451015 
z
" clip-path="url(#pf7fefd0969)" style="fill: #b00000; fill-opacity: 0.1"/>
   </g>
   <g id="matplotlib.axis_5">
    <g id="xtick_7">
     <g id="line2d_27">
      <g>
       <use xlink:href="#m7589839fad" x="801.391364" y="323.22" style="stroke: #000000; stroke-width: 0.8"/>
      </g>
     </g>
     <g id="text_25">
      <!-- 0 -->
      <g transform="translate(795.665114 343.897188) scale(0.18 -0.18)">
       <use xlink:href="#DejaVuSans-30"/>
      </g>
     </g>
    </g>
    <g id="xtick_8">
     <g id="line2d_28">
      <g>
       <use xlink:href="#m7589839fad" x="904.236061" y="323.22" style="stroke: #000000; stroke-width: 0.8"/>
      </g>
     </g>
     <g id="text_26">
      <!-- 10 -->
      <g transform="translate(892.783561 343.897188) scale(0.18 -0.18)">
       <use xlink:href="#DejaVuSans-31"/>
       <use xlink:href="#DejaVuSans-30" x="63.623047"/>
      </g>
     </g>
    </g>
    <g id="xtick_9">
     <g id="line2d_29">
      <g>
       <use xlink:href="#m7589839fad" x="1007.080758" y="323.22" style="stroke: #000000; stroke-width: 0.8"/>
      </g>
     </g>
     <g id="text_27">
      <!-- 20 -->
      <g transform="translate(995.628258 343.897188) scale(0.18 -0.18)">
       <use xlink:href="#DejaVuSans-32"/>
       <use xlink:href="#DejaVuSans-30" x="63.623047"/>
      </g>
     </g>
    </g>
    <g id="text_28">
     <!-- Trial -->
     <g transform="translate(906.419688 365.317813) scale(0.18 -0.18)">
      <use xlink:href="#DejaVuSans-54"/>
      <use xlink:href="#DejaVuSans-72" x="46.333984"/>
      <use xlink:href="#DejaVuSans-69" x="87.447266"/>
      <use xlink:href="#DejaVuSans-61" x="115.230469"/>
      <use xlink:href="#DejaVuSans-6c" x="176.509766"/>
     </g>
    </g>
   </g>
   <g id="matplotlib.axis_6">
    <g id="ytick_9">
     <g id="line2d_30">
      <g>
       <use xlink:href="#ma591417daf" x="789.05" y="266.976" style="stroke: #000000; stroke-width: 0.8"/>
      </g>
     </g>
     <g id="text_29">
      <!-- 40 -->
      <g transform="translate(759.145 273.814594) scale(0.18 -0.18)">
       <use xlink:href="#DejaVuSans-34"/>
       <use xlink:href="#DejaVuSans-30" x="63.623047"/>
      </g>
     </g>
    </g>
    <g id="ytick_10">
     <g id="line2d_31">
      <g>
       <use xlink:href="#ma591417daf" x="789.05" y="191.984" style="stroke: #000000; stroke-width: 0.8"/>
      </g>
     </g>
     <g id="text_30">
      <!-- 60 -->
      <g transform="translate(759.145 198.822594) scale(0.18 -0.18)">
       <use xlink:href="#DejaVuSans-36"/>
       <use xlink:href="#DejaVuSans-30" x="63.623047"/>
      </g>
     </g>
    </g>
    <g id="ytick_11">
     <g id="line2d_32">
      <g>
       <use xlink:href="#ma591417daf" x="789.05" y="116.992" style="stroke: #000000; stroke-width: 0.8"/>
      </g>
     </g>
     <g id="text_31">
      <!-- 80 -->
      <g transform="translate(759.145 123.830594) scale(0.18 -0.18)">
       <use xlink:href="#DejaVuSans-38"/>
       <use xlink:href="#DejaVuSans-30" x="63.623047"/>
      </g>
     </g>
    </g>
    <g id="ytick_12">
     <g id="line2d_33">
      <g>
       <use xlink:href="#ma591417daf" x="789.05" y="42" style="stroke: #000000; stroke-width: 0.8"/>
      </g>
     </g>
     <g id="text_32">
      <!-- 100 -->
      <g transform="translate(747.6925 48.838594) scale(0.18 -0.18)">
       <use xlink:href="#DejaVuSans-31"/>
       <use xlink:href="#DejaVuSans-30" x="63.623047"/>
       <use xlink:href="#DejaVuSans-30" x="127.246094"/>
      </g>
     </g>
    </g>
    <g id="text_33">
     <!-- Accuracy (%) -->
     <g transform="translate(739.949063 242.135156) rotate(-90) scale(0.18 -0.18)">
      <use xlink:href="#DejaVuSans-41"/>
      <use xlink:href="#DejaVuSans-63" x="66.658203"/>
      <use xlink:href="#DejaVuSans-63" x="121.638672"/>
      <use xlink:href="#DejaVuSans-75" x="176.619141"/>
      <use xlink:href="#DejaVuSans-72" x="239.998047"/>
      <use xlink:href="#DejaVuSans-61" x="281.111328"/>
      <use xlink:href="#DejaVuSans-63" x="342.390625"/>
      <use xlink:href="#DejaVuSans-79" x="397.371094"/>
      <use xlink:href="#DejaVuSans-20" x="456.550781"/>
      <use xlink:href="#DejaVuSans-28" x="488.337891"/>
      <use xlink:href="#DejaVuSans-25" x="527.351562"/>
      <use xlink:href="#DejaVuSans-29" x="622.371094"/>
     </g>
    </g>
   </g>
   <g id="line2d_34">
    <path d="M 801.391364 197.432137 
L 811.675833 195.228846 
L 821.960303 187.176821 
L 832.244773 176.601026 
L 842.529242 168.428821 
L 852.813712 164.583077 
L 863.098182 151.603692 
L 873.382652 147.277231 
L 883.667121 138.14359 
L 893.951591 129.009949 
L 904.236061 124.683487 
L 914.52053 125.644923 
L 924.805 119.39559 
L 935.08947 116.511282 
L 945.373939 113.626974 
L 955.658409 109.781231 
L 965.942879 104.974051 
L 976.227348 105.454769 
L 986.511818 104.012615 
L 996.796288 102.089744 
L 1007.080758 98.724718 
L 1017.365227 95.359692 
L 1027.649697 93.076282 
L 1037.934167 89.270598 
" clip-path="url(#pf7fefd0969)" style="fill: none; stroke: #095086; stroke-opacity: 0.75; stroke-width: 3; stroke-linecap: square"/>
   </g>
   <g id="line2d_35">
    <path d="M 811.675833 199.835726 
L 821.960303 188.018077 
L 832.244773 179.004615 
L 842.529242 161.218051 
L 852.813712 141.508615 
L 863.098182 128.048513 
L 873.382652 120.837744 
L 883.667121 112.665538 
L 893.951591 106.416205 
L 904.236061 106.416205 
L 914.52053 100.64759 
L 924.805 96.801846 
L 935.08947 93.436821 
L 945.373939 92.475385 
L 955.658409 85.264615 
L 965.942879 87.187487 
L 976.227348 84.783897 
L 986.511818 83.341744 
L 996.796288 78.053846 
L 1007.080758 80.938154 
L 1017.365227 78.053846 
L 1027.649697 76.130974 
L 1037.934167 75.650256 
L 1048.218636 77.25265 
" clip-path="url(#pf7fefd0969)" style="fill: none; stroke-dasharray: 7.4,3.2; stroke-dashoffset: 0; stroke: #095086; stroke-opacity: 0.75; stroke-width: 2"/>
   </g>
   <g id="line2d_36">
    <path d="M 801.391364 191.022564 
L 811.675833 188.018077 
L 821.960303 181.408205 
L 832.244773 168.428821 
L 842.529242 156.410872 
L 852.813712 149.680821 
L 863.098182 136.701436 
L 873.382652 129.490667 
L 883.667121 125.164205 
L 893.951591 123.241333 
L 904.236061 118.434154 
L 914.52053 118.434154 
L 924.805 115.069128 
L 935.08947 114.58841 
L 945.373939 116.030564 
L 955.658409 113.146256 
L 965.942879 109.300513 
L 976.227348 109.781231 
L 986.511818 103.051179 
L 996.796288 97.763282 
L 1007.080758 98.724718 
L 1017.365227 95.84041 
L 1027.649697 93.677179 
L 1037.934167 95.680171 
" clip-path="url(#pf7fefd0969)" style="fill: none; stroke: #b00000; stroke-opacity: 0.75; stroke-width: 3; stroke-linecap: square"/>
   </g>
   <g id="line2d_37">
    <path d="M 811.675833 206.245299 
L 821.960303 196.430641 
L 832.244773 191.022564 
L 842.529242 169.390256 
L 852.813712 154.007282 
L 863.098182 141.989333 
L 873.382652 128.529231 
L 883.667121 117.472718 
L 893.951591 109.300513 
L 904.236061 100.64759 
L 914.52053 95.359692 
L 924.805 96.801846 
L 935.08947 92.956103 
L 945.373939 92.475385 
L 955.658409 93.436821 
L 965.942879 92.956103 
L 976.227348 87.668205 
L 986.511818 86.706769 
L 996.796288 83.822462 
L 1007.080758 80.938154 
L 1017.365227 77.573128 
L 1027.649697 75.169538 
L 1037.934167 71.443974 
L 1048.218636 68.439487 
" clip-path="url(#pf7fefd0969)" style="fill: none; stroke-dasharray: 7.4,3.2; stroke-dashoffset: 0; stroke: #b00000; stroke-opacity: 0.75; stroke-width: 2"/>
   </g>
   <g id="patch_9">
    <path d="M 789.05 323.22 
L 789.05 42 
" style="fill: none; stroke: #000000; stroke-width: 0.8; stroke-linejoin: miter; stroke-linecap: square"/>
   </g>
   <g id="patch_10">
    <path d="M 789.05 323.22 
L 1060.56 323.22 
" style="fill: none; stroke: #000000; stroke-width: 0.8; stroke-linejoin: miter; stroke-linecap: square"/>
   </g>
   <g id="text_34">
    <!-- Chronic Pain -->
    <g transform="translate(857.909125 36) scale(0.216 -0.216)">
     <defs>
      <path id="DejaVuSans-43" d="M 4122 4306 
L 4122 3641 
Q 3803 3938 3442 4084 
Q 3081 4231 2675 4231 
Q 1875 4231 1450 3742 
Q 1025 3253 1025 2328 
Q 1025 1406 1450 917 
Q 1875 428 2675 428 
Q 3081 428 3442 575 
Q 3803 722 4122 1019 
L 4122 359 
Q 3791 134 3420 21 
Q 3050 -91 2638 -91 
Q 1578 -91 968 557 
Q 359 1206 359 2328 
Q 359 3453 968 4101 
Q 1578 4750 2638 4750 
Q 3056 4750 3426 4639 
Q 3797 4528 4122 4306 
z
" transform="scale(0.015625)"/>
     </defs>
     <use xlink:href="#DejaVuSans-43"/>
     <use xlink:href="#DejaVuSans-68" x="69.824219"/>
     <use xlink:href="#DejaVuSans-72" x="133.203125"/>
     <use xlink:href="#DejaVuSans-6f" x="172.066406"/>
     <use xlink:href="#DejaVuSans-6e" x="233.248047"/>
     <use xlink:href="#DejaVuSans-69" x="296.626953"/>
     <use xlink:href="#DejaVuSans-63" x="324.410156"/>
     <use xlink:href="#DejaVuSans-20" x="379.390625"/>
     <use xlink:href="#DejaVuSans-50" x="411.177734"/>
     <use xlink:href="#DejaVuSans-61" x="466.980469"/>
     <use xlink:href="#DejaVuSans-69" x="528.259766"/>
     <use xlink:href="#DejaVuSans-6e" x="556.042969"/>
    </g>
   </g>
   <g id="legend_3">
    <g id="line2d_38">
     <path d="M 926.924062 270.555938 
L 944.924062 270.555938 
L 962.924062 270.555938 
" style="fill: none; stroke: #095086; stroke-opacity: 0.75; stroke-width: 3; stroke-linecap: square"/>
    </g>
    <g id="text_35">
     <!-- Reward -->
     <g transform="translate(977.324062 276.855938) scale(0.18 -0.18)">
      <use xlink:href="#DejaVuSans-52"/>
      <use xlink:href="#DejaVuSans-65" x="64.982422"/>
      <use xlink:href="#DejaVuSans-77" x="126.505859"/>
      <use xlink:href="#DejaVuSans-61" x="208.292969"/>
      <use xlink:href="#DejaVuSans-72" x="269.572266"/>
      <use xlink:href="#DejaVuSans-64" x="308.935547"/>
     </g>
    </g>
    <g id="line2d_39">
     <path d="M 926.924062 296.976563 
L 944.924062 296.976563 
L 962.924062 296.976563 
" style="fill: none; stroke: #b00000; stroke-opacity: 0.75; stroke-width: 3; stroke-linecap: square"/>
    </g>
    <g id="text_36">
     <!-- Punish -->
     <g transform="translate(977.324062 303.276563) scale(0.18 -0.18)">
      <use xlink:href="#DejaVuSans-50"/>
      <use xlink:href="#DejaVuSans-75" x="58.552734"/>
      <use xlink:href="#DejaVuSans-6e" x="121.931641"/>
      <use xlink:href="#DejaVuSans-69" x="185.310547"/>
      <use xlink:href="#DejaVuSans-73" x="213.09375"/>
      <use xlink:href="#DejaVuSans-68" x="265.193359"/>
     </g>
    </g>
   </g>
  </g>
  <g id="axes_4">
   <g id="patch_11">
    <path d="M 82.01 676.28 
L 353.52 676.28 
L 353.52 395.06 
L 82.01 395.06 
z
" style="fill: #ffffff"/>
   </g>
   <g id="patch_12">
    <path d="M 94.351364 676.28 
L 135.489242 676.28 
L 135.489242 424.965664 
L 94.351364 424.965664 
z
" clip-path="url(#p5bddcecc2b)" style="fill: #095086; opacity: 0.75"/>
   </g>
   <g id="patch_13">
    <path d="M 145.773712 676.28 
L 186.911591 676.28 
L 186.911591 521.465786 
L 145.773712 521.465786 
z
" clip-path="url(#p5bddcecc2b)" style="fill: #9bd2f2; opacity: 0.75"/>
   </g>
   <g id="patch_14">
    <path d="M 197.196061 676.28 
L 238.333939 676.28 
L 238.333939 540.695506 
L 197.196061 540.695506 
z
" clip-path="url(#p5bddcecc2b)" style="fill: #eca6a6; opacity: 0.75"/>
   </g>
   <g id="patch_15">
    <path d="M 248.618409 676.28 
L 289.756288 676.28 
L 289.756288 640.710878 
L 248.618409 640.710878 
z
" clip-path="url(#p5bddcecc2b)" style="fill: #b00000; opacity: 0.75"/>
   </g>
   <g id="patch_16">
    <path d="M 300.040758 676.28 
L 341.178636 676.28 
L 341.178636 571.916133 
L 300.040758 571.916133 
z
" clip-path="url(#p5bddcecc2b)" style="fill: #d3d3d3; opacity: 0.75"/>
   </g>
   <g id="PathCollection_1">
    <defs>
     <path id="m2d8cb2f4a4" d="M -0 4.242641 
L 4.242641 0 
L 0 -4.242641 
L -4.242641 -0 
z
" style="stroke: #808080; stroke-opacity: 0.75"/>
    </defs>
    <g clip-path="url(#p5bddcecc2b)">
     <use xlink:href="#m2d8cb2f4a4" x="114.920303" y="434.4308" style="fill: #808080; fill-opacity: 0.75; stroke: #808080; stroke-opacity: 0.75"/>
     <use xlink:href="#m2d8cb2f4a4" x="166.342652" y="511.7663" style="fill: #808080; fill-opacity: 0.75; stroke: #808080; stroke-opacity: 0.75"/>
     <use xlink:href="#m2d8cb2f4a4" x="217.765" y="544.1066" style="fill: #808080; fill-opacity: 0.75; stroke: #808080; stroke-opacity: 0.75"/>
     <use xlink:href="#m2d8cb2f4a4" x="269.187348" y="639.7214" style="fill: #808080; fill-opacity: 0.75; stroke: #808080; stroke-opacity: 0.75"/>
     <use xlink:href="#m2d8cb2f4a4" x="320.609697" y="572.2286" style="fill: #808080; fill-opacity: 0.75; stroke: #808080; stroke-opacity: 0.75"/>
    </g>
   </g>
   <g id="matplotlib.axis_7">
    <g id="xtick_10">
     <g id="line2d_40">
      <g>
       <use xlink:href="#m7589839fad" x="114.920303" y="676.28" style="stroke: #000000; stroke-width: 0.8"/>
      </g>
     </g>
     <g id="text_37">
      <!-- HR -->
      <g transform="translate(101.898428 696.957188) scale(0.18 -0.18)">
       <defs>
        <path id="DejaVuSans-48" d="M 628 4666 
L 1259 4666 
L 1259 2753 
L 3553 2753 
L 3553 4666 
L 4184 4666 
L 4184 0 
L 3553 0 
L 3553 2222 
L 1259 2222 
L 1259 0 
L 628 0 
L 628 4666 
z
" transform="scale(0.015625)"/>
       </defs>
       <use xlink:href="#DejaVuSans-48"/>
       <use xlink:href="#DejaVuSans-52" x="75.195312"/>
      </g>
     </g>
    </g>
    <g id="xtick_11">
     <g id="line2d_41">
      <g>
       <use xlink:href="#m7589839fad" x="166.342652" y="676.28" style="stroke: #000000; stroke-width: 0.8"/>
      </g>
     </g>
     <g id="text_38">
      <!-- LR -->
      <g transform="translate(155.07437 696.957188) scale(0.18 -0.18)">
       <defs>
        <path id="DejaVuSans-4c" d="M 628 4666 
L 1259 4666 
L 1259 531 
L 3531 531 
L 3531 0 
L 628 0 
L 628 4666 
z
" transform="scale(0.015625)"/>
       </defs>
       <use xlink:href="#DejaVuSans-4c"/>
       <use xlink:href="#DejaVuSans-52" x="55.712891"/>
      </g>
     </g>
    </g>
    <g id="xtick_12">
     <g id="line2d_42">
      <g>
       <use xlink:href="#m7589839fad" x="217.765" y="676.28" style="stroke: #000000; stroke-width: 0.8"/>
      </g>
     </g>
     <g id="text_39">
      <!-- LP -->
      <g transform="translate(207.323594 696.957188) scale(0.18 -0.18)">
       <use xlink:href="#DejaVuSans-4c"/>
       <use xlink:href="#DejaVuSans-50" x="55.712891"/>
      </g>
     </g>
    </g>
    <g id="xtick_13">
     <g id="line2d_43">
      <g>
       <use xlink:href="#m7589839fad" x="269.187348" y="676.28" style="stroke: #000000; stroke-width: 0.8"/>
      </g>
     </g>
     <g id="text_40">
      <!-- HP -->
      <g transform="translate(256.992348 696.957188) scale(0.18 -0.18)">
       <use xlink:href="#DejaVuSans-48"/>
       <use xlink:href="#DejaVuSans-50" x="75.195312"/>
      </g>
     </g>
    </g>
    <g id="xtick_14">
     <g id="line2d_44">
      <g>
       <use xlink:href="#m7589839fad" x="320.609697" y="676.28" style="stroke: #000000; stroke-width: 0.8"/>
      </g>
     </g>
     <g id="text_41">
      <!-- N -->
      <g transform="translate(313.876572 696.957188) scale(0.18 -0.18)">
       <use xlink:href="#DejaVuSans-4e"/>
      </g>
     </g>
    </g>
   </g>
   <g id="matplotlib.axis_8">
    <g id="ytick_13">
     <g id="line2d_45">
      <g>
       <use xlink:href="#ma591417daf" x="82.01" y="676.28" style="stroke: #000000; stroke-width: 0.8"/>
      </g>
     </g>
     <g id="text_42">
      <!-- 0 -->
      <g transform="translate(63.5575 683.118594) scale(0.18 -0.18)">
       <use xlink:href="#DejaVuSans-30"/>
      </g>
     </g>
    </g>
    <g id="ytick_14">
     <g id="line2d_46">
      <g>
       <use xlink:href="#ma591417daf" x="82.01" y="620.036" style="stroke: #000000; stroke-width: 0.8"/>
      </g>
     </g>
     <g id="text_43">
      <!-- 20 -->
      <g transform="translate(52.105 626.874594) scale(0.18 -0.18)">
       <use xlink:href="#DejaVuSans-32"/>
       <use xlink:href="#DejaVuSans-30" x="63.623047"/>
      </g>
     </g>
    </g>
    <g id="ytick_15">
     <g id="line2d_47">
      <g>
       <use xlink:href="#ma591417daf" x="82.01" y="563.792" style="stroke: #000000; stroke-width: 0.8"/>
      </g>
     </g>
     <g id="text_44">
      <!-- 40 -->
      <g transform="translate(52.105 570.630594) scale(0.18 -0.18)">
       <use xlink:href="#DejaVuSans-34"/>
       <use xlink:href="#DejaVuSans-30" x="63.623047"/>
      </g>
     </g>
    </g>
    <g id="ytick_16">
     <g id="line2d_48">
      <g>
       <use xlink:href="#ma591417daf" x="82.01" y="507.548" style="stroke: #000000; stroke-width: 0.8"/>
      </g>
     </g>
     <g id="text_45">
      <!-- 60 -->
      <g transform="translate(52.105 514.386594) scale(0.18 -0.18)">
       <use xlink:href="#DejaVuSans-36"/>
       <use xlink:href="#DejaVuSans-30" x="63.623047"/>
      </g>
     </g>
    </g>
    <g id="ytick_17">
     <g id="line2d_49">
      <g>
       <use xlink:href="#ma591417daf" x="82.01" y="451.304" style="stroke: #000000; stroke-width: 0.8"/>
      </g>
     </g>
     <g id="text_46">
      <!-- 80 -->
      <g transform="translate(52.105 458.142594) scale(0.18 -0.18)">
       <use xlink:href="#DejaVuSans-38"/>
       <use xlink:href="#DejaVuSans-30" x="63.623047"/>
      </g>
     </g>
    </g>
    <g id="ytick_18">
     <g id="line2d_50">
      <g>
       <use xlink:href="#ma591417daf" x="82.01" y="395.06" style="stroke: #000000; stroke-width: 0.8"/>
      </g>
     </g>
     <g id="text_47">
      <!-- 100 -->
      <g transform="translate(40.6525 401.898594) scale(0.18 -0.18)">
       <use xlink:href="#DejaVuSans-31"/>
       <use xlink:href="#DejaVuSans-30" x="63.623047"/>
       <use xlink:href="#DejaVuSans-30" x="127.246094"/>
      </g>
     </g>
    </g>
    <g id="text_48">
     <!-- Choice Rate (%) -->
     <g transform="translate(32.909063 608.079219) rotate(-90) scale(0.18 -0.18)">
      <use xlink:href="#DejaVuSans-43"/>
      <use xlink:href="#DejaVuSans-68" x="69.824219"/>
      <use xlink:href="#DejaVuSans-6f" x="133.203125"/>
      <use xlink:href="#DejaVuSans-69" x="194.384766"/>
      <use xlink:href="#DejaVuSans-63" x="222.167969"/>
      <use xlink:href="#DejaVuSans-65" x="277.148438"/>
      <use xlink:href="#DejaVuSans-20" x="338.671875"/>
      <use xlink:href="#DejaVuSans-52" x="370.458984"/>
      <use xlink:href="#DejaVuSans-61" x="437.691406"/>
      <use xlink:href="#DejaVuSans-74" x="498.970703"/>
      <use xlink:href="#DejaVuSans-65" x="538.179688"/>
      <use xlink:href="#DejaVuSans-20" x="599.703125"/>
      <use xlink:href="#DejaVuSans-28" x="631.490234"/>
      <use xlink:href="#DejaVuSans-25" x="670.503906"/>
      <use xlink:href="#DejaVuSans-29" x="765.523438"/>
     </g>
    </g>
   </g>
   <g id="LineCollection_1">
    <path d="M 114.920303 430.839404 
L 114.920303 419.091924 
" clip-path="url(#p5bddcecc2b)" style="fill: none; stroke: #696969; stroke-width: 1.5"/>
    <path d="M 166.342652 529.374344 
L 166.342652 513.557228 
" clip-path="url(#p5bddcecc2b)" style="fill: none; stroke: #696969; stroke-width: 1.5"/>
    <path d="M 217.765 548.243116 
L 217.765 533.147895 
" clip-path="url(#p5bddcecc2b)" style="fill: none; stroke: #696969; stroke-width: 1.5"/>
    <path d="M 269.187348 646.834745 
L 269.187348 634.58701 
" clip-path="url(#p5bddcecc2b)" style="fill: none; stroke: #696969; stroke-width: 1.5"/>
    <path d="M 320.609697 582.281158 
L 320.609697 561.551108 
" clip-path="url(#p5bddcecc2b)" style="fill: none; stroke: #696969; stroke-width: 1.5"/>
   </g>
   <g id="line2d_51">
    <defs>
     <path id="m39edc6ee37" d="M 5 0 
L -5 -0 
" style="stroke: #696969"/>
    </defs>
    <g clip-path="url(#p5bddcecc2b)">
     <use xlink:href="#m39edc6ee37" x="114.920303" y="430.839404" style="fill: #696969; stroke: #696969"/>
     <use xlink:href="#m39edc6ee37" x="166.342652" y="529.374344" style="fill: #696969; stroke: #696969"/>
     <use xlink:href="#m39edc6ee37" x="217.765" y="548.243116" style="fill: #696969; stroke: #696969"/>
     <use xlink:href="#m39edc6ee37" x="269.187348" y="646.834745" style="fill: #696969; stroke: #696969"/>
     <use xlink:href="#m39edc6ee37" x="320.609697" y="582.281158" style="fill: #696969; stroke: #696969"/>
    </g>
   </g>
   <g id="line2d_52">
    <g clip-path="url(#p5bddcecc2b)">
     <use xlink:href="#m39edc6ee37" x="114.920303" y="419.091924" style="fill: #696969; stroke: #696969"/>
     <use xlink:href="#m39edc6ee37" x="166.342652" y="513.557228" style="fill: #696969; stroke: #696969"/>
     <use xlink:href="#m39edc6ee37" x="217.765" y="533.147895" style="fill: #696969; stroke: #696969"/>
     <use xlink:href="#m39edc6ee37" x="269.187348" y="634.58701" style="fill: #696969; stroke: #696969"/>
     <use xlink:href="#m39edc6ee37" x="320.609697" y="561.551108" style="fill: #696969; stroke: #696969"/>
    </g>
   </g>
   <g id="LineCollection_2">
    <path d="M 114.920303 430.839404 
L 114.920303 419.091924 
" clip-path="url(#p5bddcecc2b)" style="fill: none; stroke: #808080; stroke-width: 1.5"/>
    <path d="M 166.342652 529.374344 
L 166.342652 513.557228 
" clip-path="url(#p5bddcecc2b)" style="fill: none; stroke: #808080; stroke-width: 1.5"/>
    <path d="M 217.765 548.243116 
L 217.765 533.147895 
" clip-path="url(#p5bddcecc2b)" style="fill: none; stroke: #808080; stroke-width: 1.5"/>
    <path d="M 269.187348 646.834745 
L 269.187348 634.58701 
" clip-path="url(#p5bddcecc2b)" style="fill: none; stroke: #808080; stroke-width: 1.5"/>
    <path d="M 320.609697 582.281158 
L 320.609697 561.551108 
" clip-path="url(#p5bddcecc2b)" style="fill: none; stroke: #808080; stroke-width: 1.5"/>
   </g>
   <g id="line2d_53">
    <defs>
     <path id="m22aba6ce6e" d="M 0 1.5 
C 0.397805 1.5 0.77937 1.341951 1.06066 1.06066 
C 1.341951 0.77937 1.5 0.397805 1.5 0 
C 1.5 -0.397805 1.341951 -0.77937 1.06066 -1.06066 
C 0.77937 -1.341951 0.397805 -1.5 0 -1.5 
C -0.397805 -1.5 -0.77937 -1.341951 -1.06066 -1.06066 
C -1.341951 -0.77937 -1.5 -0.397805 -1.5 0 
C -1.5 0.397805 -1.341951 0.77937 -1.06066 1.06066 
C -0.77937 1.341951 -0.397805 1.5 0 1.5 
z
" style="stroke: #808080"/>
    </defs>
    <g clip-path="url(#p5bddcecc2b)">
     <use xlink:href="#m22aba6ce6e" x="114.920303" y="424.965664" style="fill: #808080; stroke: #808080"/>
     <use xlink:href="#m22aba6ce6e" x="166.342652" y="521.465786" style="fill: #808080; stroke: #808080"/>
     <use xlink:href="#m22aba6ce6e" x="217.765" y="540.695506" style="fill: #808080; stroke: #808080"/>
     <use xlink:href="#m22aba6ce6e" x="269.187348" y="640.710878" style="fill: #808080; stroke: #808080"/>
     <use xlink:href="#m22aba6ce6e" x="320.609697" y="571.916133" style="fill: #808080; stroke: #808080"/>
    </g>
   </g>
   <g id="patch_17">
    <path d="M 82.01 676.28 
L 82.01 395.06 
" style="fill: none; stroke: #000000; stroke-width: 0.8; stroke-linejoin: miter; stroke-linecap: square"/>
   </g>
   <g id="patch_18">
    <path d="M 82.01 676.28 
L 353.52 676.28 
" style="fill: none; stroke: #000000; stroke-width: 0.8; stroke-linejoin: miter; stroke-linecap: square"/>
   </g>
  </g>
  <g id="axes_5">
   <g id="patch_19">
    <path d="M 435.53 676.28 
L 707.04 676.28 
L 707.04 395.06 
L 435.53 395.06 
z
" style="fill: #ffffff"/>
   </g>
   <g id="patch_20">
    <path d="M 447.871364 676.28 
L 489.009242 676.28 
L 489.009242 432.308385 
L 447.871364 432.308385 
z
" clip-path="url(#p5e77aabb25)" style="fill: #095086; opacity: 0.75"/>
   </g>
   <g id="patch_21">
    <path d="M 499.293712 676.28 
L 540.431591 676.28 
L 540.431591 521.184517 
L 499.293712 521.184517 
z
" clip-path="url(#p5e77aabb25)" style="fill: #9bd2f2; opacity: 0.75"/>
   </g>
   <g id="patch_22">
    <path d="M 550.716061 676.28 
L 591.853939 676.28 
L 591.853939 529.912949 
L 550.716061 529.912949 
z
" clip-path="url(#p5e77aabb25)" style="fill: #eca6a6; opacity: 0.75"/>
   </g>
   <g id="patch_23">
    <path d="M 602.138409 676.28 
L 643.276288 676.28 
L 643.276288 633.645987 
L 602.138409 633.645987 
z
" clip-path="url(#p5e77aabb25)" style="fill: #b00000; opacity: 0.75"/>
   </g>
   <g id="patch_24">
    <path d="M 653.560758 676.28 
L 694.698636 676.28 
L 694.698636 591.011974 
L 653.560758 591.011974 
z
" clip-path="url(#p5e77aabb25)" style="fill: #d3d3d3; opacity: 0.75"/>
   </g>
   <g id="PathCollection_2">
    <g clip-path="url(#p5e77aabb25)">
     <use xlink:href="#m2d8cb2f4a4" x="468.440303" y="435.8369" style="fill: #808080; fill-opacity: 0.75; stroke: #808080; stroke-opacity: 0.75"/>
     <use xlink:href="#m2d8cb2f4a4" x="519.862652" y="520.2029" style="fill: #808080; fill-opacity: 0.75; stroke: #808080; stroke-opacity: 0.75"/>
     <use xlink:href="#m2d8cb2f4a4" x="571.285" y="531.4517" style="fill: #808080; fill-opacity: 0.75; stroke: #808080; stroke-opacity: 0.75"/>
     <use xlink:href="#m2d8cb2f4a4" x="622.707348" y="627.0665" style="fill: #808080; fill-opacity: 0.75; stroke: #808080; stroke-opacity: 0.75"/>
     <use xlink:href="#m2d8cb2f4a4" x="674.129697" y="594.7262" style="fill: #808080; fill-opacity: 0.75; stroke: #808080; stroke-opacity: 0.75"/>
    </g>
   </g>
   <g id="matplotlib.axis_9">
    <g id="xtick_15">
     <g id="line2d_54">
      <g>
       <use xlink:href="#m7589839fad" x="468.440303" y="676.28" style="stroke: #000000; stroke-width: 0.8"/>
      </g>
     </g>
     <g id="text_49">
      <!-- HR -->
      <g transform="translate(455.418428 696.957188) scale(0.18 -0.18)">
       <use xlink:href="#DejaVuSans-48"/>
       <use xlink:href="#DejaVuSans-52" x="75.195312"/>
      </g>
     </g>
    </g>
    <g id="xtick_16">
     <g id="line2d_55">
      <g>
       <use xlink:href="#m7589839fad" x="519.862652" y="676.28" style="stroke: #000000; stroke-width: 0.8"/>
      </g>
     </g>
     <g id="text_50">
      <!-- LR -->
      <g transform="translate(508.59437 696.957188) scale(0.18 -0.18)">
       <use xlink:href="#DejaVuSans-4c"/>
       <use xlink:href="#DejaVuSans-52" x="55.712891"/>
      </g>
     </g>
    </g>
    <g id="xtick_17">
     <g id="line2d_56">
      <g>
       <use xlink:href="#m7589839fad" x="571.285" y="676.28" style="stroke: #000000; stroke-width: 0.8"/>
      </g>
     </g>
     <g id="text_51">
      <!-- LP -->
      <g transform="translate(560.843594 696.957188) scale(0.18 -0.18)">
       <use xlink:href="#DejaVuSans-4c"/>
       <use xlink:href="#DejaVuSans-50" x="55.712891"/>
      </g>
     </g>
    </g>
    <g id="xtick_18">
     <g id="line2d_57">
      <g>
       <use xlink:href="#m7589839fad" x="622.707348" y="676.28" style="stroke: #000000; stroke-width: 0.8"/>
      </g>
     </g>
     <g id="text_52">
      <!-- HP -->
      <g transform="translate(610.512348 696.957188) scale(0.18 -0.18)">
       <use xlink:href="#DejaVuSans-48"/>
       <use xlink:href="#DejaVuSans-50" x="75.195312"/>
      </g>
     </g>
    </g>
    <g id="xtick_19">
     <g id="line2d_58">
      <g>
       <use xlink:href="#m7589839fad" x="674.129697" y="676.28" style="stroke: #000000; stroke-width: 0.8"/>
      </g>
     </g>
     <g id="text_53">
      <!-- N -->
      <g transform="translate(667.396572 696.957188) scale(0.18 -0.18)">
       <use xlink:href="#DejaVuSans-4e"/>
      </g>
     </g>
    </g>
   </g>
   <g id="matplotlib.axis_10">
    <g id="ytick_19">
     <g id="line2d_59">
      <g>
       <use xlink:href="#ma591417daf" x="435.53" y="676.28" style="stroke: #000000; stroke-width: 0.8"/>
      </g>
     </g>
     <g id="text_54">
      <!-- 0 -->
      <g transform="translate(417.0775 683.118594) scale(0.18 -0.18)">
       <use xlink:href="#DejaVuSans-30"/>
      </g>
     </g>
    </g>
    <g id="ytick_20">
     <g id="line2d_60">
      <g>
       <use xlink:href="#ma591417daf" x="435.53" y="620.036" style="stroke: #000000; stroke-width: 0.8"/>
      </g>
     </g>
     <g id="text_55">
      <!-- 20 -->
      <g transform="translate(405.625 626.874594) scale(0.18 -0.18)">
       <use xlink:href="#DejaVuSans-32"/>
       <use xlink:href="#DejaVuSans-30" x="63.623047"/>
      </g>
     </g>
    </g>
    <g id="ytick_21">
     <g id="line2d_61">
      <g>
       <use xlink:href="#ma591417daf" x="435.53" y="563.792" style="stroke: #000000; stroke-width: 0.8"/>
      </g>
     </g>
     <g id="text_56">
      <!-- 40 -->
      <g transform="translate(405.625 570.630594) scale(0.18 -0.18)">
       <use xlink:href="#DejaVuSans-34"/>
       <use xlink:href="#DejaVuSans-30" x="63.623047"/>
      </g>
     </g>
    </g>
    <g id="ytick_22">
     <g id="line2d_62">
      <g>
       <use xlink:href="#ma591417daf" x="435.53" y="507.548" style="stroke: #000000; stroke-width: 0.8"/>
      </g>
     </g>
     <g id="text_57">
      <!-- 60 -->
      <g transform="translate(405.625 514.386594) scale(0.18 -0.18)">
       <use xlink:href="#DejaVuSans-36"/>
       <use xlink:href="#DejaVuSans-30" x="63.623047"/>
      </g>
     </g>
    </g>
    <g id="ytick_23">
     <g id="line2d_63">
      <g>
       <use xlink:href="#ma591417daf" x="435.53" y="451.304" style="stroke: #000000; stroke-width: 0.8"/>
      </g>
     </g>
     <g id="text_58">
      <!-- 80 -->
      <g transform="translate(405.625 458.142594) scale(0.18 -0.18)">
       <use xlink:href="#DejaVuSans-38"/>
       <use xlink:href="#DejaVuSans-30" x="63.623047"/>
      </g>
     </g>
    </g>
    <g id="ytick_24">
     <g id="line2d_64">
      <g>
       <use xlink:href="#ma591417daf" x="435.53" y="395.06" style="stroke: #000000; stroke-width: 0.8"/>
      </g>
     </g>
     <g id="text_59">
      <!-- 100 -->
      <g transform="translate(394.1725 401.898594) scale(0.18 -0.18)">
       <use xlink:href="#DejaVuSans-31"/>
       <use xlink:href="#DejaVuSans-30" x="63.623047"/>
       <use xlink:href="#DejaVuSans-30" x="127.246094"/>
      </g>
     </g>
    </g>
    <g id="text_60">
     <!-- Choice Rate (%) -->
     <g transform="translate(386.429063 608.079219) rotate(-90) scale(0.18 -0.18)">
      <use xlink:href="#DejaVuSans-43"/>
      <use xlink:href="#DejaVuSans-68" x="69.824219"/>
      <use xlink:href="#DejaVuSans-6f" x="133.203125"/>
      <use xlink:href="#DejaVuSans-69" x="194.384766"/>
      <use xlink:href="#DejaVuSans-63" x="222.167969"/>
      <use xlink:href="#DejaVuSans-65" x="277.148438"/>
      <use xlink:href="#DejaVuSans-20" x="338.671875"/>
      <use xlink:href="#DejaVuSans-52" x="370.458984"/>
      <use xlink:href="#DejaVuSans-61" x="437.691406"/>
      <use xlink:href="#DejaVuSans-74" x="498.970703"/>
      <use xlink:href="#DejaVuSans-65" x="538.179688"/>
      <use xlink:href="#DejaVuSans-20" x="599.703125"/>
      <use xlink:href="#DejaVuSans-28" x="631.490234"/>
      <use xlink:href="#DejaVuSans-25" x="670.503906"/>
      <use xlink:href="#DejaVuSans-29" x="765.523438"/>
     </g>
    </g>
   </g>
   <g id="LineCollection_3">
    <path d="M 468.440303 441.1511 
L 468.440303 423.46567 
" clip-path="url(#p5e77aabb25)" style="fill: none; stroke: #696969; stroke-width: 1.5"/>
    <path d="M 519.862652 531.285819 
L 519.862652 511.083215 
" clip-path="url(#p5e77aabb25)" style="fill: none; stroke: #696969; stroke-width: 1.5"/>
    <path d="M 571.285 540.139495 
L 571.285 519.686403 
" clip-path="url(#p5e77aabb25)" style="fill: none; stroke: #696969; stroke-width: 1.5"/>
    <path d="M 622.707348 642.722814 
L 622.707348 624.569159 
" clip-path="url(#p5e77aabb25)" style="fill: none; stroke: #696969; stroke-width: 1.5"/>
    <path d="M 674.129697 603.598013 
L 674.129697 578.425934 
" clip-path="url(#p5e77aabb25)" style="fill: none; stroke: #696969; stroke-width: 1.5"/>
   </g>
   <g id="line2d_65">
    <g clip-path="url(#p5e77aabb25)">
     <use xlink:href="#m39edc6ee37" x="468.440303" y="441.1511" style="fill: #696969; stroke: #696969"/>
     <use xlink:href="#m39edc6ee37" x="519.862652" y="531.285819" style="fill: #696969; stroke: #696969"/>
     <use xlink:href="#m39edc6ee37" x="571.285" y="540.139495" style="fill: #696969; stroke: #696969"/>
     <use xlink:href="#m39edc6ee37" x="622.707348" y="642.722814" style="fill: #696969; stroke: #696969"/>
     <use xlink:href="#m39edc6ee37" x="674.129697" y="603.598013" style="fill: #696969; stroke: #696969"/>
    </g>
   </g>
   <g id="line2d_66">
    <g clip-path="url(#p5e77aabb25)">
     <use xlink:href="#m39edc6ee37" x="468.440303" y="423.46567" style="fill: #696969; stroke: #696969"/>
     <use xlink:href="#m39edc6ee37" x="519.862652" y="511.083215" style="fill: #696969; stroke: #696969"/>
     <use xlink:href="#m39edc6ee37" x="571.285" y="519.686403" style="fill: #696969; stroke: #696969"/>
     <use xlink:href="#m39edc6ee37" x="622.707348" y="624.569159" style="fill: #696969; stroke: #696969"/>
     <use xlink:href="#m39edc6ee37" x="674.129697" y="578.425934" style="fill: #696969; stroke: #696969"/>
    </g>
   </g>
   <g id="LineCollection_4">
    <path d="M 468.440303 441.1511 
L 468.440303 423.46567 
" clip-path="url(#p5e77aabb25)" style="fill: none; stroke: #808080; stroke-width: 1.5"/>
    <path d="M 519.862652 531.285819 
L 519.862652 511.083215 
" clip-path="url(#p5e77aabb25)" style="fill: none; stroke: #808080; stroke-width: 1.5"/>
    <path d="M 571.285 540.139495 
L 571.285 519.686403 
" clip-path="url(#p5e77aabb25)" style="fill: none; stroke: #808080; stroke-width: 1.5"/>
    <path d="M 622.707348 642.722814 
L 622.707348 624.569159 
" clip-path="url(#p5e77aabb25)" style="fill: none; stroke: #808080; stroke-width: 1.5"/>
    <path d="M 674.129697 603.598013 
L 674.129697 578.425934 
" clip-path="url(#p5e77aabb25)" style="fill: none; stroke: #808080; stroke-width: 1.5"/>
   </g>
   <g id="line2d_67">
    <g clip-path="url(#p5e77aabb25)">
     <use xlink:href="#m22aba6ce6e" x="468.440303" y="432.308385" style="fill: #808080; stroke: #808080"/>
     <use xlink:href="#m22aba6ce6e" x="519.862652" y="521.184517" style="fill: #808080; stroke: #808080"/>
     <use xlink:href="#m22aba6ce6e" x="571.285" y="529.912949" style="fill: #808080; stroke: #808080"/>
     <use xlink:href="#m22aba6ce6e" x="622.707348" y="633.645987" style="fill: #808080; stroke: #808080"/>
     <use xlink:href="#m22aba6ce6e" x="674.129697" y="591.011974" style="fill: #808080; stroke: #808080"/>
    </g>
   </g>
   <g id="patch_25">
    <path d="M 435.53 676.28 
L 435.53 395.06 
" style="fill: none; stroke: #000000; stroke-width: 0.8; stroke-linejoin: miter; stroke-linecap: square"/>
   </g>
   <g id="patch_26">
    <path d="M 435.53 676.28 
L 707.04 676.28 
" style="fill: none; stroke: #000000; stroke-width: 0.8; stroke-linejoin: miter; stroke-linecap: square"/>
   </g>
  </g>
  <g id="axes_6">
   <g id="patch_27">
    <path d="M 789.05 676.28 
L 1060.56 676.28 
L 1060.56 395.06 
L 789.05 395.06 
z
" style="fill: #ffffff"/>
   </g>
   <g id="patch_28">
    <path d="M 801.391364 676.28 
L 842.529242 676.28 
L 842.529242 432.231515 
L 801.391364 432.231515 
z
" clip-path="url(#p211a0ccb88)" style="fill: #095086; opacity: 0.75"/>
   </g>
   <g id="patch_29">
    <path d="M 852.813712 676.28 
L 893.951591 676.28 
L 893.951591 538.500227 
L 852.813712 538.500227 
z
" clip-path="url(#p211a0ccb88)" style="fill: #9bd2f2; opacity: 0.75"/>
   </g>
   <g id="patch_30">
    <path d="M 904.236061 676.28 
L 945.373939 676.28 
L 945.373939 524.709631 
L 904.236061 524.709631 
z
" clip-path="url(#p211a0ccb88)" style="fill: #eca6a6; opacity: 0.75"/>
   </g>
   <g id="patch_31">
    <path d="M 955.658409 676.28 
L 996.796288 676.28 
L 996.796288 636.746958 
L 955.658409 636.746958 
z
" clip-path="url(#p211a0ccb88)" style="fill: #b00000; opacity: 0.75"/>
   </g>
   <g id="patch_32">
    <path d="M 1007.080758 676.28 
L 1048.218636 676.28 
L 1048.218636 564.585185 
L 1007.080758 564.585185 
z
" clip-path="url(#p211a0ccb88)" style="fill: #d3d3d3; opacity: 0.75"/>
   </g>
   <g id="PathCollection_3">
    <g clip-path="url(#p211a0ccb88)">
     <use xlink:href="#m2d8cb2f4a4" x="821.960303" y="440.0552" style="fill: #808080; fill-opacity: 0.75; stroke: #808080; stroke-opacity: 0.75"/>
     <use xlink:href="#m2d8cb2f4a4" x="873.382652" y="530.0456" style="fill: #808080; fill-opacity: 0.75; stroke: #808080; stroke-opacity: 0.75"/>
     <use xlink:href="#m2d8cb2f4a4" x="924.805" y="531.4517" style="fill: #808080; fill-opacity: 0.75; stroke: #808080; stroke-opacity: 0.75"/>
     <use xlink:href="#m2d8cb2f4a4" x="976.227348" y="629.8787" style="fill: #808080; fill-opacity: 0.75; stroke: #808080; stroke-opacity: 0.75"/>
     <use xlink:href="#m2d8cb2f4a4" x="1027.649697" y="566.6042" style="fill: #808080; fill-opacity: 0.75; stroke: #808080; stroke-opacity: 0.75"/>
    </g>
   </g>
   <g id="matplotlib.axis_11">
    <g id="xtick_20">
     <g id="line2d_68">
      <g>
       <use xlink:href="#m7589839fad" x="821.960303" y="676.28" style="stroke: #000000; stroke-width: 0.8"/>
      </g>
     </g>
     <g id="text_61">
      <!-- HR -->
      <g transform="translate(808.938428 696.957188) scale(0.18 -0.18)">
       <use xlink:href="#DejaVuSans-48"/>
       <use xlink:href="#DejaVuSans-52" x="75.195312"/>
      </g>
     </g>
    </g>
    <g id="xtick_21">
     <g id="line2d_69">
      <g>
       <use xlink:href="#m7589839fad" x="873.382652" y="676.28" style="stroke: #000000; stroke-width: 0.8"/>
      </g>
     </g>
     <g id="text_62">
      <!-- LR -->
      <g transform="translate(862.11437 696.957188) scale(0.18 -0.18)">
       <use xlink:href="#DejaVuSans-4c"/>
       <use xlink:href="#DejaVuSans-52" x="55.712891"/>
      </g>
     </g>
    </g>
    <g id="xtick_22">
     <g id="line2d_70">
      <g>
       <use xlink:href="#m7589839fad" x="924.805" y="676.28" style="stroke: #000000; stroke-width: 0.8"/>
      </g>
     </g>
     <g id="text_63">
      <!-- LP -->
      <g transform="translate(914.363594 696.957188) scale(0.18 -0.18)">
       <use xlink:href="#DejaVuSans-4c"/>
       <use xlink:href="#DejaVuSans-50" x="55.712891"/>
      </g>
     </g>
    </g>
    <g id="xtick_23">
     <g id="line2d_71">
      <g>
       <use xlink:href="#m7589839fad" x="976.227348" y="676.28" style="stroke: #000000; stroke-width: 0.8"/>
      </g>
     </g>
     <g id="text_64">
      <!-- HP -->
      <g transform="translate(964.032348 696.957188) scale(0.18 -0.18)">
       <use xlink:href="#DejaVuSans-48"/>
       <use xlink:href="#DejaVuSans-50" x="75.195312"/>
      </g>
     </g>
    </g>
    <g id="xtick_24">
     <g id="line2d_72">
      <g>
       <use xlink:href="#m7589839fad" x="1027.649697" y="676.28" style="stroke: #000000; stroke-width: 0.8"/>
      </g>
     </g>
     <g id="text_65">
      <!-- N -->
      <g transform="translate(1020.916572 696.957188) scale(0.18 -0.18)">
       <use xlink:href="#DejaVuSans-4e"/>
      </g>
     </g>
    </g>
   </g>
   <g id="matplotlib.axis_12">
    <g id="ytick_25">
     <g id="line2d_73">
      <g>
       <use xlink:href="#ma591417daf" x="789.05" y="676.28" style="stroke: #000000; stroke-width: 0.8"/>
      </g>
     </g>
     <g id="text_66">
      <!-- 0 -->
      <g transform="translate(770.5975 683.118594) scale(0.18 -0.18)">
       <use xlink:href="#DejaVuSans-30"/>
      </g>
     </g>
    </g>
    <g id="ytick_26">
     <g id="line2d_74">
      <g>
       <use xlink:href="#ma591417daf" x="789.05" y="620.036" style="stroke: #000000; stroke-width: 0.8"/>
      </g>
     </g>
     <g id="text_67">
      <!-- 20 -->
      <g transform="translate(759.145 626.874594) scale(0.18 -0.18)">
       <use xlink:href="#DejaVuSans-32"/>
       <use xlink:href="#DejaVuSans-30" x="63.623047"/>
      </g>
     </g>
    </g>
    <g id="ytick_27">
     <g id="line2d_75">
      <g>
       <use xlink:href="#ma591417daf" x="789.05" y="563.792" style="stroke: #000000; stroke-width: 0.8"/>
      </g>
     </g>
     <g id="text_68">
      <!-- 40 -->
      <g transform="translate(759.145 570.630594) scale(0.18 -0.18)">
       <use xlink:href="#DejaVuSans-34"/>
       <use xlink:href="#DejaVuSans-30" x="63.623047"/>
      </g>
     </g>
    </g>
    <g id="ytick_28">
     <g id="line2d_76">
      <g>
       <use xlink:href="#ma591417daf" x="789.05" y="507.548" style="stroke: #000000; stroke-width: 0.8"/>
      </g>
     </g>
     <g id="text_69">
      <!-- 60 -->
      <g transform="translate(759.145 514.386594) scale(0.18 -0.18)">
       <use xlink:href="#DejaVuSans-36"/>
       <use xlink:href="#DejaVuSans-30" x="63.623047"/>
      </g>
     </g>
    </g>
    <g id="ytick_29">
     <g id="line2d_77">
      <g>
       <use xlink:href="#ma591417daf" x="789.05" y="451.304" style="stroke: #000000; stroke-width: 0.8"/>
      </g>
     </g>
     <g id="text_70">
      <!-- 80 -->
      <g transform="translate(759.145 458.142594) scale(0.18 -0.18)">
       <use xlink:href="#DejaVuSans-38"/>
       <use xlink:href="#DejaVuSans-30" x="63.623047"/>
      </g>
     </g>
    </g>
    <g id="ytick_30">
     <g id="line2d_78">
      <g>
       <use xlink:href="#ma591417daf" x="789.05" y="395.06" style="stroke: #000000; stroke-width: 0.8"/>
      </g>
     </g>
     <g id="text_71">
      <!-- 100 -->
      <g transform="translate(747.6925 401.898594) scale(0.18 -0.18)">
       <use xlink:href="#DejaVuSans-31"/>
       <use xlink:href="#DejaVuSans-30" x="63.623047"/>
       <use xlink:href="#DejaVuSans-30" x="127.246094"/>
      </g>
     </g>
    </g>
    <g id="text_72">
     <!-- Choice Rate (%) -->
     <g transform="translate(739.949063 608.079219) rotate(-90) scale(0.18 -0.18)">
      <use xlink:href="#DejaVuSans-43"/>
      <use xlink:href="#DejaVuSans-68" x="69.824219"/>
      <use xlink:href="#DejaVuSans-6f" x="133.203125"/>
      <use xlink:href="#DejaVuSans-69" x="194.384766"/>
      <use xlink:href="#DejaVuSans-63" x="222.167969"/>
      <use xlink:href="#DejaVuSans-65" x="277.148438"/>
      <use xlink:href="#DejaVuSans-20" x="338.671875"/>
      <use xlink:href="#DejaVuSans-52" x="370.458984"/>
      <use xlink:href="#DejaVuSans-61" x="437.691406"/>
      <use xlink:href="#DejaVuSans-74" x="498.970703"/>
      <use xlink:href="#DejaVuSans-65" x="538.179688"/>
      <use xlink:href="#DejaVuSans-20" x="599.703125"/>
      <use xlink:href="#DejaVuSans-28" x="631.490234"/>
      <use xlink:href="#DejaVuSans-25" x="670.503906"/>
      <use xlink:href="#DejaVuSans-29" x="765.523438"/>
     </g>
    </g>
   </g>
   <g id="LineCollection_5">
    <path d="M 821.960303 438.931695 
L 821.960303 425.531336 
" clip-path="url(#p211a0ccb88)" style="fill: none; stroke: #696969; stroke-width: 1.5"/>
    <path d="M 873.382652 548.503785 
L 873.382652 528.496669 
" clip-path="url(#p211a0ccb88)" style="fill: none; stroke: #696969; stroke-width: 1.5"/>
    <path d="M 924.805 534.237206 
L 924.805 515.182056 
" clip-path="url(#p211a0ccb88)" style="fill: none; stroke: #696969; stroke-width: 1.5"/>
    <path d="M 976.227348 644.359537 
L 976.227348 629.134379 
" clip-path="url(#p211a0ccb88)" style="fill: none; stroke: #696969; stroke-width: 1.5"/>
    <path d="M 1027.649697 577.729575 
L 1027.649697 551.440794 
" clip-path="url(#p211a0ccb88)" style="fill: none; stroke: #696969; stroke-width: 1.5"/>
   </g>
   <g id="line2d_79">
    <g clip-path="url(#p211a0ccb88)">
     <use xlink:href="#m39edc6ee37" x="821.960303" y="438.931695" style="fill: #696969; stroke: #696969"/>
     <use xlink:href="#m39edc6ee37" x="873.382652" y="548.503785" style="fill: #696969; stroke: #696969"/>
     <use xlink:href="#m39edc6ee37" x="924.805" y="534.237206" style="fill: #696969; stroke: #696969"/>
     <use xlink:href="#m39edc6ee37" x="976.227348" y="644.359537" style="fill: #696969; stroke: #696969"/>
     <use xlink:href="#m39edc6ee37" x="1027.649697" y="577.729575" style="fill: #696969; stroke: #696969"/>
    </g>
   </g>
   <g id="line2d_80">
    <g clip-path="url(#p211a0ccb88)">
     <use xlink:href="#m39edc6ee37" x="821.960303" y="425.531336" style="fill: #696969; stroke: #696969"/>
     <use xlink:href="#m39edc6ee37" x="873.382652" y="528.496669" style="fill: #696969; stroke: #696969"/>
     <use xlink:href="#m39edc6ee37" x="924.805" y="515.182056" style="fill: #696969; stroke: #696969"/>
     <use xlink:href="#m39edc6ee37" x="976.227348" y="629.134379" style="fill: #696969; stroke: #696969"/>
     <use xlink:href="#m39edc6ee37" x="1027.649697" y="551.440794" style="fill: #696969; stroke: #696969"/>
    </g>
   </g>
   <g id="LineCollection_6">
    <path d="M 821.960303 438.931695 
L 821.960303 425.531336 
" clip-path="url(#p211a0ccb88)" style="fill: none; stroke: #808080; stroke-width: 1.5"/>
    <path d="M 873.382652 548.503785 
L 873.382652 528.496669 
" clip-path="url(#p211a0ccb88)" style="fill: none; stroke: #808080; stroke-width: 1.5"/>
    <path d="M 924.805 534.237206 
L 924.805 515.182056 
" clip-path="url(#p211a0ccb88)" style="fill: none; stroke: #808080; stroke-width: 1.5"/>
    <path d="M 976.227348 644.359537 
L 976.227348 629.134379 
" clip-path="url(#p211a0ccb88)" style="fill: none; stroke: #808080; stroke-width: 1.5"/>
    <path d="M 1027.649697 577.729575 
L 1027.649697 551.440794 
" clip-path="url(#p211a0ccb88)" style="fill: none; stroke: #808080; stroke-width: 1.5"/>
   </g>
   <g id="line2d_81">
    <g clip-path="url(#p211a0ccb88)">
     <use xlink:href="#m22aba6ce6e" x="821.960303" y="432.231515" style="fill: #808080; stroke: #808080"/>
     <use xlink:href="#m22aba6ce6e" x="873.382652" y="538.500227" style="fill: #808080; stroke: #808080"/>
     <use xlink:href="#m22aba6ce6e" x="924.805" y="524.709631" style="fill: #808080; stroke: #808080"/>
     <use xlink:href="#m22aba6ce6e" x="976.227348" y="636.746958" style="fill: #808080; stroke: #808080"/>
     <use xlink:href="#m22aba6ce6e" x="1027.649697" y="564.585185" style="fill: #808080; stroke: #808080"/>
    </g>
   </g>
   <g id="patch_33">
    <path d="M 789.05 676.28 
L 789.05 395.06 
" style="fill: none; stroke: #000000; stroke-width: 0.8; stroke-linejoin: miter; stroke-linecap: square"/>
   </g>
   <g id="patch_34">
    <path d="M 789.05 676.28 
L 1060.56 676.28 
" style="fill: none; stroke: #000000; stroke-width: 0.8; stroke-linejoin: miter; stroke-linecap: square"/>
   </g>
  </g>
 </g>
 <defs>
  <clipPath id="p26d0104ed0">
   <rect x="82.01" y="42" width="271.51" height="281.22"/>
  </clipPath>
  <clipPath id="p7dff0b68d3">
   <rect x="435.53" y="42" width="271.51" height="281.22"/>
  </clipPath>
  <clipPath id="pf7fefd0969">
   <rect x="789.05" y="42" width="271.51" height="281.22"/>
  </clipPath>
  <clipPath id="p5bddcecc2b">
   <rect x="82.01" y="395.06" width="271.51" height="281.22"/>
  </clipPath>
  <clipPath id="p5e77aabb25">
   <rect x="435.53" y="395.06" width="271.51" height="281.22"/>
  </clipPath>
  <clipPath id="p211a0ccb88">
   <rect x="789.05" y="395.06" width="271.51" height="281.22"/>
  </clipPath>
 </defs>
</svg>
