<?xml version="1.0" encoding="utf-8" standalone="no"?>
<!DOCTYPE svg PUBLIC "-//W3C//DTD SVG 1.1//EN"
  "http://www.w3.org/Graphics/SVG/1.1/DTD/svg11.dtd">
<svg xmlns:xlink="http://www.w3.org/1999/xlink" width="360pt" height="360pt" viewBox="0 0 360 360" xmlns="http://www.w3.org/2000/svg" version="1.1">
 <metadata>
  <rdf:RDF xmlns:dc="http://purl.org/dc/elements/1.1/" xmlns:cc="http://creativecommons.org/ns#" xmlns:rdf="http://www.w3.org/1999/02/22-rdf-syntax-ns#">
   <cc:Work>
    <dc:type rdf:resource="http://purl.org/dc/dcmitype/StillImage"/>
    <dc:date>2025-06-17T16:16:44.353385</dc:date>
    <dc:format>image/svg+xml</dc:format>
    <dc:creator>
     <cc:Agent>
      <dc:title>Matplotlib v3.9.2, https://matplotlib.org/</dc:title>
     </cc:Agent>
    </dc:creator>
   </cc:Work>
  </rdf:RDF>
 </metadata>
 <defs>
  <style type="text/css">*{stroke-linejoin: round; stroke-linecap: butt}</style>
 </defs>
 <g id="figure_1">
  <g id="patch_1">
   <path d="M 0 360 
L 360 360 
L 360 0 
L 0 0 
z
" style="fill: #ffffff"/>
  </g>
  <g id="axes_1">
   <g id="patch_2">
    <path d="M 72.83 296.264 
L 340.56 296.264 
L 340.56 19.44 
L 72.83 19.44 
z
" style="fill: #ffffff"/>
   </g>
   <g id="PolyCollection_1">
    <defs>
     <path id="m8570e6c6ca" d="M 140.652303 -76.318909 
L 119.997954 -76.318909 
L 119.997954 -78.860911 
L 119.997954 -81.402913 
L 119.997954 -83.944915 
L 119.997954 -86.486916 
L 119.997954 -89.028918 
L 119.997954 -91.57092 
L 119.997954 -94.112922 
L 119.997954 -96.654924 
L 119.997954 -99.196926 
L 119.997954 -101.738927 
L 119.997954 -104.280929 
L 119.997954 -106.822931 
L 119.997954 -109.364933 
L 119.997954 -111.906935 
L 119.997954 -114.448937 
L 119.997954 -116.990938 
L 119.997954 -119.53294 
L 119.997954 -122.074942 
L 119.997954 -124.616944 
L 119.997954 -127.158946 
L 119.997954 -129.700948 
L 119.997954 -132.242949 
L 119.997954 -134.784951 
L 119.997954 -137.326953 
L 119.997954 -139.868955 
L 119.997954 -142.410957 
L 119.997954 -144.952959 
L 119.997954 -147.494961 
L 119.997954 -150.036962 
L 119.997954 -152.578964 
L 119.997954 -155.120966 
L 119.997954 -157.662968 
L 119.997954 -160.20497 
L 119.997954 -162.746972 
L 119.997954 -165.288973 
L 119.997954 -167.830975 
L 119.997954 -170.372977 
L 119.997954 -172.914979 
L 119.997954 -175.456981 
L 119.997954 -177.998983 
L 119.997954 -180.540984 
L 119.997954 -183.082986 
L 119.997954 -185.624988 
L 119.997954 -188.16699 
L 119.997954 -190.708992 
L 119.997954 -193.250994 
L 119.997954 -195.792995 
L 119.997954 -198.334997 
L 119.997954 -200.876999 
L 119.997954 -203.419001 
L 119.997954 -205.961003 
L 119.997954 -208.503005 
L 119.997954 -211.045006 
L 119.997954 -213.587008 
L 119.997954 -216.12901 
L 119.997954 -218.671012 
L 119.997954 -221.213014 
L 119.997954 -223.755016 
L 119.997954 -226.297017 
L 119.997954 -228.839019 
L 119.997954 -231.381021 
L 119.997954 -233.923023 
L 119.997954 -236.465025 
L 119.997954 -239.007027 
L 119.997954 -241.549028 
L 119.997954 -244.09103 
L 119.997954 -246.633032 
L 119.997954 -249.175034 
L 119.997954 -251.717036 
L 119.997954 -254.259038 
L 119.997954 -256.801039 
L 119.997954 -259.343041 
L 119.997954 -261.885043 
L 119.997954 -264.427045 
L 119.997954 -266.969047 
L 119.997954 -269.511049 
L 119.997954 -272.053051 
L 119.997954 -274.595052 
L 119.997954 -277.137054 
L 119.997954 -279.679056 
L 119.997954 -282.221058 
L 119.997954 -284.76306 
L 119.997954 -287.305062 
L 119.997954 -289.847063 
L 119.997954 -292.389065 
L 119.997954 -294.931067 
L 119.997954 -297.473069 
L 119.997954 -300.015071 
L 119.997954 -302.557073 
L 119.997954 -305.099074 
L 119.997954 -307.641076 
L 119.997954 -310.183078 
L 119.997954 -312.72508 
L 119.997954 -315.267082 
L 119.997954 -317.809084 
L 119.997954 -320.351085 
L 119.997954 -322.893087 
L 119.997954 -325.435089 
L 119.997954 -327.977091 
L 124.344955 -327.977091 
L 124.344955 -327.977091 
L 124.63152 -325.435089 
L 124.922788 -322.893087 
L 125.218365 -320.351085 
L 125.51789 -317.809084 
L 125.821018 -315.267082 
L 126.127402 -312.72508 
L 126.43667 -310.183078 
L 126.748399 -307.641076 
L 127.062095 -305.099074 
L 127.377173 -302.557073 
L 127.692936 -300.015071 
L 128.008564 -297.473069 
L 128.323113 -294.931067 
L 128.635512 -292.389065 
L 128.944575 -289.847063 
L 129.249023 -287.305062 
L 129.547502 -284.76306 
L 129.838621 -282.221058 
L 130.120989 -279.679056 
L 130.393247 -277.137054 
L 130.654116 -274.595052 
L 130.902431 -272.053051 
L 131.137175 -269.511049 
L 131.357508 -266.969047 
L 131.562789 -264.427045 
L 131.752581 -261.885043 
L 131.926659 -259.343041 
L 132.085001 -256.801039 
L 132.227766 -254.259038 
L 132.355272 -251.717036 
L 132.467968 -249.175034 
L 132.566392 -246.633032 
L 132.65114 -244.09103 
L 132.722827 -241.549028 
L 132.782061 -239.007027 
L 132.829411 -236.465025 
L 132.865394 -233.923023 
L 132.890463 -231.381021 
L 132.905013 -228.839019 
L 132.909385 -226.297017 
L 132.903891 -223.755016 
L 132.888839 -221.213014 
L 132.864564 -218.671012 
L 132.831466 -216.12901 
L 132.790045 -213.587008 
L 132.740933 -211.045006 
L 132.684925 -208.503005 
L 132.623 -205.961003 
L 132.556335 -203.419001 
L 132.486307 -200.876999 
L 132.414483 -198.334997 
L 132.342608 -195.792995 
L 132.272569 -193.250994 
L 132.206367 -190.708992 
L 132.146067 -188.16699 
L 132.093756 -185.624988 
L 132.051495 -183.082986 
L 132.021273 -180.540984 
L 132.004962 -177.998983 
L 132.004286 -175.456981 
L 132.020794 -172.914979 
L 132.055839 -170.372977 
L 132.110571 -167.830975 
L 132.185944 -165.288973 
L 132.282725 -162.746972 
L 132.401511 -160.20497 
L 132.542755 -157.662968 
L 132.706793 -155.120966 
L 132.893867 -152.578964 
L 133.104146 -150.036962 
L 133.337739 -147.494961 
L 133.594696 -144.952959 
L 133.874995 -142.410957 
L 134.178521 -139.868955 
L 134.505018 -137.326953 
L 134.854032 -134.784951 
L 135.224846 -132.242949 
L 135.616392 -129.700948 
L 136.027165 -127.158946 
L 136.455131 -124.616944 
L 136.897643 -122.074942 
L 137.351364 -119.53294 
L 137.812209 -116.990938 
L 138.275307 -114.448937 
L 138.734999 -111.906935 
L 139.184861 -109.364933 
L 139.617775 -106.822931 
L 140.026028 -104.280929 
L 140.401455 -101.738927 
L 140.735619 -99.196926 
L 141.020017 -96.654924 
L 141.246314 -94.112922 
L 141.406591 -91.57092 
L 141.493599 -89.028918 
L 141.501006 -86.486916 
L 141.423632 -83.944915 
L 141.257651 -81.402913 
L 141.00076 -78.860911 
L 140.652303 -76.318909 
z
" style="stroke: #85a947; stroke-opacity: 0.3"/>
    </defs>
    <g clip-path="url(#pb2acc8c4eb)">
     <use xlink:href="#m8570e6c6ca" x="0" y="360" style="fill: #85a947; fill-opacity: 0.3; stroke: #85a947; stroke-opacity: 0.3"/>
    </g>
   </g>
   <g id="PolyCollection_2">
    <defs>
     <path id="m7a9ac7e76b" d="M 225.394514 -76.318909 
L 206.958809 -76.318909 
L 206.958809 -78.614727 
L 206.958809 -80.910545 
L 206.958809 -83.206363 
L 206.958809 -85.502181 
L 206.958809 -87.797999 
L 206.958809 -90.093817 
L 206.958809 -92.389635 
L 206.958809 -94.685453 
L 206.958809 -96.981271 
L 206.958809 -99.277089 
L 206.958809 -101.572907 
L 206.958809 -103.868725 
L 206.958809 -106.164543 
L 206.958809 -108.460361 
L 206.958809 -110.756179 
L 206.958809 -113.051997 
L 206.958809 -115.347815 
L 206.958809 -117.643633 
L 206.958809 -119.939451 
L 206.958809 -122.235269 
L 206.958809 -124.531087 
L 206.958809 -126.826905 
L 206.958809 -129.122723 
L 206.958809 -131.418541 
L 206.958809 -133.714359 
L 206.958809 -136.010177 
L 206.958809 -138.305995 
L 206.958809 -140.601812 
L 206.958809 -142.89763 
L 206.958809 -145.193448 
L 206.958809 -147.489266 
L 206.958809 -149.785084 
L 206.958809 -152.080902 
L 206.958809 -154.37672 
L 206.958809 -156.672538 
L 206.958809 -158.968356 
L 206.958809 -161.264174 
L 206.958809 -163.559992 
L 206.958809 -165.85581 
L 206.958809 -168.151628 
L 206.958809 -170.447446 
L 206.958809 -172.743264 
L 206.958809 -175.039082 
L 206.958809 -177.3349 
L 206.958809 -179.630718 
L 206.958809 -181.926536 
L 206.958809 -184.222354 
L 206.958809 -186.518172 
L 206.958809 -188.81399 
L 206.958809 -191.109808 
L 206.958809 -193.405626 
L 206.958809 -195.701444 
L 206.958809 -197.997262 
L 206.958809 -200.29308 
L 206.958809 -202.588898 
L 206.958809 -204.884716 
L 206.958809 -207.180534 
L 206.958809 -209.476352 
L 206.958809 -211.77217 
L 206.958809 -214.067988 
L 206.958809 -216.363806 
L 206.958809 -218.659624 
L 206.958809 -220.955442 
L 206.958809 -223.25126 
L 206.958809 -225.547078 
L 206.958809 -227.842896 
L 206.958809 -230.138714 
L 206.958809 -232.434532 
L 206.958809 -234.73035 
L 206.958809 -237.026168 
L 206.958809 -239.321986 
L 206.958809 -241.617804 
L 206.958809 -243.913621 
L 206.958809 -246.209439 
L 206.958809 -248.505257 
L 206.958809 -250.801075 
L 206.958809 -253.096893 
L 206.958809 -255.392711 
L 206.958809 -257.688529 
L 206.958809 -259.984347 
L 206.958809 -262.280165 
L 206.958809 -264.575983 
L 206.958809 -266.871801 
L 206.958809 -269.167619 
L 206.958809 -271.463437 
L 206.958809 -273.759255 
L 206.958809 -276.055073 
L 206.958809 -278.350891 
L 206.958809 -280.646709 
L 206.958809 -282.942527 
L 206.958809 -285.238345 
L 206.958809 -287.534163 
L 206.958809 -289.829981 
L 206.958809 -292.125799 
L 206.958809 -294.421617 
L 206.958809 -296.717435 
L 206.958809 -299.013253 
L 206.958809 -301.309071 
L 206.958809 -303.604889 
L 222.849239 -303.604889 
L 222.849239 -303.604889 
L 223.495799 -301.309071 
L 224.116524 -299.013253 
L 224.707304 -296.717435 
L 225.264256 -294.421617 
L 225.783783 -292.125799 
L 226.262628 -289.829981 
L 226.697925 -287.534163 
L 227.087243 -285.238345 
L 227.428625 -282.942527 
L 227.720616 -280.646709 
L 227.962291 -278.350891 
L 228.153265 -276.055073 
L 228.293702 -273.759255 
L 228.384309 -271.463437 
L 228.426331 -269.167619 
L 228.421523 -266.871801 
L 228.372128 -264.575983 
L 228.280838 -262.280165 
L 228.150753 -259.984347 
L 227.985334 -257.688529 
L 227.788348 -255.392711 
L 227.56381 -253.096893 
L 227.315927 -250.801075 
L 227.049029 -248.505257 
L 226.767515 -246.209439 
L 226.475783 -243.913621 
L 226.178175 -241.617804 
L 225.878914 -239.321986 
L 225.582055 -237.026168 
L 225.291426 -234.73035 
L 225.01059 -232.434532 
L 224.742801 -230.138714 
L 224.490968 -227.842896 
L 224.257634 -225.547078 
L 224.044944 -223.25126 
L 223.854642 -220.955442 
L 223.688055 -218.659624 
L 223.546098 -216.363806 
L 223.429275 -214.067988 
L 223.337698 -211.77217 
L 223.271096 -209.476352 
L 223.228848 -207.180534 
L 223.210005 -204.884716 
L 223.213329 -202.588898 
L 223.237323 -200.29308 
L 223.280278 -197.997262 
L 223.340312 -195.701444 
L 223.415412 -193.405626 
L 223.503483 -191.109808 
L 223.60239 -188.81399 
L 223.710003 -186.518172 
L 223.824238 -184.222354 
L 223.943101 -181.926536 
L 224.064718 -179.630718 
L 224.187375 -177.3349 
L 224.309544 -175.039082 
L 224.429906 -172.743264 
L 224.547372 -170.447446 
L 224.661092 -168.151628 
L 224.770466 -165.85581 
L 224.875141 -163.559992 
L 224.975007 -161.264174 
L 225.070182 -158.968356 
L 225.160997 -156.672538 
L 225.247966 -154.37672 
L 225.331765 -152.080902 
L 225.413189 -149.785084 
L 225.493117 -147.489266 
L 225.572471 -145.193448 
L 225.652172 -142.89763 
L 225.733091 -140.601812 
L 225.816009 -138.305995 
L 225.901567 -136.010177 
L 225.990227 -133.714359 
L 226.082233 -131.418541 
L 226.177575 -129.122723 
L 226.275958 -126.826905 
L 226.376786 -124.531087 
L 226.479139 -122.235269 
L 226.581771 -119.939451 
L 226.683111 -117.643633 
L 226.781271 -115.347815 
L 226.874069 -113.051997 
L 226.959054 -110.756179 
L 227.033546 -108.460361 
L 227.094677 -106.164543 
L 227.139449 -103.868725 
L 227.164783 -101.572907 
L 227.167587 -99.277089 
L 227.144821 -96.981271 
L 227.093558 -94.685453 
L 227.011057 -92.389635 
L 226.894823 -90.093817 
L 226.74267 -87.797999 
L 226.552774 -85.502181 
L 226.323724 -83.206363 
L 226.054562 -80.910545 
L 225.744815 -78.614727 
L 225.394514 -76.318909 
z
" style="stroke: #3e7b27; stroke-opacity: 0.3"/>
    </defs>
    <g clip-path="url(#pb2acc8c4eb)">
     <use xlink:href="#m7a9ac7e76b" x="0" y="360" style="fill: #3e7b27; fill-opacity: 0.3; stroke: #3e7b27; stroke-opacity: 0.3"/>
    </g>
   </g>
   <g id="PolyCollection_3">
    <defs>
     <path id="mcdb19b5a02" d="M 311.075386 -76.318909 
L 293.85547 -76.318909 
L 293.85547 -78.860911 
L 293.85547 -81.402913 
L 293.85547 -83.944915 
L 293.85547 -86.486916 
L 293.85547 -89.028918 
L 293.85547 -91.57092 
L 293.85547 -94.112922 
L 293.85547 -96.654924 
L 293.85547 -99.196926 
L 293.85547 -101.738927 
L 293.85547 -104.280929 
L 293.85547 -106.822931 
L 293.85547 -109.364933 
L 293.85547 -111.906935 
L 293.85547 -114.448937 
L 293.85547 -116.990938 
L 293.85547 -119.53294 
L 293.85547 -122.074942 
L 293.85547 -124.616944 
L 293.85547 -127.158946 
L 293.85547 -129.700948 
L 293.85547 -132.242949 
L 293.85547 -134.784951 
L 293.85547 -137.326953 
L 293.85547 -139.868955 
L 293.85547 -142.410957 
L 293.85547 -144.952959 
L 293.85547 -147.494961 
L 293.85547 -150.036962 
L 293.85547 -152.578964 
L 293.85547 -155.120966 
L 293.85547 -157.662968 
L 293.85547 -160.20497 
L 293.85547 -162.746972 
L 293.85547 -165.288973 
L 293.85547 -167.830975 
L 293.85547 -170.372977 
L 293.85547 -172.914979 
L 293.85547 -175.456981 
L 293.85547 -177.998983 
L 293.85547 -180.540984 
L 293.85547 -183.082986 
L 293.85547 -185.624988 
L 293.85547 -188.16699 
L 293.85547 -190.708992 
L 293.85547 -193.250994 
L 293.85547 -195.792995 
L 293.85547 -198.334997 
L 293.85547 -200.876999 
L 293.85547 -203.419001 
L 293.85547 -205.961003 
L 293.85547 -208.503005 
L 293.85547 -211.045006 
L 293.85547 -213.587008 
L 293.85547 -216.12901 
L 293.85547 -218.671012 
L 293.85547 -221.213014 
L 293.85547 -223.755016 
L 293.85547 -226.297017 
L 293.85547 -228.839019 
L 293.85547 -231.381021 
L 293.85547 -233.923023 
L 293.85547 -236.465025 
L 293.85547 -239.007027 
L 293.85547 -241.549028 
L 293.85547 -244.09103 
L 293.85547 -246.633032 
L 293.85547 -249.175034 
L 293.85547 -251.717036 
L 293.85547 -254.259038 
L 293.85547 -256.801039 
L 293.85547 -259.343041 
L 293.85547 -261.885043 
L 293.85547 -264.427045 
L 293.85547 -266.969047 
L 293.85547 -269.511049 
L 293.85547 -272.053051 
L 293.85547 -274.595052 
L 293.85547 -277.137054 
L 293.85547 -279.679056 
L 293.85547 -282.221058 
L 293.85547 -284.76306 
L 293.85547 -287.305062 
L 293.85547 -289.847063 
L 293.85547 -292.389065 
L 293.85547 -294.931067 
L 293.85547 -297.473069 
L 293.85547 -300.015071 
L 293.85547 -302.557073 
L 293.85547 -305.099074 
L 293.85547 -307.641076 
L 293.85547 -310.183078 
L 293.85547 -312.72508 
L 293.85547 -315.267082 
L 293.85547 -317.809084 
L 293.85547 -320.351085 
L 293.85547 -322.893087 
L 293.85547 -325.435089 
L 293.85547 -327.977091 
L 306.444779 -327.977091 
L 306.444779 -327.977091 
L 306.944948 -325.435089 
L 307.42488 -322.893087 
L 307.882844 -320.351085 
L 308.317529 -317.809084 
L 308.728061 -315.267082 
L 309.114017 -312.72508 
L 309.475424 -310.183078 
L 309.812743 -307.641076 
L 310.126846 -305.099074 
L 310.418977 -302.557073 
L 310.690713 -300.015071 
L 310.943898 -297.473069 
L 311.180591 -294.931067 
L 311.402995 -292.389065 
L 311.613385 -289.847063 
L 311.814041 -287.305062 
L 312.007174 -284.76306 
L 312.19486 -282.221058 
L 312.378977 -279.679056 
L 312.56115 -277.137054 
L 312.742704 -274.595052 
L 312.924621 -272.053051 
L 313.10752 -269.511049 
L 313.291631 -266.969047 
L 313.476791 -264.427045 
L 313.662451 -261.885043 
L 313.847688 -259.343041 
L 314.031227 -256.801039 
L 314.211477 -254.259038 
L 314.386573 -251.717036 
L 314.554416 -249.175034 
L 314.712731 -246.633032 
L 314.85912 -244.09103 
L 314.991118 -241.549028 
L 315.106255 -239.007027 
L 315.202108 -236.465025 
L 315.276363 -233.923023 
L 315.326862 -231.381021 
L 315.351656 -228.839019 
L 315.349046 -226.297017 
L 315.317625 -223.755016 
L 315.25631 -221.213014 
L 315.164367 -218.671012 
L 315.041434 -216.12901 
L 314.887535 -213.587008 
L 314.703083 -211.045006 
L 314.488887 -208.503005 
L 314.246143 -205.961003 
L 313.976424 -203.419001 
L 313.681661 -200.876999 
L 313.364127 -198.334997 
L 313.026405 -195.792995 
L 312.671358 -193.250994 
L 312.302099 -190.708992 
L 311.921953 -188.16699 
L 311.534415 -185.624988 
L 311.143114 -183.082986 
L 310.751769 -180.540984 
L 310.364144 -177.998983 
L 309.984015 -175.456981 
L 309.615117 -172.914979 
L 309.26111 -170.372977 
L 308.925539 -167.830975 
L 308.611791 -165.288973 
L 308.323061 -162.746972 
L 308.062314 -160.20497 
L 307.832248 -157.662968 
L 307.635263 -155.120966 
L 307.473427 -152.578964 
L 307.348441 -150.036962 
L 307.261612 -147.494961 
L 307.213817 -144.952959 
L 307.205482 -142.410957 
L 307.236547 -139.868955 
L 307.30645 -137.326953 
L 307.414098 -134.784951 
L 307.557857 -132.242949 
L 307.735537 -129.700948 
L 307.944389 -127.158946 
L 308.181109 -124.616944 
L 308.441851 -122.074942 
L 308.722249 -119.53294 
L 309.017456 -116.990938 
L 309.322185 -114.448937 
L 309.630774 -111.906935 
L 309.937257 -109.364933 
L 310.235447 -106.822931 
L 310.519032 -104.280929 
L 310.781679 -101.738927 
L 311.017145 -99.196926 
L 311.219397 -96.654924 
L 311.382724 -94.112922 
L 311.501859 -91.57092 
L 311.572088 -89.028918 
L 311.589355 -86.486916 
L 311.550352 -83.944915 
L 311.452598 -81.402913 
L 311.294499 -78.860911 
L 311.075386 -76.318909 
z
" style="stroke: #123524; stroke-opacity: 0.3"/>
    </defs>
    <g clip-path="url(#pb2acc8c4eb)">
     <use xlink:href="#mcdb19b5a02" x="0" y="360" style="fill: #123524; fill-opacity: 0.3; stroke: #123524; stroke-opacity: 0.3"/>
    </g>
   </g>
   <g id="PathCollection_1">
    <defs>
     <path id="m45bf9787d8" d="M 0 1.581139 
C 0.419323 1.581139 0.821528 1.41454 1.118034 1.118034 
C 1.41454 0.821528 1.581139 0.419323 1.581139 0 
C 1.581139 -0.419323 1.41454 -0.821528 1.118034 -1.118034 
C 0.821528 -1.41454 0.419323 -1.581139 0 -1.581139 
C -0.419323 -1.581139 -0.821528 -1.41454 -1.118034 -1.118034 
C -1.41454 -0.821528 -1.581139 -0.419323 -1.581139 0 
C -1.581139 0.419323 -1.41454 0.821528 -1.118034 1.118034 
C -0.821528 1.41454 -0.419323 1.581139 0 1.581139 
z
" style="stroke: #85a947; stroke-opacity: 0.75"/>
    </defs>
    <g clip-path="url(#pb2acc8c4eb)">
     <use xlink:href="#m45bf9787d8" x="103.901234" y="93.312141" style="fill: #85a947; fill-opacity: 0.75; stroke: #85a947; stroke-opacity: 0.75"/>
     <use xlink:href="#m45bf9787d8" x="103.98253" y="185.257734" style="fill: #85a947; fill-opacity: 0.75; stroke: #85a947; stroke-opacity: 0.75"/>
     <use xlink:href="#m45bf9787d8" x="108.029013" y="274.93704" style="fill: #85a947; fill-opacity: 0.75; stroke: #85a947; stroke-opacity: 0.75"/>
     <use xlink:href="#m45bf9787d8" x="104.001206" y="242.053812" style="fill: #85a947; fill-opacity: 0.75; stroke: #85a947; stroke-opacity: 0.75"/>
     <use xlink:href="#m45bf9787d8" x="106.432382" y="88.000873" style="fill: #85a947; fill-opacity: 0.75; stroke: #85a947; stroke-opacity: 0.75"/>
     <use xlink:href="#m45bf9787d8" x="105.099604" y="149.946571" style="fill: #85a947; fill-opacity: 0.75; stroke: #85a947; stroke-opacity: 0.75"/>
     <use xlink:href="#m45bf9787d8" x="105.11945" y="283.681091" style="fill: #85a947; fill-opacity: 0.75; stroke: #85a947; stroke-opacity: 0.75"/>
     <use xlink:href="#m45bf9787d8" x="103.675417" y="175.068887" style="fill: #85a947; fill-opacity: 0.75; stroke: #85a947; stroke-opacity: 0.75"/>
     <use xlink:href="#m45bf9787d8" x="103.821713" y="273.425707" style="fill: #85a947; fill-opacity: 0.75; stroke: #85a947; stroke-opacity: 0.75"/>
     <use xlink:href="#m45bf9787d8" x="106.105294" y="283.681091" style="fill: #85a947; fill-opacity: 0.75; stroke: #85a947; stroke-opacity: 0.75"/>
     <use xlink:href="#m45bf9787d8" x="103.387092" y="180.429497" style="fill: #85a947; fill-opacity: 0.75; stroke: #85a947; stroke-opacity: 0.75"/>
     <use xlink:href="#m45bf9787d8" x="102.829405" y="96.588655" style="fill: #85a947; fill-opacity: 0.75; stroke: #85a947; stroke-opacity: 0.75"/>
     <use xlink:href="#m45bf9787d8" x="101.979004" y="225.273767" style="fill: #85a947; fill-opacity: 0.75; stroke: #85a947; stroke-opacity: 0.75"/>
     <use xlink:href="#m45bf9787d8" x="103.834645" y="239.743678" style="fill: #85a947; fill-opacity: 0.75; stroke: #85a947; stroke-opacity: 0.75"/>
     <use xlink:href="#m45bf9787d8" x="105.479047" y="95.382057" style="fill: #85a947; fill-opacity: 0.75; stroke: #85a947; stroke-opacity: 0.75"/>
     <use xlink:href="#m45bf9787d8" x="109.312406" y="58.970957" style="fill: #85a947; fill-opacity: 0.75; stroke: #85a947; stroke-opacity: 0.75"/>
     <use xlink:href="#m45bf9787d8" x="103.815358" y="283.681091" style="fill: #85a947; fill-opacity: 0.75; stroke: #85a947; stroke-opacity: 0.75"/>
     <use xlink:href="#m45bf9787d8" x="100.594096" y="99.032753" style="fill: #85a947; fill-opacity: 0.75; stroke: #85a947; stroke-opacity: 0.75"/>
     <use xlink:href="#m45bf9787d8" x="103.877501" y="283.681091" style="fill: #85a947; fill-opacity: 0.75; stroke: #85a947; stroke-opacity: 0.75"/>
     <use xlink:href="#m45bf9787d8" x="105.180801" y="277.177322" style="fill: #85a947; fill-opacity: 0.75; stroke: #85a947; stroke-opacity: 0.75"/>
     <use xlink:href="#m45bf9787d8" x="106.038942" y="103.99555" style="fill: #85a947; fill-opacity: 0.75; stroke: #85a947; stroke-opacity: 0.75"/>
     <use xlink:href="#m45bf9787d8" x="103.87017" y="283.681091" style="fill: #85a947; fill-opacity: 0.75; stroke: #85a947; stroke-opacity: 0.75"/>
     <use xlink:href="#m45bf9787d8" x="103.566031" y="283.681091" style="fill: #85a947; fill-opacity: 0.75; stroke: #85a947; stroke-opacity: 0.75"/>
     <use xlink:href="#m45bf9787d8" x="105.360904" y="283.681091" style="fill: #85a947; fill-opacity: 0.75; stroke: #85a947; stroke-opacity: 0.75"/>
     <use xlink:href="#m45bf9787d8" x="105.400965" y="90.557756" style="fill: #85a947; fill-opacity: 0.75; stroke: #85a947; stroke-opacity: 0.75"/>
     <use xlink:href="#m45bf9787d8" x="107.415714" y="78.524154" style="fill: #85a947; fill-opacity: 0.75; stroke: #85a947; stroke-opacity: 0.75"/>
     <use xlink:href="#m45bf9787d8" x="104.128397" y="32.022909" style="fill: #85a947; fill-opacity: 0.75; stroke: #85a947; stroke-opacity: 0.75"/>
     <use xlink:href="#m45bf9787d8" x="103.301744" y="233.073348" style="fill: #85a947; fill-opacity: 0.75; stroke: #85a947; stroke-opacity: 0.75"/>
     <use xlink:href="#m45bf9787d8" x="103.049253" y="147.691551" style="fill: #85a947; fill-opacity: 0.75; stroke: #85a947; stroke-opacity: 0.75"/>
     <use xlink:href="#m45bf9787d8" x="101.930957" y="110.078596" style="fill: #85a947; fill-opacity: 0.75; stroke: #85a947; stroke-opacity: 0.75"/>
     <use xlink:href="#m45bf9787d8" x="105.569849" y="203.554767" style="fill: #85a947; fill-opacity: 0.75; stroke: #85a947; stroke-opacity: 0.75"/>
     <use xlink:href="#m45bf9787d8" x="104.413392" y="283.681091" style="fill: #85a947; fill-opacity: 0.75; stroke: #85a947; stroke-opacity: 0.75"/>
     <use xlink:href="#m45bf9787d8" x="104.656074" y="159.961955" style="fill: #85a947; fill-opacity: 0.75; stroke: #85a947; stroke-opacity: 0.75"/>
     <use xlink:href="#m45bf9787d8" x="99.956385" y="283.681091" style="fill: #85a947; fill-opacity: 0.75; stroke: #85a947; stroke-opacity: 0.75"/>
     <use xlink:href="#m45bf9787d8" x="105.572686" y="246.057284" style="fill: #85a947; fill-opacity: 0.75; stroke: #85a947; stroke-opacity: 0.75"/>
     <use xlink:href="#m45bf9787d8" x="99.479088" y="283.681091" style="fill: #85a947; fill-opacity: 0.75; stroke: #85a947; stroke-opacity: 0.75"/>
     <use xlink:href="#m45bf9787d8" x="103.774481" y="225.741557" style="fill: #85a947; fill-opacity: 0.75; stroke: #85a947; stroke-opacity: 0.75"/>
     <use xlink:href="#m45bf9787d8" x="103.721331" y="130.179185" style="fill: #85a947; fill-opacity: 0.75; stroke: #85a947; stroke-opacity: 0.75"/>
     <use xlink:href="#m45bf9787d8" x="106.338299" y="283.681091" style="fill: #85a947; fill-opacity: 0.75; stroke: #85a947; stroke-opacity: 0.75"/>
     <use xlink:href="#m45bf9787d8" x="102.416006" y="283.681091" style="fill: #85a947; fill-opacity: 0.75; stroke: #85a947; stroke-opacity: 0.75"/>
     <use xlink:href="#m45bf9787d8" x="104.808308" y="142.074716" style="fill: #85a947; fill-opacity: 0.75; stroke: #85a947; stroke-opacity: 0.75"/>
     <use xlink:href="#m45bf9787d8" x="103.822685" y="283.681091" style="fill: #85a947; fill-opacity: 0.75; stroke: #85a947; stroke-opacity: 0.75"/>
     <use xlink:href="#m45bf9787d8" x="103.134654" y="115.324379" style="fill: #85a947; fill-opacity: 0.75; stroke: #85a947; stroke-opacity: 0.75"/>
     <use xlink:href="#m45bf9787d8" x="101.938906" y="77.356299" style="fill: #85a947; fill-opacity: 0.75; stroke: #85a947; stroke-opacity: 0.75"/>
     <use xlink:href="#m45bf9787d8" x="103.991426" y="93.574569" style="fill: #85a947; fill-opacity: 0.75; stroke: #85a947; stroke-opacity: 0.75"/>
     <use xlink:href="#m45bf9787d8" x="102.468683" y="150.488108" style="fill: #85a947; fill-opacity: 0.75; stroke: #85a947; stroke-opacity: 0.75"/>
     <use xlink:href="#m45bf9787d8" x="105.199273" y="283.681091" style="fill: #85a947; fill-opacity: 0.75; stroke: #85a947; stroke-opacity: 0.75"/>
     <use xlink:href="#m45bf9787d8" x="105.905293" y="32.022909" style="fill: #85a947; fill-opacity: 0.75; stroke: #85a947; stroke-opacity: 0.75"/>
     <use xlink:href="#m45bf9787d8" x="102.579098" y="154.110319" style="fill: #85a947; fill-opacity: 0.75; stroke: #85a947; stroke-opacity: 0.75"/>
     <use xlink:href="#m45bf9787d8" x="103.046853" y="283.681091" style="fill: #85a947; fill-opacity: 0.75; stroke: #85a947; stroke-opacity: 0.75"/>
     <use xlink:href="#m45bf9787d8" x="103.557755" y="127.640621" style="fill: #85a947; fill-opacity: 0.75; stroke: #85a947; stroke-opacity: 0.75"/>
     <use xlink:href="#m45bf9787d8" x="104.301607" y="56.901588" style="fill: #85a947; fill-opacity: 0.75; stroke: #85a947; stroke-opacity: 0.75"/>
     <use xlink:href="#m45bf9787d8" x="108.58483" y="283.681091" style="fill: #85a947; fill-opacity: 0.75; stroke: #85a947; stroke-opacity: 0.75"/>
     <use xlink:href="#m45bf9787d8" x="102.786559" y="219.850261" style="fill: #85a947; fill-opacity: 0.75; stroke: #85a947; stroke-opacity: 0.75"/>
     <use xlink:href="#m45bf9787d8" x="104.466599" y="114.624821" style="fill: #85a947; fill-opacity: 0.75; stroke: #85a947; stroke-opacity: 0.75"/>
     <use xlink:href="#m45bf9787d8" x="104.680518" y="229.759365" style="fill: #85a947; fill-opacity: 0.75; stroke: #85a947; stroke-opacity: 0.75"/>
     <use xlink:href="#m45bf9787d8" x="107.864423" y="144.518013" style="fill: #85a947; fill-opacity: 0.75; stroke: #85a947; stroke-opacity: 0.75"/>
     <use xlink:href="#m45bf9787d8" x="104.637367" y="283.681091" style="fill: #85a947; fill-opacity: 0.75; stroke: #85a947; stroke-opacity: 0.75"/>
     <use xlink:href="#m45bf9787d8" x="105.097104" y="161.167207" style="fill: #85a947; fill-opacity: 0.75; stroke: #85a947; stroke-opacity: 0.75"/>
     <use xlink:href="#m45bf9787d8" x="105.643463" y="283.681091" style="fill: #85a947; fill-opacity: 0.75; stroke: #85a947; stroke-opacity: 0.75"/>
     <use xlink:href="#m45bf9787d8" x="107.389624" y="283.681091" style="fill: #85a947; fill-opacity: 0.75; stroke: #85a947; stroke-opacity: 0.75"/>
     <use xlink:href="#m45bf9787d8" x="103.556532" y="207.238103" style="fill: #85a947; fill-opacity: 0.75; stroke: #85a947; stroke-opacity: 0.75"/>
     <use xlink:href="#m45bf9787d8" x="104.332037" y="257.701774" style="fill: #85a947; fill-opacity: 0.75; stroke: #85a947; stroke-opacity: 0.75"/>
     <use xlink:href="#m45bf9787d8" x="103.427615" y="41.996341" style="fill: #85a947; fill-opacity: 0.75; stroke: #85a947; stroke-opacity: 0.75"/>
     <use xlink:href="#m45bf9787d8" x="103.383917" y="283.681091" style="fill: #85a947; fill-opacity: 0.75; stroke: #85a947; stroke-opacity: 0.75"/>
     <use xlink:href="#m45bf9787d8" x="104.598983" y="283.681091" style="fill: #85a947; fill-opacity: 0.75; stroke: #85a947; stroke-opacity: 0.75"/>
     <use xlink:href="#m45bf9787d8" x="104.041184" y="283.681091" style="fill: #85a947; fill-opacity: 0.75; stroke: #85a947; stroke-opacity: 0.75"/>
     <use xlink:href="#m45bf9787d8" x="103.375963" y="202.014398" style="fill: #85a947; fill-opacity: 0.75; stroke: #85a947; stroke-opacity: 0.75"/>
     <use xlink:href="#m45bf9787d8" x="105.79363" y="283.681091" style="fill: #85a947; fill-opacity: 0.75; stroke: #85a947; stroke-opacity: 0.75"/>
     <use xlink:href="#m45bf9787d8" x="102.149778" y="192.662207" style="fill: #85a947; fill-opacity: 0.75; stroke: #85a947; stroke-opacity: 0.75"/>
     <use xlink:href="#m45bf9787d8" x="105.274663" y="160.796" style="fill: #85a947; fill-opacity: 0.75; stroke: #85a947; stroke-opacity: 0.75"/>
     <use xlink:href="#m45bf9787d8" x="103.895547" y="283.681091" style="fill: #85a947; fill-opacity: 0.75; stroke: #85a947; stroke-opacity: 0.75"/>
     <use xlink:href="#m45bf9787d8" x="102.313359" y="173.288952" style="fill: #85a947; fill-opacity: 0.75; stroke: #85a947; stroke-opacity: 0.75"/>
     <use xlink:href="#m45bf9787d8" x="102.967519" y="283.681091" style="fill: #85a947; fill-opacity: 0.75; stroke: #85a947; stroke-opacity: 0.75"/>
     <use xlink:href="#m45bf9787d8" x="104.645331" y="209.528779" style="fill: #85a947; fill-opacity: 0.75; stroke: #85a947; stroke-opacity: 0.75"/>
     <use xlink:href="#m45bf9787d8" x="100.913012" y="132.218254" style="fill: #85a947; fill-opacity: 0.75; stroke: #85a947; stroke-opacity: 0.75"/>
     <use xlink:href="#m45bf9787d8" x="103.543387" y="161.409135" style="fill: #85a947; fill-opacity: 0.75; stroke: #85a947; stroke-opacity: 0.75"/>
     <use xlink:href="#m45bf9787d8" x="103.262327" y="211.22281" style="fill: #85a947; fill-opacity: 0.75; stroke: #85a947; stroke-opacity: 0.75"/>
     <use xlink:href="#m45bf9787d8" x="105.679915" y="98.918203" style="fill: #85a947; fill-opacity: 0.75; stroke: #85a947; stroke-opacity: 0.75"/>
     <use xlink:href="#m45bf9787d8" x="101.687273" y="283.681091" style="fill: #85a947; fill-opacity: 0.75; stroke: #85a947; stroke-opacity: 0.75"/>
     <use xlink:href="#m45bf9787d8" x="103.589981" y="157.870689" style="fill: #85a947; fill-opacity: 0.75; stroke: #85a947; stroke-opacity: 0.75"/>
     <use xlink:href="#m45bf9787d8" x="107.420222" y="283.681091" style="fill: #85a947; fill-opacity: 0.75; stroke: #85a947; stroke-opacity: 0.75"/>
     <use xlink:href="#m45bf9787d8" x="102.108699" y="245.673133" style="fill: #85a947; fill-opacity: 0.75; stroke: #85a947; stroke-opacity: 0.75"/>
     <use xlink:href="#m45bf9787d8" x="104.62719" y="208.513527" style="fill: #85a947; fill-opacity: 0.75; stroke: #85a947; stroke-opacity: 0.75"/>
     <use xlink:href="#m45bf9787d8" x="103.762729" y="283.681091" style="fill: #85a947; fill-opacity: 0.75; stroke: #85a947; stroke-opacity: 0.75"/>
     <use xlink:href="#m45bf9787d8" x="107.963885" y="260.942878" style="fill: #85a947; fill-opacity: 0.75; stroke: #85a947; stroke-opacity: 0.75"/>
     <use xlink:href="#m45bf9787d8" x="102.413429" y="283.681091" style="fill: #85a947; fill-opacity: 0.75; stroke: #85a947; stroke-opacity: 0.75"/>
     <use xlink:href="#m45bf9787d8" x="105.09045" y="102.646569" style="fill: #85a947; fill-opacity: 0.75; stroke: #85a947; stroke-opacity: 0.75"/>
     <use xlink:href="#m45bf9787d8" x="103.207878" y="139.27811" style="fill: #85a947; fill-opacity: 0.75; stroke: #85a947; stroke-opacity: 0.75"/>
     <use xlink:href="#m45bf9787d8" x="104.8571" y="227.663941" style="fill: #85a947; fill-opacity: 0.75; stroke: #85a947; stroke-opacity: 0.75"/>
     <use xlink:href="#m45bf9787d8" x="105.628534" y="241.803125" style="fill: #85a947; fill-opacity: 0.75; stroke: #85a947; stroke-opacity: 0.75"/>
     <use xlink:href="#m45bf9787d8" x="101.996578" y="283.681091" style="fill: #85a947; fill-opacity: 0.75; stroke: #85a947; stroke-opacity: 0.75"/>
     <use xlink:href="#m45bf9787d8" x="105.095357" y="95.516495" style="fill: #85a947; fill-opacity: 0.75; stroke: #85a947; stroke-opacity: 0.75"/>
     <use xlink:href="#m45bf9787d8" x="103.459597" y="248.779337" style="fill: #85a947; fill-opacity: 0.75; stroke: #85a947; stroke-opacity: 0.75"/>
     <use xlink:href="#m45bf9787d8" x="108.115102" y="54.059465" style="fill: #85a947; fill-opacity: 0.75; stroke: #85a947; stroke-opacity: 0.75"/>
     <use xlink:href="#m45bf9787d8" x="106.102201" y="32.022909" style="fill: #85a947; fill-opacity: 0.75; stroke: #85a947; stroke-opacity: 0.75"/>
     <use xlink:href="#m45bf9787d8" x="102.742242" y="283.681091" style="fill: #85a947; fill-opacity: 0.75; stroke: #85a947; stroke-opacity: 0.75"/>
     <use xlink:href="#m45bf9787d8" x="103.925218" y="127.692749" style="fill: #85a947; fill-opacity: 0.75; stroke: #85a947; stroke-opacity: 0.75"/>
     <use xlink:href="#m45bf9787d8" x="107.648938" y="283.681091" style="fill: #85a947; fill-opacity: 0.75; stroke: #85a947; stroke-opacity: 0.75"/>
     <use xlink:href="#m45bf9787d8" x="104.095807" y="225.526308" style="fill: #85a947; fill-opacity: 0.75; stroke: #85a947; stroke-opacity: 0.75"/>
     <use xlink:href="#m45bf9787d8" x="105.932529" y="161.026054" style="fill: #85a947; fill-opacity: 0.75; stroke: #85a947; stroke-opacity: 0.75"/>
     <use xlink:href="#m45bf9787d8" x="101.858281" y="96.033991" style="fill: #85a947; fill-opacity: 0.75; stroke: #85a947; stroke-opacity: 0.75"/>
     <use xlink:href="#m45bf9787d8" x="99.202165" y="57.998344" style="fill: #85a947; fill-opacity: 0.75; stroke: #85a947; stroke-opacity: 0.75"/>
     <use xlink:href="#m45bf9787d8" x="100.244902" y="278.25865" style="fill: #85a947; fill-opacity: 0.75; stroke: #85a947; stroke-opacity: 0.75"/>
     <use xlink:href="#m45bf9787d8" x="103.845892" y="144.609366" style="fill: #85a947; fill-opacity: 0.75; stroke: #85a947; stroke-opacity: 0.75"/>
     <use xlink:href="#m45bf9787d8" x="104.079831" y="234.255686" style="fill: #85a947; fill-opacity: 0.75; stroke: #85a947; stroke-opacity: 0.75"/>
     <use xlink:href="#m45bf9787d8" x="104.219958" y="203.105821" style="fill: #85a947; fill-opacity: 0.75; stroke: #85a947; stroke-opacity: 0.75"/>
     <use xlink:href="#m45bf9787d8" x="102.271654" y="244.923205" style="fill: #85a947; fill-opacity: 0.75; stroke: #85a947; stroke-opacity: 0.75"/>
    </g>
   </g>
   <g id="PathCollection_2">
    <defs>
     <path id="m2de280c06a" d="M 0 1.581139 
C 0.419323 1.581139 0.821528 1.41454 1.118034 1.118034 
C 1.41454 0.821528 1.581139 0.419323 1.581139 0 
C 1.581139 -0.419323 1.41454 -0.821528 1.118034 -1.118034 
C 0.821528 -1.41454 0.419323 -1.581139 0 -1.581139 
C -0.419323 -1.581139 -0.821528 -1.41454 -1.118034 -1.118034 
C -1.41454 -0.821528 -1.581139 -0.419323 -1.581139 0 
C -1.581139 0.419323 -1.41454 0.821528 -1.118034 1.118034 
C -0.821528 1.41454 -0.419323 1.581139 0 1.581139 
z
" style="stroke: #3e7b27; stroke-opacity: 0.75"/>
    </defs>
    <g clip-path="url(#pb2acc8c4eb)">
     <use xlink:href="#m2de280c06a" x="193.109246" y="207.662205" style="fill: #3e7b27; fill-opacity: 0.75; stroke: #3e7b27; stroke-opacity: 0.75"/>
     <use xlink:href="#m2de280c06a" x="191.433607" y="63.742462" style="fill: #3e7b27; fill-opacity: 0.75; stroke: #3e7b27; stroke-opacity: 0.75"/>
     <use xlink:href="#m2de280c06a" x="190.014937" y="237.578056" style="fill: #3e7b27; fill-opacity: 0.75; stroke: #3e7b27; stroke-opacity: 0.75"/>
     <use xlink:href="#m2de280c06a" x="190.412904" y="234.758963" style="fill: #3e7b27; fill-opacity: 0.75; stroke: #3e7b27; stroke-opacity: 0.75"/>
     <use xlink:href="#m2de280c06a" x="188.887701" y="283.681091" style="fill: #3e7b27; fill-opacity: 0.75; stroke: #3e7b27; stroke-opacity: 0.75"/>
     <use xlink:href="#m2de280c06a" x="189.932582" y="236.329372" style="fill: #3e7b27; fill-opacity: 0.75; stroke: #3e7b27; stroke-opacity: 0.75"/>
     <use xlink:href="#m2de280c06a" x="191.75108" y="56.395111" style="fill: #3e7b27; fill-opacity: 0.75; stroke: #3e7b27; stroke-opacity: 0.75"/>
     <use xlink:href="#m2de280c06a" x="189.897387" y="176.52456" style="fill: #3e7b27; fill-opacity: 0.75; stroke: #3e7b27; stroke-opacity: 0.75"/>
     <use xlink:href="#m2de280c06a" x="191.1118" y="279.719728" style="fill: #3e7b27; fill-opacity: 0.75; stroke: #3e7b27; stroke-opacity: 0.75"/>
     <use xlink:href="#m2de280c06a" x="189.844642" y="272.215544" style="fill: #3e7b27; fill-opacity: 0.75; stroke: #3e7b27; stroke-opacity: 0.75"/>
     <use xlink:href="#m2de280c06a" x="190.893375" y="85.683688" style="fill: #3e7b27; fill-opacity: 0.75; stroke: #3e7b27; stroke-opacity: 0.75"/>
     <use xlink:href="#m2de280c06a" x="190.222905" y="193.333615" style="fill: #3e7b27; fill-opacity: 0.75; stroke: #3e7b27; stroke-opacity: 0.75"/>
     <use xlink:href="#m2de280c06a" x="190.147305" y="91.688764" style="fill: #3e7b27; fill-opacity: 0.75; stroke: #3e7b27; stroke-opacity: 0.75"/>
     <use xlink:href="#m2de280c06a" x="190.915806" y="218.846599" style="fill: #3e7b27; fill-opacity: 0.75; stroke: #3e7b27; stroke-opacity: 0.75"/>
     <use xlink:href="#m2de280c06a" x="191.696469" y="87.635647" style="fill: #3e7b27; fill-opacity: 0.75; stroke: #3e7b27; stroke-opacity: 0.75"/>
     <use xlink:href="#m2de280c06a" x="190.531224" y="283.681091" style="fill: #3e7b27; fill-opacity: 0.75; stroke: #3e7b27; stroke-opacity: 0.75"/>
     <use xlink:href="#m2de280c06a" x="188.522607" y="178.400383" style="fill: #3e7b27; fill-opacity: 0.75; stroke: #3e7b27; stroke-opacity: 0.75"/>
     <use xlink:href="#m2de280c06a" x="191.832227" y="67.305898" style="fill: #3e7b27; fill-opacity: 0.75; stroke: #3e7b27; stroke-opacity: 0.75"/>
     <use xlink:href="#m2de280c06a" x="192.322571" y="204.409587" style="fill: #3e7b27; fill-opacity: 0.75; stroke: #3e7b27; stroke-opacity: 0.75"/>
     <use xlink:href="#m2de280c06a" x="192.344419" y="79.1069" style="fill: #3e7b27; fill-opacity: 0.75; stroke: #3e7b27; stroke-opacity: 0.75"/>
     <use xlink:href="#m2de280c06a" x="190.873269" y="76.558748" style="fill: #3e7b27; fill-opacity: 0.75; stroke: #3e7b27; stroke-opacity: 0.75"/>
     <use xlink:href="#m2de280c06a" x="192.454415" y="101.014455" style="fill: #3e7b27; fill-opacity: 0.75; stroke: #3e7b27; stroke-opacity: 0.75"/>
     <use xlink:href="#m2de280c06a" x="190.153049" y="117.357097" style="fill: #3e7b27; fill-opacity: 0.75; stroke: #3e7b27; stroke-opacity: 0.75"/>
     <use xlink:href="#m2de280c06a" x="193.248667" y="283.681091" style="fill: #3e7b27; fill-opacity: 0.75; stroke: #3e7b27; stroke-opacity: 0.75"/>
     <use xlink:href="#m2de280c06a" x="190.811834" y="283.681091" style="fill: #3e7b27; fill-opacity: 0.75; stroke: #3e7b27; stroke-opacity: 0.75"/>
     <use xlink:href="#m2de280c06a" x="195.031804" y="136.285309" style="fill: #3e7b27; fill-opacity: 0.75; stroke: #3e7b27; stroke-opacity: 0.75"/>
     <use xlink:href="#m2de280c06a" x="192.572143" y="122.101996" style="fill: #3e7b27; fill-opacity: 0.75; stroke: #3e7b27; stroke-opacity: 0.75"/>
     <use xlink:href="#m2de280c06a" x="191.83105" y="178.582934" style="fill: #3e7b27; fill-opacity: 0.75; stroke: #3e7b27; stroke-opacity: 0.75"/>
     <use xlink:href="#m2de280c06a" x="191.290957" y="283.681091" style="fill: #3e7b27; fill-opacity: 0.75; stroke: #3e7b27; stroke-opacity: 0.75"/>
     <use xlink:href="#m2de280c06a" x="191.706401" y="242.325815" style="fill: #3e7b27; fill-opacity: 0.75; stroke: #3e7b27; stroke-opacity: 0.75"/>
     <use xlink:href="#m2de280c06a" x="190.253867" y="283.681091" style="fill: #3e7b27; fill-opacity: 0.75; stroke: #3e7b27; stroke-opacity: 0.75"/>
     <use xlink:href="#m2de280c06a" x="189.661073" y="98.893083" style="fill: #3e7b27; fill-opacity: 0.75; stroke: #3e7b27; stroke-opacity: 0.75"/>
     <use xlink:href="#m2de280c06a" x="191.184958" y="283.681091" style="fill: #3e7b27; fill-opacity: 0.75; stroke: #3e7b27; stroke-opacity: 0.75"/>
     <use xlink:href="#m2de280c06a" x="191.640932" y="283.681091" style="fill: #3e7b27; fill-opacity: 0.75; stroke: #3e7b27; stroke-opacity: 0.75"/>
     <use xlink:href="#m2de280c06a" x="189.604374" y="283.681091" style="fill: #3e7b27; fill-opacity: 0.75; stroke: #3e7b27; stroke-opacity: 0.75"/>
     <use xlink:href="#m2de280c06a" x="186.466219" y="73.642376" style="fill: #3e7b27; fill-opacity: 0.75; stroke: #3e7b27; stroke-opacity: 0.75"/>
     <use xlink:href="#m2de280c06a" x="190.593838" y="172.065293" style="fill: #3e7b27; fill-opacity: 0.75; stroke: #3e7b27; stroke-opacity: 0.75"/>
     <use xlink:href="#m2de280c06a" x="188.908988" y="202.555735" style="fill: #3e7b27; fill-opacity: 0.75; stroke: #3e7b27; stroke-opacity: 0.75"/>
     <use xlink:href="#m2de280c06a" x="189.386638" y="91.320688" style="fill: #3e7b27; fill-opacity: 0.75; stroke: #3e7b27; stroke-opacity: 0.75"/>
     <use xlink:href="#m2de280c06a" x="192.355531" y="105.901319" style="fill: #3e7b27; fill-opacity: 0.75; stroke: #3e7b27; stroke-opacity: 0.75"/>
     <use xlink:href="#m2de280c06a" x="191.937513" y="260.420393" style="fill: #3e7b27; fill-opacity: 0.75; stroke: #3e7b27; stroke-opacity: 0.75"/>
     <use xlink:href="#m2de280c06a" x="190.301526" y="283.681091" style="fill: #3e7b27; fill-opacity: 0.75; stroke: #3e7b27; stroke-opacity: 0.75"/>
     <use xlink:href="#m2de280c06a" x="191.977975" y="144.743246" style="fill: #3e7b27; fill-opacity: 0.75; stroke: #3e7b27; stroke-opacity: 0.75"/>
     <use xlink:href="#m2de280c06a" x="190.759214" y="81.189773" style="fill: #3e7b27; fill-opacity: 0.75; stroke: #3e7b27; stroke-opacity: 0.75"/>
     <use xlink:href="#m2de280c06a" x="193.227042" y="276.772775" style="fill: #3e7b27; fill-opacity: 0.75; stroke: #3e7b27; stroke-opacity: 0.75"/>
     <use xlink:href="#m2de280c06a" x="184.842861" y="73.300873" style="fill: #3e7b27; fill-opacity: 0.75; stroke: #3e7b27; stroke-opacity: 0.75"/>
     <use xlink:href="#m2de280c06a" x="191.597418" y="200.092078" style="fill: #3e7b27; fill-opacity: 0.75; stroke: #3e7b27; stroke-opacity: 0.75"/>
     <use xlink:href="#m2de280c06a" x="191.012378" y="184.450768" style="fill: #3e7b27; fill-opacity: 0.75; stroke: #3e7b27; stroke-opacity: 0.75"/>
     <use xlink:href="#m2de280c06a" x="188.60335" y="106.524959" style="fill: #3e7b27; fill-opacity: 0.75; stroke: #3e7b27; stroke-opacity: 0.75"/>
     <use xlink:href="#m2de280c06a" x="188.620617" y="78.339617" style="fill: #3e7b27; fill-opacity: 0.75; stroke: #3e7b27; stroke-opacity: 0.75"/>
     <use xlink:href="#m2de280c06a" x="189.919279" y="154.993867" style="fill: #3e7b27; fill-opacity: 0.75; stroke: #3e7b27; stroke-opacity: 0.75"/>
     <use xlink:href="#m2de280c06a" x="191.239893" y="58.859223" style="fill: #3e7b27; fill-opacity: 0.75; stroke: #3e7b27; stroke-opacity: 0.75"/>
     <use xlink:href="#m2de280c06a" x="190.285391" y="209.839583" style="fill: #3e7b27; fill-opacity: 0.75; stroke: #3e7b27; stroke-opacity: 0.75"/>
    </g>
   </g>
   <g id="PathCollection_3">
    <defs>
     <path id="mc2c94f04aa" d="M 0 1.581139 
C 0.419323 1.581139 0.821528 1.41454 1.118034 1.118034 
C 1.41454 0.821528 1.581139 0.419323 1.581139 0 
C 1.581139 -0.419323 1.41454 -0.821528 1.118034 -1.118034 
C 0.821528 -1.41454 0.419323 -1.581139 0 -1.581139 
C -0.419323 -1.581139 -0.821528 -1.41454 -1.118034 -1.118034 
C -1.41454 -0.821528 -1.581139 -0.419323 -1.581139 0 
C -1.581139 0.419323 -1.41454 0.821528 -1.118034 1.118034 
C -0.821528 1.41454 -0.419323 1.581139 0 1.581139 
z
" style="stroke: #123524; stroke-opacity: 0.75"/>
    </defs>
    <g clip-path="url(#pb2acc8c4eb)">
     <use xlink:href="#mc2c94f04aa" x="277.031328" y="36.213093" style="fill: #123524; fill-opacity: 0.75; stroke: #123524; stroke-opacity: 0.75"/>
     <use xlink:href="#mc2c94f04aa" x="277.262848" y="157.640582" style="fill: #123524; fill-opacity: 0.75; stroke: #123524; stroke-opacity: 0.75"/>
     <use xlink:href="#mc2c94f04aa" x="277.618985" y="268.533677" style="fill: #123524; fill-opacity: 0.75; stroke: #123524; stroke-opacity: 0.75"/>
     <use xlink:href="#mc2c94f04aa" x="279.31229" y="57.554491" style="fill: #123524; fill-opacity: 0.75; stroke: #123524; stroke-opacity: 0.75"/>
     <use xlink:href="#mc2c94f04aa" x="275.367866" y="160.709705" style="fill: #123524; fill-opacity: 0.75; stroke: #123524; stroke-opacity: 0.75"/>
     <use xlink:href="#mc2c94f04aa" x="278.984573" y="54.081299" style="fill: #123524; fill-opacity: 0.75; stroke: #123524; stroke-opacity: 0.75"/>
     <use xlink:href="#mc2c94f04aa" x="277.824932" y="32.022909" style="fill: #123524; fill-opacity: 0.75; stroke: #123524; stroke-opacity: 0.75"/>
     <use xlink:href="#mc2c94f04aa" x="279.323874" y="60.286572" style="fill: #123524; fill-opacity: 0.75; stroke: #123524; stroke-opacity: 0.75"/>
     <use xlink:href="#mc2c94f04aa" x="277.88588" y="227.594619" style="fill: #123524; fill-opacity: 0.75; stroke: #123524; stroke-opacity: 0.75"/>
     <use xlink:href="#mc2c94f04aa" x="276.33767" y="135.089762" style="fill: #123524; fill-opacity: 0.75; stroke: #123524; stroke-opacity: 0.75"/>
     <use xlink:href="#mc2c94f04aa" x="278.477473" y="283.681091" style="fill: #123524; fill-opacity: 0.75; stroke: #123524; stroke-opacity: 0.75"/>
     <use xlink:href="#mc2c94f04aa" x="279.721638" y="122.802214" style="fill: #123524; fill-opacity: 0.75; stroke: #123524; stroke-opacity: 0.75"/>
     <use xlink:href="#mc2c94f04aa" x="280.130087" y="221.22115" style="fill: #123524; fill-opacity: 0.75; stroke: #123524; stroke-opacity: 0.75"/>
     <use xlink:href="#mc2c94f04aa" x="277.479049" y="99.819959" style="fill: #123524; fill-opacity: 0.75; stroke: #123524; stroke-opacity: 0.75"/>
     <use xlink:href="#mc2c94f04aa" x="278.364973" y="142.490192" style="fill: #123524; fill-opacity: 0.75; stroke: #123524; stroke-opacity: 0.75"/>
     <use xlink:href="#mc2c94f04aa" x="274.769396" y="170.924186" style="fill: #123524; fill-opacity: 0.75; stroke: #123524; stroke-opacity: 0.75"/>
     <use xlink:href="#mc2c94f04aa" x="278.84092" y="32.022909" style="fill: #123524; fill-opacity: 0.75; stroke: #123524; stroke-opacity: 0.75"/>
     <use xlink:href="#mc2c94f04aa" x="279.099664" y="244.636106" style="fill: #123524; fill-opacity: 0.75; stroke: #123524; stroke-opacity: 0.75"/>
     <use xlink:href="#mc2c94f04aa" x="278.14919" y="145.290779" style="fill: #123524; fill-opacity: 0.75; stroke: #123524; stroke-opacity: 0.75"/>
     <use xlink:href="#mc2c94f04aa" x="280.410379" y="99.647521" style="fill: #123524; fill-opacity: 0.75; stroke: #123524; stroke-opacity: 0.75"/>
     <use xlink:href="#mc2c94f04aa" x="279.867595" y="53.315857" style="fill: #123524; fill-opacity: 0.75; stroke: #123524; stroke-opacity: 0.75"/>
     <use xlink:href="#mc2c94f04aa" x="276.742858" y="132.950047" style="fill: #123524; fill-opacity: 0.75; stroke: #123524; stroke-opacity: 0.75"/>
     <use xlink:href="#mc2c94f04aa" x="280.711361" y="283.681091" style="fill: #123524; fill-opacity: 0.75; stroke: #123524; stroke-opacity: 0.75"/>
     <use xlink:href="#mc2c94f04aa" x="274.382543" y="100.151623" style="fill: #123524; fill-opacity: 0.75; stroke: #123524; stroke-opacity: 0.75"/>
     <use xlink:href="#mc2c94f04aa" x="279.10288" y="283.681091" style="fill: #123524; fill-opacity: 0.75; stroke: #123524; stroke-opacity: 0.75"/>
     <use xlink:href="#mc2c94f04aa" x="281.312909" y="169.27304" style="fill: #123524; fill-opacity: 0.75; stroke: #123524; stroke-opacity: 0.75"/>
     <use xlink:href="#mc2c94f04aa" x="278.516906" y="283.681091" style="fill: #123524; fill-opacity: 0.75; stroke: #123524; stroke-opacity: 0.75"/>
     <use xlink:href="#mc2c94f04aa" x="277.118287" y="108.141778" style="fill: #123524; fill-opacity: 0.75; stroke: #123524; stroke-opacity: 0.75"/>
     <use xlink:href="#mc2c94f04aa" x="280.655594" y="57.30303" style="fill: #123524; fill-opacity: 0.75; stroke: #123524; stroke-opacity: 0.75"/>
     <use xlink:href="#mc2c94f04aa" x="277.277338" y="166.347259" style="fill: #123524; fill-opacity: 0.75; stroke: #123524; stroke-opacity: 0.75"/>
     <use xlink:href="#mc2c94f04aa" x="277.10815" y="135.127527" style="fill: #123524; fill-opacity: 0.75; stroke: #123524; stroke-opacity: 0.75"/>
     <use xlink:href="#mc2c94f04aa" x="276.845013" y="283.681091" style="fill: #123524; fill-opacity: 0.75; stroke: #123524; stroke-opacity: 0.75"/>
     <use xlink:href="#mc2c94f04aa" x="278.675301" y="68.927634" style="fill: #123524; fill-opacity: 0.75; stroke: #123524; stroke-opacity: 0.75"/>
     <use xlink:href="#mc2c94f04aa" x="277.418245" y="194.997696" style="fill: #123524; fill-opacity: 0.75; stroke: #123524; stroke-opacity: 0.75"/>
     <use xlink:href="#mc2c94f04aa" x="279.316038" y="283.681091" style="fill: #123524; fill-opacity: 0.75; stroke: #123524; stroke-opacity: 0.75"/>
     <use xlink:href="#mc2c94f04aa" x="277.469799" y="177.350189" style="fill: #123524; fill-opacity: 0.75; stroke: #123524; stroke-opacity: 0.75"/>
     <use xlink:href="#mc2c94f04aa" x="277.533111" y="175.487489" style="fill: #123524; fill-opacity: 0.75; stroke: #123524; stroke-opacity: 0.75"/>
     <use xlink:href="#mc2c94f04aa" x="277.699969" y="218.993191" style="fill: #123524; fill-opacity: 0.75; stroke: #123524; stroke-opacity: 0.75"/>
     <use xlink:href="#mc2c94f04aa" x="277.473351" y="283.681091" style="fill: #123524; fill-opacity: 0.75; stroke: #123524; stroke-opacity: 0.75"/>
     <use xlink:href="#mc2c94f04aa" x="274.052271" y="57.025785" style="fill: #123524; fill-opacity: 0.75; stroke: #123524; stroke-opacity: 0.75"/>
     <use xlink:href="#mc2c94f04aa" x="279.759935" y="32.022909" style="fill: #123524; fill-opacity: 0.75; stroke: #123524; stroke-opacity: 0.75"/>
     <use xlink:href="#mc2c94f04aa" x="280.85174" y="157.435158" style="fill: #123524; fill-opacity: 0.75; stroke: #123524; stroke-opacity: 0.75"/>
     <use xlink:href="#mc2c94f04aa" x="278.121243" y="116.271502" style="fill: #123524; fill-opacity: 0.75; stroke: #123524; stroke-opacity: 0.75"/>
     <use xlink:href="#mc2c94f04aa" x="278.508485" y="32.022909" style="fill: #123524; fill-opacity: 0.75; stroke: #123524; stroke-opacity: 0.75"/>
     <use xlink:href="#mc2c94f04aa" x="274.457934" y="283.681091" style="fill: #123524; fill-opacity: 0.75; stroke: #123524; stroke-opacity: 0.75"/>
     <use xlink:href="#mc2c94f04aa" x="279.405674" y="229.406454" style="fill: #123524; fill-opacity: 0.75; stroke: #123524; stroke-opacity: 0.75"/>
     <use xlink:href="#mc2c94f04aa" x="277.908794" y="213.212035" style="fill: #123524; fill-opacity: 0.75; stroke: #123524; stroke-opacity: 0.75"/>
     <use xlink:href="#mc2c94f04aa" x="277.445156" y="148.839344" style="fill: #123524; fill-opacity: 0.75; stroke: #123524; stroke-opacity: 0.75"/>
     <use xlink:href="#mc2c94f04aa" x="276.397539" y="283.681091" style="fill: #123524; fill-opacity: 0.75; stroke: #123524; stroke-opacity: 0.75"/>
     <use xlink:href="#mc2c94f04aa" x="280.771888" y="283.681091" style="fill: #123524; fill-opacity: 0.75; stroke: #123524; stroke-opacity: 0.75"/>
     <use xlink:href="#mc2c94f04aa" x="281.270099" y="283.681091" style="fill: #123524; fill-opacity: 0.75; stroke: #123524; stroke-opacity: 0.75"/>
     <use xlink:href="#mc2c94f04aa" x="279.239584" y="32.022909" style="fill: #123524; fill-opacity: 0.75; stroke: #123524; stroke-opacity: 0.75"/>
     <use xlink:href="#mc2c94f04aa" x="279.122523" y="283.681091" style="fill: #123524; fill-opacity: 0.75; stroke: #123524; stroke-opacity: 0.75"/>
     <use xlink:href="#mc2c94f04aa" x="278.532054" y="52.029262" style="fill: #123524; fill-opacity: 0.75; stroke: #123524; stroke-opacity: 0.75"/>
     <use xlink:href="#mc2c94f04aa" x="278.241979" y="272.665552" style="fill: #123524; fill-opacity: 0.75; stroke: #123524; stroke-opacity: 0.75"/>
     <use xlink:href="#mc2c94f04aa" x="278.254285" y="93.622286" style="fill: #123524; fill-opacity: 0.75; stroke: #123524; stroke-opacity: 0.75"/>
     <use xlink:href="#mc2c94f04aa" x="275.467804" y="176.94704" style="fill: #123524; fill-opacity: 0.75; stroke: #123524; stroke-opacity: 0.75"/>
     <use xlink:href="#mc2c94f04aa" x="279.149651" y="163.794084" style="fill: #123524; fill-opacity: 0.75; stroke: #123524; stroke-opacity: 0.75"/>
     <use xlink:href="#mc2c94f04aa" x="276.198383" y="93.393777" style="fill: #123524; fill-opacity: 0.75; stroke: #123524; stroke-opacity: 0.75"/>
     <use xlink:href="#mc2c94f04aa" x="278.735624" y="38.781844" style="fill: #123524; fill-opacity: 0.75; stroke: #123524; stroke-opacity: 0.75"/>
     <use xlink:href="#mc2c94f04aa" x="279.778698" y="125.471017" style="fill: #123524; fill-opacity: 0.75; stroke: #123524; stroke-opacity: 0.75"/>
     <use xlink:href="#mc2c94f04aa" x="278.901444" y="58.082256" style="fill: #123524; fill-opacity: 0.75; stroke: #123524; stroke-opacity: 0.75"/>
     <use xlink:href="#mc2c94f04aa" x="276.446093" y="181.527794" style="fill: #123524; fill-opacity: 0.75; stroke: #123524; stroke-opacity: 0.75"/>
     <use xlink:href="#mc2c94f04aa" x="279.739821" y="283.681091" style="fill: #123524; fill-opacity: 0.75; stroke: #123524; stroke-opacity: 0.75"/>
     <use xlink:href="#mc2c94f04aa" x="277.52634" y="70.445018" style="fill: #123524; fill-opacity: 0.75; stroke: #123524; stroke-opacity: 0.75"/>
     <use xlink:href="#mc2c94f04aa" x="278.877352" y="138.690611" style="fill: #123524; fill-opacity: 0.75; stroke: #123524; stroke-opacity: 0.75"/>
     <use xlink:href="#mc2c94f04aa" x="279.135331" y="95.281959" style="fill: #123524; fill-opacity: 0.75; stroke: #123524; stroke-opacity: 0.75"/>
     <use xlink:href="#mc2c94f04aa" x="277.649131" y="283.681091" style="fill: #123524; fill-opacity: 0.75; stroke: #123524; stroke-opacity: 0.75"/>
     <use xlink:href="#mc2c94f04aa" x="278.408359" y="120.34705" style="fill: #123524; fill-opacity: 0.75; stroke: #123524; stroke-opacity: 0.75"/>
     <use xlink:href="#mc2c94f04aa" x="278.516142" y="136.717002" style="fill: #123524; fill-opacity: 0.75; stroke: #123524; stroke-opacity: 0.75"/>
     <use xlink:href="#mc2c94f04aa" x="278.016328" y="283.681091" style="fill: #123524; fill-opacity: 0.75; stroke: #123524; stroke-opacity: 0.75"/>
     <use xlink:href="#mc2c94f04aa" x="278.700831" y="124.931548" style="fill: #123524; fill-opacity: 0.75; stroke: #123524; stroke-opacity: 0.75"/>
     <use xlink:href="#mc2c94f04aa" x="279.413103" y="274.047831" style="fill: #123524; fill-opacity: 0.75; stroke: #123524; stroke-opacity: 0.75"/>
     <use xlink:href="#mc2c94f04aa" x="280.374225" y="241.200253" style="fill: #123524; fill-opacity: 0.75; stroke: #123524; stroke-opacity: 0.75"/>
     <use xlink:href="#mc2c94f04aa" x="278.338784" y="116.192888" style="fill: #123524; fill-opacity: 0.75; stroke: #123524; stroke-opacity: 0.75"/>
     <use xlink:href="#mc2c94f04aa" x="281.087972" y="136.906408" style="fill: #123524; fill-opacity: 0.75; stroke: #123524; stroke-opacity: 0.75"/>
     <use xlink:href="#mc2c94f04aa" x="280.761242" y="283.681091" style="fill: #123524; fill-opacity: 0.75; stroke: #123524; stroke-opacity: 0.75"/>
     <use xlink:href="#mc2c94f04aa" x="281.794761" y="283.681091" style="fill: #123524; fill-opacity: 0.75; stroke: #123524; stroke-opacity: 0.75"/>
    </g>
   </g>
   <g id="patch_3">
    <path d="M 84.999545 212.205884 
L 154.539805 212.205884 
L 154.539805 181.320847 
L 84.999545 181.320847 
L 84.999545 212.205884 
z
" clip-path="url(#pb2acc8c4eb)" style="fill: none; stroke: #a9a9a9; stroke-linejoin: miter"/>
   </g>
   <g id="patch_4">
    <path d="M 171.92487 199.054941 
L 241.46513 199.054941 
L 241.46513 154.012229 
L 171.92487 154.012229 
L 171.92487 199.054941 
z
" clip-path="url(#pb2acc8c4eb)" style="fill: none; stroke: #a9a9a9; stroke-linejoin: miter"/>
   </g>
   <g id="patch_5">
    <path d="M 258.850195 183.513238 
L 328.390455 183.513238 
L 328.390455 144.149867 
L 258.850195 144.149867 
L 258.850195 183.513238 
z
" clip-path="url(#pb2acc8c4eb)" style="fill: none; stroke: #a9a9a9; stroke-linejoin: miter"/>
   </g>
   <g id="matplotlib.axis_1">
    <g id="xtick_1">
     <g id="line2d_1">
      <defs>
       <path id="maa661d1ddb" d="M 0 0 
L 0 3.5 
" style="stroke: #000000; stroke-width: 0.8"/>
      </defs>
      <g>
       <use xlink:href="#maa661d1ddb" x="119.769675" y="296.264" style="stroke: #000000; stroke-width: 0.8"/>
      </g>
     </g>
     <g id="text_1">
      <!-- No -->
      <g transform="translate(108.265144 316.176187) scale(0.18 -0.18)">
       <defs>
        <path id="Helvetica-4e" d="M 488 4591 
L 1222 4591 
L 3541 872 
L 3541 4591 
L 4131 4591 
L 4131 0 
L 3434 0 
L 1081 3716 
L 1081 0 
L 488 0 
L 488 4591 
z
M 2269 4591 
L 2269 4591 
z
" transform="scale(0.015625)"/>
        <path id="Helvetica-6f" d="M 1741 363 
Q 2300 363 2508 786 
Q 2716 1209 2716 1728 
Q 2716 2197 2566 2491 
Q 2328 2953 1747 2953 
Q 1231 2953 997 2559 
Q 763 2166 763 1609 
Q 763 1075 997 719 
Q 1231 363 1741 363 
z
M 1763 3444 
Q 2409 3444 2856 3012 
Q 3303 2581 3303 1744 
Q 3303 934 2909 406 
Q 2516 -122 1688 -122 
Q 997 -122 590 345 
Q 184 813 184 1600 
Q 184 2444 612 2944 
Q 1041 3444 1763 3444 
z
M 1744 3428 
L 1744 3428 
z
" transform="scale(0.015625)"/>
       </defs>
       <use xlink:href="#Helvetica-4e"/>
       <use xlink:href="#Helvetica-6f" x="72.216797"/>
      </g>
      <!-- Pain -->
      <g transform="translate(101.757019 335.422687) scale(0.18 -0.18)">
       <defs>
        <path id="Helvetica-50" d="M 547 4591 
L 2613 4591 
Q 3225 4591 3600 4245 
Q 3975 3900 3975 3275 
Q 3975 2738 3640 2339 
Q 3306 1941 2613 1941 
L 1169 1941 
L 1169 0 
L 547 0 
L 547 4591 
z
M 3347 3272 
Q 3347 3778 2972 3959 
Q 2766 4056 2406 4056 
L 1169 4056 
L 1169 2466 
L 2406 2466 
Q 2825 2466 3086 2644 
Q 3347 2822 3347 3272 
z
" transform="scale(0.015625)"/>
        <path id="Helvetica-61" d="M 844 891 
Q 844 647 1022 506 
Q 1200 366 1444 366 
Q 1741 366 2019 503 
Q 2488 731 2488 1250 
L 2488 1703 
Q 2384 1638 2221 1594 
Q 2059 1550 1903 1531 
L 1563 1488 
Q 1256 1447 1103 1359 
Q 844 1213 844 891 
z
M 2206 2028 
Q 2400 2053 2466 2191 
Q 2503 2266 2503 2406 
Q 2503 2694 2298 2823 
Q 2094 2953 1713 2953 
Q 1272 2953 1088 2716 
Q 984 2584 953 2325 
L 428 2325 
Q 444 2944 830 3186 
Q 1216 3428 1725 3428 
Q 2316 3428 2684 3203 
Q 3050 2978 3050 2503 
L 3050 575 
Q 3050 488 3086 434 
Q 3122 381 3238 381 
Q 3275 381 3322 386 
Q 3369 391 3422 400 
L 3422 -16 
Q 3291 -53 3222 -62 
Q 3153 -72 3034 -72 
Q 2744 -72 2613 134 
Q 2544 244 2516 444 
Q 2344 219 2022 53 
Q 1700 -113 1313 -113 
Q 847 -113 551 170 
Q 256 453 256 878 
Q 256 1344 547 1600 
Q 838 1856 1309 1916 
L 2206 2028 
z
M 1741 3428 
L 1741 3428 
z
" transform="scale(0.015625)"/>
        <path id="Helvetica-69" d="M 413 3331 
L 984 3331 
L 984 0 
L 413 0 
L 413 3331 
z
M 413 4591 
L 984 4591 
L 984 3953 
L 413 3953 
L 413 4591 
z
" transform="scale(0.015625)"/>
        <path id="Helvetica-6e" d="M 413 3347 
L 947 3347 
L 947 2872 
Q 1184 3166 1450 3294 
Q 1716 3422 2041 3422 
Q 2753 3422 3003 2925 
Q 3141 2653 3141 2147 
L 3141 0 
L 2569 0 
L 2569 2109 
Q 2569 2416 2478 2603 
Q 2328 2916 1934 2916 
Q 1734 2916 1606 2875 
Q 1375 2806 1200 2600 
Q 1059 2434 1017 2257 
Q 975 2081 975 1753 
L 975 0 
L 413 0 
L 413 3347 
z
M 1734 3428 
L 1734 3428 
z
" transform="scale(0.015625)"/>
       </defs>
       <use xlink:href="#Helvetica-50"/>
       <use xlink:href="#Helvetica-61" x="66.699219"/>
       <use xlink:href="#Helvetica-69" x="122.314453"/>
       <use xlink:href="#Helvetica-6e" x="144.53125"/>
      </g>
     </g>
    </g>
    <g id="xtick_2">
     <g id="line2d_2">
      <g>
       <use xlink:href="#maa661d1ddb" x="206.695" y="296.264" style="stroke: #000000; stroke-width: 0.8"/>
      </g>
     </g>
     <g id="text_2">
      <!-- Acute -->
      <g transform="translate(183.681719 316.176187) scale(0.18 -0.18)">
       <defs>
        <path id="Helvetica-41" d="M 2844 1881 
L 2147 3909 
L 1406 1881 
L 2844 1881 
z
M 1822 4591 
L 2525 4591 
L 4191 0 
L 3509 0 
L 3044 1375 
L 1228 1375 
L 731 0 
L 94 0 
L 1822 4591 
z
M 2144 4591 
L 2144 4591 
z
" transform="scale(0.015625)"/>
        <path id="Helvetica-63" d="M 1703 3444 
Q 2269 3444 2623 3169 
Q 2978 2894 3050 2222 
L 2503 2222 
Q 2453 2531 2275 2736 
Q 2097 2941 1703 2941 
Q 1166 2941 934 2416 
Q 784 2075 784 1575 
Q 784 1072 996 728 
Q 1209 384 1666 384 
Q 2016 384 2220 598 
Q 2425 813 2503 1184 
L 3050 1184 
Q 2956 519 2581 211 
Q 2206 -97 1622 -97 
Q 966 -97 575 383 
Q 184 863 184 1581 
Q 184 2463 612 2953 
Q 1041 3444 1703 3444 
z
M 1616 3428 
L 1616 3428 
z
" transform="scale(0.015625)"/>
        <path id="Helvetica-75" d="M 975 3347 
L 975 1125 
Q 975 869 1056 706 
Q 1206 406 1616 406 
Q 2203 406 2416 931 
Q 2531 1213 2531 1703 
L 2531 3347 
L 3094 3347 
L 3094 0 
L 2563 0 
L 2569 494 
Q 2459 303 2297 172 
Q 1975 -91 1516 -91 
Q 800 -91 541 388 
Q 400 644 400 1072 
L 400 3347 
L 975 3347 
z
M 1747 3428 
L 1747 3428 
z
" transform="scale(0.015625)"/>
        <path id="Helvetica-74" d="M 525 4281 
L 1094 4281 
L 1094 3347 
L 1628 3347 
L 1628 2888 
L 1094 2888 
L 1094 703 
Q 1094 528 1213 469 
Q 1278 434 1431 434 
Q 1472 434 1519 436 
Q 1566 438 1628 444 
L 1628 0 
Q 1531 -28 1426 -40 
Q 1322 -53 1200 -53 
Q 806 -53 665 148 
Q 525 350 525 672 
L 525 2888 
L 72 2888 
L 72 3347 
L 525 3347 
L 525 4281 
z
" transform="scale(0.015625)"/>
        <path id="Helvetica-65" d="M 1806 3422 
Q 2163 3422 2497 3255 
Q 2831 3088 3006 2822 
Q 3175 2569 3231 2231 
Q 3281 2000 3281 1494 
L 828 1494 
Q 844 984 1069 676 
Q 1294 369 1766 369 
Q 2206 369 2469 659 
Q 2619 828 2681 1050 
L 3234 1050 
Q 3213 866 3089 639 
Q 2966 413 2813 269 
Q 2556 19 2178 -69 
Q 1975 -119 1719 -119 
Q 1094 -119 659 336 
Q 225 791 225 1609 
Q 225 2416 662 2919 
Q 1100 3422 1806 3422 
z
M 2703 1941 
Q 2669 2306 2544 2525 
Q 2313 2931 1772 2931 
Q 1384 2931 1121 2651 
Q 859 2372 844 1941 
L 2703 1941 
z
M 1753 3428 
L 1753 3428 
z
" transform="scale(0.015625)"/>
       </defs>
       <use xlink:href="#Helvetica-41"/>
       <use xlink:href="#Helvetica-63" x="66.699219"/>
       <use xlink:href="#Helvetica-75" x="116.699219"/>
       <use xlink:href="#Helvetica-74" x="172.314453"/>
       <use xlink:href="#Helvetica-65" x="200.097656"/>
      </g>
      <!-- Pain -->
      <g transform="translate(188.682344 335.422687) scale(0.18 -0.18)">
       <use xlink:href="#Helvetica-50"/>
       <use xlink:href="#Helvetica-61" x="66.699219"/>
       <use xlink:href="#Helvetica-69" x="122.314453"/>
       <use xlink:href="#Helvetica-6e" x="144.53125"/>
      </g>
     </g>
    </g>
    <g id="xtick_3">
     <g id="line2d_3">
      <g>
       <use xlink:href="#maa661d1ddb" x="293.620325" y="296.264" style="stroke: #000000; stroke-width: 0.8"/>
      </g>
     </g>
     <g id="text_3">
      <!-- Chronic -->
      <g transform="translate(262.6097 316.176187) scale(0.18 -0.18)">
       <defs>
        <path id="Helvetica-43" d="M 2422 4716 
Q 3294 4716 3775 4256 
Q 4256 3797 4309 3213 
L 3703 3213 
Q 3600 3656 3292 3915 
Q 2984 4175 2428 4175 
Q 1750 4175 1333 3698 
Q 916 3222 916 2238 
Q 916 1431 1292 929 
Q 1669 428 2416 428 
Q 3103 428 3463 956 
Q 3653 1234 3747 1688 
L 4353 1688 
Q 4272 963 3816 472 
Q 3269 -119 2341 -119 
Q 1541 -119 997 366 
Q 281 1006 281 2344 
Q 281 3359 819 4009 
Q 1400 4716 2422 4716 
z
M 2297 4716 
L 2297 4716 
z
" transform="scale(0.015625)"/>
        <path id="Helvetica-68" d="M 413 4606 
L 975 4606 
L 975 2894 
Q 1175 3147 1334 3250 
Q 1606 3428 2013 3428 
Q 2741 3428 3000 2919 
Q 3141 2641 3141 2147 
L 3141 0 
L 2563 0 
L 2563 2109 
Q 2563 2478 2469 2650 
Q 2316 2925 1894 2925 
Q 1544 2925 1259 2684 
Q 975 2444 975 1775 
L 975 0 
L 413 0 
L 413 4606 
z
" transform="scale(0.015625)"/>
        <path id="Helvetica-72" d="M 428 3347 
L 963 3347 
L 963 2769 
Q 1028 2938 1284 3180 
Q 1541 3422 1875 3422 
Q 1891 3422 1928 3419 
Q 1966 3416 2056 3406 
L 2056 2813 
Q 2006 2822 1964 2825 
Q 1922 2828 1872 2828 
Q 1447 2828 1219 2554 
Q 991 2281 991 1925 
L 991 0 
L 428 0 
L 428 3347 
z
" transform="scale(0.015625)"/>
       </defs>
       <use xlink:href="#Helvetica-43"/>
       <use xlink:href="#Helvetica-68" x="72.216797"/>
       <use xlink:href="#Helvetica-72" x="127.832031"/>
       <use xlink:href="#Helvetica-6f" x="161.132812"/>
       <use xlink:href="#Helvetica-6e" x="216.748047"/>
       <use xlink:href="#Helvetica-69" x="272.363281"/>
       <use xlink:href="#Helvetica-63" x="294.580078"/>
      </g>
      <!-- Pain -->
      <g transform="translate(275.607668 335.422687) scale(0.18 -0.18)">
       <use xlink:href="#Helvetica-50"/>
       <use xlink:href="#Helvetica-61" x="66.699219"/>
       <use xlink:href="#Helvetica-69" x="122.314453"/>
       <use xlink:href="#Helvetica-6e" x="144.53125"/>
      </g>
     </g>
    </g>
   </g>
   <g id="matplotlib.axis_2">
    <g id="ytick_1">
     <g id="line2d_4">
      <defs>
       <path id="mfba1fc0111" d="M 0 0 
L -3.5 0 
" style="stroke: #000000; stroke-width: 0.8"/>
      </defs>
      <g>
       <use xlink:href="#mfba1fc0111" x="72.83" y="283.681091" style="stroke: #000000; stroke-width: 0.8"/>
      </g>
     </g>
     <g id="text_4">
      <!-- 0.0 -->
      <g transform="translate(40.81 290.137185) scale(0.18 -0.18)">
       <defs>
        <path id="Helvetica-30" d="M 1731 4475 
Q 2600 4475 2988 3759 
Q 3288 3206 3288 2244 
Q 3288 1331 3016 734 
Q 2622 -122 1728 -122 
Q 922 -122 528 578 
Q 200 1163 200 2147 
Q 200 2909 397 3456 
Q 766 4475 1731 4475 
z
M 1725 391 
Q 2163 391 2422 778 
Q 2681 1166 2681 2222 
Q 2681 2984 2493 3476 
Q 2306 3969 1766 3969 
Q 1269 3969 1039 3501 
Q 809 3034 809 2125 
Q 809 1441 956 1025 
Q 1181 391 1725 391 
z
" transform="scale(0.015625)"/>
        <path id="Helvetica-2e" d="M 547 681 
L 1200 681 
L 1200 0 
L 547 0 
L 547 681 
z
" transform="scale(0.015625)"/>
       </defs>
       <use xlink:href="#Helvetica-30"/>
       <use xlink:href="#Helvetica-2e" x="55.615234"/>
       <use xlink:href="#Helvetica-30" x="83.398438"/>
      </g>
     </g>
    </g>
    <g id="ytick_2">
     <g id="line2d_5">
      <g>
       <use xlink:href="#mfba1fc0111" x="72.83" y="233.349455" style="stroke: #000000; stroke-width: 0.8"/>
      </g>
     </g>
     <g id="text_5">
      <!-- 0.2 -->
      <g transform="translate(40.81 239.805548) scale(0.18 -0.18)">
       <defs>
        <path id="Helvetica-32" d="M 200 0 
Q 231 578 439 1006 
Q 647 1434 1250 1784 
L 1850 2131 
Q 2253 2366 2416 2531 
Q 2672 2791 2672 3125 
Q 2672 3516 2437 3745 
Q 2203 3975 1813 3975 
Q 1234 3975 1013 3538 
Q 894 3303 881 2888 
L 309 2888 
Q 319 3472 525 3841 
Q 891 4491 1816 4491 
Q 2584 4491 2939 4075 
Q 3294 3659 3294 3150 
Q 3294 2613 2916 2231 
Q 2697 2009 2131 1694 
L 1703 1456 
Q 1397 1288 1222 1134 
Q 909 863 828 531 
L 3272 531 
L 3272 0 
L 200 0 
z
" transform="scale(0.015625)"/>
       </defs>
       <use xlink:href="#Helvetica-30"/>
       <use xlink:href="#Helvetica-2e" x="55.615234"/>
       <use xlink:href="#Helvetica-32" x="83.398438"/>
      </g>
     </g>
    </g>
    <g id="ytick_3">
     <g id="line2d_6">
      <g>
       <use xlink:href="#mfba1fc0111" x="72.83" y="183.017818" style="stroke: #000000; stroke-width: 0.8"/>
      </g>
     </g>
     <g id="text_6">
      <!-- 0.4 -->
      <g transform="translate(40.81 189.473912) scale(0.18 -0.18)">
       <defs>
        <path id="Helvetica-34" d="M 2116 1584 
L 2116 3613 
L 681 1584 
L 2116 1584 
z
M 2125 0 
L 2125 1094 
L 163 1094 
L 163 1644 
L 2213 4488 
L 2688 4488 
L 2688 1584 
L 3347 1584 
L 3347 1094 
L 2688 1094 
L 2688 0 
L 2125 0 
z
" transform="scale(0.015625)"/>
       </defs>
       <use xlink:href="#Helvetica-30"/>
       <use xlink:href="#Helvetica-2e" x="55.615234"/>
       <use xlink:href="#Helvetica-34" x="83.398438"/>
      </g>
     </g>
    </g>
    <g id="ytick_4">
     <g id="line2d_7">
      <g>
       <use xlink:href="#mfba1fc0111" x="72.83" y="132.686182" style="stroke: #000000; stroke-width: 0.8"/>
      </g>
     </g>
     <g id="text_7">
      <!-- 0.6 -->
      <g transform="translate(40.81 139.142276) scale(0.18 -0.18)">
       <defs>
        <path id="Helvetica-36" d="M 1872 4494 
Q 2622 4494 2917 4105 
Q 3213 3716 3213 3303 
L 2656 3303 
Q 2606 3569 2497 3719 
Q 2294 4000 1881 4000 
Q 1409 4000 1131 3564 
Q 853 3128 822 2316 
Q 1016 2600 1309 2741 
Q 1578 2866 1909 2866 
Q 2472 2866 2890 2506 
Q 3309 2147 3309 1434 
Q 3309 825 2912 354 
Q 2516 -116 1781 -116 
Q 1153 -116 697 361 
Q 241 838 241 1966 
Q 241 2800 444 3381 
Q 834 4494 1872 4494 
z
M 1831 384 
Q 2275 384 2495 682 
Q 2716 981 2716 1388 
Q 2716 1731 2519 2042 
Q 2322 2353 1803 2353 
Q 1441 2353 1167 2112 
Q 894 1872 894 1388 
Q 894 963 1142 673 
Q 1391 384 1831 384 
z
" transform="scale(0.015625)"/>
       </defs>
       <use xlink:href="#Helvetica-30"/>
       <use xlink:href="#Helvetica-2e" x="55.615234"/>
       <use xlink:href="#Helvetica-36" x="83.398438"/>
      </g>
     </g>
    </g>
    <g id="ytick_5">
     <g id="line2d_8">
      <g>
       <use xlink:href="#mfba1fc0111" x="72.83" y="82.354545" style="stroke: #000000; stroke-width: 0.8"/>
      </g>
     </g>
     <g id="text_8">
      <!-- 0.8 -->
      <g transform="translate(40.81 88.810639) scale(0.18 -0.18)">
       <defs>
        <path id="Helvetica-38" d="M 1741 2600 
Q 2113 2600 2322 2808 
Q 2531 3016 2531 3303 
Q 2531 3553 2331 3762 
Q 2131 3972 1722 3972 
Q 1316 3972 1134 3762 
Q 953 3553 953 3272 
Q 953 2956 1187 2778 
Q 1422 2600 1741 2600 
z
M 1775 384 
Q 2166 384 2423 595 
Q 2681 806 2681 1225 
Q 2681 1659 2415 1884 
Q 2150 2109 1734 2109 
Q 1331 2109 1076 1879 
Q 822 1650 822 1244 
Q 822 894 1055 639 
Q 1288 384 1775 384 
z
M 975 2384 
Q 741 2484 609 2619 
Q 363 2869 363 3269 
Q 363 3769 725 4128 
Q 1088 4488 1753 4488 
Q 2397 4488 2762 4148 
Q 3128 3809 3128 3356 
Q 3128 2938 2916 2678 
Q 2797 2531 2547 2391 
Q 2825 2263 2984 2097 
Q 3281 1784 3281 1284 
Q 3281 694 2884 283 
Q 2488 -128 1763 -128 
Q 1109 -128 657 226 
Q 206 581 206 1256 
Q 206 1653 400 1942 
Q 594 2231 975 2384 
z
" transform="scale(0.015625)"/>
       </defs>
       <use xlink:href="#Helvetica-30"/>
       <use xlink:href="#Helvetica-2e" x="55.615234"/>
       <use xlink:href="#Helvetica-38" x="83.398438"/>
      </g>
     </g>
    </g>
    <g id="ytick_6">
     <g id="line2d_9">
      <g>
       <use xlink:href="#mfba1fc0111" x="72.83" y="32.022909" style="stroke: #000000; stroke-width: 0.8"/>
      </g>
     </g>
     <g id="text_9">
      <!-- 1.0 -->
      <g transform="translate(40.81 38.479003) scale(0.18 -0.18)">
       <defs>
        <path id="Helvetica-31" d="M 613 3169 
L 613 3600 
Q 1222 3659 1462 3798 
Q 1703 3938 1822 4456 
L 2266 4456 
L 2266 0 
L 1666 0 
L 1666 3169 
L 613 3169 
z
" transform="scale(0.015625)"/>
       </defs>
       <use xlink:href="#Helvetica-31"/>
       <use xlink:href="#Helvetica-2e" x="55.615234"/>
       <use xlink:href="#Helvetica-30" x="83.398438"/>
      </g>
     </g>
    </g>
    <g id="text_10">
     <!-- Weighting Factor -->
     <g transform="translate(32.8275 225.875125) rotate(-90) scale(0.18 -0.18)">
      <defs>
       <path id="Helvetica-57" d="M 791 4591 
L 1656 856 
L 2694 4591 
L 3369 4591 
L 4406 856 
L 5272 4591 
L 5953 4591 
L 4747 0 
L 4094 0 
L 3034 3806 
L 1969 0 
L 1316 0 
L 116 4591 
L 791 4591 
z
" transform="scale(0.015625)"/>
       <path id="Helvetica-67" d="M 1594 3406 
Q 1988 3406 2281 3213 
Q 2441 3103 2606 2894 
L 2606 3316 
L 3125 3316 
L 3125 272 
Q 3125 -366 2938 -734 
Q 2588 -1416 1616 -1416 
Q 1075 -1416 706 -1173 
Q 338 -931 294 -416 
L 866 -416 
Q 906 -641 1028 -763 
Q 1219 -950 1628 -950 
Q 2275 -950 2475 -494 
Q 2594 -225 2584 466 
Q 2416 209 2178 84 
Q 1941 -41 1550 -41 
Q 1006 -41 598 345 
Q 191 731 191 1622 
Q 191 2463 602 2934 
Q 1013 3406 1594 3406 
z
M 2606 1688 
Q 2606 2309 2350 2609 
Q 2094 2909 1697 2909 
Q 1103 2909 884 2353 
Q 769 2056 769 1575 
Q 769 1009 998 714 
Q 1228 419 1616 419 
Q 2222 419 2469 966 
Q 2606 1275 2606 1688 
z
M 1659 3428 
L 1659 3428 
z
" transform="scale(0.015625)"/>
       <path id="Helvetica-20" transform="scale(0.015625)"/>
       <path id="Helvetica-46" d="M 547 4591 
L 3731 4591 
L 3731 4028 
L 1169 4028 
L 1169 2634 
L 3422 2634 
L 3422 2088 
L 1169 2088 
L 1169 0 
L 547 0 
L 547 4591 
z
" transform="scale(0.015625)"/>
      </defs>
      <use xlink:href="#Helvetica-57"/>
      <use xlink:href="#Helvetica-65" x="94.384766"/>
      <use xlink:href="#Helvetica-69" x="150"/>
      <use xlink:href="#Helvetica-67" x="172.216797"/>
      <use xlink:href="#Helvetica-68" x="227.832031"/>
      <use xlink:href="#Helvetica-74" x="283.447266"/>
      <use xlink:href="#Helvetica-69" x="311.230469"/>
      <use xlink:href="#Helvetica-6e" x="333.447266"/>
      <use xlink:href="#Helvetica-67" x="389.0625"/>
      <use xlink:href="#Helvetica-20" x="444.677734"/>
      <use xlink:href="#Helvetica-46" x="472.460938"/>
      <use xlink:href="#Helvetica-61" x="533.544922"/>
      <use xlink:href="#Helvetica-63" x="589.160156"/>
      <use xlink:href="#Helvetica-74" x="639.160156"/>
      <use xlink:href="#Helvetica-6f" x="666.943359"/>
      <use xlink:href="#Helvetica-72" x="722.558594"/>
     </g>
    </g>
   </g>
   <g id="LineCollection_1">
    <path d="M 84.999545 196.763365 
L 154.539805 196.763365 
" clip-path="url(#pb2acc8c4eb)" style="fill: none; stroke: #a9a9a9; stroke-width: 1.5"/>
   </g>
   <g id="LineCollection_2">
    <path d="M 171.92487 176.533585 
L 241.46513 176.533585 
" clip-path="url(#pb2acc8c4eb)" style="fill: none; stroke: #a9a9a9; stroke-width: 1.5"/>
   </g>
   <g id="LineCollection_3">
    <path d="M 258.850195 163.831553 
L 328.390455 163.831553 
" clip-path="url(#pb2acc8c4eb)" style="fill: none; stroke: #a9a9a9; stroke-width: 1.5"/>
   </g>
   <g id="patch_6">
    <path d="M 72.83 296.264 
L 72.83 19.44 
" style="fill: none; stroke: #000000; stroke-width: 0.8; stroke-linejoin: miter; stroke-linecap: square"/>
   </g>
   <g id="patch_7">
    <path d="M 72.83 296.264 
L 340.56 296.264 
" style="fill: none; stroke: #000000; stroke-width: 0.8; stroke-linejoin: miter; stroke-linecap: square"/>
   </g>
  </g>
 </g>
 <defs>
  <clipPath id="pb2acc8c4eb">
   <rect x="72.83" y="19.44" width="267.73" height="276.824"/>
  </clipPath>
 </defs>
</svg>
