<?xml version="1.0" encoding="utf-8" standalone="no"?>
<!DOCTYPE svg PUBLIC "-//W3C//DTD SVG 1.1//EN"
  "http://www.w3.org/Graphics/SVG/1.1/DTD/svg11.dtd">
<svg xmlns:xlink="http://www.w3.org/1999/xlink" width="360pt" height="360pt" viewBox="0 0 360 360" xmlns="http://www.w3.org/2000/svg" version="1.1">
 <metadata>
  <rdf:RDF xmlns:dc="http://purl.org/dc/elements/1.1/" xmlns:cc="http://creativecommons.org/ns#" xmlns:rdf="http://www.w3.org/1999/02/22-rdf-syntax-ns#">
   <cc:Work>
    <dc:type rdf:resource="http://purl.org/dc/dcmitype/StillImage"/>
    <dc:date>2025-06-12T20:43:25.882675</dc:date>
    <dc:format>image/svg+xml</dc:format>
    <dc:creator>
     <cc:Agent>
      <dc:title>Matplotlib v3.9.2, https://matplotlib.org/</dc:title>
     </cc:Agent>
    </dc:creator>
   </cc:Work>
  </rdf:RDF>
 </metadata>
 <defs>
  <style type="text/css">*{stroke-linejoin: round; stroke-linecap: butt}</style>
 </defs>
 <g id="figure_1">
  <g id="patch_1">
   <path d="M 0 360 
L 360 360 
L 360 0 
L 0 0 
z
" style="fill: #ffffff"/>
  </g>
  <g id="axes_1">
   <g id="patch_2">
    <path d="M 68.24 296.264 
L 340.56 296.264 
L 340.56 19.44 
L 68.24 19.44 
z
" style="fill: #ffffff"/>
   </g>
   <g id="PolyCollection_1">
    <defs>
     <path id="m95ef94944f" d="M 116.94141 -85.208177 
L 116.032169 -85.208177 
L 116.032169 -87.660389 
L 116.032169 -90.1126 
L 116.032169 -92.564811 
L 116.032169 -95.017022 
L 116.032169 -97.469234 
L 116.032169 -99.921445 
L 116.032169 -102.373656 
L 116.032169 -104.825867 
L 116.032169 -107.278079 
L 116.032169 -109.73029 
L 116.032169 -112.182501 
L 116.032169 -114.634712 
L 116.032169 -117.086924 
L 116.032169 -119.539135 
L 116.032169 -121.991346 
L 116.032169 -124.443557 
L 116.032169 -126.895769 
L 116.032169 -129.34798 
L 116.032169 -131.800191 
L 116.032169 -134.252402 
L 116.032169 -136.704614 
L 116.032169 -139.156825 
L 116.032169 -141.609036 
L 116.032169 -144.061247 
L 116.032169 -146.513459 
L 116.032169 -148.96567 
L 116.032169 -151.417881 
L 116.032169 -153.870092 
L 116.032169 -156.322303 
L 116.032169 -158.774515 
L 116.032169 -161.226726 
L 116.032169 -163.678937 
L 116.032169 -166.131148 
L 116.032169 -168.58336 
L 116.032169 -171.035571 
L 116.032169 -173.487782 
L 116.032169 -175.939993 
L 116.032169 -178.392205 
L 116.032169 -180.844416 
L 116.032169 -183.296627 
L 116.032169 -185.748838 
L 116.032169 -188.20105 
L 116.032169 -190.653261 
L 116.032169 -193.105472 
L 116.032169 -195.557683 
L 116.032169 -198.009895 
L 116.032169 -200.462106 
L 116.032169 -202.914317 
L 116.032169 -205.366528 
L 116.032169 -207.81874 
L 116.032169 -210.270951 
L 116.032169 -212.723162 
L 116.032169 -215.175373 
L 116.032169 -217.627585 
L 116.032169 -220.079796 
L 116.032169 -222.532007 
L 116.032169 -224.984218 
L 116.032169 -227.43643 
L 116.032169 -229.888641 
L 116.032169 -232.340852 
L 116.032169 -234.793063 
L 116.032169 -237.245275 
L 116.032169 -239.697486 
L 116.032169 -242.149697 
L 116.032169 -244.601908 
L 116.032169 -247.05412 
L 116.032169 -249.506331 
L 116.032169 -251.958542 
L 116.032169 -254.410753 
L 116.032169 -256.862965 
L 116.032169 -259.315176 
L 116.032169 -261.767387 
L 116.032169 -264.219598 
L 116.032169 -266.67181 
L 116.032169 -269.124021 
L 116.032169 -271.576232 
L 116.032169 -274.028443 
L 116.032169 -276.480655 
L 116.032169 -278.932866 
L 116.032169 -281.385077 
L 116.032169 -283.837288 
L 116.032169 -286.2895 
L 116.032169 -288.741711 
L 116.032169 -291.193922 
L 116.032169 -293.646133 
L 116.032169 -296.098345 
L 116.032169 -298.550556 
L 116.032169 -301.002767 
L 116.032169 -303.454978 
L 116.032169 -305.90719 
L 116.032169 -308.359401 
L 116.032169 -310.811612 
L 116.032169 -313.263823 
L 116.032169 -315.716035 
L 116.032169 -318.168246 
L 116.032169 -320.620457 
L 116.032169 -323.072668 
L 116.032169 -325.52488 
L 116.032169 -327.977091 
L 123.76437 -327.977091 
L 123.76437 -327.977091 
L 124.28256 -325.52488 
L 124.797963 -323.072668 
L 125.31457 -320.620457 
L 125.837563 -318.168246 
L 126.372813 -315.716035 
L 126.926289 -313.263823 
L 127.503411 -310.811612 
L 128.108439 -308.359401 
L 128.743908 -305.90719 
L 129.410203 -303.454978 
L 130.105271 -301.002767 
L 130.824537 -298.550556 
L 131.560999 -296.098345 
L 132.305512 -293.646133 
L 133.047241 -291.193922 
L 133.774233 -288.741711 
L 134.474076 -286.2895 
L 135.134584 -283.837288 
L 135.744459 -281.385077 
L 136.293887 -278.932866 
L 136.775016 -276.480655 
L 137.182296 -274.028443 
L 137.512662 -271.576232 
L 137.765565 -269.124021 
L 137.942847 -266.67181 
L 138.048496 -264.219598 
L 138.088312 -261.767387 
L 138.069497 -259.315176 
L 138.000233 -256.862965 
L 137.889251 -254.410753 
L 137.74543 -251.958542 
L 137.577438 -249.506331 
L 137.393425 -247.05412 
L 137.200774 -244.601908 
L 137.005892 -242.149697 
L 136.814061 -239.697486 
L 136.629319 -237.245275 
L 136.454377 -234.793063 
L 136.290575 -232.340852 
L 136.137861 -229.888641 
L 135.994824 -227.43643 
L 135.858764 -224.984218 
L 135.725816 -222.532007 
L 135.591135 -220.079796 
L 135.449141 -217.627585 
L 135.293812 -215.175373 
L 135.119025 -212.723162 
L 134.91891 -210.270951 
L 134.688213 -207.81874 
L 134.422625 -205.366528 
L 134.119052 -202.914317 
L 133.775813 -200.462106 
L 133.392731 -198.009895 
L 132.971126 -195.557683 
L 132.513694 -193.105472 
L 132.024297 -190.653261 
L 131.507676 -188.20105 
L 130.969123 -185.748838 
L 130.41413 -183.296627 
L 129.848062 -180.844416 
L 129.275881 -178.392205 
L 128.701922 -175.939993 
L 128.129775 -173.487782 
L 127.562234 -171.035571 
L 127.001343 -168.58336 
L 126.448504 -166.131148 
L 125.904638 -163.678937 
L 125.370368 -161.226726 
L 124.846209 -158.774515 
L 124.332729 -156.322303 
L 123.83068 -153.870092 
L 123.341065 -151.417881 
L 122.865161 -148.96567 
L 122.404478 -146.513459 
L 121.960679 -144.061247 
L 121.535466 -141.609036 
L 121.130448 -139.156825 
L 120.747018 -136.704614 
L 120.386248 -134.252402 
L 120.048804 -131.800191 
L 119.734916 -129.34798 
L 119.44437 -126.895769 
L 119.176552 -124.443557 
L 118.930508 -121.991346 
L 118.705029 -119.539135 
L 118.498736 -117.086924 
L 118.310165 -114.634712 
L 118.137835 -112.182501 
L 117.980296 -109.73029 
L 117.836156 -107.278079 
L 117.704092 -104.825867 
L 117.582846 -102.373656 
L 117.471214 -99.921445 
L 117.368032 -97.469234 
L 117.272176 -95.017022 
L 117.182563 -92.564811 
L 117.098172 -90.1126 
L 117.018062 -87.660389 
L 116.94141 -85.208177 
z
" style="stroke: #b2df8a; stroke-opacity: 0.3"/>
    </defs>
    <g clip-path="url(#p3420ec08ec)">
     <use xlink:href="#m95ef94944f" x="0" y="360" style="fill: #b2df8a; fill-opacity: 0.3; stroke: #b2df8a; stroke-opacity: 0.3"/>
    </g>
   </g>
   <g id="PolyCollection_2">
    <defs>
     <path id="m3a7e89fbe9" d="M 205.750875 -76.318909 
L 204.460434 -76.318909 
L 204.460434 -78.860911 
L 204.460434 -81.402913 
L 204.460434 -83.944915 
L 204.460434 -86.486916 
L 204.460434 -89.028918 
L 204.460434 -91.57092 
L 204.460434 -94.112922 
L 204.460434 -96.654924 
L 204.460434 -99.196926 
L 204.460434 -101.738927 
L 204.460434 -104.280929 
L 204.460434 -106.822931 
L 204.460434 -109.364933 
L 204.460434 -111.906935 
L 204.460434 -114.448937 
L 204.460434 -116.990938 
L 204.460434 -119.53294 
L 204.460434 -122.074942 
L 204.460434 -124.616944 
L 204.460434 -127.158946 
L 204.460434 -129.700948 
L 204.460434 -132.242949 
L 204.460434 -134.784951 
L 204.460434 -137.326953 
L 204.460434 -139.868955 
L 204.460434 -142.410957 
L 204.460434 -144.952959 
L 204.460434 -147.494961 
L 204.460434 -150.036962 
L 204.460434 -152.578964 
L 204.460434 -155.120966 
L 204.460434 -157.662968 
L 204.460434 -160.20497 
L 204.460434 -162.746972 
L 204.460434 -165.288973 
L 204.460434 -167.830975 
L 204.460434 -170.372977 
L 204.460434 -172.914979 
L 204.460434 -175.456981 
L 204.460434 -177.998983 
L 204.460434 -180.540984 
L 204.460434 -183.082986 
L 204.460434 -185.624988 
L 204.460434 -188.16699 
L 204.460434 -190.708992 
L 204.460434 -193.250994 
L 204.460434 -195.792995 
L 204.460434 -198.334997 
L 204.460434 -200.876999 
L 204.460434 -203.419001 
L 204.460434 -205.961003 
L 204.460434 -208.503005 
L 204.460434 -211.045006 
L 204.460434 -213.587008 
L 204.460434 -216.12901 
L 204.460434 -218.671012 
L 204.460434 -221.213014 
L 204.460434 -223.755016 
L 204.460434 -226.297017 
L 204.460434 -228.839019 
L 204.460434 -231.381021 
L 204.460434 -233.923023 
L 204.460434 -236.465025 
L 204.460434 -239.007027 
L 204.460434 -241.549028 
L 204.460434 -244.09103 
L 204.460434 -246.633032 
L 204.460434 -249.175034 
L 204.460434 -251.717036 
L 204.460434 -254.259038 
L 204.460434 -256.801039 
L 204.460434 -259.343041 
L 204.460434 -261.885043 
L 204.460434 -264.427045 
L 204.460434 -266.969047 
L 204.460434 -269.511049 
L 204.460434 -272.053051 
L 204.460434 -274.595052 
L 204.460434 -277.137054 
L 204.460434 -279.679056 
L 204.460434 -282.221058 
L 204.460434 -284.76306 
L 204.460434 -287.305062 
L 204.460434 -289.847063 
L 204.460434 -292.389065 
L 204.460434 -294.931067 
L 204.460434 -297.473069 
L 204.460434 -300.015071 
L 204.460434 -302.557073 
L 204.460434 -305.099074 
L 204.460434 -307.641076 
L 204.460434 -310.183078 
L 204.460434 -312.72508 
L 204.460434 -315.267082 
L 204.460434 -317.809084 
L 204.460434 -320.351085 
L 204.460434 -322.893087 
L 204.460434 -325.435089 
L 204.460434 -327.977091 
L 213.966269 -327.977091 
L 213.966269 -327.977091 
L 214.690756 -325.435089 
L 215.410547 -322.893087 
L 216.12048 -320.351085 
L 216.815936 -317.809084 
L 217.492979 -315.267082 
L 218.148466 -312.72508 
L 218.780124 -310.183078 
L 219.386578 -307.641076 
L 219.967338 -305.099074 
L 220.522735 -302.557073 
L 221.053795 -300.015071 
L 221.562078 -297.473069 
L 222.049462 -294.931067 
L 222.5179 -292.389065 
L 222.969144 -289.847063 
L 223.404473 -287.305062 
L 223.824431 -284.76306 
L 224.228586 -282.221058 
L 224.615354 -279.679056 
L 224.981884 -277.137054 
L 225.324024 -274.595052 
L 225.636388 -272.053051 
L 225.912513 -269.511049 
L 226.14511 -266.969047 
L 226.326397 -264.427045 
L 226.448502 -261.885043 
L 226.503896 -259.343041 
L 226.485852 -256.801039 
L 226.388875 -254.259038 
L 226.209093 -251.717036 
L 225.944572 -249.175034 
L 225.595529 -246.633032 
L 225.164441 -244.09103 
L 224.656022 -241.549028 
L 224.077082 -239.007027 
L 223.43628 -236.465025 
L 222.743771 -233.923023 
L 222.010784 -231.381021 
L 221.249156 -228.839019 
L 220.470844 -226.297017 
L 219.687462 -223.755016 
L 218.909842 -221.213014 
L 218.147678 -218.671012 
L 217.409239 -216.12901 
L 216.701184 -213.587008 
L 216.028468 -211.045006 
L 215.394355 -208.503005 
L 214.800501 -205.961003 
L 214.247127 -203.419001 
L 213.733235 -200.876999 
L 213.256865 -198.334997 
L 212.815367 -195.792995 
L 212.405662 -193.250994 
L 212.024494 -190.708992 
L 211.668636 -188.16699 
L 211.335058 -185.624988 
L 211.021045 -183.082986 
L 210.724266 -180.540984 
L 210.4428 -177.998983 
L 210.175118 -175.456981 
L 209.920042 -172.914979 
L 209.676679 -170.372977 
L 209.444347 -167.830975 
L 209.222509 -165.288973 
L 209.010706 -162.746972 
L 208.808507 -160.20497 
L 208.615486 -157.662968 
L 208.431201 -155.120966 
L 208.255205 -152.578964 
L 208.087062 -150.036962 
L 207.926369 -147.494961 
L 207.772788 -144.952959 
L 207.62607 -142.410957 
L 207.486068 -139.868955 
L 207.352749 -137.326953 
L 207.22618 -134.784951 
L 207.106517 -132.242949 
L 206.993966 -129.700948 
L 206.888751 -127.158946 
L 206.791066 -124.616944 
L 206.701032 -122.074942 
L 206.618656 -119.53294 
L 206.543804 -116.990938 
L 206.476168 -114.448937 
L 206.415265 -111.906935 
L 206.360434 -109.364933 
L 206.310848 -106.822931 
L 206.265542 -104.280929 
L 206.223446 -101.738927 
L 206.183423 -99.196926 
L 206.144313 -96.654924 
L 206.104978 -94.112922 
L 206.064348 -91.57092 
L 206.021458 -89.028918 
L 205.975489 -86.486916 
L 205.925793 -83.944915 
L 205.871918 -81.402913 
L 205.813621 -78.860911 
L 205.750875 -76.318909 
z
" style="stroke: #ffd92f; stroke-opacity: 0.3"/>
    </defs>
    <g clip-path="url(#p3420ec08ec)">
     <use xlink:href="#m3a7e89fbe9" x="0" y="360" style="fill: #ffd92f; fill-opacity: 0.3; stroke: #ffd92f; stroke-opacity: 0.3"/>
    </g>
   </g>
   <g id="PolyCollection_3">
    <defs>
     <path id="mb0b058329c" d="M 295.433735 -136.018626 
L 292.908639 -136.018626 
L 292.908639 -137.957601 
L 292.908639 -139.896575 
L 292.908639 -141.83555 
L 292.908639 -143.774524 
L 292.908639 -145.713498 
L 292.908639 -147.652473 
L 292.908639 -149.591447 
L 292.908639 -151.530422 
L 292.908639 -153.469396 
L 292.908639 -155.40837 
L 292.908639 -157.347345 
L 292.908639 -159.286319 
L 292.908639 -161.225294 
L 292.908639 -163.164268 
L 292.908639 -165.103242 
L 292.908639 -167.042217 
L 292.908639 -168.981191 
L 292.908639 -170.920165 
L 292.908639 -172.85914 
L 292.908639 -174.798114 
L 292.908639 -176.737089 
L 292.908639 -178.676063 
L 292.908639 -180.615037 
L 292.908639 -182.554012 
L 292.908639 -184.492986 
L 292.908639 -186.431961 
L 292.908639 -188.370935 
L 292.908639 -190.309909 
L 292.908639 -192.248884 
L 292.908639 -194.187858 
L 292.908639 -196.126832 
L 292.908639 -198.065807 
L 292.908639 -200.004781 
L 292.908639 -201.943756 
L 292.908639 -203.88273 
L 292.908639 -205.821704 
L 292.908639 -207.760679 
L 292.908639 -209.699653 
L 292.908639 -211.638628 
L 292.908639 -213.577602 
L 292.908639 -215.516576 
L 292.908639 -217.455551 
L 292.908639 -219.394525 
L 292.908639 -221.3335 
L 292.908639 -223.272474 
L 292.908639 -225.211448 
L 292.908639 -227.150423 
L 292.908639 -229.089397 
L 292.908639 -231.028371 
L 292.908639 -232.967346 
L 292.908639 -234.90632 
L 292.908639 -236.845295 
L 292.908639 -238.784269 
L 292.908639 -240.723243 
L 292.908639 -242.662218 
L 292.908639 -244.601192 
L 292.908639 -246.540167 
L 292.908639 -248.479141 
L 292.908639 -250.418115 
L 292.908639 -252.35709 
L 292.908639 -254.296064 
L 292.908639 -256.235039 
L 292.908639 -258.174013 
L 292.908639 -260.112987 
L 292.908639 -262.051962 
L 292.908639 -263.990936 
L 292.908639 -265.92991 
L 292.908639 -267.868885 
L 292.908639 -269.807859 
L 292.908639 -271.746834 
L 292.908639 -273.685808 
L 292.908639 -275.624782 
L 292.908639 -277.563757 
L 292.908639 -279.502731 
L 292.908639 -281.441706 
L 292.908639 -283.38068 
L 292.908639 -285.319654 
L 292.908639 -287.258629 
L 292.908639 -289.197603 
L 292.908639 -291.136578 
L 292.908639 -293.075552 
L 292.908639 -295.014526 
L 292.908639 -296.953501 
L 292.908639 -298.892475 
L 292.908639 -300.831449 
L 292.908639 -302.770424 
L 292.908639 -304.709398 
L 292.908639 -306.648373 
L 292.908639 -308.587347 
L 292.908639 -310.526321 
L 292.908639 -312.465296 
L 292.908639 -314.40427 
L 292.908639 -316.343245 
L 292.908639 -318.282219 
L 292.908639 -320.221193 
L 292.908639 -322.160168 
L 292.908639 -324.099142 
L 292.908639 -326.038117 
L 292.908639 -327.977091 
L 306.469327 -327.977091 
L 306.469327 -327.977091 
L 307.203701 -326.038117 
L 307.904965 -324.099142 
L 308.569136 -322.160168 
L 309.193179 -320.221193 
L 309.774981 -318.282219 
L 310.313296 -316.343245 
L 310.807656 -314.40427 
L 311.258255 -312.465296 
L 311.665831 -310.526321 
L 312.03154 -308.587347 
L 312.356849 -306.648373 
L 312.643439 -304.709398 
L 312.893135 -302.770424 
L 313.107866 -300.831449 
L 313.289642 -298.892475 
L 313.440568 -296.953501 
L 313.562862 -295.014526 
L 313.6589 -293.075552 
L 313.731248 -291.136578 
L 313.782706 -289.197603 
L 313.816323 -287.258629 
L 313.835406 -285.319654 
L 313.843496 -283.38068 
L 313.844317 -281.441706 
L 313.841697 -279.502731 
L 313.839463 -277.563757 
L 313.841309 -275.624782 
L 313.850651 -273.685808 
L 313.870467 -271.746834 
L 313.903138 -269.807859 
L 313.9503 -267.868885 
L 314.012709 -265.92991 
L 314.090133 -263.990936 
L 314.18128 -262.051962 
L 314.283766 -260.112987 
L 314.39413 -258.174013 
L 314.507893 -256.235039 
L 314.619669 -254.296064 
L 314.72332 -252.35709 
L 314.812153 -250.418115 
L 314.87915 -248.479141 
L 314.917223 -246.540167 
L 314.919481 -244.601192 
L 314.879504 -242.662218 
L 314.7916 -240.723243 
L 314.651042 -238.784269 
L 314.454264 -236.845295 
L 314.199021 -234.90632 
L 313.884485 -232.967346 
L 313.51129 -231.028371 
L 313.081509 -229.089397 
L 312.59858 -227.150423 
L 312.067168 -225.211448 
L 311.492987 -223.272474 
L 310.882581 -221.3335 
L 310.243083 -219.394525 
L 309.581956 -217.455551 
L 308.906747 -215.516576 
L 308.224844 -213.577602 
L 307.543261 -211.638628 
L 306.86846 -209.699653 
L 306.206214 -207.760679 
L 305.561502 -205.821704 
L 304.938463 -203.88273 
L 304.34038 -201.943756 
L 303.769705 -200.004781 
L 303.228113 -198.065807 
L 302.716579 -196.126832 
L 302.235468 -194.187858 
L 301.784633 -192.248884 
L 301.363511 -190.309909 
L 300.971214 -188.370935 
L 300.606604 -186.431961 
L 300.268361 -184.492986 
L 299.955028 -182.554012 
L 299.665046 -180.615037 
L 299.396772 -178.676063 
L 299.148495 -176.737089 
L 298.918434 -174.798114 
L 298.704739 -172.85914 
L 298.505496 -170.920165 
L 298.318731 -168.981191 
L 298.142421 -167.042217 
L 297.974519 -165.103242 
L 297.81298 -163.164268 
L 297.655799 -161.225294 
L 297.501056 -159.286319 
L 297.346966 -157.347345 
L 297.19192 -155.40837 
L 297.034543 -153.469396 
L 296.873723 -151.530422 
L 296.708654 -149.591447 
L 296.53885 -147.652473 
L 296.364158 -145.713498 
L 296.184754 -143.774524 
L 296.001124 -141.83555 
L 295.814037 -139.896575 
L 295.624506 -137.957601 
L 295.433735 -136.018626 
z
" style="stroke: #fb9a99; stroke-opacity: 0.3"/>
    </defs>
    <g clip-path="url(#p3420ec08ec)">
     <use xlink:href="#mb0b058329c" x="0" y="360" style="fill: #fb9a99; fill-opacity: 0.3; stroke: #fb9a99; stroke-opacity: 0.3"/>
    </g>
   </g>
   <g id="PathCollection_1">
    <defs>
     <path id="m56c5a5d9e2" d="M 0 1.581139 
C 0.419323 1.581139 0.821528 1.41454 1.118034 1.118034 
C 1.41454 0.821528 1.581139 0.419323 1.581139 0 
C 1.581139 -0.419323 1.41454 -0.821528 1.118034 -1.118034 
C 0.821528 -1.41454 0.419323 -1.581139 0 -1.581139 
C -0.419323 -1.581139 -0.821528 -1.41454 -1.118034 -1.118034 
C -1.41454 -0.821528 -1.581139 -0.419323 -1.581139 0 
C -1.581139 0.419323 -1.41454 0.821528 -1.118034 1.118034 
C -0.821528 1.41454 -0.419323 1.581139 0 1.581139 
z
" style="stroke: #b2df8a; stroke-opacity: 0.75"/>
    </defs>
    <g clip-path="url(#p3420ec08ec)">
     <use xlink:href="#m56c5a5d9e2" x="101.367681" y="81.455912" style="fill: #b2df8a; fill-opacity: 0.75; stroke: #b2df8a; stroke-opacity: 0.75"/>
     <use xlink:href="#m56c5a5d9e2" x="99.553396" y="240.254404" style="fill: #b2df8a; fill-opacity: 0.75; stroke: #b2df8a; stroke-opacity: 0.75"/>
     <use xlink:href="#m56c5a5d9e2" x="98.803061" y="137.506133" style="fill: #b2df8a; fill-opacity: 0.75; stroke: #b2df8a; stroke-opacity: 0.75"/>
     <use xlink:href="#m56c5a5d9e2" x="100.34779" y="135.651352" style="fill: #b2df8a; fill-opacity: 0.75; stroke: #b2df8a; stroke-opacity: 0.75"/>
     <use xlink:href="#m56c5a5d9e2" x="100.265196" y="86.244382" style="fill: #b2df8a; fill-opacity: 0.75; stroke: #b2df8a; stroke-opacity: 0.75"/>
     <use xlink:href="#m56c5a5d9e2" x="97.865283" y="58.744396" style="fill: #b2df8a; fill-opacity: 0.75; stroke: #b2df8a; stroke-opacity: 0.75"/>
     <use xlink:href="#m56c5a5d9e2" x="99.642321" y="127.944044" style="fill: #b2df8a; fill-opacity: 0.75; stroke: #b2df8a; stroke-opacity: 0.75"/>
     <use xlink:href="#m56c5a5d9e2" x="103.945484" y="80.538021" style="fill: #b2df8a; fill-opacity: 0.75; stroke: #b2df8a; stroke-opacity: 0.75"/>
     <use xlink:href="#m56c5a5d9e2" x="100.146008" y="109.05555" style="fill: #b2df8a; fill-opacity: 0.75; stroke: #b2df8a; stroke-opacity: 0.75"/>
     <use xlink:href="#m56c5a5d9e2" x="99.123455" y="160.207341" style="fill: #b2df8a; fill-opacity: 0.75; stroke: #b2df8a; stroke-opacity: 0.75"/>
     <use xlink:href="#m56c5a5d9e2" x="100.417855" y="111.489426" style="fill: #b2df8a; fill-opacity: 0.75; stroke: #b2df8a; stroke-opacity: 0.75"/>
     <use xlink:href="#m56c5a5d9e2" x="100.862165" y="74.120734" style="fill: #b2df8a; fill-opacity: 0.75; stroke: #b2df8a; stroke-opacity: 0.75"/>
     <use xlink:href="#m56c5a5d9e2" x="104.160822" y="114.568791" style="fill: #b2df8a; fill-opacity: 0.75; stroke: #b2df8a; stroke-opacity: 0.75"/>
     <use xlink:href="#m56c5a5d9e2" x="99.841143" y="184.090779" style="fill: #b2df8a; fill-opacity: 0.75; stroke: #b2df8a; stroke-opacity: 0.75"/>
     <use xlink:href="#m56c5a5d9e2" x="96.342922" y="96.264729" style="fill: #b2df8a; fill-opacity: 0.75; stroke: #b2df8a; stroke-opacity: 0.75"/>
     <use xlink:href="#m56c5a5d9e2" x="102.657702" y="79.17634" style="fill: #b2df8a; fill-opacity: 0.75; stroke: #b2df8a; stroke-opacity: 0.75"/>
     <use xlink:href="#m56c5a5d9e2" x="101.551576" y="104.623588" style="fill: #b2df8a; fill-opacity: 0.75; stroke: #b2df8a; stroke-opacity: 0.75"/>
     <use xlink:href="#m56c5a5d9e2" x="99.514298" y="104.755253" style="fill: #b2df8a; fill-opacity: 0.75; stroke: #b2df8a; stroke-opacity: 0.75"/>
     <use xlink:href="#m56c5a5d9e2" x="100.607827" y="144.891229" style="fill: #b2df8a; fill-opacity: 0.75; stroke: #b2df8a; stroke-opacity: 0.75"/>
     <use xlink:href="#m56c5a5d9e2" x="97.544853" y="166.046672" style="fill: #b2df8a; fill-opacity: 0.75; stroke: #b2df8a; stroke-opacity: 0.75"/>
     <use xlink:href="#m56c5a5d9e2" x="100.383587" y="202.380712" style="fill: #b2df8a; fill-opacity: 0.75; stroke: #b2df8a; stroke-opacity: 0.75"/>
     <use xlink:href="#m56c5a5d9e2" x="101.973929" y="94.279071" style="fill: #b2df8a; fill-opacity: 0.75; stroke: #b2df8a; stroke-opacity: 0.75"/>
     <use xlink:href="#m56c5a5d9e2" x="104.048434" y="73.585743" style="fill: #b2df8a; fill-opacity: 0.75; stroke: #b2df8a; stroke-opacity: 0.75"/>
     <use xlink:href="#m56c5a5d9e2" x="101.284089" y="96.012193" style="fill: #b2df8a; fill-opacity: 0.75; stroke: #b2df8a; stroke-opacity: 0.75"/>
     <use xlink:href="#m56c5a5d9e2" x="102.176192" y="120.651961" style="fill: #b2df8a; fill-opacity: 0.75; stroke: #b2df8a; stroke-opacity: 0.75"/>
     <use xlink:href="#m56c5a5d9e2" x="96.621898" y="132.69802" style="fill: #b2df8a; fill-opacity: 0.75; stroke: #b2df8a; stroke-opacity: 0.75"/>
     <use xlink:href="#m56c5a5d9e2" x="101.43091" y="46.010451" style="fill: #b2df8a; fill-opacity: 0.75; stroke: #b2df8a; stroke-opacity: 0.75"/>
     <use xlink:href="#m56c5a5d9e2" x="100.895135" y="164.68845" style="fill: #b2df8a; fill-opacity: 0.75; stroke: #b2df8a; stroke-opacity: 0.75"/>
     <use xlink:href="#m56c5a5d9e2" x="101.591296" y="213.90083" style="fill: #b2df8a; fill-opacity: 0.75; stroke: #b2df8a; stroke-opacity: 0.75"/>
     <use xlink:href="#m56c5a5d9e2" x="101.374522" y="89.648782" style="fill: #b2df8a; fill-opacity: 0.75; stroke: #b2df8a; stroke-opacity: 0.75"/>
     <use xlink:href="#m56c5a5d9e2" x="100.433176" y="109.46087" style="fill: #b2df8a; fill-opacity: 0.75; stroke: #b2df8a; stroke-opacity: 0.75"/>
     <use xlink:href="#m56c5a5d9e2" x="100.306529" y="32.022909" style="fill: #b2df8a; fill-opacity: 0.75; stroke: #b2df8a; stroke-opacity: 0.75"/>
     <use xlink:href="#m56c5a5d9e2" x="102.800488" y="179.189422" style="fill: #b2df8a; fill-opacity: 0.75; stroke: #b2df8a; stroke-opacity: 0.75"/>
     <use xlink:href="#m56c5a5d9e2" x="102.07205" y="159.146359" style="fill: #b2df8a; fill-opacity: 0.75; stroke: #b2df8a; stroke-opacity: 0.75"/>
     <use xlink:href="#m56c5a5d9e2" x="101.254942" y="181.726209" style="fill: #b2df8a; fill-opacity: 0.75; stroke: #b2df8a; stroke-opacity: 0.75"/>
     <use xlink:href="#m56c5a5d9e2" x="99.80901" y="137.07628" style="fill: #b2df8a; fill-opacity: 0.75; stroke: #b2df8a; stroke-opacity: 0.75"/>
     <use xlink:href="#m56c5a5d9e2" x="99.134148" y="113.983999" style="fill: #b2df8a; fill-opacity: 0.75; stroke: #b2df8a; stroke-opacity: 0.75"/>
     <use xlink:href="#m56c5a5d9e2" x="99.442335" y="72.588065" style="fill: #b2df8a; fill-opacity: 0.75; stroke: #b2df8a; stroke-opacity: 0.75"/>
     <use xlink:href="#m56c5a5d9e2" x="102.414052" y="163.575833" style="fill: #b2df8a; fill-opacity: 0.75; stroke: #b2df8a; stroke-opacity: 0.75"/>
     <use xlink:href="#m56c5a5d9e2" x="100.491786" y="121.318548" style="fill: #b2df8a; fill-opacity: 0.75; stroke: #b2df8a; stroke-opacity: 0.75"/>
     <use xlink:href="#m56c5a5d9e2" x="99.820113" y="72.831025" style="fill: #b2df8a; fill-opacity: 0.75; stroke: #b2df8a; stroke-opacity: 0.75"/>
     <use xlink:href="#m56c5a5d9e2" x="101.083802" y="243.267022" style="fill: #b2df8a; fill-opacity: 0.75; stroke: #b2df8a; stroke-opacity: 0.75"/>
     <use xlink:href="#m56c5a5d9e2" x="100.34805" y="77.327763" style="fill: #b2df8a; fill-opacity: 0.75; stroke: #b2df8a; stroke-opacity: 0.75"/>
     <use xlink:href="#m56c5a5d9e2" x="98.917052" y="99.715754" style="fill: #b2df8a; fill-opacity: 0.75; stroke: #b2df8a; stroke-opacity: 0.75"/>
     <use xlink:href="#m56c5a5d9e2" x="95.686749" y="87.559367" style="fill: #b2df8a; fill-opacity: 0.75; stroke: #b2df8a; stroke-opacity: 0.75"/>
     <use xlink:href="#m56c5a5d9e2" x="102.341532" y="84.044108" style="fill: #b2df8a; fill-opacity: 0.75; stroke: #b2df8a; stroke-opacity: 0.75"/>
     <use xlink:href="#m56c5a5d9e2" x="99.768148" y="153.753835" style="fill: #b2df8a; fill-opacity: 0.75; stroke: #b2df8a; stroke-opacity: 0.75"/>
     <use xlink:href="#m56c5a5d9e2" x="100.69335" y="79.376331" style="fill: #b2df8a; fill-opacity: 0.75; stroke: #b2df8a; stroke-opacity: 0.75"/>
     <use xlink:href="#m56c5a5d9e2" x="100.815523" y="32.022909" style="fill: #b2df8a; fill-opacity: 0.75; stroke: #b2df8a; stroke-opacity: 0.75"/>
     <use xlink:href="#m56c5a5d9e2" x="101.089422" y="167.405675" style="fill: #b2df8a; fill-opacity: 0.75; stroke: #b2df8a; stroke-opacity: 0.75"/>
     <use xlink:href="#m56c5a5d9e2" x="100.247018" y="32.022909" style="fill: #b2df8a; fill-opacity: 0.75; stroke: #b2df8a; stroke-opacity: 0.75"/>
     <use xlink:href="#m56c5a5d9e2" x="99.774313" y="69.041193" style="fill: #b2df8a; fill-opacity: 0.75; stroke: #b2df8a; stroke-opacity: 0.75"/>
     <use xlink:href="#m56c5a5d9e2" x="98.147417" y="181.245358" style="fill: #b2df8a; fill-opacity: 0.75; stroke: #b2df8a; stroke-opacity: 0.75"/>
     <use xlink:href="#m56c5a5d9e2" x="100.148855" y="125.633536" style="fill: #b2df8a; fill-opacity: 0.75; stroke: #b2df8a; stroke-opacity: 0.75"/>
     <use xlink:href="#m56c5a5d9e2" x="98.73295" y="79.028513" style="fill: #b2df8a; fill-opacity: 0.75; stroke: #b2df8a; stroke-opacity: 0.75"/>
     <use xlink:href="#m56c5a5d9e2" x="99.669541" y="176.586513" style="fill: #b2df8a; fill-opacity: 0.75; stroke: #b2df8a; stroke-opacity: 0.75"/>
     <use xlink:href="#m56c5a5d9e2" x="100.809565" y="114.785352" style="fill: #b2df8a; fill-opacity: 0.75; stroke: #b2df8a; stroke-opacity: 0.75"/>
     <use xlink:href="#m56c5a5d9e2" x="96.733673" y="130.951096" style="fill: #b2df8a; fill-opacity: 0.75; stroke: #b2df8a; stroke-opacity: 0.75"/>
     <use xlink:href="#m56c5a5d9e2" x="98.558153" y="165.918805" style="fill: #b2df8a; fill-opacity: 0.75; stroke: #b2df8a; stroke-opacity: 0.75"/>
     <use xlink:href="#m56c5a5d9e2" x="101.448012" y="194.596257" style="fill: #b2df8a; fill-opacity: 0.75; stroke: #b2df8a; stroke-opacity: 0.75"/>
     <use xlink:href="#m56c5a5d9e2" x="99.017693" y="173.562199" style="fill: #b2df8a; fill-opacity: 0.75; stroke: #b2df8a; stroke-opacity: 0.75"/>
     <use xlink:href="#m56c5a5d9e2" x="96.924202" y="153.867256" style="fill: #b2df8a; fill-opacity: 0.75; stroke: #b2df8a; stroke-opacity: 0.75"/>
     <use xlink:href="#m56c5a5d9e2" x="102.350822" y="157.322808" style="fill: #b2df8a; fill-opacity: 0.75; stroke: #b2df8a; stroke-opacity: 0.75"/>
     <use xlink:href="#m56c5a5d9e2" x="98.418595" y="107.978673" style="fill: #b2df8a; fill-opacity: 0.75; stroke: #b2df8a; stroke-opacity: 0.75"/>
     <use xlink:href="#m56c5a5d9e2" x="98.653325" y="128.673603" style="fill: #b2df8a; fill-opacity: 0.75; stroke: #b2df8a; stroke-opacity: 0.75"/>
     <use xlink:href="#m56c5a5d9e2" x="104.299822" y="32.022909" style="fill: #b2df8a; fill-opacity: 0.75; stroke: #b2df8a; stroke-opacity: 0.75"/>
     <use xlink:href="#m56c5a5d9e2" x="99.431673" y="147.055285" style="fill: #b2df8a; fill-opacity: 0.75; stroke: #b2df8a; stroke-opacity: 0.75"/>
     <use xlink:href="#m56c5a5d9e2" x="99.542063" y="55.383548" style="fill: #b2df8a; fill-opacity: 0.75; stroke: #b2df8a; stroke-opacity: 0.75"/>
     <use xlink:href="#m56c5a5d9e2" x="103.753113" y="183.703257" style="fill: #b2df8a; fill-opacity: 0.75; stroke: #b2df8a; stroke-opacity: 0.75"/>
     <use xlink:href="#m56c5a5d9e2" x="100.129479" y="149.439003" style="fill: #b2df8a; fill-opacity: 0.75; stroke: #b2df8a; stroke-opacity: 0.75"/>
     <use xlink:href="#m56c5a5d9e2" x="99.114959" y="134.227551" style="fill: #b2df8a; fill-opacity: 0.75; stroke: #b2df8a; stroke-opacity: 0.75"/>
     <use xlink:href="#m56c5a5d9e2" x="97.700329" y="221.269745" style="fill: #b2df8a; fill-opacity: 0.75; stroke: #b2df8a; stroke-opacity: 0.75"/>
     <use xlink:href="#m56c5a5d9e2" x="102.025003" y="96.966283" style="fill: #b2df8a; fill-opacity: 0.75; stroke: #b2df8a; stroke-opacity: 0.75"/>
     <use xlink:href="#m56c5a5d9e2" x="98.235781" y="112.695149" style="fill: #b2df8a; fill-opacity: 0.75; stroke: #b2df8a; stroke-opacity: 0.75"/>
     <use xlink:href="#m56c5a5d9e2" x="99.916567" y="32.022909" style="fill: #b2df8a; fill-opacity: 0.75; stroke: #b2df8a; stroke-opacity: 0.75"/>
     <use xlink:href="#m56c5a5d9e2" x="96.875996" y="152.255285" style="fill: #b2df8a; fill-opacity: 0.75; stroke: #b2df8a; stroke-opacity: 0.75"/>
     <use xlink:href="#m56c5a5d9e2" x="100.737924" y="129.990077" style="fill: #b2df8a; fill-opacity: 0.75; stroke: #b2df8a; stroke-opacity: 0.75"/>
     <use xlink:href="#m56c5a5d9e2" x="98.115658" y="96.109319" style="fill: #b2df8a; fill-opacity: 0.75; stroke: #b2df8a; stroke-opacity: 0.75"/>
     <use xlink:href="#m56c5a5d9e2" x="99.745761" y="32.022909" style="fill: #b2df8a; fill-opacity: 0.75; stroke: #b2df8a; stroke-opacity: 0.75"/>
     <use xlink:href="#m56c5a5d9e2" x="99.757908" y="196.054183" style="fill: #b2df8a; fill-opacity: 0.75; stroke: #b2df8a; stroke-opacity: 0.75"/>
     <use xlink:href="#m56c5a5d9e2" x="98.740382" y="112.4602" style="fill: #b2df8a; fill-opacity: 0.75; stroke: #b2df8a; stroke-opacity: 0.75"/>
     <use xlink:href="#m56c5a5d9e2" x="102.832243" y="206.21196" style="fill: #b2df8a; fill-opacity: 0.75; stroke: #b2df8a; stroke-opacity: 0.75"/>
     <use xlink:href="#m56c5a5d9e2" x="98.315067" y="155.822537" style="fill: #b2df8a; fill-opacity: 0.75; stroke: #b2df8a; stroke-opacity: 0.75"/>
     <use xlink:href="#m56c5a5d9e2" x="102.024122" y="145.822857" style="fill: #b2df8a; fill-opacity: 0.75; stroke: #b2df8a; stroke-opacity: 0.75"/>
     <use xlink:href="#m56c5a5d9e2" x="102.660839" y="150.933917" style="fill: #b2df8a; fill-opacity: 0.75; stroke: #b2df8a; stroke-opacity: 0.75"/>
     <use xlink:href="#m56c5a5d9e2" x="100.146613" y="194.005921" style="fill: #b2df8a; fill-opacity: 0.75; stroke: #b2df8a; stroke-opacity: 0.75"/>
     <use xlink:href="#m56c5a5d9e2" x="99.335449" y="55.596513" style="fill: #b2df8a; fill-opacity: 0.75; stroke: #b2df8a; stroke-opacity: 0.75"/>
     <use xlink:href="#m56c5a5d9e2" x="99.30645" y="97.625284" style="fill: #b2df8a; fill-opacity: 0.75; stroke: #b2df8a; stroke-opacity: 0.75"/>
     <use xlink:href="#m56c5a5d9e2" x="100.076636" y="111.362046" style="fill: #b2df8a; fill-opacity: 0.75; stroke: #b2df8a; stroke-opacity: 0.75"/>
     <use xlink:href="#m56c5a5d9e2" x="102.093548" y="60.335103" style="fill: #b2df8a; fill-opacity: 0.75; stroke: #b2df8a; stroke-opacity: 0.75"/>
     <use xlink:href="#m56c5a5d9e2" x="100.450101" y="160.384824" style="fill: #b2df8a; fill-opacity: 0.75; stroke: #b2df8a; stroke-opacity: 0.75"/>
     <use xlink:href="#m56c5a5d9e2" x="103.177887" y="162.234616" style="fill: #b2df8a; fill-opacity: 0.75; stroke: #b2df8a; stroke-opacity: 0.75"/>
     <use xlink:href="#m56c5a5d9e2" x="102.487224" y="79.880432" style="fill: #b2df8a; fill-opacity: 0.75; stroke: #b2df8a; stroke-opacity: 0.75"/>
     <use xlink:href="#m56c5a5d9e2" x="100.869822" y="150.515612" style="fill: #b2df8a; fill-opacity: 0.75; stroke: #b2df8a; stroke-opacity: 0.75"/>
     <use xlink:href="#m56c5a5d9e2" x="99.338666" y="32.022909" style="fill: #b2df8a; fill-opacity: 0.75; stroke: #b2df8a; stroke-opacity: 0.75"/>
     <use xlink:href="#m56c5a5d9e2" x="100.257365" y="32.022909" style="fill: #b2df8a; fill-opacity: 0.75; stroke: #b2df8a; stroke-opacity: 0.75"/>
     <use xlink:href="#m56c5a5d9e2" x="100.154406" y="200.682851" style="fill: #b2df8a; fill-opacity: 0.75; stroke: #b2df8a; stroke-opacity: 0.75"/>
     <use xlink:href="#m56c5a5d9e2" x="101.110424" y="92.425094" style="fill: #b2df8a; fill-opacity: 0.75; stroke: #b2df8a; stroke-opacity: 0.75"/>
     <use xlink:href="#m56c5a5d9e2" x="98.253198" y="51.704815" style="fill: #b2df8a; fill-opacity: 0.75; stroke: #b2df8a; stroke-opacity: 0.75"/>
     <use xlink:href="#m56c5a5d9e2" x="102.034775" y="89.243093" style="fill: #b2df8a; fill-opacity: 0.75; stroke: #b2df8a; stroke-opacity: 0.75"/>
     <use xlink:href="#m56c5a5d9e2" x="98.589025" y="79.735363" style="fill: #b2df8a; fill-opacity: 0.75; stroke: #b2df8a; stroke-opacity: 0.75"/>
     <use xlink:href="#m56c5a5d9e2" x="99.808513" y="134.147963" style="fill: #b2df8a; fill-opacity: 0.75; stroke: #b2df8a; stroke-opacity: 0.75"/>
     <use xlink:href="#m56c5a5d9e2" x="98.207588" y="63.09873" style="fill: #b2df8a; fill-opacity: 0.75; stroke: #b2df8a; stroke-opacity: 0.75"/>
     <use xlink:href="#m56c5a5d9e2" x="100.140721" y="208.423644" style="fill: #b2df8a; fill-opacity: 0.75; stroke: #b2df8a; stroke-opacity: 0.75"/>
     <use xlink:href="#m56c5a5d9e2" x="103.566866" y="89.768283" style="fill: #b2df8a; fill-opacity: 0.75; stroke: #b2df8a; stroke-opacity: 0.75"/>
     <use xlink:href="#m56c5a5d9e2" x="100.083766" y="274.791823" style="fill: #b2df8a; fill-opacity: 0.75; stroke: #b2df8a; stroke-opacity: 0.75"/>
     <use xlink:href="#m56c5a5d9e2" x="101.328951" y="86.52248" style="fill: #b2df8a; fill-opacity: 0.75; stroke: #b2df8a; stroke-opacity: 0.75"/>
     <use xlink:href="#m56c5a5d9e2" x="101.064557" y="123.771108" style="fill: #b2df8a; fill-opacity: 0.75; stroke: #b2df8a; stroke-opacity: 0.75"/>
    </g>
   </g>
   <g id="PathCollection_2">
    <defs>
     <path id="m61fb591494" d="M 0 1.581139 
C 0.419323 1.581139 0.821528 1.41454 1.118034 1.118034 
C 1.41454 0.821528 1.581139 0.419323 1.581139 0 
C 1.581139 -0.419323 1.41454 -0.821528 1.118034 -1.118034 
C 0.821528 -1.41454 0.419323 -1.581139 0 -1.581139 
C -0.419323 -1.581139 -0.821528 -1.41454 -1.118034 -1.118034 
C -1.41454 -0.821528 -1.581139 -0.419323 -1.581139 0 
C -1.581139 0.419323 -1.41454 0.821528 -1.118034 1.118034 
C -0.821528 1.41454 -0.419323 1.581139 0 1.581139 
z
" style="stroke: #ffd92f; stroke-opacity: 0.75"/>
    </defs>
    <g clip-path="url(#p3420ec08ec)">
     <use xlink:href="#m61fb591494" x="189.66834" y="63.031721" style="fill: #ffd92f; fill-opacity: 0.75; stroke: #ffd92f; stroke-opacity: 0.75"/>
     <use xlink:href="#m61fb591494" x="188.629856" y="104.683907" style="fill: #ffd92f; fill-opacity: 0.75; stroke: #ffd92f; stroke-opacity: 0.75"/>
     <use xlink:href="#m61fb591494" x="187.598107" y="52.939631" style="fill: #ffd92f; fill-opacity: 0.75; stroke: #ffd92f; stroke-opacity: 0.75"/>
     <use xlink:href="#m61fb591494" x="192.42296" y="179.350435" style="fill: #ffd92f; fill-opacity: 0.75; stroke: #ffd92f; stroke-opacity: 0.75"/>
     <use xlink:href="#m61fb591494" x="188.679629" y="172.418612" style="fill: #ffd92f; fill-opacity: 0.75; stroke: #ffd92f; stroke-opacity: 0.75"/>
     <use xlink:href="#m61fb591494" x="184.768997" y="163.15228" style="fill: #ffd92f; fill-opacity: 0.75; stroke: #ffd92f; stroke-opacity: 0.75"/>
     <use xlink:href="#m61fb591494" x="188.10861" y="54.524733" style="fill: #ffd92f; fill-opacity: 0.75; stroke: #ffd92f; stroke-opacity: 0.75"/>
     <use xlink:href="#m61fb591494" x="192.076706" y="114.014753" style="fill: #ffd92f; fill-opacity: 0.75; stroke: #ffd92f; stroke-opacity: 0.75"/>
     <use xlink:href="#m61fb591494" x="186.232614" y="135.356946" style="fill: #ffd92f; fill-opacity: 0.75; stroke: #ffd92f; stroke-opacity: 0.75"/>
     <use xlink:href="#m61fb591494" x="189.872155" y="157.580108" style="fill: #ffd92f; fill-opacity: 0.75; stroke: #ffd92f; stroke-opacity: 0.75"/>
     <use xlink:href="#m61fb591494" x="190.632961" y="37.329333" style="fill: #ffd92f; fill-opacity: 0.75; stroke: #ffd92f; stroke-opacity: 0.75"/>
     <use xlink:href="#m61fb591494" x="186.64732" y="115.978993" style="fill: #ffd92f; fill-opacity: 0.75; stroke: #ffd92f; stroke-opacity: 0.75"/>
     <use xlink:href="#m61fb591494" x="185.990871" y="109.697115" style="fill: #ffd92f; fill-opacity: 0.75; stroke: #ffd92f; stroke-opacity: 0.75"/>
     <use xlink:href="#m61fb591494" x="186.178545" y="85.486439" style="fill: #ffd92f; fill-opacity: 0.75; stroke: #ffd92f; stroke-opacity: 0.75"/>
     <use xlink:href="#m61fb591494" x="187.041282" y="74.26274" style="fill: #ffd92f; fill-opacity: 0.75; stroke: #ffd92f; stroke-opacity: 0.75"/>
     <use xlink:href="#m61fb591494" x="188.358943" y="109.593694" style="fill: #ffd92f; fill-opacity: 0.75; stroke: #ffd92f; stroke-opacity: 0.75"/>
     <use xlink:href="#m61fb591494" x="189.186062" y="32.022909" style="fill: #ffd92f; fill-opacity: 0.75; stroke: #ffd92f; stroke-opacity: 0.75"/>
     <use xlink:href="#m61fb591494" x="189.027236" y="66.9619" style="fill: #ffd92f; fill-opacity: 0.75; stroke: #ffd92f; stroke-opacity: 0.75"/>
     <use xlink:href="#m61fb591494" x="189.173851" y="94.560814" style="fill: #ffd92f; fill-opacity: 0.75; stroke: #ffd92f; stroke-opacity: 0.75"/>
     <use xlink:href="#m61fb591494" x="186.858306" y="119.340341" style="fill: #ffd92f; fill-opacity: 0.75; stroke: #ffd92f; stroke-opacity: 0.75"/>
     <use xlink:href="#m61fb591494" x="189.235314" y="114.824022" style="fill: #ffd92f; fill-opacity: 0.75; stroke: #ffd92f; stroke-opacity: 0.75"/>
     <use xlink:href="#m61fb591494" x="185.936632" y="76.781276" style="fill: #ffd92f; fill-opacity: 0.75; stroke: #ffd92f; stroke-opacity: 0.75"/>
     <use xlink:href="#m61fb591494" x="184.606647" y="100.847666" style="fill: #ffd92f; fill-opacity: 0.75; stroke: #ffd92f; stroke-opacity: 0.75"/>
     <use xlink:href="#m61fb591494" x="190.474474" y="132.33418" style="fill: #ffd92f; fill-opacity: 0.75; stroke: #ffd92f; stroke-opacity: 0.75"/>
     <use xlink:href="#m61fb591494" x="189.39692" y="254.628246" style="fill: #ffd92f; fill-opacity: 0.75; stroke: #ffd92f; stroke-opacity: 0.75"/>
     <use xlink:href="#m61fb591494" x="190.503833" y="79.252082" style="fill: #ffd92f; fill-opacity: 0.75; stroke: #ffd92f; stroke-opacity: 0.75"/>
     <use xlink:href="#m61fb591494" x="186.199663" y="95.276629" style="fill: #ffd92f; fill-opacity: 0.75; stroke: #ffd92f; stroke-opacity: 0.75"/>
     <use xlink:href="#m61fb591494" x="188.484262" y="110.801452" style="fill: #ffd92f; fill-opacity: 0.75; stroke: #ffd92f; stroke-opacity: 0.75"/>
     <use xlink:href="#m61fb591494" x="188.65474" y="144.57689" style="fill: #ffd92f; fill-opacity: 0.75; stroke: #ffd92f; stroke-opacity: 0.75"/>
     <use xlink:href="#m61fb591494" x="188.017295" y="106.596639" style="fill: #ffd92f; fill-opacity: 0.75; stroke: #ffd92f; stroke-opacity: 0.75"/>
     <use xlink:href="#m61fb591494" x="188.195079" y="106.858014" style="fill: #ffd92f; fill-opacity: 0.75; stroke: #ffd92f; stroke-opacity: 0.75"/>
     <use xlink:href="#m61fb591494" x="187.627214" y="92.76929" style="fill: #ffd92f; fill-opacity: 0.75; stroke: #ffd92f; stroke-opacity: 0.75"/>
     <use xlink:href="#m61fb591494" x="187.272437" y="283.681091" style="fill: #ffd92f; fill-opacity: 0.75; stroke: #ffd92f; stroke-opacity: 0.75"/>
     <use xlink:href="#m61fb591494" x="187.164957" y="121.844834" style="fill: #ffd92f; fill-opacity: 0.75; stroke: #ffd92f; stroke-opacity: 0.75"/>
     <use xlink:href="#m61fb591494" x="189.222748" y="94.812966" style="fill: #ffd92f; fill-opacity: 0.75; stroke: #ffd92f; stroke-opacity: 0.75"/>
     <use xlink:href="#m61fb591494" x="187.886797" y="54.738604" style="fill: #ffd92f; fill-opacity: 0.75; stroke: #ffd92f; stroke-opacity: 0.75"/>
     <use xlink:href="#m61fb591494" x="185.869249" y="217.774117" style="fill: #ffd92f; fill-opacity: 0.75; stroke: #ffd92f; stroke-opacity: 0.75"/>
     <use xlink:href="#m61fb591494" x="188.702696" y="75.933196" style="fill: #ffd92f; fill-opacity: 0.75; stroke: #ffd92f; stroke-opacity: 0.75"/>
     <use xlink:href="#m61fb591494" x="186.303513" y="52.376688" style="fill: #ffd92f; fill-opacity: 0.75; stroke: #ffd92f; stroke-opacity: 0.75"/>
     <use xlink:href="#m61fb591494" x="189.834918" y="100.750869" style="fill: #ffd92f; fill-opacity: 0.75; stroke: #ffd92f; stroke-opacity: 0.75"/>
     <use xlink:href="#m61fb591494" x="187.484318" y="191.887963" style="fill: #ffd92f; fill-opacity: 0.75; stroke: #ffd92f; stroke-opacity: 0.75"/>
     <use xlink:href="#m61fb591494" x="190.224354" y="113.058678" style="fill: #ffd92f; fill-opacity: 0.75; stroke: #ffd92f; stroke-opacity: 0.75"/>
     <use xlink:href="#m61fb591494" x="188.326368" y="133.376184" style="fill: #ffd92f; fill-opacity: 0.75; stroke: #ffd92f; stroke-opacity: 0.75"/>
     <use xlink:href="#m61fb591494" x="189.788902" y="41.593119" style="fill: #ffd92f; fill-opacity: 0.75; stroke: #ffd92f; stroke-opacity: 0.75"/>
     <use xlink:href="#m61fb591494" x="190.763591" y="214.487861" style="fill: #ffd92f; fill-opacity: 0.75; stroke: #ffd92f; stroke-opacity: 0.75"/>
     <use xlink:href="#m61fb591494" x="192.37167" y="32.022909" style="fill: #ffd92f; fill-opacity: 0.75; stroke: #ffd92f; stroke-opacity: 0.75"/>
     <use xlink:href="#m61fb591494" x="189.088656" y="164.876681" style="fill: #ffd92f; fill-opacity: 0.75; stroke: #ffd92f; stroke-opacity: 0.75"/>
     <use xlink:href="#m61fb591494" x="188.290709" y="63.600717" style="fill: #ffd92f; fill-opacity: 0.75; stroke: #ffd92f; stroke-opacity: 0.75"/>
     <use xlink:href="#m61fb591494" x="192.153494" y="59.83464" style="fill: #ffd92f; fill-opacity: 0.75; stroke: #ffd92f; stroke-opacity: 0.75"/>
     <use xlink:href="#m61fb591494" x="185.694367" y="32.022909" style="fill: #ffd92f; fill-opacity: 0.75; stroke: #ffd92f; stroke-opacity: 0.75"/>
     <use xlink:href="#m61fb591494" x="188.59249" y="123.100888" style="fill: #ffd92f; fill-opacity: 0.75; stroke: #ffd92f; stroke-opacity: 0.75"/>
     <use xlink:href="#m61fb591494" x="189.81124" y="68.04905" style="fill: #ffd92f; fill-opacity: 0.75; stroke: #ffd92f; stroke-opacity: 0.75"/>
     <use xlink:href="#m61fb591494" x="192.909669" y="116.109542" style="fill: #ffd92f; fill-opacity: 0.75; stroke: #ffd92f; stroke-opacity: 0.75"/>
    </g>
   </g>
   <g id="PathCollection_3">
    <defs>
     <path id="m73a70a759c" d="M 0 1.581139 
C 0.419323 1.581139 0.821528 1.41454 1.118034 1.118034 
C 1.41454 0.821528 1.581139 0.419323 1.581139 0 
C 1.581139 -0.419323 1.41454 -0.821528 1.118034 -1.118034 
C 0.821528 -1.41454 0.419323 -1.581139 0 -1.581139 
C -0.419323 -1.581139 -0.821528 -1.41454 -1.118034 -1.118034 
C -1.41454 -0.821528 -1.581139 -0.419323 -1.581139 0 
C -1.581139 0.419323 -1.41454 0.821528 -1.118034 1.118034 
C -0.821528 1.41454 -0.419323 1.581139 0 1.581139 
z
" style="stroke: #fb9a99; stroke-opacity: 0.75"/>
    </defs>
    <g clip-path="url(#p3420ec08ec)">
     <use xlink:href="#m73a70a759c" x="275.507735" y="70.280152" style="fill: #fb9a99; fill-opacity: 0.75; stroke: #fb9a99; stroke-opacity: 0.75"/>
     <use xlink:href="#m73a70a759c" x="279.540232" y="204.682107" style="fill: #fb9a99; fill-opacity: 0.75; stroke: #fb9a99; stroke-opacity: 0.75"/>
     <use xlink:href="#m73a70a759c" x="278.96414" y="223.981374" style="fill: #fb9a99; fill-opacity: 0.75; stroke: #fb9a99; stroke-opacity: 0.75"/>
     <use xlink:href="#m73a70a759c" x="276.633847" y="67.172558" style="fill: #fb9a99; fill-opacity: 0.75; stroke: #fb9a99; stroke-opacity: 0.75"/>
     <use xlink:href="#m73a70a759c" x="274.430273" y="32.022909" style="fill: #fb9a99; fill-opacity: 0.75; stroke: #fb9a99; stroke-opacity: 0.75"/>
     <use xlink:href="#m73a70a759c" x="280.273877" y="64.391219" style="fill: #fb9a99; fill-opacity: 0.75; stroke: #fb9a99; stroke-opacity: 0.75"/>
     <use xlink:href="#m73a70a759c" x="272.821987" y="32.022909" style="fill: #fb9a99; fill-opacity: 0.75; stroke: #fb9a99; stroke-opacity: 0.75"/>
     <use xlink:href="#m73a70a759c" x="274.958414" y="32.022909" style="fill: #fb9a99; fill-opacity: 0.75; stroke: #fb9a99; stroke-opacity: 0.75"/>
     <use xlink:href="#m73a70a759c" x="278.010584" y="184.981624" style="fill: #fb9a99; fill-opacity: 0.75; stroke: #fb9a99; stroke-opacity: 0.75"/>
     <use xlink:href="#m73a70a759c" x="279.129646" y="37.358822" style="fill: #fb9a99; fill-opacity: 0.75; stroke: #fb9a99; stroke-opacity: 0.75"/>
     <use xlink:href="#m73a70a759c" x="276.494052" y="96.849679" style="fill: #fb9a99; fill-opacity: 0.75; stroke: #fb9a99; stroke-opacity: 0.75"/>
     <use xlink:href="#m73a70a759c" x="279.179578" y="119.166199" style="fill: #fb9a99; fill-opacity: 0.75; stroke: #fb9a99; stroke-opacity: 0.75"/>
     <use xlink:href="#m73a70a759c" x="281.443995" y="125.734664" style="fill: #fb9a99; fill-opacity: 0.75; stroke: #fb9a99; stroke-opacity: 0.75"/>
     <use xlink:href="#m73a70a759c" x="277.112579" y="74.884809" style="fill: #fb9a99; fill-opacity: 0.75; stroke: #fb9a99; stroke-opacity: 0.75"/>
     <use xlink:href="#m73a70a759c" x="277.538101" y="115.323781" style="fill: #fb9a99; fill-opacity: 0.75; stroke: #fb9a99; stroke-opacity: 0.75"/>
     <use xlink:href="#m73a70a759c" x="276.523805" y="174.285481" style="fill: #fb9a99; fill-opacity: 0.75; stroke: #fb9a99; stroke-opacity: 0.75"/>
     <use xlink:href="#m73a70a759c" x="275.122481" y="78.275326" style="fill: #fb9a99; fill-opacity: 0.75; stroke: #fb9a99; stroke-opacity: 0.75"/>
     <use xlink:href="#m73a70a759c" x="278.745253" y="90.492551" style="fill: #fb9a99; fill-opacity: 0.75; stroke: #fb9a99; stroke-opacity: 0.75"/>
     <use xlink:href="#m73a70a759c" x="276.58729" y="153.124023" style="fill: #fb9a99; fill-opacity: 0.75; stroke: #fb9a99; stroke-opacity: 0.75"/>
     <use xlink:href="#m73a70a759c" x="272.057121" y="110.918989" style="fill: #fb9a99; fill-opacity: 0.75; stroke: #fb9a99; stroke-opacity: 0.75"/>
     <use xlink:href="#m73a70a759c" x="276.651879" y="79.848559" style="fill: #fb9a99; fill-opacity: 0.75; stroke: #fb9a99; stroke-opacity: 0.75"/>
     <use xlink:href="#m73a70a759c" x="277.507609" y="109.483315" style="fill: #fb9a99; fill-opacity: 0.75; stroke: #fb9a99; stroke-opacity: 0.75"/>
     <use xlink:href="#m73a70a759c" x="279.465054" y="129.231055" style="fill: #fb9a99; fill-opacity: 0.75; stroke: #fb9a99; stroke-opacity: 0.75"/>
     <use xlink:href="#m73a70a759c" x="275.672565" y="52.083599" style="fill: #fb9a99; fill-opacity: 0.75; stroke: #fb9a99; stroke-opacity: 0.75"/>
     <use xlink:href="#m73a70a759c" x="273.427053" y="162.135797" style="fill: #fb9a99; fill-opacity: 0.75; stroke: #fb9a99; stroke-opacity: 0.75"/>
     <use xlink:href="#m73a70a759c" x="276.083368" y="168.45244" style="fill: #fb9a99; fill-opacity: 0.75; stroke: #fb9a99; stroke-opacity: 0.75"/>
     <use xlink:href="#m73a70a759c" x="272.065017" y="134.971864" style="fill: #fb9a99; fill-opacity: 0.75; stroke: #fb9a99; stroke-opacity: 0.75"/>
     <use xlink:href="#m73a70a759c" x="277.178388" y="32.022909" style="fill: #fb9a99; fill-opacity: 0.75; stroke: #fb9a99; stroke-opacity: 0.75"/>
     <use xlink:href="#m73a70a759c" x="280.035373" y="32.022909" style="fill: #fb9a99; fill-opacity: 0.75; stroke: #fb9a99; stroke-opacity: 0.75"/>
     <use xlink:href="#m73a70a759c" x="272.519538" y="133.325982" style="fill: #fb9a99; fill-opacity: 0.75; stroke: #fb9a99; stroke-opacity: 0.75"/>
     <use xlink:href="#m73a70a759c" x="280.973604" y="121.496473" style="fill: #fb9a99; fill-opacity: 0.75; stroke: #fb9a99; stroke-opacity: 0.75"/>
     <use xlink:href="#m73a70a759c" x="276.102845" y="108.295403" style="fill: #fb9a99; fill-opacity: 0.75; stroke: #fb9a99; stroke-opacity: 0.75"/>
     <use xlink:href="#m73a70a759c" x="276.224508" y="51.720216" style="fill: #fb9a99; fill-opacity: 0.75; stroke: #fb9a99; stroke-opacity: 0.75"/>
     <use xlink:href="#m73a70a759c" x="275.57265" y="110.087252" style="fill: #fb9a99; fill-opacity: 0.75; stroke: #fb9a99; stroke-opacity: 0.75"/>
     <use xlink:href="#m73a70a759c" x="272.997913" y="118.160944" style="fill: #fb9a99; fill-opacity: 0.75; stroke: #fb9a99; stroke-opacity: 0.75"/>
     <use xlink:href="#m73a70a759c" x="274.542717" y="71.179106" style="fill: #fb9a99; fill-opacity: 0.75; stroke: #fb9a99; stroke-opacity: 0.75"/>
     <use xlink:href="#m73a70a759c" x="276.569614" y="69.531347" style="fill: #fb9a99; fill-opacity: 0.75; stroke: #fb9a99; stroke-opacity: 0.75"/>
     <use xlink:href="#m73a70a759c" x="278.071629" y="139.735402" style="fill: #fb9a99; fill-opacity: 0.75; stroke: #fb9a99; stroke-opacity: 0.75"/>
     <use xlink:href="#m73a70a759c" x="277.163766" y="128.833756" style="fill: #fb9a99; fill-opacity: 0.75; stroke: #fb9a99; stroke-opacity: 0.75"/>
     <use xlink:href="#m73a70a759c" x="277.16486" y="78.913355" style="fill: #fb9a99; fill-opacity: 0.75; stroke: #fb9a99; stroke-opacity: 0.75"/>
     <use xlink:href="#m73a70a759c" x="277.538449" y="32.022909" style="fill: #fb9a99; fill-opacity: 0.75; stroke: #fb9a99; stroke-opacity: 0.75"/>
     <use xlink:href="#m73a70a759c" x="276.958144" y="67.981712" style="fill: #fb9a99; fill-opacity: 0.75; stroke: #fb9a99; stroke-opacity: 0.75"/>
     <use xlink:href="#m73a70a759c" x="277.735059" y="48.178267" style="fill: #fb9a99; fill-opacity: 0.75; stroke: #fb9a99; stroke-opacity: 0.75"/>
     <use xlink:href="#m73a70a759c" x="278.484977" y="49.61426" style="fill: #fb9a99; fill-opacity: 0.75; stroke: #fb9a99; stroke-opacity: 0.75"/>
     <use xlink:href="#m73a70a759c" x="277.818737" y="209.683825" style="fill: #fb9a99; fill-opacity: 0.75; stroke: #fb9a99; stroke-opacity: 0.75"/>
     <use xlink:href="#m73a70a759c" x="278.048207" y="179.314947" style="fill: #fb9a99; fill-opacity: 0.75; stroke: #fb9a99; stroke-opacity: 0.75"/>
     <use xlink:href="#m73a70a759c" x="271.635664" y="135.143904" style="fill: #fb9a99; fill-opacity: 0.75; stroke: #fb9a99; stroke-opacity: 0.75"/>
     <use xlink:href="#m73a70a759c" x="274.10997" y="39.864402" style="fill: #fb9a99; fill-opacity: 0.75; stroke: #fb9a99; stroke-opacity: 0.75"/>
     <use xlink:href="#m73a70a759c" x="276.800293" y="156.653217" style="fill: #fb9a99; fill-opacity: 0.75; stroke: #fb9a99; stroke-opacity: 0.75"/>
     <use xlink:href="#m73a70a759c" x="274.897975" y="120.824123" style="fill: #fb9a99; fill-opacity: 0.75; stroke: #fb9a99; stroke-opacity: 0.75"/>
     <use xlink:href="#m73a70a759c" x="279.456329" y="201.793649" style="fill: #fb9a99; fill-opacity: 0.75; stroke: #fb9a99; stroke-opacity: 0.75"/>
     <use xlink:href="#m73a70a759c" x="276.567778" y="79.429592" style="fill: #fb9a99; fill-opacity: 0.75; stroke: #fb9a99; stroke-opacity: 0.75"/>
     <use xlink:href="#m73a70a759c" x="276.141549" y="126.566644" style="fill: #fb9a99; fill-opacity: 0.75; stroke: #fb9a99; stroke-opacity: 0.75"/>
     <use xlink:href="#m73a70a759c" x="279.059694" y="88.846909" style="fill: #fb9a99; fill-opacity: 0.75; stroke: #fb9a99; stroke-opacity: 0.75"/>
     <use xlink:href="#m73a70a759c" x="273.712811" y="61.330152" style="fill: #fb9a99; fill-opacity: 0.75; stroke: #fb9a99; stroke-opacity: 0.75"/>
     <use xlink:href="#m73a70a759c" x="278.214716" y="125.94" style="fill: #fb9a99; fill-opacity: 0.75; stroke: #fb9a99; stroke-opacity: 0.75"/>
     <use xlink:href="#m73a70a759c" x="277.187575" y="106.816218" style="fill: #fb9a99; fill-opacity: 0.75; stroke: #fb9a99; stroke-opacity: 0.75"/>
     <use xlink:href="#m73a70a759c" x="277.757953" y="138.534131" style="fill: #fb9a99; fill-opacity: 0.75; stroke: #fb9a99; stroke-opacity: 0.75"/>
     <use xlink:href="#m73a70a759c" x="273.091494" y="98.063923" style="fill: #fb9a99; fill-opacity: 0.75; stroke: #fb9a99; stroke-opacity: 0.75"/>
     <use xlink:href="#m73a70a759c" x="276.25556" y="53.953079" style="fill: #fb9a99; fill-opacity: 0.75; stroke: #fb9a99; stroke-opacity: 0.75"/>
     <use xlink:href="#m73a70a759c" x="276.328529" y="73.740535" style="fill: #fb9a99; fill-opacity: 0.75; stroke: #fb9a99; stroke-opacity: 0.75"/>
     <use xlink:href="#m73a70a759c" x="272.598058" y="53.867229" style="fill: #fb9a99; fill-opacity: 0.75; stroke: #fb9a99; stroke-opacity: 0.75"/>
     <use xlink:href="#m73a70a759c" x="278.137119" y="69.993647" style="fill: #fb9a99; fill-opacity: 0.75; stroke: #fb9a99; stroke-opacity: 0.75"/>
     <use xlink:href="#m73a70a759c" x="274.340885" y="116.765916" style="fill: #fb9a99; fill-opacity: 0.75; stroke: #fb9a99; stroke-opacity: 0.75"/>
     <use xlink:href="#m73a70a759c" x="277.131527" y="91.816568" style="fill: #fb9a99; fill-opacity: 0.75; stroke: #fb9a99; stroke-opacity: 0.75"/>
     <use xlink:href="#m73a70a759c" x="274.923583" y="49.829617" style="fill: #fb9a99; fill-opacity: 0.75; stroke: #fb9a99; stroke-opacity: 0.75"/>
     <use xlink:href="#m73a70a759c" x="276.341457" y="89.973482" style="fill: #fb9a99; fill-opacity: 0.75; stroke: #fb9a99; stroke-opacity: 0.75"/>
     <use xlink:href="#m73a70a759c" x="274.536308" y="32.022909" style="fill: #fb9a99; fill-opacity: 0.75; stroke: #fb9a99; stroke-opacity: 0.75"/>
     <use xlink:href="#m73a70a759c" x="274.39652" y="54.962824" style="fill: #fb9a99; fill-opacity: 0.75; stroke: #fb9a99; stroke-opacity: 0.75"/>
     <use xlink:href="#m73a70a759c" x="276.060982" y="91.906697" style="fill: #fb9a99; fill-opacity: 0.75; stroke: #fb9a99; stroke-opacity: 0.75"/>
     <use xlink:href="#m73a70a759c" x="276.086596" y="149.767347" style="fill: #fb9a99; fill-opacity: 0.75; stroke: #fb9a99; stroke-opacity: 0.75"/>
     <use xlink:href="#m73a70a759c" x="278.338781" y="98.547061" style="fill: #fb9a99; fill-opacity: 0.75; stroke: #fb9a99; stroke-opacity: 0.75"/>
     <use xlink:href="#m73a70a759c" x="273.199187" y="106.065404" style="fill: #fb9a99; fill-opacity: 0.75; stroke: #fb9a99; stroke-opacity: 0.75"/>
     <use xlink:href="#m73a70a759c" x="279.874266" y="127.40482" style="fill: #fb9a99; fill-opacity: 0.75; stroke: #fb9a99; stroke-opacity: 0.75"/>
     <use xlink:href="#m73a70a759c" x="276.367523" y="33.090191" style="fill: #fb9a99; fill-opacity: 0.75; stroke: #fb9a99; stroke-opacity: 0.75"/>
     <use xlink:href="#m73a70a759c" x="274.367267" y="134.8002" style="fill: #fb9a99; fill-opacity: 0.75; stroke: #fb9a99; stroke-opacity: 0.75"/>
     <use xlink:href="#m73a70a759c" x="272.754818" y="129.965064" style="fill: #fb9a99; fill-opacity: 0.75; stroke: #fb9a99; stroke-opacity: 0.75"/>
     <use xlink:href="#m73a70a759c" x="278.582165" y="153.949852" style="fill: #fb9a99; fill-opacity: 0.75; stroke: #fb9a99; stroke-opacity: 0.75"/>
    </g>
   </g>
   <g id="patch_3">
    <path d="M 80.618182 131.995929 
L 151.350649 131.995929 
L 151.350649 111.760774 
L 80.618182 111.760774 
L 80.618182 131.995929 
z
" clip-path="url(#p3420ec08ec)" style="fill: none; stroke: #a9a9a9; stroke-linejoin: miter"/>
   </g>
   <g id="patch_4">
    <path d="M 169.033766 124.897589 
L 239.766234 124.897589 
L 239.766234 94.489856 
L 169.033766 94.489856 
L 169.033766 124.897589 
z
" clip-path="url(#p3420ec08ec)" style="fill: none; stroke: #a9a9a9; stroke-linejoin: miter"/>
   </g>
   <g id="patch_5">
    <path d="M 257.449351 112.113684 
L 328.181818 112.113684 
L 328.181818 90.412701 
L 257.449351 90.412701 
L 257.449351 112.113684 
z
" clip-path="url(#p3420ec08ec)" style="fill: none; stroke: #a9a9a9; stroke-linejoin: miter"/>
   </g>
   <g id="matplotlib.axis_1">
    <g id="xtick_1">
     <g id="line2d_1">
      <defs>
       <path id="m821bdb2143" d="M 0 0 
L 0 3.5 
" style="stroke: #000000; stroke-width: 0.8"/>
      </defs>
      <g>
       <use xlink:href="#m821bdb2143" x="115.984416" y="296.264" style="stroke: #000000; stroke-width: 0.8"/>
      </g>
     </g>
     <g id="text_1">
      <!-- No -->
      <g transform="translate(104.479884 316.176187) scale(0.18 -0.18)">
       <defs>
        <path id="Helvetica-4e" d="M 488 4591 
L 1222 4591 
L 3541 872 
L 3541 4591 
L 4131 4591 
L 4131 0 
L 3434 0 
L 1081 3716 
L 1081 0 
L 488 0 
L 488 4591 
z
M 2269 4591 
L 2269 4591 
z
" transform="scale(0.015625)"/>
        <path id="Helvetica-6f" d="M 1741 363 
Q 2300 363 2508 786 
Q 2716 1209 2716 1728 
Q 2716 2197 2566 2491 
Q 2328 2953 1747 2953 
Q 1231 2953 997 2559 
Q 763 2166 763 1609 
Q 763 1075 997 719 
Q 1231 363 1741 363 
z
M 1763 3444 
Q 2409 3444 2856 3012 
Q 3303 2581 3303 1744 
Q 3303 934 2909 406 
Q 2516 -122 1688 -122 
Q 997 -122 590 345 
Q 184 813 184 1600 
Q 184 2444 612 2944 
Q 1041 3444 1763 3444 
z
M 1744 3428 
L 1744 3428 
z
" transform="scale(0.015625)"/>
       </defs>
       <use xlink:href="#Helvetica-4e"/>
       <use xlink:href="#Helvetica-6f" x="72.216797"/>
      </g>
      <!-- Pain -->
      <g transform="translate(97.971759 335.422687) scale(0.18 -0.18)">
       <defs>
        <path id="Helvetica-50" d="M 547 4591 
L 2613 4591 
Q 3225 4591 3600 4245 
Q 3975 3900 3975 3275 
Q 3975 2738 3640 2339 
Q 3306 1941 2613 1941 
L 1169 1941 
L 1169 0 
L 547 0 
L 547 4591 
z
M 3347 3272 
Q 3347 3778 2972 3959 
Q 2766 4056 2406 4056 
L 1169 4056 
L 1169 2466 
L 2406 2466 
Q 2825 2466 3086 2644 
Q 3347 2822 3347 3272 
z
" transform="scale(0.015625)"/>
        <path id="Helvetica-61" d="M 844 891 
Q 844 647 1022 506 
Q 1200 366 1444 366 
Q 1741 366 2019 503 
Q 2488 731 2488 1250 
L 2488 1703 
Q 2384 1638 2221 1594 
Q 2059 1550 1903 1531 
L 1563 1488 
Q 1256 1447 1103 1359 
Q 844 1213 844 891 
z
M 2206 2028 
Q 2400 2053 2466 2191 
Q 2503 2266 2503 2406 
Q 2503 2694 2298 2823 
Q 2094 2953 1713 2953 
Q 1272 2953 1088 2716 
Q 984 2584 953 2325 
L 428 2325 
Q 444 2944 830 3186 
Q 1216 3428 1725 3428 
Q 2316 3428 2684 3203 
Q 3050 2978 3050 2503 
L 3050 575 
Q 3050 488 3086 434 
Q 3122 381 3238 381 
Q 3275 381 3322 386 
Q 3369 391 3422 400 
L 3422 -16 
Q 3291 -53 3222 -62 
Q 3153 -72 3034 -72 
Q 2744 -72 2613 134 
Q 2544 244 2516 444 
Q 2344 219 2022 53 
Q 1700 -113 1313 -113 
Q 847 -113 551 170 
Q 256 453 256 878 
Q 256 1344 547 1600 
Q 838 1856 1309 1916 
L 2206 2028 
z
M 1741 3428 
L 1741 3428 
z
" transform="scale(0.015625)"/>
        <path id="Helvetica-69" d="M 413 3331 
L 984 3331 
L 984 0 
L 413 0 
L 413 3331 
z
M 413 4591 
L 984 4591 
L 984 3953 
L 413 3953 
L 413 4591 
z
" transform="scale(0.015625)"/>
        <path id="Helvetica-6e" d="M 413 3347 
L 947 3347 
L 947 2872 
Q 1184 3166 1450 3294 
Q 1716 3422 2041 3422 
Q 2753 3422 3003 2925 
Q 3141 2653 3141 2147 
L 3141 0 
L 2569 0 
L 2569 2109 
Q 2569 2416 2478 2603 
Q 2328 2916 1934 2916 
Q 1734 2916 1606 2875 
Q 1375 2806 1200 2600 
Q 1059 2434 1017 2257 
Q 975 2081 975 1753 
L 975 0 
L 413 0 
L 413 3347 
z
M 1734 3428 
L 1734 3428 
z
" transform="scale(0.015625)"/>
       </defs>
       <use xlink:href="#Helvetica-50"/>
       <use xlink:href="#Helvetica-61" x="66.699219"/>
       <use xlink:href="#Helvetica-69" x="122.314453"/>
       <use xlink:href="#Helvetica-6e" x="144.53125"/>
      </g>
     </g>
    </g>
    <g id="xtick_2">
     <g id="line2d_2">
      <g>
       <use xlink:href="#m821bdb2143" x="204.4" y="296.264" style="stroke: #000000; stroke-width: 0.8"/>
      </g>
     </g>
     <g id="text_2">
      <!-- Acute -->
      <g transform="translate(181.386719 316.176187) scale(0.18 -0.18)">
       <defs>
        <path id="Helvetica-41" d="M 2844 1881 
L 2147 3909 
L 1406 1881 
L 2844 1881 
z
M 1822 4591 
L 2525 4591 
L 4191 0 
L 3509 0 
L 3044 1375 
L 1228 1375 
L 731 0 
L 94 0 
L 1822 4591 
z
M 2144 4591 
L 2144 4591 
z
" transform="scale(0.015625)"/>
        <path id="Helvetica-63" d="M 1703 3444 
Q 2269 3444 2623 3169 
Q 2978 2894 3050 2222 
L 2503 2222 
Q 2453 2531 2275 2736 
Q 2097 2941 1703 2941 
Q 1166 2941 934 2416 
Q 784 2075 784 1575 
Q 784 1072 996 728 
Q 1209 384 1666 384 
Q 2016 384 2220 598 
Q 2425 813 2503 1184 
L 3050 1184 
Q 2956 519 2581 211 
Q 2206 -97 1622 -97 
Q 966 -97 575 383 
Q 184 863 184 1581 
Q 184 2463 612 2953 
Q 1041 3444 1703 3444 
z
M 1616 3428 
L 1616 3428 
z
" transform="scale(0.015625)"/>
        <path id="Helvetica-75" d="M 975 3347 
L 975 1125 
Q 975 869 1056 706 
Q 1206 406 1616 406 
Q 2203 406 2416 931 
Q 2531 1213 2531 1703 
L 2531 3347 
L 3094 3347 
L 3094 0 
L 2563 0 
L 2569 494 
Q 2459 303 2297 172 
Q 1975 -91 1516 -91 
Q 800 -91 541 388 
Q 400 644 400 1072 
L 400 3347 
L 975 3347 
z
M 1747 3428 
L 1747 3428 
z
" transform="scale(0.015625)"/>
        <path id="Helvetica-74" d="M 525 4281 
L 1094 4281 
L 1094 3347 
L 1628 3347 
L 1628 2888 
L 1094 2888 
L 1094 703 
Q 1094 528 1213 469 
Q 1278 434 1431 434 
Q 1472 434 1519 436 
Q 1566 438 1628 444 
L 1628 0 
Q 1531 -28 1426 -40 
Q 1322 -53 1200 -53 
Q 806 -53 665 148 
Q 525 350 525 672 
L 525 2888 
L 72 2888 
L 72 3347 
L 525 3347 
L 525 4281 
z
" transform="scale(0.015625)"/>
        <path id="Helvetica-65" d="M 1806 3422 
Q 2163 3422 2497 3255 
Q 2831 3088 3006 2822 
Q 3175 2569 3231 2231 
Q 3281 2000 3281 1494 
L 828 1494 
Q 844 984 1069 676 
Q 1294 369 1766 369 
Q 2206 369 2469 659 
Q 2619 828 2681 1050 
L 3234 1050 
Q 3213 866 3089 639 
Q 2966 413 2813 269 
Q 2556 19 2178 -69 
Q 1975 -119 1719 -119 
Q 1094 -119 659 336 
Q 225 791 225 1609 
Q 225 2416 662 2919 
Q 1100 3422 1806 3422 
z
M 2703 1941 
Q 2669 2306 2544 2525 
Q 2313 2931 1772 2931 
Q 1384 2931 1121 2651 
Q 859 2372 844 1941 
L 2703 1941 
z
M 1753 3428 
L 1753 3428 
z
" transform="scale(0.015625)"/>
       </defs>
       <use xlink:href="#Helvetica-41"/>
       <use xlink:href="#Helvetica-63" x="66.699219"/>
       <use xlink:href="#Helvetica-75" x="116.699219"/>
       <use xlink:href="#Helvetica-74" x="172.314453"/>
       <use xlink:href="#Helvetica-65" x="200.097656"/>
      </g>
      <!-- Pain -->
      <g transform="translate(186.387344 335.422687) scale(0.18 -0.18)">
       <use xlink:href="#Helvetica-50"/>
       <use xlink:href="#Helvetica-61" x="66.699219"/>
       <use xlink:href="#Helvetica-69" x="122.314453"/>
       <use xlink:href="#Helvetica-6e" x="144.53125"/>
      </g>
     </g>
    </g>
    <g id="xtick_3">
     <g id="line2d_3">
      <g>
       <use xlink:href="#m821bdb2143" x="292.815584" y="296.264" style="stroke: #000000; stroke-width: 0.8"/>
      </g>
     </g>
     <g id="text_3">
      <!-- Chronic -->
      <g transform="translate(261.804959 316.176187) scale(0.18 -0.18)">
       <defs>
        <path id="Helvetica-43" d="M 2422 4716 
Q 3294 4716 3775 4256 
Q 4256 3797 4309 3213 
L 3703 3213 
Q 3600 3656 3292 3915 
Q 2984 4175 2428 4175 
Q 1750 4175 1333 3698 
Q 916 3222 916 2238 
Q 916 1431 1292 929 
Q 1669 428 2416 428 
Q 3103 428 3463 956 
Q 3653 1234 3747 1688 
L 4353 1688 
Q 4272 963 3816 472 
Q 3269 -119 2341 -119 
Q 1541 -119 997 366 
Q 281 1006 281 2344 
Q 281 3359 819 4009 
Q 1400 4716 2422 4716 
z
M 2297 4716 
L 2297 4716 
z
" transform="scale(0.015625)"/>
        <path id="Helvetica-68" d="M 413 4606 
L 975 4606 
L 975 2894 
Q 1175 3147 1334 3250 
Q 1606 3428 2013 3428 
Q 2741 3428 3000 2919 
Q 3141 2641 3141 2147 
L 3141 0 
L 2563 0 
L 2563 2109 
Q 2563 2478 2469 2650 
Q 2316 2925 1894 2925 
Q 1544 2925 1259 2684 
Q 975 2444 975 1775 
L 975 0 
L 413 0 
L 413 4606 
z
" transform="scale(0.015625)"/>
        <path id="Helvetica-72" d="M 428 3347 
L 963 3347 
L 963 2769 
Q 1028 2938 1284 3180 
Q 1541 3422 1875 3422 
Q 1891 3422 1928 3419 
Q 1966 3416 2056 3406 
L 2056 2813 
Q 2006 2822 1964 2825 
Q 1922 2828 1872 2828 
Q 1447 2828 1219 2554 
Q 991 2281 991 1925 
L 991 0 
L 428 0 
L 428 3347 
z
" transform="scale(0.015625)"/>
       </defs>
       <use xlink:href="#Helvetica-43"/>
       <use xlink:href="#Helvetica-68" x="72.216797"/>
       <use xlink:href="#Helvetica-72" x="127.832031"/>
       <use xlink:href="#Helvetica-6f" x="161.132812"/>
       <use xlink:href="#Helvetica-6e" x="216.748047"/>
       <use xlink:href="#Helvetica-69" x="272.363281"/>
       <use xlink:href="#Helvetica-63" x="294.580078"/>
      </g>
      <!-- Pain -->
      <g transform="translate(274.802928 335.422687) scale(0.18 -0.18)">
       <use xlink:href="#Helvetica-50"/>
       <use xlink:href="#Helvetica-61" x="66.699219"/>
       <use xlink:href="#Helvetica-69" x="122.314453"/>
       <use xlink:href="#Helvetica-6e" x="144.53125"/>
      </g>
     </g>
    </g>
   </g>
   <g id="matplotlib.axis_2">
    <g id="ytick_1">
     <g id="line2d_4">
      <defs>
       <path id="m3fb1742135" d="M 0 0 
L -3.5 0 
" style="stroke: #000000; stroke-width: 0.8"/>
      </defs>
      <g>
       <use xlink:href="#m3fb1742135" x="68.24" y="240.19166" style="stroke: #000000; stroke-width: 0.8"/>
      </g>
     </g>
     <g id="text_4">
      <!-- 3 -->
      <g transform="translate(40.717188 246.647754) scale(0.18 -0.18)">
       <defs>
        <path id="Helvetica-2212" d="M 3547 1894 
L 3547 1369 
L 288 1369 
L 288 1894 
L 3547 1894 
z
" transform="scale(0.015625)"/>
        <path id="Helvetica-33" d="M 1663 -122 
Q 869 -122 511 314 
Q 153 750 153 1375 
L 741 1375 
Q 778 941 903 744 
Q 1122 391 1694 391 
Q 2138 391 2406 628 
Q 2675 866 2675 1241 
Q 2675 1703 2392 1887 
Q 2109 2072 1606 2072 
Q 1550 2072 1492 2070 
Q 1434 2069 1375 2066 
L 1375 2563 
Q 1463 2553 1522 2550 
Q 1581 2547 1650 2547 
Q 1966 2547 2169 2647 
Q 2525 2822 2525 3272 
Q 2525 3606 2287 3787 
Q 2050 3969 1734 3969 
Q 1172 3969 956 3594 
Q 838 3388 822 3006 
L 266 3006 
Q 266 3506 466 3856 
Q 809 4481 1675 4481 
Q 2359 4481 2734 4176 
Q 3109 3872 3109 3294 
Q 3109 2881 2888 2625 
Q 2750 2466 2531 2375 
Q 2884 2278 3082 2001 
Q 3281 1725 3281 1325 
Q 3281 684 2859 281 
Q 2438 -122 1663 -122 
z
" transform="scale(0.015625)"/>
       </defs>
       <use xlink:href="#Helvetica-2212"/>
       <use xlink:href="#Helvetica-33" x="58.398438"/>
      </g>
     </g>
    </g>
    <g id="ytick_2">
     <g id="line2d_5">
      <g>
       <use xlink:href="#m3fb1742135" x="68.24" y="170.802076" style="stroke: #000000; stroke-width: 0.8"/>
      </g>
     </g>
     <g id="text_5">
      <!-- 2 -->
      <g transform="translate(40.717188 177.25817) scale(0.18 -0.18)">
       <defs>
        <path id="Helvetica-32" d="M 200 0 
Q 231 578 439 1006 
Q 647 1434 1250 1784 
L 1850 2131 
Q 2253 2366 2416 2531 
Q 2672 2791 2672 3125 
Q 2672 3516 2437 3745 
Q 2203 3975 1813 3975 
Q 1234 3975 1013 3538 
Q 894 3303 881 2888 
L 309 2888 
Q 319 3472 525 3841 
Q 891 4491 1816 4491 
Q 2584 4491 2939 4075 
Q 3294 3659 3294 3150 
Q 3294 2613 2916 2231 
Q 2697 2009 2131 1694 
L 1703 1456 
Q 1397 1288 1222 1134 
Q 909 863 828 531 
L 3272 531 
L 3272 0 
L 200 0 
z
" transform="scale(0.015625)"/>
       </defs>
       <use xlink:href="#Helvetica-2212"/>
       <use xlink:href="#Helvetica-32" x="58.398438"/>
      </g>
     </g>
    </g>
    <g id="ytick_3">
     <g id="line2d_6">
      <g>
       <use xlink:href="#m3fb1742135" x="68.24" y="101.412493" style="stroke: #000000; stroke-width: 0.8"/>
      </g>
     </g>
     <g id="text_6">
      <!-- 1 -->
      <g transform="translate(40.717188 107.868587) scale(0.18 -0.18)">
       <defs>
        <path id="Helvetica-31" d="M 613 3169 
L 613 3600 
Q 1222 3659 1462 3798 
Q 1703 3938 1822 4456 
L 2266 4456 
L 2266 0 
L 1666 0 
L 1666 3169 
L 613 3169 
z
" transform="scale(0.015625)"/>
       </defs>
       <use xlink:href="#Helvetica-2212"/>
       <use xlink:href="#Helvetica-31" x="58.398438"/>
      </g>
     </g>
    </g>
    <g id="ytick_4">
     <g id="line2d_7">
      <g>
       <use xlink:href="#m3fb1742135" x="68.24" y="32.022909" style="stroke: #000000; stroke-width: 0.8"/>
      </g>
     </g>
     <g id="text_7">
      <!-- 0 -->
      <g transform="translate(51.230313 38.479003) scale(0.18 -0.18)">
       <defs>
        <path id="Helvetica-30" d="M 1731 4475 
Q 2600 4475 2988 3759 
Q 3288 3206 3288 2244 
Q 3288 1331 3016 734 
Q 2622 -122 1728 -122 
Q 922 -122 528 578 
Q 200 1163 200 2147 
Q 200 2909 397 3456 
Q 766 4475 1731 4475 
z
M 1725 391 
Q 2163 391 2422 778 
Q 2681 1166 2681 2222 
Q 2681 2984 2493 3476 
Q 2306 3969 1766 3969 
Q 1269 3969 1039 3501 
Q 809 3034 809 2125 
Q 809 1441 956 1025 
Q 1181 391 1725 391 
z
" transform="scale(0.015625)"/>
       </defs>
       <use xlink:href="#Helvetica-30"/>
      </g>
     </g>
    </g>
    <g id="text_8">
     <!-- Log Temperature -->
     <g transform="translate(32.734688 226.883406) rotate(-90) scale(0.18 -0.18)">
      <defs>
       <path id="Helvetica-4c" d="M 488 4591 
L 1109 4591 
L 1109 547 
L 3434 547 
L 3434 0 
L 488 0 
L 488 4591 
z
" transform="scale(0.015625)"/>
       <path id="Helvetica-67" d="M 1594 3406 
Q 1988 3406 2281 3213 
Q 2441 3103 2606 2894 
L 2606 3316 
L 3125 3316 
L 3125 272 
Q 3125 -366 2938 -734 
Q 2588 -1416 1616 -1416 
Q 1075 -1416 706 -1173 
Q 338 -931 294 -416 
L 866 -416 
Q 906 -641 1028 -763 
Q 1219 -950 1628 -950 
Q 2275 -950 2475 -494 
Q 2594 -225 2584 466 
Q 2416 209 2178 84 
Q 1941 -41 1550 -41 
Q 1006 -41 598 345 
Q 191 731 191 1622 
Q 191 2463 602 2934 
Q 1013 3406 1594 3406 
z
M 2606 1688 
Q 2606 2309 2350 2609 
Q 2094 2909 1697 2909 
Q 1103 2909 884 2353 
Q 769 2056 769 1575 
Q 769 1009 998 714 
Q 1228 419 1616 419 
Q 2222 419 2469 966 
Q 2606 1275 2606 1688 
z
M 1659 3428 
L 1659 3428 
z
" transform="scale(0.015625)"/>
       <path id="Helvetica-20" transform="scale(0.015625)"/>
       <path id="Helvetica-54" d="M 3828 4591 
L 3828 4044 
L 2281 4044 
L 2281 0 
L 1650 0 
L 1650 4044 
L 103 4044 
L 103 4591 
L 3828 4591 
z
" transform="scale(0.015625)"/>
       <path id="Helvetica-6d" d="M 413 3347 
L 969 3347 
L 969 2872 
Q 1169 3119 1331 3231 
Q 1609 3422 1963 3422 
Q 2363 3422 2606 3225 
Q 2744 3113 2856 2894 
Q 3044 3163 3297 3292 
Q 3550 3422 3866 3422 
Q 4541 3422 4784 2934 
Q 4916 2672 4916 2228 
L 4916 0 
L 4331 0 
L 4331 2325 
Q 4331 2659 4164 2784 
Q 3997 2909 3756 2909 
Q 3425 2909 3186 2687 
Q 2947 2466 2947 1947 
L 2947 0 
L 2375 0 
L 2375 2184 
Q 2375 2525 2294 2681 
Q 2166 2916 1816 2916 
Q 1497 2916 1236 2669 
Q 975 2422 975 1775 
L 975 0 
L 413 0 
L 413 3347 
z
" transform="scale(0.015625)"/>
       <path id="Helvetica-70" d="M 1825 378 
Q 2219 378 2480 708 
Q 2741 1038 2741 1694 
Q 2741 2094 2625 2381 
Q 2406 2934 1825 2934 
Q 1241 2934 1025 2350 
Q 909 2038 909 1556 
Q 909 1169 1025 897 
Q 1244 378 1825 378 
z
M 369 3331 
L 916 3331 
L 916 2888 
Q 1084 3116 1284 3241 
Q 1569 3428 1953 3428 
Q 2522 3428 2919 2992 
Q 3316 2556 3316 1747 
Q 3316 653 2744 184 
Q 2381 -113 1900 -113 
Q 1522 -113 1266 53 
Q 1116 147 931 375 
L 931 -1334 
L 369 -1334 
L 369 3331 
z
" transform="scale(0.015625)"/>
      </defs>
      <use xlink:href="#Helvetica-4c"/>
      <use xlink:href="#Helvetica-6f" x="55.615234"/>
      <use xlink:href="#Helvetica-67" x="111.230469"/>
      <use xlink:href="#Helvetica-20" x="166.845703"/>
      <use xlink:href="#Helvetica-54" x="194.628906"/>
      <use xlink:href="#Helvetica-65" x="255.712891"/>
      <use xlink:href="#Helvetica-6d" x="311.328125"/>
      <use xlink:href="#Helvetica-70" x="394.628906"/>
      <use xlink:href="#Helvetica-65" x="450.244141"/>
      <use xlink:href="#Helvetica-72" x="505.859375"/>
      <use xlink:href="#Helvetica-61" x="539.160156"/>
      <use xlink:href="#Helvetica-74" x="594.775391"/>
      <use xlink:href="#Helvetica-75" x="622.558594"/>
      <use xlink:href="#Helvetica-72" x="678.173828"/>
      <use xlink:href="#Helvetica-65" x="711.474609"/>
     </g>
    </g>
   </g>
   <g id="LineCollection_1">
    <path d="M 80.618182 121.878351 
L 151.350649 121.878351 
" clip-path="url(#p3420ec08ec)" style="fill: none; stroke: #a9a9a9; stroke-width: 1.5"/>
   </g>
   <g id="LineCollection_2">
    <path d="M 169.033766 109.693723 
L 239.766234 109.693723 
" clip-path="url(#p3420ec08ec)" style="fill: none; stroke: #a9a9a9; stroke-width: 1.5"/>
   </g>
   <g id="LineCollection_3">
    <path d="M 257.449351 101.263192 
L 328.181818 101.263192 
" clip-path="url(#p3420ec08ec)" style="fill: none; stroke: #a9a9a9; stroke-width: 1.5"/>
   </g>
   <g id="patch_6">
    <path d="M 68.24 296.264 
L 68.24 19.44 
" style="fill: none; stroke: #000000; stroke-width: 0.8; stroke-linejoin: miter; stroke-linecap: square"/>
   </g>
   <g id="patch_7">
    <path d="M 68.24 296.264 
L 340.56 296.264 
" style="fill: none; stroke: #000000; stroke-width: 0.8; stroke-linejoin: miter; stroke-linecap: square"/>
   </g>
  </g>
 </g>
 <defs>
  <clipPath id="p3420ec08ec">
   <rect x="68.24" y="19.44" width="272.32" height="276.824"/>
  </clipPath>
 </defs>
</svg>
